<?xml version="1.0" standalone="no"?>
<!DOCTYPE svg PUBLIC "-//W3C//DTD SVG 1.1//EN" "http://www.w3.org/Graphics/SVG/1.1/DTD/svg11.dtd" >
<svg>
<metadata>
Created by FontForge 20110222 at Wed Apr 10 11:46:54 2013
 By Orthosie Webmaster
Copyright (c) Scangraphic Prepress Technology GmbH, 1992 - 2003. Veronika Elsner, Guenther Flake GbR, Hamburg 2004
</metadata>
<defs>
<font id="AdBuchSBBold" horiz-adv-x="568" >
  <font-face 
    font-family="AdBuchSBBold"
    font-weight="7"
    font-stretch="normal"
    units-per-em="1000"
    panose-1="0 0 0 0 0 0 0 0 0 0"
    ascent="800"
    descent="-200"
    x-height="563"
    cap-height="772"
    bbox="-181 -250 1083 1010"
    underline-thickness="88"
    underline-position="-69"
    unicode-range="U+0020-F002"
  />
<missing-glyph horiz-adv-x="787" 
d="M49 0v787h689v-787h-689zM689 49v689h-591v-689h591z" />
    <glyph glyph-name=".notdef" horiz-adv-x="787" 
d="M49 0v787h689v-787h-689zM689 49v689h-591v-689h591z" />
    <glyph glyph-name=".null" horiz-adv-x="0" 
 />
    <glyph glyph-name="nonmarkingreturn" horiz-adv-x="155" 
 />
    <glyph glyph-name="space" unicode=" " horiz-adv-x="155" 
 />
    <glyph glyph-name="exclam" unicode="!" horiz-adv-x="330" 
d="M272 463l-15 -217h-157l-15 217v309h187v-309zM272 190v-190h-187v190h187z" />
    <glyph glyph-name="quotedbl" unicode="&#x22;" horiz-adv-x="456" 
d="M81 463l-18 309h124l-18 -309h-88zM285 463l-17 309h124l-18 -309h-89z" />
    <glyph glyph-name="numbersign" unicode="#" horiz-adv-x="657" 
d="M574 234h-108l-37 -234h-97l31 200l9 36l-38 -2h-93l-37 -234h-96l32 200q2 19 8 36l-38 -2h-73l14 86h108l15 99l9 36l-38 -2h-73l13 86h108l37 233h97l-32 -199q-1 -7 -2.5 -16t-5.5 -20l37 2h93l37 233h97l-31 -199l-8 -36l37 2h70l-13 -86h-105l-16 -99
q-2 -10 -3 -17t-5 -19l38 2h73zM398 419l9 36l-38 -2h-93l-16 -99q-2 -19 -8 -36l38 2h92z" />
    <glyph glyph-name="dollar" unicode="$" horiz-adv-x="555" 
d="M344 880v-104q48 -10 76 -26t49.5 -46t29.5 -58.5t8 -85.5v-15h-189v14v16q0 26 -1 33t-8 21.5t-35 14.5q-41 0 -41 -57q0 -37 15.5 -55t98.5 -56t114 -74t43.5 -82.5t12.5 -100.5q0 -89 -45.5 -143.5t-127.5 -67.5v-110h-137v110q-93 23 -132 81t-39 176v14h192v-48
q0 -46 12 -64t40 -18q24 2 33.5 19.5t9.5 57.5q0 45 -13.5 61.5t-72 44t-91.5 49.5t-55.5 49.5t-33 65t-10.5 88.5q0 46 16.5 83t40 57.5t45 30.5t58.5 21v104h137z" />
    <glyph glyph-name="percent" unicode="%" horiz-adv-x="772" 
d="M317 498q0 -131 -136 -131q-138 0 -138 131v155q0 131 138 131q136 0 136 -131v-155zM157 496q0 -44 25 -44q23 0 23 44v157q0 45 -23 45q-25 0 -25 -45v-157zM634 772l-387 -772h-105l388 772h104zM729 107q0 -58 -34.5 -88.5t-98.5 -30.5q-66 0 -103 32t-37 91v162
q0 59 36 91t104 32q133 0 133 -119v-170zM568 102q0 -39 27 -36q21 0 21 36v175q0 36 -21 36q-27 3 -27 -36v-175z" />
    <glyph glyph-name="ampersand" unicode="&#x26;" horiz-adv-x="673" 
d="M657 383q-23 -53 -41.5 -85.5t-71.5 -121.5q11 -15 21 -20.5t29 -5.5q17 0 33 4v-148l-44 -4l-26 -2h-31q-26 0 -47.5 11t-45.5 36q-37 -31 -75 -45t-86 -14q-63 0 -102.5 14t-85 63.5t-45.5 132.5q0 70 22 114.5t89 110.5q-41 65 -55 99.5t-14 69.5q0 106 67.5 145
t137.5 39q87 0 142 -50t55 -130q0 -51 -23 -88.5t-31.5 -47.5t-40.5 -44l-15 -16l33 -43q13 -17 16 -21.5t15 -25.5q12 19 16.5 27.5t22.5 45.5h181zM324 595q3 22 -8.5 36.5t-32.5 14.5t-32 -13t-9 -36q0 -26 38 -70q40 34 44 68zM262 273q-9 11 -12 22q-44 -36 -44 -89
q0 -33 17.5 -54.5t45.5 -21.5q45 0 70 42z" />
    <glyph glyph-name="quotesingle" unicode="'" horiz-adv-x="252" 
d="M82 463l-18 309h124l-18 -309h-88z" />
    <glyph glyph-name="parenleft" unicode="(" horiz-adv-x="389" 
d="M348 772l-6 -15l-14 -36l-15 -36l-15 -36q-62 -152 -62 -367q0 -89 12 -171t26.5 -127.5t16 -50t51.5 -127.5l6 -15h-169q-15 24 -26 47t-40.5 93.5t-46.5 153t-17 197.5t16 195t54 170.5t60 124.5h169z" />
    <glyph glyph-name="parenright" unicode=")" horiz-adv-x="389" 
d="M41 -209l6 15l14 36l15 36l15 36q62 152 62 368q0 182 -47 325l-15 42l-30 72l-14 36l-6 15h169q15 -24 26.5 -47t40.5 -93.5t46 -153t17 -196.5q0 -116 -16 -196t-54 -170.5t-60 -124.5h-169z" />
    <glyph glyph-name="asterisk" unicode="*" horiz-adv-x="423" 
d="M259 734v-32q-3 -13 -4 -21q11 5 18.5 9t30.5 12l46 16l30 -92l-47 -14l-52 -12q10 -10 15.5 -16.5t19.5 -23.5l30 -39l-79 -57l-27 41q-10 16 -16.5 26t-11.5 19q-9 -17 -15 -26.5t-12 -18.5l-28 -41l-79 57l31 39q6 8 16 19.5t18 20.5l-51 12l-48 14l30 92l47 -16
l48 -21l-4 53l-2 49h98z" />
    <glyph glyph-name="plus" unicode="+" 
d="M196 445q15 0 26 -3q-3 11 -3 26v156h130v-156q0 -15 -3 -26q11 3 26 3h149v-119h-149q-15 0 -26 3q3 -11 3 -26v-155h-130v155q0 15 3 26q-11 -3 -26 -3h-150v119h150z" />
    <glyph glyph-name="comma" unicode="," horiz-adv-x="279" 
d="M236 184v-175q0 -128 -50.5 -154.5t-73 -30.5t-61.5 -4v126q25 0 34 12.5t9 45.5q-9 -4 -21 -4h-22v184h185z" />
    <glyph glyph-name="hyphen" unicode="-" horiz-adv-x="322" 
d="M279 380v-159h-236v159h236z" />
    <glyph glyph-name="period" unicode="." horiz-adv-x="260" 
d="M223 187v-187h-185v187h185z" />
    <glyph glyph-name="slash" unicode="/" horiz-adv-x="482" 
d="M440 772l-231 -957h-165l230 957h166z" />
    <glyph glyph-name="zero" unicode="0" 
d="M46 532q0 116 61 178t177 62q117 0 178 -61t61 -179v-304q0 -117 -61.5 -178.5t-177.5 -61.5t-177 61.5t-61 178.5v304zM337 543q0 54 -11.5 74.5t-41.5 20.5t-41.5 -20.5t-11.5 -74.5v-326q0 -54 11.5 -74.5t41.5 -20.5t41.5 20.5t11.5 74.5v326z" />
    <glyph glyph-name="one" unicode="1" 
d="M416 760v-760h-189v493q0 15 3 26q-11 -3 -26 -3h-113v126l30 -1q61 0 87.5 27.5t26.5 91.5h181z" />
    <glyph glyph-name="two" unicode="2" 
d="M48 137l237 298q52 67 52 133q0 73 -50 73q-47 0 -52.5 -33t-5.5 -60v-23v-36h-178l-2 54q0 112 61.5 170.5t178.5 58.5q107 0 170 -58t63 -158q0 -60 -22 -114.5t-71 -111.5l-81 -95q-26 -32 -39 -46t-42 -43l2 -3q25 0 65 2t55 2h140v-147h-481v137z" />
    <glyph glyph-name="three" unicode="3" 
d="M224 252v-18v-35q0 -40 13.5 -62.5t37.5 -22.5q59 0 59 105q0 74 -22 95q-17 13 -44 13h-40h-12v139h12q37 0 53.5 1.5t31 17t14.5 71.5q0 46 -11 65.5t-38 19.5t-37 -23t-10 -89h-181q0 78 13.5 118t45.5 68.5t76.5 42.5t97.5 14q110 0 169.5 -50.5t59.5 -146.5v-18
q0 -108 -64 -156q72 -55 72 -185q0 -228 -232 -228q-61 0 -91.5 5t-81.5 33.5t-60.5 83.5t-10.5 73t-1 69h181z" />
    <glyph glyph-name="four" unicode="4" 
d="M289 149q0 15 3 26q-11 -3 -26 -3h-241l-1 118l244 470h198v-425q0 -15 -3 -26q12 3 27 3h63v-140h-63q-15 0 -26 3l3 -26v-149h-178v149zM217 375l-33 -69l66 2l39 -1l26 -2q-3 11 -3 26v117q0 59 1 80t6 79l-6 1q-20 -61 -27.5 -79.5t-35.5 -80.5z" />
    <glyph glyph-name="five" unicode="5" 
d="M232 562q0 -15 -3 -29t-5 -25q55 35 120 35q38 0 72.5 -13t71 -50t36.5 -137v-130q0 -109 -63 -167t-180 -58q-150 0 -188 69t-45 107t-7 109h181v-32q0 -43 2 -59.5t13 -39.5t45 -23q57 0 57 79v145q0 69 -53 69q-57 0 -57 -69h-175l24 417h418v-146h-260z" />
    <glyph glyph-name="six" unicode="6" 
d="M341 553q0 39 -2 50t-11 26.5t-40 15.5q-25 0 -40.5 -18.5t-15.5 -47.5v-49v-15q0 -15 -4 -36l2 -2q34 24 59 32t66 8q39 0 78 -18t59.5 -43.5t27 -52.5t6.5 -76v-140q0 -93 -61 -146t-169 -53q-71 0 -116 16t-82.5 58t-45 86.5t-7.5 108.5v244q0 154 49.5 198.5t94 58.5
t101.5 14q66 0 107 -12t73 -41.5t44 -64.5t12 -101h-185zM232 191q0 -71 55 -71q54 0 54 71v128q0 71 -54 71q-55 0 -55 -71v-128z" />
    <glyph glyph-name="seven" unicode="7" 
d="M530 760v-122q-22 -36 -44.5 -77t-65.5 -127.5t-74.5 -194.5t-45.5 -239h-196q0 80 14 145t36.5 121.5t42.5 102.5t40 86l35 63l35 63l18 31q-28 0 -59.5 -1.5t-35.5 -1.5h-179v151h479z" />
    <glyph glyph-name="eight" unicode="8" 
d="M49 582q0 89 63.5 139.5t171.5 50.5t171.5 -50.5t63.5 -139.5q0 -58 -14.5 -96t-50.5 -66q43 -32 58.5 -73t15.5 -120q0 -239 -244 -239t-244 239q0 78 16 119.5t58 73.5q-35 28 -50 67.5t-15 94.5zM234 560q0 -50 10 -68.5t38 -18.5q26 0 37 19.5t11 67.5q0 50 -10 68.5
t-38 18.5q-26 0 -37 -19.5t-11 -67.5zM227 235q0 -65 11.5 -88.5t43.5 -23.5t43 22.5t11 89.5q0 65 -11 88.5t-43 23.5t-43.5 -23.5t-11.5 -88.5z" />
    <glyph glyph-name="nine" unicode="9" 
d="M230 207q0 -39 2 -50t11 -27t40 -16q25 0 40.5 18.5t15.5 48.5v49v32q3 12 4 20q-60 -39 -127 -39q-39 0 -78 18t-59.5 43.5t-27 52.5t-6.5 76v140q0 93 61 146t168 53q132 0 184.5 -58t60 -102.5t7.5 -108.5v-244q0 -154 -49.5 -198.5t-94 -58.5t-101.5 -14
q-66 0 -107 12t-73 41t-44 64.5t-12 101.5h185zM339 569q0 70 -54 70q-55 0 -55 -70v-128q0 -70 55 -70q54 0 54 70v128z" />
    <glyph glyph-name="colon" unicode=":" horiz-adv-x="295" 
d="M252 187v-187h-185v187h185zM252 496v-187h-185v187h185z" />
    <glyph glyph-name="semicolon" unicode=";" horiz-adv-x="295" 
d="M252 184v-175q0 -128 -50.5 -154.5t-73 -30.5t-61.5 -4v126q25 0 34 12.5t9 45.5q-9 -4 -21 -4h-22v184h185zM252 496v-187h-185v187h185z" />
    <glyph glyph-name="less" unicode="&#x3c;" 
d="M479 534l-188 -102q-29 -16 -44.5 -24t-44.5 -21q31 -17 49.5 -26.5t39.5 -20.5l188 -102v-131l-389 221v115l389 222v-131z" />
    <glyph glyph-name="equal" unicode="=" 
d="M513 549v-119h-458v119h458zM513 342v-119h-458v119h458z" />
    <glyph glyph-name="greater" unicode="&#x3e;" 
d="M479 443v-115l-389 -221v131l189 102q29 15 45 23.5t46 21.5q-20 10 -45 23t-46 24l-189 102v131z" />
    <glyph glyph-name="question" unicode="?" horiz-adv-x="536" 
d="M54 544l-1 5v6v5v26q0 58 16 94.5t47.5 59t72 33.5t83.5 11q97 0 156.5 -46.5t59.5 -128.5q0 -56 -13 -98.5t-54 -97.5t-51 -75t-10 -47v-40h-186v58q0 35 5 53t23 46l66 91q21 27 30.5 49.5t9.5 45.5q0 57 -35 57q-37 0 -37 -57v-50h-182zM360 187v-187h-186v187h186z
" />
    <glyph glyph-name="at" unicode="@" horiz-adv-x="1161" 
d="M890 25q-31 -13 -63.5 -19t-68.5 -6l-139 1l11 80q-16 -36 -54.5 -58.5t-79.5 -22.5q-69 0 -96.5 47.5t-27.5 121.5q0 117 71 203.5t186 86.5q85 0 161 -26l-45 -333h36q69 0 114 59.5t45 130.5q0 137 -81 208t-222 71q-116 0 -216 -54t-149 -140.5t-49 -166.5
q0 -313 313 -313q54 0 104 4.5t95 16.5l21 -101q-50 -14 -113 -19.5t-131 -5.5q-193 0 -306.5 105.5t-113.5 296.5q0 111 61.5 227.5t199.5 184.5t301 68q136 0 237.5 -55.5t139.5 -147.5t38 -160q0 -101 -44.5 -174.5t-134.5 -109.5zM620 362q-59 0 -94 -63t-35 -128
q0 -35 9.5 -53t41.5 -18q24 0 43 18.5t35 45.5l10 19l26 174q-20 5 -36 5z" />
    <glyph glyph-name="A" unicode="A" horiz-adv-x="603" 
d="M598 0h-213l-27 181h-109l-33 -181h-212l182 772h262zM267 371l-11 -42l43 2h23l38 -2q-4 12 -8 36l-17 103q-7 40 -12.5 78.5t-5.5 83.5h-6q-7 -63 -10.5 -84.5t-14.5 -77.5z" />
    <glyph glyph-name="B" unicode="B" horiz-adv-x="608" 
d="M342 772q102 0 156.5 -50.5t54.5 -145.5q0 -72 -19 -113t-66 -67q31 -18 47.5 -32.5t34.5 -50t18 -100.5q0 -56 -18 -101.5t-60.5 -78.5t-140.5 -33h-293v772h286zM253 496q0 -15 -3 -26q9 3 22 3h19q65 0 65 73q0 35 -14.5 49.5t-49.5 14.5h-39v-114zM253 185
q0 -15 -3 -26q11 3 25 3h22q72 0 72 74q0 81 -71 81h-22q-15 0 -26 3q3 -11 3 -26v-109z" />
    <glyph glyph-name="C" unicode="C" horiz-adv-x="608" 
d="M576 297q0 -74 -5 -114t-40 -117.5t-218 -77.5q-157 0 -203 63.5t-55.5 103t-9.5 109.5v233q0 71 4 100t43.5 108t217.5 79q161 0 205 -66t52.5 -109t8.5 -130h-201v18q0 71 -14 98t-51 27q-68 0 -68 -135v-215q0 -122 68 -122q49 0 56 33.5t8 53.5t1 60h201z" />
    <glyph glyph-name="D" unicode="D" horiz-adv-x="611" 
d="M276 772q83 0 128 -10t83.5 -41t57.5 -84t19 -138v-228q0 -139 -60 -205t-186 -66h-260v772h218zM255 185q0 -15 -3 -26q11 3 26 3h25q39 0 53.5 29.5t14.5 88.5v229q0 101 -71 101h-22q-15 0 -26 3q3 -11 3 -26v-402z" />
    <glyph glyph-name="E" unicode="E" horiz-adv-x="517" 
d="M479 772v-162h-203q-15 0 -26 3q3 -11 3 -26v-85q0 -15 -3 -26q11 3 26 3h176v-155h-176q-15 0 -26 3q3 -11 3 -26v-116q0 -15 -3 -26q11 3 26 3h203v-162h-423v772h423z" />
    <glyph glyph-name="F" unicode="F" horiz-adv-x="493" 
d="M472 772v-162h-194q-15 0 -26 3q3 -11 3 -26v-85q0 -15 -3 -26q11 3 26 3h177v-155h-177q-15 0 -26 3q3 -11 3 -26v-301h-197v772h414z" />
    <glyph glyph-name="G" unicode="G" horiz-adv-x="625" 
d="M574 460v-460h-164v36q0 17 7 46l-4 1q-32 -51 -68.5 -73t-89.5 -22q-209 0 -209 288v218q0 38 5 76.5t19.5 88t77 87.5t152.5 38q143 0 208.5 -62.5t65.5 -201.5h-200q0 37 -1 46t-12 32.5t-53 23.5q-38 0 -49.5 -24.5t-13.5 -38t-2 -46.5v-249q0 -35 2 -51t13.5 -39.5
t50.5 -23.5q33 0 51.5 24.5t18.5 66.5v36q0 15 3 26q-11 -3 -26 -3h-62v160h280z" />
    <glyph glyph-name="H" unicode="H" horiz-adv-x="627" 
d="M352 479q15 0 26 -3q-3 11 -3 26v270h197v-772h-197v294q0 15 3 26q-11 -3 -26 -3h-76q-15 0 -26 3q3 -11 3 -26v-294h-197v772h197v-270q0 -15 -3 -26q11 3 26 3h76z" />
    <glyph glyph-name="I" unicode="I" horiz-adv-x="308" 
d="M253 772v-772h-197v772h197z" />
    <glyph glyph-name="J" unicode="J" horiz-adv-x="523" 
d="M469 772v-530q0 -80 -13 -122.5t-59.5 -87t-144.5 -44.5q-110 0 -169 52t-59 151v125h191v-119q0 -47 28 -47q29 0 29 59v563h197z" />
    <glyph glyph-name="K" unicode="K" horiz-adv-x="619" 
d="M253 772v-166q0 -47 -3.5 -101.5t-3.5 -84.5l6 -2q23 70 36 103t35 85l70 166h216l-178 -370l186 -402h-216l-77 184q-19 46 -37 94t-35 98l-6 -1q0 -47 3.5 -105.5t3.5 -92.5v-177h-197v772h197z" />
    <glyph glyph-name="L" unicode="L" horiz-adv-x="509" 
d="M253 772v-587q0 -15 -3 -26q11 3 26 3h212v-162h-432v772h197z" />
    <glyph glyph-name="M" unicode="M" horiz-adv-x="850" 
d="M309 772l76 -327q14 -60 21 -94.5t16 -94.5h6q10 64 16.5 98t20.5 91l78 327h251v-772h-181v213q0 52 3 121t3 121l-6 1q-9 -56 -18 -106.5t-27 -131.5l-47 -218h-195l-45 216q-16 81 -23.5 120.5t-19.5 119.5l-6 -1q0 -52 3 -121t3 -122v-212h-181v772h252z" />
    <glyph glyph-name="N" unicode="N" horiz-adv-x="651" 
d="M595 0h-212l-82 240q-24 70 -35 107t-29 104l-6 -1q0 -53 3.5 -118t3.5 -102v-230h-181v773l214 -1l81 -239q23 -70 34 -107t29 -105l6 1q0 53 -3.5 118.5t-3.5 102.5v229h181v-772z" />
    <glyph glyph-name="O" unicode="O" horiz-adv-x="622" 
d="M577 247q0 -259 -266 -259q-139 0 -188.5 52.5t-63.5 96.5t-14 110v278q0 75 19 124t74 92t173 43q266 0 266 -259v-278zM242 270q0 -71 19 -95t50 -24q17 0 32.5 9t23.5 25q13 22 13 85v232q0 71 -19 95t-50 24q-17 0 -32.5 -9t-23.5 -25q-13 -22 -13 -85v-232z" />
    <glyph glyph-name="P" unicode="P" horiz-adv-x="576" 
d="M344 772q108 0 155 -58t47 -193q0 -74 -8 -117t-28 -73.5t-58.5 -47.5t-88.5 -17h-88q-15 0 -26 3q3 -11 3 -26v-243h-197v772h289zM272 610q-13 0 -23 3q3 -11 3 -26v-131q0 -15 -3 -26q9 3 22 3h19q56 0 56 92q0 85 -54 85h-20z" />
    <glyph glyph-name="Q" unicode="Q" horiz-adv-x="622" 
d="M615 23l-109 -106l-83 92q-53 -21 -111 -21q-130 0 -182.5 49t-68.5 94.5t-16 114.5v297q0 113 69 177t192 64q131 0 200 -62t69 -179v-303q0 -64 -4 -87.5t-22 -57.5zM241 270q0 -71 19 -95t50 -24q17 0 32.5 9t23.5 25q13 22 13 85v232q0 71 -19 95t-50 24
q-17 0 -32.5 -9t-23.5 -25q-13 -22 -13 -85v-232z" />
    <glyph glyph-name="R" unicode="R" horiz-adv-x="600" 
d="M346 772q201 0 201 -215v-15q0 -66 -15.5 -97t-69.5 -68q32 -20 44 -30.5t19 -25.5q18 -32 18 -76l2 -44l1 -21q0 -52 14 -111q5 -26 9.5 -38.5t14.5 -30.5h-203q-6 14 -11.5 32.5t-8.5 35.5t-5 30.5t-2 27.5l-2 63q0 61 -10 82t-38 21h-28q-15 0 -26 3q3 -11 3 -26v-269
h-197v772h290zM275 610q-14 0 -25 3q3 -11 3 -26v-107q0 -15 -3 -26q11 3 26 3h25q29 0 41 19t12 66q0 68 -57 68h-22z" />
    <glyph glyph-name="S" unicode="S" horiz-adv-x="571" 
d="M223 269v-9v-21q0 -89 62 -89q26 0 41.5 15.5t15.5 40.5q0 36 -44 66l-46 30l-17 11l-18 11l-18 11q-89 54 -123.5 111t-34.5 139q0 92 64.5 145.5t169.5 53.5q120 0 181.5 -54.5t61.5 -160.5l-1 -29h-186v17q0 66 -47 66h-9q-20 -2 -29.5 -14.5t-7.5 -31.5
q2 -17 14.5 -30.5t46.5 -36.5l16 -11l98 -63q67 -45 96.5 -100.5t29.5 -131.5q0 -103 -68.5 -159.5t-189.5 -56.5q-150 0 -195 67t-51 127l-2 53v26v8h190z" />
    <glyph glyph-name="T" unicode="T" horiz-adv-x="504" 
d="M484 772v-162h-110q-15 0 -26 3q3 -11 3 -26v-587h-197v587q0 15 3 26q-11 -3 -26 -3h-111v162h464z" />
    <glyph glyph-name="U" unicode="U" horiz-adv-x="616" 
d="M564 772l-1 -547q0 -61 -14 -101.5t-63 -88t-178 -47.5q-255 0 -255 237v547h197v-538q0 -84 58 -84q59 0 59 84v538h197z" />
    <glyph glyph-name="V" unicode="V" horiz-adv-x="590" 
d="M216 772l50 -326q9 -56 17.5 -108t8.5 -117h7q0 70 9 125t17 100l49 326h208l-184 -772h-211l-178 772h207z" />
    <glyph glyph-name="W" unicode="W" horiz-adv-x="885" 
d="M734 0h-212l-44 248q-11 63 -17 105t-13 108h-6q-7 -62 -13 -103t-18 -110l-45 -248h-213l-145 772h193l40 -309q8 -58 15 -111.5t7 -119.5h7q0 66 8 119.5t18 111.5l46 309h203l47 -311q11 -70 19 -121t8 -108h7q0 63 8 121t14 109l41 310h188z" />
    <glyph glyph-name="X" unicode="X" horiz-adv-x="611" 
d="M213 772l45 -112q16 -40 23.5 -59.5t20.5 -60.5h4q10 33 20.5 63t21.5 57l44 112h207l-166 -374l171 -398h-218l-42 111q-16 45 -22.5 64.5t-16.5 56.5h-4q-9 -37 -16 -59.5t-21 -61.5l-38 -111h-220l171 400l-168 372h204z" />
    <glyph glyph-name="Y" unicode="Y" horiz-adv-x="608" 
d="M400 250v-250h-197v249l-197 523h208l44 -150q18 -57 23.5 -79.5t19.5 -83.5h5q12 55 19 83.5t23 79.5l44 150h210z" />
    <glyph glyph-name="Z" unicode="Z" horiz-adv-x="565" 
d="M533 772v-142l-227 -391l-48 -79l92 2h183v-162h-500v142l226 391l48 79l-92 -2h-170v162h488z" />
    <glyph glyph-name="bracketleft" unicode="[" horiz-adv-x="381" 
d="M340 623h-76q-15 0 -26 3q3 -11 3 -26v-637q0 -15 -3 -26q11 3 26 3h76v-149h-282v981h282v-149z" />
    <glyph glyph-name="backslash" unicode="\" horiz-adv-x="482" 
d="M440 -185h-166l-230 957h166z" />
    <glyph glyph-name="bracketright" unicode="]" horiz-adv-x="381" 
d="M40 -60h76q15 0 26 -3q-3 11 -3 26v637q0 15 3 26q-11 -3 -26 -3h-76v149h282v-981h-282v149z" />
    <glyph glyph-name="asciicircum" unicode="^" 
d="M417 386l-85 175q-14 30 -24 52.5t-22 52.5q-7 -16 -22.5 -48t-27.5 -57l-84 -175h-114l191 386h110l192 -386h-114z" />
    <glyph glyph-name="underscore" unicode="_" horiz-adv-x="456" 
d="M455 -69v-89h-455v89h455z" />
    <glyph glyph-name="grave" unicode="`" horiz-adv-x="0" 
d="M75 622h-127l-80 150h165z" />
    <glyph glyph-name="a" unicode="a" horiz-adv-x="525" 
d="M54 377q0 51 9.5 81t36 59.5t66.5 43.5t107 14q51 0 89.5 -11.5t65 -34.5t38.5 -55t12 -83v-325q0 -20 3 -30t13 -36h-174q-4 15 -6.5 28t-2.5 32l-4 1q-23 -41 -50.5 -57t-75.5 -16q-143 0 -143 177q0 65 43.5 107t116 64.5t89.5 35.5t17 36q0 36 -38 36
q-27 0 -38.5 -11.5t-11.5 -41.5l-1 -14h-161zM304 225l2 31l-33 -12q-64 -22 -64 -70q0 -49 40 -49q55 0 55 72v28z" />
    <glyph glyph-name="b" unicode="b" horiz-adv-x="555" 
d="M232 772v-129v-22q0 -39 -2 -64l-4 -50l4 -2q31 40 59.5 55t74.5 15q77 0 115.5 -55t38.5 -147v-178q0 -66 -8 -100t-39.5 -70.5t-105.5 -36.5q-46 0 -77.5 20t-61.5 70l-4 -1q7 -29 7 -44v-33h-180v772h183zM232 203q0 -30 13.5 -47.5t36.5 -17.5t38 17t15 45v160
q0 29 -15 47t-39 18q-21 0 -35 -19t-14 -46v-157z" />
    <glyph glyph-name="c" unicode="c" horiz-adv-x="536" 
d="M504 241q0 -73 -10 -112t-54 -90t-169 -51q-104 0 -152 36.5t-65 76.5t-17 103v176q0 91 61.5 143t169.5 52q125 0 168.5 -50t55.5 -89t12 -100h-189v20q0 20 -0.5 39.5t-11.5 34t-35 14.5q-48 0 -48 -70v-172q0 -46 10.5 -64.5t36.5 -18.5t37 17t11 59v32v14h189z" />
    <glyph glyph-name="d" unicode="d" horiz-adv-x="555" 
d="M507 0h-181v33q0 15 7 44l-4 1q-51 -90 -138 -90t-114 43.5t-33 74.5t-6 89v178q0 92 38 147t116 55q48 0 75.5 -14.5t58.5 -55.5l3 2q-3 33 -4 61t-1 75v129h183v-772zM221 200q0 -27 14.5 -44.5t38.5 -17.5q22 0 36 18t14 47v157q0 27 -14 46t-35 19q-24 0 -39 -18
t-15 -47v-160z" />
    <glyph glyph-name="e" unicode="e" horiz-adv-x="536" 
d="M501 197q0 -103 -60 -156t-174 -53q-101 0 -165 58t-64 169v132q0 72 19 115.5t55.5 68t74 34.5t79.5 10q49 0 93 -14t93 -55.5t49 -146.5v-117h-249q-15 0 -26 3q3 -11 3 -26v-50q0 -50 42 -50q30 0 36.5 16.5t7.5 25t1 36.5h185zM293 361q15 0 26 -3q-3 10 -3 23v21
q0 18 -13 30t-32 12q-18 0 -30 -13t-12 -31v-20q0 -13 -3 -22q11 3 26 3h41z" />
    <glyph glyph-name="f" unicode="f" horiz-adv-x="348" 
d="M48 563q15 0 26 -3q-3 11 -3 26v55q0 79 54 107t138 28h40q21 -3 31 -4v-155h-14q-38 0 -52 -9t-14 -33v-6q0 -3 -3 -9q11 3 26 3h57v-124h-57q-15 0 -26 3q3 -11 3 -26v-416h-183v416q0 15 3 26q-11 -3 -26 -3h-32v124h32z" />
    <glyph glyph-name="g" unicode="g" horiz-adv-x="547" 
d="M499 563v-552q0 -54 -2 -70t-16.5 -53t-69 -65t-128.5 -28q-58 0 -96 8t-89 40t-51 127v17h175v-11q0 -34 10 -48t34 -14q50 0 50 64v58q0 34 7 69l-4 1q-28 -48 -57.5 -66.5t-77.5 -18.5q-32 0 -63 15t-57 48.5t-26 118.5v181q0 58 8 88.5t39 66.5t94 36q52 0 83 -20
t60 -72l5 1q-8 29 -8 45v34h180zM316 358q0 63 -48 63q-47 0 -47 -63v-121q0 -63 47 -63q48 0 48 63v121z" />
    <glyph glyph-name="h" unicode="h" horiz-adv-x="552" 
d="M231 772v-131v-23q0 -39 -2 -64.5t-4 -50.5l4 -2q33 41 64.5 57.5t76.5 16.5q32 0 59.5 -14t45 -37t23.5 -51t6 -85v-388h-183v350q0 40 -10 56t-35 16q-45 0 -45 -69v-353h-183v772h183z" />
    <glyph glyph-name="i" unicode="i" horiz-adv-x="279" 
d="M231 772v-151h-183v151h183zM231 563v-563h-183v563h183z" />
    <glyph glyph-name="j" unicode="j" horiz-adv-x="279" 
d="M232 563v-577q0 -62 -2.5 -79t-18.5 -49.5t-56 -49.5t-116 -17q-31 0 -66 4v155q41 0 58.5 15.5t17.5 53.5v544h183zM232 772v-151h-183v151h183z" />
    <glyph glyph-name="k" unicode="k" horiz-adv-x="539" 
d="M230 772v-245q0 -51 -3.5 -109.5t-3.5 -89.5l6 -2q14 46 27 76.5t23 52.5l49 108h198l-126 -256l131 -307h-200l-51 132q-19 49 -27.5 76t-23.5 80l-6 -1q7 -78 7 -155v-132h-183v772h183z" />
    <glyph glyph-name="l" unicode="l" horiz-adv-x="279" 
d="M231 772v-772h-183v772h183z" />
    <glyph glyph-name="m" unicode="m" horiz-adv-x="804" 
d="M227 563v-32q0 -19 -7 -40l4 -2q33 49 63.5 67.5t73.5 18.5q80 0 124 -75q28 42 58.5 58.5t79.5 16.5q73 0 103 -45t30 -138v-392h-183v372q0 24 -11 37t-30 13q-16 0 -27.5 -14.5t-11.5 -33.5v-374h-183v373q0 22 -10.5 35.5t-27.5 13.5q-18 0 -30 -14t-12 -34v-374
h-183v563h180z" />
    <glyph glyph-name="n" unicode="n" horiz-adv-x="549" 
d="M228 563v-35q0 -16 -7 -45l4 -1q31 53 62.5 73t83.5 20q33 0 62.5 -15t48.5 -42t19 -64v-49v-405h-183v356q0 66 -38 66q-22 2 -35.5 -15.5t-13.5 -48.5v-358h-183v563h180z" />
    <glyph glyph-name="o" unicode="o" horiz-adv-x="544" 
d="M507 197q0 -101 -61 -155t-176 -54q-110 0 -171.5 56.5t-61.5 157.5v149q0 121 68.5 172.5t161.5 51.5q62 0 98.5 -10t72 -39t52.5 -75t17 -115v-139zM220 197q0 -78 52 -78t52 78v169q0 78 -52 78t-52 -78v-169z" />
    <glyph glyph-name="p" unicode="p" horiz-adv-x="555" 
d="M49 563h180v-33q0 -15 -7 -44l4 -1q30 50 61 70t78 20q87 0 114 -43.5t33 -74.5t6 -88v-178q0 -93 -38 -148t-116 -55q-48 0 -75 14t-59 56l-4 -2q4 -50 5 -69.5t1 -66.5v-129h-183v772zM335 363q0 27 -14.5 44.5t-38.5 17.5q-22 0 -36 -18t-14 -47v-157q0 -27 14 -46
t35 -19q24 0 39 18t15 47v160z" />
    <glyph glyph-name="q" unicode="q" horiz-adv-x="555" 
d="M324 -209v129v86q4 29 5 50l-3 2q-31 -41 -58.5 -55.5t-75.5 -14.5q-38 0 -69 16t-58 55t-27 132v178q0 66 8 99.5t39.5 70t105.5 36.5q46 0 78.5 -21t59.5 -69l4 1q-7 29 -7 44v33h181v-772h-183zM324 360q0 29 -14 47t-36 18q-23 0 -38 -17t-15 -45v-160q0 -29 15 -47
t39 -18q21 0 35 19t14 46v157z" />
    <glyph glyph-name="r" unicode="r" horiz-adv-x="378" 
d="M221 563v-27q0 -15 -7 -34l4 -1q30 42 60.5 58t75.5 16l14 -1v-158h-17q-53 0 -86 -12.5t-33 -62.5v-341h-183v563h172z" />
    <glyph glyph-name="s" unicode="s" horiz-adv-x="509" 
d="M210 188v-16q0 -34 9 -47t34 -13q17 0 29 10t12 26q0 24 -21 39l-41 23l-17 9l-18 9l-17 9q-37 19 -47 24.5t-35.5 22t-43.5 52.5t-18 86q0 76 55.5 114.5t162.5 38.5q217 0 217 -182h-182v17q0 43 -37 43q-33 0 -33 -28q0 -17 9 -26t41 -23t75.5 -38t89 -57t45.5 -118
q0 -83 -58 -129t-163 -46q-122 0 -164.5 42t-54 72.5t-11.5 85.5h182z" />
    <glyph glyph-name="t" unicode="t" horiz-adv-x="364" 
d="M253 705v-119q0 -15 -3 -26q11 3 26 3h59v-124h-59q-15 0 -26 3q3 -11 3 -26v-209q0 -35 10.5 -46.5t42.5 -11.5l29 2v-154l-16 -2q-44 -5 -53.5 -6t-29.5 -1q-106 0 -135.5 44.5t-29.5 101.5l-1 69v213q0 15 3 26q-11 -3 -26 -3h-34v124h34q15 0 26 -3q-3 11 -3 26v119
h183z" />
    <glyph glyph-name="u" unicode="u" horiz-adv-x="549" 
d="M322 0v35q0 16 7 45l-4 1q-33 -54 -64 -73.5t-83 -19.5q-33 0 -62.5 15t-48.5 43t-19 63v49v405h183v-356q0 -66 38 -66q22 -2 35.5 15.5t13.5 48.5v358h183v-563h-179z" />
    <glyph glyph-name="v" unicode="v" horiz-adv-x="499" 
d="M340 0h-187l-146 563h185l29 -163q12 -67 15 -90.5t10 -96.5h6q5 53 11 95t15 92l29 163h185z" />
    <glyph glyph-name="w" unicode="w" horiz-adv-x="759" 
d="M625 0h-192l-29 144q-10 45 -16.5 85t-11.5 79h-5q-9 -62 -13 -86t-16 -78l-32 -144h-192l-113 563h187l19 -158q6 -47 11 -89t5 -100h7q0 43 1.5 59t18.5 130l22 158h195l23 -163q7 -48 14 -93.5t7 -100.5h6q0 47 1 63.5t15 130.5l20 163h185z" />
    <glyph glyph-name="x" unicode="x" horiz-adv-x="560" 
d="M217 563l30 -72q4 -8 13 -31.5t16 -47.5h4q7 29 11 39.5t16 39.5l28 72h202l-148 -274l169 -289h-210l-35 82q-9 21 -17.5 43.5t-15.5 45.5h-4q-7 -24 -14.5 -44.5t-17.5 -44.5l-33 -82h-209l163 289l-149 274h201z" />
    <glyph glyph-name="y" unicode="y" horiz-adv-x="547" 
d="M198 563l38 -155q15 -60 20.5 -86.5t15.5 -85.5h6q8 51 14.5 85.5t18.5 86.5l35 155h192l-188 -612q-26 -86 -73 -123t-130 -37h-21h-35q-17 3 -29 4v150l16 -2q35 0 56.5 8.5t28.5 27.5l13 32l-167 552h189z" />
    <glyph glyph-name="z" unicode="z" horiz-adv-x="498" 
d="M24 121l154 214q24 33 36 48.5t29 36.5q-11 1 -27 1q-9 0 -30.5 -1t-40.5 -1h-94v144h423v-120l-159 -216l-68 -86q9 -1 16 -1h15q11 0 35 1t44 1h117v-142h-450v121z" />
    <glyph glyph-name="braceleft" unicode="{" horiz-adv-x="383" 
d="M243 143v-151q0 -64 20.5 -81.5t65.5 -17.5h14v-102h-89q-92 0 -126 43.5t-34 126.5v170q0 44 -10 67t-35 32v103q45 16 45 99v170q0 83 32 123q34 47 128 47h89v-102h-13q-50 0 -63.5 -15t-18.5 -34t-5 -50v-151q0 -57 -18 -87t-65 -50q45 -21 64 -52.5t19 -87.5z" />
    <glyph glyph-name="bar" unicode="|" horiz-adv-x="268" 
d="M190 772v-1004h-112v1004h112z" />
    <glyph glyph-name="braceright" unicode="}" horiz-adv-x="383" 
d="M147 420v151q0 37 -5 54.5t-23 31t-65 13.5h-14v102h88q74 0 107.5 -40.5t33.5 -129.5v-170q0 -46 14.5 -68t50.5 -31v-103q-36 -9 -50.5 -31.5t-14.5 -67.5v-170q0 -40 -7 -71.5t-21.5 -53t-44 -33.5t-68.5 -12h-88v102h13q54 0 74 20.5t20 78.5v151q0 57 16 87.5
t58 49.5q-40 21 -57 52.5t-17 87.5z" />
    <glyph glyph-name="asciitilde" unicode="~" 
d="M36 380q71 102 137 102q25 0 51.5 -10t45.5 -20.5t47 -26t58 -15.5q28 0 45 11t44 49l68 -78q-72 -103 -143 -103q-32 0 -46.5 5.5t-25.5 11.5t-51 29t-69 26q-17 2 -34 -4t-27 -16t-15.5 -16.5t-16.5 -22.5z" />
    <glyph glyph-name="nonbreakingspace" unicode="&#xa0;" horiz-adv-x="250" 
 />
    <glyph glyph-name="exclamdown" unicode="&#xa1;" horiz-adv-x="330" 
d="M58 100l15 217h157l15 -217v-309h-187v309zM58 373v190h187v-190h-187z" />
    <glyph glyph-name="cent" unicode="&#xa2;" horiz-adv-x="549" 
d="M509 348v-20q0 -105 -44.5 -160t-140.5 -69v-99h-95v99q-83 0 -134.5 56.5t-51.5 141.5v191q0 107 55.5 149t129.5 52v94h96v-94q82 -10 121.5 -52.5t51 -80t11.5 -105.5h-188l1 21q0 52 -9 69.5t-38 17.5q-48 0 -48 -70v-190q0 -72 52 -72q43 0 43 72v33v16h188z" />
    <glyph glyph-name="sterling" unicode="&#xa3;" horiz-adv-x="643" 
d="M369 529v17q0 56 -7 73t-32 17q-15 0 -25.5 -12.5t-10.5 -30.5t2 -35t9 -49l15 -59h136v-133h-68l-47 2q10 -40 14.5 -60t4.5 -37v-29l-2 -32q14 -14 31 -10q32 7 32 71v11h187q0 -80 -27.5 -160.5t-140.5 -80.5q-44 0 -74.5 9t-68.5 33q-59 -42 -124 -42q-64 0 -106 36
t-42 91q0 58 34.5 89.5t92.5 31.5q17 0 40 -10q-9 60 -18 87h-103v133h33l37 -2q-28 84 -28 152q0 74 61 123t154 49q113 0 158.5 -41t58.5 -80.5t13 -106.5v-15h-189zM160 143q-27 0 -27 -30q0 -13 11.5 -20.5t25.5 -3.5q13 3 20.5 13t9 14t2.5 7q-12 12 -21 16t-21 4z" />
    <glyph glyph-name="currency" unicode="&#xa4;" 
d="M443 633l88 -88l-67 -67q23 -47 23 -92q0 -49 -23 -92l67 -67l-88 -88l-67 67q-44 -22 -92 -22q-25 0 -46 5t-46 17l-67 -67l-88 88l67 67q-22 44 -22 92q0 44 22 92l-67 67l88 88l67 -67q25 12 46 17t46 5t46 -5t46 -17zM196 367q7 -31 32 -51t57 -20q5 0 19 2
q32 8 51.5 32t19.5 57q0 6 -4.5 27.5t-30 41.5t-57.5 20q-6 0 -27.5 -4.5t-41.5 -29.5t-20 -57q0 -6 2 -18z" />
    <glyph glyph-name="yen" unicode="&#xa5;" 
d="M188 277l-24 65h-82v85h50l-126 334h208l44 -150q18 -57 23.5 -79.5t19.5 -83.5h5q12 55 19 83.5t23 79.5l44 150h210l-130 -334h54v-85h-87l-25 -65h112v-85h-126v-192h-197v192h-121v85h106z" />
    <glyph glyph-name="section" unicode="&#xa7;" horiz-adv-x="603" 
d="M356 578q0 39 -10 55.5t-36 16.5q-16 0 -27 -10t-11 -25t8 -29t19 -23t29.5 -22t32.5 -22l15 -9l14 -10l14 -9q76 -50 110.5 -90.5t40 -71.5t5.5 -46q0 -82 -84 -159q56 -51 56 -122q0 -12 -1 -18q0 -78 -63.5 -122.5t-167.5 -44.5q-243 0 -243 216h182q0 -73 58 -73
q22 0 33.5 12.5t11.5 32.5q0 18 -12.5 29.5t-70 49t-85 57.5t-59 48t-50.5 59.5t-19 67.5q-1 6 -1 18q0 84 86 156q-19 27 -29.5 51.5t-10.5 48.5q0 45 16.5 85.5t60.5 74.5t140 34q123 0 165 -47.5t50.5 -77.5t8.5 -81h-176zM301 261q21 -16 35 -25.5t28 -16.5q23 15 23 41
q0 20 -17.5 37.5t-57.5 48t-72 50.5q-28 -26 -22 -53q3 -15 18.5 -30.5t54.5 -43.5z" />
    <glyph glyph-name="dieresis" unicode="&#xa8;" horiz-adv-x="0" 
d="M-21 772v-151h-147v151h147zM170 772v-151h-147v151h147z" />
    <glyph glyph-name="copyright" unicode="&#xa9;" horiz-adv-x="902" 
d="M610 338q0 -43 -3 -66.5t-24 -68t-131 -44.5q-93 0 -120.5 36.5t-33.5 58.5t-6 63v131q0 55 10 83t43.5 55t105.5 27q95 0 122 -38t32 -61.5t5 -77.5h-123v13q0 39 -7.5 53.5t-28.5 14.5q-38 0 -38 -74v-122q0 -66 38 -66q26 0 31 22.5t5 60.5h123zM857 386
q0 -165 -119 -283t-287 -118q-169 0 -287.5 117.5t-118.5 283.5q0 165 119 283t287 118t287 -117t119 -284zM131 386q0 -134 94 -229t226 -95t226 95t94 229t-94 229t-226 95t-226 -95t-94 -229z" />
    <glyph glyph-name="ordfeminine" unicode="&#xaa;" horiz-adv-x="323" 
d="M28 659q0 66 33 95t106 29q130 0 130 -112v-192q0 -10 2 -16.5t10 -26.5h-116l-5 30l-3 1q-24 -38 -74 -38q-92 0 -92 109q0 41 26 65t72.5 38.5t55.5 21t9 17.5q0 18 -19 18q-15 0 -21.5 -6.5t-6.5 -20.5v-12h-107zM182 570q0 9 4 15q-32 -10 -43 -18.5t-11 -23.5
q0 -25 20 -25q30 0 30 38v14z" />
    <glyph glyph-name="guillemotleft" unicode="&#xab;" horiz-adv-x="571" 
d="M527 40l-214 190v117l214 188v-198l-41 -25q-9 -6 -15.5 -10t-28.5 -16q9 -5 21 -13t23 -16l41 -28v-189zM261 40l-216 190v117l216 188v-198l-39 -25l-44 -26q16 -10 25 -15.5t19 -13.5l39 -28v-189z" />
    <glyph glyph-name="logicalnot" unicode="&#xac;" 
d="M516 544v-316h-127v174q0 15 3 26q-11 -3 -26 -3h-315v119h465z" />
    <glyph glyph-name="registered" unicode="&#xae;" horiz-adv-x="902" 
d="M477 606q121 0 121 -123q0 -44 -9 -63.5t-40 -36.5q28 -18 35 -33q11 -16 11 -43l1 -13v-12l1 -12q0 -34 6.5 -60t18.5 -44h-126q-8 19 -12 40.5t-4.5 27t-0.5 41.5q0 35 -5 45.5t-21 10.5h-14q-10 0 -17 3q3 -11 3 -26v-142h-121v440h173zM437 510q-9 0 -15 3
q3 -11 3 -26v-35q0 -15 -3 -26q7 3 16 3h13q16 0 22 10t6 35q0 36 -30 36h-12zM857 386q0 -165 -119 -283t-287 -118q-169 0 -287.5 117.5t-118.5 283.5q0 165 119 283t287 118t287 -117t119 -284zM131 386q0 -134 94 -229t226 -95t226 95t94 229t-94 229t-226 95t-226 -95
t-94 -229z" />
    <glyph glyph-name="degree" unicode="&#xb0;" horiz-adv-x="423" 
d="M377 613q0 -68 -48 -116t-118 -48q-68 0 -117 48t-49 116q0 69 48.5 116.5t117.5 47.5q68 0 117 -48t49 -116zM116 613q0 -38 27.5 -65.5t67.5 -27.5q39 0 67 27t28 66t-27 66t-68 27q-39 0 -67 -27t-28 -66z" />
    <glyph glyph-name="plusminus" unicode="&#xb1;" 
d="M198 533q15 0 26 -3q-3 11 -3 26v132h127v-132q0 -15 -3 -26q11 3 26 3h142v-119h-142q-15 0 -26 3q3 -11 3 -26v-130h-127v130q0 15 3 26q-11 -3 -26 -3h-143v119h143zM513 187v-119h-458v119h458z" />
    <glyph glyph-name="acute" unicode="&#xb4;" horiz-adv-x="0" 
d="M142 772l-80 -150h-127l42 150h165z" />
    <glyph glyph-name="mu" unicode="&#xb5;" horiz-adv-x="549" 
d="M206 -133l-4 -37q-1 -11 -2 -21t-7 -41h-160l1 9l2 9l1 9q5 34 8 65.5t3 74.5v628h183v-356q0 -66 41 -66q47 0 47 64v358h183v-563h-180v35q0 17 8 46l-5 1q-26 -44 -40 -58t-30 -20.5t-32 -6.5l-11 1z" />
    <glyph glyph-name="paragraph" unicode="&#xb6;" horiz-adv-x="665" 
d="M268 351q0 16 3 27l-25 -3q-34 0 -73 11.5t-70.5 33t-50.5 61.5t-19 90q0 124 80.5 162.5t184.5 38.5h344v-96h-90q-15 0 -26 3q3 -11 3 -26v-885h-82v885q0 15 3 26q-11 -3 -26 -3h-51q-15 0 -26 3q3 -11 3 -26v-885h-82v583z" />
    <glyph glyph-name="cedilla" unicode="&#xb8;" horiz-adv-x="0" 
d="M68 -31v-94q0 -33 -4 -51.5t-25.5 -46t-85.5 -27.5h-17v71q24 0 33 12.5t9 47.5q-9 -4 -21 -4h-21v92h132z" />
    <glyph glyph-name="ordmasculine" unicode="&#xba;" horiz-adv-x="335" 
d="M316 557q0 -61 -39 -94t-111 -33q-69 0 -108 34t-39 96v87q0 64 38 100t107 36q78 0 115 -35t37 -109v-82zM139 557q0 -42 29 -42q28 0 28 42v99q0 42 -28 42q-29 0 -29 -42v-99z" />
    <glyph glyph-name="guillemotright" unicode="&#xbb;" horiz-adv-x="571" 
d="M45 535l213 -190v-117l-213 -188v197l41 26q17 12 21.5 14.5t22.5 11.5q-13 7 -25 15t-19 13l-41 28v190zM311 535l216 -190v-117l-216 -188v197l39 26q12 8 21 13.5t23 12.5l-44 28l-39 28v190z" />
    <glyph glyph-name="questiondown" unicode="&#xbf;" horiz-adv-x="536" 
d="M482 19l1 -5v-11v-26q0 -59 -16 -95t-47.5 -58.5t-72 -33.5t-83.5 -11q-97 0 -156.5 46.5t-59.5 128.5q0 56 13 98.5t54 97.5t51 75t10 46v41h186v-58q0 -47 -14.5 -76.5t-58 -85.5t-52.5 -77.5t-9 -45.5q0 -57 35 -57q37 0 37 57v50h182zM176 376v187h186v-187h-186z
" />
    <glyph glyph-name="Agrave" unicode="&#xc0;" horiz-adv-x="603" 
d="M598 0h-213l-27 181h-109l-33 -181h-212l182 772h262zM267 371l-11 -42l43 2h23l38 -2q-4 12 -8 36l-17 103q-7 40 -12.5 78.5t-5.5 83.5h-6q-7 -63 -10.5 -84.5t-14.5 -77.5zM391 823h-127l-81 150h166z" />
    <glyph glyph-name="Aacute" unicode="&#xc1;" horiz-adv-x="603" 
d="M598 0h-213l-27 181h-109l-33 -181h-212l182 772h262zM267 371l-11 -42l43 2h23l38 -2q-4 12 -8 36l-17 103q-7 40 -12.5 78.5t-5.5 83.5h-6q-7 -63 -10.5 -84.5t-14.5 -77.5zM457 973l-80 -150h-127l42 150h165z" />
    <glyph glyph-name="Acircumflex" unicode="&#xc2;" horiz-adv-x="603" 
d="M598 0h-213l-27 181h-109l-33 -181h-212l182 772h262zM267 371l-11 -42l43 2h23l38 -2q-4 12 -8 36l-17 103q-7 40 -12.5 78.5t-5.5 83.5h-6q-7 -63 -10.5 -84.5t-14.5 -77.5zM414 972l81 -149h-136l-22 36l-23 39l-23 -39l-23 -36h-133l81 149h198z" />
    <glyph glyph-name="Atilde" unicode="&#xc3;" horiz-adv-x="603" 
d="M598 0h-213l-27 181h-109l-33 -181h-212l182 772h262zM267 371l-11 -42l43 2h23l38 -2q-4 12 -8 36l-17 103q-7 40 -12.5 78.5t-5.5 83.5h-6q-7 -63 -10.5 -84.5t-14.5 -77.5zM490 961v-13q0 -42 -3.5 -59t-14.5 -32t-30 -23t-40 -8q-29 0 -85 20t-71 18
q-10 -2 -13.5 -7.5t-5.5 -22.5h-92v11q0 125 99 125q20 0 62 -14l49 -16q18 -6 31 -6q17 0 20 27h94z" />
    <glyph glyph-name="Adieresis" unicode="&#xc4;" horiz-adv-x="603" 
d="M598 0h-213l-27 181h-109l-33 -181h-212l182 772h262zM267 371l-11 -42l43 2h23l38 -2q-4 12 -8 36l-17 103q-7 40 -12.5 78.5t-5.5 83.5h-6q-7 -63 -10.5 -84.5t-14.5 -77.5zM294 973v-151h-147v151h147zM485 973v-151h-147v151h147z" />
    <glyph glyph-name="Aring" unicode="&#xc5;" horiz-adv-x="603" 
d="M598 0h-213l-27 181h-109l-33 -181h-212l182 772h262zM267 371l-11 -42l43 2h23l38 -2q-4 12 -8 36l-17 103q-7 40 -12.5 78.5t-5.5 83.5h-6q-7 -63 -10.5 -84.5t-14.5 -77.5zM434 902q0 -50 -33 -83t-84 -33q-46 0 -79.5 35.5t-33.5 83.5q0 44 33.5 74.5t80.5 30.5
q48 0 82 -32t34 -76zM283 900q0 -15 10.5 -25.5t26.5 -10.5q15 0 25 10t10 25t-10 25t-25 10t-26 -10t-11 -24z" />
    <glyph glyph-name="AE" unicode="&#xc6;" horiz-adv-x="868" 
d="M829 772v-157h-207q-15 0 -26 3q3 -11 3 -26v-114h207v-157h-184q-15 0 -26 3q3 -11 3 -26v-108q0 -15 -3 -26q11 3 26 3h207v-167h-427v154q0 15 3 26q-11 -3 -26 -3h-105l-62 -177h-212l287 772h542zM387 337q15 0 26 -3q-3 11 -3 26v113q0 56 1 79.5t6 80.5l-6 1
q-14 -49 -25 -82t-28 -79l-28 -76l-26 -62l54 2h29z" />
    <glyph glyph-name="Ccedilla" unicode="&#xc7;" horiz-adv-x="608" 
d="M576 297q0 -74 -5 -114t-40 -117.5t-218 -77.5q-157 0 -203 63.5t-55.5 103t-9.5 109.5v233q0 71 4 100t43.5 108t217.5 79q161 0 205 -66t52.5 -109t8.5 -130h-201v18q0 71 -14 98t-51 27q-68 0 -68 -135v-215q0 -122 68 -122q49 0 56 33.5t8 53.5t1 60h201zM371 -31
v-94q0 -33 -4 -51.5t-25.5 -46t-84.5 -27.5h-18v71q24 0 33 12.5t9 47.5q-9 -4 -21 -4h-21v92h132z" />
    <glyph glyph-name="Egrave" unicode="&#xc8;" horiz-adv-x="517" 
d="M479 772v-162h-203q-15 0 -26 3q3 -11 3 -26v-85q0 -15 -3 -26q11 3 26 3h176v-155h-176q-15 0 -26 3q3 -11 3 -26v-116q0 -15 -3 -26q11 3 26 3h203v-162h-423v772h423zM334 823h-127l-80 150h165z" />
    <glyph glyph-name="Eacute" unicode="&#xc9;" horiz-adv-x="517" 
d="M479 772v-162h-203q-15 0 -26 3q3 -11 3 -26v-85q0 -15 -3 -26q11 3 26 3h176v-155h-176q-15 0 -26 3q3 -11 3 -26v-116q0 -15 -3 -26q11 3 26 3h203v-162h-423v772h423zM400 973l-80 -150h-127l42 150h165z" />
    <glyph glyph-name="Ecircumflex" unicode="&#xca;" horiz-adv-x="517" 
d="M479 772v-162h-203q-15 0 -26 3q3 -11 3 -26v-85q0 -15 -3 -26q11 3 26 3h176v-155h-176q-15 0 -26 3q3 -11 3 -26v-116q0 -15 -3 -26q11 3 26 3h203v-162h-423v772h423zM357 972l82 -149h-137l-22 36q-7 11 -12 19.5t-10 19.5q-5 -9 -10.5 -18t-13.5 -21l-23 -36h-133
l81 149h198z" />
    <glyph glyph-name="Edieresis" unicode="&#xcb;" horiz-adv-x="517" 
d="M479 772v-162h-203q-15 0 -26 3q3 -11 3 -26v-85q0 -15 -3 -26q11 3 26 3h176v-155h-176q-15 0 -26 3q3 -11 3 -26v-116q0 -15 -3 -26q11 3 26 3h203v-162h-423v772h423zM237 973v-151h-147v151h147zM429 973v-151h-147v151h147z" />
    <glyph glyph-name="Igrave" unicode="&#xcc;" horiz-adv-x="308" 
d="M253 772v-772h-197v772h197zM230 823h-127l-80 150h165z" />
    <glyph glyph-name="Iacute" unicode="&#xcd;" horiz-adv-x="308" 
d="M253 772v-772h-197v772h197zM296 973l-80 -150h-127l42 150h165z" />
    <glyph glyph-name="Icircumflex" unicode="&#xce;" horiz-adv-x="308" 
d="M253 772v-772h-197v772h197zM253 972l82 -149h-136l-23 36q-4 6 -8.5 14t-13.5 25l-23 -39l-24 -36h-133l81 149h198z" />
    <glyph glyph-name="Idieresis" unicode="&#xcf;" horiz-adv-x="308" 
d="M253 772v-772h-197v772h197zM133 973v-151h-147v151h147zM324 973v-151h-147v151h147z" />
    <glyph glyph-name="Ntilde" unicode="&#xd1;" horiz-adv-x="651" 
d="M595 0h-212l-82 240q-24 70 -35 107t-29 104l-6 -1q0 -53 3.5 -118t3.5 -102v-230h-181v773l214 -1l81 -239q23 -70 34 -107t29 -105l6 1q0 53 -3.5 118.5t-3.5 102.5v229h181v-772zM501 961v-13q0 -42 -3.5 -59t-21.5 -40t-63 -23q-29 0 -85 20t-71 18t-19 -30h-93v11
q0 125 99 125q21 0 63 -14l49 -16q18 -6 31 -6q16 0 20 27h94z" />
    <glyph glyph-name="Ograve" unicode="&#xd2;" horiz-adv-x="622" 
d="M577 247q0 -259 -266 -259q-139 0 -188.5 52.5t-63.5 96.5t-14 110v278q0 75 19 124t74 92t173 43q266 0 266 -259v-278zM242 270q0 -71 19 -95t50 -24q17 0 32.5 9t23.5 25q13 22 13 85v232q0 71 -19 95t-50 24q-17 0 -32.5 -9t-23.5 -25q-13 -22 -13 -85v-232zM386 823
h-127l-80 150h165z" />
    <glyph glyph-name="Oacute" unicode="&#xd3;" horiz-adv-x="622" 
d="M577 247q0 -259 -266 -259q-139 0 -188.5 52.5t-63.5 96.5t-14 110v278q0 75 19 124t74 92t173 43q266 0 266 -259v-278zM242 270q0 -71 19 -95t50 -24q17 0 32.5 9t23.5 25q13 22 13 85v232q0 71 -19 95t-50 24q-17 0 -32.5 -9t-23.5 -25q-13 -22 -13 -85v-232zM453 973
l-80 -150h-127l41 150h166z" />
    <glyph glyph-name="Ocircumflex" unicode="&#xd4;" horiz-adv-x="622" 
d="M577 247q0 -259 -266 -259q-139 0 -188.5 52.5t-63.5 96.5t-14 110v278q0 75 19 124t74 92t173 43q266 0 266 -259v-278zM242 270q0 -71 19 -95t50 -24q17 0 32.5 9t23.5 25q13 22 13 85v232q0 71 -19 95t-50 24q-17 0 -32.5 -9t-23.5 -25q-13 -22 -13 -85v-232zM409 972
l82 -149h-136l-23 36l-22 39l-23 -39l-23 -36h-134l82 149h197z" />
    <glyph glyph-name="Otilde" unicode="&#xd5;" horiz-adv-x="622" 
d="M577 247q0 -259 -266 -259q-139 0 -188.5 52.5t-63.5 96.5t-14 110v278q0 75 19 124t74 92t173 43q266 0 266 -259v-278zM242 270q0 -71 19 -95t50 -24q17 0 32.5 9t23.5 25q13 22 13 85v232q0 71 -19 95t-50 24q-17 0 -32.5 -9t-23.5 -25q-13 -22 -13 -85v-232zM486 961
v-13q0 -42 -3.5 -59t-21.5 -40t-63 -23q-29 0 -85 20t-71 18q-10 -1 -14 -7.5t-5 -22.5h-93v11q0 125 99 125q20 0 63 -14l49 -16q17 -6 31 -6q16 0 20 27h94z" />
    <glyph glyph-name="Odieresis" unicode="&#xd6;" horiz-adv-x="622" 
d="M577 247q0 -259 -266 -259q-139 0 -188.5 52.5t-63.5 96.5t-14 110v278q0 75 19 124t74 92t173 43q266 0 266 -259v-278zM242 270q0 -71 19 -95t50 -24q17 0 32.5 9t23.5 25q13 22 13 85v232q0 71 -19 95t-50 24q-17 0 -32.5 -9t-23.5 -25q-13 -22 -13 -85v-232zM290 973
v-151h-147v151h147zM481 973v-151h-147v151h147z" />
    <glyph glyph-name="Oslash" unicode="&#xd8;" horiz-adv-x="622" 
d="M85 85q-22 32 -31 69t-9 93v278q0 75 19 124t74 92t172 43q100 0 161 -37l45 78l75 -44l-56 -94q41 -65 41 -162v-278q0 -259 -266 -259q-100 0 -163 42l-11 -25l-35 -58l-71 45zM240 339q23 48 34 68.5t33 58.5l65 112q-16 53 -61 53q-17 0 -32.5 -9t-23.5 -25
q-13 -22 -13 -86v-78v-14q0 -26 -2.5 -44t-4.5 -35zM381 436q-30 -62 -67 -127l-66 -113q16 -55 63 -55q37 0 52.5 28t15.5 92v80q0 31 1 45t5 49z" />
    <glyph glyph-name="Ugrave" unicode="&#xd9;" horiz-adv-x="616" 
d="M564 772l-1 -547q0 -61 -14 -101.5t-63 -88t-178 -47.5q-255 0 -255 237v547h197v-538q0 -84 58 -84q59 0 59 84v538h197zM384 823h-127l-80 150h165z" />
    <glyph glyph-name="Uacute" unicode="&#xda;" horiz-adv-x="616" 
d="M564 772l-1 -547q0 -61 -14 -101.5t-63 -88t-178 -47.5q-255 0 -255 237v547h197v-538q0 -84 58 -84q59 0 59 84v538h197zM451 973l-81 -150h-127l42 150h166z" />
    <glyph glyph-name="Ucircumflex" unicode="&#xdb;" horiz-adv-x="616" 
d="M564 772l-1 -547q0 -61 -14 -101.5t-63 -88t-178 -47.5q-255 0 -255 237v547h197v-538q0 -84 58 -84q59 0 59 84v538h197zM407 972l82 -149h-136l-23 36q-4 6 -8.5 14t-13.5 25l-23 -39l-24 -36h-133l81 149h198z" />
    <glyph glyph-name="Udieresis" unicode="&#xdc;" horiz-adv-x="616" 
d="M564 772l-1 -547q0 -61 -14 -101.5t-63 -88t-178 -47.5q-255 0 -255 237v547h197v-538q0 -84 58 -84q59 0 59 84v538h197zM288 973v-151h-147v151h147zM479 973v-151h-147v151h147z" />
    <glyph glyph-name="germandbls" unicode="&#xdf;" horiz-adv-x="560" 
d="M49 0v536q0 129 55.5 188.5t176.5 59.5q111 0 173.5 -55.5t62.5 -153.5q0 -103 -71 -147q46 -29 59.5 -60t19 -54t5.5 -43l1 -37v-19q0 -106 -45 -162t-131 -56l-75 3v141l10 -1q24 0 34 14.5t13 34t3 59.5q0 56 -3.5 71.5t-15 23t-16 8.5t-25.5 1v155q28 0 37 13.5
t9 53.5q0 41 -10 58t-34 17q-28 0 -39 -21t-11 -75v-553h-183z" />
    <glyph glyph-name="agrave" unicode="&#xe0;" horiz-adv-x="525" 
d="M54 377q0 51 9.5 81t36 59.5t66.5 43.5t107 14q51 0 89.5 -11.5t65 -34.5t38.5 -55t12 -83v-325q0 -20 3 -30t13 -36h-174q-4 15 -6.5 28t-2.5 32l-4 1q-23 -41 -50.5 -57t-75.5 -16q-143 0 -143 177q0 65 43.5 107t116 64.5t89.5 35.5t17 36q0 36 -38 36
q-27 0 -38.5 -11.5t-11.5 -41.5l-1 -14h-161zM304 225l2 31l-33 -12q-64 -22 -64 -70q0 -49 40 -49q55 0 55 72v28zM338 622h-127l-80 150h165z" />
    <glyph glyph-name="aacute" unicode="&#xe1;" horiz-adv-x="525" 
d="M54 377q0 51 9.5 81t36 59.5t66.5 43.5t107 14q51 0 89.5 -11.5t65 -34.5t38.5 -55t12 -83v-325q0 -20 3 -30t13 -36h-174q-4 15 -6.5 28t-2.5 32l-4 1q-23 -41 -50.5 -57t-75.5 -16q-143 0 -143 177q0 65 43.5 107t116 64.5t89.5 35.5t17 36q0 36 -38 36
q-27 0 -38.5 -11.5t-11.5 -41.5l-1 -14h-161zM304 225l2 31l-33 -12q-64 -22 -64 -70q0 -49 40 -49q55 0 55 72v28zM405 772l-80 -150h-127l42 150h165z" />
    <glyph glyph-name="acircumflex" unicode="&#xe2;" horiz-adv-x="525" 
d="M54 377q0 51 9.5 81t36 59.5t66.5 43.5t107 14q51 0 89.5 -11.5t65 -34.5t38.5 -55t12 -83v-325q0 -20 3 -30t13 -36h-174q-4 15 -6.5 28t-2.5 32l-4 1q-23 -41 -50.5 -57t-75.5 -16q-143 0 -143 177q0 65 43.5 107t116 64.5t89.5 35.5t17 36q0 36 -38 36
q-27 0 -38.5 -11.5t-11.5 -41.5l-1 -14h-161zM304 225l2 31l-33 -12q-64 -22 -64 -70q0 -49 40 -49q55 0 55 72v28zM361 772l82 -149h-136l-23 36q-4 6 -8.5 14t-13.5 25l-23 -39l-24 -36h-133l81 149h198z" />
    <glyph glyph-name="atilde" unicode="&#xe3;" horiz-adv-x="525" 
d="M54 377q0 51 9.5 81t36 59.5t66.5 43.5t107 14q51 0 89.5 -11.5t65 -34.5t38.5 -55t12 -83v-325q0 -20 3 -30t13 -36h-174q-4 15 -6.5 28t-2.5 32l-4 1q-23 -41 -50.5 -57t-75.5 -16q-143 0 -143 177q0 65 43.5 107t116 64.5t89.5 35.5t17 36q0 36 -38 36
q-27 0 -38.5 -11.5t-11.5 -41.5l-1 -14h-161zM304 225l2 31l-33 -12q-64 -22 -64 -70q0 -49 40 -49q55 0 55 72v28zM438 760v-13q0 -42 -3.5 -59t-21.5 -40t-64 -23q-28 0 -84 20.5t-71 17.5q-10 -1 -14 -7.5t-5 -22.5h-93v11q0 125 99 125q20 0 63 -13l49 -17q17 -6 31 -6
q16 0 20 27h94z" />
    <glyph glyph-name="adieresis" unicode="&#xe4;" horiz-adv-x="525" 
d="M54 377q0 51 9.5 81t36 59.5t66.5 43.5t107 14q51 0 89.5 -11.5t65 -34.5t38.5 -55t12 -83v-325q0 -20 3 -30t13 -36h-174q-4 15 -6.5 28t-2.5 32l-4 1q-23 -41 -50.5 -57t-75.5 -16q-143 0 -143 177q0 65 43.5 107t116 64.5t89.5 35.5t17 36q0 36 -38 36
q-27 0 -38.5 -11.5t-11.5 -41.5l-1 -14h-161zM304 225l2 31l-33 -12q-64 -22 -64 -70q0 -49 40 -49q55 0 55 72v28zM242 772v-151h-147v151h147zM433 772v-151h-147v151h147z" />
    <glyph glyph-name="aring" unicode="&#xe5;" horiz-adv-x="525" 
d="M54 377q0 51 9.5 81t36 59.5t66.5 43.5t107 14q51 0 89.5 -11.5t65 -34.5t38.5 -55t12 -83v-325q0 -20 3 -30t13 -36h-174q-4 15 -6.5 28t-2.5 32l-4 1q-23 -41 -50.5 -57t-75.5 -16q-143 0 -143 177q0 65 43.5 107t116 64.5t89.5 35.5t17 36q0 36 -38 36
q-27 0 -38.5 -11.5t-11.5 -41.5l-1 -14h-161zM304 225l2 31l-33 -12q-64 -22 -64 -70q0 -49 40 -49q55 0 55 72v28zM385 701q0 -50 -33 -83t-84 -33q-46 0 -79.5 35.5t-33.5 83.5q0 44 33.5 74.5t80.5 30.5q48 0 82 -32t34 -76zM234 699q0 -15 10.5 -25.5t26.5 -10.5
q15 0 25 10t10 25t-10 25t-25 10t-26 -10t-11 -24z" />
    <glyph glyph-name="ae" unicode="&#xe6;" horiz-adv-x="785" 
d="M51 388q0 47 12 78t51.5 70t118.5 39q55 0 91.5 -11t68.5 -38q21 16 31.5 21.5t25.5 11.5t44 11t49 5q42 0 80.5 -14.5t69 -42t44.5 -65.5t14 -98v-115h-247q-15 0 -26 3q3 -11 3 -26v-35q0 -63 43 -63q47 0 47 66v10h180q0 -43 -10 -74.5t-33.5 -63t-65.5 -50.5t-94 -19
q-98 0 -161 70q-63 -70 -162 -70q-88 0 -139 49t-51 135q0 134 71 160t115 26h42l20 1h14v41q0 20 -10 32t-27 12q-44 0 -44 -56h-165zM297 214q0 17 3 29l-14 -3h-18q-29 0 -46 -18t-17 -47v-12q0 -18 12 -31t30 -13q50 0 50 59v36zM548 359q15 0 26 -3q-3 9 -3 22v18
q0 21 -11.5 34.5t-29.5 13.5q-21 0 -35 -13t-14 -34v-19q0 -13 -3 -22q11 3 26 3h44z" />
    <glyph glyph-name="ccedilla" unicode="&#xe7;" horiz-adv-x="536" 
d="M504 241q0 -73 -10 -112t-54 -90t-169 -51q-104 0 -152 36.5t-65 76.5t-17 103v176q0 91 61.5 143t169.5 52q125 0 168.5 -50t55.5 -89t12 -100h-189v20q0 20 -0.5 39.5t-11.5 34t-35 14.5q-48 0 -48 -70v-172q0 -46 10.5 -64.5t36.5 -18.5t37 17t11 59v32v14h189z
M335 -31v-94q0 -33 -4 -51.5t-25.5 -46t-85.5 -27.5h-17v71q24 0 32.5 12.5t8.5 47.5q-8 -4 -20 -4h-21v92h132z" />
    <glyph glyph-name="egrave" unicode="&#xe8;" horiz-adv-x="536" 
d="M501 197q0 -103 -60 -156t-174 -53q-101 0 -165 58t-64 169v132q0 72 19 115.5t55.5 68t74 34.5t79.5 10q49 0 93 -14t93 -55.5t49 -146.5v-117h-249q-15 0 -26 3q3 -11 3 -26v-50q0 -50 42 -50q30 0 36.5 16.5t7.5 25t1 36.5h185zM293 361q15 0 26 -3q-3 10 -3 23v21
q0 18 -13 30t-32 12q-18 0 -30 -13t-12 -31v-20q0 -13 -3 -22q11 3 26 3h41zM343 622h-127l-80 150h165z" />
    <glyph glyph-name="eacute" unicode="&#xe9;" horiz-adv-x="536" 
d="M501 197q0 -103 -60 -156t-174 -53q-101 0 -165 58t-64 169v132q0 72 19 115.5t55.5 68t74 34.5t79.5 10q49 0 93 -14t93 -55.5t49 -146.5v-117h-249q-15 0 -26 3q3 -11 3 -26v-50q0 -50 42 -50q30 0 36.5 16.5t7.5 25t1 36.5h185zM293 361q15 0 26 -3q-3 10 -3 23v21
q0 18 -13 30t-32 12q-18 0 -30 -13t-12 -31v-20q0 -13 -3 -22q11 3 26 3h41zM410 772l-80 -150h-127l42 150h165z" />
    <glyph glyph-name="ecircumflex" unicode="&#xea;" horiz-adv-x="536" 
d="M501 197q0 -103 -60 -156t-174 -53q-101 0 -165 58t-64 169v132q0 72 19 115.5t55.5 68t74 34.5t79.5 10q49 0 93 -14t93 -55.5t49 -146.5v-117h-249q-15 0 -26 3q3 -11 3 -26v-50q0 -50 42 -50q30 0 36.5 16.5t7.5 25t1 36.5h185zM293 361q15 0 26 -3q-3 10 -3 23v21
q0 18 -13 30t-32 12q-18 0 -30 -13t-12 -31v-20q0 -13 -3 -22q11 3 26 3h41zM367 772l82 -149h-136l-23 36q-4 6 -8.5 14t-13.5 25l-23 -39l-24 -36h-133l81 149h198z" />
    <glyph glyph-name="edieresis" unicode="&#xeb;" horiz-adv-x="536" 
d="M501 197q0 -103 -60 -156t-174 -53q-101 0 -165 58t-64 169v132q0 72 19 115.5t55.5 68t74 34.5t79.5 10q49 0 93 -14t93 -55.5t49 -146.5v-117h-249q-15 0 -26 3q3 -11 3 -26v-50q0 -50 42 -50q30 0 36.5 16.5t7.5 25t1 36.5h185zM293 361q15 0 26 -3q-3 10 -3 23v21
q0 18 -13 30t-32 12q-18 0 -30 -13t-12 -31v-20q0 -13 -3 -22q11 3 26 3h41zM247 772v-151h-147v151h147zM438 772v-151h-147v151h147z" />
    <glyph glyph-name="igrave" unicode="&#xec;" horiz-adv-x="279" 
d="M231 563v-563h-183v563h183zM215 622h-127l-80 150h165z" />
    <glyph glyph-name="iacute" unicode="&#xed;" horiz-adv-x="279" 
d="M231 563v-563h-183v563h183zM281 772l-80 -150h-127l42 150h165z" />
    <glyph glyph-name="icircumflex" unicode="&#xee;" horiz-adv-x="279" 
d="M231 563v-563h-183v563h183zM238 772l82 -149h-136l-23 36q-4 6 -8.5 14t-13.5 25l-23 -39l-24 -36h-133l81 149h198z" />
    <glyph glyph-name="idieresis" unicode="&#xef;" horiz-adv-x="279" 
d="M230 563v-563h-183v563h183zM118 772v-151h-147v151h147zM309 772v-151h-147v151h147z" />
    <glyph glyph-name="ntilde" unicode="&#xf1;" horiz-adv-x="549" 
d="M228 563v-35q0 -16 -7 -45l4 -1q31 53 62.5 73t83.5 20q33 0 62.5 -15t48.5 -42t19 -64v-49v-405h-183v356q0 66 -38 66q-22 2 -35.5 -15.5t-13.5 -48.5v-358h-183v563h180zM450 760v-13q0 -42 -3.5 -59t-21.5 -40t-64 -23q-28 0 -84 20.5t-71 17.5q-10 -1 -14 -7.5
t-5 -22.5h-93v11q0 125 99 125q20 0 63 -13l49 -17q17 -6 31 -6q16 0 20 27h94z" />
    <glyph glyph-name="ograve" unicode="&#xf2;" horiz-adv-x="544" 
d="M507 197q0 -101 -61 -155t-176 -54q-110 0 -171.5 56.5t-61.5 157.5v149q0 121 68.5 172.5t161.5 51.5q62 0 98.5 -10t72 -39t52.5 -75t17 -115v-139zM220 197q0 -78 52 -78t52 78v169q0 78 -52 78t-52 -78v-169zM347 622h-127l-80 150h165z" />
    <glyph glyph-name="oacute" unicode="&#xf3;" horiz-adv-x="544" 
d="M507 197q0 -101 -61 -155t-176 -54q-110 0 -171.5 56.5t-61.5 157.5v149q0 121 68.5 172.5t161.5 51.5q62 0 98.5 -10t72 -39t52.5 -75t17 -115v-139zM220 197q0 -78 52 -78t52 78v169q0 78 -52 78t-52 -78v-169zM414 772l-80 -150h-127l42 150h165z" />
    <glyph glyph-name="ocircumflex" unicode="&#xf4;" horiz-adv-x="544" 
d="M507 197q0 -101 -61 -155t-176 -54q-110 0 -171.5 56.5t-61.5 157.5v149q0 121 68.5 172.5t161.5 51.5q62 0 98.5 -10t72 -39t52.5 -75t17 -115v-139zM220 197q0 -78 52 -78t52 78v169q0 78 -52 78t-52 -78v-169zM370 772l82 -149h-136l-23 36q-4 6 -8.5 14t-13.5 25
l-23 -39l-24 -36h-133l81 149h198z" />
    <glyph glyph-name="otilde" unicode="&#xf5;" horiz-adv-x="544" 
d="M507 197q0 -101 -61 -155t-176 -54q-110 0 -171.5 56.5t-61.5 157.5v149q0 121 68.5 172.5t161.5 51.5q62 0 98.5 -10t72 -39t52.5 -75t17 -115v-139zM220 197q0 -78 52 -78t52 78v169q0 78 -52 78t-52 -78v-169zM447 760v-13q0 -42 -3.5 -59t-21.5 -40t-64 -23
q-28 0 -84 20.5t-71 17.5q-10 -1 -14 -7.5t-5 -22.5h-93v11q0 125 99 125q20 0 63 -13l49 -17q17 -6 31 -6q16 0 20 27h94z" />
    <glyph glyph-name="odieresis" unicode="&#xf6;" horiz-adv-x="544" 
d="M507 197q0 -101 -61 -155t-176 -54q-110 0 -171.5 56.5t-61.5 157.5v149q0 121 68.5 172.5t161.5 51.5q62 0 98.5 -10t72 -39t52.5 -75t17 -115v-139zM220 197q0 -78 52 -78t52 78v169q0 78 -52 78t-52 -78v-169zM251 772v-151h-147v151h147zM442 772v-151h-147v151h147z
" />
    <glyph glyph-name="divide" unicode="&#xf7;" 
d="M359 593q0 -31 -22 -53t-52 -22q-31 0 -53 22t-22 53t21.5 52.5t53.5 21.5q31 0 52.5 -21.5t21.5 -52.5zM359 180q0 -31 -22 -53t-52 -22q-31 0 -53 22t-22 53t21.5 52.5t53.5 21.5q31 0 52.5 -21.5t21.5 -52.5zM513 445v-119h-458v119h458z" />
    <glyph glyph-name="oslash" unicode="&#xf8;" horiz-adv-x="544" 
d="M78 68q-41 56 -41 134v149q0 121 68.5 172.5t161.5 51.5q56 0 88 -8t66 -30l50 69l49 -37l-54 -74q23 -34 32 -68.5t9 -90.5v-139q0 -101 -61 -155t-176 -54q-89 0 -146 38l-50 -68l-50 37zM219 250q15 28 25.5 43.5t26.5 37.5l50 69q0 24 -14 40t-35 16q-52 0 -52 -78
v-58q0 -33 -6 -68zM325 312q-15 -26 -24 -40.5t-28 -40.5l-51 -70q4 -24 17.5 -39t32.5 -15q52 0 52 78v58q0 22 1 33t5 35z" />
    <glyph glyph-name="ugrave" unicode="&#xf9;" horiz-adv-x="549" 
d="M322 0v35q0 16 7 45l-4 1q-33 -54 -64 -73.5t-83 -19.5q-33 0 -62.5 15t-48.5 43t-19 63v49v405h183v-356q0 -66 38 -66q22 -2 35.5 15.5t13.5 48.5v358h183v-563h-179zM350 622h-127l-80 150h165z" />
    <glyph glyph-name="uacute" unicode="&#xfa;" horiz-adv-x="549" 
d="M322 0v35q0 16 7 45l-4 1q-33 -54 -64 -73.5t-83 -19.5q-33 0 -62.5 15t-48.5 43t-19 63v49v405h183v-356q0 -66 38 -66q22 -2 35.5 15.5t13.5 48.5v358h183v-563h-179zM416 772l-80 -150h-127l42 150h165z" />
    <glyph glyph-name="ucircumflex" unicode="&#xfb;" horiz-adv-x="549" 
d="M322 0v35q0 16 7 45l-4 1q-33 -54 -64 -73.5t-83 -19.5q-33 0 -62.5 15t-48.5 43t-19 63v49v405h183v-356q0 -66 38 -66q22 -2 35.5 15.5t13.5 48.5v358h183v-563h-179zM373 772l82 -149h-136l-23 36q-4 6 -8.5 14t-13.5 25l-23 -39l-24 -36h-133l81 149h198z" />
    <glyph glyph-name="udieresis" unicode="&#xfc;" horiz-adv-x="549" 
d="M322 0v35q0 16 7 45l-4 1q-33 -54 -64 -73.5t-83 -19.5q-33 0 -62.5 15t-48.5 43t-19 63v49v405h183v-356q0 -66 38 -66q22 -2 35.5 15.5t13.5 48.5v358h183v-563h-179zM254 772v-151h-147v151h147zM445 772v-151h-147v151h147z" />
    <glyph glyph-name="ydieresis" unicode="&#xff;" horiz-adv-x="547" 
d="M198 563l38 -155q15 -60 20.5 -86.5t15.5 -85.5h6q8 51 14.5 85.5t18.5 86.5l35 155h192l-188 -612q-26 -86 -73 -123t-130 -37h-21h-35q-17 3 -29 4v150l16 -2q35 0 56.5 8.5t28.5 27.5l13 32l-167 552h189zM252 772v-151h-147v151h147zM443 772v-151h-147v151h147z" />
    <glyph glyph-name="dotlessi" unicode="&#x131;" horiz-adv-x="279" 
d="M231 563v-563h-183v563h183z" />
    <glyph glyph-name="OE" unicode="&#x152;" horiz-adv-x="850" 
d="M813 610h-208q-15 0 -26 3q3 -11 3 -26v-85q0 -15 -3 -26q11 3 26 3h181v-157h-181q-15 0 -26 3q3 -11 3 -26v-114q0 -15 -3 -26q11 3 26 3h208v-162h-409v23q0 12 6 28l-4 1q-58 -64 -150 -64q-107 0 -159 57t-52 177v340q0 99 53.5 160.5t144.5 61.5q51 0 91 -14.5
t72 -48.5l3 2q-5 15 -5 27v22h409v-162zM242 234q0 -84 66 -84q35 0 56 21t21 60v309q0 39 -18.5 60.5t-51.5 21.5q-35 0 -54 -22t-19 -60v-306z" />
    <glyph glyph-name="oe" unicode="&#x153;" horiz-adv-x="812" 
d="M777 195q0 -100 -56.5 -153.5t-155.5 -53.5q-53 0 -87.5 14t-66.5 50q-29 -35 -65 -49.5t-95 -14.5q-100 0 -155 50t-55 143v216q0 76 58 127t144 51q60 0 96 -11t72 -42q59 53 147 53q103 0 161 -51t58 -142v-143h-255q-15 0 -26 3q3 -11 3 -26v-45q0 -52 49 -52
q46 0 46 66v10h183zM571 358q15 0 26 -3q-3 9 -3 21v19q0 21 -12 35t-32 14q-23 0 -37 -13t-14 -36v-18q0 -13 -3 -22q11 3 26 3h49zM224 176q0 -57 45 -57q47 0 47 57v209q0 59 -43 59q-23 0 -36 -15t-13 -42v-211z" />
    <glyph glyph-name="Ydieresis" unicode="&#x178;" horiz-adv-x="608" 
d="M400 250v-250h-197v249l-197 523h208l44 -150q18 -57 23.5 -79.5t19.5 -83.5h5q12 55 19 83.5t23 79.5l44 150h210zM283 973v-151h-147v151h147zM474 973v-151h-147v151h147z" />
    <glyph glyph-name="florin" unicode="&#x192;" horiz-adv-x="489" 
d="M269 -20q-14 -76 -60.5 -105t-155.5 -29l-65 3l27 155h15q41 0 54.5 7.5t18.5 34.5l57 322q2 11 5 23l4 16l-30 -2h-28l22 124h55l33 186q14 77 59.5 105.5t155.5 28.5l66 -3l-28 -155h-14q-42 0 -55 -7t-19 -35l-14 -83q-4 -22 -9 -39l40 2h43l-22 -124h-80z" />
    <glyph glyph-name="hungarumlaut" unicode="&#x2ba;" horiz-adv-x="0" 
d="M45 772l-80 -150h-104l42 150h142zM230 772l-80 -150h-104l42 150h142z" />
    <glyph glyph-name="caron" unicode="&#x2c7;" horiz-adv-x="0" 
d="M-99 623l-82 149h136l23 -36l22 -39l23 39l23 36h134l-82 -149h-197z" />
    <glyph glyph-name="macron" unicode="&#x2c9;" horiz-adv-x="0" 
d="M166 749v-104h-330v104h330z" />
    <glyph glyph-name="breve" unicode="&#x2d8;" horiz-adv-x="0" 
d="M-71 770q12 -54 72 -54q61 0 73 54h92q-14 -147 -165 -147q-150 0 -164 147h92z" />
    <glyph glyph-name="dotaccent" unicode="&#x2d9;" horiz-adv-x="0" 
d="M95 772v-151h-183v151h183z" />
    <glyph glyph-name="ring" unicode="&#x2da;" horiz-adv-x="0" 
d="M119 701q0 -50 -33 -83t-84 -33q-46 0 -79.5 35.5t-33.5 83.5q0 44 33.5 74.5t80.5 30.5q48 0 82 -32t34 -76zM-32 699q0 -15 10.5 -25.5t26.5 -10.5q15 0 25 10t10 25t-10 25t-25 10t-26 -10t-11 -24z" />
    <glyph glyph-name="ogonek" unicode="&#x2db;" horiz-adv-x="0" 
d="M88 0q-45 -48 -45 -91q0 -23 15 -36t39 -13l17 1v-74q-15 -3 -24.5 -4t-26.5 -1q-60 0 -94 27t-34 74q0 27 14 52.5t50 64.5h89z" />
    <glyph glyph-name="circumflex" unicode="&#x302;" horiz-adv-x="0" 
d="M98 772l82 -149h-136l-23 36q-4 6 -8.5 14t-13.5 25l-23 -39l-24 -36h-133l81 149h198z" />
    <glyph glyph-name="tilde" unicode="&#x303;" horiz-adv-x="0" 
d="M175 760v-13q0 -42 -3.5 -59t-21.5 -40t-64 -23q-28 0 -84 20.5t-71 17.5q-10 -1 -14 -7.5t-5 -22.5h-93v11q0 125 99 125q20 0 63 -13l49 -17q17 -6 31 -6q16 0 20 27h94z" />
    <glyph glyph-name="summation" unicode="&#x3a3;" horiz-adv-x="713" 
d="M618 643l15 -129h-44q-32 105 -85 144t-169 39h-132l315 -431l-344 -394h187q122 0 172.5 31.5t82.5 116.5h45l-30 -130l-2 -7q-23 -99 -111 -99h-482l389 446l-375 514h460q65 0 82 -15q17 -13 26 -86z" />
    <glyph glyph-name="Omega" unicode="&#x3a9;" horiz-adv-x="768" 
d="M593 90q48 0 68 19t20 67h23v-176h-272v180q77 15 122.5 76.5t45.5 151.5q0 106 -59 168.5t-157 62.5t-157 -62.5t-59 -168.5q0 -90 44.5 -151t123.5 -77v-180h-272v176h23q0 -48 19 -67t69 -19h123v59q-118 21 -183 89t-65 170q0 121 92.5 194t241.5 73t241.5 -73.5
t92.5 -193.5q0 -100 -64 -168t-184 -91v-59h123z" />
    <glyph glyph-name="pi" unicode="&#x3c0;" horiz-adv-x="549" 
d="M404 373l-1 -24l-3 -150v-40q0 -84 8.5 -105t30.5 -21q28 0 41 29q17 31 17 89h25v-5q0 -80 -26 -118t-80 -38q-56 0 -79.5 40t-23.5 164l1 78l3 104l-50 1l-77 2q0 -234 -23 -311.5t-80 -77.5q-35 0 -52.5 29t-17.5 86v19h24q0 -27 9.5 -39.5t27.5 -12.5q42 0 54.5 47
t18 110.5t5.5 149.5h-22q-38 0 -59.5 -13.5t-27.5 -39.5h-23q0 34 10 57.5t36.5 44.5t112.5 21l102 -3l152 -3q34 0 49.5 7t16.5 21l23 1q0 -53 -23.5 -76.5t-74.5 -23.5h-14z" />
    <glyph glyph-name="endash" unicode="&#x2013;" horiz-adv-x="497" 
d="M455 374v-147h-412v147h412z" />
    <glyph glyph-name="emdash" unicode="&#x2014;" horiz-adv-x="675" 
d="M633 374v-147h-590v147h590z" />
    <glyph glyph-name="quoteleft" unicode="&#x2018;" horiz-adv-x="271" 
d="M44 418v175q0 127 49.5 154.5t72 31.5t61.5 4v-127q-25 0 -34 -12.5t-9 -45.5q9 4 22 4h21v-184h-183z" />
    <glyph glyph-name="quoteright" unicode="&#x2019;" horiz-adv-x="271" 
d="M227 772v-175q0 -127 -49.5 -154t-72 -31t-61.5 -4v126q25 0 34 12.5t9 45.5q-9 -4 -22 -4h-21v184h183z" />
    <glyph glyph-name="quotesinglbase" unicode="&#x201a;" horiz-adv-x="279" 
d="M236 184v-175q0 -128 -50.5 -154.5t-73 -30.5t-61.5 -4v126q25 0 34 12.5t9 45.5q-9 -4 -21 -4h-22v184h185z" />
    <glyph glyph-name="quotedblleft" unicode="&#x201c;" horiz-adv-x="488" 
d="M56 444v163q0 118 46 143t67.5 29t56.5 4v-118q-22 0 -31 -12t-9 -42q8 4 20 4h20v-171h-170zM263 444v163q0 119 46 143.5t67.5 28.5t56.5 4v-118q-22 0 -31 -12t-9 -42q8 4 20 4h20v-171h-170z" />
    <glyph glyph-name="quotedblright" unicode="&#x201d;" horiz-adv-x="488" 
d="M226 777v-163q0 -117 -46.5 -142.5t-67 -29.5t-56.5 -4v118q22 0 31 12t9 42q-8 -4 -20 -4h-20v171h170zM433 777v-163q0 -119 -46.5 -143.5t-67 -28.5t-56.5 -4v118q22 0 31 12t9 42q-8 -4 -20 -4h-20v171h170z" />
    <glyph glyph-name="quotedblbase" unicode="&#x201e;" horiz-adv-x="488" 
d="M223 171v-163q0 -117 -46.5 -142.5t-67.5 -29.5t-56 -4v118q22 0 31 12t9 42q-8 -4 -20 -4h-20v171h170zM430 171v-163q0 -117 -46 -142.5t-67.5 -29.5t-56.5 -4v118q22 0 31 12t9 42q-8 -4 -20 -4h-20v171h170z" />
    <glyph glyph-name="dagger" unicode="&#x2020;" horiz-adv-x="536" 
d="M360 772v-186q0 -15 -3 -26q11 3 26 3h113v-148h-113q-15 0 -26 3q3 -11 3 -26v-508h-183v508q0 15 3 26q-11 -3 -26 -3h-114v148h114q15 0 26 -3q-3 11 -3 26v186h183z" />
    <glyph glyph-name="daggerdbl" unicode="&#x2021;" horiz-adv-x="536" 
d="M40 563h114q15 0 26 -3q-3 11 -3 26v186h183v-186q0 -15 -3 -26q11 3 26 3h113v-148h-113q-15 0 -26 3q3 -11 3 -26v-128q0 -15 -3 -26q11 3 26 3h113v-148h-113q-15 0 -26 3q3 -11 3 -26v-186h-183v186q0 15 3 26q-11 -3 -26 -3h-114v148h114q15 0 26 -3q-3 11 -3 26
v128q0 15 3 26q-11 -3 -26 -3h-114v148z" />
    <glyph glyph-name="bullet" unicode="&#x2022;" 
d="M476 386q0 -79 -56.5 -135.5t-135.5 -56.5t-135 56t-56 136q0 79 56 135t135 56q80 0 136 -56t56 -135z" />
    <glyph glyph-name="ellipsis" unicode="&#x2026;" horiz-adv-x="780" 
d="M223 187v-187h-185v187h185zM483 187v-187h-185v187h185zM743 187v-187h-185v187h185z" />
    <glyph glyph-name="perthousand" unicode="&#x2030;" horiz-adv-x="1126" 
d="M317 498q0 -131 -136 -131q-138 0 -138 131v155q0 131 138 131q136 0 136 -131v-155zM157 496q0 -44 25 -44q23 0 23 44v157q0 45 -23 45q-25 0 -25 -45v-157zM634 772l-387 -772h-105l388 772h104zM729 107q0 -58 -34.5 -88.5t-98.5 -30.5q-66 0 -103 32t-37 91v162
q0 59 36 91t104 32q133 0 133 -119v-170zM568 102q0 -39 27 -36q21 0 21 36v175q0 36 -21 36q-27 3 -27 -36v-175zM1083 107q0 -58 -34.5 -88.5t-98.5 -30.5q-66 0 -103 32t-37 91v162q0 59 36 91t104 32q133 0 133 -119v-170zM922 102q0 -39 27 -36q21 0 21 36v175
q0 36 -21 36q-27 3 -27 -36v-175z" />
    <glyph glyph-name="guilsinglleft" unicode="&#x2039;" horiz-adv-x="303" 
d="M260 40l-216 190v117l216 188v-198l-39 -25l-44 -26q16 -10 25 -15.5t19 -13.5l39 -28v-189z" />
    <glyph glyph-name="guilsinglright" unicode="&#x203a;" horiz-adv-x="303" 
d="M44 535l216 -190v-117l-216 -188v197l39 26q12 8 21 13.5t23 12.5l-44 28l-39 28v190z" />
    <glyph glyph-name="trademark" unicode="&#x2122;" horiz-adv-x="842" 
d="M299 772v-96h-56q-15 0 -26 3q3 -11 3 -26v-321h-121v321q0 15 3 26q-11 -3 -26 -3h-56v96h279zM500 772l33 -137q9 -36 16.5 -74.5t13.5 -78.5l6 -1q7 44 12.5 73.5t18.5 80.5l33 137h153v-440h-112v111q0 44 1 66.5t6 73.5l-7 1q-8 -58 -11.5 -78t-13.5 -63l-25 -111
h-118l-23 110q-14 63 -24 141l-7 -1q7 -72 7 -140v-110h-112v440h153z" />
    <glyph glyph-name="partialdiff" unicode="&#x2202;" horiz-adv-x="494" 
d="M256 349q-52 0 -86 -60t-34 -161q0 -57 21.5 -88t62.5 -31q53 0 87 62t34 153q0 58 -21.5 91.5t-63.5 33.5zM358 287q4 14 6.5 28t2.5 31l3 89q0 85 -15.5 126t-47.5 41q-18 0 -50 -35t-56 -35q-16 0 -25.5 7.5t-11.5 24.5q0 29 30.5 50t71.5 21q77 0 111.5 -54
t46.5 -103t12 -111q0 -163 -64.5 -271.5t-157.5 -108.5q-68 0 -110 51t-42 137q0 82 53 143.5t125 61.5q44 0 72.5 -22t45.5 -71z" />
    <glyph glyph-name="Delta" unicode="&#x2206;" horiz-adv-x="612" 
d="M92 45h373l-186 459zM595 0h-574l276 672h22z" />
    <glyph glyph-name="product" unicode="&#x220f;" horiz-adv-x="823" 
d="M118 -176v880h-88v40h767v-40h-88v-880h88v-40h-264v40h84v880h-407v-880h84v-40h-264v40h88z" />
    <glyph glyph-name="fraction" unicode="&#x2215;" horiz-adv-x="193" 
d="M340 760l-383 -760h-105l383 760h105z" />
    <glyph glyph-name="periodcentered" unicode="&#x2219;" 
d="M386 387q0 -42 -30 -72t-71 -30q-42 0 -72 30t-30 72q0 41 30 71t72 30t71.5 -29.5t29.5 -71.5z" />
    <glyph glyph-name="radical" unicode="&#x221a;" horiz-adv-x="549" 
d="M594 764h-57l-290 -784h-32l-156 431l-61 -22l-12 39l138 48l125 -346l252 681h93v-47z" />
    <glyph glyph-name="infinity" unicode="&#x221e;" horiz-adv-x="713" 
d="M383 271q23 -45 58 -70q35 -23 77 -23q52 0 84.5 35t32.5 90q0 56 -30 89.5t-80 33.5q-37 0 -71 -36t-71 -119zM330 327q-26 46 -59 69.5t-76 23.5q-51 0 -84 -35t-33 -90q0 -54 29.5 -88.5t76.5 -34.5q40 0 71.5 31.5t74.5 123.5zM366 238q-33 -62 -71.5 -93t-85.5 -31
q-66 0 -111 52.5t-45 131.5q0 83 41 134.5t105 51.5q47 0 82.5 -29.5t65.5 -94.5q31 62 69.5 93t87.5 31q63 0 109 -53t46 -131q0 -83 -40.5 -134.5t-104.5 -51.5q-46 0 -84 30q-36 31 -64 94z" />
    <glyph glyph-name="integral" unicode="&#x222b;" horiz-adv-x="274" 
d="M283 757q36 0 58.5 -18.5t22.5 -48.5q0 -20 -13 -34t-36 -14q-29 0 -44 32t-29 32q-57 0 -57 -310l-3 -98q0 -63 -4.5 -120t-14 -128t-31 -120t-60 -80t-81.5 -31q-35 0 -58 18.5t-23 48.5q0 22 12.5 34.5t36.5 12.5q29 0 44 -31t30 -32q57 0 57 324l2 84q0 60 4 116
t13.5 127.5t31.5 122.5t59.5 82t82.5 31z" />
    <glyph glyph-name="approxequal" unicode="&#x2248;" horiz-adv-x="549" 
d="M15 100v77q49 31 87 44.5t74 13.5q44 0 115 -24t99 -24t61.5 15t82.5 52v-78q-42 -28 -76.5 -41.5t-72.5 -13.5q-32 0 -104 23.5t-116 23.5q-28 0 -53.5 -11t-48 -24.5t-48.5 -32.5zM15 219v77q23 14 43.5 25t50.5 21.5t66 10.5q42 0 114.5 -23.5t100.5 -23.5
q27 0 60 14.5t84 51.5v-77q-18 -12 -41 -24t-49 -21.5t-59 -9.5t-104.5 23.5t-110.5 23.5q-35 0 -66 -13.5t-89 -54.5z" />
    <glyph glyph-name="notequal" unicode="&#x2260;" 
d="M62 508q0 58 4 84.5t38.5 103t195.5 76.5q146 0 184.5 -64.5t46.5 -106.5t8 -129h-180v17q0 73 -13.5 110.5t-45.5 37.5q-61 0 -61 -129h73v-85h-73v-65h73v-85h-73v-30q0 -120 61 -120q19 0 34 14t19 37q4 14 5 44t1 74h180q0 -75 -4 -113t-36 -114.5t-196 -76.5
q-141 0 -182 62.5t-50 101.5t-9 108v13h-41v85h41v65h-41v85h41z" />
    <glyph glyph-name="lessequal" unicode="&#x2264;" horiz-adv-x="549" 
d="M506 18h-463v68h463v-68zM162 280l344 -107v-70l-462 145v65l462 145v-70z" />
    <glyph glyph-name="greaterequal" unicode="&#x2265;" horiz-adv-x="549" 
d="M506 18h-463v68h463v-68zM506 248l-463 -145v70l344 107l-344 108v70l463 -145v-65z" />
    <glyph glyph-name="lozenge" unicode="&#x25ca;" horiz-adv-x="494" 
d="M247 688l-188 -399l188 -403l188 403zM247 807l244 -518l-244 -522l-244 522z" />
    <glyph glyph-name="apple" unicode="&#xf000;" horiz-adv-x="790" 
d="M408 594l-1 7v11q0 61 46 112t116 64v-12l1 -18q0 -64 -50.5 -114.5t-99.5 -50.5h-4zM735 197q-56 -121 -101 -167.5t-99 -46.5q-25 0 -64 16t-60 16q-23 0 -64 -16t-62 -16q-30 0 -63 21q-13 10 -30.5 27.5t-48.5 60t-59.5 120.5t-28.5 148q0 107 61.5 174.5t157.5 67.5
q16 0 35.5 -4t51.5 -17t49 -13q18 0 61 17t73 17q55 0 97.5 -19.5t77.5 -60.5q-49 -31 -73.5 -70.5t-24.5 -89.5q0 -54 30 -98t84 -67z" />
    <glyph glyph-name="fi" unicode="&#xf001;" horiz-adv-x="565" 
d="M40 563q15 0 26 -3q-3 11 -3 26v55q0 79 54 107t138 28h27q14 -3 21 -4v-155q-57 0 -57 -42v-6q0 -5 -3 -9q11 3 26 3h35v-124h-35q-15 0 -26 3q3 -11 3 -26v-416h-183v416q0 15 3 26q-11 -3 -26 -3h-24v124h24zM517 772v-151h-183v151h183zM517 563v-563h-183v563h183z
" />
    <glyph glyph-name="fl" unicode="&#xf002;" horiz-adv-x="565" 
d="M517 772v-772h-183v772h183zM40 563q15 0 26 -3q-3 11 -3 26v55q0 79 54 107t138 28h27q14 -3 21 -4v-155q-57 0 -57 -42v-6q0 -5 -3 -9q11 3 26 3h35v-124h-35q-15 0 -26 3q3 -11 3 -26v-416h-183v416q0 15 3 26q-11 -3 -26 -3h-24v124h24z" />
    <glyph glyph-name="Lslash" horiz-adv-x="509" 
d="M350 438l-97 -40v-213q0 -15 -3 -26q11 3 26 3h212v-162h-432v260l2 70l-34 -16l-32 -12v84l64 25v361h197v-222l-2 -71q17 9 27.5 13.5t23.5 9.5l48 19v-83z" />
    <glyph glyph-name="lslash" horiz-adv-x="279" 
d="M285 420l-54 -22v-398h-183v264l2 71q-6 -4 -15 -7.5t-15 -6.5l-27 -11v80l55 22v360h183v-226l-2 -71l29 14l27 11v-80z" />
    <glyph glyph-name="Scaron" horiz-adv-x="571" 
d="M223 269v-9v-21q0 -89 62 -89q26 0 41.5 15.5t15.5 40.5q0 36 -44 66l-46 30l-17 11l-18 11l-18 11q-89 54 -123.5 111t-34.5 139q0 92 64.5 145.5t169.5 53.5q120 0 181.5 -54.5t61.5 -160.5l-1 -29h-186v17q0 66 -47 66h-9q-20 -2 -29.5 -14.5t-7.5 -31.5
q2 -17 14.5 -30.5t46.5 -36.5l16 -11l98 -63q67 -45 96.5 -100.5t29.5 -131.5q0 -103 -68.5 -159.5t-189.5 -56.5q-150 0 -195 67t-51 127l-2 53v26v8h190zM187 823l-82 149h136l23 -36q4 -6 8.5 -14t13.5 -25l23 39l24 36h133l-81 -149h-198z" />
    <glyph glyph-name="scaron" horiz-adv-x="509" 
d="M210 188v-16q0 -34 9 -47t34 -13q17 0 29 10t12 26q0 24 -21 39l-41 23l-17 9l-18 9l-17 9q-37 19 -47 24.5t-35.5 22t-43.5 52.5t-18 86q0 76 55.5 114.5t162.5 38.5q217 0 217 -182h-182v17q0 43 -37 43q-33 0 -33 -28q0 -17 9 -26t41 -23t75.5 -38t89 -57t45.5 -118
q0 -83 -58 -129t-163 -46q-122 0 -164.5 42t-54 72.5t-11.5 85.5h182zM156 623l-82 149h136l23 -36l22 -39l23 39l23 36h134l-82 -149h-197z" />
    <glyph glyph-name="Zcaron" horiz-adv-x="565" 
d="M533 772v-142l-227 -391l-48 -79l92 2h183v-162h-500v142l226 391l48 79l-92 -2h-170v162h488zM184 823l-82 149h137l22 -36q4 -8 10.5 -18t11.5 -21q5 9 10.5 18t13.5 21l23 36h133l-81 -149h-198z" />
    <glyph glyph-name="zcaron" horiz-adv-x="498" 
d="M24 121l154 214q24 33 36 48.5t29 36.5q-11 1 -27 1q-9 0 -30.5 -1t-40.5 -1h-94v144h423v-120l-159 -216l-68 -86q9 -1 16 -1h15q11 0 35 1t44 1h117v-142h-450v121zM150 623l-82 149h136l23 -36l22 -39l23 39l23 36h134l-82 -149h-197z" />
    <glyph glyph-name="brokenbar" horiz-adv-x="268" 
d="M190 772v-386h-112v386h112zM190 154v-386h-112v386h112z" />
    <glyph glyph-name="Eth" horiz-adv-x="611" 
d="M-6 434h41q15 0 26 -3q-3 11 -3 26v315h218q83 0 128 -10t83.5 -41t57.5 -84t19 -138v-228q0 -139 -60 -205t-186 -66h-260v327q0 15 3 26q-11 -3 -26 -3h-41v84zM278 350q-15 0 -26 3q3 -11 3 -26v-142q0 -15 -3 -26q11 3 26 3h25q39 0 53.5 29.5t14.5 89.5v228
q0 101 -71 101h-22q-15 0 -26 3q3 -11 3 -26v-130q0 -15 -3 -26q11 3 26 3h43v-84h-43z" />
    <glyph glyph-name="glyph234" horiz-adv-x="544" 
d="M284 574q-22 21 -37 31.5t-42 24.5l-111 -67l-31 53l42 24q11 7 22.5 12.5t22.5 10.5q-47 15 -103 27l44 81q29 -6 46 -9.5t59 -16.5l52 -18l111 67l34 -50l-39 -23q-11 -6 -20 -11t-23 -10q35 -22 53.5 -34.5t59 -50.5t58 -96t21.5 -92.5t4 -89.5v-140q0 -101 -61 -155
t-176 -54q-109 0 -171 57t-62 158v148q0 220 246 220zM220 197q0 -78 52 -78t52 78v169q0 78 -52 78t-52 -78v-169z" />
    <glyph glyph-name="Yacute" horiz-adv-x="608" 
d="M400 250v-250h-197v249l-197 523h208l44 -150q18 -57 23.5 -79.5t19.5 -83.5h5q12 55 19 83.5t23 79.5l44 150h210zM446 973l-80 -150h-127l42 150h165z" />
    <glyph glyph-name="yacute" horiz-adv-x="547" 
d="M198 563l38 -155q15 -60 20.5 -86.5t15.5 -85.5h6q8 51 14.5 85.5t18.5 86.5l35 155h192l-188 -612q-26 -86 -73 -123t-130 -37h-21h-35q-17 3 -29 4v150l16 -2q35 0 56.5 8.5t28.5 27.5l13 32l-167 552h189zM415 772l-80 -150h-127l42 150h165z" />
    <glyph glyph-name="Thorn" horiz-adv-x="576" 
d="M252 772v-93q0 -15 -3 -26q11 3 26 3h69q109 0 155.5 -57.5t46.5 -193.5q0 -74 -8 -117t-28 -73.5t-58.5 -47.5t-88.5 -17h-88q-15 0 -26 3q3 -11 3 -26v-127h-197v772h197zM272 494q-13 0 -23 3q3 -11 3 -26v-131q0 -15 -3 -26q9 3 22 3h19q56 0 56 92q0 85 -54 85h-20z
" />
    <glyph glyph-name="thorn" horiz-adv-x="555" 
d="M49 772h180v-138v-24q0 -42 -2.5 -69.5t-4.5 -54.5l4 -1q30 50 61 70t78 20q87 0 114 -43.5t33 -74.5t6 -88v-178q0 -93 -38 -148t-116 -55q-48 0 -75 14t-59 56l-4 -2q4 -50 5 -69.5t1 -66.5v-129h-183v981zM335 363q0 27 -14.5 44.5t-38.5 17.5q-22 0 -36 -18t-14 -47
v-157q0 -27 14 -46t35 -19q24 0 39 18t15 47v160z" />
    <glyph glyph-name="minus" 
d="M513 445v-119h-458v119h458z" />
    <glyph glyph-name="multiply" 
d="M268 490q10 -10 16 -20q6 10 16 20l122 122l88 -88l-121 -122q-12 -10 -21 -16q9 -6 13 -9t8 -7l121 -122l-88 -88l-122 121q-10 12 -16 21q-6 -9 -9 -13t-7 -8l-122 -121l-88 88l122 122q10 10 20 16q-10 6 -20 16l-122 122l88 88z" />
    <glyph glyph-name="onesuperior" horiz-adv-x="398" 
d="M295 760v-456h-122v283q0 15 3 26q-11 -3 -26 -3h-61v80l21 -1q36 0 52 16.5t16 54.5h117z" />
    <glyph glyph-name="twosuperior" horiz-adv-x="398" 
d="M353 309h-303v86l146 177q32 38 32 75q0 40 -27 40q-20 0 -26 -16.5t-6 -73.5h-117l-1 36q0 68 38.5 103.5t112.5 35.5q68 0 107.5 -35.5t39.5 -95.5q0 -71 -58 -136l-45 -51q-25 -29 -52 -52l2 -3q15 2 35 3t33 1h13h76v-94z" />
    <glyph glyph-name="threesuperior" horiz-adv-x="398" 
d="M164 450v-11v-15q0 -48 29 -48q34 0 34 60q0 41 -9.5 51.5t-46.5 10.5l-13 -1v88h14q32 0 41.5 9.5t9.5 41.5q0 48 -28 48q-15 0 -21 -12t-6 -46h-117q0 72 35.5 106.5t111.5 34.5q144 0 144 -119q0 -43 -8 -65t-31 -39q44 -32 44 -110q0 -137 -146 -137q-53 0 -82 10
t-45.5 32.5t-21.5 44.5t-5 66h117z" />
    <glyph glyph-name="onehalf" horiz-adv-x="1123" 
d="M348 760v-456h-122v283q0 15 3 26q-11 -3 -26 -3h-61v80l21 -1q36 0 52 16.5t16 54.5h117zM798 760l-383 -760h-106l384 760h105zM720 85l147 177q33 39 33 77q0 42 -29 42q-22 0 -28 -15.5t-6 -67.5h-115l-1 26q0 68 38.5 103.5t112.5 35.5q67 0 107 -35t40 -95
q0 -70 -59 -136l-46 -53q-15 -17 -26 -28t-27 -25l1 -4q26 3 40 4t43 1h78v-92h-303v85z" />
    <glyph glyph-name="onequarter" horiz-adv-x="1123" 
d="M348 760v-456h-122v283q0 15 3 26q-11 -3 -26 -3h-61v80l21 -1q36 0 52 16.5t16 54.5h117zM817 760l-383 -760h-105l383 760h105zM984 456v-243q0 -15 -3 -26q11 3 26 3h31v-88h-31q-15 0 -26 3q3 -11 3 -26v-79h-115v79q0 15 3 26q-11 -3 -26 -3h-141v73l152 281h127z
M860 187q15 0 27 -3q-3 11 -3 27v53q0 47 7 95l-6 2q-11 -35 -16.5 -50t-20.5 -47l-4 -8l-35 -71l39 2h12z" />
    <glyph glyph-name="threequarters" horiz-adv-x="1123" 
d="M217 450v-11v-15q0 -48 29 -48q34 0 34 60q0 41 -9.5 51.5t-46.5 10.5l-13 -1v88h14q32 0 41.5 9.5t9.5 41.5q0 48 -28 48q-15 0 -21 -12t-6 -46h-117q0 72 35.5 106.5t111.5 34.5q144 0 144 -119q0 -43 -8 -65t-31 -39q44 -32 44 -110q0 -137 -146 -137q-53 0 -82 10
t-45.5 32.5t-21.5 44.5t-5 66h117zM829 760l-383 -760h-105l383 760h105zM984 456v-243q0 -15 -3 -26q12 3 27 3h30v-88h-30q-15 0 -27 3l4 -26v-79h-115v79q0 15 3 26q-11 -3 -26 -3h-141v73l152 281h126zM861 187q15 0 26 -3q-3 11 -3 27v53q0 47 7 95l-6 2
q-8 -30 -15 -48.5t-21 -48.5l-4 -8l-35 -71l39 2h12z" />
  </font>
</defs>
</svg>
