<?xml version="1.0" standalone="no"?> <!DOCTYPE svg PUBLIC "-//W3C//DTD SVG 1.0//EN" "http://www.w3.org/TR/2001/REC-SVG-20010904/DTD/svg10.dtd" > <svg xmlns="http://www.w3.org/2000/svg" width="100%" height="100%">
<defs >
<font id="knockout-htf47-bantamweight" horiz-adv-x="206" ><font-face
    font-family="Knockout HTF47-Bantamweight"
    units-per-em="1000"
    panose-1="0 0 0 0 0 0 0 0 0 0"
    ascent="826"
    descent="-196"
    alphabetic="0" />
<missing-glyph horiz-adv-x="500" />
<glyph unicode=" " glyph-name="space" horiz-adv-x="112" />
<glyph unicode="!" glyph-name="exclam" horiz-adv-x="140" d="M108 377L82 167H58L31 377V666H108V377ZM103 0H36V103H103V0Z" />
<glyph unicode="&quot;" glyph-name="quotedbl" horiz-adv-x="181" d="M180 666L130 474H90L125 666H180ZM94 666L52 474H14L39 666H94Z" />
<glyph unicode="#" glyph-name="numbersign" horiz-adv-x="384" d="M383 428H293L267 238H361V195H261L236 0H189L215 195H133L108 0H62L87 195H2V238H93L118 428H24V471H124L150 666H197L171 471H253L278 666H325L299 471H383V428ZM247 428H165L140 238H221L247 428Z" />
<glyph unicode="$" glyph-name="dollar" horiz-adv-x="294" d="M115 670V737H180V673Q222 664 245 629T269 540V464H193V543Q193 597 154 597Q111 597 111 548Q111 527 114 509T122 474T136 441T156 406T180 365Q210 318 226 289T257 217T272 135Q272 75 247 40T180
-6V-72H115V-7Q72 3 48 38T24 126V198H100V122Q100 66 145 66Q191 66 191 120Q191 164 175 204T122 300Q28 440 28 528Q28 582 50 620T115 670Z" />
<glyph unicode="%" glyph-name="percent" horiz-adv-x="422" d="M401 73Q401 34 380 11T326 -13Q292 -13 271 10T250 73V239Q250 279 271 301T326 324Q359 324 380 302T401 239V73ZM351 62V250Q351 262 344 269T326 276Q301 276 301 250V62Q301 51 308 44T326
36T344 43T351 62ZM388 661L65 -19L35 3L359 683L388 661ZM174 425Q174 386 153 363T97 339Q64 339 43 362T21 425V590Q21 630 42 653T97 676Q131 676 152 653T174 590V425ZM122 414V602Q122 613 115 620T97 628Q87 628 80 621T73 602V414Q73 403 80 395T97 387Q108
387 115 395T122 414Z" />
<glyph unicode="&amp;" glyph-name="ampersand" horiz-adv-x="395" d="M386 94Q386 -10 315 -10Q271 -10 239 34Q202 -10 144 -10Q90 -10 56 35T21 150Q21 270 116 361Q85 450 85 518Q85 592 116 634T201 676Q251 676 275 639T300 539Q300 437 203 338Q233 208
246 174Q281 249 281 338H348Q347 281 330 213T283 99Q296 70 317 70Q341 70 341 104V144H386V94ZM228 535Q228 593 198 593Q162 593 162 526Q162 487 180 413Q203 439 215 473T228 535ZM195 92Q164 154 140 274Q103 229 103 161Q103 72 159 72Q183 72 195 92Z"
/>
<glyph unicode="&apos;" glyph-name="quotesingle" horiz-adv-x="125" d="M125 666L65 474H22L55 666H125Z" />
<glyph unicode="(" glyph-name="parenleft" horiz-adv-x="221" d="M214 -112L193 -131Q59 13 59 307T193 745L214 726Q170 664 150 570T130 307T150 44T214 -112Z" />
<glyph unicode=")" glyph-name="parenright" horiz-adv-x="221" d="M162 603T162 307T28 -131L7 -112Q52 -50 72 44T92 307T72 570T7 726L28 745Q162 603 162 307Z" />
<glyph unicode="*" glyph-name="asterisk" horiz-adv-x="222" d="M206 522L195 503Q192 497 182 502Q147 524 124 543Q131 508 131 472Q131 462 124 462H101Q94 462 94 472Q94 513 101 543Q71 517 42 502Q34 494 30 502L18 522Q15 528 24 533Q54 551 89 563Q49
576 24 593Q14 597 17 604L29 624Q33 631 42 624Q69 610 100 583Q92 623 92 654Q92 665 100 665H124Q131 665 131 654Q131 619 124 583Q156 610 182 625Q191 629 195 624L206 604Q211 598 201 593Q166 573 136 563Q166 553 200 534Q209 528 206 522Z" />
<glyph unicode="+" glyph-name="plus" horiz-adv-x="263" d="M235 307H163V229H100V307H28V370H100V448H163V370H235V307Z" />
<glyph unicode="," glyph-name="comma" horiz-adv-x="120" d="M95 10Q95 -29 76 -53T22 -78V-55Q58 -55 58 0H25V109H95V10Z" />
<glyph unicode="-" glyph-name="hyphen" horiz-adv-x="174" d="M161 278H14V346H161V278Z" />
<glyph unicode="." glyph-name="period" horiz-adv-x="120" d="M95 0H25V109H95V0Z" />
<glyph unicode="/" glyph-name="slash" horiz-adv-x="207" d="M215 729L38 -64H-11L166 729H215Z" />
<glyph unicode="0" glyph-name="zero" horiz-adv-x="306" d="M275 122Q275 63 242 27T153 -10Q99 -10 65 26T30 122V544Q30 603 64 639T153 676Q208 676 241 640T275 544V122ZM193 112V554Q193 571 182 582T153 594T124 583T113 554V112Q113 95 124 84T153 72T182
83T193 112Z" />
<glyph unicode="1" glyph-name="one" horiz-adv-x="180" d="M131 0H49V627Q87 627 87 666H131V0Z" />
<glyph unicode="2" glyph-name="two" horiz-adv-x="267" d="M252 531Q252 419 170 281Q102 140 102 82H247V0H14V24Q14 85 32 144T111 328Q148 398 162 443T176 544Q176 595 136 595Q117 595 107 583T96 548V456H22V548Q22 601 52 638T134 676Q252 676 252 531Z" />
<glyph unicode="3" glyph-name="three" horiz-adv-x="275" d="M249 115Q249 60 217 25T132 -10T50 25T21 112V194H95V115Q95 73 131 73Q169 73 169 112V273Q169 300 141 300H100V372H141Q169 372 169 400V553Q169 593 131 593Q95 593 95 551V471H21V553Q21 606
49 641T132 676Q185 676 217 641T249 551V415Q249 358 197 338Q249 315 249 260V115Z" />
<glyph unicode="4" glyph-name="four" horiz-adv-x="268" d="M259 135H223V0H146V135H8V201L155 666H223V209H259V135ZM146 209V428L82 209H146Z" />
<glyph unicode="5" glyph-name="five" horiz-adv-x="275" d="M257 666Q256 618 244 601T203 584H112L104 398Q129 431 178 431Q212 431 233 406T254 341V116Q254 59 222 25T135 -10Q84 -10 56 25T27 112V189H100V115Q100 96 110 85T136 73Q153 73 163 84T174 114V328Q174
344 165 354T142 364Q126 364 116 352T103 323L28 332L42 666H257Z" />
<glyph unicode="6" glyph-name="six" horiz-adv-x="290" d="M266 121Q266 63 234 27T147 -10Q94 -10 62 26T30 121V544Q30 602 62 639T149 676Q200 676 230 640T260 553V472H188V551Q188 593 149 593T110 551V370Q136 403 184 403Q222 403 244 378T266 313V121ZM186
110V298Q186 334 148 334Q130 334 120 324T110 298V111Q110 94 120 84T147 73Q165 73 175 83T186 110Z" />
<glyph unicode="7" glyph-name="seven" horiz-adv-x="261" d="M253 624Q195 435 167 296T132 0H43Q62 273 170 582H18V666H253V624Z" />
<glyph unicode="8" glyph-name="eight" horiz-adv-x="295" d="M267 115Q267 59 235 25T148 -10T62 24T29 115V251Q29 310 72 336Q29 361 29 420V551Q29 606 61 641T148 676Q201 676 233 641T266 551V420Q266 361 223 336Q267 309 267 251V115ZM187 402V553Q187
571 176 582T148 593T120 582T109 553V402Q109 386 119 376T148 365T176 375T187 402ZM187 113V269Q187 285 177 295T148 306T120 296T109 269V113Q109 95 120 84T148 73T176 84T187 113Z" />
<glyph unicode="9" glyph-name="nine" horiz-adv-x="295" d="M266 121Q266 63 233 27T145 -10Q92 -10 61 26T30 112V188H102V116Q102 73 144 73Q185 73 185 114V291Q158 257 112 257Q74 257 52 283T29 350V545Q29 603 61 639T147 676T233 639T266 544V121ZM185
361V555Q185 571 175 582T147 593T119 583T109 556V361Q109 346 119 336T147 326Q164 326 174 336T185 361Z" />
<glyph unicode=":" glyph-name="colon" horiz-adv-x="120" d="M95 318H25V427H95V318ZM95 0H25V109H95V0Z" />
<glyph unicode=";" glyph-name="semicolon" horiz-adv-x="120" d="M95 318H25V427H95V318ZM95 10Q95 -29 76 -53T22 -78V-55Q58 -55 58 0H25V109H95V10Z" />
<glyph unicode="&lt;" glyph-name="less" horiz-adv-x="382" d="M315 150L51 323V344L315 516V440L154 334L315 226V150Z" />
<glyph unicode="=" glyph-name="equal" horiz-adv-x="241" d="M224 369H16V435H224V369ZM224 242H16V308H224V242Z" />
<glyph unicode="&gt;" glyph-name="greater" horiz-adv-x="382" d="M331 323L68 151V227L229 333L68 440V517L331 343V323Z" />
<glyph unicode="?" glyph-name="question" horiz-adv-x="251" d="M239 532Q239 429 172 315Q136 254 136 177H78Q78 227 89 271T134 398Q160 462 160 525Q160 563 152 578T122 593Q84 593 84 543V461H13V548Q13 605 41 640T123 676Q239 676 239 532ZM141 0H73V103H141V0Z" />
<glyph unicode="@" glyph-name="at" horiz-adv-x="428" d="M412 303Q412 229 381 178T296 126Q269 126 254 142T240 189Q230 164 212 149T174 133Q148 133 131 156T114 220Q114 281 146 334T221 387Q259 387 262 347L272 383H324L284 226Q268 162 306 162Q336
162 354 201T373 305Q373 393 331 446T223 499Q153 499 105 430T57 257Q57 153 104 90T223 27Q293 27 333 72L354 46Q305 -10 223 -10Q136 -10 77 62T18 257Q18 378 77 457T223 536Q285 536 329 500T392 412T412 303ZM252 312Q252 348 230 348Q205 348 186 307T166
224Q166 177 193 177Q221 177 235 236L252 312Z" />
<glyph unicode="A" glyph-name="A" horiz-adv-x="282" d="M278 0H188L176 129H99L84 0H4L93 666H189L278 0ZM167 210L141 496L109 210H167Z" />
<glyph unicode="B" glyph-name="B" horiz-adv-x="301" d="M277 117Q277 56 247 28T169 0H32V666H168Q215 666 245 638T276 549V428Q276 360 224 340Q277 318 277 251V117ZM191 414V547Q191 585 162 585H120V374H158Q191 374 191 414ZM192 119V260Q192 301 159
301H120V81H163Q192 81 192 119Z" />
<glyph unicode="C" glyph-name="C" horiz-adv-x="296" d="M276 124Q276 64 244 27T155 -10Q99 -10 62 28T25 127V539Q25 598 62 637T155 676Q212 676 244 639T276 542V431H200V547Q200 567 189 579T157 591T125 579T114 547V119Q114 99 125 87T157 75T189 87T200
119V236H276V124Z" />
<glyph unicode="D" glyph-name="D" horiz-adv-x="312" d="M286 137Q286 68 254 34T164 0H32V666H164Q221 666 253 631T286 527V137ZM198 135V530Q198 583 159 583H120V82H159Q198 82 198 135Z" />
<glyph unicode="E" glyph-name="E" horiz-adv-x="262" d="M245 0H32V666H245V584H119V383H207V304H119V83H245V0Z" />
<glyph unicode="F" glyph-name="F" horiz-adv-x="250" d="M239 585H119V378H211V298H119V0H32V666H239V585Z" />
<glyph unicode="G" glyph-name="G" horiz-adv-x="305" d="M283 0H236L222 37Q199 -10 140 -10Q89 -10 57 26T25 124V542Q25 599 61 637T154 676T243 638T277 542V435H196V550Q196 568 185 579T154 591Q135 591 124 579T113 549V114Q113 95 124 83T155 70T186 82T197
114V257H158V329H283V0Z" />
<glyph unicode="H" glyph-name="H" horiz-adv-x="323" d="M292 0H204V286H120V0H32V666H120V371H204V666H292V0Z" />
<glyph unicode="I" glyph-name="I" horiz-adv-x="152" d="M120 0H32V666H120V0Z" />
<glyph unicode="J" glyph-name="J" horiz-adv-x="285" d="M257 121Q257 62 224 26T136 -10T48 25T14 119V265H97V116Q97 75 133 75T169 116V666H257V121Z" />
<glyph unicode="K" glyph-name="K" horiz-adv-x="300" d="M293 0H204L149 279L119 177V0H32V666H119V346L205 666H290L207 382L293 0Z" />
<glyph unicode="L" glyph-name="L" horiz-adv-x="249" d="M240 0H32V666H119V83H240V0Z" />
<glyph unicode="M" glyph-name="M" horiz-adv-x="422" d="M391 0H308V506L293 372L240 0H173L123 372L109 506V0H32V666H151L198 329L213 196L228 329L274 666H391V0Z" />
<glyph unicode="N" glyph-name="N" horiz-adv-x="329" d="M299 0H230L136 319L109 418V0H30V666H112L196 346L221 246V666H299V0Z" />
<glyph unicode="O" glyph-name="O" horiz-adv-x="311" d="M284 126Q284 66 248 28T155 -10T63 28T26 126V540Q26 599 62 637T155 676T247 638T284 540V126ZM196 118V548Q196 567 185 579T155 591T126 579T115 548V118Q115 75 155 75Q174 75 185 86T196 118Z" />
<glyph unicode="P" glyph-name="P" horiz-adv-x="293" d="M276 390Q276 328 245 299T167 270H119V0H32V666H167Q214 666 245 637T276 546V390ZM190 384V547Q190 585 162 585H119V346H162Q190 346 190 384Z" />
<glyph unicode="Q" glyph-name="Q" horiz-adv-x="311" d="M312 0Q298 -10 272 -10Q241 -10 224 10Q193 -10 153 -10Q98 -10 62 28T26 125V541Q26 600 62 638T155 676T247 638T284 541V125Q284 90 272 68Q282 56 312 56V0ZM195 144V550Q195 568 185 579T155 591T126
580T115 550V116Q115 98 125 87T155 75Q172 75 179 82L157 103L195 144Z" />
<glyph unicode="R" glyph-name="R" horiz-adv-x="305" d="M294 -3H239Q194 -3 194 85V244Q194 262 185 273T159 285H120V0H32V666H167Q215 666 246 638T277 548V408Q277 347 226 323Q279 298 279 238V90Q279 48 294 22V-3ZM190 402V547Q190 585 162 585H120V361H158Q190
361 190 402Z" />
<glyph unicode="S" glyph-name="S" horiz-adv-x="289" d="M272 136Q272 63 235 27T144 -10Q85 -10 51 26T17 126V198H97V123Q97 67 141 67Q187 67 187 120Q187 197 117 300Q21 436 21 528Q21 594 53 635T149 676Q203 676 235 640T268 540V464H189V543Q189 596
149 596Q130 596 118 584T106 548Q106 512 116 481T137 431T181 363Q272 229 272 136Z" />
<glyph unicode="T" glyph-name="T" horiz-adv-x="265" d="M257 581H177V0H90V581H7V666H257V581Z" />
<glyph unicode="U" glyph-name="U" horiz-adv-x="310" d="M281 122Q281 63 246 27T156 -10T65 26T29 122V666H117V118Q117 74 156 74Q197 74 197 118V666H281V122Z" />
<glyph unicode="V" glyph-name="V" horiz-adv-x="287" d="M282 666L186 0H99L5 666H95L144 194L199 666H282Z" />
<glyph unicode="W" glyph-name="W" horiz-adv-x="418" d="M416 666L328 0H251L207 399L157 0H81L5 666H91L128 217L180 666H248L292 217L336 666H416Z" />
<glyph unicode="X" glyph-name="X" horiz-adv-x="290" d="M283 0H195L143 233L87 0H3L94 331L9 666H98L146 423L201 666H284L197 345L283 0Z" />
<glyph unicode="Y" glyph-name="Y" horiz-adv-x="283" d="M284 666L182 265V0H94V265L-1 666H87L143 380L199 666H284Z" />
<glyph unicode="Z" glyph-name="Z" horiz-adv-x="260" d="M249 630L105 83H242V0H8V36L153 582H16V666H249V630Z" />
<glyph unicode="[" glyph-name="bracketleft" horiz-adv-x="204" d="M215 -116H67V730H215V677H128V-63H215V-116Z" />
<glyph unicode="\" glyph-name="backslash" horiz-adv-x="211" d="M219 -64H170L-8 729H42L219 -64Z" />
<glyph unicode="]" glyph-name="bracketright" horiz-adv-x="204" d="M141 -116H-7V-63H81V677H-7V730H141V-116Z" />
<glyph unicode="^" glyph-name="asciicircum" horiz-adv-x="205" d="M198 553Q179 546 164 546Q113 546 100 612Q87 546 36 546Q25 546 6 553V576Q27 576 47 599T77 666H127Q136 623 156 600T198 576V553Z" />
<glyph unicode="_" glyph-name="underscore" horiz-adv-x="260" d="M260 -68H0V0H260V-68Z" />
<glyph unicode="`" glyph-name="grave" horiz-adv-x="130" d="M113 530H70L10 657H80L113 530Z" />
<glyph unicode="a" glyph-name="a" horiz-adv-x="244" d="M229 -8H212Q173 -8 160 36Q140 -8 94 -8Q58 -8 37 21T16 103V134Q16 190 49 229T143 300V379Q143 414 118 414T93 378V328H27V374Q27 425 52 456T121 487T189 455T213 371V74Q213 54 229 51V-8ZM143 104V230Q86
201 86 146V99Q86 60 112 60Q126 60 134 73T143 104Z" />
<glyph unicode="b" glyph-name="b" horiz-adv-x="256" d="M232 87Q232 45 212 19T159 -8Q113 -8 96 39L90 0H29V666H102V440Q122 487 164 487Q194 487 213 460T232 392V87ZM160 100V376Q160 415 131 415T102 377V100Q102 83 110 73T130 62Q144 62 152 72T160 100Z" />
<glyph unicode="c" glyph-name="c" horiz-adv-x="237" d="M219 113Q219 57 194 25T124 -8Q81 -8 53 25T25 113V365Q25 419 53 453T124 487Q168 487 193 454T219 365V305H158V377Q158 394 150 404T127 414T105 404T97 376V102Q97 64 127 64Q141 64 149 74T158 101V172H219V113Z"
/>
<glyph unicode="d" glyph-name="d" horiz-adv-x="256" d="M227 0H167L161 39Q142 -8 98 -8Q64 -8 45 18T25 87V391Q25 433 44 460T95 487Q132 487 155 448V666H227V0ZM155 100V378Q155 394 147 404T126 415Q97 415 97 377V100Q97 62 126 62Q138 62 146 72T155 100Z" />
<glyph unicode="e" glyph-name="e" horiz-adv-x="243" d="M221 112Q221 58 195 25T125 -8T54 25T25 113V365Q25 419 53 453T125 487T194 453T221 365V226H97V102Q97 64 127 64Q156 64 156 102V172H221V112ZM155 279V375Q155 414 127 414Q97 414 97 375V279H155Z" />
<glyph unicode="f" glyph-name="f" horiz-adv-x="166" d="M160 409H119V0H46V409H11V478H46V534Q46 666 147 666H163V598H152Q117 598 117 554V478H160V409Z" />
<glyph unicode="g" glyph-name="g" horiz-adv-x="249" d="M254 493Q254 440 217 440Q208 440 196 446Q225 413 225 367V279Q225 228 197 194T125 160Q114 160 108 162Q97 162 90 153T83 129Q83 96 131 96Q183 96 210 70T237 -7V-60Q237 -117 208 -147T127 -177Q79
-177 50 -149T20 -68V-21Q20 26 58 47Q41 54 31 71T20 109Q20 133 35 153T73 177Q26 195 26 283V369Q26 420 54 453T125 487Q135 487 146 485T159 482Q197 482 197 527H251Q254 512 254 493ZM155 263V380Q155 416 125 416Q112 416 104 406T96 380V263Q96 248 104
238T125 228Q139 228 147 238T155 263ZM170 -68V-10Q170 29 129 29Q110 29 100 18T90 -10V-69Q90 -85 100 -96T129 -107Q149 -107 159 -96T170 -68Z" />
<glyph unicode="h" glyph-name="h" horiz-adv-x="260" d="M233 0H160V380Q160 396 153 405T132 415T111 403T102 374V0H29V666H102V436Q121 487 166 487Q196 487 214 462T233 395V0Z" />
<glyph unicode="i" glyph-name="i" horiz-adv-x="131" d="M99 538H31V624H99V538ZM102 0H29V480H102V0Z" />
<glyph unicode="j" glyph-name="j" horiz-adv-x="131" d="M99 538H31V624H99V538ZM102 -42Q102 -106 79 -138T2 -171H-13V-103H-5Q29 -103 29 -63V480H102V-42Z" />
<glyph unicode="k" glyph-name="k" horiz-adv-x="247" d="M241 0H168L125 198L103 136V0H29V666H103V250L165 481H235L174 267L241 0Z" />
<glyph unicode="l" glyph-name="l" horiz-adv-x="131" d="M102 0H29V666H102V0Z" />
<glyph unicode="m" glyph-name="m" horiz-adv-x="378" d="M351 0H278V377Q278 412 253 412Q241 412 234 399T227 370V0H153V381Q153 396 147 405T130 415Q118 415 110 403T102 373V0H29V480H96L100 432Q119 487 163 487Q205 487 221 431Q240 487 285 487Q315 487
333 462T351 396V0Z" />
<glyph unicode="n" glyph-name="n" horiz-adv-x="261" d="M233 0H160V380Q160 396 153 405T133 415Q119 415 111 403T102 374V0H29V480H95L99 431Q119 487 164 487Q196 487 214 462T233 395V0Z" />
<glyph unicode="o" glyph-name="o" horiz-adv-x="252" d="M226 113Q226 58 198 25T126 -8T54 25T25 113V364Q25 419 53 453T126 487T198 453T226 364V113ZM155 99V378Q155 394 147 404T126 414Q98 414 98 378V99Q98 64 126 64Q155 64 155 99Z" />
<glyph unicode="p" glyph-name="p" horiz-adv-x="256" d="M232 86Q232 46 213 20T163 -7Q124 -7 102 32V-168H29V480H90L96 440Q115 488 160 488Q193 488 212 462T232 393V86ZM159 103V379Q159 418 131 418Q119 418 111 408T102 380V102Q102 86 110 76T131 65Q159
65 159 103Z" />
<glyph unicode="q" glyph-name="q" horiz-adv-x="256" d="M227 -170H155V37Q136 -8 92 -8Q63 -8 44 18T25 84V390Q25 433 45 460T98 487Q142 487 161 438L167 478H227V-170ZM155 100V378Q155 395 147 405T126 415Q97 415 97 377V101Q97 63 126 63T155 100Z" />
<glyph unicode="r" glyph-name="r" horiz-adv-x="187" d="M178 397Q102 403 102 344V0H29V480H94L99 425Q119 491 178 485V397Z" />
<glyph unicode="s" glyph-name="s" horiz-adv-x="230" d="M215 114Q215 59 190 26T118 -8Q70 -8 44 23T18 112V148H82V102Q82 61 114 61Q148 61 148 100Q148 132 138 152T90 219Q20 295 20 367Q20 422 47 454T116 487Q163 487 187 455T212 369V329H151V378Q151
394 142 404T118 414Q88 414 88 378Q88 351 100 329T142 269Q178 230 196 195T215 114Z" />
<glyph unicode="t" glyph-name="t" horiz-adv-x="164" d="M156 409H116V132Q116 49 129 0H59Q42 53 42 132V409H8V478H47V553L116 577V478H156V409Z" />
<glyph unicode="u" glyph-name="u" horiz-adv-x="261" d="M232 0H166L162 45Q144 -8 97 -8Q65 -8 47 17T28 83V480H100V98Q100 82 108 72T129 62Q142 62 150 75T159 104V480H232V0Z" />
<glyph unicode="v" glyph-name="v" horiz-adv-x="227" d="M219 480L147 0H80L7 480H79L107 242L116 145L125 242L150 480H219Z" />
<glyph unicode="w" glyph-name="w" horiz-adv-x="345" d="M338 480L270 0H206L182 186L172 291L162 186L138 0H74L7 480H80L102 249L111 139L120 249L145 480H205L229 249L239 139L248 249L271 480H338Z" />
<glyph unicode="x" glyph-name="x" horiz-adv-x="230" d="M224 0H149L114 160L77 0H5L74 237L5 480H78L115 317L151 480H224L154 246L224 0Z" />
<glyph unicode="y" glyph-name="y" horiz-adv-x="226" d="M218 480L140 -42Q129 -114 109 -142T35 -171H21V-103H35Q52 -103 59 -94T70 -62L79 6L7 480H79L105 244L114 147L123 244L149 480H218Z" />
<glyph unicode="z" glyph-name="z" horiz-adv-x="208" d="M195 448L91 75H190V0H11V32L116 407H19V480H195V448Z" />
<glyph unicode="{" glyph-name="braceleft" horiz-adv-x="233" d="M205 -116H179Q120 -116 89 -79T57 15Q57 70 90 151T123 246Q123 286 74 286H43V328H74Q123 328 123 368Q123 382 90 463T57 599Q57 655 88 692T179 730H205V686H182Q154 686 139 662T123 598Q123
559 150 487T178 391Q178 326 111 308Q178 292 178 226Q178 203 151 129T123 16T138 -47T182 -72H205V-116Z" />
<glyph unicode="|" glyph-name="bar" horiz-adv-x="111" d="M80 -64H32V729H80V-64Z" />
<glyph unicode="}" glyph-name="braceright" horiz-adv-x="233" d="M191 286H159Q111 286 111 246Q111 232 143 151T176 15Q176 -42 145 -79T54 -116H29V-72H52Q80 -72 95 -48T110 16T83 129T56 226Q56 292 123 308Q56 326 56 391Q56 414 83 486T110 598Q110 638
95 662T52 686H29V730H54Q113 730 144 693T176 599Q176 544 144 463T111 368Q111 328 159 328H191V286Z" />
<glyph unicode="~" glyph-name="asciitilde" horiz-adv-x="201" d="M194 349Q194 280 142 280Q124 280 97 301T62 322Q48 322 48 305V282H17Q8 295 8 315Q8 384 58 384Q76 384 104 364T139 343Q154 343 154 360V384H185Q194 366 194 349Z" />
</font>
</defs>
</svg>
