<?xml version="1.0" standalone="no"?>
<!DOCTYPE svg PUBLIC "-//W3C//DTD SVG 1.1//EN" "http://www.w3.org/Graphics/SVG/1.1/DTD/svg11.dtd" >
<svg xmlns="http://www.w3.org/2000/svg" width="100%" height="100%">
<metadata>
Created by FontXChange 20100429 at Wed Jul  3 14:19:24 2013
 By Diego Martins da Rocha
Copyright (c) The digitally encoded machine readable outline data for producing the typefaces licensed to you is copyrighted (C), 2008 by the Foundry, London. All rights reserved.
</metadata>
<defs>
<font id="FoundryGridnik-Medium" horiz-adv-x="607" >
  <font-face 
    font-family="Foundry Gridnik"
    font-weight="500"
    font-stretch="normal"
    units-per-em="1000"
    panose-1="2 0 6 3 3 0 0 2 0 4"
    ascent="750"
    descent="-250"
    x-height="476"
    cap-height="667"
    bbox="-145 -315 1317 872"
    underline-thickness="50"
    underline-position="-50"
    stemh="78"
    stemv="86"
    unicode-range="U+0020-FB04"
  />
<missing-glyph horiz-adv-x="704" 
d="M585 -190h-466v996h466v-996zM204 -111h296v839h-296v-839z" />
    <glyph glyph-name="IJ" unicode="IJ" horiz-adv-x="695" 
d="M590 153c0 -19 -8 -36 -21 -50l-82 -82c-14 -14 -32 -21 -50 -21h-151c-19 0 -37 7 -50 21l-82 82c-14 14 -22 31 -22 50v44h91v-32c0 -5 3 -10 6 -14l57 -57c4 -4 9 -6 14 -6h121c6 0 11 2 14 6l57 57c4 4 7 9 7 14v414h-187v88h278v-514zM223 286h-90v293h-116v88h206
v-381z" />
    <glyph glyph-name="ij" unicode="ij" horiz-adv-x="575" 
d="M490 572h-106v106h106v-106zM203 572h-106v106h106v-106zM481 -78v1c0 -21 -7 -38 -21 -52l-41 -41c-14 -14 -30 -20 -49 -20h-134v78h119c5 0 10 2 14 6l20 20c4 4 6 11 6 16v468h-101v78h187v-554zM194 0h-85v398h-102v78h187v-476z" />
    <glyph glyph-name="fi" unicode="fi" horiz-adv-x="631" 
d="M546 572h-107v106h107v-106zM536 0h-85v398h-258v-398h-86v398h-76v78h76v78c0 21 7 38 21 52l41 41c14 14 30 20 49 20h133v-78h-118c-5 0 -10 -2 -14 -6l-20 -20c-4 -4 -6 -11 -6 -16v-71h343v-476z" />
    <glyph glyph-name="fl" unicode="fl" horiz-adv-x="631" 
d="M536 0h-85v589h-218c-5 0 -10 -2 -14 -6l-20 -20c-4 -4 -6 -11 -6 -16v-71h158v-78h-158v-398h-86v398h-76v78h76v78c0 21 7 38 21 52l41 41c14 14 30 20 49 20h318v-667z" />
    <glyph glyph-name="f_f" unicode="ff" horiz-adv-x="726" 
d="M193 398v-398h-86v398h-76v78h76v78c0 21 7 38 21 52l41 41c14 14 30 20 49 20h133v-78h-118c-5 0 -10 -2 -14 -6l-20 -20c-4 -4 -6 -11 -6 -16v-71h257v78c0 21 7 38 21 52l41 41c14 14 30 20 49 20h133v-78h-118c-5 0 -10 -2 -14 -6l-20 -20c-4 -4 -6 -11 -6 -16v-71
h158v-78h-158v-398h-86v398h-257z" />
    <glyph glyph-name="f_j" unicode="fj" horiz-adv-x="630" 
d="M536 -78c0 -20 -7 -37 -21 -51l-41 -41c-14 -14 -30 -20 -49 -20h-134v78h120c5 0 10 2 14 6l20 20c4 4 6 11 6 16v468h-258v-398h-86v398h-76v78h76v78c0 21 7 38 21 52l41 41c14 14 30 20 49 20h133v-78h-118c-5 0 -10 -2 -14 -6l-20 -20c-4 -4 -6 -11 -6 -16v-71h343
v-554zM545 572h-106v106h106v-106z" />
    <glyph glyph-name="f_t" unicode="ft" horiz-adv-x="729" 
d="M694 0h-133c-19 0 -35 6 -49 20l-40 40c-15 15 -21 32 -21 52v286h-258v-398h-86v398h-76v78h76v78c0 21 7 38 21 52l41 41c14 14 30 20 49 20h133v-78h-118c-5 0 -10 -2 -14 -6l-20 -20c-4 -4 -6 -11 -6 -16v-71h257v191h86v-191h158v-78h-158v-277c0 -6 2 -13 6 -17
l20 -20c4 -4 9 -6 14 -6h118v-78z" />
    <glyph glyph-name="f_f_i" unicode="ffi" horiz-adv-x="974" 
d="M889 572h-107v106h107v-106zM193 398v-398h-86v398h-76v78h76v78c0 21 7 38 21 52l41 41c14 14 30 20 49 20h133v-78h-118c-5 0 -10 -2 -14 -6l-20 -20c-4 -4 -6 -11 -6 -16v-71h257v78c0 21 7 38 21 52l41 41c14 14 30 20 49 20h133v-78h-118c-5 0 -10 -2 -14 -6
l-20 -20c-4 -4 -6 -11 -6 -16v-71h343v-476h-85v398h-258v-398h-86v398h-257z" />
    <glyph glyph-name="f_f_l" unicode="ffl" horiz-adv-x="974" 
d="M194 398h-1v-398h-86v398h-76v78h76v78c0 21 7 38 21 52l41 41c14 14 30 20 49 20h133v-78h-118c-5 0 -10 -2 -14 -6l-20 -20c-4 -4 -6 -11 -6 -16l1 -71h256v78c0 21 7 38 21 52l41 41c14 14 30 20 49 20h318v-667h-85v589h-218c-5 0 -10 -2 -14 -6l-20 -20
c-4 -4 -6 -11 -6 -16v-71h158v-78h-158v-398h-86v398h-256z" />
    <glyph glyph-name=".notdef" horiz-adv-x="704" 
d="M585 -190h-466v996h466v-996zM204 -111h296v839h-296v-839z" />
    <glyph glyph-name="eth" unicode="&#xf0;" horiz-adv-x="553" 
d="M490 117c0 -20 -7 -39 -21 -53l-44 -44c-14 -14 -30 -20 -49 -20h-199c-19 0 -35 6 -49 20l-44 44c-14 14 -21 31 -21 51v218c0 20 7 37 21 51l44 44c14 14 30 20 49 20h120l-95 95l-48 -48l-41 40l49 49l-55 55l53 54l56 -56l48 49l41 -40l-49 -49l212 -213
c14 -14 22 -31 22 -51v-216zM404 121v209c0 6 -2 10 -6 14l-20 20c-4 4 -9 6 -14 6h-175c-5 0 -11 -2 -14 -6l-20 -20c-4 -4 -7 -8 -7 -14v-212c0 -6 3 -10 6 -14l20 -20c4 -4 10 -6 14 -6h176c5 0 10 2 14 6l20 20c4 4 6 10 6 17z" />
    <glyph glyph-name="Lslash" unicode="&#x141;" horiz-adv-x="574" 
d="M549 0h-430v258l-57 -57l-40 40l97 97v329h91v-238l61 61l40 -40l-101 -101v-261h339v-88z" />
    <glyph glyph-name="lslash" unicode="&#x142;" horiz-adv-x="278" 
d="M279 442l-95 -95v-347h-86v261l-54 -54l-40 40l94 94v248h-101v78h186v-241l56 56z" />
    <glyph glyph-name="Scaron" unicode="&#x160;" horiz-adv-x="707" 
d="M539 872l-132 -132h-108l-132 132h90l96 -96l95 96h91zM630 153c0 -19 -8 -36 -21 -50l-82 -82c-14 -14 -32 -21 -50 -21h-256c-19 0 -36 7 -50 21l-94 94l62 62l83 -83c4 -4 8 -6 14 -6h225c6 0 11 2 14 6l57 57c4 4 7 9 7 14v82c0 11 -10 19 -19 20l-377 49
c-37 5 -66 37 -66 74v124c0 19 7 36 21 50l82 82c14 14 31 21 50 21h255c19 0 37 -7 50 -21l95 -94l-62 -62l-83 83c-4 4 -9 6 -14 6h-226c-6 0 -10 -2 -14 -6l-57 -57c-4 -4 -6 -9 -6 -14v-82c0 -10 8 -19 18 -20l378 -49c37 -5 66 -37 66 -74v-124z" />
    <glyph glyph-name="scaron" unicode="&#x161;" horiz-adv-x="525" 
d="M449 667l-132 -132h-108l-132 132h90l96 -96l95 96h91zM462 116c0 -21 -7 -38 -21 -52l-44 -44c-13 -13 -30 -20 -49 -20h-174c-19 0 -35 6 -49 20l-62 62l55 55l53 -53c4 -4 9 -6 14 -6h151c5 0 10 2 14 6l20 20c4 4 6 11 6 16v49c0 10 -8 19 -18 20l-232 29
c-35 5 -63 34 -63 69v74c0 20 8 37 21 51l44 44c14 14 30 20 49 20h174c19 0 36 -6 49 -20l62 -61l-55 -56l-53 53c-4 4 -9 6 -14 6h-151c-5 0 -10 -2 -14 -6l-20 -20c-4 -4 -6 -8 -6 -14v-46c0 -10 8 -19 18 -20l233 -30c34 -4 62 -34 62 -69v-77z" />
    <glyph glyph-name="Yacute" unicode="&#xdd;" horiz-adv-x="598" 
d="M486 872l-146 -146h-95l146 146h95zM577 667l-232 -372v-295h-91v295l-233 372h102l177 -283l177 283h100z" />
    <glyph glyph-name="yacute" unicode="&#xfd;" horiz-adv-x="474" 
d="M418 667l-146 -146h-95l146 146h95zM446 476l-230 -666h-87l59 182l-167 484h89l124 -370l125 370h87z" />
    <glyph glyph-name="Thorn" unicode="&#xde;" horiz-adv-x="663" 
d="M611 270c0 -20 -8 -37 -21 -50l-59 -59c-13 -13 -30 -20 -48 -20h-273v-141h-91v667h91v-140h272c19 0 35 -7 48 -20l59 -59c14 -14 22 -31 22 -50v-128zM519 282l1 104c0 6 -3 10 -6 14l-33 32c-4 4 -8 7 -14 7h-257v-210h256c6 0 11 2 14 6l33 33c4 4 6 8 6 14z" />
    <glyph glyph-name="thorn" unicode="&#xfe;" horiz-adv-x="581" 
d="M518 116c0 -20 -7 -38 -21 -52l-44 -44c-14 -14 -30 -20 -49 -20h-130c-19 0 -36 7 -49 20l-48 49v-260h-86v858h85v-260l48 48c14 14 31 21 50 21h129c19 0 36 -6 49 -20l44 -44c14 -14 22 -31 22 -51v-245zM432 121v237c0 6 -2 10 -6 14l-20 20c-4 4 -9 6 -14 6h-116
c-5 0 -11 -2 -14 -6l-79 -79c-4 -4 -7 -8 -7 -14v-122c0 -5 3 -10 6 -14l79 -79c4 -4 10 -6 15 -6h116c5 0 10 2 14 6l20 20c4 4 6 11 6 17z" />
    <glyph glyph-name="Zcaron" unicode="&#x17d;" horiz-adv-x="646" 
d="M509 872l-132 -132h-108l-133 132h91l95 -96l96 96h91zM569 0h-492v69l372 510h-372v88h492v-69l-373 -510h373v-88z" />
    <glyph glyph-name="zcaron" unicode="&#x17e;" horiz-adv-x="474" 
d="M423 667l-132 -132h-108l-132 132h90l96 -96l95 96h91zM435 0h-397v63l283 335h-283v78h397v-63l-283 -335h283v-78z" />
    <glyph glyph-name="onehalf" unicode="&#xbd;" horiz-adv-x="974" 
d="M897 0h-266v131c0 16 9 30 24 37l172 76c4 2 7 5 7 10v67c0 3 -1 6 -3 8l-11 11c-2 2 -5 4 -8 4h-97c-3 0 -6 -2 -8 -4l-42 -42l-41 41l49 49c8 8 18 13 30 13h122c12 0 22 -5 30 -13l31 -31c8 -8 11 -17 11 -28v-92c0 -16 -9 -31 -24 -37l-172 -75c-4 -2 -7 -5 -7 -10
v-57h203v-58zM699 672l-363 -672h-61l363 672h61zM357 266h-266v57h104v271l-67 -67l-44 44l96 96h78v-344h99v-57z" />
    <glyph glyph-name="onequarter" unicode="&#xbc;" horiz-adv-x="974" 
d="M909 104h-54v-104h-57v104h-180v49l160 248h77v-240h54v-57zM699 672l-363 -672h-61l363 672h61zM357 266h-266v57h104v271l-67 -67l-44 44l96 96h78v-344h99v-57zM795 161v165l-108 -165h108z" />
    <glyph glyph-name="onesuperior" unicode="&#xb9;" horiz-adv-x="420" 
d="M357 266h-266v57h104v271l-67 -67l-44 44l96 96h78v-344h99v-57z" />
    <glyph glyph-name="threequarters" unicode="&#xbe;" horiz-adv-x="974" 
d="M909 104h-54v-104h-57v104h-180v49l160 248h77v-240h54v-57zM699 672l-363 -672h-61l363 672h61zM343 338c0 -11 -3 -20 -11 -28l-31 -31c-8 -8 -18 -13 -30 -13h-122c-12 0 -22 5 -30 13l-49 49l41 41l42 -42c2 -2 5 -4 8 -4h97c3 0 6 2 8 4l11 11c2 2 3 5 3 8v81
c0 3 -1 6 -3 8l-10 10c-2 2 -6 4 -9 4h-91v57h91c3 0 7 2 9 4l10 10c2 2 3 5 3 8v59c0 3 -1 6 -3 8l-11 11c-2 2 -5 4 -8 4h-97c-3 0 -6 -2 -8 -4l-42 -42l-41 41l49 49c8 8 18 13 30 13h58h64c12 0 22 -5 30 -13l31 -31c8 -8 11 -17 11 -28v-67c0 -11 -4 -21 -12 -29
l-22 -22l22 -22c8 -8 12 -18 12 -29v-88zM795 161v165l-108 -165h108z" />
    <glyph glyph-name="threesuperior" unicode="&#xb3;" horiz-adv-x="420" 
d="M343 338c0 -11 -3 -20 -11 -28l-31 -31c-8 -8 -18 -13 -30 -13h-122c-12 0 -22 5 -30 13l-49 49l41 41l42 -42c2 -2 5 -4 8 -4h97c3 0 6 2 8 4l11 11c2 2 3 5 3 8v81c0 3 -1 6 -3 8l-10 10c-2 2 -6 4 -9 4h-91v57h91c3 0 7 2 9 4l10 10c2 2 3 5 3 8v59c0 3 -1 6 -3 8
l-11 11c-2 2 -5 4 -8 4h-97c-3 0 -6 -2 -8 -4l-42 -42l-41 41l49 49c8 8 18 13 30 13h58h64c12 0 22 -5 30 -13l31 -31c8 -8 11 -17 11 -28v-67c0 -11 -4 -21 -12 -29l-22 -22l22 -22c8 -8 12 -18 12 -29v-88z" />
    <glyph glyph-name="twosuperior" unicode="&#xb2;" horiz-adv-x="420" 
d="M343 266h-266v131c0 16 9 30 24 37l172 76c4 2 7 5 7 10v67c0 3 -1 6 -3 8l-11 11c-2 2 -5 4 -8 4h-98c-3 0 -6 -2 -8 -4l-41 -42l-41 41l49 49c8 8 18 13 30 13h122c12 0 22 -5 30 -13l31 -31c8 -8 11 -17 11 -28v-90c0 -16 -9 -30 -24 -37l-172 -77c-4 -2 -7 -5 -7 -10
v-58h203v-57z" />
    <glyph glyph-name="brokenbar" unicode="&#xa6;" horiz-adv-x="304" 
d="M192 381h-82v286h82v-286zM192 -191h-82v286h82v-286z" />
    <glyph glyph-name="minus" unicode="&#x2212;" 
d="M542 200h-478v76h478v-76z" />
    <glyph glyph-name="multiply" unicode="&#xd7;" 
d="M518 74l-53 -54l-162 162l-161 -162l-53 53l161 162l-161 161l53 54l161 -162l162 162l53 -53l-161 -162z" />
    <glyph glyph-name="space" unicode=" " horiz-adv-x="304" 
 />
    <glyph glyph-name="exclam" unicode="!" horiz-adv-x="304" 
d="M195 208h-86v459h86v-459zM205 0h-107v106h107v-106z" />
    <glyph glyph-name="quotedbl" unicode="&#x22;" horiz-adv-x="498" 
d="M387 467h-83v200h83v-200zM192 467h-82v200h82v-200z" />
    <glyph glyph-name="numbersign" unicode="#" 
d="M587 409h-128l-34 -127h110v-68h-129l-56 -214h-77l58 214h-125l-57 -214h-77l58 214h-110v68h127l35 127h-110v68h127l59 217h76l-58 -217h124l59 217h77l-59 -217h110v-68zM382 409h-123l-35 -127h124z" />
    <glyph glyph-name="dollar" unicode="$" 
d="M523 117c0 -19 -6 -35 -20 -49l-47 -47c-14 -14 -31 -21 -50 -21h-76v-95h-52v95h-78c-19 0 -35 6 -49 20l-67 67l54 56l59 -59c4 -4 9 -6 14 -6h67v218l-128 16c-36 5 -66 38 -66 74v164c0 19 6 35 20 49l47 47c14 14 31 21 50 21h76v95h52v-95h78c19 0 35 -6 49 -20
l67 -67l-54 -56l-59 59c-4 4 -9 6 -14 6h-67v-219l128 -15c36 -5 66 -38 66 -74v-164zM277 375l1 214h-66c-6 0 -11 -2 -14 -6l-23 -22c-4 -4 -6 -8 -6 -14v-141c0 -10 8 -19 18 -20zM438 120v141c0 10 -8 19 -18 20l-91 10v-213h66c6 0 11 2 14 6l23 22c4 4 6 8 6 14z" />
    <glyph glyph-name="percent" unicode="%" horiz-adv-x="974" 
d="M897 72c0 -11 -3 -20 -11 -28l-31 -31c-8 -8 -17 -13 -29 -13h-124c-12 0 -21 5 -29 13l-31 31c-8 8 -11 17 -11 28v257c0 11 3 20 11 28l31 31c8 8 17 13 29 13h121c12 0 24 -5 32 -13l31 -31c8 -8 11 -17 11 -28v-257zM699 672l-363 -672h-61l363 672h61zM343 338
c0 -11 -3 -20 -11 -28l-31 -31c-8 -8 -17 -13 -29 -13h-124c-12 0 -21 5 -29 13l-31 31c-8 8 -11 17 -11 28v257c0 11 3 20 11 28l31 31c8 8 17 13 29 13h121c12 0 24 -5 32 -13l31 -31c8 -8 11 -17 11 -28v-257zM834 80v241c0 3 -1 6 -3 8l-11 11c-2 2 -6 4 -9 4h-94
c-3 0 -7 -2 -9 -4l-11 -11c-2 -2 -3 -5 -3 -8v-241c0 -3 1 -6 3 -8l11 -11c2 -2 6 -4 9 -4h95c3 0 7 2 9 4l10 10c2 2 3 6 3 9zM280 346v241c0 3 -1 6 -3 8l-11 11c-2 2 -6 4 -9 4h-94c-3 0 -7 -2 -9 -4l-11 -11c-2 -2 -3 -5 -3 -8v-241c0 -3 1 -6 3 -8l11 -11
c2 -2 6 -4 9 -4h95c3 0 7 2 9 4l10 10c2 2 3 6 3 9z" />
    <glyph glyph-name="ampersand" unicode="&#x26;" horiz-adv-x="726" 
d="M663 58l-57 -58l-81 81l-61 -60c-14 -14 -30 -21 -49 -21h-195c-19 0 -36 7 -50 20l-44 44c-14 14 -21 31 -21 51v140c0 19 7 36 21 50l87 87l-65 65c-16 16 -24 39 -24 61s8 43 24 60l62 61c17 17 39 25 60 25c22 0 44 -8 60 -24l63 -62c16 -17 25 -38 25 -60
s-8 -44 -23 -59l-67 -66l198 -199l70 71l56 -55s-69 -71 -70 -71zM323 503c12 12 13 26 1 39l-35 34c-13 13 -27 12 -38 0l-34 -34c-13 -13 -11 -27 0 -39l53 -53zM469 136l-198 199l-73 -73c-4 -4 -7 -9 -7 -14v-130c0 -6 3 -10 6 -14l20 -20c4 -4 9 -6 14 -6h171
c5 0 10 2 14 6z" />
    <glyph glyph-name="quotesingle" unicode="'" horiz-adv-x="304" 
d="M193 467h-83v200h83v-200z" />
    <glyph glyph-name="parenleft" unicode="(" horiz-adv-x="398" 
d="M363 -135l-57 -58l-195 195c-14 14 -20 30 -20 49v512c0 19 6 35 20 49l195 195l57 -58l-166 -165c-14 -14 -21 -32 -21 -50v-453c0 -19 7 -37 21 -50z" />
    <glyph glyph-name="parenright" unicode=")" horiz-adv-x="398" 
d="M307 51c0 -19 -6 -35 -20 -49l-195 -195l-57 58l166 165c14 14 21 32 21 50v453c0 19 -7 37 -21 50l-166 166l57 58l195 -195c14 -14 20 -30 20 -49v-512z" />
    <glyph glyph-name="asterisk" unicode="*" horiz-adv-x="600" 
d="M533 469l-176 -56l108 -145l-60 -47l-105 149l-105 -149l-60 46l107 146l-176 56l24 72l173 -57l-1 183h75l-1 -183l174 57z" />
    <glyph glyph-name="plus" unicode="+" 
d="M542 200h-200v-200h-76v200h-202v76h201v200h76v-200h201v-76z" />
    <glyph glyph-name="comma" unicode="," horiz-adv-x="304" 
d="M196 -71c0 -22 -6 -35 -20 -50l-49 -49l-57 56l30 30c4 4 7 8 7 14v176h89v-177z" />
    <glyph glyph-name="hyphen" unicode="-" horiz-adv-x="497" 
d="M389 201l-281 -1v76h281v-75z" />
    <glyph glyph-name="period" unicode="." horiz-adv-x="304" 
d="M205 0h-107v106h107v-106z" />
    <glyph glyph-name="slash" unicode="/" horiz-adv-x="553" 
d="M513 755l-392 -839h-81l392 839h81z" />
    <glyph glyph-name="zero" unicode="0" 
d="M516 117c0 -19 -5 -34 -19 -48l-47 -47c-14 -14 -31 -22 -51 -22h-191c-20 0 -37 8 -51 22l-47 47c-14 14 -19 29 -19 48v433c0 19 5 34 19 48l47 47c14 14 31 22 51 22h191c20 0 37 -8 51 -22l47 -47c14 -14 19 -29 19 -48v-433zM431 122v424c0 5 -1 10 -5 14l-23 23
c-4 4 -9 6 -15 6h-169c-6 0 -11 -2 -15 -6l-23 -23c-4 -4 -5 -9 -5 -14v-425c0 -5 1 -10 5 -14l23 -23c4 -4 9 -6 15 -6h169c6 0 11 2 15 6l23 23c4 4 5 9 5 15z" />
    <glyph glyph-name="one" unicode="1" 
d="M479 0h-341v78h129v503l-85 -76l-54 53l122 109h101v-589h128v-78z" />
    <glyph glyph-name="two" unicode="2" 
d="M516 0h-425v213c0 28 15 52 41 64l287 128c7 3 12 10 12 18v123c0 5 -1 10 -5 14l-23 23c-4 4 -9 6 -15 6h-169c-6 0 -11 -2 -15 -6l-61 -61l-55 54l69 69c14 14 31 22 51 22h191c20 0 37 -8 51 -22l47 -47c14 -14 19 -29 19 -48v-144c0 -28 -15 -53 -41 -64l-287 -129
c-7 -3 -12 -10 -12 -18v-117h340v-78z" />
    <glyph glyph-name="three" unicode="3" 
d="M516 117c0 -19 -5 -34 -19 -48l-47 -47c-14 -14 -31 -22 -51 -22h-191c-20 0 -37 8 -51 22l-69 69l55 54l61 -61c4 -4 9 -6 15 -6h169c6 0 11 2 15 6l23 23c4 4 5 9 5 14v142c0 6 -1 11 -5 14l-29 30c-4 4 -9 6 -15 6h-136v78h135c6 0 12 2 15 6l30 29c4 4 5 9 5 14v106
c0 5 -1 10 -5 14l-23 23c-4 4 -9 6 -15 6h-169c-6 0 -11 -2 -15 -6l-61 -61l-55 54l69 69c14 14 31 22 51 22h191c20 0 37 -8 51 -22l47 -47c14 -14 19 -29 19 -48v-113c0 -19 -7 -36 -21 -50l-35 -35l36 -36c14 -14 20 -29 20 -48v-151z" />
    <glyph glyph-name="four" unicode="4" 
d="M520 179h-84v-179h-85v179h-296v71l267 417h113v-410h85v-78zM350 257l1 315l-199 -315h198z" />
    <glyph glyph-name="five" unicode="5" 
d="M516 117c0 -19 -5 -34 -19 -48l-47 -47c-14 -14 -31 -22 -51 -22h-191c-20 0 -37 8 -51 22l-69 69l55 54l61 -61c4 -4 9 -6 15 -6h169c6 0 11 2 15 6l23 23c4 4 5 9 5 14v173c0 5 -1 8 -5 12l-23 23c-4 4 -9 6 -15 6h-269v332h369v-78h-284v-176h195c20 0 37 -8 51 -22
l47 -47c14 -14 19 -27 19 -46v-181z" />
    <glyph glyph-name="six" unicode="6" 
d="M519 576l-55 -54l-61 61c-4 4 -9 6 -15 6h-169c-6 0 -11 -2 -15 -6l-23 -23c-4 -4 -5 -9 -5 -14v-203l48 48c14 14 31 22 51 22h124c20 0 37 -8 51 -22l47 -47c14 -14 19 -29 19 -48v-179c0 -19 -5 -34 -19 -48l-47 -47c-14 -14 -31 -22 -51 -22h-191c-20 0 -37 8 -51 22
l-47 47c-14 14 -19 29 -19 48v433c0 19 5 34 19 48l47 47c14 14 31 22 51 22h191c20 0 37 -8 51 -22zM431 121v170c0 5 -1 11 -5 15l-23 23c-4 4 -9 6 -15 6h-109c-6 0 -12 -2 -15 -6l-83 -82c-4 -4 -5 -9 -5 -14v-112c0 -5 1 -10 5 -14l23 -23c4 -4 9 -6 15 -6h169
c6 0 11 2 15 6l23 23c4 4 5 9 5 14z" />
    <glyph glyph-name="seven" unicode="7" 
d="M516 609l-274 -609h-92l267 589h-328v78h427v-58z" />
    <glyph glyph-name="eight" unicode="8" 
d="M516 117c0 -19 -5 -34 -19 -48l-47 -47c-14 -14 -31 -22 -51 -22h-191c-20 0 -37 8 -51 22l-47 47c-13 14 -19 29 -19 48v146c0 21 7 36 20 50l36 35l-35 35c-14 14 -21 32 -21 51v116c0 19 5 34 19 48l47 47c14 14 31 22 51 22h191c19 0 37 -8 51 -22l47 -47
c14 -14 19 -29 19 -48v-116c0 -19 -7 -36 -21 -50l-35 -35l35 -36c14 -14 21 -29 21 -49v-147zM431 438v108c0 5 -1 10 -5 14l-23 23c-4 4 -9 6 -15 6h-169c-6 0 -11 -2 -15 -6l-23 -23c-4 -4 -5 -9 -5 -14v-108c0 -5 1 -11 5 -14l30 -30c4 -4 9 -7 15 -7h155c6 0 12 3 15 6
l30 30c4 4 5 9 5 15zM431 122v137c0 6 -1 11 -5 14l-30 30c-4 4 -9 7 -15 7h-155c-6 0 -11 -3 -15 -6l-30 -30c-4 -4 -5 -9 -5 -14v-139c0 -5 1 -10 5 -14l23 -23c4 -4 9 -6 15 -6h169c6 0 11 2 15 6l23 23c4 4 5 10 5 15z" />
    <glyph glyph-name="nine" unicode="9" 
d="M516 117c0 -19 -5 -34 -19 -48l-47 -47c-14 -14 -31 -22 -51 -22h-191c-20 0 -37 8 -51 22l-69 69l55 54l61 -61c4 -4 9 -6 15 -6h169c6 0 11 2 15 6l23 23c4 4 5 9 5 14v203l-48 -48c-14 -14 -31 -22 -51 -22h-124c-20 0 -37 8 -51 22l-47 47c-14 14 -19 29 -19 48v179
c0 19 5 34 19 48l47 47c14 14 31 22 51 22h191c20 0 37 -8 51 -22l47 -47c14 -14 19 -29 19 -48v-433zM431 435v111c0 5 -1 10 -5 14l-23 23c-4 4 -9 6 -15 6h-169c-6 0 -11 -2 -15 -6l-23 -23c-4 -4 -5 -9 -5 -14v-170c0 -5 1 -11 5 -15l23 -23c4 -4 9 -6 15 -6h109
c6 0 12 2 15 6l83 82c4 4 5 9 5 15z" />
    <glyph glyph-name="colon" unicode=":" horiz-adv-x="304" 
d="M205 370h-107v106h107v-106zM205 0h-107v106h107v-106z" />
    <glyph glyph-name="semicolon" unicode=";" horiz-adv-x="304" 
d="M205 370h-107v106h107v-106zM196 -71c0 -22 -6 -35 -20 -50l-49 -49l-57 56l30 30c4 4 7 8 7 14v176h89v-177z" />
    <glyph glyph-name="less" unicode="&#x3c;" 
d="M449 422l-184 -184l184 -184l-53 -54l-239 238l239 238z" />
    <glyph glyph-name="equal" unicode="=" 
d="M542 300l-477 -1v77h477v-76zM542 102h-477v77h477v-77z" />
    <glyph glyph-name="greater" unicode="&#x3e;" 
d="M449 238l-238 -238l-53 54l184 184l-184 184l53 54z" />
    <glyph glyph-name="question" unicode="?" horiz-adv-x="509" 
d="M418 448c0 -19 -8 -36 -21 -50l-123 -123c-4 -4 -6 -8 -6 -14v-56h-86v59c0 19 6 36 20 49l124 124c4 4 6 10 6 14v96c0 5 -2 11 -6 14l-22 22c-4 4 -9 6 -14 6h-113c-6 0 -11 -2 -15 -6l-57 -57l-56 55l65 65c14 14 30 21 49 21h140c19 0 36 -7 49 -21l45 -45
c14 -14 21 -29 21 -49v-104zM277 0h-106v106h106v-106z" />
    <glyph glyph-name="at" unicode="@" horiz-adv-x="820" 
d="M715 185c0 -5 -2 -11 -6 -14l-45 -46c-4 -4 -8 -6 -14 -6h-96c-6 0 -10 2 -14 6l-44 44l-44 -44c-4 -4 -8 -6 -14 -6h-103c-6 0 -10 2 -14 6l-63 63c-4 4 -7 8 -7 14v214c0 6 3 11 6 14l64 64c4 4 8 6 14 6h100c6 0 10 -2 14 -6l46 -46l11 52h67l-15 -69v-222
c0 -6 3 -11 6 -14l22 -22c11 -11 22 -9 29 -3l16 16c4 4 6 8 6 14v306c0 6 -2 11 -6 15l-62 62c-4 4 -9 6 -14 6h-289c-5 0 -10 -2 -14 -6l-63 -63c-4 -4 -6 -9 -6 -15v-399c0 -6 2 -11 6 -15l63 -63c4 -4 9 -6 14 -6h393v-78h-424c-5 0 -10 2 -14 6l-110 110
c-4 4 -6 8 -6 14v463c0 6 2 10 6 14l110 110c4 4 9 6 14 6h351c5 0 10 -2 14 -6l109 -109c4 -4 6 -9 6 -15v-352zM484 260v99c0 5 -2 10 -6 14l-58 58c-4 4 -8 6 -14 6h-39c-6 0 -11 -2 -15 -6l-20 -20c-4 -4 -6 -9 -6 -14v-175c0 -5 2 -10 6 -14l20 -20c4 -4 9 -6 15 -6h39
c6 0 10 2 14 6l58 58c4 4 6 9 6 14z" />
    <glyph glyph-name="A" unicode="A" horiz-adv-x="689" 
d="M654 0h-93l-68 179h-299l-68 -179h-91l250 667h120zM460 263l-116 322l-118 -322h234z" />
    <glyph glyph-name="B" unicode="B" horiz-adv-x="701" 
d="M610 129c0 -19 -7 -36 -20 -50l-59 -58c-14 -14 -30 -21 -49 -21h-363v667h362c20 0 36 -7 50 -21l59 -59c14 -14 20 -29 20 -49v-97c0 -19 -7 -36 -21 -50l-58 -57l58 -58c14 -14 21 -30 21 -49v-98zM519 450l1 76c0 5 -2 10 -6 14l-33 33c-4 4 -8 6 -14 6h-257v-203
h236c5 0 11 3 14 6l53 53c4 4 6 8 6 15zM520 141v75c0 6 -3 11 -6 14l-54 54c-4 4 -9 7 -14 7h-236v-203h256c5 0 11 2 14 6l33 33c4 4 7 8 7 14z" />
    <glyph glyph-name="C" unicode="C" horiz-adv-x="632" 
d="M583 115l-94 -94c-14 -14 -31 -21 -50 -21h-195c-19 0 -36 7 -50 21l-82 82c-14 14 -21 31 -21 50v361c0 19 7 36 21 50l82 82c14 14 31 21 50 21h195c19 0 36 -7 50 -21l94 -94l-62 -62l-83 83c-4 4 -8 6 -14 6h-165c-6 0 -10 -2 -14 -6l-57 -57c-4 -4 -6 -9 -6 -14
v-337c0 -5 2 -10 6 -14l57 -57c4 -4 8 -6 14 -6h165c6 0 10 2 14 6l82 83z" />
    <glyph glyph-name="D" unicode="D" horiz-adv-x="702" 
d="M611 153c0 -19 -8 -36 -21 -50l-82 -82c-14 -14 -32 -21 -50 -21h-339v667h338c19 0 37 -7 50 -21l82 -82c14 -14 22 -31 22 -50v-361zM519 165l1 337c0 5 -3 10 -6 14l-57 57c-4 4 -9 6 -14 6h-233v-491h232c6 0 11 2 14 6l57 57c4 4 6 9 6 14z" />
    <glyph glyph-name="E" unicode="E" horiz-adv-x="641" 
d="M550 0h-431v667h431v-88h-340v-201h340v-88h-340v-202h340v-88z" />
    <glyph glyph-name="F" unicode="F" horiz-adv-x="614" 
d="M551 290h-341v-290h-91v667h432v-88h-341v-201h341v-88z" />
    <glyph glyph-name="G" unicode="G" horiz-adv-x="748" 
d="M671 0h-87l-19 95l-74 -74c-14 -14 -30 -21 -49 -21h-198c-19 0 -36 7 -50 21l-82 82c-14 14 -21 31 -21 50v361c0 19 7 36 21 50l82 82c14 14 31 21 50 21h247c19 0 35 -7 49 -21l94 -94l-62 -62l-83 83c-4 4 -8 6 -14 6h-216c-6 0 -10 -2 -14 -6l-57 -57
c-4 -4 -6 -9 -6 -14v-337c0 -5 2 -10 6 -14l57 -57c4 -4 8 -6 14 -6h170c6 0 11 2 14 6l105 104c4 4 6 8 6 14v78h-182v88h273v-248z" />
    <glyph glyph-name="H" unicode="H" horiz-adv-x="730" 
d="M611 0h-91v290h-310v-290h-91v667h91v-289h309v289h92v-667z" />
    <glyph glyph-name="I" unicode="I" horiz-adv-x="437" 
d="M388 0h-339v82h124v503h-124v82h339v-82h-124v-503h124v-82z" />
    <glyph glyph-name="J" unicode="J" horiz-adv-x="559" 
d="M454 153c0 -19 -7 -36 -21 -50l-82 -82c-14 -14 -31 -21 -50 -21h-143c-19 0 -36 7 -50 21l-94 94l62 62l83 -83c4 -4 8 -6 14 -6h113c6 0 10 2 14 6l57 57c4 4 6 9 6 14v414h-197v88h288v-514z" />
    <glyph glyph-name="K" unicode="K" horiz-adv-x="608" 
d="M598 0h-120l-268 290v-290h-91v667h91v-290l271 290h117l-312 -333z" />
    <glyph glyph-name="L" unicode="L" horiz-adv-x="574" 
d="M550 0h-431v667h91v-579h340v-88z" />
    <glyph glyph-name="M" unicode="M" horiz-adv-x="886" 
d="M767 0h-89v582l-189 -582h-92l-188 582v-582h-90v667h149l175 -542l175 542h149v-667z" />
    <glyph glyph-name="N" unicode="N" horiz-adv-x="730" 
d="M611 0h-136l-266 563v-563h-90v667h136l266 -563v563h90v-667z" />
    <glyph glyph-name="O" unicode="O" horiz-adv-x="735" 
d="M644 153c0 -19 -8 -36 -21 -50l-82 -82c-14 -14 -32 -21 -50 -21h-247c-19 0 -36 7 -50 21l-82 82c-14 14 -21 31 -21 50v361c0 19 7 36 21 50l82 82c14 14 31 21 50 21h246c19 0 37 -7 50 -21l82 -82c14 -14 22 -31 22 -50v-361zM552 165l1 337c0 5 -3 10 -6 14l-57 57
c-4 4 -9 6 -14 6h-217c-6 0 -10 -2 -14 -6l-57 -57c-4 -4 -6 -9 -6 -14v-337c0 -5 2 -10 6 -14l57 -57c4 -4 8 -6 14 -6h216c6 0 11 2 14 6l57 57c4 4 6 9 6 14z" />
    <glyph glyph-name="P" unicode="P" horiz-adv-x="663" 
d="M611 412c0 -20 -8 -37 -21 -50l-59 -59c-13 -13 -30 -20 -48 -20h-273v-283h-91v667h363c19 0 35 -7 48 -20l59 -59c14 -14 22 -30 22 -50v-126zM519 424l1 102c0 6 -3 11 -6 14l-33 33c-4 4 -8 6 -14 6h-257v-208h256c6 0 11 2 14 6l33 33c4 4 6 8 6 14z" />
    <glyph glyph-name="Q" unicode="Q" horiz-adv-x="735" 
d="M644 153c0 -19 -8 -36 -21 -50l-82 -82c-14 -14 -32 -21 -50 -21h-24l47 -110l-70 -29l-59 139h-141c-19 0 -36 7 -50 21l-82 82c-14 14 -21 31 -21 50v361c0 19 7 36 21 50l82 82c14 14 31 21 50 21h246c19 0 37 -7 50 -21l82 -82c14 -14 22 -31 22 -50v-361zM552 165
l1 337c0 5 -3 10 -6 14l-57 57c-4 4 -9 6 -14 6h-217c-6 0 -10 -2 -14 -6l-57 -57c-4 -4 -6 -9 -6 -14v-337c0 -5 2 -10 6 -14l57 -57c4 -4 8 -6 14 -6h88l-24 57l70 32l37 -89h45c6 0 11 2 14 6l57 57c4 4 6 9 6 14z" />
    <glyph glyph-name="R" unicode="R" horiz-adv-x="722" 
d="M659 0h-110l-190 274c-5 6 -11 9 -17 9h-132v-283h-91v667h363c19 0 35 -7 48 -20l59 -59c14 -14 22 -30 22 -50v-126c0 -20 -8 -37 -21 -50l-59 -59c-13 -13 -30 -20 -48 -20h-25zM519 424l1 102c0 6 -3 11 -6 14l-33 33c-4 4 -8 6 -14 6h-257v-208h256c6 0 11 2 14 6
l33 33c4 4 6 8 6 14z" />
    <glyph glyph-name="S" unicode="S" horiz-adv-x="707" 
d="M630 153c0 -19 -8 -36 -21 -50l-82 -82c-14 -14 -32 -21 -50 -21h-256c-19 0 -36 7 -50 21l-94 94l62 62l83 -83c4 -4 8 -6 14 -6h225c6 0 11 2 14 6l57 57c4 4 7 9 7 14v82c0 11 -10 19 -19 20l-377 49c-37 5 -66 37 -66 74v124c0 19 7 36 21 50l82 82
c14 14 31 21 50 21h255c19 0 37 -7 50 -21l95 -94l-62 -62l-83 83c-4 4 -9 6 -14 6h-226c-6 0 -10 -2 -14 -6l-57 -57c-4 -4 -6 -9 -6 -14v-82c0 -10 8 -19 18 -20l378 -49c37 -5 66 -37 66 -74v-124z" />
    <glyph glyph-name="T" unicode="T" horiz-adv-x="561" 
d="M526 579h-200v-579h-91v579h-200v88h491v-88z" />
    <glyph glyph-name="U" unicode="U" horiz-adv-x="702" 
d="M597 153c0 -19 -8 -36 -21 -50l-82 -82c-14 -14 -32 -21 -50 -21h-186c-19 0 -36 7 -50 21l-82 82c-14 14 -21 31 -21 50v514h91v-502c0 -5 2 -10 6 -14l57 -57c4 -4 8 -6 14 -6h155c6 0 11 2 14 6l57 57c4 4 6 9 6 14v502h92v-514z" />
    <glyph glyph-name="V" unicode="V" horiz-adv-x="604" 
d="M583 667l-221 -667h-121l-220 667h93l189 -583l189 583h91z" />
    <glyph glyph-name="W" unicode="W" horiz-adv-x="866" 
d="M817 667l-143 -667h-125l-117 572l-117 -572h-124l-142 667h93l114 -575l115 575h129l113 -575l116 575h88z" />
    <glyph glyph-name="X" unicode="X" horiz-adv-x="600" 
d="M551 0h-104l-147 251l-149 -251h-102l201 333l-201 334h103l148 -252l148 252h102l-201 -333z" />
    <glyph glyph-name="Y" unicode="Y" horiz-adv-x="598" 
d="M577 667l-232 -372v-295h-91v295l-233 372h102l177 -283l177 283h100z" />
    <glyph glyph-name="Z" unicode="Z" horiz-adv-x="646" 
d="M569 0h-492v69l372 510h-372v88h492v-69l-373 -510h373v-88z" />
    <glyph glyph-name="bracketleft" unicode="[" horiz-adv-x="401" 
d="M352 -190h-233v996h233v-78h-148v-839h148v-79z" />
    <glyph glyph-name="backslash" unicode="\" horiz-adv-x="553" 
d="M513 -84h-80l-393 839h80z" />
    <glyph glyph-name="bracketright" unicode="]" horiz-adv-x="401" 
d="M282 -190h-233v78h147v839h-147v79h233v-996z" />
    <glyph glyph-name="asciicircum" unicode="^" 
d="M541 432l-54 -53l-183 183l-185 -183l-53 53l237 238z" />
    <glyph glyph-name="underscore" unicode="_" horiz-adv-x="500" 
d="M500 -315h-500v79h500v-79z" />
    <glyph glyph-name="grave" unicode="`" horiz-adv-x="465" 
d="M348 521h-92l-146 146h92z" />
    <glyph glyph-name="a" unicode="a" horiz-adv-x="574" 
d="M520 56l-56 -56l-53 53l-33 -33c-14 -13 -30 -20 -49 -20h-166c-19 0 -35 6 -49 20l-44 44c-14 14 -21 31 -21 51v78c0 20 7 37 21 51l39 39c14 14 31 21 50 21h231v54c0 5 -2 10 -6 14l-20 20c-4 4 -9 6 -14 6h-180c-6 0 -11 -2 -14 -6l-37 -37l-53 53l48 48
c14 14 29 20 49 20h198c20 0 36 -7 49 -20l44 -44c14 -14 21 -32 21 -51v-253c0 -6 3 -10 6 -14zM390 151v79h-215c-6 0 -11 -3 -14 -6l-20 -20c-4 -4 -7 -9 -7 -14v-72c0 -6 3 -10 6 -14l20 -20c4 -4 10 -6 14 -6h143c5 0 11 2 14 6l53 52c4 4 6 8 6 15z" />
    <glyph glyph-name="b" unicode="b" horiz-adv-x="581" 
d="M518 116c0 -20 -7 -38 -21 -52l-44 -44c-14 -14 -30 -20 -49 -20h-130c-19 0 -36 7 -49 20l-53 53l-17 -73h-80l16 79v588h85v-260l48 48c14 14 31 21 50 21h129c19 0 36 -6 49 -20l44 -44c14 -14 22 -31 22 -51v-245zM432 121v237c0 6 -2 10 -6 14l-20 20
c-4 4 -9 6 -14 6h-116c-5 0 -11 -2 -14 -6l-79 -79c-4 -4 -7 -8 -7 -14v-122c0 -5 3 -10 6 -14l79 -79c4 -4 10 -6 15 -6h116c5 0 10 2 14 6l20 20c4 4 6 10 6 17z" />
    <glyph glyph-name="c" unicode="c" horiz-adv-x="516" 
d="M481 84l-63 -64c-14 -14 -30 -20 -49 -20h-192c-19 0 -35 6 -49 20l-44 44c-14 14 -21 31 -21 51v246c0 19 7 37 21 51l44 44c14 14 30 20 49 20h191c20 0 36 -6 49 -20l64 -63l-55 -56l-55 55c-4 4 -9 6 -14 6h-168c-6 0 -11 -2 -14 -6l-20 -20c-4 -4 -7 -9 -7 -14v-240
c0 -5 3 -10 6 -14l20 -20c4 -4 9 -6 14 -6h169c5 0 10 2 14 6l54 55z" />
    <glyph glyph-name="d" unicode="d" horiz-adv-x="581" 
d="M506 0h-80l-17 73l-53 -52c-14 -14 -31 -21 -49 -21h-130c-19 0 -35 6 -49 20l-44 44c-14 14 -21 32 -21 52v245c0 20 7 37 21 51l44 44c14 14 30 20 49 20h129c19 0 36 -7 50 -20l48 -49v260h85v-588zM404 177v122c0 5 -2 10 -6 14l-79 79c-4 4 -9 6 -14 6h-116
c-5 0 -11 -2 -14 -6l-20 -20c-4 -4 -7 -8 -7 -14v-237c0 -6 3 -13 6 -17l20 -20c4 -4 10 -6 14 -6h116c6 0 11 2 15 6l79 79c4 4 6 8 6 14z" />
    <glyph glyph-name="e" unicode="e" horiz-adv-x="553" 
d="M489 217h-341l1 -99c0 -6 2 -10 5 -14l20 -20c4 -4 9 -6 14 -6h176c5 0 10 2 14 6l54 55l56 -55l-63 -64c-14 -14 -30 -20 -49 -20h-199c-19 0 -35 6 -49 20l-44 44c-14 14 -21 31 -21 51v246c0 19 7 37 21 51l44 44c14 14 30 20 49 20h198c19 0 36 -6 49 -20l44 -44
c14 -14 21 -31 21 -51v-144zM404 293v65c0 5 -2 10 -6 14l-20 20c-4 4 -9 6 -14 6h-175c-6 0 -11 -2 -14 -6l-20 -20c-4 -4 -6 -9 -7 -14v-66z" />
    <glyph glyph-name="f" unicode="f" horiz-adv-x="383" 
d="M351 398h-158v-398h-86v398h-76v78h76v78c0 21 7 38 21 52l41 41c14 14 30 20 49 20h133v-78h-118c-5 0 -10 -2 -14 -6l-20 -20c-4 -4 -6 -11 -6 -16v-71h158v-78z" />
    <glyph glyph-name="g" unicode="g" horiz-adv-x="581" 
d="M506 476l-16 -79v-472c0 -20 -8 -38 -21 -51l-44 -44c-14 -14 -30 -21 -49 -21h-199c-20 0 -35 7 -49 20l-60 60l54 55l51 -51c4 -5 9 -7 14 -7h177c5 0 10 3 14 6l20 20c4 4 6 9 6 14v143l-48 -48c-14 -14 -31 -21 -49 -21h-130c-19 0 -35 6 -49 20l-44 44
c-14 14 -21 31 -21 51v245c0 20 7 38 21 52l44 44c14 14 30 20 49 20h129c19 0 36 -7 50 -20l53 -53l16 73h81zM404 177v122c0 5 -2 10 -6 14l-79 79c-4 4 -9 6 -14 6h-116c-5 0 -11 -2 -14 -6l-20 -20c-4 -4 -7 -10 -7 -16v-238c0 -6 3 -10 6 -14l20 -20c4 -4 10 -6 14 -6
h116c6 0 11 2 15 6l79 79c4 4 6 8 6 14z" />
    <glyph glyph-name="h" unicode="h" horiz-adv-x="584" 
d="M493 0h-86v358c0 6 -2 10 -6 14l-23 23c-4 4 -10 7 -14 7h-84c-5 0 -11 -3 -15 -6l-82 -83c-4 -4 -6 -8 -6 -14v-299h-86v667h85v-260l48 48c14 14 31 21 50 21h104c20 0 36 -6 49 -20l44 -44c14 -14 22 -31 22 -51v-361z" />
    <glyph glyph-name="i" unicode="i" horiz-adv-x="289" 
d="M204 572h-107v106h107v-106zM194 0h-85v398h-102v78h187v-476z" />
    <glyph glyph-name="j" unicode="j" horiz-adv-x="292" 
d="M207 572h-106v106h106v-106zM198 -78v1c0 -21 -7 -38 -21 -52l-41 -41c-14 -14 -30 -20 -49 -20h-134v78h120c5 0 10 2 14 6l20 20c4 4 6 11 6 16v468h-102v78h187v-554z" />
    <glyph glyph-name="k" unicode="k" horiz-adv-x="500" 
d="M493 0h-109l-207 221v-221h-86v667h86v-388l180 197h109l-212 -225z" />
    <glyph glyph-name="l" unicode="l" horiz-adv-x="278" 
d="M184 0h-86v589h-101v78h187v-667z" />
    <glyph glyph-name="m" unicode="m" horiz-adv-x="815" 
d="M724 0h-86v358c0 6 -2 10 -6 14l-23 23c-4 4 -10 7 -14 7h-42c-5 0 -11 -3 -14 -6l-83 -83c-4 -4 -6 -8 -6 -14v-299h-85v358c0 6 -3 10 -6 14l-24 23c-4 4 -9 7 -14 7h-41c-5 0 -11 -3 -15 -6l-82 -83c-4 -4 -6 -8 -6 -14v-299h-86v393l-20 83h83l17 -74l53 53
c14 14 31 21 50 21h62c19 0 35 -6 49 -20l57 -57l56 56c14 14 31 21 49 21h62c20 0 36 -6 49 -20l44 -44c14 -14 22 -31 22 -51v-361z" />
    <glyph glyph-name="n" unicode="n" horiz-adv-x="584" 
d="M493 0h-86v358c0 6 -2 10 -6 14l-23 23c-4 4 -10 7 -14 7h-84c-5 0 -11 -3 -15 -6l-82 -83c-4 -4 -6 -8 -6 -14v-299h-86v393l-20 83h83l17 -74l53 53c14 14 31 21 50 21h104c20 0 36 -6 49 -20l44 -44c14 -14 22 -31 22 -51v-361z" />
    <glyph glyph-name="o" unicode="o" horiz-adv-x="553" 
d="M490 117c0 -20 -7 -39 -21 -53l-44 -44c-14 -14 -30 -20 -49 -20h-199c-19 0 -35 6 -49 20l-44 44c-14 14 -21 31 -21 51v246c0 20 7 37 21 51l44 44c14 14 30 20 49 20h198c20 0 36 -6 49 -20l44 -44c14 -14 22 -31 22 -51v-244zM404 121v237c0 6 -2 10 -6 14l-20 20
c-4 4 -9 6 -14 6h-175c-5 0 -11 -2 -14 -6l-20 -20c-4 -4 -7 -8 -7 -14v-240c0 -6 3 -10 6 -14l20 -20c4 -4 10 -6 14 -6h176c5 0 10 2 14 6l20 20c4 4 6 10 6 17z" />
    <glyph glyph-name="p" unicode="p" horiz-adv-x="581" 
d="M518 115c0 -20 -7 -37 -21 -51l-44 -44c-14 -14 -30 -20 -49 -20h-130c-19 0 -36 7 -49 20l-48 49v-260h-86v588l-16 79h80l16 -73l53 52c14 14 31 21 50 21h129c19 0 36 -6 49 -20l44 -44c14 -14 22 -32 22 -52v-245zM432 118v237c0 6 -2 13 -6 17l-20 20
c-4 4 -9 6 -14 6h-116c-5 0 -11 -2 -14 -6l-79 -79c-4 -4 -7 -8 -7 -14v-122c0 -5 3 -10 6 -14l79 -79c4 -4 10 -6 15 -6h116c5 0 10 2 14 6l20 20c4 4 6 8 6 14z" />
    <glyph glyph-name="q" unicode="q" horiz-adv-x="581" 
d="M506 476l-16 -79v-588h-86v260l-48 -48c-14 -14 -31 -21 -49 -21h-130c-19 0 -35 6 -49 20l-44 44c-14 14 -21 31 -21 51v245c0 20 7 38 21 52l44 44c14 14 30 20 49 20h129c19 0 36 -7 50 -20l53 -53l16 73h81zM404 177v122c0 5 -2 10 -6 14l-79 79c-4 4 -9 6 -14 6
h-116c-5 0 -11 -2 -14 -6l-20 -20c-4 -4 -7 -10 -7 -16v-238c0 -6 3 -10 6 -14l20 -20c4 -4 10 -6 14 -6h116c6 0 11 2 15 6l79 79c4 4 6 8 6 14z" />
    <glyph glyph-name="r" unicode="r" horiz-adv-x="517" 
d="M468 287l-82 -1v72c0 6 -3 10 -6 14l-24 23c-4 4 -9 7 -14 7h-62c-5 0 -11 -3 -15 -6l-82 -83c-4 -4 -6 -8 -6 -14v-299h-86v393l-20 83h83l17 -74l53 53c14 14 31 21 50 21h79c20 0 36 -6 49 -20l44 -44c14 -14 22 -31 22 -51v-74z" />
    <glyph glyph-name="s" unicode="s" horiz-adv-x="525" 
d="M462 116c0 -21 -7 -38 -21 -52l-44 -44c-13 -13 -30 -20 -49 -20h-174c-19 0 -35 6 -49 20l-62 62l55 55l53 -53c4 -4 9 -6 14 -6h151c5 0 10 2 14 6l20 20c4 4 6 11 6 16v49c0 10 -8 19 -18 20l-232 29c-35 5 -63 34 -63 69v74c0 20 8 37 21 51l44 44c14 14 30 20 49 20
h174c19 0 36 -6 49 -20l62 -61l-55 -56l-53 53c-4 4 -9 6 -14 6h-151c-5 0 -10 -2 -14 -6l-20 -20c-4 -4 -6 -8 -6 -14v-46c0 -10 8 -19 18 -20l233 -30c34 -4 62 -34 62 -69v-77z" />
    <glyph glyph-name="t" unicode="t" horiz-adv-x="387" 
d="M352 0h-133c-19 0 -35 6 -49 20l-40 40c-15 15 -21 32 -21 52v286h-77v78h76v191h86v-191h158v-78h-158v-277c0 -6 2 -13 6 -17l20 -20c4 -4 9 -6 14 -6h118v-78z" />
    <glyph glyph-name="u" unicode="u" horiz-adv-x="584" 
d="M513 0h-83l-18 74l-53 -53c-14 -14 -31 -21 -49 -21h-105c-19 0 -35 6 -49 20l-44 44c-14 14 -21 31 -21 51v361h85v-358c0 -6 3 -10 6 -14l24 -23c4 -4 9 -7 14 -7h84c5 0 11 3 14 6l83 83c4 4 6 8 6 14v299h85v-393z" />
    <glyph glyph-name="v" unicode="v" horiz-adv-x="495" 
d="M460 476l-153 -476h-118l-154 476h88l125 -400l126 400h86z" />
    <glyph glyph-name="w" unicode="w" horiz-adv-x="796" 
d="M747 476l-123 -476h-121l-105 401l-103 -401h-121l-125 476h86l99 -399l98 399h133l99 -399l97 399h86z" />
    <glyph glyph-name="x" unicode="x" horiz-adv-x="469" 
d="M448 0h-100l-114 170l-115 -170h-98l167 238l-166 238h99l114 -169l114 169h99l-166 -237z" />
    <glyph glyph-name="y" unicode="y" horiz-adv-x="474" 
d="M446 476l-230 -666h-87l59 182l-167 484h89l124 -370l125 370h87z" />
    <glyph glyph-name="z" unicode="z" horiz-adv-x="474" 
d="M435 0h-397v63l283 335h-283v78h397v-63l-283 -335h283v-78z" />
    <glyph glyph-name="braceleft" unicode="{" horiz-adv-x="398" 
d="M363 -137l-55 -56l-111 111c-14 14 -21 31 -21 50v222c0 5 -3 10 -6 14l-48 48c-14 13 -27 32 -27 55c0 21 12 40 26 55l48 48c4 4 6 9 6 14v221c0 19 8 36 21 50l111 112l56 -56l-96 -96c-4 -4 -6 -9 -6 -14v-216c0 -19 -8 -36 -21 -50l-51 -50c-10 -11 -10 -25 0 -35
l50 -51c14 -14 21 -31 21 -50v-216c0 -5 3 -11 6 -14z" />
    <glyph glyph-name="bar" unicode="|" horiz-adv-x="304" 
d="M192 -191h-82v858h82v-858z" />
    <glyph glyph-name="braceright" unicode="}" horiz-adv-x="398" 
d="M303 307c0 -23 -13 -42 -26 -55l-48 -48c-4 -4 -6 -9 -6 -14v-222c0 -19 -8 -36 -21 -50l-111 -111l-56 56l96 95c4 4 6 10 6 14v217c0 19 8 36 21 50l51 50c10 11 10 25 0 35l-50 51c-14 14 -21 31 -21 50v216c0 5 -3 10 -6 14l-97 96l55 56l111 -112
c14 -14 21 -31 21 -50v-221c0 -5 3 -10 6 -14l48 -48c15 -15 27 -34 27 -55z" />
    <glyph glyph-name="asciitilde" unicode="~" 
d="M562 285l-154 -154c-5 -5 -17 -13 -33 -13s-29 8 -34 13l-107 107c-7 7 -15 7 -21 0l-114 -113l-54 53l146 146c5 5 18 12 33 12c16 0 28 -7 34 -13l107 -107c6 -6 14 -6 21 0l122 122z" />
    <glyph glyph-name="Adieresis" unicode="&#xc4;" horiz-adv-x="689" 
d="M498 757h-102v101h102v-101zM293 757h-101v101h101v-101zM654 0h-93l-68 179h-299l-68 -179h-91l250 667h120zM460 263l-116 322l-118 -322h234z" />
    <glyph glyph-name="Aring" unicode="&#xc5;" horiz-adv-x="683" 
d="M648 0h-96l-64 179h-295l-64 -179h-94l222 594c-12 6 -32 24 -32 56v90c0 38 30 68 68 68h94c38 0 69 -30 69 -68v-89c0 -31 -19 -49 -28 -55zM392 659l1 71c0 10 -9 20 -20 20h-65c-11 0 -20 -9 -20 -20v-71c0 -11 9 -20 19 -20h66c10 0 19 9 19 20zM458 262l-104 292
c-2 7 -6 14 -13 13c-8 0 -11 -6 -14 -13l-104 -292h235z" />
    <glyph glyph-name="Ccedilla" unicode="&#xc7;" horiz-adv-x="632" 
d="M583 115l-94 -94c-14 -14 -31 -21 -50 -21h-90l88 -88l-100 -100l-45 46l54 54l-55 55l33 33h-80c-19 0 -36 7 -50 21l-82 82c-14 14 -21 31 -21 50v361c0 19 7 36 21 50l82 82c14 14 31 21 50 21h195c19 0 36 -7 50 -21l94 -94l-62 -62l-83 83c-4 4 -8 6 -14 6h-165
c-6 0 -10 -2 -14 -6l-57 -57c-4 -4 -6 -9 -6 -14v-337c0 -5 2 -10 6 -14l57 -57c4 -4 8 -6 14 -6h165c6 0 10 2 14 6l82 83z" />
    <glyph glyph-name="Eacute" unicode="&#xc9;" horiz-adv-x="641" 
d="M464 872l-146 -146h-95l146 146h95zM550 0h-431v667h431v-88h-340v-201h340v-88h-340v-202h340v-88z" />
    <glyph glyph-name="Ntilde" unicode="&#xd1;" horiz-adv-x="730" 
d="M560 801l-90 -59c-12 -8 -25 -13 -38 -13c-15 0 -30 6 -42 14l-86 58c-5 4 -11 4 -16 0l-82 -56l-36 51l88 58c12 9 25 14 39 14s29 -6 41 -15l81 -56c6 -3 12 -3 17 0l90 59zM611 0h-136l-266 563v-563h-90v667h136l266 -563v563h90v-667z" />
    <glyph glyph-name="Odieresis" unicode="&#xd6;" horiz-adv-x="735" 
d="M520 757h-101v101h101v-101zM316 757h-102v101h102v-101zM644 153c0 -19 -8 -36 -21 -50l-82 -82c-14 -14 -32 -21 -50 -21h-247c-19 0 -36 7 -50 21l-82 82c-14 14 -21 31 -21 50v361c0 19 7 36 21 50l82 82c14 14 31 21 50 21h246c19 0 37 -7 50 -21l82 -82
c14 -14 22 -31 22 -50v-361zM552 165l1 337c0 5 -3 10 -6 14l-57 57c-4 4 -9 6 -14 6h-217c-6 0 -10 -2 -14 -6l-57 -57c-4 -4 -6 -9 -6 -14v-337c0 -5 2 -10 6 -14l57 -57c4 -4 8 -6 14 -6h216c6 0 11 2 14 6l57 57c4 4 6 9 6 14z" />
    <glyph glyph-name="Udieresis" unicode="&#xdc;" horiz-adv-x="702" 
d="M504 757h-101v101h101v-101zM300 757h-102v101h102v-101zM597 153c0 -19 -8 -36 -21 -50l-82 -82c-14 -14 -32 -21 -50 -21h-186c-19 0 -36 7 -50 21l-82 82c-14 14 -21 31 -21 50v514h91v-502c0 -5 2 -10 6 -14l57 -57c4 -4 8 -6 14 -6h155c6 0 11 2 14 6l57 57
c4 4 6 9 6 14v502h92v-514z" />
    <glyph glyph-name="aacute" unicode="&#xe1;" horiz-adv-x="574" 
d="M424 667l-146 -146h-95l146 146h95zM520 56l-56 -56l-53 53l-33 -33c-14 -13 -30 -20 -49 -20h-166c-19 0 -35 6 -49 20l-44 44c-14 14 -21 31 -21 51v78c0 20 7 37 21 51l39 39c14 14 31 21 50 21h231v54c0 5 -2 10 -6 14l-20 20c-4 4 -9 6 -14 6h-180
c-6 0 -11 -2 -14 -6l-37 -37l-53 53l48 48c14 14 29 20 49 20h198c20 0 36 -7 49 -20l44 -44c14 -14 21 -32 21 -51v-253c0 -6 3 -10 6 -14zM390 151v79h-215c-6 0 -11 -3 -14 -6l-20 -20c-4 -4 -7 -9 -7 -14v-72c0 -6 3 -10 6 -14l20 -20c4 -4 10 -6 14 -6h143
c5 0 11 2 14 6l53 52c4 4 6 8 6 15z" />
    <glyph glyph-name="agrave" unicode="&#xe0;" horiz-adv-x="574" 
d="M369 521h-92l-147 146h92zM520 56l-56 -56l-53 53l-33 -33c-14 -13 -30 -20 -49 -20h-166c-19 0 -35 6 -49 20l-44 44c-14 14 -21 31 -21 51v78c0 20 7 37 21 51l39 39c14 14 31 21 50 21h231v54c0 5 -2 10 -6 14l-20 20c-4 4 -9 6 -14 6h-180c-6 0 -11 -2 -14 -6
l-37 -37l-53 53l48 48c14 14 29 20 49 20h198c20 0 36 -7 49 -20l44 -44c14 -14 21 -32 21 -51v-253c0 -6 3 -10 6 -14zM390 151v79h-215c-6 0 -11 -3 -14 -6l-20 -20c-4 -4 -7 -9 -7 -14v-72c0 -6 3 -10 6 -14l20 -20c4 -4 10 -6 14 -6h143c5 0 11 2 14 6l53 52
c4 4 6 8 6 15z" />
    <glyph glyph-name="acircumflex" unicode="&#xe2;" horiz-adv-x="574" 
d="M460 535h-90l-96 96l-95 -96h-91l132 132h108zM520 56l-56 -56l-53 53l-33 -33c-14 -13 -30 -20 -49 -20h-166c-19 0 -35 6 -49 20l-44 44c-14 14 -21 31 -21 51v78c0 20 7 37 21 51l39 39c14 14 31 21 50 21h231v54c0 5 -2 10 -6 14l-20 20c-4 4 -9 6 -14 6h-180
c-6 0 -11 -2 -14 -6l-37 -37l-53 53l48 48c14 14 29 20 49 20h198c20 0 36 -7 49 -20l44 -44c14 -14 21 -32 21 -51v-253c0 -6 3 -10 6 -14zM390 151v79h-215c-6 0 -11 -3 -14 -6l-20 -20c-4 -4 -7 -9 -7 -14v-72c0 -6 3 -10 6 -14l20 -20c4 -4 10 -6 14 -6h143
c5 0 11 2 14 6l53 52c4 4 6 8 6 15z" />
    <glyph glyph-name="adieresis" unicode="&#xe4;" horiz-adv-x="574" 
d="M426 575l-102 -1v102h102v-101zM221 574h-101v102h101v-102zM520 56l-56 -56l-53 53l-33 -33c-14 -13 -30 -20 -49 -20h-166c-19 0 -35 6 -49 20l-44 44c-14 14 -21 31 -21 51v78c0 20 7 37 21 51l39 39c14 14 31 21 50 21h231v54c0 5 -2 10 -6 14l-20 20
c-4 4 -9 6 -14 6h-180c-6 0 -11 -2 -14 -6l-37 -37l-53 53l48 48c14 14 29 20 49 20h198c20 0 36 -7 49 -20l44 -44c14 -14 21 -32 21 -51v-253c0 -6 3 -10 6 -14zM390 151v79h-215c-6 0 -11 -3 -14 -6l-20 -20c-4 -4 -7 -9 -7 -14v-72c0 -6 3 -10 6 -14l20 -20
c4 -4 10 -6 14 -6h143c5 0 11 2 14 6l53 52c4 4 6 8 6 15z" />
    <glyph glyph-name="atilde" unicode="&#xe3;" horiz-adv-x="574" 
d="M474 613l-89 -59c-13 -9 -25 -14 -39 -14c-15 0 -29 6 -41 14l-86 58c-6 4 -12 4 -17 1l-81 -56l-37 50l88 59c13 8 25 13 39 13c15 0 29 -6 41 -14l82 -56c5 -4 11 -3 16 0l90 58zM520 56l-56 -56l-53 53l-33 -33c-14 -13 -30 -20 -49 -20h-166c-19 0 -35 6 -49 20
l-44 44c-14 14 -21 31 -21 51v78c0 20 7 37 21 51l39 39c14 14 31 21 50 21h231v54c0 5 -2 10 -6 14l-20 20c-4 4 -9 6 -14 6h-180c-6 0 -11 -2 -14 -6l-37 -37l-53 53l48 48c14 14 29 20 49 20h198c20 0 36 -7 49 -20l44 -44c14 -14 21 -32 21 -51v-253c0 -6 3 -10 6 -14z
M390 151v79h-215c-6 0 -11 -3 -14 -6l-20 -20c-4 -4 -7 -9 -7 -14v-72c0 -6 3 -10 6 -14l20 -20c4 -4 10 -6 14 -6h143c5 0 11 2 14 6l53 52c4 4 6 8 6 15z" />
    <glyph glyph-name="aring" unicode="&#xe5;" horiz-adv-x="574" 
d="M520 56l-56 -56l-53 53l-33 -33c-14 -13 -30 -20 -49 -20h-166c-19 0 -35 6 -49 20l-44 44c-14 14 -21 31 -21 51v78c0 20 7 37 21 51l39 39c14 14 31 21 50 21h231v54c0 5 -2 10 -6 14l-20 20c-4 4 -9 6 -14 6h-180c-6 0 -11 -2 -14 -6l-37 -37l-53 53l48 48
c19 19 39 19 39 19s0 -1 0 98c0 37 29 66 66 66h85c37 0 67 -29 67 -66c0 -99 0 -98 0 -98s21 -1 39 -19l44 -44c14 -14 21 -32 21 -51v-253c0 -6 3 -10 6 -14zM309 495l1 67c0 10 -9 19 -19 19h-57c-10 0 -20 -9 -20 -19v-67c0 -10 10 -19 19 -19h57c10 0 19 9 19 19z
M390 150v80h-215c-6 0 -11 -3 -14 -6l-20 -20c-4 -4 -7 -9 -7 -14v-72c0 -6 3 -10 6 -14l20 -20c4 -4 10 -6 14 -6h143c5 0 11 2 14 6l53 52c4 4 6 8 6 14z" />
    <glyph glyph-name="ccedilla" unicode="&#xe7;" horiz-adv-x="516" 
d="M481 84l-63 -64c-14 -14 -30 -20 -49 -20h-93l88 -88l-100 -100l-43 44l56 56l-57 57l31 31h-74c-19 0 -35 6 -49 20l-44 44c-14 14 -21 31 -21 51v246c0 19 7 37 21 51l44 44c14 14 30 20 49 20h191c20 0 36 -6 49 -20l64 -63l-55 -56l-55 55c-4 4 -9 6 -14 6h-168
c-6 0 -11 -2 -14 -6l-20 -20c-4 -4 -7 -9 -7 -14v-240c0 -5 3 -10 6 -14l20 -20c4 -4 9 -6 14 -6h169c5 0 10 2 14 6l54 55z" />
    <glyph glyph-name="eacute" unicode="&#xe9;" horiz-adv-x="553" 
d="M436 667l-146 -146h-94l146 146h94zM489 217h-341l1 -99c0 -6 2 -10 5 -14l20 -20c4 -4 9 -6 14 -6h176c5 0 10 2 14 6l54 55l56 -55l-63 -64c-14 -14 -30 -20 -49 -20h-199c-19 0 -35 6 -49 20l-44 44c-14 14 -21 31 -21 51v246c0 19 7 37 21 51l44 44
c14 14 30 20 49 20h198c19 0 36 -6 49 -20l44 -44c14 -14 21 -31 21 -51v-144zM404 293v65c0 5 -2 10 -6 14l-20 20c-4 4 -9 6 -14 6h-175c-6 0 -11 -2 -14 -6l-20 -20c-4 -4 -6 -9 -7 -14v-66z" />
    <glyph glyph-name="egrave" unicode="&#xe8;" horiz-adv-x="553" 
d="M368 521h-92l-146 146h92zM489 217h-341l1 -99c0 -6 2 -10 5 -14l20 -20c4 -4 9 -6 14 -6h176c5 0 10 2 14 6l54 55l56 -55l-63 -64c-14 -14 -30 -20 -49 -20h-199c-19 0 -35 6 -49 20l-44 44c-14 14 -21 31 -21 51v246c0 19 7 37 21 51l44 44c14 14 30 20 49 20h198
c19 0 36 -6 49 -20l44 -44c14 -14 21 -31 21 -51v-144zM404 293v65c0 5 -2 10 -6 14l-20 20c-4 4 -9 6 -14 6h-175c-6 0 -11 -2 -14 -6l-20 -20c-4 -4 -6 -9 -7 -14v-66z" />
    <glyph glyph-name="ecircumflex" unicode="&#xea;" horiz-adv-x="553" 
d="M462 535h-90l-96 96l-95 -96h-91l132 132h108zM489 217h-341l1 -99c0 -6 2 -10 5 -14l20 -20c4 -4 9 -6 14 -6h176c5 0 10 2 14 6l54 55l56 -55l-63 -64c-14 -14 -30 -20 -49 -20h-199c-19 0 -35 6 -49 20l-44 44c-14 14 -21 31 -21 51v246c0 19 7 37 21 51l44 44
c14 14 30 20 49 20h198c19 0 36 -6 49 -20l44 -44c14 -14 21 -31 21 -51v-144zM404 293v65c0 5 -2 10 -6 14l-20 20c-4 4 -9 6 -14 6h-175c-6 0 -11 -2 -14 -6l-20 -20c-4 -4 -6 -9 -7 -14v-66z" />
    <glyph glyph-name="edieresis" unicode="&#xeb;" horiz-adv-x="553" 
d="M427 575l-102 -1v102h102v-101zM222 574h-102v102h102v-102zM489 217h-341l1 -99c0 -6 2 -10 5 -14l20 -20c4 -4 9 -6 14 -6h176c5 0 10 2 14 6l54 55l56 -55l-63 -64c-14 -14 -30 -20 -49 -20h-199c-19 0 -35 6 -49 20l-44 44c-14 14 -21 31 -21 51v246c0 19 7 37 21 51
l44 44c14 14 30 20 49 20h198c19 0 36 -6 49 -20l44 -44c14 -14 21 -31 21 -51v-144zM404 293v65c0 5 -2 10 -6 14l-20 20c-4 4 -9 6 -14 6h-175c-6 0 -11 -2 -14 -6l-20 -20c-4 -4 -6 -9 -7 -14v-66z" />
    <glyph glyph-name="iacute" unicode="&#xed;" horiz-adv-x="289" 
d="M231 667l-146 -146h-94l146 146h94zM194 0h-85v398h-102v78h187v-476z" />
    <glyph glyph-name="igrave" unicode="&#xec;" horiz-adv-x="289" 
d="M208 521h-92l-146 146h92zM194 0h-85v398h-102v78h187v-476z" />
    <glyph glyph-name="icircumflex" unicode="&#xee;" horiz-adv-x="289" 
d="M319 535h-90l-96 96l-95 -96h-91l132 132h108zM194 0h-85v398h-102v78h187v-476z" />
    <glyph glyph-name="idieresis" unicode="&#xef;" horiz-adv-x="289" 
d="M282 575l-102 -1v102h102v-101zM77 574h-101v102h101v-102zM194 0h-85v398h-102v78h187v-476z" />
    <glyph glyph-name="ntilde" unicode="&#xf1;" horiz-adv-x="584" 
d="M484 613l-90 -59c-12 -9 -25 -14 -38 -14c-15 0 -30 6 -42 14l-86 58c-5 4 -11 4 -16 1l-82 -56l-36 50l88 59c12 8 25 13 39 13s29 -6 41 -14l81 -56c6 -4 12 -3 17 0l90 58zM493 0h-86v358c0 6 -2 10 -6 14l-23 23c-4 4 -10 7 -14 7h-84c-5 0 -11 -3 -15 -6l-82 -83
c-4 -4 -6 -8 -6 -14v-299h-86v393l-20 83h83l17 -74l53 53c14 14 31 21 50 21h104c20 0 36 -6 49 -20l44 -44c14 -14 22 -31 22 -51v-361z" />
    <glyph glyph-name="oacute" unicode="&#xf3;" horiz-adv-x="553" 
d="M431 667l-146 -146h-95l146 146h95zM490 117c0 -20 -7 -39 -21 -53l-44 -44c-14 -14 -30 -20 -49 -20h-199c-19 0 -35 6 -49 20l-44 44c-14 14 -21 31 -21 51v246c0 20 7 37 21 51l44 44c14 14 30 20 49 20h198c20 0 36 -6 49 -20l44 -44c14 -14 22 -31 22 -51v-244z
M404 121v237c0 6 -2 10 -6 14l-20 20c-4 4 -9 6 -14 6h-175c-5 0 -11 -2 -14 -6l-20 -20c-4 -4 -7 -8 -7 -14v-240c0 -6 3 -10 6 -14l20 -20c4 -4 10 -6 14 -6h176c5 0 10 2 14 6l20 20c4 4 6 10 6 17z" />
    <glyph glyph-name="ograve" unicode="&#xf2;" horiz-adv-x="553" 
d="M360 521h-92l-147 146h92zM490 117c0 -20 -7 -39 -21 -53l-44 -44c-14 -14 -30 -20 -49 -20h-199c-19 0 -35 6 -49 20l-44 44c-14 14 -21 31 -21 51v246c0 20 7 37 21 51l44 44c14 14 30 20 49 20h198c20 0 36 -6 49 -20l44 -44c14 -14 22 -31 22 -51v-244zM404 121v237
c0 6 -2 10 -6 14l-20 20c-4 4 -9 6 -14 6h-175c-5 0 -11 -2 -14 -6l-20 -20c-4 -4 -7 -8 -7 -14v-240c0 -6 3 -10 6 -14l20 -20c4 -4 10 -6 14 -6h176c5 0 10 2 14 6l20 20c4 4 6 10 6 17z" />
    <glyph glyph-name="ocircumflex" unicode="&#xf4;" horiz-adv-x="553" 
d="M462 535h-90l-96 96l-95 -96h-91l132 132h108zM490 117c0 -20 -7 -39 -21 -53l-44 -44c-14 -14 -30 -20 -49 -20h-199c-19 0 -35 6 -49 20l-44 44c-14 14 -21 31 -21 51v246c0 20 7 37 21 51l44 44c14 14 30 20 49 20h198c20 0 36 -6 49 -20l44 -44c14 -14 22 -31 22 -51
v-244zM404 121v237c0 6 -2 10 -6 14l-20 20c-4 4 -9 6 -14 6h-175c-5 0 -11 -2 -14 -6l-20 -20c-4 -4 -7 -8 -7 -14v-240c0 -6 3 -10 6 -14l20 -20c4 -4 10 -6 14 -6h176c5 0 10 2 14 6l20 20c4 4 6 10 6 17z" />
    <glyph glyph-name="odieresis" unicode="&#xf6;" horiz-adv-x="553" 
d="M429 575l-102 -1v102h102v-101zM224 574h-101v102h101v-102zM490 117c0 -20 -7 -39 -21 -53l-44 -44c-14 -14 -30 -20 -49 -20h-199c-19 0 -35 6 -49 20l-44 44c-14 14 -21 31 -21 51v246c0 20 7 37 21 51l44 44c14 14 30 20 49 20h198c20 0 36 -6 49 -20l44 -44
c14 -14 22 -31 22 -51v-244zM404 121v237c0 6 -2 10 -6 14l-20 20c-4 4 -9 6 -14 6h-175c-5 0 -11 -2 -14 -6l-20 -20c-4 -4 -7 -8 -7 -14v-240c0 -6 3 -10 6 -14l20 -20c4 -4 10 -6 14 -6h176c5 0 10 2 14 6l20 20c4 4 6 10 6 17z" />
    <glyph glyph-name="otilde" unicode="&#xf5;" horiz-adv-x="553" 
d="M471 613l-89 -59c-13 -9 -25 -14 -39 -14c-15 0 -29 6 -41 14l-86 58c-6 4 -12 4 -17 1l-81 -56l-37 50l88 59c13 8 25 13 39 13c15 0 29 -6 41 -14l82 -56c5 -4 11 -3 16 0l90 58zM490 117c0 -20 -7 -39 -21 -53l-44 -44c-14 -14 -30 -20 -49 -20h-199
c-19 0 -35 6 -49 20l-44 44c-14 14 -21 31 -21 51v246c0 20 7 37 21 51l44 44c14 14 30 20 49 20h198c20 0 36 -6 49 -20l44 -44c14 -14 22 -31 22 -51v-244zM404 121v237c0 6 -2 10 -6 14l-20 20c-4 4 -9 6 -14 6h-175c-5 0 -11 -2 -14 -6l-20 -20c-4 -4 -7 -8 -7 -14v-240
c0 -6 3 -10 6 -14l20 -20c4 -4 10 -6 14 -6h176c5 0 10 2 14 6l20 20c4 4 6 10 6 17z" />
    <glyph glyph-name="uacute" unicode="&#xfa;" horiz-adv-x="584" 
d="M445 667l-146 -146h-95l146 146h95zM513 0h-83l-18 74l-53 -53c-14 -14 -31 -21 -49 -21h-105c-19 0 -35 6 -49 20l-44 44c-14 14 -21 31 -21 51v361h85v-358c0 -6 3 -10 6 -14l24 -23c4 -4 9 -7 14 -7h84c5 0 11 3 14 6l83 83c4 4 6 8 6 14v299h85v-393z" />
    <glyph glyph-name="ugrave" unicode="&#xf9;" horiz-adv-x="584" 
d="M384 521h-92l-147 146h92zM513 0h-83l-18 74l-53 -53c-14 -14 -31 -21 -49 -21h-105c-19 0 -35 6 -49 20l-44 44c-14 14 -21 31 -21 51v361h85v-358c0 -6 3 -10 6 -14l24 -23c4 -4 9 -7 14 -7h84c5 0 11 3 14 6l83 83c4 4 6 8 6 14v299h85v-393z" />
    <glyph glyph-name="ucircumflex" unicode="&#xfb;" horiz-adv-x="584" 
d="M478 535h-90l-96 96l-95 -96h-91l132 132h108zM513 0h-83l-18 74l-53 -53c-14 -14 -31 -21 -49 -21h-105c-19 0 -35 6 -49 20l-44 44c-14 14 -21 31 -21 51v361h85v-358c0 -6 3 -10 6 -14l24 -23c4 -4 9 -7 14 -7h84c5 0 11 3 14 6l83 83c4 4 6 8 6 14v299h85v-393z" />
    <glyph glyph-name="udieresis" unicode="&#xfc;" horiz-adv-x="584" 
d="M445 575l-102 -1v102h102v-101zM240 574h-102v102h102v-102zM513 0h-83l-18 74l-53 -53c-14 -14 -31 -21 -49 -21h-105c-19 0 -35 6 -49 20l-44 44c-14 14 -21 31 -21 51v361h85v-358c0 -6 3 -10 6 -14l24 -23c4 -4 9 -7 14 -7h84c5 0 11 3 14 6l83 83c4 4 6 8 6 14v299
h85v-393z" />
    <glyph glyph-name="dagger" unicode="&#x2020;" 
d="M492 400h-146v-491h-85v491h-146v78h146v191h85v-191h146v-78z" />
    <glyph glyph-name="degree" unicode="&#xb0;" 
d="M441 464c0 -18 -3 -41 -17 -56c-17 -16 -42 -17 -56 -17h-129c-14 0 -39 1 -55 17c-15 15 -18 38 -18 56v130c0 18 3 41 18 56c16 16 41 17 55 17h129c14 0 39 -1 56 -17c14 -15 17 -38 17 -56v-130zM378 475v108c0 19 -9 25 -24 25h-100c-16 0 -25 -6 -25 -25v-108
c0 -19 9 -25 25 -25h100c15 0 24 6 24 25z" />
    <glyph glyph-name="cent" unicode="&#xa2;" 
d="M513 84l-63 -64c-14 -14 -30 -20 -49 -20h-70v-96h-52v96h-70c-19 0 -35 6 -49 20l-44 44c-14 14 -21 31 -21 51v246c0 19 7 37 21 51l44 44c14 14 30 20 49 20h70v99h52v-99h69c20 0 36 -6 49 -20l64 -63l-55 -56l-55 55c-4 4 -9 6 -14 6h-58v-320h58c5 0 10 2 14 6
l54 55zM279 78v320h-58c-6 0 -11 -2 -14 -6l-20 -20c-4 -4 -7 -9 -7 -14v-240c0 -5 3 -10 6 -14l20 -20c4 -4 9 -6 14 -6h59z" />
    <glyph glyph-name="sterling" unicode="&#xa3;" 
d="M566 580l-56 -56l-59 59c-4 4 -10 6 -15 6h-172c-6 0 -12 -2 -15 -6l-24 -24c-4 -4 -6 -9 -6 -14v-173h288v-78h-288v-216h343v-78h-485v78h57v216h-57v78h57v178c0 19 6 35 19 48l47 47c14 14 31 22 51 22h198c19 0 37 -8 50 -21z" />
    <glyph glyph-name="section" unicode="&#xa7;" 
d="M490 580l-55 -55l-58 58c-4 4 -10 6 -15 6h-118c-6 0 -11 -2 -15 -6l-21 -21c-4 -4 -5 -9 -5 -14v-62c0 -6 3 -13 8 -16l278 -174l-41 -67l-303 191c-21 13 -28 33 -28 55v77c0 19 7 36 20 49l44 44c14 14 31 22 51 22h141c19 0 36 -7 49 -20zM490 20
c0 -19 -7 -36 -20 -49l-44 -44c-14 -14 -31 -22 -51 -22h-141c-19 0 -36 7 -49 21l-68 66l55 55l58 -58c4 -4 10 -6 15 -6h118c6 0 11 2 15 6l21 21c4 4 5 9 5 14v63c0 5 -3 12 -8 15l-278 174l41 67l303 -191c21 -13 28 -33 28 -55v-77z" />
    <glyph glyph-name="bullet" unicode="&#x2022;" horiz-adv-x="500" 
d="M334 250h-168v168h168v-168z" />
    <glyph glyph-name="paragraph" unicode="&#xb6;" horiz-adv-x="629" 
d="M510 0h-81v589h-77v-589h-82v307h-101c-20 0 -37 8 -51 22l-52 52c-13 13 -17 29 -17 48v116c0 19 4 35 17 48l52 52c14 14 31 22 51 22h341v-667zM270 385v204h-89c-6 0 -11 -2 -15 -6l-30 -30c-4 -4 -6 -10 -6 -14v-103c0 -5 2 -11 5 -14l31 -31c4 -4 9 -6 15 -6h89z
" />
    <glyph glyph-name="germandbls" unicode="&#xdf;" horiz-adv-x="565" 
d="M502 115c0 -19 -7 -36 -21 -50l-44 -44c-14 -14 -31 -21 -50 -21h-168v78h154c6 0 11 2 14 6l23 22c4 4 6 9 6 14v155c0 6 -2 11 -6 14l-18 19c-4 4 -9 6 -14 6h-131v78h130c5 0 10 2 14 5l19 19c4 4 6 9 6 15v116c0 6 -2 11 -5 14l-22 22c-4 4 -10 6 -14 6h-171
c-5 0 -11 -2 -14 -6l-22 -21c-4 -4 -5 -8 -5 -14v-738h-86v741c0 19 6 36 20 49l45 46c14 14 31 21 50 21h194c19 0 37 -8 50 -21l45 -45c14 -14 21 -30 21 -50v-119c0 -20 -8 -38 -21 -51l-28 -28l28 -28c14 -14 21 -30 21 -49v-161z" />
    <glyph glyph-name="registered" unicode="&#xae;" horiz-adv-x="544" 
d="M502 460c0 -127 -103 -230 -230 -230s-230 103 -230 230s103 230 230 230s230 -103 230 -230zM453 460c0 100 -81 183 -181 183s-181 -83 -181 -183s81 -183 181 -183s181 83 181 183zM376 330h-47l-70 104c-2 3 -5 5 -9 5h-22v-109l-40 1v259h124c13 0 24 -5 33 -14
l18 -18c9 -9 11 -19 11 -31v-25c0 -12 -2 -22 -11 -31l-18 -18c-9 -9 -19 -14 -29 -14h-15zM334 500v29c0 3 -2 7 -3 8l-13 13c-1 1 -7 4 -9 4h-81v-79h81c4 0 7 2 9 4l13 13c1 1 3 6 3 8z" />
    <glyph glyph-name="copyright" unicode="&#xa9;" horiz-adv-x="826" 
d="M770 333c0 -197 -160 -357 -357 -357s-357 160 -357 357s160 357 357 357s357 -160 357 -357zM695 333c0 156 -126 284 -282 284s-282 -128 -282 -284s126 -284 282 -284s282 128 282 284zM566 206l-61 -61c-10 -10 -21 -14 -34 -14h-120c-13 0 -24 4 -34 14l-56 56
c-10 9 -14 21 -14 34v198c0 12 4 24 14 34l56 55c10 10 21 15 34 15h120c13 0 24 -5 34 -15l61 -61l-45 -45l-49 50c-3 2 -5 4 -10 4h-102c-5 0 -7 -2 -10 -4l-32 -33c-3 -3 -4 -7 -4 -10v-179c0 -3 1 -7 4 -10l32 -32c3 -3 5 -4 10 -4h102c5 0 7 1 10 4l49 49z" />
    <glyph glyph-name="trademark" unicode="&#x2122;" horiz-adv-x="954" 
d="M835 234h-66v345l-114 -345h-77l-114 345v-345h-66v433h102l117 -355l116 355h102v-433zM346 603h-134v-369h-68v369h-134v64h336v-64z" />
    <glyph glyph-name="acute" unicode="&#xb4;" horiz-adv-x="465" 
d="M356 667l-146 -146h-94l146 146h94z" />
    <glyph glyph-name="dieresis" unicode="&#xa8;" horiz-adv-x="465" 
d="M386 575l-102 -1v102h102v-101zM181 574h-102v102h102v-102z" />
    <glyph glyph-name="notequal" unicode="&#x2260;" 
d="M542 103l-339 -1l-102 -102l-36 35l68 68l-67 -1v76h144l121 121h-265v76h341l100 101l35 -34l-67 -66h67v-76h-143l-120 -122l263 1v-76z" />
    <glyph glyph-name="AE" unicode="&#xc6;" horiz-adv-x="878" 
d="M787 0h-356v290h-235v-290h-91v514c0 20 8 37 21 51l82 81c14 14 30 21 49 21h530v-88h-265v-201h265v-88h-265v-202h265v-88zM431 378v201h-159c-5 0 -10 -2 -14 -6l-56 -56c-4 -4 -6 -9 -6 -14v-125h235z" />
    <glyph glyph-name="Oslash" unicode="&#xd8;" horiz-adv-x="735" 
d="M644 153c0 -19 -8 -36 -21 -50l-82 -82c-14 -14 -32 -21 -50 -21h-173l-33 -139l-56 14l30 125h-15c-19 0 -36 7 -50 21l-82 82c-14 14 -21 31 -21 50v361c0 19 7 36 21 50l82 82c14 14 31 21 50 21h175l34 141l55 -13l-31 -128h13c19 0 37 -7 50 -21l82 -82
c14 -14 22 -31 22 -50v-361zM552 165l1 337c0 5 -3 10 -6 14l-57 57c-4 4 -9 6 -14 6h-20l-117 -491h136c6 0 11 2 14 6l57 57c4 4 6 9 6 14zM397 579h-138c-6 0 -10 -2 -14 -6l-57 -57c-4 -4 -6 -9 -6 -14v-337c0 -5 2 -10 6 -14l57 -57c4 -4 8 -6 14 -6h21z" />
    <glyph glyph-name="arrowup" unicode="&#x2191;" horiz-adv-x="807" 
d="M643 427l-52 -52l-154 158l3 -258c1 -20 -7 -35 -20 -48l-226 -227l-53 52l220 220c4 4 5 8 6 14l3 246l-153 -157l-53 52l240 240z" />
    <glyph glyph-name="plusminus" unicode="&#xb1;" 
d="M542 228h-200v-172h-76v172h-201v76h200v172h76v-172h201v-76zM542 -76h-477v76h477v-76z" />
    <glyph glyph-name="lessequal" unicode="&#x2264;" 
d="M433 110l-57 -56l-211 212l211 211l57 -55l-156 -156zM468 -76h-329v76h329v-76z" />
    <glyph glyph-name="greaterequal" unicode="&#x2265;" 
d="M442 266l-211 -212l-57 56l156 156l-156 156l57 55zM468 -76h-329v76h329v-76z" />
    <glyph glyph-name="yen" unicode="&#xa5;" 
d="M572 667l-154 -245h99v-50h-130l-40 -62v-13h170v-50h-170v-247h-87v247h-170v50h170v13l-40 62h-130v50h99l-154 245h99l169 -275l170 275h99z" />
    <glyph glyph-name="mu" unicode="&#xb5;" 
d="M525 0h-83l-18 74l-53 -53c-14 -14 -31 -21 -49 -21h-62c-9 0 -32 3 -39 10l-32 33v-234h-86v667h85v-341c0 -6 3 -10 6 -14l41 -40c4 -4 10 -7 14 -7h67c5 0 11 3 14 6l83 83c4 4 6 8 6 14v299h85v-393z" />
    <glyph glyph-name="uni2197" unicode="&#x2197;" horiz-adv-x="807" 
d="M737 328h-74l3 220l-227 -231c-14 -15 -30 -20 -49 -20l-320 -1v75h310c6 0 10 2 14 6l223 219l-219 -3v74h339v-339z" />
    <glyph glyph-name="uni2196" unicode="&#x2196;" horiz-adv-x="807" 
d="M737 296l-320 1c-19 0 -35 5 -49 20l-227 231l3 -220h-74v339h339v-74l-219 3l223 -219c4 -4 8 -6 14 -6h310v-75z" />
    <glyph glyph-name="uni2198" unicode="&#x2198;" horiz-adv-x="807" 
d="M737 0h-339v74l219 -3l-223 219c-4 4 -8 6 -14 6h-310v74h320c19 0 35 -5 49 -20l227 -231l-3 220h74v-339z" />
    <glyph glyph-name="ordfeminine" unicode="&#xaa;" horiz-adv-x="386" 
d="M354 372l-38 -38l-34 34l-20 -20c-9 -10 -20 -14 -36 -14h-126c-13 0 -26 4 -36 14l-31 32c-11 10 -16 23 -16 37v47c0 14 5 27 16 37l31 32c10 10 23 14 36 14h167v36c0 4 -1 8 -4 11l-11 11c-3 3 -7 4 -10 4h-139c-4 0 -7 -1 -10 -4l-22 -22l-38 38l32 32
c9 10 22 14 36 14h143c13 0 26 -4 36 -14l31 -32c11 -10 15 -23 15 -37l1 -179c0 -5 1 -8 4 -10zM267 428v61h-163c-4 0 -9 -1 -11 -4l-12 -11c-3 -3 -4 -4 -4 -8v-47c0 -5 1 -9 4 -11l12 -12c2 -3 7 -4 11 -4h127c4 0 8 1 10 4l22 22c3 2 4 6 4 10z" />
    <glyph glyph-name="ordmasculine" unicode="&#xba;" horiz-adv-x="386" 
d="M347 417c0 -14 -4 -27 -15 -37l-31 -32c-10 -10 -23 -14 -36 -14h-144c-13 0 -26 4 -36 14l-31 32c-11 10 -16 23 -16 37v167c0 14 5 27 16 37l31 32c10 10 23 14 36 14h144c13 0 26 -4 36 -14l31 -32c11 -10 15 -23 15 -37v-167zM288 419v164c0 4 -1 8 -4 11l-11 11
c-3 3 -7 4 -10 4h-138c-4 0 -9 -1 -11 -4l-12 -11c-3 -3 -4 -7 -4 -11v-164c0 -5 1 -9 4 -11l12 -12c2 -3 7 -4 11 -4h138c3 0 7 1 10 4l11 12c3 2 4 6 4 11z" />
    <glyph glyph-name="uni2199" unicode="&#x2199;" horiz-adv-x="807" 
d="M737 296h-310c-6 0 -10 -2 -14 -6l-223 -219l219 3v-74h-339v339h74l-3 -220l227 231c14 15 30 20 49 20l320 1v-75z" />
    <glyph glyph-name="ae" unicode="&#xe6;" horiz-adv-x="790" 
d="M727 217h-290v-99c0 -6 2 -10 6 -14l20 -20c4 -4 9 -6 14 -6h124c6 0 11 2 14 6l55 55l55 -55l-63 -64c-14 -14 -29 -20 -49 -20h-147c-19 0 -37 7 -50 20l-30 31l-31 -31c-13 -13 -29 -20 -49 -20h-143c-19 0 -35 6 -49 20l-44 44c-14 14 -21 31 -21 51v67
c0 19 7 37 21 50l39 40c14 14 31 20 50 20h193v66c0 5 -3 10 -6 14l-20 20c-4 4 -9 6 -14 6h-142c-6 0 -11 -2 -14 -6l-37 -37l-53 53l48 48c14 14 29 20 49 20h153c20 0 36 -7 49 -20l29 -29l29 29c14 14 30 20 49 20h141c19 0 35 -6 49 -20l44 -44c14 -14 21 -31 21 -51
v-144zM642 293v65c0 6 -3 10 -6 14l-20 20c-4 4 -9 6 -14 6h-125c-5 0 -10 -2 -14 -6l-20 -20c-4 -4 -6 -9 -6 -14v-66zM351 135l1 83h-177c-6 0 -11 -2 -14 -6l-20 -20c-4 -4 -7 -8 -7 -14v-60c0 -6 3 -10 6 -14l20 -20c4 -4 10 -6 14 -6h120c5 0 10 2 14 6l37 37
c4 4 6 9 6 14z" />
    <glyph glyph-name="oslash" unicode="&#xf8;" horiz-adv-x="553" 
d="M490 117c0 -19 -7 -39 -21 -53l-44 -44c-14 -14 -30 -20 -49 -20h-150l-30 -94l-49 16l26 78c-13 0 -30 5 -45 20l-44 44c-14 14 -21 31 -21 51v246c0 20 7 37 21 51l44 44c14 14 30 20 49 20h149l31 96l49 -17l-26 -79c13 0 31 -6 44 -20l44 -44c15 -14 22 -31 22 -51
v-244zM404 121v237c0 6 -2 10 -6 14l-20 20c-4 4 -9 6 -14 6h-9l-104 -320h113c5 0 10 2 14 6l20 20c4 4 6 11 6 17zM301 398h-112c-5 0 -11 -2 -14 -6l-20 -20c-4 -4 -7 -8 -7 -14v-240c0 -5 3 -10 6 -14l20 -20c4 -4 9 -6 14 -6h9z" />
    <glyph glyph-name="questiondown" unicode="&#xbf;" horiz-adv-x="509" 
d="M337 370h-106v106h106v-106zM460 -105l-65 -65c-14 -14 -30 -21 -50 -21h-139c-20 0 -36 7 -50 21l-45 45c-14 14 -20 29 -20 49v104c0 19 7 36 21 50l123 123c4 4 6 8 6 14v56h86v-59c0 -19 -7 -36 -20 -49l-124 -124c-4 -4 -7 -10 -7 -14v-96c0 -5 3 -11 6 -14l22 -22
c4 -4 10 -6 15 -6h113c6 0 11 2 14 6l58 57z" />
    <glyph glyph-name="exclamdown" unicode="&#xa1;" horiz-adv-x="304" 
d="M205 370h-106v106h106v-106zM195 -191h-86v459h86v-459z" />
    <glyph glyph-name="logicalnot" unicode="&#xac;" 
d="M542 0h-76v286h-401v76h477v-362z" />
    <glyph glyph-name="arrowdown" unicode="&#x2193;" horiz-adv-x="807" 
d="M665 615l-219 -220c-4 -4 -5 -8 -6 -14l-3 -246l153 157l53 -52l-240 -240l-239 240l52 52l154 -158l-4 258c0 20 8 35 21 48l226 227z" />
    <glyph glyph-name="florin" unicode="&#x192;" 
d="M463 398h-158v-478c0 -19 -7 -35 -20 -48l-68 -68l-55 55l52 53c4 4 6 9 6 14v472h-77v78h76v78c0 21 7 38 21 52l41 41c14 14 30 20 49 20h133v-78h-118c-5 0 -10 -2 -14 -6l-20 -20c-4 -4 -6 -11 -6 -16v-71h158v-78z" />
    <glyph glyph-name="approxequal" unicode="&#x2248;" 
d="M560 393l-150 -150c-6 -5 -18 -12 -33 -12c-16 0 -29 7 -34 12l-108 108c-6 6 -14 6 -21 0l-117 -117l-50 50l145 145c5 5 18 12 33 12c17 0 29 -7 34 -13l107 -106c7 -7 15 -7 21 0l122 122zM560 193l-154 -154c-6 -5 -18 -12 -33 -12c-16 0 -29 7 -34 12l-108 108
c-6 6 -14 6 -21 0l-113 -113l-50 50l141 141c5 5 18 12 33 12c17 1 29 -7 34 -13l107 -106c7 -7 15 -7 21 0l127 125z" />
    <glyph glyph-name="arrowleft" unicode="&#x2190;" horiz-adv-x="807" 
d="M737 124l-52 -53l-219 220c-5 4 -9 5 -15 6l-246 3l157 -153l-52 -53l-240 240l240 239l52 -52l-158 -154l258 3c20 1 35 -7 48 -20z" />
    <glyph glyph-name="guillemotleft" unicode="&#xab;" horiz-adv-x="593" 
d="M502 108l-55 -55l-124 124c-23 23 -25 52 -25 61s2 38 25 61l124 124l55 -55l-116 -116c-8 -8 -8 -20 0 -28zM295 108l-55 -55l-124 124c-23 23 -25 52 -25 61s2 38 25 61l124 124l55 -55l-116 -116c-8 -8 -8 -20 0 -28z" />
    <glyph glyph-name="guillemotright" unicode="&#xbb;" horiz-adv-x="593" 
d="M502 238c0 -9 -2 -38 -25 -61l-124 -124l-55 55l116 116c8 8 8 20 0 28l-116 116l55 55l124 -124c23 -23 25 -52 25 -61zM295 238c0 -9 -2 -38 -25 -61l-124 -124l-55 55l116 116c8 8 8 20 0 28l-116 116l55 55l124 -124c23 -23 25 -52 25 -61z" />
    <glyph glyph-name="ellipsis" unicode="&#x2026;" horiz-adv-x="1000" 
d="M886 0h-106v106h106v-106zM553 0h-106v106h106v-106zM220 0h-106v106h106v-106z" />
    <glyph glyph-name="nbspace" unicode="&#xa0;" horiz-adv-x="304" 
 />
    <glyph glyph-name="Agrave" unicode="&#xc0;" horiz-adv-x="689" 
d="M398 726h-92l-147 146h92zM654 0h-93l-68 179h-299l-68 -179h-91l250 667h120zM460 263l-116 322l-118 -322h234z" />
    <glyph glyph-name="Atilde" unicode="&#xc3;" horiz-adv-x="689" 
d="M540 801l-90 -59c-12 -8 -25 -13 -38 -13c-15 0 -30 6 -42 14l-86 58c-5 4 -11 4 -16 0l-82 -56l-36 51l88 58c12 9 25 14 39 14s29 -6 41 -15l81 -56c6 -3 12 -3 17 0l90 59zM654 0h-93l-68 179h-299l-68 -179h-91l250 667h120zM460 263l-116 322l-118 -322h234z" />
    <glyph glyph-name="Otilde" unicode="&#xd5;" horiz-adv-x="735" 
d="M562 801l-89 -59c-13 -8 -25 -13 -39 -13c-15 0 -29 6 -41 14l-86 58c-6 4 -12 4 -17 0l-81 -56l-37 51l88 58c13 9 25 14 39 14c15 0 29 -6 41 -15l82 -56c5 -3 11 -3 16 0l90 59zM644 153c0 -19 -8 -36 -21 -50l-82 -82c-14 -14 -32 -21 -50 -21h-247
c-19 0 -36 7 -50 21l-82 82c-14 14 -21 31 -21 50v361c0 19 7 36 21 50l82 82c14 14 31 21 50 21h246c19 0 37 -7 50 -21l82 -82c14 -14 22 -31 22 -50v-361zM552 165l1 337c0 5 -3 10 -6 14l-57 57c-4 4 -9 6 -14 6h-217c-6 0 -10 -2 -14 -6l-57 -57c-4 -4 -6 -9 -6 -14
v-337c0 -5 2 -10 6 -14l57 -57c4 -4 8 -6 14 -6h216c6 0 11 2 14 6l57 57c4 4 6 9 6 14z" />
    <glyph glyph-name="OE" unicode="&#x152;" horiz-adv-x="864" 
d="M773 0h-529c-19 0 -36 7 -50 21l-82 82c-14 14 -21 31 -21 50v361c0 19 7 36 21 50l82 82c14 14 31 21 50 21h529v-88h-265v-201h265v-88h-265v-202h265v-88zM417 88v491h-158c-6 0 -10 -2 -14 -6l-57 -57c-4 -4 -6 -9 -6 -14v-337c0 -5 2 -10 6 -14l57 -57
c4 -4 8 -6 14 -6h158z" />
    <glyph glyph-name="oe" unicode="&#x153;" horiz-adv-x="804" 
d="M741 217h-290v-99c0 -6 2 -10 6 -14l20 -20c4 -4 9 -6 14 -6h124c6 0 11 2 14 6l55 55l55 -55l-63 -64c-14 -14 -29 -20 -49 -20h-140c-19 0 -37 7 -50 20l-28 28l-29 -28c-14 -14 -30 -20 -49 -20h-154c-18 0 -35 6 -49 20l-44 44c-14 14 -21 31 -21 51v246
c0 20 7 37 21 51l44 44c13 13 30 20 49 20h153c19 0 36 -7 50 -20l28 -29l29 29c14 14 30 20 49 20h141c19 0 35 -6 49 -20l44 -44c14 -14 21 -31 21 -51v-144zM656 293v65c0 6 -3 10 -6 14l-20 20c-4 4 -9 6 -14 6h-125c-5 0 -10 -2 -14 -6l-20 -20c-4 -4 -6 -9 -6 -14v-66
zM366 118l1 240c0 6 -3 10 -6 14l-20 20c-4 4 -10 6 -14 6h-138c-5 0 -11 -2 -14 -6l-20 -20c-4 -4 -7 -8 -7 -14v-240c0 -5 3 -10 6 -14l20 -20c4 -4 9 -6 14 -6h138c6 0 11 2 14 6l20 20c4 4 6 9 6 14z" />
    <glyph glyph-name="endash" unicode="&#x2013;" 
d="M553 201l-500 -1v76h500v-75z" />
    <glyph glyph-name="emdash" unicode="&#x2014;" horiz-adv-x="1000" 
d="M900 201l-800 -1v76h800v-75z" />
    <glyph glyph-name="quotedblleft" unicode="&#x201c;" horiz-adv-x="541" 
d="M470 637l-30 -30c-4 -4 -7 -8 -7 -14v-176h-88v177c0 21 5 35 20 50l49 48zM233 637l-30 -30c-4 -4 -7 -8 -7 -14v-176h-88v177c0 21 5 35 20 50l49 48z" />
    <glyph glyph-name="quotedblright" unicode="&#x201d;" horiz-adv-x="541" 
d="M433 490c0 -22 -6 -35 -20 -50l-49 -49l-57 56l30 30c4 4 7 8 7 14v176h89v-177zM195 490h1c0 -22 -6 -35 -20 -50l-49 -49l-57 56l30 30c4 4 7 8 7 14v176h88v-177z" />
    <glyph glyph-name="quoteleft" unicode="&#x2018;" horiz-adv-x="304" 
d="M233 637l-30 -30c-4 -4 -7 -8 -7 -14v-176h-88v177c0 21 5 35 20 50l49 48z" />
    <glyph glyph-name="quoteright" unicode="&#x2019;" horiz-adv-x="304" 
d="M196 490c0 -22 -6 -35 -20 -50l-49 -49l-57 56l30 30c4 4 7 8 7 14v176h89v-177z" />
    <glyph glyph-name="divide" unicode="&#xf7;" 
d="M357 371l-107 -1v107h107v-106zM542 200h-477v75h477v-75zM357 0h-107v106h107v-106z" />
    <glyph glyph-name="arrowright" unicode="&#x2192;" horiz-adv-x="807" 
d="M737 333l-240 -239l-52 52l158 154l-258 -4c-20 0 -35 8 -48 21l-227 226l52 52l219 -219c5 -4 9 -5 15 -6l246 -3l-157 153l52 53z" />
    <glyph glyph-name="ydieresis" unicode="&#xff;" horiz-adv-x="474" 
d="M387 575l-102 -1v102h102v-101zM182 574h-102v102h102v-102zM446 476l-230 -666h-87l59 182l-167 484h89l124 -370l125 370h87z" />
    <glyph glyph-name="Ydieresis" unicode="&#x178;" horiz-adv-x="598" 
d="M452 757h-101v101h101v-101zM248 757h-102v101h102v-101zM577 667l-232 -372v-295h-91v295l-233 372h102l177 -283l177 283h100z" />
    <glyph glyph-name="fraction" unicode="&#x2044;" horiz-adv-x="134" 
d="M279 672l-363 -672h-61l363 672h61z" />
    <glyph glyph-name="Euro" unicode="&#x20ac;" 
d="M559 115l-94 -94c-14 -14 -31 -21 -50 -21h-136c-19 0 -36 7 -50 21l-82 82c-14 14 -21 31 -21 50v94h-77v50h77v75h-77v50h77v92c0 19 7 36 21 50l82 82c14 14 31 21 50 21h136c19 0 36 -7 50 -21l94 -94l-61 -60l-84 84c-4 4 -8 6 -14 6h-106c-6 0 -10 -2 -14 -6
l-60 -60c-4 -4 -6 -9 -6 -14v-80h133v-50h-133v-75h133v-50h-133v-82c0 -5 2 -10 6 -14l60 -60c4 -4 8 -6 14 -6h106c6 0 10 2 14 6l84 84z" />
    <glyph glyph-name="guilsinglleft" unicode="&#x2039;" horiz-adv-x="386" 
d="M295 108l-55 -55l-124 124c-23 23 -25 52 -25 61s2 38 25 61l124 124l55 -55l-116 -116c-8 -8 -8 -20 0 -28z" />
    <glyph glyph-name="guilsinglright" unicode="&#x203a;" horiz-adv-x="386" 
d="M295 238c0 -9 -2 -38 -25 -61l-124 -124l-55 55l116 116c8 8 8 20 0 28l-116 116l55 55l124 -124c23 -23 25 -52 25 -61z" />
    <glyph glyph-name="daggerdbl" unicode="&#x2021;" 
d="M492 187h-146v-278h-85v277h-146v78h146v136h-146v78h146v191h85v-191h146v-78h-146v-135h146v-78z" />
    <glyph glyph-name="periodcentered" unicode="&#xb7;" horiz-adv-x="304" 
d="M205 281h-107v106h107v-106z" />
    <glyph glyph-name="quotesinglbase" unicode="&#x201a;" horiz-adv-x="304" 
d="M196 -71c0 -22 -6 -35 -20 -50l-49 -49l-57 56l30 30c4 4 7 8 7 14v176h89v-177z" />
    <glyph glyph-name="quotedblbase" unicode="&#x201e;" horiz-adv-x="541" 
d="M433 -71c0 -22 -6 -35 -20 -50l-49 -49l-57 56l30 30c4 4 7 8 7 14v176h89v-177zM195 -71h1c0 -22 -6 -35 -20 -50l-49 -49l-57 56l30 30c4 4 7 8 7 14v176h88v-177z" />
    <glyph glyph-name="perthousand" unicode="&#x2030;" horiz-adv-x="1394" 
d="M1317 72c0 -11 -3 -20 -11 -28l-31 -31c-8 -8 -17 -13 -29 -13h-124c-12 0 -21 5 -29 13l-31 31c-8 8 -11 17 -11 28v257c0 11 3 20 11 28l31 31c8 8 17 13 29 13h121c12 0 24 -5 32 -13l31 -31c8 -8 11 -17 11 -28v-257zM897 72c0 -11 -3 -20 -11 -28l-31 -31
c-8 -8 -17 -13 -29 -13h-124c-12 0 -21 5 -29 13l-31 31c-8 8 -11 17 -11 28v257c0 11 3 20 11 28l31 31c8 8 17 13 29 13h121c12 0 24 -5 32 -13l31 -31c8 -8 11 -17 11 -28v-257zM699 672l-363 -672h-61l363 672h61zM343 338c0 -11 -3 -20 -11 -28l-31 -31
c-8 -8 -17 -13 -29 -13h-124c-12 0 -21 5 -29 13l-31 31c-8 8 -11 17 -11 28v257c0 11 3 20 11 28l31 31c8 8 17 13 29 13h121c12 0 24 -5 32 -13l31 -31c8 -8 11 -17 11 -28v-257zM1254 80v241c0 3 -1 6 -3 8l-11 11c-2 2 -6 4 -9 4h-94c-3 0 -7 -2 -9 -4l-11 -11
c-2 -2 -3 -5 -3 -8v-241c0 -3 1 -6 3 -8l11 -11c2 -2 6 -4 9 -4h95c3 0 7 2 9 4l10 10c2 2 3 6 3 9zM834 80v241c0 3 -1 6 -3 8l-11 11c-2 2 -6 4 -9 4h-94c-3 0 -7 -2 -9 -4l-11 -11c-2 -2 -3 -5 -3 -8v-241c0 -3 1 -6 3 -8l11 -11c2 -2 6 -4 9 -4h95c3 0 7 2 9 4l10 10
c2 2 3 6 3 9zM280 346v241c0 3 -1 6 -3 8l-11 11c-2 2 -6 4 -9 4h-94c-3 0 -7 -2 -9 -4l-11 -11c-2 -2 -3 -5 -3 -8v-241c0 -3 1 -6 3 -8l11 -11c2 -2 6 -4 9 -4h95c3 0 7 2 9 4l10 10c2 2 3 6 3 9z" />
    <glyph glyph-name="Acircumflex" unicode="&#xc2;" horiz-adv-x="689" 
d="M531 740h-91l-95 96l-96 -96h-91l132 132h108zM654 0h-93l-68 179h-299l-68 -179h-91l250 667h120zM460 263l-116 322l-118 -322h234z" />
    <glyph glyph-name="Ecircumflex" unicode="&#xca;" horiz-adv-x="641" 
d="M520 740h-90l-96 96l-95 -96h-91l132 132h108zM550 0h-431v667h431v-88h-340v-201h340v-88h-340v-202h340v-88z" />
    <glyph glyph-name="Aacute" unicode="&#xc1;" horiz-adv-x="689" 
d="M534 872l-146 -146h-95l146 146h95zM654 0h-93l-68 179h-299l-68 -179h-91l250 667h120zM460 263l-116 322l-118 -322h234z" />
    <glyph glyph-name="Edieresis" unicode="&#xcb;" horiz-adv-x="641" 
d="M488 757h-102v101h102v-101zM283 757h-101v101h101v-101zM550 0h-431v667h431v-88h-340v-201h340v-88h-340v-202h340v-88z" />
    <glyph glyph-name="Egrave" unicode="&#xc8;" horiz-adv-x="641" 
d="M445 726h-92l-146 146h92zM550 0h-431v667h431v-88h-340v-201h340v-88h-340v-202h340v-88z" />
    <glyph glyph-name="Iacute" unicode="&#xcd;" horiz-adv-x="437" 
d="M371 872l-146 -146h-95l146 146h95zM388 0h-339v82h124v503h-124v82h339v-82h-124v-503h124v-82z" />
    <glyph glyph-name="Icircumflex" unicode="&#xce;" horiz-adv-x="437" 
d="M405 740h-91l-95 96l-96 -96h-91l132 132h108zM388 0h-339v82h124v503h-124v82h339v-82h-124v-503h124v-82z" />
    <glyph glyph-name="Idieresis" unicode="&#xcf;" horiz-adv-x="437" 
d="M372 757h-102v101h102v-101zM167 757h-101v101h101v-101zM388 0h-339v82h124v503h-124v82h339v-82h-124v-503h124v-82z" />
    <glyph glyph-name="Igrave" unicode="&#xcc;" horiz-adv-x="437" 
d="M307 726h-92l-147 146h92zM388 0h-339v82h124v503h-124v82h339v-82h-124v-503h124v-82z" />
    <glyph glyph-name="Oacute" unicode="&#xd3;" horiz-adv-x="735" 
d="M534 872l-146 -146h-95l146 146h95zM644 153c0 -19 -8 -36 -21 -50l-82 -82c-14 -14 -32 -21 -50 -21h-247c-19 0 -36 7 -50 21l-82 82c-14 14 -21 31 -21 50v361c0 19 7 36 21 50l82 82c14 14 31 21 50 21h246c19 0 37 -7 50 -21l82 -82c14 -14 22 -31 22 -50v-361z
M552 165l1 337c0 5 -3 10 -6 14l-57 57c-4 4 -9 6 -14 6h-217c-6 0 -10 -2 -14 -6l-57 -57c-4 -4 -6 -9 -6 -14v-337c0 -5 2 -10 6 -14l57 -57c4 -4 8 -6 14 -6h216c6 0 11 2 14 6l57 57c4 4 6 9 6 14z" />
    <glyph glyph-name="Ocircumflex" unicode="&#xd4;" horiz-adv-x="735" 
d="M553 740h-90l-96 96l-95 -96h-91l132 132h108zM644 153c0 -19 -8 -36 -21 -50l-82 -82c-14 -14 -32 -21 -50 -21h-247c-19 0 -36 7 -50 21l-82 82c-14 14 -21 31 -21 50v361c0 19 7 36 21 50l82 82c14 14 31 21 50 21h246c19 0 37 -7 50 -21l82 -82c14 -14 22 -31 22 -50
v-361zM552 165l1 337c0 5 -3 10 -6 14l-57 57c-4 4 -9 6 -14 6h-217c-6 0 -10 -2 -14 -6l-57 -57c-4 -4 -6 -9 -6 -14v-337c0 -5 2 -10 6 -14l57 -57c4 -4 8 -6 14 -6h216c6 0 11 2 14 6l57 57c4 4 6 9 6 14z" />
    <glyph glyph-name="Foundry" horiz-adv-x="842" 
d="M751 117c0 -19 -5 -34 -19 -48l-47 -47c-14 -14 -31 -22 -51 -22h-426c-20 0 -37 8 -51 22l-47 47c-14 14 -19 29 -19 48v433c0 19 5 34 19 48l47 47c14 14 31 22 51 22h426c20 0 37 -8 51 -22l47 -47c14 -14 19 -29 19 -48v-433zM673 122v424c0 5 -1 10 -5 14l-29 29
c-4 4 -9 6 -15 6h-406c-6 0 -11 -2 -15 -6l-29 -29c-4 -4 -5 -9 -5 -14v-425c0 -5 1 -10 5 -14l29 -29c4 -4 9 -6 15 -6h123v206h-76v72h76v70c0 21 6 38 21 52l41 41c13 14 30 20 49 20h122v-72h-115c-5 0 -10 -2 -14 -6l-20 -20c-4 -4 -6 -11 -6 -16v-69h155v-72h-155
v-206h205c6 0 11 2 15 6l29 29c4 4 5 9 5 15z" />
    <glyph glyph-name="Ograve" unicode="&#xd2;" horiz-adv-x="735" 
d="M443 726h-92l-146 146h92zM644 153c0 -19 -8 -36 -21 -50l-82 -82c-14 -14 -32 -21 -50 -21h-247c-19 0 -36 7 -50 21l-82 82c-14 14 -21 31 -21 50v361c0 19 7 36 21 50l82 82c14 14 31 21 50 21h246c19 0 37 -7 50 -21l82 -82c14 -14 22 -31 22 -50v-361zM552 165
l1 337c0 5 -3 10 -6 14l-57 57c-4 4 -9 6 -14 6h-217c-6 0 -10 -2 -14 -6l-57 -57c-4 -4 -6 -9 -6 -14v-337c0 -5 2 -10 6 -14l57 -57c4 -4 8 -6 14 -6h216c6 0 11 2 14 6l57 57c4 4 6 9 6 14z" />
    <glyph glyph-name="Uacute" unicode="&#xda;" horiz-adv-x="702" 
d="M511 872l-146 -146h-94l146 146h94zM597 153c0 -19 -8 -36 -21 -50l-82 -82c-14 -14 -32 -21 -50 -21h-186c-19 0 -36 7 -50 21l-82 82c-14 14 -21 31 -21 50v514h91v-502c0 -5 2 -10 6 -14l57 -57c4 -4 8 -6 14 -6h155c6 0 11 2 14 6l57 57c4 4 6 9 6 14v502h92v-514z
" />
    <glyph glyph-name="Ucircumflex" unicode="&#xdb;" horiz-adv-x="702" 
d="M537 740h-91l-95 96l-96 -96h-91l132 132h108zM597 153c0 -19 -8 -36 -21 -50l-82 -82c-14 -14 -32 -21 -50 -21h-186c-19 0 -36 7 -50 21l-82 82c-14 14 -21 31 -21 50v514h91v-502c0 -5 2 -10 6 -14l57 -57c4 -4 8 -6 14 -6h155c6 0 11 2 14 6l57 57c4 4 6 9 6 14v502
h92v-514z" />
    <glyph glyph-name="Ugrave" unicode="&#xd9;" horiz-adv-x="702" 
d="M446 726h-92l-147 146h92zM597 153c0 -19 -8 -36 -21 -50l-82 -82c-14 -14 -32 -21 -50 -21h-186c-19 0 -36 7 -50 21l-82 82c-14 14 -21 31 -21 50v514h91v-502c0 -5 2 -10 6 -14l57 -57c4 -4 8 -6 14 -6h155c6 0 11 2 14 6l57 57c4 4 6 9 6 14v502h92v-514z" />
    <glyph glyph-name="dotlessi" unicode="&#x131;" horiz-adv-x="289" 
d="M194 0h-85v398h-102v78h187v-476z" />
    <glyph glyph-name="circumflex" unicode="&#x2c6;" horiz-adv-x="465" 
d="M419 535h-90l-96 96l-95 -96h-91l132 132h108z" />
    <glyph glyph-name="tilde" unicode="&#x2dc;" horiz-adv-x="465" 
d="M428 613l-90 -59c-12 -9 -25 -14 -38 -14c-15 0 -30 6 -42 14l-86 58c-5 4 -11 4 -16 1l-82 -56l-36 50l88 59c12 8 25 13 39 13s29 -6 41 -14l81 -56c6 -4 12 -3 17 0l90 58z" />
    <glyph glyph-name="macron" unicode="&#xaf;" horiz-adv-x="465" 
d="M387 570l-308 -1v64h308v-63z" />
    <glyph glyph-name="breve" unicode="&#x2d8;" horiz-adv-x="465" 
d="M379 609c0 -14 -6 -23 -15 -32l-51 -51c-10 -10 -21 -12 -34 -12h-92c-13 0 -24 2 -34 12l-51 51c-9 9 -15 18 -15 32v58h63v-53c0 -4 3 -6 5 -9l30 -29c3 -3 6 -3 10 -3h76c4 0 7 0 10 2l30 30c2 3 5 5 5 9v53h63v-58z" />
    <glyph glyph-name="dotaccent" unicode="&#x2d9;" horiz-adv-x="465" 
d="M286 572h-107v106h107v-106z" />
    <glyph glyph-name="ring" unicode="&#x2da;" horiz-adv-x="465" 
d="M342 578c0 -37 -30 -67 -67 -67h-85c-37 0 -67 29 -67 66v89c0 37 29 67 66 67h85c37 0 68 -29 68 -66v-89zM280 589v66c0 10 -9 20 -19 20h-57c-10 0 -19 -9 -19 -19v-67c0 -10 10 -20 19 -20h57c9 0 19 9 19 20z" />
    <glyph glyph-name="cedilla" unicode="&#xb8;" horiz-adv-x="465" 
d="M305 -88l-100 -100l-45 45l54 54l-55 55l46 46z" />
    <glyph glyph-name="hungarumlaut" unicode="&#x2dd;" horiz-adv-x="465" 
d="M458 667l-153 -153h-94l153 153h94zM254 667l-153 -153h-94l153 153h94z" />
    <glyph glyph-name="ogonek" unicode="&#x2db;" horiz-adv-x="465" 
d="M305 -34l-55 -55l54 -54l-45 -45l-100 100l101 100z" />
    <glyph glyph-name="caron" unicode="&#x2c7;" horiz-adv-x="465" 
d="M419 667l-132 -132h-108l-132 132h90l96 -96l95 96h91z" />
    <glyph glyph-name="Eth" unicode="&#xd0;" horiz-adv-x="702" 
d="M611 153c0 -19 -8 -36 -21 -50l-82 -82c-14 -14 -32 -21 -50 -21h-339v290l-93 -1v89h93v289h338c19 0 37 -7 50 -21l82 -82c14 -14 22 -31 22 -50v-361zM519 165l1 337c0 5 -3 10 -6 14l-57 57c-4 4 -9 6 -14 6h-233v-201h155v-89h-155v-201h232c6 0 11 2 14 6l57 57
c4 4 6 9 6 14z" />
    <glyph glyph-name="currency" unicode="&#xa4;" 
d="M517 213c0 -18 -6 -35 -17 -49l49 -49l-53 -53l-50 49c-12 -11 -27 -15 -43 -15h-199c-17 0 -31 4 -44 15l-50 -49l-53 53l49 50c-11 13 -16 28 -16 46v246c0 18 5 33 16 46l-49 51l53 53l50 -50c13 10 27 15 44 15h198c17 0 32 -5 44 -15l50 50l53 -53l-50 -51
c12 -13 18 -28 18 -46v-244zM431 217v237c0 6 -2 10 -6 14l-20 20c-4 4 -9 6 -14 6h-175c-5 0 -11 -2 -14 -6l-20 -20c-4 -4 -7 -8 -7 -14v-240c0 -6 3 -10 6 -14l20 -20c4 -4 10 -6 14 -6h176c5 0 10 2 14 6l20 20c4 4 6 10 6 17z" />
    <glyph glyph-name="zerosuperior" unicode="&#x2070;" horiz-adv-x="420" 
d="M343 338c0 -11 -3 -20 -11 -28l-31 -31c-8 -8 -17 -13 -29 -13h-124c-12 0 -21 5 -29 13l-31 31c-8 8 -11 17 -11 28v257c0 11 3 20 11 28l31 31c8 8 17 13 29 13h121c12 0 24 -5 32 -13l31 -31c8 -8 11 -17 11 -28v-257zM280 346v241c0 3 -1 6 -3 8l-11 11
c-2 2 -6 4 -9 4h-94c-3 0 -7 -2 -9 -4l-11 -11c-2 -2 -3 -5 -3 -8v-241c0 -3 1 -6 3 -8l11 -11c2 -2 6 -4 9 -4h95c3 0 7 2 9 4l10 10c2 2 3 6 3 9z" />
    <glyph glyph-name="foursuperior" unicode="&#x2074;" horiz-adv-x="418" 
d="M354 370h-54v-104h-57v104h-180v49l160 248h77v-240h54v-57zM240 427v165l-108 -165h108z" />
    <glyph glyph-name="fivesuperior" unicode="&#x2075;" horiz-adv-x="420" 
d="M343 338c0 -11 -3 -20 -11 -28l-31 -31c-8 -8 -18 -13 -30 -13h-120c-12 0 -22 5 -30 13l-49 49l41 41l42 -42c2 -2 5 -4 8 -4h96c3 0 6 2 8 4l10 10c2 2 3 5 3 8v94c0 3 -1 6 -3 8l-11 11c-2 2 -6 4 -9 4h-163v205h224v-57h-161v-91h112c12 0 24 -5 32 -13l31 -31
c8 -8 11 -17 11 -28v-109z" />
    <glyph glyph-name="sixsuperior" unicode="&#x2076;" horiz-adv-x="420" 
d="M350 605l-41 -41l-42 42c-2 2 -5 4 -8 4h-96c-4 0 -7 -2 -9 -4l-11 -11c-2 -2 -3 -5 -3 -8v-99l19 19c8 8 18 12 30 12h81c12 0 22 -4 30 -12l32 -32c8 -8 11 -17 11 -28v-109c0 -11 -3 -20 -11 -28l-31 -31c-8 -8 -17 -13 -29 -13h-124c-12 0 -21 5 -29 13l-31 31
c-8 8 -11 17 -11 28v257c0 11 3 20 11 28l31 31c8 8 17 13 29 13h120c12 0 25 -5 33 -13zM280 346v95c0 3 -1 6 -3 8l-10 10c-2 2 -5 3 -8 3h-66c-3 0 -6 -1 -8 -3l-42 -42c-2 -2 -3 -5 -3 -8v-63c0 -3 1 -6 3 -8l11 -11c2 -2 6 -4 9 -4h95c3 0 7 2 9 4l10 10c2 2 3 6 3 9z
" />
    <glyph glyph-name="sevensuperior" unicode="&#x2077;" horiz-adv-x="420" 
d="M343 620l-162 -354h-72l162 344h-200v57h272v-47z" />
    <glyph glyph-name="eightsuperior" unicode="&#x2078;" horiz-adv-x="420" 
d="M343 338c0 -11 -3 -20 -11 -28l-31 -31c-8 -8 -18 -13 -30 -13h-122c-12 0 -22 5 -30 13l-31 31c-8 8 -11 17 -11 28v88c0 11 4 21 12 29l22 22l-22 22c-8 8 -12 18 -12 29v67c0 11 3 20 11 28l31 31c8 8 18 13 30 13h122c12 0 22 -5 30 -13l31 -31c8 -8 11 -17 11 -28
v-67c0 -11 -4 -21 -12 -29l-22 -22l22 -22c8 -8 12 -18 12 -29v-88zM280 528v59c0 3 -1 6 -3 8l-11 11c-2 2 -5 4 -8 4h-96c-3 0 -6 -2 -8 -4l-11 -11c-2 -2 -3 -5 -3 -8v-59c0 -3 1 -6 3 -8l10 -10c2 -2 6 -4 9 -4h96c3 0 7 2 9 4l10 10c2 2 3 5 3 8zM280 346v81
c0 3 -1 6 -3 8l-10 10c-2 2 -6 4 -9 4h-96c-3 0 -7 -2 -9 -4l-10 -10c-2 -2 -3 -5 -3 -8v-81c0 -3 1 -6 3 -8l11 -11c2 -2 5 -4 8 -4h96c3 0 6 2 8 4l11 11c2 2 3 5 3 8z" />
    <glyph glyph-name="ninesuperior" unicode="&#x2079;" horiz-adv-x="420" 
d="M343 338c0 -11 -3 -20 -11 -28l-31 -31c-8 -8 -17 -13 -29 -13h-120c-12 0 -25 5 -33 13l-49 49l41 41l42 -42c2 -2 5 -4 8 -4h97c4 0 7 2 9 4l10 10c2 2 3 5 3 8v99l-19 -19c-8 -8 -18 -12 -30 -12h-81c-12 0 -22 4 -30 12l-32 32c-8 8 -11 17 -11 28v110
c0 11 3 20 11 28l31 31c8 8 17 13 29 13h124c12 0 21 -5 29 -13l31 -31c8 -8 11 -17 11 -28v-257zM280 523v64c0 3 -1 6 -3 8l-11 11c-2 2 -6 4 -9 4h-94c-3 0 -7 -2 -9 -4l-11 -11c-2 -2 -3 -6 -3 -9v-95c0 -3 1 -6 3 -8l10 -10c2 -2 5 -3 8 -3h66c3 0 6 1 8 3l42 42
c2 2 3 5 3 8z" />
    <glyph glyph-name="zeroinferior" unicode="&#x2080;" horiz-adv-x="420" 
d="M343 72c0 -11 -3 -20 -11 -28l-31 -31c-8 -8 -17 -13 -29 -13h-124c-12 0 -21 5 -29 13l-31 31c-8 8 -11 17 -11 28v257c0 11 3 20 11 28l31 31c8 8 17 13 29 13h121c12 0 24 -5 32 -13l31 -31c8 -8 11 -17 11 -28v-257zM280 80v241c0 3 -1 6 -3 8l-11 11c-2 2 -6 4 -9 4
h-94c-3 0 -7 -2 -9 -4l-11 -11c-2 -2 -3 -5 -3 -8v-241c0 -3 1 -6 3 -8l11 -11c2 -2 6 -4 9 -4h95c3 0 7 2 9 4l10 10c2 2 3 6 3 9z" />
    <glyph glyph-name="oneinferior" unicode="&#x2081;" horiz-adv-x="420" 
d="M357 0h-266v57h104v271l-67 -67l-44 44l96 96h78v-344h99v-57z" />
    <glyph glyph-name="twoinferior" unicode="&#x2082;" horiz-adv-x="420" 
d="M343 0h-266v131c0 16 9 30 24 37l172 76c4 2 7 5 7 10v67c0 3 -1 6 -3 8l-11 11c-2 2 -5 4 -8 4h-98c-3 0 -6 -2 -8 -4l-41 -42l-41 41l49 49c8 8 18 13 30 13h122c12 0 22 -5 30 -13l31 -31c8 -8 11 -17 11 -28v-90c0 -16 -9 -30 -24 -37l-172 -77c-4 -2 -7 -5 -7 -10
v-58h203v-57z" />
    <glyph glyph-name="threeinferior" unicode="&#x2083;" horiz-adv-x="420" 
d="M343 72c0 -11 -3 -20 -11 -28l-31 -31c-8 -8 -18 -13 -30 -13h-122c-12 0 -22 5 -30 13l-49 49l41 41l42 -42c2 -2 5 -4 8 -4h97c3 0 6 2 8 4l11 11c2 2 3 5 3 8v81c0 3 -1 6 -3 8l-10 10c-2 2 -6 4 -9 4h-91v57h91c3 0 7 2 9 4l10 10c2 2 3 5 3 8v59c0 3 -1 6 -3 8
l-11 11c-2 2 -5 4 -8 4h-97c-3 0 -6 -2 -8 -4l-42 -42l-41 41l49 49c8 8 18 13 30 13h58h64c12 0 22 -5 30 -13l31 -31c8 -8 11 -17 11 -28v-67c0 -11 -4 -21 -12 -29l-22 -22l22 -22c8 -8 12 -18 12 -29v-88z" />
    <glyph glyph-name="fourinferior" unicode="&#x2084;" horiz-adv-x="418" 
d="M354 104h-54v-104h-57v104h-180v49l160 248h77v-240h54v-57zM240 161v165l-108 -165h108z" />
    <glyph glyph-name="fiveinferior" unicode="&#x2085;" horiz-adv-x="420" 
d="M344 180l-1 -108c0 -11 -3 -20 -11 -28l-31 -31c-8 -8 -18 -13 -30 -13h-120c-12 0 -22 5 -30 13l-49 49l41 41l42 -42c2 -2 5 -4 8 -4h96c3 0 6 2 8 4l10 10c2 2 3 5 3 8v94c0 3 -1 6 -3 8l-11 11c-2 2 -6 4 -9 4h-163v205h224v-57h-161v-91h112c12 0 24 -5 32 -13
l32 -32c8 -8 11 -17 11 -28z" />
    <glyph glyph-name="sixinferior" unicode="&#x2086;" horiz-adv-x="420" 
d="M350 339l-41 -41l-42 42c-2 2 -5 4 -8 4h-96c-4 0 -7 -2 -9 -4l-11 -11c-2 -2 -3 -5 -3 -8v-99l19 19c8 8 18 12 30 12h81c12 0 22 -4 30 -12l32 -32c8 -8 11 -17 11 -28v-109c0 -11 -3 -20 -11 -28l-31 -31c-8 -8 -17 -13 -29 -13h-124c-12 0 -21 5 -29 13l-31 31
c-8 8 -11 17 -11 28v257c0 11 3 20 11 28l31 31c8 8 17 13 29 13h120c12 0 25 -5 33 -13zM280 80v95c0 3 -1 6 -3 8l-10 10c-2 2 -5 3 -8 3h-66c-3 0 -6 -1 -8 -3l-42 -42c-2 -2 -3 -5 -3 -8v-63c0 -3 1 -6 3 -8l11 -11c2 -2 6 -4 9 -4h95c3 0 7 2 9 4l10 10c2 2 3 6 3 9z
" />
    <glyph glyph-name="seveninferior" unicode="&#x2087;" horiz-adv-x="420" 
d="M343 354l-162 -354h-72l162 344h-200v57h272v-47z" />
    <glyph glyph-name="eightinferior" unicode="&#x2088;" horiz-adv-x="420" 
d="M343 72c0 -11 -3 -20 -11 -28l-31 -31c-8 -8 -18 -13 -30 -13h-122c-12 0 -22 5 -30 13l-31 31c-8 8 -11 17 -11 28v88c0 11 4 21 12 29l22 22l-22 22c-8 8 -12 18 -12 29v67c0 11 3 20 11 28l31 31c8 8 18 13 30 13h122c12 0 22 -5 30 -13l31 -31c8 -8 11 -17 11 -28
v-67c0 -11 -4 -21 -12 -29l-22 -22l22 -22c8 -8 12 -18 12 -29v-88zM280 262v59c0 3 -1 6 -3 8l-11 11c-2 2 -5 4 -8 4h-96c-3 0 -6 -2 -8 -4l-11 -11c-2 -2 -3 -5 -3 -8v-59c0 -3 1 -6 3 -8l10 -10c2 -2 6 -4 9 -4h96c3 0 7 2 9 4l10 10c2 2 3 5 3 8zM280 80v81
c0 3 -1 6 -3 8l-10 10c-2 2 -6 4 -9 4h-96c-3 0 -7 -2 -9 -4l-10 -10c-2 -2 -3 -5 -3 -8v-81c0 -3 1 -6 3 -8l11 -11c2 -2 5 -4 8 -4h96c3 0 6 2 8 4l11 11c2 2 3 5 3 8z" />
    <glyph glyph-name="nineinferior" unicode="&#x2089;" horiz-adv-x="420" 
d="M343 72c0 -11 -3 -20 -11 -28l-31 -31c-8 -8 -17 -13 -29 -13h-120c-12 0 -25 5 -33 13l-49 49l41 41l42 -42c2 -2 5 -4 8 -4h97c4 0 7 2 9 4l10 10c2 2 3 5 3 8v99l-19 -19c-8 -8 -18 -12 -30 -12h-81c-12 0 -22 4 -30 12l-32 32c-8 8 -11 17 -11 28v110
c0 11 3 20 11 28l31 31c8 8 17 13 29 13h124c12 0 21 -5 29 -13l31 -31c8 -8 11 -17 11 -28v-257zM280 257v64c0 3 -1 6 -3 8l-11 11c-2 2 -6 4 -9 4h-94c-3 0 -7 -2 -9 -4l-11 -11c-2 -2 -3 -6 -3 -9v-95c0 -3 1 -6 3 -8l10 -10c2 -2 5 -3 8 -3h66c3 0 6 1 8 3l42 42
c2 2 3 5 3 8z" />
    <glyph glyph-name="oneeighth" unicode="&#x215b;" horiz-adv-x="974" 
d="M897 72c0 -11 -3 -20 -11 -28l-31 -31c-8 -8 -18 -13 -30 -13h-122c-12 0 -22 5 -30 13l-31 31c-8 8 -11 17 -11 28v88c0 11 4 21 12 29l22 22l-22 22c-8 8 -12 18 -12 29v67c0 11 3 20 11 28l31 31c8 8 18 13 30 13h122c12 0 22 -5 30 -13l31 -31c8 -8 11 -17 11 -28
v-67c0 -11 -4 -21 -12 -29l-22 -22l22 -22c8 -8 12 -18 12 -29v-88zM699 672l-363 -672h-61l363 672h61zM357 266h-266v57h104v271l-67 -67l-44 44l96 96h78v-344h99v-57zM897 72v88c0 11 -4 21 -12 29l-22 22l22 22c8 8 12 18 12 29v67c0 11 -3 20 -11 28l-31 31
c-8 8 -18 13 -30 13h-122c-12 0 -22 -5 -30 -13l-31 -31c-8 -8 -11 -17 -11 -28v-67c0 -11 4 -21 12 -29l22 -22l-22 -22c-8 -8 -12 -18 -12 -29v-88c0 -11 3 -20 11 -28l31 -31c8 -8 18 -13 30 -13h122c12 0 22 5 30 13l31 31c8 8 11 17 11 28zM699 672h-61l-363 -672h61z
M897 72c0 -11 -3 -20 -11 -28l-31 -31c-8 -8 -18 -13 -30 -13h-122c-12 0 -22 5 -30 13l-31 31c-8 8 -11 17 -11 28v88c0 11 4 21 12 29l22 22l-22 22c-8 8 -12 18 -12 29v67c0 11 3 20 11 28l31 31c8 8 18 13 30 13h122c12 0 22 -5 30 -13l31 -31c8 -8 11 -17 11 -28v-67
c0 -11 -4 -21 -12 -29l-22 -22l22 -22c8 -8 12 -18 12 -29v-88zM699 672l-363 -672h-61l363 672h61zM834 262v59c0 3 -1 6 -3 8l-11 11c-2 2 -5 4 -8 4h-96c-3 0 -6 -2 -8 -4l-11 -11c-2 -2 -3 -5 -3 -8v-59c0 -3 1 -6 3 -8l10 -10c2 -2 6 -4 9 -4h96c3 0 7 2 9 4l10 10
c2 2 3 5 3 8zM834 80v81c0 3 -1 6 -3 8l-10 10c-2 2 -6 4 -9 4h-96c-3 0 -7 -2 -9 -4l-10 -10c-2 -2 -3 -5 -3 -8v-81c0 -3 1 -6 3 -8l11 -11c2 -2 5 -4 8 -4h96c3 0 6 2 8 4l11 11c2 2 3 5 3 8zM834 262c0 -3 -1 -6 -3 -8l-10 -10c-2 -2 -6 -4 -9 -4h-96c-3 0 -7 2 -9 4
l-10 10c-2 2 -3 5 -3 8v59c0 3 1 6 3 8l11 11c2 2 5 4 8 4h96c3 0 6 -2 8 -4l11 -11c2 -2 3 -5 3 -8v-59zM834 80c0 -3 -1 -6 -3 -8l-11 -11c-2 -2 -5 -4 -8 -4h-96c-3 0 -6 2 -8 4l-11 11c-2 2 -3 5 -3 8v81c0 3 1 6 3 8l10 10c2 2 6 4 9 4h96c3 0 7 -2 9 -4l10 -10
c2 -2 3 -5 3 -8v-81zM834 262v59c0 3 -1 6 -3 8l-11 11c-2 2 -5 4 -8 4h-96c-3 0 -6 -2 -8 -4l-11 -11c-2 -2 -3 -5 -3 -8v-59c0 -3 1 -6 3 -8l10 -10c2 -2 6 -4 9 -4h96c3 0 7 2 9 4l10 10c2 2 3 5 3 8zM834 80v81c0 3 -1 6 -3 8l-10 10c-2 2 -6 4 -9 4h-96
c-3 0 -7 -2 -9 -4l-10 -10c-2 -2 -3 -5 -3 -8v-81c0 -3 1 -6 3 -8l11 -11c2 -2 5 -4 8 -4h96c3 0 6 2 8 4l11 11c2 2 3 5 3 8z" />
    <glyph glyph-name="threeeighths" unicode="&#x215c;" horiz-adv-x="974" 
d="M897 72c0 -11 -3 -20 -11 -28l-31 -31c-8 -8 -18 -13 -30 -13h-122c-12 0 -22 5 -30 13l-31 31c-8 8 -11 17 -11 28v88c0 11 4 21 12 29l22 22l-22 22c-8 8 -12 18 -12 29v67c0 11 3 20 11 28l31 31c8 8 18 13 30 13h122c12 0 22 -5 30 -13l31 -31c8 -8 11 -17 11 -28
v-67c0 -11 -4 -21 -12 -29l-22 -22l22 -22c8 -8 12 -18 12 -29v-88zM699 672l-363 -672h-61l363 672h61zM343 338c0 -11 -3 -20 -11 -28l-31 -31c-8 -8 -18 -13 -30 -13h-122c-12 0 -22 5 -30 13l-49 49l41 41l42 -42c2 -2 5 -4 8 -4h97c3 0 6 2 8 4l11 11c2 2 3 5 3 8v81
c0 3 -1 6 -3 8l-10 10c-2 2 -6 4 -9 4h-91v57h91c3 0 7 2 9 4l10 10c2 2 3 5 3 8v59c0 3 -1 6 -3 8l-11 11c-2 2 -5 4 -8 4h-97c-3 0 -6 -2 -8 -4l-42 -42l-41 41l49 49c8 8 18 13 30 13h58h64c12 0 22 -5 30 -13l31 -31c8 -8 11 -17 11 -28v-67c0 -11 -4 -21 -12 -29
l-22 -22l22 -22c8 -8 12 -18 12 -29v-88zM834 262v59c0 3 -1 6 -3 8l-11 11c-2 2 -5 4 -8 4h-96c-3 0 -6 -2 -8 -4l-11 -11c-2 -2 -3 -5 -3 -8v-59c0 -3 1 -6 3 -8l10 -10c2 -2 6 -4 9 -4h96c3 0 7 2 9 4l10 10c2 2 3 5 3 8zM834 80v81c0 3 -1 6 -3 8l-10 10c-2 2 -6 4 -9 4
h-96c-3 0 -7 -2 -9 -4l-10 -10c-2 -2 -3 -5 -3 -8v-81c0 -3 1 -6 3 -8l11 -11c2 -2 5 -4 8 -4h96c3 0 6 2 8 4l11 11c2 2 3 5 3 8z" />
    <glyph glyph-name="fiveeighths" unicode="&#x215d;" horiz-adv-x="974" 
d="M897 72c0 -11 -3 -20 -11 -28l-31 -31c-8 -8 -18 -13 -30 -13h-122c-12 0 -22 5 -30 13l-31 31c-8 8 -11 17 -11 28v88c0 11 4 21 12 29l22 22l-22 22c-8 8 -12 18 -12 29v67c0 11 3 20 11 28l31 31c8 8 18 13 30 13h122c12 0 22 -5 30 -13l31 -31c8 -8 11 -17 11 -28
v-67c0 -11 -4 -21 -12 -29l-22 -22l22 -22c8 -8 12 -18 12 -29v-88zM699 672l-363 -672h-61l363 672h61zM343 338c0 -11 -3 -20 -11 -28l-31 -31c-8 -8 -18 -13 -30 -13h-120c-12 0 -22 5 -30 13l-49 49l41 41l42 -42c2 -2 5 -4 8 -4h96c3 0 6 2 8 4l10 10c2 2 3 5 3 8v94
c0 3 -1 6 -3 8l-11 11c-2 2 -6 4 -9 4h-163v205h224v-57h-161v-91h112c12 0 24 -5 32 -13l31 -31c8 -8 11 -17 11 -28v-109zM834 262v59c0 3 -1 6 -3 8l-11 11c-2 2 -5 4 -8 4h-96c-3 0 -6 -2 -8 -4l-11 -11c-2 -2 -3 -5 -3 -8v-59c0 -3 1 -6 3 -8l10 -10c2 -2 6 -4 9 -4h96
c3 0 7 2 9 4l10 10c2 2 3 5 3 8zM834 80v81c0 3 -1 6 -3 8l-10 10c-2 2 -6 4 -9 4h-96c-3 0 -7 -2 -9 -4l-10 -10c-2 -2 -3 -5 -3 -8v-81c0 -3 1 -6 3 -8l11 -11c2 -2 5 -4 8 -4h96c3 0 6 2 8 4l11 11c2 2 3 5 3 8z" />
    <glyph glyph-name="seveneighths" unicode="&#x215e;" horiz-adv-x="974" 
d="M897 72c0 -11 -3 -20 -11 -28l-31 -31c-8 -8 -18 -13 -30 -13h-122c-12 0 -22 5 -30 13l-31 31c-8 8 -11 17 -11 28v88c0 11 4 21 12 29l22 22l-22 22c-8 8 -12 18 -12 29v67c0 11 3 20 11 28l31 31c8 8 18 13 30 13h122c12 0 22 -5 30 -13l31 -31c8 -8 11 -17 11 -28
v-67c0 -11 -4 -21 -12 -29l-22 -22l22 -22c8 -8 12 -18 12 -29v-88zM699 672l-363 -672h-61l363 672h61zM343 620l-162 -354h-72l162 344h-200v57h272v-47zM834 262v59c0 3 -1 6 -3 8l-11 11c-2 2 -5 4 -8 4h-96c-3 0 -6 -2 -8 -4l-11 -11c-2 -2 -3 -5 -3 -8v-59
c0 -3 1 -6 3 -8l10 -10c2 -2 6 -4 9 -4h96c3 0 7 2 9 4l10 10c2 2 3 5 3 8zM834 80v81c0 3 -1 6 -3 8l-10 10c-2 2 -6 4 -9 4h-96c-3 0 -7 -2 -9 -4l-10 -10c-2 -2 -3 -5 -3 -8v-81c0 -3 1 -6 3 -8l11 -11c2 -2 5 -4 8 -4h96c3 0 6 2 8 4l11 11c2 2 3 5 3 8z" />
    <glyph glyph-name="onethird" unicode="&#x2153;" horiz-adv-x="974" 
d="M897 72c0 -11 -3 -20 -11 -28l-31 -31c-8 -8 -18 -13 -30 -13h-122c-12 0 -22 5 -30 13l-49 49l41 41l42 -42c2 -2 5 -4 8 -4h97c3 0 6 2 8 4l11 11c2 2 3 5 3 8v81c0 3 -1 6 -3 8l-10 10c-2 2 -6 4 -9 4h-91v57h91c3 0 7 2 9 4l10 10c2 2 3 5 3 8v59c0 3 -1 6 -3 8
l-11 11c-2 2 -5 4 -8 4h-97c-3 0 -6 -2 -8 -4l-42 -42l-41 41l49 49c8 8 18 13 30 13h58h64c12 0 22 -5 30 -13l31 -31c8 -8 11 -17 11 -28v-67c0 -11 -4 -21 -12 -29l-22 -22l22 -22c8 -8 12 -18 12 -29v-88zM699 672l-363 -672h-61l363 672h61zM357 266h-266v57h104v271
l-67 -67l-44 44l96 96h78v-344h99v-57z" />
    <glyph glyph-name="twothirds" unicode="&#x2154;" horiz-adv-x="974" 
d="M897 72c0 -11 -3 -20 -11 -28l-31 -31c-8 -8 -18 -13 -30 -13h-122c-12 0 -22 5 -30 13l-49 49l41 41l42 -42c2 -2 5 -4 8 -4h97c3 0 6 2 8 4l11 11c2 2 3 5 3 8v81c0 3 -1 6 -3 8l-10 10c-2 2 -6 4 -9 4h-91v57h91c3 0 7 2 9 4l10 10c2 2 3 5 3 8v59c0 3 -1 6 -3 8
l-11 11c-2 2 -5 4 -8 4h-97c-3 0 -6 -2 -8 -4l-42 -42l-41 41l49 49c8 8 18 13 30 13h58h64c12 0 22 -5 30 -13l31 -31c8 -8 11 -17 11 -28v-67c0 -11 -4 -21 -12 -29l-22 -22l22 -22c8 -8 12 -18 12 -29v-88zM699 672l-363 -672h-61l363 672h61zM343 266h-266v131
c0 16 9 30 24 37l172 76c4 2 7 5 7 10v67c0 3 -1 6 -3 8l-11 11c-2 2 -5 4 -8 4h-98c-3 0 -6 -2 -8 -4l-41 -42l-41 41l49 49c8 8 18 13 30 13h122c12 0 22 -5 30 -13l31 -31c8 -8 11 -17 11 -28v-90c0 -16 -9 -30 -24 -37l-172 -77c-4 -2 -7 -5 -7 -10v-58h203v-57z" />
    <glyph glyph-name="parenrightsuperior" unicode="&#x207e;" horiz-adv-x="239" 
d="M186 302c0 -14 -4 -24 -14 -34l-119 -119l-42 44l102 101c7 7 10 16 10 25v264c0 9 -3 18 -10 24l-102 102l42 43l119 -118c10 -9 14 -21 14 -33v-299z" />
    <glyph glyph-name="parenleftsuperior" unicode="&#x207d;" horiz-adv-x="197" 
d="M11 599c0 14 4 24 14 34l119 119l42 -44l-102 -101c-7 -7 -10 -16 -10 -25v-264c0 -9 3 -18 10 -24l102 -102l-42 -43l-119 118c-10 9 -14 21 -14 33v299z" />
    <glyph glyph-name="parenrightinferior" unicode="&#x208e;" horiz-adv-x="239" 
d="M186 36c0 -14 -4 -24 -14 -34l-119 -119l-42 44l102 101c7 7 10 16 10 25v264c0 9 -3 18 -10 24l-102 102l42 43l119 -118c10 -9 14 -21 14 -33v-299z" />
    <glyph glyph-name="parenleftinferior" unicode="&#x208d;" horiz-adv-x="239" 
d="M53 333c0 14 4 24 14 34l119 119l42 -44l-102 -101c-7 -7 -10 -16 -10 -25v-264c0 -9 3 -18 10 -24l102 -102l-42 -43l-119 118c-10 9 -14 21 -14 33v299z" />
    <glyph glyph-name="figuredash" unicode="&#x2012;" 
d="M542 200h-478v76h478v-76z" />
    <glyph glyph-name="product" unicode="&#x220f;" horiz-adv-x="714" 
d="M704 750v-82h-101v-918h-91v918h-310v-918h-91v918h-101v82h694z" />
    <glyph glyph-name="pi" unicode="&#x3c0;" horiz-adv-x="545" 
d="M532 476v-78h-82v-398h-85v398h-185v-398h-85v398h-82v78h519z" />
    <glyph glyph-name="summation" unicode="&#x2211;" horiz-adv-x="657" 
d="M614 750v-222h-85v134h-380l216 -348l27 -43l-244 -434h387l1 135h88v-222h-597v63l259 458l-259 418v61h587z" />
    <glyph glyph-name="lozenge" unicode="&#x25ca;" horiz-adv-x="667" 
d="M333 -46l-282 380l282 380l283 -380zM333 588l-184 -254l184 -255l185 255z" />
    <glyph glyph-name="Omega" unicode="&#x2126;" horiz-adv-x="735" 
d="M316 92v-92h-225v88h103l-82 82c-14 14 -21 31 -21 50v294c0 19 7 36 21 50l82 82c14 14 31 21 50 21h247c19 0 36 -7 50 -21l82 -82c14 -14 21 -31 21 -50v-294c0 -19 -7 -36 -21 -50l-82 -82h103v-88h-225v92l128 126c4 4 6 9 6 14v270c0 5 -2 10 -6 14l-57 57
c-4 4 -9 6 -14 6h-217c-5 0 -10 -2 -14 -6l-57 -57c-4 -4 -6 -9 -6 -14v-270c0 -5 2 -10 6 -14z" />
    <glyph glyph-name="Delta" unicode="&#x394;" horiz-adv-x="685" 
d="M33 0l251 667h120l248 -667h-619zM528 84l-186 501l-187 -501h373z" />
    <glyph glyph-name="Delta" unicode="&#x2206;" horiz-adv-x="685" 
d="M33 0l251 667h120l248 -667h-619zM528 84l-186 501l-187 -501h373z" />
    <glyph glyph-name="integral" unicode="&#x222b;" horiz-adv-x="500" 
d="M54 -249v78h118c5 0 10 2 14 6l20 20c4 4 6 9 6 16v767c0 21 7 38 21 52l40 40c13 13 30 20 49 20h133v-78h-118c-5 0 -10 -2 -14 -6l-20 -20c-4 -4 -6 -9 -6 -16v-767c0 -21 -7 -38 -21 -52l-41 -40c-14 -14 -30 -20 -49 -20h-132z" />
    <glyph glyph-name="radical" unicode="&#x221a;" horiz-adv-x="667" 
d="M203 70l195 709c9 31 25 48 48 48h272v-72h-233c-10 0 -12 -2 -16 -15l-205 -740h-123l-71 267c-3 12 -5 15 -15 15h-98v71h138c11 0 22 -5 32 -15c10 -11 10 -11 14 -33z" />
    <glyph glyph-name="infinity" unicode="&#x221e;" horiz-adv-x="771" 
d="M385 440l31 29c13 12 28 18 46 18h139c17 0 31 -5 43 -16l42 -39c12 -13 19 -27 19 -43v-16v-115v-16c0 -16 -7 -30 -19 -43l-42 -39c-12 -11 -25 -16 -43 -16h-139c-18 0 -33 6 -46 18l-31 29l-31 -29c-13 -12 -28 -18 -46 -18h-138c-18 0 -32 5 -43 16l-42 39
c-14 13 -20 27 -20 43v13v121v13c0 16 6 30 20 43l42 39c12 11 25 16 43 16h138c18 0 33 -6 46 -18zM583 419h-111c-5 0 -8 -1 -12 -4l-31 -28c-3 -3 -5 -7 -5 -11v-121c0 -4 2 -8 5 -11l31 -28c3 -3 7 -4 12 -4h112c5 0 8 1 11 4l35 31c3 3 5 7 5 11v115c0 4 -2 8 -5 11
l-35 31c-3 3 -7 4 -12 4zM294 419h-110c-6 0 -9 -1 -12 -4l-31 -28c-3 -3 -5 -7 -5 -11v-121c0 -4 2 -8 5 -11l31 -28c3 -3 7 -4 12 -4h111c5 0 9 1 12 4l34 31c3 3 5 7 5 11v115c0 4 -2 8 -5 11l-34 31c-3 3 -7 4 -13 4z" />
    <glyph glyph-name="partialdiff" unicode="&#x2202;" 
d="M146 522l-55 54l69 69c14 14 31 22 51 22h191c20 0 37 -8 51 -22l47 -47c14 -14 19 -29 19 -48v-433c0 -19 -5 -34 -19 -48l-47 -47c-14 -14 -31 -22 -51 -22h-191c-20 0 -37 8 -51 22l-47 47c-14 14 -19 29 -19 48v179c0 19 5 34 19 48l47 47c14 14 31 22 51 22h124
c20 0 37 -8 51 -22l48 -48v203c0 5 -1 10 -5 14l-23 23c-4 4 -9 6 -15 6h-169c-6 0 -11 -2 -15 -6zM179 291v-170c0 -5 1 -10 5 -14l23 -23c4 -4 9 -6 15 -6h169c6 0 11 2 15 6l23 23c4 4 5 9 5 14v112c0 5 -1 10 -5 14l-83 82c-3 4 -9 6 -15 6h-109c-6 0 -11 -2 -15 -6
l-23 -23c-4 -4 -5 -10 -5 -15z" />
    <glyph glyph-name="zero.numr" horiz-adv-x="420" 
d="M343 338c0 -11 -3 -20 -11 -28l-31 -31c-8 -8 -17 -13 -29 -13h-124c-12 0 -21 5 -29 13l-31 31c-8 8 -11 17 -11 28v257c0 11 3 20 11 28l31 31c8 8 17 13 29 13h121c12 0 24 -5 32 -13l31 -31c8 -8 11 -17 11 -28v-257zM280 346v241c0 3 -1 6 -3 8l-11 11
c-2 2 -6 4 -9 4h-94c-3 0 -7 -2 -9 -4l-11 -11c-2 -2 -3 -5 -3 -8v-241c0 -3 1 -6 3 -8l11 -11c2 -2 6 -4 9 -4h95c3 0 7 2 9 4l10 10c2 2 3 6 3 9z" />
    <glyph glyph-name="one.numr" horiz-adv-x="420" 
d="M357 266h-266v57h104v271l-67 -67l-44 44l96 96h78v-344h99v-57z" />
    <glyph glyph-name="two.numr" horiz-adv-x="420" 
d="M343 266h-266v131c0 16 9 30 24 37l172 76c4 2 7 5 7 10v67c0 3 -1 6 -3 8l-11 11c-2 2 -5 4 -8 4h-98c-3 0 -6 -2 -8 -4l-41 -42l-41 41l49 49c8 8 18 13 30 13h122c12 0 22 -5 30 -13l31 -31c8 -8 11 -17 11 -28v-90c0 -16 -9 -30 -24 -37l-172 -77c-4 -2 -7 -5 -7 -10
v-58h203v-57z" />
    <glyph glyph-name="three.numr" horiz-adv-x="420" 
d="M343 338c0 -11 -3 -20 -11 -28l-31 -31c-8 -8 -18 -13 -30 -13h-122c-12 0 -22 5 -30 13l-49 49l41 41l42 -42c2 -2 5 -4 8 -4h97c3 0 6 2 8 4l11 11c2 2 3 5 3 8v81c0 3 -1 6 -3 8l-10 10c-2 2 -6 4 -9 4h-91v57h91c3 0 7 2 9 4l10 10c2 2 3 5 3 8v59c0 3 -1 6 -3 8
l-11 11c-2 2 -5 4 -8 4h-97c-3 0 -6 -2 -8 -4l-42 -42l-41 41l49 49c8 8 18 13 30 13h58h64c12 0 22 -5 30 -13l31 -31c8 -8 11 -17 11 -28v-67c0 -11 -4 -21 -12 -29l-22 -22l22 -22c8 -8 12 -18 12 -29v-88z" />
    <glyph glyph-name="four.numr" horiz-adv-x="418" 
d="M354 370h-54v-104h-57v104h-180v49l160 248h77v-240h54v-57zM240 427v165l-108 -165h108z" />
    <glyph glyph-name="five.numr" horiz-adv-x="420" 
d="M343 338c0 -11 -3 -20 -11 -28l-31 -31c-8 -8 -18 -13 -30 -13h-120c-12 0 -22 5 -30 13l-49 49l41 41l42 -42c2 -2 5 -4 8 -4h96c3 0 6 2 8 4l10 10c2 2 3 5 3 8v94c0 3 -1 6 -3 8l-11 11c-2 2 -6 4 -9 4h-163v205h224v-57h-161v-91h112c12 0 24 -5 32 -13l31 -31
c8 -8 11 -17 11 -28v-109z" />
    <glyph glyph-name="six.numr" horiz-adv-x="420" 
d="M350 605l-41 -41l-42 42c-2 2 -5 4 -8 4h-96c-4 0 -7 -2 -9 -4l-11 -11c-2 -2 -3 -5 -3 -8v-99l19 19c8 8 18 12 30 12h81c12 0 22 -4 30 -12l32 -32c8 -8 11 -17 11 -28v-109c0 -11 -3 -20 -11 -28l-31 -31c-8 -8 -17 -13 -29 -13h-124c-12 0 -21 5 -29 13l-31 31
c-8 8 -11 17 -11 28v257c0 11 3 20 11 28l31 31c8 8 17 13 29 13h120c12 0 25 -5 33 -13zM280 346v95c0 3 -1 6 -3 8l-10 10c-2 2 -5 3 -8 3h-66c-3 0 -6 -1 -8 -3l-42 -42c-2 -2 -3 -5 -3 -8v-63c0 -3 1 -6 3 -8l11 -11c2 -2 6 -4 9 -4h95c3 0 7 2 9 4l10 10c2 2 3 6 3 9z
" />
    <glyph glyph-name="seven.numr" horiz-adv-x="420" 
d="M343 620l-162 -354h-72l162 344h-200v57h272v-47z" />
    <glyph glyph-name="eight.numr" horiz-adv-x="420" 
d="M343 338c0 -11 -3 -20 -11 -28l-31 -31c-8 -8 -18 -13 -30 -13h-122c-12 0 -22 5 -30 13l-31 31c-8 8 -11 17 -11 28v88c0 11 4 21 12 29l22 22l-22 22c-8 8 -12 18 -12 29v67c0 11 3 20 11 28l31 31c8 8 18 13 30 13h122c12 0 22 -5 30 -13l31 -31c8 -8 11 -17 11 -28
v-67c0 -11 -4 -21 -12 -29l-22 -22l22 -22c8 -8 12 -18 12 -29v-88zM280 528v59c0 3 -1 6 -3 8l-11 11c-2 2 -5 4 -8 4h-96c-3 0 -6 -2 -8 -4l-11 -11c-2 -2 -3 -5 -3 -8v-59c0 -3 1 -6 3 -8l10 -10c2 -2 6 -4 9 -4h96c3 0 7 2 9 4l10 10c2 2 3 5 3 8zM280 346v81
c0 3 -1 6 -3 8l-10 10c-2 2 -6 4 -9 4h-96c-3 0 -7 -2 -9 -4l-10 -10c-2 -2 -3 -5 -3 -8v-81c0 -3 1 -6 3 -8l11 -11c2 -2 5 -4 8 -4h96c3 0 6 2 8 4l11 11c2 2 3 5 3 8z" />
    <glyph glyph-name="nine.numr" horiz-adv-x="420" 
d="M343 338c0 -11 -3 -20 -11 -28l-31 -31c-8 -8 -17 -13 -29 -13h-120c-12 0 -25 5 -33 13l-49 49l41 41l42 -42c2 -2 5 -4 8 -4h97c4 0 7 2 9 4l10 10c2 2 3 5 3 8v99l-19 -19c-8 -8 -18 -12 -30 -12h-81c-12 0 -22 4 -30 12l-32 32c-8 8 -11 17 -11 28v110
c0 11 3 20 11 28l31 31c8 8 17 13 29 13h124c12 0 21 -5 29 -13l31 -31c8 -8 11 -17 11 -28v-257zM280 523v64c0 3 -1 6 -3 8l-11 11c-2 2 -6 4 -9 4h-94c-3 0 -7 -2 -9 -4l-11 -11c-2 -2 -3 -6 -3 -9v-95c0 -3 1 -6 3 -8l10 -10c2 -2 5 -3 8 -3h66c3 0 6 1 8 3l42 42
c2 2 3 5 3 8z" />
    <glyph glyph-name="parenleft.numr" horiz-adv-x="197" 
d="M11 599c0 14 4 24 14 34l119 119l42 -44l-102 -101c-7 -7 -10 -16 -10 -25v-264c0 -9 3 -18 10 -24l102 -102l-42 -43l-119 118c-10 9 -14 21 -14 33v299z" />
    <glyph glyph-name="parenright.numr" horiz-adv-x="239" 
d="M186 302c0 -14 -4 -24 -14 -34l-119 -119l-42 44l102 101c7 7 10 16 10 25v264c0 9 -3 18 -10 24l-102 102l42 43l119 -118c10 -9 14 -21 14 -33v-299z" />
    <glyph glyph-name="zero.dnom" horiz-adv-x="420" 
d="M343 72c0 -11 -3 -20 -11 -28l-31 -31c-8 -8 -17 -13 -29 -13h-124c-12 0 -21 5 -29 13l-31 31c-8 8 -11 17 -11 28v257c0 11 3 20 11 28l31 31c8 8 17 13 29 13h121c12 0 24 -5 32 -13l31 -31c8 -8 11 -17 11 -28v-257zM280 80v241c0 3 -1 6 -3 8l-11 11c-2 2 -6 4 -9 4
h-94c-3 0 -7 -2 -9 -4l-11 -11c-2 -2 -3 -5 -3 -8v-241c0 -3 1 -6 3 -8l11 -11c2 -2 6 -4 9 -4h95c3 0 7 2 9 4l10 10c2 2 3 6 3 9z" />
    <glyph glyph-name="one.dnom" horiz-adv-x="420" 
d="M357 0h-266v57h104v271l-67 -67l-44 44l96 96h78v-344h99v-57z" />
    <glyph glyph-name="two.dnom" horiz-adv-x="420" 
d="M343 0h-266v131c0 16 9 30 24 37l172 76c4 2 7 5 7 10v67c0 3 -1 6 -3 8l-11 11c-2 2 -5 4 -8 4h-98c-3 0 -6 -2 -8 -4l-41 -42l-41 41l49 49c8 8 18 13 30 13h122c12 0 22 -5 30 -13l31 -31c8 -8 11 -17 11 -28v-90c0 -16 -9 -30 -24 -37l-172 -77c-4 -2 -7 -5 -7 -10
v-58h203v-57z" />
    <glyph glyph-name="three.dnom" horiz-adv-x="420" 
d="M343 72c0 -11 -3 -20 -11 -28l-31 -31c-8 -8 -18 -13 -30 -13h-122c-12 0 -22 5 -30 13l-49 49l41 41l42 -42c2 -2 5 -4 8 -4h97c3 0 6 2 8 4l11 11c2 2 3 5 3 8v81c0 3 -1 6 -3 8l-10 10c-2 2 -6 4 -9 4h-91v57h91c3 0 7 2 9 4l10 10c2 2 3 5 3 8v59c0 3 -1 6 -3 8
l-11 11c-2 2 -5 4 -8 4h-97c-3 0 -6 -2 -8 -4l-42 -42l-41 41l49 49c8 8 18 13 30 13h58h64c12 0 22 -5 30 -13l31 -31c8 -8 11 -17 11 -28v-67c0 -11 -4 -21 -12 -29l-22 -22l22 -22c8 -8 12 -18 12 -29v-88z" />
    <glyph glyph-name="four.dnom" horiz-adv-x="418" 
d="M354 104h-54v-104h-57v104h-180v49l160 248h77v-240h54v-57zM240 161v165l-108 -165h108z" />
    <glyph glyph-name="five.dnom" horiz-adv-x="420" 
d="M344 180l-1 -108c0 -11 -3 -20 -11 -28l-31 -31c-8 -8 -18 -13 -30 -13h-120c-12 0 -22 5 -30 13l-49 49l41 41l42 -42c2 -2 5 -4 8 -4h96c3 0 6 2 8 4l10 10c2 2 3 5 3 8v94c0 3 -1 6 -3 8l-11 11c-2 2 -6 4 -9 4h-163v205h224v-57h-161v-91h112c12 0 24 -5 32 -13
l32 -32c8 -8 11 -17 11 -28z" />
    <glyph glyph-name="six.dnom" horiz-adv-x="420" 
d="M350 339l-41 -41l-42 42c-2 2 -5 4 -8 4h-96c-4 0 -7 -2 -9 -4l-11 -11c-2 -2 -3 -5 -3 -8v-99l19 19c8 8 18 12 30 12h81c12 0 22 -4 30 -12l32 -32c8 -8 11 -17 11 -28v-109c0 -11 -3 -20 -11 -28l-31 -31c-8 -8 -17 -13 -29 -13h-124c-12 0 -21 5 -29 13l-31 31
c-8 8 -11 17 -11 28v257c0 11 3 20 11 28l31 31c8 8 17 13 29 13h120c12 0 25 -5 33 -13zM280 80v95c0 3 -1 6 -3 8l-10 10c-2 2 -5 3 -8 3h-66c-3 0 -6 -1 -8 -3l-42 -42c-2 -2 -3 -5 -3 -8v-63c0 -3 1 -6 3 -8l11 -11c2 -2 6 -4 9 -4h95c3 0 7 2 9 4l10 10c2 2 3 6 3 9z
" />
    <glyph glyph-name="seven.dnom" horiz-adv-x="420" 
d="M343 354l-162 -354h-72l162 344h-200v57h272v-47z" />
    <glyph glyph-name="eight.dnom" horiz-adv-x="420" 
d="M343 72c0 -11 -3 -20 -11 -28l-31 -31c-8 -8 -18 -13 -30 -13h-122c-12 0 -22 5 -30 13l-31 31c-8 8 -11 17 -11 28v88c0 11 4 21 12 29l22 22l-22 22c-8 8 -12 18 -12 29v67c0 11 3 20 11 28l31 31c8 8 18 13 30 13h122c12 0 22 -5 30 -13l31 -31c8 -8 11 -17 11 -28
v-67c0 -11 -4 -21 -12 -29l-22 -22l22 -22c8 -8 12 -18 12 -29v-88zM280 262v59c0 3 -1 6 -3 8l-11 11c-2 2 -5 4 -8 4h-96c-3 0 -6 -2 -8 -4l-11 -11c-2 -2 -3 -5 -3 -8v-59c0 -3 1 -6 3 -8l10 -10c2 -2 6 -4 9 -4h96c3 0 7 2 9 4l10 10c2 2 3 5 3 8zM280 80v81
c0 3 -1 6 -3 8l-10 10c-2 2 -6 4 -9 4h-96c-3 0 -7 -2 -9 -4l-10 -10c-2 -2 -3 -5 -3 -8v-81c0 -3 1 -6 3 -8l11 -11c2 -2 5 -4 8 -4h96c3 0 6 2 8 4l11 11c2 2 3 5 3 8z" />
    <glyph glyph-name="nine.dnom" horiz-adv-x="420" 
d="M343 72c0 -11 -3 -20 -11 -28l-31 -31c-8 -8 -17 -13 -29 -13h-120c-12 0 -25 5 -33 13l-49 49l41 41l42 -42c2 -2 5 -4 8 -4h97c4 0 7 2 9 4l10 10c2 2 3 5 3 8v99l-19 -19c-8 -8 -18 -12 -30 -12h-81c-12 0 -22 4 -30 12l-32 32c-8 8 -11 17 -11 28v110
c0 11 3 20 11 28l31 31c8 8 17 13 29 13h124c12 0 21 -5 29 -13l31 -31c8 -8 11 -17 11 -28v-257zM280 257v64c0 3 -1 6 -3 8l-11 11c-2 2 -6 4 -9 4h-94c-3 0 -7 -2 -9 -4l-11 -11c-2 -2 -3 -6 -3 -9v-95c0 -3 1 -6 3 -8l10 -10c2 -2 5 -3 8 -3h66c3 0 6 1 8 3l42 42
c2 2 3 5 3 8z" />
    <glyph glyph-name="parenleft.dnom" horiz-adv-x="239" 
d="M53 333c0 14 4 24 14 34l119 119l42 -44l-102 -101c-7 -7 -10 -16 -10 -25v-264c0 -9 3 -18 10 -24l102 -102l-42 -43l-119 118c-10 9 -14 21 -14 33v299z" />
    <glyph glyph-name="parenright.dnom" horiz-adv-x="239" 
d="M186 36c0 -14 -4 -24 -14 -34l-119 -119l-42 44l102 101c7 7 10 16 10 25v264c0 9 -3 18 -10 24l-102 102l42 43l119 -118c10 -9 14 -21 14 -33v-299z" />
    <glyph glyph-name="uni03A9" unicode="&#x3a9;" horiz-adv-x="735" 
d="M316 92v-92h-225v88h103l-82 82c-14 14 -21 31 -21 50v294c0 19 7 36 21 50l82 82c14 14 31 21 50 21h247c19 0 36 -7 50 -21l82 -82c14 -14 21 -31 21 -50v-294c0 -19 -7 -36 -21 -50l-82 -82h103v-88h-225v92l128 126c4 4 6 9 6 14v270c0 5 -2 10 -6 14l-57 57
c-4 4 -9 6 -14 6h-217c-5 0 -10 -2 -14 -6l-57 -57c-4 -4 -6 -9 -6 -14v-270c0 -5 2 -10 6 -14z" />
    </font>
</defs>
</svg>
