<?xml version="1.0" standalone="no"?>
<!DOCTYPE svg PUBLIC "-//W3C//DTD SVG 1.1//EN" "http://www.w3.org/Graphics/SVG/1.1/DTD/svg11.dtd" >
<svg xmlns="http://www.w3.org/2000/svg" width="100%" height="100%">
<metadata>
Created by FontXChange 20100429 at Tue Jul 16 16:41:28 2013
 By Diego Martins da Rocha
Copyright 2006-2009 Dalton Maag Ltd. All rights reserved. This font may not be altered in any way without prior permission of Dalton Maag Ltd.
</metadata>
<defs>
<font id="ConsulCoHeadline-Light" horiz-adv-x="450" >
  <font-face 
    font-family="Consul Co Headline Light"
    font-weight="400"
    font-stretch="normal"
    units-per-em="1000"
    panose-1="2 11 5 3 6 2 2 2 2 4"
    ascent="800"
    descent="-200"
    x-height="494"
    cap-height="686"
    bbox="-230 -225 1225 941"
    underline-thickness="50"
    underline-position="-50"
    unicode-range="U+0008-FB04"
  />
<missing-glyph horiz-adv-x="500" 
d="M50 0v750h400v-750h-400zM400 50v650h-300v-650h300z" />
    <glyph glyph-name="f_f" unicode="ff" horiz-adv-x="682" 
d="M396 682q0 -9 -5 -17t-12 -13q-20 14 -50 22.5t-65 8.5q-40 0 -66 -10.5t-41.5 -30t-22 -47.5t-6.5 -63v-38h292v47q0 53 14.5 90.5t41 61t62.5 34t78 10.5q54 0 81.5 -8.5t35.5 -13.5q9 -5 15 -12.5t6 -20.5q0 -9 -5 -17t-12 -13q-20 14 -50 22.5t-65 8.5
q-40 0 -66 -10.5t-41.5 -30t-22 -47.5t-6.5 -63v-38h189q21 0 29 -9.5t8 -23.5q0 -8 -2 -15t-4 -12h-220v-434h-66v434h-292v-434h-66v541q0 53 14.5 90.5t41 61t62.5 34t78 10.5q54 0 81.5 -8.5t35.5 -13.5q9 -5 15 -12.5t6 -20.5z" />
    <glyph glyph-name="f_i" unicode="fi" horiz-adv-x="554" 
d="M421 0v434h-293v-434h-66v541q0 57 18 94.5t48 60t69 32t81 9.5q54 0 89 -8t47 -15q9 -5 15.5 -12t6.5 -20q0 -9 -5 -17.5t-12 -13.5q-10 7 -25.5 13t-34.5 10t-38.5 6.5t-36.5 2.5q-80 0 -118 -37.5t-38 -119.5v-32h315q20 0 32 -8t12 -31v-455h-66z" />
    <glyph glyph-name="f_l" unicode="fl" horiz-adv-x="534" 
d="M467 0h-66v665q-10 3 -43 10.5t-81 7.5q-77 0 -113 -37.5t-36 -119.5v-32h189q21 0 29 -9.5t8 -23.5q0 -8 -2 -15t-4 -12h-220v-434h-66v541q0 57 18 94.5t48 60t69 32t81 9.5q40 0 74 -5t59 -11.5t39.5 -12t16.5 -6.5v-702z" />
    <glyph glyph-name="f_f_i" unicode="ffi" horiz-adv-x="912" 
d="M779 0v434h-293v-434h-66v434h-292v-434h-66v541q0 53 14.5 90.5t41 61t62.5 34t78 10.5q54 0 81.5 -8.5t35.5 -13.5q9 -5 15 -12.5t6 -20.5q0 -9 -5 -17t-12 -13q-20 14 -50 22.5t-65 8.5q-40 0 -66 -10.5t-41.5 -30t-22 -47.5t-6.5 -63v-38h292v47q0 57 18 94.5t48 60
t69 32t81 9.5q54 0 89 -8t47 -15q9 -5 15.5 -12t6.5 -20q0 -9 -5 -17.5t-12 -13.5q-10 7 -25.5 13t-34.5 10t-38.5 6.5t-36.5 2.5q-80 0 -118 -37.5t-38 -119.5v-32h315q20 0 32 -8t12 -31v-455h-66z" />
    <glyph glyph-name="f_f_l" unicode="ffl" horiz-adv-x="888" 
d="M821 0h-66v665q-10 3 -43 10.5t-81 7.5q-77 0 -113 -37.5t-36 -119.5v-32h189q21 0 29 -9.5t8 -23.5q0 -8 -2 -15t-4 -12h-220v-434h-66v434h-288v-434h-66v541q0 53 14.5 90.5t41 61t62.5 34t78 10.5q54 0 81.5 -8.5t35.5 -13.5q9 -5 15 -12.5t6 -20.5q0 -9 -5 -17
t-12 -13q-20 14 -50 22.5t-65 8.5q-40 0 -66 -10.5t-41.5 -30t-22 -47.5t-6.5 -63v-38h288v47q0 57 18 94.5t48 60t69 32t81 9.5q40 0 74 -5t59 -11.5t39.5 -12t16.5 -6.5v-702z" />
    <glyph glyph-name=".notdef" horiz-adv-x="500" 
d="M50 0v750h400v-750h-400zM400 50v650h-300v-650h300z" />
    <glyph glyph-name=".null" horiz-adv-x="0" 
 />
    <glyph glyph-name=".null" horiz-adv-x="0" 
 />
    <glyph glyph-name=".null" horiz-adv-x="0" 
 />
    <glyph glyph-name="nonmarkingreturn" unicode="&#x9;" horiz-adv-x="256" 
 />
    <glyph glyph-name="nonmarkingreturn" unicode="&#xd;" horiz-adv-x="256" 
 />
    <glyph glyph-name="space" unicode=" " horiz-adv-x="256" 
 />
    <glyph glyph-name="exclam" unicode="!" horiz-adv-x="200" 
d="M67 195v457q0 15 9 24.5t26 9.5q9 0 17.5 -3t13.5 -5v-483h-66zM157 42q0 -23 -16.5 -39.5t-39.5 -16.5t-40.5 16.5t-17.5 39.5t17.5 40.5t40.5 17.5t39.5 -17.5t16.5 -40.5z" />
    <glyph glyph-name="quotedbl" unicode="&#x22;" horiz-adv-x="457" 
d="M92 494v207q0 14 9.5 25t27.5 11q10 0 19.5 -3.5t14.5 -7.5v-232h-71zM294 494v207q0 14 9.5 25t27.5 11q10 0 19.5 -3.5t14.5 -7.5v-232h-71z" />
    <glyph glyph-name="numbersign" unicode="#" horiz-adv-x="767" 
d="M552 668q6 36 37 36q7 0 13.5 -2t11.5 -4l-31 -176h108q18 0 26 -9t8 -23q0 -8 -2 -15.5t-4 -12.5h-146l-39 -225h108q18 0 26 -9t8 -23q0 -8 -2 -15.5t-4 -12.5h-147l-30 -177h-56l30 177h-227l-30 -177h-56l30 177h-106q-20 0 -28 9t-8 23q0 17 8 28h145l38 225h-106
q-20 0 -28 9t-8 23q0 17 8 28h145l25 146q6 36 37 36q7 0 13.5 -2t11.5 -4l-31 -176h227zM251 237h227l38 225h-226z" />
    <glyph glyph-name="dollar" unicode="$" horiz-adv-x="634" 
d="M521 644q16 -11 19.5 -20.5t3.5 -17.5q0 -11 -6.5 -23t-18.5 -19q-7 8 -22.5 19.5t-39.5 23t-55 20.5t-69 11v-259l46 -9q100 -20 150 -62.5t50 -116.5q0 -39 -14.5 -73t-44.5 -59.5t-76.5 -41.5t-110.5 -20v-109h-55v109q-46 3 -84 11.5t-68.5 19.5t-53.5 23t-39 23
l32 49l29.5 -18t44.5 -21.5t60.5 -19.5t78.5 -12v271l-50 11q-39 9 -72.5 23t-59 35t-40 50t-14.5 68q0 35 12.5 66t40.5 55.5t73 41t110 22.5v81q0 10 7.5 17t21.5 7q10 0 17 -2t9 -3v-101q42 -2 74.5 -8.5t55.5 -14.5t37.5 -15.5t20.5 -11.5zM505 180q0 33 -12 56
t-34 38.5t-54 24.5t-72 15v-263q78 8 125 38.5t47 90.5zM278 638q-78 -4 -123.5 -32.5t-45.5 -88.5q0 -29 13.5 -50.5t37 -37.5t54 -26t64.5 -16v251z" />
    <glyph glyph-name="percent" unicode="%" horiz-adv-x="915" 
d="M418 548q0 -39 -15.5 -73.5t-41.5 -60t-61 -40t-75 -14.5t-75 14.5t-61.5 40t-41.5 60t-15 73.5q0 40 15 74.5t41.5 60t61.5 40t75 14.5t75 -14.5t61 -40t41.5 -60t15.5 -74.5zM361 548q0 28 -10.5 53t-29 44t-43.5 29.5t-53 10.5t-52.5 -10.5t-43 -29.5t-29 -44
t-10.5 -53t10.5 -52.5t29 -43t43 -29t52.5 -10.5t53 10.5t43.5 29t29 43t10.5 52.5zM623 711q5 10 12.5 18t26.5 8q13 0 19.5 -5t11.5 -10l-419 -722h-64zM883 177q0 -39 -15.5 -73.5t-41.5 -60t-61 -40t-75 -14.5t-75 14.5t-61.5 40t-41.5 60t-15 73.5q0 40 15 74.5
t41.5 60t61.5 40t75 14.5t75 -14.5t61 -40t41.5 -60t15.5 -74.5zM826 177q0 28 -10.5 53t-29 44t-43.5 29.5t-53 10.5t-52.5 -10.5t-43 -29.5t-29 -44t-10.5 -53t10.5 -52.5t29 -43t43 -29t52.5 -10.5t53 10.5t43.5 29t29 43t10.5 52.5z" />
    <glyph glyph-name="ampersand" unicode="&#x26;" horiz-adv-x="729" 
d="M561 324h-244q-87 0 -133 -36.5t-46 -108.5q0 -78 64 -109.5t186 -31.5q87 0 127 4.5t46 6.5v275zM627 324v-329q-4 -1 -65 -7t-167 -6q-98 0 -161.5 15.5t-100.5 42t-51.5 61.5t-14.5 75q0 61 29 108t104 70q-32 12 -54 29.5t-35.5 38.5t-19.5 44.5t-6 47.5q0 42 16 77
t47 60t76.5 39t104.5 14q40 0 71 -4.5t52.5 -10.5t34.5 -12t18 -10q18 -14 18 -32q0 -11 -5 -19.5t-13 -15.5q-19 16 -62.5 32.5t-115.5 16.5q-80 0 -128 -31.5t-48 -103.5q0 -38 14.5 -63t41 -40t62.5 -21t79 -6h324q21 0 29 -9.5t8 -23.5q0 -8 -2 -15t-4 -12h-76z" />
    <glyph glyph-name="quotesingle" unicode="'" horiz-adv-x="262" 
d="M96 494v207q0 14 9.5 25t27.5 11q10 0 19.5 -3.5t14.5 -7.5v-232h-71z" />
    <glyph glyph-name="parenleft" unicode="(" horiz-adv-x="331" 
d="M309 -132q-51 12 -98 46t-82 88.5t-56 130t-21 170.5t21 170t56 129.5t82 88.5t98 46v-60q-46 -18 -81 -52t-58.5 -82t-35.5 -108.5t-12 -131.5t12 -132t35.5 -109t58.5 -82t81 -52v-60z" />
    <glyph glyph-name="parenright" unicode=")" horiz-adv-x="331" 
d="M22 -72q46 18 81 52t58.5 82t35.5 109t12 132t-12 131.5t-35.5 108.5t-58.5 82t-81 52v60q51 -12 98 -46t82 -88.5t56 -129.5t21 -170t-21 -170.5t-56 -130t-82 -88.5t-98 -46v60z" />
    <glyph glyph-name="asterisk" unicode="*" horiz-adv-x="521" 
d="M486 558l-181 -54l118 -152l-50 -34l-112 162l-112 -162l-48 34l114 152l-179 54v14q0 17 10.5 26.5t21.5 9.5q7 0 12 -1.5t9 -3.5l144 -58l-5 156q-1 21 9.5 28.5t25.5 7.5q5 0 14 -2.5t15 -4.5l-5 -184l146 57q4 2 9 3.5t12 1.5q11 0 21.5 -9.5t10.5 -26.5v-14z" />
    <glyph glyph-name="plus" unicode="+" horiz-adv-x="637" 
d="M578 338q0 -9 -2 -16.5t-4 -12.5h-220v-226h-65v226h-194q-19 0 -26.5 9t-7.5 23q0 8 2 15.5t4 12.5h222v200q0 14 8 23.5t26 9.5q19 0 31 -7v-226h192q19 0 26.5 -9t7.5 -22z" />
    <glyph glyph-name="comma" unicode="," horiz-adv-x="262" 
d="M84 -150l-53 21l61 198q10 35 44 35q23 0 34.5 -9.5t13.5 -11.5z" />
    <glyph glyph-name="hyphen" unicode="-" horiz-adv-x="332" 
d="M75 235q-22 0 -30 12t-8 27t6 32h214q22 0 30 -12t8 -27q0 -16 -6 -32h-214z" />
    <glyph glyph-name="period" unicode="." horiz-adv-x="262" 
d="M190 46q0 -25 -17 -42.5t-41 -17.5q-25 0 -42.5 17.5t-17.5 42.5q0 24 17.5 41t42.5 17q24 0 41 -17t17 -41z" />
    <glyph glyph-name="slash" unicode="/" horiz-adv-x="323" 
d="M64 -18h-64l252 725q5 14 13 22t28 8q11 0 19 -3.5t11 -6.5z" />
    <glyph glyph-name="zero" unicode="0" horiz-adv-x="663" 
d="M613 343q0 -85 -20 -152t-56.5 -113.5t-88.5 -71t-116 -24.5q-65 0 -117 24.5t-88.5 71t-56.5 113.5t-20 152t20 152t56.5 113.5t88.5 71t117 24.5q64 0 116 -24.5t88.5 -71t56.5 -113.5t20 -152zM540 343q0 60 -12 115t-37.5 97t-65 66.5t-93.5 24.5q-55 0 -94.5 -24.5
t-65 -66.5t-37.5 -97t-12 -115t12 -115t37.5 -97t65 -66.5t94.5 -24.5q54 0 93.5 24.5t65 66.5t37.5 97t12 115z" />
    <glyph glyph-name="one" unicode="1" horiz-adv-x="449" 
d="M250 0v611l-198 -136q-11 3 -21.5 12t-10.5 23q0 8 3.5 16t16.5 18l181 123q8 6 21.5 12.5t33.5 6.5q18 0 28.5 -5.5t14.5 -10.5v-670h-69z" />
    <glyph glyph-name="two" unicode="2" horiz-adv-x="554" 
d="M386 277q-18 -19 -55.5 -50.5l-79 -64.5l-79.5 -61.5t-57 -40.5h384v-60h-479v65l55.5 38.5l72.5 53l75.5 58t64.5 54.5q25 23 49 48.5t42.5 53.5t30 59.5t11.5 67.5q0 28 -9.5 55t-31 48t-55 33.5t-81.5 12.5q-46 0 -79 -14t-54.5 -31.5t-32 -34.5t-12.5 -23
q-17 3 -29.5 12t-12.5 25q0 22 18 45q5 6 20 19t40.5 26t61 23t80.5 10q62 0 109 -15.5t78.5 -43t47 -65t15.5 -82.5q0 -38 -9.5 -69.5t-24.5 -58t-34.5 -49.5t-39.5 -44z" />
    <glyph glyph-name="three" unicode="3" horiz-adv-x="583" 
d="M250 384q41 0 75.5 9t59 26.5t38 42.5t13.5 57q0 64 -47 96t-128 32q-46 0 -80 -11.5t-56.5 -26.5t-35 -30t-15.5 -23q-17 2 -28.5 11.5t-11.5 23.5q0 24 18 43q6 7 22 19t42 23t62 19.5t83 8.5q68 0 115 -16t76 -41.5t42 -56.5t13 -62q0 -33 -11.5 -61t-29.5 -50
t-41 -38t-47 -26q76 -20 109.5 -68t33.5 -104q0 -43 -17.5 -79.5t-50.5 -63t-81 -41.5t-108 -15q-43 0 -82 6.5t-71 16t-56.5 20t-39.5 19.5l26 54q15 -9 37.5 -18.5t50.5 -18t61 -14t68 -5.5q85 0 137.5 35t52.5 108q0 35 -15 60.5t-42 42t-64 24t-81 7.5h-55q-2 2 -6 11.5
t-4 20.5q0 33 39 33h30z" />
    <glyph glyph-name="four" unicode="4" horiz-adv-x="611" 
d="M546 228q15 0 25 -7t10 -23q0 -11 -4 -18.5t-6 -10.5h-82v-169h-70v169h-234q-80 0 -112.5 23.5t-32.5 70.5q0 28 9.5 58t25.5 60t37.5 59.5t44.5 57.5q32 38 69 72.5t74 60t71.5 40.5t62.5 15t40 -6t15 -8v-444h57zM419 228v401q-44 -19 -99.5 -59.5t-102.5 -94.5
l-36 -44t-34.5 -50t-25.5 -52t-10 -50q0 -34 23 -42.5t60 -8.5h225z" />
    <glyph glyph-name="five" unicode="5" horiz-adv-x="564" 
d="M72 646q1 18 12 29t34 11h332q15 0 24.5 -7t9.5 -23q0 -11 -3.5 -18.5l-5.5 -11.5h-342l-7 -227q20 4 56.5 7.5t71.5 3.5q73 0 123 -18.5t81 -48.5t44.5 -68t13.5 -77q0 -47 -17.5 -86.5t-53 -68.5t-87.5 -45t-121 -16q-38 0 -72.5 5.5t-63.5 14t-50.5 17.5t-32.5 16
l27 54q38 -20 86 -34t112 -14q97 0 148.5 41.5t51.5 111.5q0 74 -52.5 115.5t-161.5 41.5q-50 0 -92.5 -6t-74.5 -15z" />
    <glyph glyph-name="six" unicode="6" horiz-adv-x="609" 
d="M317 681q8 11 17 17t26 6q15 0 24.5 -6t12.5 -11l-212 -274q17 12 50 25.5t87 13.5q55 0 100.5 -18.5t77.5 -49.5t49.5 -72t17.5 -87q0 -53 -20.5 -97.5t-56 -77t-83 -50.5t-102.5 -18t-102.5 17.5t-82 49t-54.5 74t-20 93.5q0 64 26.5 124t81.5 130zM496 217
q0 44 -15 77.5t-40.5 56.5t-60.5 35t-75 12q-41 0 -75.5 -13t-60 -37t-40 -57.5t-14.5 -73.5q0 -39 14 -72.5t39.5 -58t60.5 -38t76 -13.5q42 0 77.5 13.5t60.5 38t39 58t14 72.5z" />
    <glyph glyph-name="seven" unicode="7" horiz-adv-x="533" 
d="M44 625q-15 0 -24.5 7t-9.5 23q0 11 3.5 20t5.5 11h446q53 0 53 -39q0 -14 -6 -32.5t-17 -45.5l-32.5 -72.5l-45.5 -100.5l-52 -114.5l-51.5 -113.5l-44.5 -98.5t-30 -69.5h-70q10 24 33.5 76l53 116.5l61.5 135l59.5 132l47.5 106.5t25 59h-405z" />
    <glyph glyph-name="eight" unicode="8" horiz-adv-x="670" 
d="M335 704q61 0 108.5 -14.5t80.5 -39.5t50 -59t17 -73q0 -23 -6 -46.5t-19.5 -46t-36 -42t-56.5 -34.5q40 -13 66.5 -33t41.5 -43t21 -48t6 -47q0 -43 -17.5 -79t-52 -62t-85.5 -40.5t-118 -14.5t-118 14.5t-85.5 40.5t-52 62t-17.5 79q0 22 6 47t21 48t41 43t67 33
q-34 15 -56.5 34.5t-36 42t-19.5 46t-6 46.5q0 39 17 73t50 59t80.5 39.5t108.5 14.5zM335 38q94 0 147.5 37.5t53.5 103.5t-53.5 103.5t-147.5 37.5t-147.5 -37.5t-53.5 -103.5t53.5 -103.5t147.5 -37.5zM148 513q0 -61 48.5 -100t138.5 -39t138.5 39t48.5 100t-48.5 100
t-138.5 39t-138.5 -39t-48.5 -100z" />
    <glyph glyph-name="nine" unicode="9" horiz-adv-x="614" 
d="M210 -8l211 272q-15 -11 -49.5 -23t-78.5 -12q-60 0 -107.5 18.5t-79.5 50t-49 73t-17 87.5q0 53 20 98t55.5 78t83.5 51.5t105 18.5t105 -18t83 -49.5t54.5 -75t19.5 -94.5q0 -68 -28.5 -125.5t-66.5 -107.5l-185 -242h-76zM109 466q0 -44 15 -78.5t41 -58t61.5 -35.5
t77.5 -12t77.5 13.5t61.5 38t41 58t15 74.5q0 40 -15 73.5t-41 58.5t-61.5 39t-77.5 14q-44 0 -79.5 -14t-61.5 -39t-40 -58.5t-14 -73.5z" />
    <glyph glyph-name="colon" unicode=":" horiz-adv-x="262" 
d="M190 46q0 -25 -17 -42.5t-41 -17.5q-25 0 -42.5 17.5t-17.5 42.5q0 24 17.5 41t42.5 17q24 0 41 -17t17 -41zM190 436q0 -25 -17 -42.5t-41 -17.5q-25 0 -42.5 17.5t-17.5 42.5q0 24 17.5 41t42.5 17q24 0 41 -17t17 -41z" />
    <glyph glyph-name="semicolon" unicode=";" horiz-adv-x="262" 
d="M84 -150l-53 21l61 198q10 35 45 35q23 0 34 -9t13 -12zM190 436q0 -25 -17 -42.5t-41 -17.5q-25 0 -42.5 17.5t-17.5 42.5q0 24 17.5 41t42.5 17q24 0 41 -17t17 -41z" />
    <glyph glyph-name="less" unicode="&#x3c;" horiz-adv-x="640" 
d="M115 294q-23 10 -30 21.5t-7 27.5q0 13 3.5 23.5t8.5 16.5l472 197v-69l-420 -168l420 -169v-67z" />
    <glyph glyph-name="equal" unicode="=" horiz-adv-x="637" 
d="M578 213q0 -8 -2 -15.5t-4 -12.5h-479q-19 0 -26.5 9t-7.5 23q0 9 2 16t4 12h479q19 0 26.5 -9t7.5 -23zM578 462q0 -9 -2 -16t-4 -12h-479q-19 0 -26.5 8.5t-7.5 22.5q0 8 2 15.5t4 12.5h479q19 0 26.5 -8.5t7.5 -22.5z" />
    <glyph glyph-name="greater" unicode="&#x3e;" horiz-adv-x="640" 
d="M562 344q0 -14 -3.5 -23.5t-10.5 -17.5l-470 -196v69l419 168l-419 168v68l446 -187q22 -9 30 -21.5t8 -27.5z" />
    <glyph glyph-name="question" unicode="?" horiz-adv-x="537" 
d="M248 648q-41 0 -72.5 -11t-54 -26.5t-36.5 -32.5t-19 -29q-16 2 -27 12t-11 24q0 12 4.5 22.5t13.5 21.5q5 6 19 18.5t38.5 25t60 22t84.5 9.5q68 0 114.5 -16.5t75 -43t40.5 -60t12 -67.5q0 -39 -11 -68t-30.5 -52.5t-45.5 -42t-56 -36.5q-27 -17 -43 -30t-24.5 -26.5
t-10.5 -29.5t-2 -37h-67q0 31 4 54t13.5 41t27 32.5t44.5 30.5q37 21 62 39.5t40 37.5t21.5 39t6.5 46q0 28 -10 52.5t-31 42.5t-53 28t-77 10zM289 42q0 -23 -16.5 -39.5t-39.5 -16.5t-40.5 16.5t-17.5 39.5t17.5 40.5t40.5 17.5t39.5 -17.5t16.5 -40.5z" />
    <glyph glyph-name="at" unicode="@" horiz-adv-x="1007" 
d="M860 80q8 26 20 72.5t12 109.5q0 77 -27 146t-77.5 121.5t-122.5 83t-162 30.5q-81 0 -152.5 -29.5t-124 -82.5t-83 -126t-30.5 -160q0 -86 31 -158t85.5 -123.5t129.5 -80t163 -28.5q64 0 114 10t75 18l19 -55q-12 -5 -33 -10.5t-49.5 -11t-62 -9t-69.5 -3.5
q-100 0 -185.5 34t-148.5 94t-99 142.5t-36 180.5q0 99 35.5 183t97.5 145.5t145 96t178 34.5q103 0 187.5 -35.5t144.5 -96t92.5 -141t32.5 -170.5q0 -42 -5.5 -79t-13 -67.5t-15.5 -52.5t-13 -33q-22 -3 -114.5 -9.5t-257.5 -6.5q-124 0 -186 32.5t-62 111.5
q0 69 48 108.5t157 39.5q22 0 44 -1.5t40.5 -3t31.5 -3t17 -2.5v16q0 36 -12 59t-33.5 36.5t-51 19t-63.5 5.5q-70 0 -126 -28q-5 5 -7.5 14.5t-2.5 17.5q0 21 32 36t109 15q60 0 101.5 -13.5t67.5 -37.5t37.5 -55.5t11.5 -67.5v-241q7 0 29.5 1t48.5 2t51 2.5t37 3.5z
M631 241q-18 3 -50.5 7t-76.5 4q-75 0 -110.5 -21t-35.5 -74t46 -70t129 -17h50t48 1v170z" />
    <glyph glyph-name="A" unicode="A" horiz-adv-x="696" 
d="M5 0q59 158 126 318t142 321q17 37 34 51t43 14q19 0 32.5 -6t15.5 -8q18 -30 44.5 -86.5t56 -126l60.5 -144.5l57.5 -142l46.5 -118t28 -73h-78l-14.5 38l-23 61l-24.5 64t-19 47h-379l-50 -126.5l-32 -83.5h-66zM346 644q-42 -84 -85.5 -180t-83.5 -195h332l-41 102
l-46 109.5l-43.5 97.5t-32.5 66z" />
    <glyph glyph-name="B" unicode="B" horiz-adv-x="695" 
d="M638 190q0 -38 -12 -74t-46 -64t-95.5 -45t-160.5 -17q-48 0 -89.5 1.5t-74 3t-54 3t-29.5 2.5v646q0 18 9.5 27.5t25.5 12.5q21 4 72 7t137 3q90 0 146.5 -16.5t88 -43.5t43 -60t11.5 -66q0 -32 -9.5 -57t-24 -43.5t-32 -30.5t-33.5 -18q34 -11 58 -28.5t39.5 -40
t22.5 -48.5t7 -54zM566 191q0 29 -9.5 53.5t-30 42.5t-54 28t-81.5 10h-246v-266q13 -2 55.5 -6t117.5 -4q67 0 114.5 8.5t77 26t43 44.5t13.5 63zM539 511q0 59 -52 92.5t-168 33.5q-75 0 -120.5 -4t-53.5 -6v-243h227q90 0 128.5 35t38.5 92z" />
    <glyph glyph-name="C" unicode="C" horiz-adv-x="656" 
d="M609 653q15 -11 20 -20.5t5 -18.5q0 -14 -10.5 -26.5t-20.5 -17.5q-10 12 -29.5 25t-45.5 23.5t-58 17.5t-67 7q-59 0 -110.5 -21t-89.5 -60t-60 -95t-22 -126q0 -72 23.5 -127.5t63 -93t93 -56.5t113.5 -19q36 0 67 5t55.5 12.5t42.5 16t29 15.5l30 -54q-12 -8 -31 -18
t-46.5 -19t-65 -15t-85.5 -6q-73 0 -138.5 24t-115.5 70t-79.5 112.5t-29.5 151.5t29 152.5t78 114.5t114.5 72t137.5 25q74 0 127 -17t76 -34z" />
    <glyph glyph-name="D" unicode="D" horiz-adv-x="740" 
d="M693 344q0 -80 -26.5 -145t-78.5 -111.5t-127.5 -72t-172.5 -25.5q-100 0 -152.5 4.5t-58.5 5.5v646q0 36 40 40q24 3 68.5 6.5t101.5 3.5q98 0 173.5 -26t127.5 -72.5t78.5 -111t26.5 -142.5zM619 345q0 64 -19.5 117.5t-61.5 92t-108 60t-158 21.5q-57 0 -89 -3.5
t-37 -4.5v-569q7 -2 38.5 -6t95.5 -4q85 0 148.5 21.5t106 60.5t63.5 93.5t21 120.5z" />
    <glyph glyph-name="E" unicode="E" horiz-adv-x="635" 
d="M150 325v-264h426v-61h-499v646q0 18 11 29t34 11h428q14 0 23.5 -7.5t9.5 -23.5q0 -11 -3.5 -19t-5.5 -11h-424v-239h384q14 0 23.5 -7.5t9.5 -23.5q0 -11 -3.5 -19t-5.5 -11h-408z" />
    <glyph glyph-name="F" unicode="F" horiz-adv-x="575" 
d="M150 314v-314h-73v646q0 18 11 29t34 11h393q14 0 23.5 -7.5t9.5 -23.5q0 -11 -3.5 -19t-5.5 -11h-389v-250h333q14 0 23.5 -7.5t9.5 -23.5q0 -11 -3.5 -19t-5.5 -11h-357z" />
    <glyph glyph-name="G" unicode="G" horiz-adv-x="717" 
d="M412 300q-14 0 -23.5 7.5t-9.5 23.5q0 11 3.5 19t5.5 11h224q21 0 32 -11t11 -29v-323q-12 -2 -34 -4.5t-51.5 -5t-64 -4.5t-70.5 -2q-84 0 -155 23t-123 68.5t-81 113t-29 156.5q0 83 29 150t79.5 114t119.5 72t150 25q40 0 73.5 -5.5t59.5 -13t44 -15.5t27 -14
q16 -11 21 -21t5 -18q0 -14 -10.5 -26.5t-20.5 -17.5q-11 12 -31 24.5t-47 22t-59.5 16t-68.5 6.5q-62 0 -116.5 -20.5t-94.5 -59t-63 -94t-23 -125.5q0 -80 25 -136.5t69 -93.5t104 -54t131 -17q57 0 91 4t45 6v248h-174z" />
    <glyph glyph-name="H" unicode="H" horiz-adv-x="732" 
d="M586 0v327h-440v-327h-69v650q0 16 8.5 26t28.5 10q10 0 18.5 -2.5t13.5 -5.5v-291h440v263q0 16 8.5 26t27.5 10q11 0 19.5 -3t13.5 -6v-677h-69z" />
    <glyph glyph-name="I" unicode="I" horiz-adv-x="223" 
d="M77 0v650q0 16 8.5 26t28.5 10q10 0 18.5 -2.5t13.5 -5.5v-678h-69z" />
    <glyph glyph-name="J" unicode="J" horiz-adv-x="575" 
d="M505 227q0 -114 -63 -179.5t-189 -65.5q-55 0 -97.5 15.5t-72 35t-47 38t-21.5 25.5l44 40q9 -12 25 -28.5t40 -31.5t56 -26t73 -11q37 0 70.5 9t58.5 31t39.5 59t14.5 94v418q0 16 8.5 26t27.5 10q11 0 19.5 -3t13.5 -6v-450z" />
    <glyph glyph-name="K" unicode="K" horiz-adv-x="627" 
d="M534 0q-26 28 -67.5 68.5t-93.5 85.5l-110 91t-117 86v-331h-69v650q0 16 8.5 26t28.5 10q10 0 18.5 -2.5t13.5 -5.5v-304l46 38.5l60.5 50.5l66.5 54.5l64 52l52.5 42.5l32.5 26l27.5 22t21.5 15t19.5 8.5t20.5 2.5q17 0 28.5 -9t15.5 -14l-29.5 -23.5l-57 -45.5
l-74.5 -59.5l-80.5 -64.5l-75 -61l-59.5 -48l113 -87.5t107 -91.5t96 -92.5t82 -89.5h-89z" />
    <glyph glyph-name="L" unicode="L" horiz-adv-x="540" 
d="M77 0v650q0 16 8.5 26t28.5 10q10 0 18.5 -2.5t13.5 -5.5v-617h389v-61h-458z" />
    <glyph glyph-name="M" unicode="M" horiz-adv-x="887" 
d="M444 208l30 59.5l41 81.5l45 90.5l43.5 87.5l36.5 71.5l23 43.5q9 16 23.5 30t45.5 14q20 0 30.5 -5t14.5 -8l19.5 -337l18.5 -336h-66q-2 32 -4.5 81l-5.5 107.5t-6.5 120.5l-7 119.5t-6 106t-4.5 78.5l-23 -46l-40 -79.5l-49.5 -97.5l-51 -100l-44.5 -86.5t-29 -57.5
h-71l-25.5 50.5l-37.5 74l-44.5 88.5l-47 92.5l-45 86.5l-37.5 71l-8 -148.5t-8.5 -156t-8.5 -156t-7 -148.5h-66l17 320.5l18 320.5q2 21 16.5 33t32.5 12q23 0 36 -7t20 -15q4 -7 19.5 -37l37.5 -73l47.5 -94l50 -99l45 -89z" />
    <glyph glyph-name="N" unicode="N" horiz-adv-x="730" 
d="M570 0l-90.5 137l-108.5 159l-115 163.5l-110 151.5v-611h-69v646q0 17 14 28.5t37 11.5q20 0 35 -7.5t23 -13.5l43.5 -58l61.5 -84.5l73 -102l78 -111l75.5 -111.5l66.5 -102v554q0 16 8.5 26t27.5 10q11 0 19.5 -3t13.5 -6v-677h-83z" />
    <glyph glyph-name="O" unicode="O" horiz-adv-x="815" 
d="M768 344q0 -78 -27.5 -144.5t-76 -115t-114.5 -75.5t-143 -27t-143 27t-114 75.5t-75.5 115t-27.5 144.5t27.5 144t75.5 114t114 75t143 27t143 -27t114.5 -75t76 -114t27.5 -144zM694 344q0 66 -22 121t-60.5 94.5t-91 61.5t-113.5 22t-113 -22t-90.5 -61.5t-60.5 -94.5
t-22 -121t22 -121.5t60.5 -95.5t90.5 -62t113 -22t113.5 22t91 62t60.5 95.5t22 121.5z" />
    <glyph glyph-name="P" unicode="P" horiz-adv-x="655" 
d="M612 476q0 -45 -15.5 -85.5t-52 -71.5t-96 -49t-147.5 -18q-24 0 -50 2t-48.5 4.5t-38.5 4.5t-19 3v-266h-68v646q0 35 40 40q11 2 57 6t119 4q70 0 128.5 -12.5t101 -39t66 -68t23.5 -100.5zM540 476q0 34 -12 63t-41 51t-77.5 34.5t-121.5 12.5q-62 0 -98 -3t-45 -5
v-303q3 -1 17 -3.5t36 -5t49 -4.5t57 -2q66 0 111 11.5t73 33.5t40 52t12 68z" />
    <glyph glyph-name="Q" unicode="Q" horiz-adv-x="815" 
d="M768 344q0 -89 -34.5 -161t-94.5 -121l97 -122l-51 -39l-99 125q-39 -21 -84 -32.5t-95 -11.5q-77 0 -143 27t-114 75.5t-75.5 115t-27.5 144.5t27.5 144t75.5 114t114 75t143 27t143 -27t114.5 -75t76 -114t27.5 -144zM694 344q0 66 -22 121t-60.5 94.5t-91 61.5
t-113.5 22t-113 -22t-90.5 -61.5t-60.5 -94.5t-22 -121t22 -121.5t60.5 -95.5t90.5 -62t113 -22q76 0 138 34l-86 109q-15 18 -15 33q0 13 10.5 22.5t33.5 11.5l110 -139q45 40 70.5 99t25.5 131z" />
    <glyph glyph-name="R" unicode="R" horiz-adv-x="654" 
d="M528 486q0 34 -13 61.5t-41.5 47.5t-75 31t-113.5 11q-64 0 -97.5 -3t-42.5 -5v-288q18 -3 53 -6.5t86 -3.5q130 0 187 40t57 115zM449 292q26 -35 51 -73.5l48 -77l43 -75l36 -66.5h-84q-11 23 -33 62l-46.5 80.5l-48.5 78.5t-39 56q-20 -3 -38.5 -4t-35.5 -1
q-57 0 -97 2.5t-60 5.5v-280h-68v646q0 35 40 40q11 2 54 6t116 4q67 0 124.5 -11t99.5 -36t65.5 -65t23.5 -98q0 -42 -12 -74t-32.5 -55.5t-48 -39t-58.5 -25.5z" />
    <glyph glyph-name="S" unicode="S" horiz-adv-x="662" 
d="M576 609q0 -12 -8 -24t-16 -17q-9 9 -28 22t-48 25t-68.5 21t-89.5 9q-200 0 -200 -128q0 -30 11.5 -51t33 -35.5t52.5 -24.5t69 -17l119 -22q106 -20 157.5 -64t51.5 -122q0 -43 -17 -79.5t-52 -62.5t-88 -41t-124 -15q-55 0 -100.5 8t-82 20.5t-63.5 26.5t-45 26l34 54
q15 -10 38.5 -23t56 -25t73 -20t90.5 -8q96 0 150.5 32.5t54.5 101.5q0 35 -13 58t-35.5 37t-52.5 22t-63 14l-118 20q-44 7 -82 21.5t-66 37t-44.5 54t-16.5 72.5q0 39 14 73.5t46.5 61t84 42t126.5 15.5q55 0 96 -6.5t69 -15.5t45 -18.5t25 -15.5q15 -12 19.5 -20t4.5 -19
z" />
    <glyph glyph-name="T" unicode="T" horiz-adv-x="643" 
d="M605 686q14 0 23.5 -7.5t9.5 -23.5q0 -11 -3.5 -19t-5.5 -11h-281v-625h-70v625h-240q-14 0 -23.5 7.5t-9.5 23.5q0 11 3.5 19t5.5 11h591z" />
    <glyph glyph-name="U" unicode="U" horiz-adv-x="752" 
d="M70 650q0 16 8.5 26t27.5 10q11 0 19.5 -3t13.5 -6v-363q0 -68 12.5 -119t40.5 -85t73.5 -50.5t110.5 -16.5t110.5 16.5t73.5 50.5t40.5 85t12.5 119v336q0 16 8.5 26t27.5 10q11 0 19.5 -3t13.5 -6v-364q0 -163 -73.5 -247t-232.5 -84t-232.5 84t-73.5 247v337z" />
    <glyph glyph-name="V" unicode="V" horiz-adv-x="661" 
d="M72 676q20 -57 49 -132l62.5 -157.5l70 -167.5l72.5 -164l39 86.5l43.5 102.5l45 109.5l43 107.5l38 96.5l30.5 76.5t24.5 42t33.5 10q10 0 18.5 -2.5t14.5 -5.5l-28.5 -74l-42.5 -105.5l-51.5 -124.5l-56 -132.5l-56 -128.5l-51.5 -113h-91q-27 53 -54 112l-53 118
l-50 115.5l-43.5 104.5l-34 84t-21.5 55q-10 26 -14 39.5t-4 23.5q0 14 8.5 24t25.5 10t24.5 -4.5t8.5 -5.5z" />
    <glyph glyph-name="W" unicode="W" horiz-adv-x="996" 
d="M282 70l32.5 104.5l35 116.5l33.5 116l29.5 104l22.5 80l12 44q6 23 19 37t36 14q16 0 27 -3t16 -6q32 -136 74 -289.5t92 -318.5l57 160.5l52.5 155l45 139t34.5 112.5q8 25 19.5 37.5t31.5 12.5q16 0 23.5 -3.5t11.5 -6.5q-11 -40 -27.5 -92.5l-36.5 -111l-42 -121.5
l-44.5 -124.5l-44 -119.5l-40.5 -107h-88q-7 19 -18.5 58l-26 89l-31.5 108l-33 117l-30.5 115t-24.5 102q-11 -45 -26 -100l-31.5 -112.5l-33.5 -114.5l-32.5 -107.5t-29 -90.5l-21.5 -64h-87q-15 35 -34.5 86l-40.5 107.5l-42 114l-38.5 107.5l-30.5 87l-18 52
q-11 32 -17.5 56t-6.5 35q0 18 9.5 29.5t29.5 11.5q11 0 20 -3.5t11 -5.5q11 -43 34.5 -116.5l52.5 -159l59.5 -173z" />
    <glyph glyph-name="X" unicode="X" horiz-adv-x="637" 
d="M508 655q13 16 25 23.5t29 7.5q19 0 28.5 -7.5t11.5 -9.5l-42 -53.5l-59 -74l-72 -90l-79 -100.5l81.5 -102l76.5 -96.5l65 -85l49 -67.5h-87q-18 26 -43.5 59.5l-55.5 71.5l-63.5 79l-67.5 83l-62.5 -81.5l-58 -78l-51.5 -71.5t-42 -62h-76l49.5 72l61 84.5l68 91.5
l71.5 94l-113.5 137.5t-85.5 107.5q-25 32 -33 45.5t-8 23.5t6.5 20t23.5 10q11 0 17.5 -2t10.5 -4l97.5 -121.5l128.5 -158.5l65 84l56.5 73l45.5 58.5t32 39.5z" />
    <glyph glyph-name="Y" unicode="Y" horiz-adv-x="640" 
d="M38 592q-16 22 -24.5 37t-8.5 26t6.5 21t25.5 10q11 0 17 -2.5t10 -4.5l45 -65l66 -94l74.5 -103t71.5 -92l63 84.5l62 89l56.5 85l47.5 71.5q11 16 21 23.5t26 7.5q17 0 26.5 -6t11.5 -8q-17 -29 -50 -80l-72.5 -109l-82 -116.5l-76.5 -102.5v-264h-70v264
q-24 28 -58 73l-69 92.5l-67.5 91.5z" />
    <glyph glyph-name="Z" unicode="Z" horiz-adv-x="635" 
d="M70 625q-14 0 -23.5 7.5t-9.5 23.5q0 11 3.5 19t5.5 11h500q33 0 47.5 -11.5t14.5 -33.5q0 -21 -16.5 -44t-50.5 -61l-74 -81.5l-82.5 -88.5l-85.5 -90l-82 -85l-71.5 -73.5l-54.5 -56.5h514v-61h-588v78l265 274l251 273h-463z" />
    <glyph glyph-name="bracketleft" unicode="[" horiz-adv-x="349" 
d="M77 -132v835q0 15 8.5 24.5t27.5 9.5h195q2 -3 5.5 -10.5t3.5 -18.5q0 -16 -9.5 -23t-23.5 -7h-142v-751h175v-59h-240z" />
    <glyph glyph-name="backslash" unicode="\" horiz-adv-x="318" 
d="M255 -18l-255 745q4 4 11 7t20 3q19 0 27 -8.5t14 -22.5v1l249 -725h-66z" />
    <glyph glyph-name="bracketright" unicode="]" horiz-adv-x="349" 
d="M236 737q19 0 27.5 -9.5t8.5 -24.5v-835h-240v59h175v751h-142q-14 0 -23.5 7t-9.5 23q0 11 3.5 18.5t5.5 10.5h195z" />
    <glyph glyph-name="asciicircum" unicode="^" horiz-adv-x="469" 
d="M376 344l-143 297l-146 -297h-60l144 294q16 32 33 40t33 8q15 0 26 -3.5t16 -6.5l163 -332h-66z" />
    <glyph glyph-name="underscore" unicode="_" horiz-adv-x="500" 
d="M0 -129v59h500v-59h-500z" />
    <glyph glyph-name="grave" unicode="`" horiz-adv-x="500" 
d="M157 658q1 13 11.5 28t32.5 15q11 0 19.5 -3.5t20.5 -13.5l103 -84l-29 -38z" />
    <glyph glyph-name="a" unicode="a" horiz-adv-x="555" 
d="M244 453q-56 0 -91 -14t-48 -26q-7 5 -12.5 14t-5.5 20t5.5 19t13.5 14q10 8 44 18t92 10q119 0 185 -49t66 -158v-299q-29 -5 -83.5 -10.5t-123.5 -5.5q-80 0 -128.5 14t-75.5 36.5t-36 50.5t-9 56q0 36 11 65.5t37.5 50.5t71.5 33t113 12q22 0 46 -1.5t45.5 -3t39 -3.5
t27.5 -3v6q0 46 -15.5 76t-41 47.5t-58.5 24t-69 6.5zM428 237q-9 2 -47.5 8t-113.5 6q-37 0 -67 -5t-51.5 -17.5t-33 -33.5t-11.5 -52q0 -54 42.5 -79.5t141.5 -25.5q65 0 97 5.5t43 8.5v185z" />
    <glyph glyph-name="b" unicode="b" horiz-adv-x="617" 
d="M504 247q0 43 -13.5 80.5t-39 65.5t-61 43.5t-80.5 15.5q-44 0 -79.5 -15.5t-61 -43.5t-39.5 -65.5t-14 -80.5q0 -44 14 -81.5t39.5 -64.5t61 -42.5t79.5 -15.5q45 0 80.5 16t61 43.5t39 65t13.5 79.5zM50 703q0 15 8.5 24.5t27.5 9.5q9 0 17.5 -2.5t12.5 -4.5v-322
q32 45 83 72.5t111 27.5q58 0 107 -20t84 -55.5t54.5 -83t19.5 -102.5q0 -54 -19.5 -101.5t-54.5 -83t-84 -56t-107 -20.5q-50 0 -93 14.5t-76 41.5t-55 66t-31 88q-2 14 -3.5 32.5t-1.5 42.5v432z" />
    <glyph glyph-name="c" unicode="c" horiz-adv-x="483" 
d="M307 451q-42 0 -77.5 -12t-61.5 -37t-40.5 -63.5t-14.5 -90.5q0 -54 16 -93t43.5 -63.5t65 -36.5t79.5 -12q53 0 82.5 12t45.5 21l27 -49q-29 -16 -67 -28.5t-100 -12.5q-56 0 -104.5 17t-83.5 50t-55 81t-20 109q0 63 20 112.5t55 83.5t84 51.5t107 17.5q66 0 103 -13.5
t46 -21.5q7 -5 12 -12.5t5 -18.5q0 -8 -5.5 -19t-16.5 -19q-17 15 -53.5 31t-91.5 16z" />
    <glyph glyph-name="d" unicode="d" horiz-adv-x="617" 
d="M113 247q0 -42 13.5 -79.5t39 -65t61 -43.5t80.5 -16q43 0 79 15t61 42t39 64t14 81q0 43 -14.5 81t-40 66t-61 44t-77.5 16q-45 0 -80.5 -15.5t-61 -43.5t-39 -65.5t-13.5 -80.5zM501 703q0 15 8.5 24.5t27.5 9.5q9 0 17.5 -2.5t12.5 -4.5v-459q0 -24 -1.5 -42.5
t-3.5 -32.5q-9 -49 -31 -88t-55 -66t-76 -41.5t-93 -14.5q-59 0 -107.5 20.5t-83.5 56t-54.5 83t-19.5 101.5q0 55 19.5 102.5t54.5 83t83.5 55.5t107.5 20q66 0 115 -26t79 -71v292z" />
    <glyph glyph-name="e" unicode="e" horiz-adv-x="541" 
d="M113 204q11 -77 64 -119t140 -42q51 0 86.5 14.5t54.5 25.5l29 -48q-8 -5 -24 -13.5t-39 -16.5t-52 -13.5t-64 -5.5q-55 0 -103.5 16.5t-85 48.5t-57.5 79t-21 109q0 60 20 109.5t56 85t85.5 55t108.5 19.5q50 0 87.5 -11.5t62.5 -32.5t37.5 -49.5t12.5 -61.5
t-13.5 -60.5t-46 -48t-87 -32t-137.5 -11.5q-32 0 -58.5 0.5t-55.5 2.5zM111 256q27 -2 52.5 -2.5t53.5 -0.5q68 0 112 8.5t69.5 22.5t35.5 33t10 40q0 28 -11.5 47t-31 30.5t-44 16.5t-50.5 5q-47 0 -83 -16.5t-60.5 -44.5t-38 -64t-14.5 -75z" />
    <glyph glyph-name="f" unicode="f" horiz-adv-x="324" 
d="M396 682q0 -9 -5 -17t-12 -13q-20 14 -50 22.5t-65 8.5q-40 0 -66 -10.5t-41.5 -30t-22 -47.5t-6.5 -63v-38h189q21 0 29 -9.5t8 -23.5q0 -8 -2 -15t-4 -12h-220v-434h-66v541q0 53 14.5 90.5t41 61t62.5 34t78 10.5q54 0 81.5 -8.5t35.5 -13.5q9 -5 15 -12.5t6 -20.5z
" />
    <glyph glyph-name="g" unicode="g" horiz-adv-x="617" 
d="M113 247q0 -45 13.5 -83t39 -65t61 -42t80.5 -15q44 0 79.5 16t61 43.5t39 65t13.5 81.5t-14 81t-39 64t-61 42.5t-79 15.5q-45 0 -80.5 -16t-61 -43.5t-39 -65t-13.5 -79.5zM567 85q0 -80 -21 -136.5t-58.5 -91.5t-89 -51t-111.5 -16q-76 0 -121 12.5t-65 20.5l18 54
q6 -2 19.5 -7.5t34.5 -10.5t48 -9t59 -4q36 0 75 7.5t71.5 31t54 67t21.5 116.5v24q-32 -52 -81.5 -79t-115.5 -27q-62 0 -111 20t-82.5 55.5t-51.5 83t-18 102.5q0 54 19.5 101.5t54.5 83t83.5 56t107.5 20.5q50 0 93 -14.5t76 -41.5t55 -66t31 -88q2 -14 3.5 -32.5
t1.5 -42.5v-138z" />
    <glyph glyph-name="h" unicode="h" horiz-adv-x="589" 
d="M62 703q0 15 8.5 24.5t27.5 9.5q9 0 17.5 -2.5t12.5 -4.5v-308q11 16 28 31.5t40.5 27.5t54.5 19.5t69 7.5q97 0 152 -51t55 -142v-315h-66v281q0 40 -7.5 71.5t-25.5 53.5t-47.5 33.5t-74.5 11.5t-78.5 -14t-55.5 -38t-33 -56t-11 -68v-275h-66v703z" />
    <glyph glyph-name="i" unicode="i" horiz-adv-x="200" 
d="M67 460q0 15 8.5 24.5t27.5 9.5q9 0 17.5 -2.5t12.5 -4.5v-487h-66v460zM148 669q0 -20 -14.5 -34.5t-34.5 -14.5t-34 14.5t-14 34.5t14 34t34 14t34.5 -14t14.5 -34z" />
    <glyph glyph-name="j" unicode="j" horiz-adv-x="200" 
d="M67 460q0 15 8.5 24.5t27.5 9.5q9 0 17.5 -2.5t12.5 -4.5v-531q0 -48 -14 -80t-37 -51t-52.5 -27t-60.5 -8q-34 0 -60.5 6.5t-39.5 11.5l19 46q11 -5 29.5 -9.5t40.5 -4.5q20 0 39.5 4t35 15.5t25 33.5t9.5 58v509zM148 669q0 -20 -14.5 -34.5t-34.5 -14.5t-34 14.5
t-14 34.5t14 34t34 14t34.5 -14t14.5 -34z" />
    <glyph glyph-name="k" unicode="k" horiz-adv-x="512" 
d="M62 703q0 15 8.5 24.5t27.5 9.5q9 0 17.5 -2.5t12.5 -4.5v-435q7 4 33 20l63.5 40l83 54l91.5 62q14 9 28 16t33 7q14 0 26.5 -9t14.5 -14q-15 -12 -41 -30l-56 -38.5l-61.5 -41l-59 -38.5l-48 -31t-28.5 -17q106 -71 184 -144t122 -131h-84q-25 30 -59 62.5t-73.5 65
t-82.5 63.5t-86 58v-249h-66v703z" />
    <glyph glyph-name="l" unicode="l" horiz-adv-x="200" 
d="M67 703q0 15 8.5 24.5t27.5 9.5q9 0 17.5 -2.5t12.5 -4.5v-730h-66v703z" />
    <glyph glyph-name="m" unicode="m" horiz-adv-x="930" 
d="M802 0v290q0 87 -42 124t-108 37q-32 0 -60 -9.5t-49 -30t-33 -53t-12 -78.5v-280h-66v280q0 46 -12 78.5t-32.5 53t-48.5 30t-60 9.5q-33 0 -60.5 -9t-48 -29t-31.5 -51t-11 -75v-287h-66v318q0 47 16 82.5t44.5 59.5t67 36t83.5 12q64 0 115 -26t80 -80q29 52 79.5 79
t112.5 27q44 0 82 -11.5t66 -35t44 -58.5t16 -82v-321h-66z" />
    <glyph glyph-name="n" unicode="n" horiz-adv-x="589" 
d="M461 0v276q0 83 -41.5 129t-125.5 46t-125 -46t-41 -129v-276h-66v296q0 47 16 86t46 67t73 43.5t97 15.5t97.5 -15.5t73.5 -43.5t46 -67t16 -86v-296h-66z" />
    <glyph glyph-name="o" unicode="o" horiz-adv-x="618" 
d="M505 247q0 43 -14 80.5t-40 65.5t-62 43.5t-80 15.5t-80 -15.5t-62 -43.5t-40 -65.5t-14 -80.5q0 -42 14.5 -79.5t40 -65t61.5 -43.5t80 -16t80 16t62 43.5t40 65t14 79.5zM576 247q0 -54 -20 -101.5t-55.5 -83t-84.5 -56t-107 -20.5t-107 20.5t-84.5 56t-55.5 83
t-20 101.5q0 55 20 102.5t55.5 83t84.5 55.5t107 20t107 -20t84.5 -55.5t55.5 -83t20 -102.5z" />
    <glyph glyph-name="p" unicode="p" horiz-adv-x="617" 
d="M504 247q0 42 -13.5 79.5t-39 65t-61 43.5t-80.5 16q-44 0 -79.5 -15.5t-60.5 -42.5t-39 -64.5t-14 -81.5q0 -42 14 -79.5t39.5 -65t61 -44t78.5 -16.5q45 0 80.5 15.5t61 43.5t39 65t13.5 81zM50 223q0 24 1.5 42.5t3.5 32.5q9 49 31 88t55 66t76 41.5t93 14.5
q58 0 107 -20.5t84 -56t54.5 -83t19.5 -101.5q0 -55 -19.5 -102.5t-54.5 -83t-84 -55.5t-107 -20q-64 0 -115 26.5t-79 69.5v-282h-66v423z" />
    <glyph glyph-name="q" unicode="q" horiz-adv-x="617" 
d="M113 247q0 -44 13.5 -81t39 -65t61 -43.5t80.5 -15.5q44 0 79.5 16t61 44.5t39 66t13.5 81.5t-14 81t-39 63.5t-61 41.5t-79 15q-45 0 -80.5 -16t-61 -43.5t-39 -65t-13.5 -79.5zM567 -200h-66v283q-32 -45 -82.5 -71t-113.5 -26q-59 0 -107 20t-83 55.5t-54 83
t-19 102.5q0 54 19.5 101.5t54.5 83t83.5 56t107.5 20.5q50 0 93 -14.5t76 -41.5t55 -66t31 -88q2 -14 3.5 -32.5t1.5 -42.5v-423z" />
    <glyph glyph-name="r" unicode="r" horiz-adv-x="394" 
d="M392 458q0 -10 -5.5 -18t-10.5 -13q-17 8 -43 15t-61 7q-41 0 -68.5 -10t-44.5 -29.5t-24 -48.5t-7 -66v-295h-66v326q0 87 52 134.5t152 47.5q54 0 90 -12t36 -38z" />
    <glyph glyph-name="s" unicode="s" horiz-adv-x="533" 
d="M433 472q28 -16 28 -37q0 -14 -7.5 -23t-15.5 -14q-4 4 -17.5 13t-37 18.5t-56.5 16.5t-76 7q-70 0 -111 -19.5t-41 -64.5q0 -36 27.5 -55t77.5 -25l114 -13q49 -6 82.5 -18.5t54 -30.5t29.5 -40.5t9 -49.5q0 -33 -14 -60.5t-42 -47.5t-69.5 -31.5t-96.5 -11.5
q-50 0 -92 8t-73.5 17.5t-50.5 19t-23 12.5l28 51l23.5 -11.5t44.5 -17.5t63 -16t79 -7q32 0 60 4.5t49 15t33 26.5t12 40q0 37 -25 58.5t-95 29.5l-105 12q-81 9 -123.5 44t-42.5 94q0 27 11 52.5t36.5 45.5t67.5 32t104 12q66 0 112.5 -12t68.5 -24z" />
    <glyph glyph-name="t" unicode="t" horiz-adv-x="360" 
d="M133 434v-290q0 -56 29 -79t76 -23q30 0 56 10t40 19l29 -43q-6 -5 -18.5 -12t-30 -14t-41 -11.5t-51.5 -4.5q-40 0 -69 11t-48 30.5t-28.5 46.5t-9.5 59v461q0 15 8.5 24.5t27.5 9.5q9 0 17.5 -2.5t12.5 -4.5v-127h176q21 0 29 -9.5t8 -23.5q0 -8 -2 -15t-4 -12h-207z
" />
    <glyph glyph-name="u" unicode="u" horiz-adv-x="589" 
d="M461 460q0 15 8.5 24.5t27.5 9.5q9 0 17.5 -2.5t12.5 -4.5v-289q0 -47 -16 -86t-46 -67t-73.5 -43.5t-97.5 -15.5t-97 15.5t-73 43.5t-46 67t-16 86v262q0 15 8.5 24.5t27.5 9.5q9 0 17.5 -2.5t12.5 -4.5v-269q0 -83 41 -129t125 -46t125.5 46t41.5 129v242z" />
    <glyph glyph-name="v" unicode="v" horiz-adv-x="535" 
d="M24 403q-5 11 -12 29t-7 29q0 14 8 23.5t26 9.5q11 0 17.5 -2t8.5 -3q22 -60 49.5 -120.5l55 -116.5l52.5 -105.5l44 -88.5q32 60 63.5 127l57.5 125l43 98t20 48q8 19 17 28.5t26 9.5q15 0 24.5 -6.5t11.5 -8.5q-7 -24 -22 -60t-35 -79l-42.5 -90l-45.5 -92l-44.5 -86
l-38.5 -72h-73l-53 98.5l-59 113.5l-54 108t-38 83z" />
    <glyph glyph-name="w" unicode="w" horiz-adv-x="794" 
d="M215 59l31.5 90l31.5 92.5l33 100l35 113.5q7 23 19 31t32 8q14 0 23.5 -3.5t12.5 -5.5q13 -45 30.5 -99l37 -110.5l39 -112.5l37.5 -104l75.5 204t64.5 200q5 16 13 23.5t25 7.5q14 0 23 -5t11 -7q-9 -37 -28.5 -94.5l-44 -124l-51.5 -135l-51 -128.5h-80
q-11 26 -28 73.5l-37 104.5l-40.5 118.5l-37.5 116.5l-36.5 -117l-38.5 -117.5l-36 -103.5l-27 -75h-80l-50 131l-48 128l-37 101l-18 50q-4 11 -8.5 25t-4.5 24q0 14 9 24.5t27 10.5q11 0 18 -2t9 -3q11 -44 28.5 -98.5t38 -112l41 -114.5z" />
    <glyph glyph-name="x" unicode="x" horiz-adv-x="505" 
d="M423 0l-77.5 91.5l-103.5 115.5l-99.5 -119t-68.5 -88h-74q5 8 24 32l47.5 58.5l62.5 76l69 83.5l-55.5 59.5l-50.5 52.5l-41 42.5t-27 30.5q-7 8 -11.5 16t-4.5 16q0 9 6 18t24 9q9 0 15.5 -2t8.5 -4q7 -8 23.5 -25.5l40 -43l52 -56.5l59.5 -65l50 59.5l43 50.5
l31.5 36.5t15.5 18.5q14 15 26.5 23t29.5 8q14 0 24 -5.5t14 -9.5q-6 -6 -24 -27l-44.5 -51.5l-59 -68.5l-66.5 -78l69.5 -78l64 -73l52 -61t33.5 -42h-78z" />
    <glyph glyph-name="y" unicode="y" horiz-adv-x="589" 
d="M527 36q0 -65 -18 -111.5t-51 -76.5t-79.5 -44t-104.5 -14q-75 0 -124.5 12.5t-69.5 20.5l19 52q20 -8 64 -18.5t110 -10.5q37 0 71.5 8t60.5 28t41.5 55t15.5 88v46q-19 -38 -65.5 -61.5t-109.5 -23.5q-109 0 -167 57t-58 155v262q0 15 8.5 24.5t27.5 9.5q9 0 17.5 -2.5
t12.5 -4.5v-275q0 -80 39 -124.5t123 -44.5q87 0 129 48t42 131v238q0 15 8.5 24.5t27.5 9.5q9 0 17.5 -2.5t12.5 -4.5v-451z" />
    <glyph glyph-name="z" unicode="z" horiz-adv-x="521" 
d="M64 434q-21 0 -29 9.5t-8 23.5q0 8 2 15t4 12h419q44 0 44 -33q0 -13 -7.5 -25.5t-31.5 -37.5l-87 -87.5l-95 -91.5l-93 -86.5l-81 -72.5h395v-60h-469v71l83 76.5l100 93.5l103.5 99l94.5 94h-344z" />
    <glyph glyph-name="braceleft" unicode="{" horiz-adv-x="358" 
d="M288 678q-46 0 -61.5 -20t-15.5 -64v-148q0 -33 -5 -56t-15.5 -38.5t-27 -26.5t-38.5 -21q22 -11 38.5 -22.5t27 -27.5t15.5 -38.5t5 -56.5v-148q0 -44 15.5 -64t61.5 -20h43v-59h-67q-57 0 -88.5 27.5t-31.5 84.5v178q0 64 -30.5 89t-84.5 25h-3v60h3q54 0 84.5 25
t30.5 89v179q0 57 31.5 84.5t88.5 27.5h58q2 -3 5.5 -10.5t3.5 -18.5q0 -16 -9.5 -23t-23.5 -7h-10z" />
    <glyph glyph-name="bar" unicode="|" horiz-adv-x="219" 
d="M77 -132v836q0 14 8.5 23.5t26.5 9.5q11 0 18 -2.5t12 -4.5v-862h-65z" />
    <glyph glyph-name="braceright" unicode="}" horiz-adv-x="358" 
d="M60 678q-14 0 -23.5 7t-9.5 23q0 11 3.5 18.5t5.5 10.5h58q57 0 88.5 -27.5t31.5 -84.5v-179q0 -64 30.5 -89t84.5 -25h3v-60h-3q-54 0 -84.5 -25t-30.5 -89v-178q0 -57 -31.5 -84.5t-88.5 -27.5h-67v59h43q46 0 61.5 20t15.5 64v148q0 34 5 56.5t15.5 38.5t27 27.5
t38.5 22.5q-22 10 -38.5 21t-27 26.5t-15.5 38.5t-5 56v148q0 44 -15.5 64t-61.5 20h-10z" />
    <glyph glyph-name="asciitilde" unicode="~" horiz-adv-x="624" 
d="M267 323q-20 8 -47.5 15.5t-51.5 7.5q-20 0 -33.5 -7t-22.5 -17.5t-14.5 -24t-8.5 -26.5h-57q8 73 45 106.5t97 33.5q26 0 51.5 -6t48.5 -14l77 -31q23 -8 43.5 -14t46.5 -6q44 0 59.5 22t20.5 52h56q-8 -69 -42 -105t-94 -36q-26 0 -54 7.5t-50 15.5z" />
    <glyph glyph-name="Euro" unicode="&#x20ac;" horiz-adv-x="659" 
d="M44 455h90q16 65 48 112t73.5 77.5t89.5 45t96 14.5q66 0 109.5 -15t61.5 -27q17 -11 22 -21t5 -18q0 -14 -10.5 -23t-24.5 -15q-19 21 -61 40.5t-102 19.5q-36 0 -72.5 -10t-68.5 -32.5t-57 -59t-38 -88.5h285q14 0 23.5 -6.5t9.5 -22.5q0 -10 -3 -15.5t-6 -9.5h-319
q-3 -29 -3 -61q0 -14 0.5 -26.5t1.5 -24.5h236q14 0 23.5 -6.5t9.5 -22.5q0 -10 -3 -15.5t-6 -9.5h-250q14 -55 41 -92t61.5 -59.5t73 -32.5t75.5 -10q51 0 91.5 14t60.5 25l25 -48q-22 -15 -69 -32.5t-118 -17.5q-47 0 -96.5 13.5t-92.5 44t-76.5 78.5t-48.5 117h-87v54h79
q-1 12 -1.5 25t-0.5 27q0 31 3 60h-80v54z" />
    <glyph glyph-name="quotesinglbase" unicode="&#x201a;" horiz-adv-x="262" 
d="M84 -150l-53 21l61 198q10 35 44 35q23 0 34.5 -9.5t13.5 -11.5z" />
    <glyph glyph-name="florin" unicode="&#x192;" horiz-adv-x="402" 
d="M111 541q7 53 26.5 90.5t48 61t65.5 34t79 10.5q51 0 76 -8.5t33 -13.5q17 -11 17 -27q0 -13 -7 -22t-15 -14q-17 14 -44.5 22.5t-64.5 8.5q-39 0 -65 -10.5t-43.5 -31t-27 -50.5t-14.5 -68l-4 -29h179q15 0 24 -6t9 -20q0 -8 -3.5 -18.5t-7.5 -15.5h-210l-64 -454
q-8 -57 -25 -94t-41 -58.5t-53 -29.5t-60 -8q-34 0 -57.5 6t-35.5 11l21 47q11 -5 28.5 -9.5t39.5 -4.5q20 0 38.5 4.5t34 19.5t27.5 43.5t19 77.5z" />
    <glyph glyph-name="quotedblbase" unicode="&#x201e;" horiz-adv-x="457" 
d="M314 -150l-53 21l61 198q10 35 44 35q23 0 34.5 -9.5t13.5 -11.5zM119 -150l-53 21l61 198q10 35 44 35q23 0 34.5 -9.5t13.5 -11.5z" />
    <glyph glyph-name="ellipsis" unicode="&#x2026;" horiz-adv-x="786" 
d="M190 46q0 -25 -17 -42.5t-41 -17.5q-25 0 -42.5 17.5t-17.5 42.5q0 24 17.5 41t42.5 17q24 0 41 -17t17 -41zM452 46q0 -25 -17 -42.5t-41 -17.5q-25 0 -42.5 17.5t-17.5 42.5q0 24 17.5 41t42.5 17q24 0 41 -17t17 -41zM714 46q0 -25 -17 -42.5t-41 -17.5
q-25 0 -42.5 17.5t-17.5 42.5q0 24 17.5 41t42.5 17q24 0 41 -17t17 -41z" />
    <glyph glyph-name="dagger" unicode="&#x2020;" horiz-adv-x="490" 
d="M278 -200h-66v634h-165q-21 0 -29 9.5t-8 23.5q0 8 2 15t4 12h196v209q0 15 8.5 24.5t27.5 9.5q9 0 17.5 -2.5t12.5 -4.5v-236h165q21 0 29 -9.5t8 -23.5q0 -8 -2 -15t-4 -12h-196v-634z" />
    <glyph glyph-name="daggerdbl" unicode="&#x2021;" horiz-adv-x="540" 
d="M237 494v209q0 15 8.5 24.5t27.5 9.5q9 0 17.5 -2.5t12.5 -4.5v-236h165q21 0 29 -9.5t8 -23.5q0 -8 -2 -15t-4 -12h-196v-331h165q21 0 29 -9.5t8 -23.5q0 -8 -2 -15t-4 -12h-196v-243h-66v243h-165q-21 0 -29 9.5t-8 23.5q0 8 2 15t4 12h196v331h-165q-21 0 -29 9.5
t-8 23.5q0 8 2 15t4 12h196z" />
    <glyph glyph-name="circumflex" unicode="&#x2c6;" horiz-adv-x="500" 
d="M250 704q14 0 24.5 -8.5l23.5 -19.5l90 -82l-32 -32l-106 74l-106 -74l-32 32l89 82q13 12 24 20t25 8z" />
    <glyph glyph-name="perthousand" unicode="&#x2030;" horiz-adv-x="1257" 
d="M380 548q0 -43 -14 -78t-37.5 -59.5t-55 -37.5t-67.5 -13t-67.5 13t-55 37.5t-37.5 59.5t-14 78t14 78t37.5 60t55 38t67.5 13t67.5 -13t55 -38t37.5 -60t14 -78zM322 548q0 65 -33.5 101t-82.5 36q-48 0 -82 -36t-34 -101q0 -63 34 -99t82 -36q49 0 82.5 36t33.5 99z
M804 170q0 -43 -14 -78t-37.5 -59.5t-55 -37.5t-67.5 -13t-67.5 13t-55 37.5t-37.5 59.5t-14 78t14 78t37.5 60t55 38t67.5 13t67.5 -13t55 -38t37.5 -60t14 -78zM746 170q0 65 -33.5 101t-82.5 36q-48 0 -82 -36t-34 -101q0 -63 34 -99t82 -36q49 0 82.5 36t33.5 99z
M1225 170q0 -43 -14 -78t-37.5 -59.5t-55 -37.5t-67.5 -13t-67.5 13t-55 37.5t-37.5 59.5t-14 78t14 78t37.5 60t55 38t67.5 13t67.5 -13t55 -38t37.5 -60t14 -78zM1167 170q0 65 -33.5 101t-82.5 36q-48 0 -82 -36t-34 -101q0 -63 34 -99t82 -36q49 0 82.5 36t33.5 99z
M590 711q5 10 12.5 18t26.5 8q13 0 19.5 -5t11.5 -10l-419 -722h-64z" />
    <glyph glyph-name="Scaron" unicode="&#x160;" horiz-adv-x="662" 
d="M576 609q0 -12 -8 -24t-16 -17q-9 9 -28 22t-48 25t-68.5 21t-89.5 9q-200 0 -200 -128q0 -30 11.5 -51t33 -35.5t52.5 -24.5t69 -17l119 -22q106 -20 157.5 -64t51.5 -122q0 -43 -17 -79.5t-52 -62.5t-88 -41t-124 -15q-55 0 -100.5 8t-82 20.5t-63.5 26.5t-45 26l34 54
q15 -10 38.5 -23t56 -25t73 -20t90.5 -8q96 0 150.5 32.5t54.5 101.5q0 35 -13 58t-35.5 37t-52.5 22t-63 14l-118 20q-44 7 -82 21.5t-66 37t-44.5 54t-16.5 72.5q0 39 14 73.5t46.5 61t84 42t126.5 15.5q55 0 96 -6.5t69 -15.5t45 -18.5t25 -15.5q15 -12 19.5 -20t4.5 -19
zM193 852l27 34l125 -64l128 64l27 -34l-98 -74l-27.5 -20t-28.5 -9t-28.5 9l-27.5 20z" />
    <glyph glyph-name="guilsinglleft" unicode="&#x2039;" horiz-adv-x="287" 
d="M51 211q-5 5 -9.5 13.5t-4.5 16.5q0 6 0.5 9.5t1.5 5.5l168 196l44 -35l-149 -175l149 -165l-44 -35z" />
    <glyph glyph-name="OE" unicode="&#x152;" horiz-adv-x="1224" 
d="M751 325v-264h414v-61h-484v138q-19 -37 -49 -66t-67 -49t-79.5 -30.5t-85.5 -10.5q-75 0 -140 27t-112 75.5t-74 115t-27 144.5t27 144t74 114t112 75t140 27q43 0 85.5 -10.5t79.5 -30.5t67 -48.5t49 -65.5v97q0 18 11 29t34 11h413q14 0 23.5 -7.5t9.5 -23.5
q0 -11 -3.5 -19t-5.5 -11h-412v-239h372q14 0 23.5 -7.5t9.5 -23.5q0 -11 -3.5 -19t-5.5 -11h-396zM680 344q0 66 -21.5 121t-59 94.5t-88.5 61.5t-111 22t-111 -22t-88.5 -61.5t-58.5 -94.5t-21 -121t21 -121.5t58.5 -95.5t88.5 -62t111 -22t111 22t88.5 62t59 95.5
t21.5 121.5z" />
    <glyph glyph-name="quoteleft" unicode="&#x2018;" horiz-adv-x="262" 
d="M43 716q2 2 13.5 11.5t34.5 9.5q34 0 44 -35l61 -198l-53 -21z" />
    <glyph glyph-name="quoteright" unicode="&#x2019;" horiz-adv-x="262" 
d="M119 483l-53 21l61 198q10 35 44 35q23 0 34.5 -9.5t13.5 -11.5z" />
    <glyph glyph-name="quotedblleft" unicode="&#x201c;" horiz-adv-x="457" 
d="M43 716q2 2 13.5 11.5t34.5 9.5q34 0 44 -35l61 -198l-53 -21zM238 716q2 2 13.5 11.5t34.5 9.5q34 0 44 -35l61 -198l-53 -21z" />
    <glyph glyph-name="quotedblright" unicode="&#x201d;" horiz-adv-x="457" 
d="M314 483l-53 21l61 198q10 35 44 35q23 0 34.5 -9.5t13.5 -11.5zM119 483l-53 21l61 198q10 35 44 35q23 0 34.5 -9.5t13.5 -11.5z" />
    <glyph glyph-name="bullet" unicode="&#x2022;" horiz-adv-x="449" 
d="M225 486q31 0 57 -11.5t45 -31t30 -45.5t11 -56q0 -29 -11 -55t-30 -45.5t-45 -31t-57 -11.5t-57 11.5t-45.5 31t-30.5 45.5t-11 55q0 30 11 56t30.5 45.5t45.5 31t57 11.5z" />
    <glyph glyph-name="endash" unicode="&#x2013;" horiz-adv-x="500" 
d="M38 235q-22 0 -30 12t-8 27t6 32h456q22 0 30 -12t8 -27q0 -16 -6 -32h-456z" />
    <glyph glyph-name="emdash" unicode="&#x2014;" horiz-adv-x="1000" 
d="M38 235q-22 0 -30 12t-8 27t6 32h956q22 0 30 -12t8 -27q0 -16 -6 -32h-956z" />
    <glyph glyph-name="emdash" unicode="&#x2015;" horiz-adv-x="1000" 
d="M38 235q-22 0 -30 12t-8 27t6 32h956q22 0 30 -12t8 -27q0 -16 -6 -32h-956z" />
    <glyph glyph-name="tilde" unicode="&#x2dc;" horiz-adv-x="500" 
d="M226 605l-23.5 7.5t-23.5 3.5q-19 0 -26.5 -10t-12.5 -29l-51 8q3 16 9.5 32.5t17 29.5t26.5 21t38 8q20 0 37.5 -4t31.5 -9l21 -7q10 -3 23.5 -7.5t27.5 -4.5q18 0 26 9.5t13 28.5l51 -8q-3 -17 -9.5 -33t-17.5 -29t-26.5 -21t-37.5 -8q-20 0 -38 4.5t-32 9.5z" />
    <glyph glyph-name="trademark" unicode="&#x2122;" horiz-adv-x="948" 
d="M644 413l30 60l37 74l34.5 67.5t21.5 40.5q6 11 16 21t30 10q11 0 20 -4.5l13 -6.5q5 -101 11.5 -203.5t10.5 -204.5h-54q-1 25 -3 66t-5 87t-5.5 92.5t-5.5 83.5l-30 -58.5l-37 -72l-35 -67.5l-23 -45h-53l-27.5 57.5l-32 64l-33.5 64.5l-32 59q-5 -82 -9.5 -167
t-7.5 -164h-55l20 385q1 17 11.5 25.5t24.5 8.5q15 0 24.5 -5.5t14.5 -11.5zM367 686q11 0 18.5 -6.5t7.5 -20.5q0 -8 -3.5 -16t-5.5 -12h-157v-364h-58v364h-134q-11 0 -18.5 7.5t-7.5 21.5q0 8 4 15t6 11h348z" />
    <glyph glyph-name="scaron" unicode="&#x161;" horiz-adv-x="533" 
d="M433 472q28 -16 28 -37q0 -14 -7.5 -23t-15.5 -14q-4 4 -17.5 13t-37 18.5t-56.5 16.5t-76 7q-70 0 -111 -19.5t-41 -64.5q0 -36 27.5 -55t77.5 -25l114 -13q49 -6 82.5 -18.5t54 -30.5t29.5 -40.5t9 -49.5q0 -33 -14 -60.5t-42 -47.5t-69.5 -31.5t-96.5 -11.5
q-50 0 -92 8t-73.5 17.5t-50.5 19t-23 12.5l28 51l23.5 -11.5t44.5 -17.5t63 -16t79 -7q32 0 60 4.5t49 15t33 26.5t12 40q0 37 -25 58.5t-95 29.5l-105 12q-81 9 -123.5 44t-42.5 94q0 27 11 52.5t36.5 45.5t67.5 32t104 12q66 0 112.5 -12t68.5 -24zM272 562
q-14 0 -24.5 8.5l-23.5 19.5l-90 82l32 32l106 -74l106 74l32 -32l-89 -82q-13 -12 -24 -20t-25 -8z" />
    <glyph glyph-name="guilsinglright" unicode="&#x203a;" horiz-adv-x="287" 
d="M237 283q5 -5 9.5 -13.5t4.5 -16.5q0 -6 -0.5 -9.5t-1.5 -5.5l-168 -196l-44 35l149 175l-149 165l44 35z" />
    <glyph glyph-name="oe" unicode="&#x153;" horiz-adv-x="1003" 
d="M575 204q11 -77 64 -119t140 -42q51 0 86.5 14.5t54.5 25.5l29 -48q-8 -5 -24 -13.5t-39 -16.5t-52 -13.5t-64 -5.5q-75 0 -137.5 31t-96.5 95q-35 -59 -93.5 -92.5t-133.5 -33.5q-58 0 -107 20.5t-84.5 56t-55.5 83t-20 101.5q0 55 20 102.5t55.5 83t84.5 55.5t107 20
q76 0 136 -35t94 -96q35 63 95.5 97t138.5 34q50 0 87.5 -11.5t62.5 -32.5t37.5 -49.5t12.5 -61.5t-13.5 -60.5t-46 -48t-87 -32t-137.5 -11.5q-32 0 -58.5 0.5t-55.5 2.5zM505 248q0 46 -15 83.5t-41.5 64.5t-62.5 41.5t-77 14.5q-44 0 -80 -15.5t-62 -43.5t-40 -65.5
t-14 -80.5q0 -42 14.5 -79.5t40 -65t61.5 -43.5t80 -16q40 0 76 14.5t62.5 41.5t42 65t15.5 84zM573 256q52 -3 106 -3q68 0 112 8.5t69.5 22.5t35.5 33t10 40q0 28 -11.5 47t-31 30.5t-44 16.5t-50.5 5q-44 0 -79.5 -15.5t-61 -42.5t-39.5 -63.5t-16 -78.5z" />
    <glyph glyph-name="Ydieresis" unicode="&#x178;" horiz-adv-x="640" 
d="M38 592q-16 22 -24.5 37t-8.5 26t6.5 21t25.5 10q11 0 17 -2.5t10 -4.5l45 -65l66 -94l74.5 -103t71.5 -92l63 84.5l62 89l56.5 85l47.5 71.5q11 16 21 23.5t26 7.5q17 0 26.5 -6t11.5 -8q-17 -29 -50 -80l-72.5 -109l-82 -116.5l-76.5 -102.5v-264h-70v264
q-24 28 -58 73l-69 92.5l-67.5 91.5zM234 760q-21 0 -37.5 16t-16.5 35q0 20 16.5 36t37.5 16q22 0 38 -16t16 -36q0 -19 -16 -35t-38 -16zM426 760q-22 0 -38 16t-16 35q0 20 16 36t38 16t38 -16t16 -36q0 -19 -16 -35t-38 -16z" />
    <glyph glyph-name="uni00A0" unicode="&#xa0;" horiz-adv-x="256" 
 />
    <glyph glyph-name="exclamdown" unicode="&#xa1;" horiz-adv-x="200" 
d="M133 491v-457q0 -15 -9 -24.5t-26 -9.5q-9 0 -17.5 3t-13.5 5v483h66zM43 648q0 23 16.5 39.5t39.5 16.5t40.5 -16.5t17.5 -39.5t-17.5 -40.5t-40.5 -17.5t-39.5 17.5t-16.5 40.5z" />
    <glyph glyph-name="cent" unicode="&#xa2;" horiz-adv-x="483" 
d="M261 84q-48 6 -88 26t-69.5 52.5t-45.5 77t-16 99.5q0 57 16 102t45 78t69 53.5t89 27.5v107q0 10 7.5 17t21.5 7q10 0 17 -2t9 -3v-122q33 -1 57.5 -5.5t42 -10t27.5 -11t14 -8.5q7 -5 12 -12.5t5 -18.5q0 -8 -5.5 -19t-16.5 -19q-8 6 -19.5 13.5t-28 15t-38.5 12.5
t-50 6v-408h1q53 0 83 12t45 21l27 -49q-28 -15 -63.5 -27.5t-92.5 -13.5v-119h-55v121zM113 344q0 -89 41.5 -138t106.5 -62v399q-65 -12 -106.5 -60.5t-41.5 -138.5z" />
    <glyph glyph-name="sterling" unicode="&#xa3;" horiz-adv-x="632" 
d="M96 0v448q0 60 18.5 107.5t53 80.5t84.5 50.5t112 17.5q49 0 84.5 -7t58.5 -16t35.5 -17.5t16.5 -12.5q8 -8 13.5 -16t5.5 -19q0 -13 -9 -24t-17 -16q-12 12 -28.5 24.5t-39 23t-51.5 17.5t-64 7q-54 0 -92 -16t-63 -45t-36.5 -68.5t-11.5 -85.5v-65h299q19 0 26.5 -9
t7.5 -23q0 -8 -2.5 -15.5t-4.5 -12.5h-326v-248h425v-60h-495z" />
    <glyph glyph-name="currency" unicode="&#xa4;" horiz-adv-x="584" 
d="M66 343q0 40 13.5 76t36.5 65l-61 65l43 46l64 -67q27 20 60 30.5t70 10.5q36 0 69 -11t61 -31l64 68l43 -46l-61 -65q23 -29 36.5 -65t13.5 -76q0 -41 -13.5 -77t-36.5 -65l61 -64l-43 -46l-63 68q-28 -20 -61 -31t-70 -11t-70 10.5t-61 30.5l-63 -67l-43 46l61 64
q-23 29 -36.5 65t-13.5 77zM128 343q0 -36 13 -67t35 -54t52 -36t64 -13t64 13t52 36t35 54t13 67t-13 67t-35 54t-52 36t-64 13t-64 -13t-52 -36t-35 -54t-13 -67z" />
    <glyph glyph-name="yen" unicode="&#xa5;" horiz-adv-x="640" 
d="M354 146v-146h-70v146h-170q-14 0 -23.5 7t-9.5 22q0 10 3.5 17.5t5.5 10.5h194v81h-170q-14 0 -23.5 7t-9.5 22q0 10 3.5 17.5t5.5 10.5h161q-54 63 -102.5 125.5l-93.5 125.5q-16 22 -23 37t-7 26t6 21t25 10q11 0 18 -2.5t9 -4.5l111.5 -161t124.5 -161l48.5 64.5
l54.5 76.5l55.5 80.5l50.5 76.5q19 31 49 31q17 0 26.5 -6t11.5 -8q-48 -75 -108 -160.5l-125 -170.5h143q14 0 23.5 -7t9.5 -22q0 -10 -3.5 -17.5t-5.5 -10.5h-195v-81h171q14 0 23.5 -7t9.5 -22q0 -10 -3.5 -17.5t-5.5 -10.5h-195z" />
    <glyph glyph-name="brokenbar" unicode="&#xa6;" horiz-adv-x="219" 
d="M77 704q0 14 8.5 23.5t26.5 9.5q11 0 18 -2.5t12 -4.5v-284h-65v258zM142 157v-289h-65v289h65z" />
    <glyph glyph-name="section" unicode="&#xa7;" horiz-adv-x="650" 
d="M378 152q27 0 51.5 9.5t42.5 25.5t29 37.5t11 45.5q0 45 -31 75.5t-108 40.5l-47 6q-13 2 -26.5 3t-30.5 1q-29 0 -52.5 -10t-40.5 -26.5t-26.5 -38.5t-9.5 -45q0 -45 34 -74t89 -37l52 -7q9 -2 28.5 -4t34.5 -2zM168 416q-48 20 -72 58.5t-24 87.5q0 33 12 64.5t40.5 56
t74.5 39.5t114 15q74 0 125 -15t76 -29q15 -11 22.5 -20t7.5 -21q0 -17 -8 -26t-17 -14l-20 15.5t-40.5 22.5t-62 20t-84.5 9q-77 0 -122 -28.5t-45 -84.5q0 -45 30.5 -70t85.5 -33l116 -15q57 -8 96 -22.5t63 -36t34 -48.5t10 -60q0 -49 -27 -90.5t-76 -62.5
q52 -21 77.5 -58.5t25.5 -83.5q0 -40 -15.5 -74t-46.5 -59t-76 -39t-105 -14t-108.5 11t-83 24.5t-54 25.5t-21.5 14l34 51q2 -2 19 -13t46.5 -23t71 -21.5t93.5 -9.5q37 0 69 7t55 21.5t36.5 36.5t13.5 51q0 45 -30 73.5t-107 39.5l-113 16q-85 12 -135.5 54t-50.5 114
q0 45 23.5 84t72.5 60z" />
    <glyph glyph-name="dieresis" unicode="&#xa8;" horiz-adv-x="500" 
d="M161 576q-20 0 -36 15.5t-16 34.5t16 34.5t36 15.5q21 0 36.5 -15.5t15.5 -34.5t-15.5 -34.5t-36.5 -15.5zM338 576q-21 0 -36.5 15.5t-15.5 34.5t15.5 34.5t36.5 15.5t36.5 -15.5t15.5 -34.5t-15.5 -34.5t-36.5 -15.5z" />
    <glyph glyph-name="copyright" unicode="&#xa9;" horiz-adv-x="816" 
d="M539 526q11 -8 14 -14t3 -14q0 -12 -9 -22.5t-17 -14.5q-11 13 -42.5 28t-71.5 15q-32 0 -59.5 -11t-48 -32t-32 -51.5t-11.5 -68.5q0 -39 12.5 -69t33.5 -50t50 -30.5t62 -10.5q41 0 70.5 11t42.5 20l24 -47q-15 -11 -49 -25t-92 -14q-43 0 -82 14.5t-69 42t-47.5 67.5
t-17.5 90q0 51 17.5 91t47 68.5t68 43.5t81.5 15q44 0 76 -10.5t46 -21.5zM47 343q0 75 28.5 140.5t77.5 114.5t114.5 77.5t140.5 28.5t140.5 -28.5t114.5 -77.5t77.5 -114.5t28.5 -140.5t-28.5 -140.5t-77.5 -114.5t-114.5 -77.5t-140.5 -28.5t-140.5 28.5t-114.5 77.5
t-77.5 114.5t-28.5 140.5zM115 343q0 -63 23 -118.5t62.5 -96.5t93 -64.5t114.5 -23.5t114.5 23.5t93 64.5t62.5 96.5t23 118.5t-23 118.5t-62.5 96.5t-93 64.5t-114.5 23.5t-114.5 -23.5t-93 -64.5t-62.5 -96.5t-23 -118.5z" />
    <glyph glyph-name="ordfeminine" unicode="&#xaa;" horiz-adv-x="408" 
d="M177 657q-38 0 -62.5 -10.5t-34.5 -19.5q-7 5 -13 13.5t-6 16.5q0 16 17 26h-1q7 5 32 13t67 8q87 0 134.5 -35.5t47.5 -113.5v-213q-23 -3 -63 -7.5t-88 -4.5q-58 0 -93.5 10t-55 26.5t-26 37t-6.5 40.5q0 26 8 47.5t27.5 37t52 24t82.5 8.5q29 0 58 -3t46 -5
q0 31 -10 51.5t-27 32t-39.5 16t-46.5 4.5zM208 375q38 0 60 2.5t32 4.5v124l-2 1h1q-11 2 -36.5 5.5t-69.5 3.5q-49 0 -78.5 -15.5t-29.5 -56.5q0 -35 28.5 -52t94.5 -17z" />
    <glyph glyph-name="guillemotleft" unicode="&#xab;" horiz-adv-x="500" 
d="M51 211q-5 5 -9.5 13.5t-4.5 16.5q0 6 0.5 9.5t1.5 5.5l168 196l44 -35l-149 -175l149 -165l-44 -35zM264 211q-5 5 -9.5 13.5t-4.5 16.5q0 6 0.5 9.5t1.5 5.5l168 196l44 -35l-149 -175l149 -165l-44 -35z" />
    <glyph glyph-name="logicalnot" unicode="&#xac;" horiz-adv-x="637" 
d="M81 383q-19 0 -26.5 8.5t-7.5 22.5q0 8 2 15.5t4 12.5h479q19 0 26.5 -8.5t7.5 -22.5v-226h-65v198h-420z" />
    <glyph glyph-name="uni00AD" unicode="&#xad;" horiz-adv-x="332" 
d="M75 235q-22 0 -30 12t-8 27t6 32h214q22 0 30 -12t8 -27q0 -16 -6 -32h-214z" />
    <glyph glyph-name="registered" unicode="&#xae;" horiz-adv-x="816" 
d="M507 433q0 36 -29 58t-106 22q-28 0 -45 -1.5t-25 -2.5v-155q11 -2 29.5 -3.5t48.5 -1.5q69 0 98 22t29 62zM566 433q0 -25 -7 -44t-18.5 -33.5t-26 -25t-30.5 -16.5q29 -40 56.5 -88.5l47.5 -86.5h-66l-19.5 35.5l-26.5 46.5t-28 45.5t-23 33.5q-7 -1 -24.5 -1.5
t-34.5 -0.5q-15 0 -33 1t-31 3v-163h-55v387q0 27 30 33q8 2 33 3.5t66 1.5t76 -7t60.5 -22.5t39.5 -40.5t14 -61zM47 343q0 75 28.5 140.5t77.5 114.5t114.5 77.5t140.5 28.5t140.5 -28.5t114.5 -77.5t77.5 -114.5t28.5 -140.5t-28.5 -140.5t-77.5 -114.5t-114.5 -77.5
t-140.5 -28.5t-140.5 28.5t-114.5 77.5t-77.5 114.5t-28.5 140.5zM115 343q0 -63 23 -118.5t62.5 -96.5t93 -64.5t114.5 -23.5t114.5 23.5t93 64.5t62.5 96.5t23 118.5t-23 118.5t-62.5 96.5t-93 64.5t-114.5 23.5t-114.5 -23.5t-93 -64.5t-62.5 -96.5t-23 -118.5z" />
    <glyph glyph-name="macron" unicode="&#xaf;" horiz-adv-x="500" 
d="M365 660q20 0 28 -9t8 -23q0 -10 -2 -17.5t-4 -12.5h-260q-20 0 -28 9t-8 24q0 9 2 16.5t4 12.5h260z" />
    <glyph glyph-name="degree" unicode="&#xb0;" horiz-adv-x="416" 
d="M391 557q0 -38 -14.5 -70.5t-39 -56.5t-58 -38t-71.5 -14t-71.5 14t-58 38t-39 56.5t-14.5 70.5t14.5 71t39 57t58 38t71.5 14t71.5 -14t58 -38t39 -57t14.5 -71zM333 557q0 26 -10 49t-27 40t-39.5 27t-48.5 10t-48.5 -10t-39 -27t-26.5 -40t-10 -49t10 -48.5t26.5 -39
t39 -26.5t48.5 -10t48.5 10t39.5 26.5t27 39t10 48.5z" />
    <glyph glyph-name="plusminus" unicode="&#xb1;" horiz-adv-x="637" 
d="M578 358q0 -9 -2 -16.5t-4 -12.5h-220v-206h-65v206h-194q-19 0 -26.5 9t-7.5 23q0 8 2 15.5t4 12.5h222v180q0 14 8 23.5t26 9.5q19 0 31 -7v-206h192q19 0 26.5 -9t7.5 -22zM93 0q-19 0 -26.5 9t-7.5 23q0 8 2 15.5t4 12.5h479q19 0 26.5 -9t7.5 -22q0 -9 -2 -16.5
t-4 -12.5h-479z" />
    <glyph glyph-name="twosuperior" unicode="&#xb2;" 
d="M304 474l-30.5 -24.5l-42 -32l-45 -32.5t-39.5 -27h232v-49h-324v49l36.5 23.5l48 31.5l49.5 34.5t41 31.5q16 13 31 27.5t27 30.5t19.5 34t7.5 38q0 31 -25 55.5t-83 24.5q-28 0 -48.5 -8.5t-33.5 -19t-20 -20.5t-8 -13q-16 2 -27.5 9t-11.5 21q0 15 13 31v-1q3 4 13 12
t27 16.5t41 14.5t55 6q84 0 126 -36.5t42 -91.5q0 -47 -22.5 -78.5t-48.5 -56.5z" />
    <glyph glyph-name="threesuperior" unicode="&#xb3;" 
d="M204 549q51 0 82 19t31 54q0 34 -29 50.5t-77 16.5q-29 0 -50.5 -6.5t-35.5 -15.5t-21.5 -18t-9.5 -13q-16 2 -26.5 9t-10.5 19q0 8 2.5 15t10.5 15q4 4 14.5 11.5t28.5 14.5t42.5 12t55.5 5q46 0 77.5 -10t51 -26t28.5 -35.5t9 -38.5q0 -37 -21 -62.5t-49 -39.5
q43 -15 60.5 -42.5t17.5 -59.5q0 -54 -45.5 -89.5t-126.5 -35.5q-29 0 -55.5 4.5t-48.5 11t-39 13.5t-27 12l23 43q20 -11 59 -23t84 -12q51 0 83 19.5t32 58.5q0 38 -34.5 55t-88.5 17h-37q-4 2 -8 9.5t-4 16.5q0 14 9 20t23 6h20z" />
    <glyph glyph-name="acute" unicode="&#xb4;" horiz-adv-x="500" 
d="M187 562l-29 38l103 84q12 10 20.5 13.5t19.5 3.5q22 0 32.5 -15t11.5 -28z" />
    <glyph glyph-name="mu" unicode="&#xb5;" horiz-adv-x="583" 
d="M455 460q0 15 8.5 24.5t27.5 9.5q9 0 17.5 -2.5t12.5 -4.5v-487q-2 0 -20 -2.5t-45.5 -5t-61 -4.5t-66.5 -2q-73 0 -124.5 22t-76.5 57v-265h-65v660q0 15 8.5 24.5t27.5 9.5q9 0 17.5 -2.5t12.5 -4.5v-269q0 -83 49 -129t155 -46q43 0 77.5 5.5t45.5 8.5v403z" />
    <glyph glyph-name="paragraph" unicode="&#xb6;" horiz-adv-x="607" 
d="M462 -200v830q-8 2 -40 4.5t-86 3.5v-838h-69v453q-58 4 -100 23.5t-69 49.5t-40 69t-13 81q0 59 23 101t60.5 68.5t86 39t99.5 12.5q73 0 119 -4t57 -6q40 -5 40 -40v-847h-68z" />
    <glyph glyph-name="periodcentered" unicode="&#xb7;" horiz-adv-x="262" 
d="M190 343q0 -25 -17 -42.5t-41 -17.5q-25 0 -42.5 17.5t-17.5 42.5q0 24 17.5 41t42.5 17q24 0 41 -17t17 -41z" />
    <glyph glyph-name="cedilla" unicode="&#xb8;" horiz-adv-x="500" 
d="M251 -42q15 -1 31 -6.5t29.5 -15t22.5 -24.5t9 -36q0 -42 -26.5 -64.5t-72.5 -22.5q-38 0 -61.5 9.5t-25.5 11.5l19 40q2 -2 20 -10t43 -8q21 0 35 8.5t14 31.5q0 12 -5.5 20t-13.5 12.5t-17 7t-15 2.5z" />
    <glyph glyph-name="onesuperior" unicode="&#xb9;" 
d="M193 718q13 8 24.5 13.5t26.5 5.5q13 0 21 -4.5t13 -9.5v-414h-59v364l-119 -76q-9 3 -18.5 10.5t-9.5 18.5q0 17 18 28z" />
    <glyph glyph-name="ordmasculine" unicode="&#xba;" horiz-adv-x="446" 
d="M416 517q0 -39 -14.5 -73t-40.5 -59.5t-61 -40t-77 -14.5t-77 14.5t-61 40t-40.5 59.5t-14.5 73t14.5 73.5t40.5 59.5t61 39.5t77 14.5t77 -14.5t61 -39.5t40.5 -59.5t14.5 -73.5zM354 517q0 30 -9.5 55.5t-27 44t-41.5 29.5t-53 11t-53.5 -11t-41.5 -29.5t-26.5 -44
t-9.5 -55.5q0 -29 9.5 -54.5t27 -44t41.5 -29.5t53 -11t53 11t41.5 29.5t27 44t9.5 54.5z" />
    <glyph glyph-name="guillemotright" unicode="&#xbb;" horiz-adv-x="500" 
d="M450 283q5 -5 9.5 -13.5t4.5 -16.5q0 -6 -0.5 -9.5t-1.5 -5.5l-168 -196l-44 35l149 175l-149 165l44 35zM237 283q5 -5 9.5 -13.5t4.5 -16.5q0 -6 -0.5 -9.5t-1.5 -5.5l-168 -196l-44 35l149 175l-149 165l44 35z" />
    <glyph glyph-name="onequarter" unicode="&#xbc;" horiz-adv-x="870" 
d="M166 718q13 8 24.5 13.5t26.5 5.5q13 0 21 -4.5t13 -9.5v-414h-59v364l-119 -76q-9 3 -18.5 10.5t-9.5 18.5q0 17 18 28zM223 0h-63l402 710q5 10 13.5 18.5t26.5 8.5q13 0 19.5 -4.5t11.5 -9.5zM791 163q13 0 21.5 -5.5t8.5 -19.5q0 -7 -4.5 -14t-6.5 -9h-49v-110h-59
v110h-144q-56 0 -78.5 15t-22.5 47q0 36 22.5 72t49.5 65q22 25 48 47t51.5 38t49 25t41.5 9q20 0 30 -5.5t12 -7.5v-257h30zM702 163v219q-27 -12 -59 -34t-59 -51q-11 -11 -23 -25t-22 -28.5t-16 -29.5t-6 -28q0 -15 13.5 -19t33.5 -4h138z" />
    <glyph glyph-name="onehalf" unicode="&#xbd;" horiz-adv-x="862" 
d="M166 718q13 8 24.5 13.5t26.5 5.5q13 0 21 -4.5t13 -9.5v-414h-59v364l-119 -76q-9 3 -18.5 10.5t-9.5 18.5q0 17 18 28zM223 0h-63l402 710q5 10 13.5 18.5t26.5 8.5q13 0 19.5 -4.5t11.5 -9.5zM750 170l-30.5 -24.5l-42 -32l-45 -32.5t-39.5 -27h232v-49h-324v49
l36.5 23.5l48 31.5l49.5 34.5t41 31.5q16 13 31 27.5t27 30.5t19.5 34t7.5 38q0 31 -25 55.5t-83 24.5q-28 0 -48.5 -8.5t-33.5 -19t-20 -20.5t-8 -13q-16 2 -27.5 9t-11.5 21q0 15 13 31v-1q3 4 13 12t27 16.5t41 14.5t55 6q84 0 126 -36.5t42 -91.5q0 -47 -22.5 -78.5
t-48.5 -56.5z" />
    <glyph glyph-name="threequarters" unicode="&#xbe;" horiz-adv-x="925" 
d="M204 549q51 0 82 19t31 54q0 34 -29 50.5t-77 16.5q-29 0 -50.5 -6.5t-35.5 -15.5t-21.5 -18t-9.5 -13q-16 2 -26.5 9t-10.5 19q0 8 2.5 15t10.5 15q4 4 14.5 11.5t28.5 14.5t42.5 12t55.5 5q46 0 77.5 -10t51 -26t28.5 -35.5t9 -38.5q0 -37 -21 -62.5t-49 -39.5
q43 -15 60.5 -42.5t17.5 -59.5q0 -54 -45.5 -89.5t-126.5 -35.5q-29 0 -55.5 4.5t-48.5 11t-39 13.5t-27 12l23 43q20 -11 59 -23t84 -12q51 0 83 19.5t32 58.5q0 38 -34.5 55t-88.5 17h-37q-4 2 -8 9.5t-4 16.5q0 14 9 20t23 6h20zM304 0h-63l402 710q5 10 13.5 18.5
t26.5 8.5q13 0 19.5 -4.5t11.5 -9.5zM846 163q13 0 21.5 -5.5t8.5 -19.5q0 -7 -4.5 -14t-6.5 -9h-49v-110h-59v110h-144q-56 0 -78.5 15t-22.5 47q0 36 22.5 72t49.5 65q22 25 48 47t51.5 38t49 25t41.5 9q20 0 30 -5.5t12 -7.5v-257h30zM757 163v219q-27 -12 -59 -34
t-59 -51q-11 -11 -23 -25t-22 -28.5t-16 -29.5t-6 -28q0 -15 13.5 -19t33.5 -4h138z" />
    <glyph glyph-name="questiondown" unicode="&#xbf;" horiz-adv-x="537" 
d="M289 42q40 0 72 11t54.5 26.5t36.5 32.5t19 29q16 -2 27 -12t11 -24q0 -22 -18 -44q-5 -6 -19 -18.5t-38.5 -25t-60 -22t-84.5 -9.5q-68 0 -114.5 16.5t-75 43t-40.5 60t-12 67.5q0 39 11 68t30.5 52.5t45.5 42t56 36.5q27 16 43 29.5t24.5 27t10.5 29.5t2 37h67
q0 -32 -4 -54.5t-13.5 -40.5t-27 -32.5t-44.5 -30.5q-37 -21 -62 -39.5t-40 -37.5t-21.5 -39.5t-6.5 -45.5q0 -28 10 -52.5t31 -42.5t53 -28t77 -10zM248 648q0 23 16.5 39.5t39.5 16.5t40.5 -16.5t17.5 -39.5t-17.5 -40.5t-40.5 -17.5t-39.5 17.5t-16.5 40.5z" />
    <glyph glyph-name="Agrave" unicode="&#xc0;" horiz-adv-x="696" 
d="M5 0q59 158 126 318t142 321q17 37 34 51t43 14q19 0 32.5 -6t15.5 -8q18 -30 44.5 -86.5t56 -126l60.5 -144.5l57.5 -142l46.5 -118t28 -73h-78l-14.5 38l-23 61l-24.5 64t-19 47h-379l-50 -126.5l-32 -83.5h-66zM346 644q-42 -84 -85.5 -180t-83.5 -195h332l-41 102
l-46 109.5l-43.5 97.5t-32.5 66zM242 837q0 7 3 15.5t9 15.5t16 12t24 5q11 0 19.5 -2.5t21.5 -11.5l118 -80l-26 -43z" />
    <glyph glyph-name="Aacute" unicode="&#xc1;" horiz-adv-x="696" 
d="M5 0q59 158 126 318t142 321q17 37 34 51t43 14q19 0 32.5 -6t15.5 -8q18 -30 44.5 -86.5t56 -126l60.5 -144.5l57.5 -142l46.5 -118t28 -73h-78l-14.5 38l-23 61l-24.5 64t-19 47h-379l-50 -126.5l-32 -83.5h-66zM346 644q-42 -84 -85.5 -180t-83.5 -195h332l-41 102
l-46 109.5l-43.5 97.5t-32.5 66zM268 748l-26 43l118 80q13 9 21.5 11.5t19.5 2.5q14 0 24 -5t16 -12t9 -15.5t3 -15.5z" />
    <glyph glyph-name="Acircumflex" unicode="&#xc2;" horiz-adv-x="696" 
d="M5 0q59 158 126 318t142 321q17 37 34 51t43 14q19 0 32.5 -6t15.5 -8q18 -30 44.5 -86.5t56 -126l60.5 -144.5l57.5 -142l46.5 -118t28 -73h-78l-14.5 38l-23 61l-24.5 64t-19 47h-379l-50 -126.5l-32 -83.5h-66zM346 644q-42 -84 -85.5 -180t-83.5 -195h332l-41 102
l-46 109.5l-43.5 97.5t-32.5 66zM501 782l-27 -34l-125 64l-128 -64l-27 34l98 74l27.5 20t28.5 9t28.5 -9l27.5 -20z" />
    <glyph glyph-name="Atilde" unicode="&#xc3;" horiz-adv-x="696" 
d="M5 0q59 158 126 318t142 321q17 37 34 51t43 14q19 0 32.5 -6t15.5 -8q18 -30 44.5 -86.5t56 -126l60.5 -144.5l57.5 -142l46.5 -118t28 -73h-78l-14.5 38l-23 61l-24.5 64t-19 47h-379l-50 -126.5l-32 -83.5h-66zM346 644q-42 -84 -85.5 -180t-83.5 -195h332l-41 102
l-46 109.5l-43.5 97.5t-32.5 66zM417 767q-25 0 -47.5 7t-42.5 14q-14 5 -26.5 8.5t-23.5 3.5q-17 0 -24.5 -10t-12.5 -29l-54 8q3 16 9.5 33t17 30.5t26.5 22t39 8.5t41 -4.5t34 -10.5l32.5 -11.5t32.5 -5.5t24.5 9.5t12.5 28.5l55 -8q-3 -17 -9.5 -34t-17.5 -30.5
t-27.5 -21.5t-38.5 -8z" />
    <glyph glyph-name="Adieresis" unicode="&#xc4;" horiz-adv-x="696" 
d="M5 0q59 158 126 318t142 321q17 37 34 51t43 14q19 0 32.5 -6t15.5 -8q18 -30 44.5 -86.5t56 -126l60.5 -144.5l57.5 -142l46.5 -118t28 -73h-78l-14.5 38l-23 61l-24.5 64t-19 47h-379l-50 -126.5l-32 -83.5h-66zM346 644q-42 -84 -85.5 -180t-83.5 -195h332l-41 102
l-46 109.5l-43.5 97.5t-32.5 66zM252 760q-21 0 -37.5 16t-16.5 35q0 20 16.5 36t37.5 16q22 0 38 -16t16 -36q0 -19 -16 -35t-38 -16zM444 760q-22 0 -38 16t-16 35q0 20 16 36t38 16t38 -16t16 -36q0 -19 -16 -35t-38 -16z" />
    <glyph glyph-name="Aring" unicode="&#xc5;" horiz-adv-x="696" 
d="M245 765q0 21 8 39t22 32t33 22t40 8t40 -8t33 -22t22 -32t8 -39q0 -27 -13 -49t-35 -36q19 -34 45.5 -91.5l56 -126l59 -141.5l55.5 -137.5l45 -113.5l27 -70h-78l-14.5 38l-23 61l-24.5 64t-19 47h-379l-50 -126.5l-32 -83.5h-66q59 158 126 318t142 321q12 25 23 39
q-23 13 -37 36t-14 51zM346 644q-42 -84 -85.5 -180t-83.5 -195h332l-41 102l-46 109.5l-43.5 97.5t-32.5 66zM291 765q0 -26 15.5 -42.5t41.5 -16.5t41.5 16.5t15.5 42.5t-15.5 42.5t-41.5 16.5t-41.5 -16.5t-15.5 -42.5z" />
    <glyph glyph-name="AE" unicode="&#xc6;" horiz-adv-x="1086" 
d="M543 296v329h-58l-46 -60.5l-56 -78.5l-63 -91l-67 -99h290zM543 235h-331l-77.5 -121.5l-69.5 -113.5h-72l139.5 226.5l123 185l94.5 134l55 74.5q13 18 24 30.5t21.5 20.5t22.5 11.5t29 3.5h499q14 0 23.5 -7.5t9.5 -23.5q0 -11 -3.5 -19t-5.5 -11h-409v-239h369
q14 0 23.5 -7.5t9.5 -23.5q0 -11 -3.5 -19t-5.5 -11h-393v-264h411v-61h-484v235z" />
    <glyph glyph-name="Ccedilla" unicode="&#xc7;" horiz-adv-x="656" 
d="M609 653q15 -11 20 -20.5t5 -18.5q0 -14 -10.5 -26.5t-20.5 -17.5q-10 12 -29.5 25t-45.5 23.5t-58 17.5t-67 7q-59 0 -110.5 -21t-89.5 -60t-60 -95t-22 -126q0 -72 23.5 -127.5t63 -93t93 -56.5t113.5 -19q36 0 67 5t55.5 12.5t42.5 16t29 15.5l30 -54q-12 -8 -31 -18
t-46.5 -19t-65 -15t-85.5 -6q-73 0 -138.5 24t-115.5 70t-79.5 112.5t-29.5 151.5t29 152.5t78 114.5t114.5 72t137.5 25q74 0 127 -17t76 -34zM347 -42q15 -1 31.5 -6.5t31 -15.5t23.5 -25t9 -36q0 -42 -27 -65.5t-73 -23.5q-19 0 -35 3t-27.5 7t-18.5 8t-8 5l20 43
q2 -2 20.5 -10.5t43.5 -8.5q20 0 33 8t13 30q0 11 -5.5 18.5t-13.5 12t-17 6.5t-15 2z" />
    <glyph glyph-name="Egrave" unicode="&#xc8;" horiz-adv-x="635" 
d="M150 325v-264h426v-61h-499v646q0 18 11 29t34 11h428q14 0 23.5 -7.5t9.5 -23.5q0 -11 -3.5 -19t-5.5 -11h-424v-239h384q14 0 23.5 -7.5t9.5 -23.5q0 -11 -3.5 -19t-5.5 -11h-408zM212 837q0 7 3 15.5t9 15.5t16 12t24 5q11 0 19.5 -2.5t21.5 -11.5l118 -80l-26 -43z
" />
    <glyph glyph-name="Eacute" unicode="&#xc9;" horiz-adv-x="635" 
d="M150 325v-264h426v-61h-499v646q0 18 11 29t34 11h428q14 0 23.5 -7.5t9.5 -23.5q0 -11 -3.5 -19t-5.5 -11h-424v-239h384q14 0 23.5 -7.5t9.5 -23.5q0 -11 -3.5 -19t-5.5 -11h-408zM266 748l-26 43l118 80q13 9 21.5 11.5t19.5 2.5q14 0 24 -5t16 -12t9 -15.5t3 -15.5z
" />
    <glyph glyph-name="Ecircumflex" unicode="&#xca;" horiz-adv-x="635" 
d="M150 325v-264h426v-61h-499v646q0 18 11 29t34 11h428q14 0 23.5 -7.5t9.5 -23.5q0 -11 -3.5 -19t-5.5 -11h-424v-239h384q14 0 23.5 -7.5t9.5 -23.5q0 -11 -3.5 -19t-5.5 -11h-408zM493 782l-27 -34l-125 64l-128 -64l-27 34l98 74l27.5 20t28.5 9t28.5 -9l27.5 -20z
" />
    <glyph glyph-name="Edieresis" unicode="&#xcb;" horiz-adv-x="635" 
d="M150 325v-264h426v-61h-499v646q0 18 11 29t34 11h428q14 0 23.5 -7.5t9.5 -23.5q0 -11 -3.5 -19t-5.5 -11h-424v-239h384q14 0 23.5 -7.5t9.5 -23.5q0 -11 -3.5 -19t-5.5 -11h-408zM246 760q-21 0 -37.5 16t-16.5 35q0 20 16.5 36t37.5 16q22 0 38 -16t16 -36
q0 -19 -16 -35t-38 -16zM438 760q-22 0 -38 16t-16 35q0 20 16 36t38 16t38 -16t16 -36q0 -19 -16 -35t-38 -16z" />
    <glyph glyph-name="Igrave" unicode="&#xcc;" horiz-adv-x="223" 
d="M77 0v650q0 16 8.5 26t28.5 10q10 0 18.5 -2.5t13.5 -5.5v-678h-69zM1 837q0 7 3 15.5t9 15.5t16 12t24 5q11 0 19.5 -2.5t21.5 -11.5l118 -80l-26 -43z" />
    <glyph glyph-name="Iacute" unicode="&#xcd;" horiz-adv-x="223" 
d="M77 0v650q0 16 8.5 26t28.5 10q10 0 18.5 -2.5t13.5 -5.5v-678h-69zM52 748l-26 43l118 80q13 9 21.5 11.5t19.5 2.5q14 0 24 -5t16 -12t9 -15.5t3 -15.5z" />
    <glyph glyph-name="Icircumflex" unicode="&#xce;" horiz-adv-x="223" 
d="M77 0v650q0 16 8.5 26t28.5 10q10 0 18.5 -2.5t13.5 -5.5v-678h-69zM270 782l-27 -34l-125 64l-128 -64l-27 34l98 74l27.5 20t28.5 9t28.5 -9l27.5 -20z" />
    <glyph glyph-name="Idieresis" unicode="&#xcf;" horiz-adv-x="223" 
d="M77 0v650q0 16 8.5 26t28.5 10q10 0 18.5 -2.5t13.5 -5.5v-678h-69zM21 760q-21 0 -37.5 16t-16.5 35q0 20 16.5 36t37.5 16q22 0 38 -16t16 -36q0 -19 -16 -35t-38 -16zM213 760q-22 0 -38 16t-16 35q0 20 16 36t38 16t38 -16t16 -36q0 -19 -16 -35t-38 -16z" />
    <glyph glyph-name="Eth" unicode="&#xd0;" horiz-adv-x="765" 
d="M102 384v262q0 36 40 40q24 3 68.5 6.5t101.5 3.5q98 0 173.5 -26t127.5 -72.5t78.5 -111t26.5 -142.5q0 -80 -26.5 -145t-78.5 -111.5t-127.5 -72t-172.5 -25.5q-100 0 -152.5 4.5t-58.5 5.5v323h-43q-18 0 -26 9t-8 23q0 9 2 16.5t4 12.5h71zM351 384q19 0 26.5 -9
t7.5 -22q0 -10 -2 -17.5t-4 -12.5h-208v-264q7 -2 38.5 -6t95.5 -4q85 0 148.5 21.5t106 60.5t63.5 93.5t21 120.5q0 64 -19.5 117.5t-61.5 92t-108 60t-158 21.5q-57 0 -89 -3.5t-37 -4.5v-244h180z" />
    <glyph glyph-name="Ntilde" unicode="&#xd1;" horiz-adv-x="730" 
d="M570 0l-90.5 137l-108.5 159l-115 163.5l-110 151.5v-611h-69v646q0 17 14 28.5t37 11.5q20 0 35 -7.5t23 -13.5l43.5 -58l61.5 -84.5l73 -102l78 -111l75.5 -111.5l66.5 -102v554q0 16 8.5 26t27.5 10q11 0 19.5 -3t13.5 -6v-677h-83zM456 767q-25 0 -47.5 7t-42.5 14
q-14 5 -26.5 8.5t-23.5 3.5q-17 0 -24.5 -10t-12.5 -29l-54 8q3 16 9.5 33t17 30.5t26.5 22t39 8.5t41 -4.5t34 -10.5l32.5 -11.5t32.5 -5.5t24.5 9.5t12.5 28.5l55 -8q-3 -17 -9.5 -34t-17.5 -30.5t-27.5 -21.5t-38.5 -8z" />
    <glyph glyph-name="Ograve" unicode="&#xd2;" horiz-adv-x="815" 
d="M768 344q0 -78 -27.5 -144.5t-76 -115t-114.5 -75.5t-143 -27t-143 27t-114 75.5t-75.5 115t-27.5 144.5t27.5 144t75.5 114t114 75t143 27t143 -27t114.5 -75t76 -114t27.5 -144zM694 344q0 66 -22 121t-60.5 94.5t-91 61.5t-113.5 22t-113 -22t-90.5 -61.5t-60.5 -94.5
t-22 -121t22 -121.5t60.5 -95.5t90.5 -62t113 -22t113.5 22t91 62t60.5 95.5t22 121.5zM301 837q0 7 3 15.5t9 15.5t16 12t24 5q11 0 19.5 -2.5t21.5 -11.5l118 -80l-26 -43z" />
    <glyph glyph-name="Oacute" unicode="&#xd3;" horiz-adv-x="815" 
d="M768 344q0 -78 -27.5 -144.5t-76 -115t-114.5 -75.5t-143 -27t-143 27t-114 75.5t-75.5 115t-27.5 144.5t27.5 144t75.5 114t114 75t143 27t143 -27t114.5 -75t76 -114t27.5 -144zM694 344q0 66 -22 121t-60.5 94.5t-91 61.5t-113.5 22t-113 -22t-90.5 -61.5t-60.5 -94.5
t-22 -121t22 -121.5t60.5 -95.5t90.5 -62t113 -22t113.5 22t91 62t60.5 95.5t22 121.5zM336 748l-26 43l118 80q13 9 21.5 11.5t19.5 2.5q14 0 24 -5t16 -12t9 -15.5t3 -15.5z" />
    <glyph glyph-name="Ocircumflex" unicode="&#xd4;" horiz-adv-x="815" 
d="M768 344q0 -78 -27.5 -144.5t-76 -115t-114.5 -75.5t-143 -27t-143 27t-114 75.5t-75.5 115t-27.5 144.5t27.5 144t75.5 114t114 75t143 27t143 -27t114.5 -75t76 -114t27.5 -144zM694 344q0 66 -22 121t-60.5 94.5t-91 61.5t-113.5 22t-113 -22t-90.5 -61.5t-60.5 -94.5
t-22 -121t22 -121.5t60.5 -95.5t90.5 -62t113 -22t113.5 22t91 62t60.5 95.5t22 121.5zM573 782l-27 -34l-125 64l-128 -64l-27 34l98 74l27.5 20t28.5 9t28.5 -9l27.5 -20z" />
    <glyph glyph-name="Otilde" unicode="&#xd5;" horiz-adv-x="815" 
d="M768 344q0 -78 -27.5 -144.5t-76 -115t-114.5 -75.5t-143 -27t-143 27t-114 75.5t-75.5 115t-27.5 144.5t27.5 144t75.5 114t114 75t143 27t143 -27t114.5 -75t76 -114t27.5 -144zM694 344q0 66 -22 121t-60.5 94.5t-91 61.5t-113.5 22t-113 -22t-90.5 -61.5t-60.5 -94.5
t-22 -121t22 -121.5t60.5 -95.5t90.5 -62t113 -22t113.5 22t91 62t60.5 95.5t22 121.5zM491 767q-25 0 -47.5 7t-42.5 14q-14 5 -26.5 8.5t-23.5 3.5q-17 0 -24.5 -10t-12.5 -29l-54 8q3 16 9.5 33t17 30.5t26.5 22t39 8.5t41 -4.5t34 -10.5l32.5 -11.5t32.5 -5.5t24.5 9.5
t12.5 28.5l55 -8q-3 -17 -9.5 -34t-17.5 -30.5t-27.5 -21.5t-38.5 -8z" />
    <glyph glyph-name="Odieresis" unicode="&#xd6;" horiz-adv-x="815" 
d="M768 344q0 -78 -27.5 -144.5t-76 -115t-114.5 -75.5t-143 -27t-143 27t-114 75.5t-75.5 115t-27.5 144.5t27.5 144t75.5 114t114 75t143 27t143 -27t114.5 -75t76 -114t27.5 -144zM694 344q0 66 -22 121t-60.5 94.5t-91 61.5t-113.5 22t-113 -22t-90.5 -61.5t-60.5 -94.5
t-22 -121t22 -121.5t60.5 -95.5t90.5 -62t113 -22t113.5 22t91 62t60.5 95.5t22 121.5zM317 760q-21 0 -37.5 16t-16.5 35q0 20 16.5 36t37.5 16q22 0 38 -16t16 -36q0 -19 -16 -35t-38 -16zM509 760q-22 0 -38 16t-16 35q0 20 16 36t38 16t38 -16t16 -36q0 -19 -16 -35
t-38 -16z" />
    <glyph glyph-name="multiply" unicode="&#xd7;" horiz-adv-x="637" 
d="M277 339l-150 149q-13 13 -13 24t12 23q6 5 12.5 9t11.5 6l168 -170l149 150q13 13 25 13q11 0 22 -11q5 -6 9 -12.5t6 -11.5l-171 -169l151 -148q12 -12 12 -24t-10 -22q-7 -6 -13.5 -10t-11.5 -6l-168 170l-148 -150q-11 -12 -24 -12q-12 0 -22 10q-6 6 -10 13t-6 12z
" />
    <glyph glyph-name="Oslash" unicode="&#xd8;" horiz-adv-x="815" 
d="M616 641q70 -48 111 -124t41 -173q0 -78 -27.5 -144.5t-76 -115t-114.5 -75.5t-143 -27q-84 0 -153 31l-52 -91h-70l69 120q-72 48 -113 125.5t-41 176.5q0 78 27.5 144t75.5 114t114 75t143 27q42 0 81.5 -8.5t74.5 -24.5l35 60q9 16 17 25t28 9q11 0 23 -4.5t15 -7.5z
M532 616q-29 13 -60 20t-65 7q-61 0 -113 -22t-90.5 -61.5t-60.5 -94.5t-22 -121q0 -79 30.5 -142t82.5 -103zM286 68q28 -12 58 -18.5t63 -6.5q61 0 113.5 22t91 62t60.5 95.5t22 121.5q0 78 -29.5 139.5t-80.5 100.5z" />
    <glyph glyph-name="Ugrave" unicode="&#xd9;" horiz-adv-x="752" 
d="M70 650q0 16 8.5 26t27.5 10q11 0 19.5 -3t13.5 -6v-363q0 -68 12.5 -119t40.5 -85t73.5 -50.5t110.5 -16.5t110.5 16.5t73.5 50.5t40.5 85t12.5 119v336q0 16 8.5 26t27.5 10q11 0 19.5 -3t13.5 -6v-364q0 -163 -73.5 -247t-232.5 -84t-232.5 84t-73.5 247v337zM264 837
q0 7 3 15.5t9 15.5t16 12t24 5q11 0 19.5 -2.5t21.5 -11.5l118 -80l-26 -43z" />
    <glyph glyph-name="Uacute" unicode="&#xda;" horiz-adv-x="752" 
d="M70 650q0 16 8.5 26t27.5 10q11 0 19.5 -3t13.5 -6v-363q0 -68 12.5 -119t40.5 -85t73.5 -50.5t110.5 -16.5t110.5 16.5t73.5 50.5t40.5 85t12.5 119v336q0 16 8.5 26t27.5 10q11 0 19.5 -3t13.5 -6v-364q0 -163 -73.5 -247t-232.5 -84t-232.5 84t-73.5 247v337zM327 748
l-26 43l118 80q13 9 21.5 11.5t19.5 2.5q14 0 24 -5t16 -12t9 -15.5t3 -15.5z" />
    <glyph glyph-name="Ucircumflex" unicode="&#xdb;" horiz-adv-x="752" 
d="M70 650q0 16 8.5 26t27.5 10q11 0 19.5 -3t13.5 -6v-363q0 -68 12.5 -119t40.5 -85t73.5 -50.5t110.5 -16.5t110.5 16.5t73.5 50.5t40.5 85t12.5 119v336q0 16 8.5 26t27.5 10q11 0 19.5 -3t13.5 -6v-364q0 -163 -73.5 -247t-232.5 -84t-232.5 84t-73.5 247v337zM543 782
l-27 -34l-125 64l-128 -64l-27 34l98 74l27.5 20t28.5 9t28.5 -9l27.5 -20z" />
    <glyph glyph-name="Udieresis" unicode="&#xdc;" horiz-adv-x="752" 
d="M70 650q0 16 8.5 26t27.5 10q11 0 19.5 -3t13.5 -6v-363q0 -68 12.5 -119t40.5 -85t73.5 -50.5t110.5 -16.5t110.5 16.5t73.5 50.5t40.5 85t12.5 119v336q0 16 8.5 26t27.5 10q11 0 19.5 -3t13.5 -6v-364q0 -163 -73.5 -247t-232.5 -84t-232.5 84t-73.5 247v337zM298 760
q-21 0 -37.5 16t-16.5 35q0 20 16.5 36t37.5 16q22 0 38 -16t16 -36q0 -19 -16 -35t-38 -16zM490 760q-22 0 -38 16t-16 35q0 20 16 36t38 16t38 -16t16 -36q0 -19 -16 -35t-38 -16z" />
    <glyph glyph-name="Yacute" unicode="&#xdd;" horiz-adv-x="640" 
d="M38 592q-16 22 -24.5 37t-8.5 26t6.5 21t25.5 10q11 0 17 -2.5t10 -4.5l45 -65l66 -94l74.5 -103t71.5 -92l63 84.5l62 89l56.5 85l47.5 71.5q11 16 21 23.5t26 7.5q17 0 26.5 -6t11.5 -8q-17 -29 -50 -80l-72.5 -109l-82 -116.5l-76.5 -102.5v-264h-70v264
q-24 28 -58 73l-69 92.5l-67.5 91.5zM282 754l-29 38l103 84q12 10 20.5 13.5t19.5 3.5q22 0 32.5 -15t11.5 -28z" />
    <glyph glyph-name="Thorn" unicode="&#xde;" horiz-adv-x="655" 
d="M540 346q0 34 -12 63t-41 51t-77.5 34.5t-121.5 12.5q-62 0 -98 -3t-45 -5v-303q3 -1 17 -3.5t36 -5t49 -4.5t57 -2q66 0 111 11.5t73 33.5t40 52t12 68zM145 559q4 1 46 4t102 3q70 0 128.5 -12.5t101 -39t66 -68t23.5 -100.5q0 -45 -15.5 -85.5t-52 -71.5t-96 -49
t-147.5 -18q-24 0 -50 2t-48.5 4.5t-38.5 4.5t-19 3v-136h-68v650q0 16 8.5 26t28.5 10q10 0 18 -2.5t13 -5.5v-119z" />
    <glyph glyph-name="germandbls" unicode="&#xdf;" horiz-adv-x="617" 
d="M249 436h52q37 0 63 12t42 30.5t23 41.5t7 45q0 20 -9 41t-27.5 38.5t-48 28.5t-69.5 11q-48 0 -80 -13.5t-51 -37t-27 -54.5t-8 -66v-513h-66v522q0 107 61.5 161t170.5 54q61 0 103.5 -16.5t68.5 -42t38 -55.5t12 -58q0 -23 -7 -45.5t-19 -42t-28 -34.5t-34 -23
q72 -20 115.5 -72t43.5 -137q0 -49 -18 -90t-50 -71t-76 -47t-96 -17q-26 0 -50 3.5t-43 8.5t-32.5 10t-18.5 8l22 52q3 -3 15 -7t29 -7.5t37.5 -6.5t40.5 -3q38 0 69 12.5t53.5 34.5t34.5 52.5t12 67.5q0 43 -14 74.5t-38 52.5t-56.5 31t-70.5 10h-76v57z" />
    <glyph glyph-name="agrave" unicode="&#xe0;" horiz-adv-x="555" 
d="M244 453q-56 0 -91 -14t-48 -26q-7 5 -12.5 14t-5.5 20t5.5 19t13.5 14q10 8 44 18t92 10q119 0 185 -49t66 -158v-299q-29 -5 -83.5 -10.5t-123.5 -5.5q-80 0 -128.5 14t-75.5 36.5t-36 50.5t-9 56q0 36 11 65.5t37.5 50.5t71.5 33t113 12q22 0 46 -1.5t45.5 -3t39 -3.5
t27.5 -3v6q0 46 -15.5 76t-41 47.5t-58.5 24t-69 6.5zM428 237q-9 2 -47.5 8t-113.5 6q-37 0 -67 -5t-51.5 -17.5t-33 -33.5t-11.5 -52q0 -54 42.5 -79.5t141.5 -25.5q65 0 97 5.5t43 8.5v185zM184 658q1 13 11.5 28t32.5 15q11 0 19.5 -3.5t20.5 -13.5l103 -84l-29 -38z
" />
    <glyph glyph-name="aacute" unicode="&#xe1;" horiz-adv-x="555" 
d="M244 453q-56 0 -91 -14t-48 -26q-7 5 -12.5 14t-5.5 20t5.5 19t13.5 14q10 8 44 18t92 10q119 0 185 -49t66 -158v-299q-29 -5 -83.5 -10.5t-123.5 -5.5q-80 0 -128.5 14t-75.5 36.5t-36 50.5t-9 56q0 36 11 65.5t37.5 50.5t71.5 33t113 12q22 0 46 -1.5t45.5 -3t39 -3.5
t27.5 -3v6q0 46 -15.5 76t-41 47.5t-58.5 24t-69 6.5zM428 237q-9 2 -47.5 8t-113.5 6q-37 0 -67 -5t-51.5 -17.5t-33 -33.5t-11.5 -52q0 -54 42.5 -79.5t141.5 -25.5q65 0 97 5.5t43 8.5v185zM259 562l-29 38l103 84q12 10 20.5 13.5t19.5 3.5q22 0 32.5 -15t11.5 -28z" />
    <glyph glyph-name="acircumflex" unicode="&#xe2;" horiz-adv-x="555" 
d="M244 453q-56 0 -91 -14t-48 -26q-7 5 -12.5 14t-5.5 20t5.5 19t13.5 14q10 8 44 18t92 10q119 0 185 -49t66 -158v-299q-29 -5 -83.5 -10.5t-123.5 -5.5q-80 0 -128.5 14t-75.5 36.5t-36 50.5t-9 56q0 36 11 65.5t37.5 50.5t71.5 33t113 12q22 0 46 -1.5t45.5 -3t39 -3.5
t27.5 -3v6q0 46 -15.5 76t-41 47.5t-58.5 24t-69 6.5zM428 237q-9 2 -47.5 8t-113.5 6q-37 0 -67 -5t-51.5 -17.5t-33 -33.5t-11.5 -52q0 -54 42.5 -79.5t141.5 -25.5q65 0 97 5.5t43 8.5v185zM292 704q14 0 24.5 -8.5l23.5 -19.5l90 -82l-32 -32l-106 74l-106 -74l-32 32
l89 82q13 12 24 20t25 8z" />
    <glyph glyph-name="atilde" unicode="&#xe3;" horiz-adv-x="555" 
d="M244 453q-56 0 -91 -14t-48 -26q-7 5 -12.5 14t-5.5 20t5.5 19t13.5 14q10 8 44 18t92 10q119 0 185 -49t66 -158v-299q-29 -5 -83.5 -10.5t-123.5 -5.5q-80 0 -128.5 14t-75.5 36.5t-36 50.5t-9 56q0 36 11 65.5t37.5 50.5t71.5 33t113 12q22 0 46 -1.5t45.5 -3t39 -3.5
t27.5 -3v6q0 46 -15.5 76t-41 47.5t-58.5 24t-69 6.5zM428 237q-9 2 -47.5 8t-113.5 6q-37 0 -67 -5t-51.5 -17.5t-33 -33.5t-11.5 -52q0 -54 42.5 -79.5t141.5 -25.5q65 0 97 5.5t43 8.5v185zM264 605l-23.5 7.5t-23.5 3.5q-19 0 -26.5 -10t-12.5 -29l-51 8q3 16 9.5 32.5
t17 29.5t26.5 21t38 8q20 0 37.5 -4t31.5 -9l21 -7q10 -3 23.5 -7.5t27.5 -4.5q18 0 26 9.5t13 28.5l51 -8q-3 -17 -9.5 -33t-17.5 -29t-26.5 -21t-37.5 -8q-20 0 -38 4.5t-32 9.5z" />
    <glyph glyph-name="adieresis" unicode="&#xe4;" horiz-adv-x="555" 
d="M244 453q-56 0 -91 -14t-48 -26q-7 5 -12.5 14t-5.5 20t5.5 19t13.5 14q10 8 44 18t92 10q119 0 185 -49t66 -158v-299q-29 -5 -83.5 -10.5t-123.5 -5.5q-80 0 -128.5 14t-75.5 36.5t-36 50.5t-9 56q0 36 11 65.5t37.5 50.5t71.5 33t113 12q22 0 46 -1.5t45.5 -3t39 -3.5
t27.5 -3v6q0 46 -15.5 76t-41 47.5t-58.5 24t-69 6.5zM428 237q-9 2 -47.5 8t-113.5 6q-37 0 -67 -5t-51.5 -17.5t-33 -33.5t-11.5 -52q0 -54 42.5 -79.5t141.5 -25.5q65 0 97 5.5t43 8.5v185zM199 576q-20 0 -36 15.5t-16 34.5t16 34.5t36 15.5q21 0 36.5 -15.5t15.5 -34.5
t-15.5 -34.5t-36.5 -15.5zM376 576q-21 0 -36.5 15.5t-15.5 34.5t15.5 34.5t36.5 15.5t36.5 -15.5t15.5 -34.5t-15.5 -34.5t-36.5 -15.5z" />
    <glyph glyph-name="aring" unicode="&#xe5;" horiz-adv-x="555" 
d="M244 453q-56 0 -91 -14t-48 -26q-7 5 -12.5 14t-5.5 20t5.5 19t13.5 14q10 8 44 18t92 10q119 0 185 -49t66 -158v-299q-29 -5 -83.5 -10.5t-123.5 -5.5q-80 0 -128.5 14t-75.5 36.5t-36 50.5t-9 56q0 36 11 65.5t37.5 50.5t71.5 33t113 12q22 0 46 -1.5t45.5 -3t39 -3.5
t27.5 -3v6q0 46 -15.5 76t-41 47.5t-58.5 24t-69 6.5zM428 237q-9 2 -47.5 8t-113.5 6q-37 0 -67 -5t-51.5 -17.5t-33 -33.5t-11.5 -52q0 -54 42.5 -79.5t141.5 -25.5q65 0 97 5.5t43 8.5v185zM194 653q0 21 8 39t22 32t33 22t40 8t40 -8t33 -22t22 -32t8 -39t-8 -39
t-22 -32t-33 -22t-40 -8t-40 8t-33 22t-22 32t-8 39zM240 653q0 -25 16 -42t41 -17t41 17t16 42t-16 42t-41 17t-41 -17t-16 -42z" />
    <glyph glyph-name="ae" unicode="&#xe6;" horiz-adv-x="923" 
d="M460 99q-11 18 -24 54.5t-13 84.5q-5 1 -19.5 3.5t-35.5 4.5t-47 4t-54 2q-37 0 -67 -5.5t-51.5 -18t-33 -33.5t-11.5 -52q0 -54 39.5 -79t121.5 -25q42 0 77 8.5t60.5 19.5t40.5 20.5t17 11.5zM495 56q-3 -3 -21 -14.5t-49 -23.5t-72 -22t-90 -10q-71 0 -115 14
t-69 36.5t-33.5 50.5t-8.5 56q0 36 11 65.5t37.5 51t71.5 33.5t113 12q27 0 53.5 -1.5t48 -4t37 -4.5t20.5 -3q0 50 -15.5 81.5t-41.5 49t-59 24t-69 6.5q-56 0 -91 -14t-48 -26q-7 5 -12.5 14t-5.5 20t5.5 19t13.5 14q10 8 44 18t92 10q86 0 147.5 -26.5t84.5 -84.5
q34 54 90.5 82.5t128.5 28.5q50 0 87.5 -11.5t62.5 -32.5t37.5 -49.5t12.5 -61.5t-13 -59.5t-44.5 -46t-83.5 -30.5t-130 -11q-42 0 -79.5 3t-48.5 5q7 -83 62.5 -127t142.5 -44q51 0 86.5 14.5t54.5 25.5l29 -48q-8 -5 -24 -13.5t-39 -16.5t-52 -13.5t-64 -5.5
q-66 0 -114.5 20.5t-80.5 49.5zM493 266q3 0 14.5 -1.5t27 -3t33 -2.5t31.5 -1q68 0 112 7.5t69.5 21t35.5 31.5t10 39q0 28 -11.5 47t-31 30.5t-44 16.5t-50.5 5q-47 0 -83 -15t-60.5 -41t-38 -60.5t-14.5 -73.5z" />
    <glyph glyph-name="ccedilla" unicode="&#xe7;" horiz-adv-x="483" 
d="M307 451q-42 0 -77.5 -12t-61.5 -37t-40.5 -63.5t-14.5 -90.5q0 -54 16 -93t43.5 -63.5t65 -36.5t79.5 -12q53 0 82.5 12t45.5 21l27 -49q-29 -16 -67 -28.5t-100 -12.5q-56 0 -104.5 17t-83.5 50t-55 81t-20 109q0 63 20 112.5t55 83.5t84 51.5t107 17.5q66 0 103 -13.5
t46 -21.5q7 -5 12 -12.5t5 -18.5q0 -8 -5.5 -19t-16.5 -19q-17 15 -53.5 31t-91.5 16zM260 -42q15 -1 31 -6.5t29.5 -15t22.5 -24.5t9 -36q0 -42 -26.5 -64.5t-72.5 -22.5q-38 0 -61.5 9.5t-25.5 11.5l19 40q2 -2 20 -10t43 -8q21 0 35 8.5t14 31.5q0 12 -5.5 20t-13.5 12.5
t-17 7t-15 2.5z" />
    <glyph glyph-name="egrave" unicode="&#xe8;" horiz-adv-x="541" 
d="M113 204q11 -77 64 -119t140 -42q51 0 86.5 14.5t54.5 25.5l29 -48q-8 -5 -24 -13.5t-39 -16.5t-52 -13.5t-64 -5.5q-55 0 -103.5 16.5t-85 48.5t-57.5 79t-21 109q0 60 20 109.5t56 85t85.5 55t108.5 19.5q50 0 87.5 -11.5t62.5 -32.5t37.5 -49.5t12.5 -61.5
t-13.5 -60.5t-46 -48t-87 -32t-137.5 -11.5q-32 0 -58.5 0.5t-55.5 2.5zM111 256q27 -2 52.5 -2.5t53.5 -0.5q68 0 112 8.5t69.5 22.5t35.5 33t10 40q0 28 -11.5 47t-31 30.5t-44 16.5t-50.5 5q-47 0 -83 -16.5t-60.5 -44.5t-38 -64t-14.5 -75zM197 658q1 13 11.5 28
t32.5 15q11 0 19.5 -3.5t20.5 -13.5l103 -84l-29 -38z" />
    <glyph glyph-name="eacute" unicode="&#xe9;" horiz-adv-x="541" 
d="M113 204q11 -77 64 -119t140 -42q51 0 86.5 14.5t54.5 25.5l29 -48q-8 -5 -24 -13.5t-39 -16.5t-52 -13.5t-64 -5.5q-55 0 -103.5 16.5t-85 48.5t-57.5 79t-21 109q0 60 20 109.5t56 85t85.5 55t108.5 19.5q50 0 87.5 -11.5t62.5 -32.5t37.5 -49.5t12.5 -61.5
t-13.5 -60.5t-46 -48t-87 -32t-137.5 -11.5q-32 0 -58.5 0.5t-55.5 2.5zM111 256q27 -2 52.5 -2.5t53.5 -0.5q68 0 112 8.5t69.5 22.5t35.5 33t10 40q0 28 -11.5 47t-31 30.5t-44 16.5t-50.5 5q-47 0 -83 -16.5t-60.5 -44.5t-38 -64t-14.5 -75zM287 562l-29 38l103 84
q12 10 20.5 13.5t19.5 3.5q22 0 32.5 -15t11.5 -28z" />
    <glyph glyph-name="ecircumflex" unicode="&#xea;" horiz-adv-x="541" 
d="M113 204q11 -77 64 -119t140 -42q51 0 86.5 14.5t54.5 25.5l29 -48q-8 -5 -24 -13.5t-39 -16.5t-52 -13.5t-64 -5.5q-55 0 -103.5 16.5t-85 48.5t-57.5 79t-21 109q0 60 20 109.5t56 85t85.5 55t108.5 19.5q50 0 87.5 -11.5t62.5 -32.5t37.5 -49.5t12.5 -61.5
t-13.5 -60.5t-46 -48t-87 -32t-137.5 -11.5q-32 0 -58.5 0.5t-55.5 2.5zM111 256q27 -2 52.5 -2.5t53.5 -0.5q68 0 112 8.5t69.5 22.5t35.5 33t10 40q0 28 -11.5 47t-31 30.5t-44 16.5t-50.5 5q-47 0 -83 -16.5t-60.5 -44.5t-38 -64t-14.5 -75zM300 704q14 0 24.5 -8.5
l23.5 -19.5l90 -82l-32 -32l-106 74l-106 -74l-32 32l89 82q13 12 24 20t25 8z" />
    <glyph glyph-name="edieresis" unicode="&#xeb;" horiz-adv-x="541" 
d="M113 204q11 -77 64 -119t140 -42q51 0 86.5 14.5t54.5 25.5l29 -48q-8 -5 -24 -13.5t-39 -16.5t-52 -13.5t-64 -5.5q-55 0 -103.5 16.5t-85 48.5t-57.5 79t-21 109q0 60 20 109.5t56 85t85.5 55t108.5 19.5q50 0 87.5 -11.5t62.5 -32.5t37.5 -49.5t12.5 -61.5
t-13.5 -60.5t-46 -48t-87 -32t-137.5 -11.5q-32 0 -58.5 0.5t-55.5 2.5zM111 256q27 -2 52.5 -2.5t53.5 -0.5q68 0 112 8.5t69.5 22.5t35.5 33t10 40q0 28 -11.5 47t-31 30.5t-44 16.5t-50.5 5q-47 0 -83 -16.5t-60.5 -44.5t-38 -64t-14.5 -75zM217 576q-20 0 -36 15.5
t-16 34.5t16 34.5t36 15.5q21 0 36.5 -15.5t15.5 -34.5t-15.5 -34.5t-36.5 -15.5zM394 576q-21 0 -36.5 15.5t-15.5 34.5t15.5 34.5t36.5 15.5t36.5 -15.5t15.5 -34.5t-15.5 -34.5t-36.5 -15.5z" />
    <glyph glyph-name="igrave" unicode="&#xec;" horiz-adv-x="200" 
d="M67 460q0 15 8.5 24.5t27.5 9.5q9 0 17.5 -2.5t12.5 -4.5v-487h-66v460zM-1 658q1 13 11.5 28t32.5 15q11 0 19.5 -3.5t20.5 -13.5l103 -84l-29 -38z" />
    <glyph glyph-name="iacute" unicode="&#xed;" horiz-adv-x="200" 
d="M67 460q0 15 8.5 24.5t27.5 9.5q9 0 17.5 -2.5t12.5 -4.5v-487h-66v460zM52 562l-29 38l103 84q12 10 20.5 13.5t19.5 3.5q22 0 32.5 -15t11.5 -28z" />
    <glyph glyph-name="icircumflex" unicode="&#xee;" horiz-adv-x="200" 
d="M67 460q0 15 8.5 24.5t27.5 9.5q9 0 17.5 -2.5t12.5 -4.5v-487h-66v460zM105 704q14 0 24.5 -8.5l23.5 -19.5l90 -82l-32 -32l-106 74l-106 -74l-32 32l89 82q13 12 24 20t25 8z" />
    <glyph glyph-name="idieresis" unicode="&#xef;" horiz-adv-x="200" 
d="M67 460q0 15 8.5 24.5t27.5 9.5q9 0 17.5 -2.5t12.5 -4.5v-487h-66v460zM17 576q-20 0 -36 15.5t-16 34.5t16 34.5t36 15.5q21 0 36.5 -15.5t15.5 -34.5t-15.5 -34.5t-36.5 -15.5zM194 576q-21 0 -36.5 15.5t-15.5 34.5t15.5 34.5t36.5 15.5t36.5 -15.5t15.5 -34.5
t-15.5 -34.5t-36.5 -15.5z" />
    <glyph glyph-name="eth" unicode="&#xf0;" horiz-adv-x="618" 
d="M478 695l-87 -50q40 -31 74 -70t59 -86.5t38.5 -102t13.5 -117.5q0 -69 -19.5 -122t-54.5 -89t-84 -54t-109 -18t-109 19t-84 52t-54.5 78.5t-19.5 98.5q0 54 19 99.5t53.5 78.5t82 51.5t104.5 18.5q28 0 55 -6t51 -16t44 -23.5t33 -29.5q-15 60 -55 112t-94 93l-146 -84
l-24 42l125 72q-24 14 -49 25.5t-50 19.5l21 50q35 -11 69.5 -26t66.5 -35l106 61zM309 426q-44 0 -80 -14t-62 -39.5t-40 -60.5t-14 -78q0 -42 14.5 -77t40 -60.5t61.5 -39.5t80 -14t80 14t62 39.5t40 60.5t14 77q0 43 -14 78t-40 60.5t-62 39.5t-80 14z" />
    <glyph glyph-name="ntilde" unicode="&#xf1;" horiz-adv-x="589" 
d="M461 0v276q0 83 -41.5 129t-125.5 46t-125 -46t-41 -129v-276h-66v296q0 47 16 86t46 67t73 43.5t97 15.5t97.5 -15.5t73.5 -43.5t46 -67t16 -86v-296h-66zM271 605l-23.5 7.5t-23.5 3.5q-19 0 -26.5 -10t-12.5 -29l-51 8q3 16 9.5 32.5t17 29.5t26.5 21t38 8
q20 0 37.5 -4t31.5 -9l21 -7q10 -3 23.5 -7.5t27.5 -4.5q18 0 26 9.5t13 28.5l51 -8q-3 -17 -9.5 -33t-17.5 -29t-26.5 -21t-37.5 -8q-20 0 -38 4.5t-32 9.5z" />
    <glyph glyph-name="ograve" unicode="&#xf2;" horiz-adv-x="618" 
d="M505 247q0 43 -14 80.5t-40 65.5t-62 43.5t-80 15.5t-80 -15.5t-62 -43.5t-40 -65.5t-14 -80.5q0 -42 14.5 -79.5t40 -65t61.5 -43.5t80 -16t80 16t62 43.5t40 65t14 79.5zM576 247q0 -54 -20 -101.5t-55.5 -83t-84.5 -56t-107 -20.5t-107 20.5t-84.5 56t-55.5 83
t-20 101.5q0 55 20 102.5t55.5 83t84.5 55.5t107 20t107 -20t84.5 -55.5t55.5 -83t20 -102.5zM201 658q1 13 11.5 28t32.5 15q11 0 19.5 -3.5t20.5 -13.5l103 -84l-29 -38z" />
    <glyph glyph-name="oacute" unicode="&#xf3;" horiz-adv-x="618" 
d="M505 247q0 43 -14 80.5t-40 65.5t-62 43.5t-80 15.5t-80 -15.5t-62 -43.5t-40 -65.5t-14 -80.5q0 -42 14.5 -79.5t40 -65t61.5 -43.5t80 -16t80 16t62 43.5t40 65t14 79.5zM576 247q0 -54 -20 -101.5t-55.5 -83t-84.5 -56t-107 -20.5t-107 20.5t-84.5 56t-55.5 83
t-20 101.5q0 55 20 102.5t55.5 83t84.5 55.5t107 20t107 -20t84.5 -55.5t55.5 -83t20 -102.5zM271 562l-29 38l103 84q12 10 20.5 13.5t19.5 3.5q22 0 32.5 -15t11.5 -28z" />
    <glyph glyph-name="ocircumflex" unicode="&#xf4;" horiz-adv-x="618" 
d="M505 247q0 43 -14 80.5t-40 65.5t-62 43.5t-80 15.5t-80 -15.5t-62 -43.5t-40 -65.5t-14 -80.5q0 -42 14.5 -79.5t40 -65t61.5 -43.5t80 -16t80 16t62 43.5t40 65t14 79.5zM576 247q0 -54 -20 -101.5t-55.5 -83t-84.5 -56t-107 -20.5t-107 20.5t-84.5 56t-55.5 83
t-20 101.5q0 55 20 102.5t55.5 83t84.5 55.5t107 20t107 -20t84.5 -55.5t55.5 -83t20 -102.5zM309 704q14 0 24.5 -8.5l23.5 -19.5l90 -82l-32 -32l-106 74l-106 -74l-32 32l89 82q13 12 24 20t25 8z" />
    <glyph glyph-name="otilde" unicode="&#xf5;" horiz-adv-x="618" 
d="M505 247q0 43 -14 80.5t-40 65.5t-62 43.5t-80 15.5t-80 -15.5t-62 -43.5t-40 -65.5t-14 -80.5q0 -42 14.5 -79.5t40 -65t61.5 -43.5t80 -16t80 16t62 43.5t40 65t14 79.5zM576 247q0 -54 -20 -101.5t-55.5 -83t-84.5 -56t-107 -20.5t-107 20.5t-84.5 56t-55.5 83
t-20 101.5q0 55 20 102.5t55.5 83t84.5 55.5t107 20t107 -20t84.5 -55.5t55.5 -83t20 -102.5zM285 605l-23.5 7.5t-23.5 3.5q-19 0 -26.5 -10t-12.5 -29l-51 8q3 16 9.5 32.5t17 29.5t26.5 21t38 8q20 0 37.5 -4t31.5 -9l21 -7q10 -3 23.5 -7.5t27.5 -4.5q18 0 26 9.5
t13 28.5l51 -8q-3 -17 -9.5 -33t-17.5 -29t-26.5 -21t-37.5 -8q-20 0 -38 4.5t-32 9.5z" />
    <glyph glyph-name="odieresis" unicode="&#xf6;" horiz-adv-x="618" 
d="M505 247q0 43 -14 80.5t-40 65.5t-62 43.5t-80 15.5t-80 -15.5t-62 -43.5t-40 -65.5t-14 -80.5q0 -42 14.5 -79.5t40 -65t61.5 -43.5t80 -16t80 16t62 43.5t40 65t14 79.5zM576 247q0 -54 -20 -101.5t-55.5 -83t-84.5 -56t-107 -20.5t-107 20.5t-84.5 56t-55.5 83
t-20 101.5q0 55 20 102.5t55.5 83t84.5 55.5t107 20t107 -20t84.5 -55.5t55.5 -83t20 -102.5zM220 576q-20 0 -36 15.5t-16 34.5t16 34.5t36 15.5q21 0 36.5 -15.5t15.5 -34.5t-15.5 -34.5t-36.5 -15.5zM397 576q-21 0 -36.5 15.5t-15.5 34.5t15.5 34.5t36.5 15.5
t36.5 -15.5t15.5 -34.5t-15.5 -34.5t-36.5 -15.5z" />
    <glyph glyph-name="divide" unicode="&#xf7;" horiz-adv-x="637" 
d="M93 309q-19 0 -26.5 9t-7.5 23q0 8 2 15.5t4 12.5h479q19 0 26.5 -9t7.5 -22q0 -9 -2 -16.5t-4 -12.5h-479zM379 159q0 -25 -17 -42.5t-41 -17.5q-25 0 -42.5 17.5t-17.5 42.5q0 24 17.5 41t42.5 17q24 0 41 -17t17 -41zM379 520q0 -25 -17 -42.5t-41 -17.5
q-25 0 -42.5 17.5t-17.5 42.5q0 24 17.5 41t42.5 17q24 0 41 -17t17 -41z" />
    <glyph glyph-name="oslash" unicode="&#xf8;" horiz-adv-x="618" 
d="M466 460q51 -35 80.5 -90.5t29.5 -122.5q0 -54 -20 -101.5t-55.5 -83t-84.5 -56t-107 -20.5q-57 0 -106 20l-39 -67h-62l53 92q-53 35 -83 91.5t-30 124.5q0 55 20 102.5t55.5 83t84.5 55.5t107 20t110 -22l22 39q8 14 15.5 22.5t22.5 8.5q11 0 22 -4.5t14 -7.5zM113 247
q0 -50 19 -92t54 -70l203 351q-38 16 -80 16q-44 0 -80 -15.5t-62 -43.5t-40 -65.5t-14 -80.5zM505 247q0 50 -18.5 91t-50.5 69l-203 -350q36 -14 76 -14q44 0 80 16t62 43.5t40 65t14 79.5z" />
    <glyph glyph-name="ugrave" unicode="&#xf9;" horiz-adv-x="589" 
d="M461 460q0 15 8.5 24.5t27.5 9.5q9 0 17.5 -2.5t12.5 -4.5v-289q0 -47 -16 -86t-46 -67t-73.5 -43.5t-97.5 -15.5t-97 15.5t-73 43.5t-46 67t-16 86v262q0 15 8.5 24.5t27.5 9.5q9 0 17.5 -2.5t12.5 -4.5v-269q0 -83 41 -129t125 -46t125.5 46t41.5 129v242zM180 658
q1 13 11.5 28t32.5 15q11 0 19.5 -3.5t20.5 -13.5l103 -84l-29 -38z" />
    <glyph glyph-name="uacute" unicode="&#xfa;" horiz-adv-x="589" 
d="M461 460q0 15 8.5 24.5t27.5 9.5q9 0 17.5 -2.5t12.5 -4.5v-289q0 -47 -16 -86t-46 -67t-73.5 -43.5t-97.5 -15.5t-97 15.5t-73 43.5t-46 67t-16 86v262q0 15 8.5 24.5t27.5 9.5q9 0 17.5 -2.5t12.5 -4.5v-269q0 -83 41 -129t125 -46t125.5 46t41.5 129v242zM271 562
l-29 38l103 84q12 10 20.5 13.5t19.5 3.5q22 0 32.5 -15t11.5 -28z" />
    <glyph glyph-name="ucircumflex" unicode="&#xfb;" horiz-adv-x="589" 
d="M461 460q0 15 8.5 24.5t27.5 9.5q9 0 17.5 -2.5t12.5 -4.5v-289q0 -47 -16 -86t-46 -67t-73.5 -43.5t-97.5 -15.5t-97 15.5t-73 43.5t-46 67t-16 86v262q0 15 8.5 24.5t27.5 9.5q9 0 17.5 -2.5t12.5 -4.5v-269q0 -83 41 -129t125 -46t125.5 46t41.5 129v242zM298 704
q14 0 24.5 -8.5l23.5 -19.5l90 -82l-32 -32l-106 74l-106 -74l-32 32l89 82q13 12 24 20t25 8z" />
    <glyph glyph-name="udieresis" unicode="&#xfc;" horiz-adv-x="589" 
d="M461 460q0 15 8.5 24.5t27.5 9.5q9 0 17.5 -2.5t12.5 -4.5v-289q0 -47 -16 -86t-46 -67t-73.5 -43.5t-97.5 -15.5t-97 15.5t-73 43.5t-46 67t-16 86v262q0 15 8.5 24.5t27.5 9.5q9 0 17.5 -2.5t12.5 -4.5v-269q0 -83 41 -129t125 -46t125.5 46t41.5 129v242zM206 576
q-20 0 -36 15.5t-16 34.5t16 34.5t36 15.5q21 0 36.5 -15.5t15.5 -34.5t-15.5 -34.5t-36.5 -15.5zM383 576q-21 0 -36.5 15.5t-15.5 34.5t15.5 34.5t36.5 15.5t36.5 -15.5t15.5 -34.5t-15.5 -34.5t-36.5 -15.5z" />
    <glyph glyph-name="yacute" unicode="&#xfd;" horiz-adv-x="589" 
d="M527 36q0 -65 -18 -111.5t-51 -76.5t-79.5 -44t-104.5 -14q-75 0 -124.5 12.5t-69.5 20.5l19 52q20 -8 64 -18.5t110 -10.5q37 0 71.5 8t60.5 28t41.5 55t15.5 88v46q-19 -38 -65.5 -61.5t-109.5 -23.5q-109 0 -167 57t-58 155v262q0 15 8.5 24.5t27.5 9.5q9 0 17.5 -2.5
t12.5 -4.5v-275q0 -80 39 -124.5t123 -44.5q87 0 129 48t42 131v238q0 15 8.5 24.5t27.5 9.5q9 0 17.5 -2.5t12.5 -4.5v-451zM267 562l-29 38l103 84q12 10 20.5 13.5t19.5 3.5q22 0 32.5 -15t11.5 -28z" />
    <glyph glyph-name="thorn" unicode="&#xfe;" horiz-adv-x="617" 
d="M504 247q0 42 -13.5 79.5t-39 65t-61 43.5t-80.5 16q-44 0 -79.5 -15.5t-61 -42.5t-39.5 -64.5t-14 -81.5t14 -81t39.5 -65t61 -43.5t79.5 -15.5q45 0 80.5 15.5t61 43.5t39 65t13.5 81zM116 406q3 6 17.5 22.5t39 34.5t59 31.5t78.5 13.5q58 0 107 -20.5t84 -56
t54.5 -83t19.5 -101.5q0 -55 -19.5 -102.5t-54.5 -83t-84 -55.5t-107 -20q-60 0 -111 26t-83 74v-286h-66v903q0 15 8.5 24.5t27.5 9.5q9 0 17.5 -2.5t12.5 -4.5v-324z" />
    <glyph glyph-name="ydieresis" unicode="&#xff;" horiz-adv-x="589" 
d="M527 36q0 -65 -18 -111.5t-51 -76.5t-79.5 -44t-104.5 -14q-75 0 -124.5 12.5t-69.5 20.5l19 52q20 -8 64 -18.5t110 -10.5q37 0 71.5 8t60.5 28t41.5 55t15.5 88v46q-19 -38 -65.5 -61.5t-109.5 -23.5q-109 0 -167 57t-58 155v262q0 15 8.5 24.5t27.5 9.5q9 0 17.5 -2.5
t12.5 -4.5v-275q0 -80 39 -124.5t123 -44.5q87 0 129 48t42 131v238q0 15 8.5 24.5t27.5 9.5q9 0 17.5 -2.5t12.5 -4.5v-451zM210 576q-20 0 -36 15.5t-16 34.5t16 34.5t36 15.5q21 0 36.5 -15.5t15.5 -34.5t-15.5 -34.5t-36.5 -15.5zM387 576q-21 0 -36.5 15.5t-15.5 34.5
t15.5 34.5t36.5 15.5t36.5 -15.5t15.5 -34.5t-15.5 -34.5t-36.5 -15.5z" />
    <glyph glyph-name="Amacron" unicode="&#x100;" horiz-adv-x="696" 
d="M5 0q59 158 126 318t142 321q17 37 34 51t43 14q19 0 32.5 -6t15.5 -8q18 -30 44.5 -86.5t56 -126l60.5 -144.5l57.5 -142l46.5 -118t28 -73h-78l-14.5 38l-23 61l-24.5 64t-19 47h-379l-50 -126.5l-32 -83.5h-66zM346 644q-42 -84 -85.5 -180t-83.5 -195h332l-41 102
l-46 109.5l-43.5 97.5t-32.5 66zM469 843q20 0 28 -8.5t8 -22.5q0 -18 -5 -30h-275q-20 0 -28 9t-8 25q0 8 2 15t4 12h274z" />
    <glyph glyph-name="amacron" unicode="&#x101;" horiz-adv-x="555" 
d="M244 453q-56 0 -91 -14t-48 -26q-7 5 -12.5 14t-5.5 20t5.5 19t13.5 14q10 8 44 18t92 10q119 0 185 -49t66 -158v-299q-29 -5 -83.5 -10.5t-123.5 -5.5q-80 0 -128.5 14t-75.5 36.5t-36 50.5t-9 56q0 36 11 65.5t37.5 50.5t71.5 33t113 12q22 0 46 -1.5t45.5 -3t39 -3.5
t27.5 -3v6q0 46 -15.5 76t-41 47.5t-58.5 24t-69 6.5zM428 237q-9 2 -47.5 8t-113.5 6q-37 0 -67 -5t-51.5 -17.5t-33 -33.5t-11.5 -52q0 -54 42.5 -79.5t141.5 -25.5q65 0 97 5.5t43 8.5v185zM400 660q20 0 28 -9t8 -23q0 -10 -2 -17.5t-4 -12.5h-260q-20 0 -28 9t-8 24
q0 9 2 16.5t4 12.5h260z" />
    <glyph glyph-name="Abreve" unicode="&#x102;" horiz-adv-x="696" 
d="M5 0q59 158 126 318t142 321q17 37 34 51t43 14q19 0 32.5 -6t15.5 -8q18 -30 44.5 -86.5t56 -126l60.5 -144.5l57.5 -142l46.5 -118t28 -73h-78l-14.5 38l-23 61l-24.5 64t-19 47h-379l-50 -126.5l-32 -83.5h-66zM346 644q-42 -84 -85.5 -180t-83.5 -195h332l-41 102
l-46 109.5l-43.5 97.5t-32.5 66zM350 810q42 0 66.5 20t32.5 54l49 -5q-1 -17 -8 -39.5t-24 -42.5t-45.5 -34t-70.5 -14q-43 0 -71 14t-45.5 34t-24.5 42.5t-8 39.5l49 5q8 -34 32.5 -54t67.5 -20z" />
    <glyph glyph-name="abreve" unicode="&#x103;" horiz-adv-x="555" 
d="M244 453q-56 0 -91 -14t-48 -26q-7 5 -12.5 14t-5.5 20t5.5 19t13.5 14q10 8 44 18t92 10q119 0 185 -49t66 -158v-299q-29 -5 -83.5 -10.5t-123.5 -5.5q-80 0 -128.5 14t-75.5 36.5t-36 50.5t-9 56q0 36 11 65.5t37.5 50.5t71.5 33t113 12q22 0 46 -1.5t45.5 -3t39 -3.5
t27.5 -3v6q0 46 -15.5 76t-41 47.5t-58.5 24t-69 6.5zM428 237q-9 2 -47.5 8t-113.5 6q-37 0 -67 -5t-51.5 -17.5t-33 -33.5t-11.5 -52q0 -54 42.5 -79.5t141.5 -25.5q65 0 97 5.5t43 8.5v185zM287 626q39 0 60.5 20.5t29.5 54.5l43 -5q-1 -17 -7.5 -39t-21.5 -42
t-40.5 -33.5t-63.5 -13.5t-63.5 13.5t-41 33.5t-22 42t-7.5 39l45 5q8 -34 29 -54.5t60 -20.5z" />
    <glyph glyph-name="Aogonek" unicode="&#x104;" horiz-adv-x="696" 
d="M613 0l-14.5 38l-23 61l-24.5 64t-19 47h-379l-50 -126.5l-32 -83.5h-66q59 158 126 318t142 321q17 37 34 51t43 14q19 0 32.5 -6t15.5 -8q18 -30 44.5 -86.5t56 -126l60.5 -144.5l57.5 -142l46.5 -118t28 -73h-9q-43 -17 -66.5 -37t-23.5 -44q0 -21 15 -31.5t38 -10.5
t40.5 6.5t19.5 8.5l18 -40q-8 -5 -31.5 -13t-61.5 -8q-42 0 -69.5 18t-27.5 59q0 21 8.5 36.5t20.5 26.5t26 18t25 11zM346 644q-42 -84 -85.5 -180t-83.5 -195h332l-41 102l-46 109.5l-43.5 97.5t-32.5 66z" />
    <glyph glyph-name="aogonek" unicode="&#x105;" horiz-adv-x="555" 
d="M244 453q-56 0 -91 -14t-48 -26q-7 5 -12.5 14t-5.5 20t5.5 19t13.5 14q10 8 44 18t92 10q119 0 185 -49t66 -158v-299q-11 -2 -24.5 -3.5l-30.5 -3.5q-28 -11 -50.5 -31t-22.5 -46q0 -23 15 -32t38 -9t40.5 6.5t19.5 8.5l18 -40q-8 -5 -31 -13t-58 -8q-45 0 -73 17.5
t-28 59.5q0 33 16.5 51.5t35.5 28.5q-17 -1 -35 -1.5t-37 -0.5q-80 0 -128.5 14t-75.5 36.5t-36 50.5t-9 56q0 36 11 65.5t37.5 50.5t71.5 33t113 12q22 0 46 -1.5t45.5 -3t39 -3.5t27.5 -3v6q0 46 -15.5 76t-41 47.5t-58.5 24t-69 6.5zM428 237q-9 2 -47.5 8t-113.5 6
q-37 0 -67 -5t-51.5 -17.5t-33 -33.5t-11.5 -52q0 -54 42.5 -79.5t141.5 -25.5q65 0 97 5.5t43 8.5v185z" />
    <glyph glyph-name="Cacute" unicode="&#x106;" horiz-adv-x="656" 
d="M609 653q15 -11 20 -20.5t5 -18.5q0 -14 -10.5 -26.5t-20.5 -17.5q-10 12 -29.5 25t-45.5 23.5t-58 17.5t-67 7q-59 0 -110.5 -21t-89.5 -60t-60 -95t-22 -126q0 -72 23.5 -127.5t63 -93t93 -56.5t113.5 -19q36 0 67 5t55.5 12.5t42.5 16t29 15.5l30 -54q-12 -8 -31 -18
t-46.5 -19t-65 -15t-85.5 -6q-73 0 -138.5 24t-115.5 70t-79.5 112.5t-29.5 151.5t29 152.5t78 114.5t114.5 72t137.5 25q74 0 127 -17t76 -34zM333 748l-26 43l118 80q13 9 21.5 11.5t19.5 2.5q14 0 24 -5t16 -12t9 -15.5t3 -15.5z" />
    <glyph glyph-name="cacute" unicode="&#x107;" horiz-adv-x="483" 
d="M307 451q-42 0 -77.5 -12t-61.5 -37t-40.5 -63.5t-14.5 -90.5q0 -54 16 -93t43.5 -63.5t65 -36.5t79.5 -12q53 0 82.5 12t45.5 21l27 -49q-29 -16 -67 -28.5t-100 -12.5q-56 0 -104.5 17t-83.5 50t-55 81t-20 109q0 63 20 112.5t55 83.5t84 51.5t107 17.5q66 0 103 -13.5
t46 -21.5q7 -5 12 -12.5t5 -18.5q0 -8 -5.5 -19t-16.5 -19q-17 15 -53.5 31t-91.5 16zM245 562l-29 38l103 84q12 10 20.5 13.5t19.5 3.5q22 0 32.5 -15t11.5 -28z" />
    <glyph glyph-name="Ccircumflex" unicode="&#x108;" horiz-adv-x="656" 
d="M609 653q15 -11 20 -20.5t5 -18.5q0 -14 -10.5 -26.5t-20.5 -17.5q-10 12 -29.5 25t-45.5 23.5t-58 17.5t-67 7q-59 0 -110.5 -21t-89.5 -60t-60 -95t-22 -126q0 -72 23.5 -127.5t63 -93t93 -56.5t113.5 -19q36 0 67 5t55.5 12.5t42.5 16t29 15.5l30 -54q-12 -8 -31 -18
t-46.5 -19t-65 -15t-85.5 -6q-73 0 -138.5 24t-115.5 70t-79.5 112.5t-29.5 151.5t29 152.5t78 114.5t114.5 72t137.5 25q74 0 127 -17t76 -34zM565 782l-27 -34l-125 64l-128 -64l-27 34l98 74l27.5 20t28.5 9t28.5 -9l27.5 -20z" />
    <glyph glyph-name="ccircumflex" unicode="&#x109;" horiz-adv-x="483" 
d="M307 451q-42 0 -77.5 -12t-61.5 -37t-40.5 -63.5t-14.5 -90.5q0 -54 16 -93t43.5 -63.5t65 -36.5t79.5 -12q53 0 82.5 12t45.5 21l27 -49q-29 -16 -67 -28.5t-100 -12.5q-56 0 -104.5 17t-83.5 50t-55 81t-20 109q0 63 20 112.5t55 83.5t84 51.5t107 17.5q66 0 103 -13.5
t46 -21.5q7 -5 12 -12.5t5 -18.5q0 -8 -5.5 -19t-16.5 -19q-17 15 -53.5 31t-91.5 16zM302 704q14 0 24.5 -8.5l23.5 -19.5l90 -82l-32 -32l-106 74l-106 -74l-32 32l89 82q13 12 24 20t25 8z" />
    <glyph glyph-name="Cdotaccent" unicode="&#x10a;" horiz-adv-x="656" 
d="M609 653q15 -11 20 -20.5t5 -18.5q0 -14 -10.5 -26.5t-20.5 -17.5q-10 12 -29.5 25t-45.5 23.5t-58 17.5t-67 7q-59 0 -110.5 -21t-89.5 -60t-60 -95t-22 -126q0 -72 23.5 -127.5t63 -93t93 -56.5t113.5 -19q36 0 67 5t55.5 12.5t42.5 16t29 15.5l30 -54q-12 -8 -31 -18
t-46.5 -19t-65 -15t-85.5 -6q-73 0 -138.5 24t-115.5 70t-79.5 112.5t-29.5 151.5t29 152.5t78 114.5t114.5 72t137.5 25q74 0 127 -17t76 -34zM406 757q-22 0 -39.5 17t-17.5 37q0 10 5 20t13 17.5t18 12.5t21 5q22 0 39 -17.5t17 -37.5t-17 -37t-39 -17z" />
    <glyph glyph-name="cdotaccent" unicode="&#x10b;" horiz-adv-x="483" 
d="M307 451q-42 0 -77.5 -12t-61.5 -37t-40.5 -63.5t-14.5 -90.5q0 -54 16 -93t43.5 -63.5t65 -36.5t79.5 -12q53 0 82.5 12t45.5 21l27 -49q-29 -16 -67 -28.5t-100 -12.5q-56 0 -104.5 17t-83.5 50t-55 81t-20 109q0 63 20 112.5t55 83.5t84 51.5t107 17.5q66 0 103 -13.5
t46 -21.5q7 -5 12 -12.5t5 -18.5q0 -8 -5.5 -19t-16.5 -19q-17 15 -53.5 31t-91.5 16zM302 573q-21 0 -38 16.5t-17 36.5t17 36.5t38 16.5q22 0 38.5 -16.5t16.5 -36.5t-16.5 -36.5t-38.5 -16.5z" />
    <glyph glyph-name="Ccaron" unicode="&#x10c;" horiz-adv-x="656" 
d="M609 653q15 -11 20 -20.5t5 -18.5q0 -14 -10.5 -26.5t-20.5 -17.5q-10 12 -29.5 25t-45.5 23.5t-58 17.5t-67 7q-59 0 -110.5 -21t-89.5 -60t-60 -95t-22 -126q0 -72 23.5 -127.5t63 -93t93 -56.5t113.5 -19q36 0 67 5t55.5 12.5t42.5 16t29 15.5l30 -54q-12 -8 -31 -18
t-46.5 -19t-65 -15t-85.5 -6q-73 0 -138.5 24t-115.5 70t-79.5 112.5t-29.5 151.5t29 152.5t78 114.5t114.5 72t137.5 25q74 0 127 -17t76 -34zM250 852l27 34l125 -64l128 64l27 -34l-98 -74l-27.5 -20t-28.5 -9t-28.5 9l-27.5 20z" />
    <glyph glyph-name="ccaron" unicode="&#x10d;" horiz-adv-x="483" 
d="M307 451q-42 0 -77.5 -12t-61.5 -37t-40.5 -63.5t-14.5 -90.5q0 -54 16 -93t43.5 -63.5t65 -36.5t79.5 -12q53 0 82.5 12t45.5 21l27 -49q-29 -16 -67 -28.5t-100 -12.5q-56 0 -104.5 17t-83.5 50t-55 81t-20 109q0 63 20 112.5t55 83.5t84 51.5t107 17.5q66 0 103 -13.5
t46 -21.5q7 -5 12 -12.5t5 -18.5q0 -8 -5.5 -19t-16.5 -19q-17 15 -53.5 31t-91.5 16zM305 562q-14 0 -24.5 8.5l-23.5 19.5l-90 82l32 32l106 -74l106 74l32 -32l-89 -82q-13 -12 -24 -20t-25 -8z" />
    <glyph glyph-name="Dcaron" unicode="&#x10e;" horiz-adv-x="740" 
d="M693 344q0 -80 -26.5 -145t-78.5 -111.5t-127.5 -72t-172.5 -25.5q-100 0 -152.5 4.5t-58.5 5.5v646q0 36 40 40q24 3 68.5 6.5t101.5 3.5q98 0 173.5 -26t127.5 -72.5t78.5 -111t26.5 -142.5zM619 345q0 64 -19.5 117.5t-61.5 92t-108 60t-158 21.5q-57 0 -89 -3.5
t-37 -4.5v-569q7 -2 38.5 -6t95.5 -4q85 0 148.5 21.5t106 60.5t63.5 93.5t21 120.5zM167 852l27 34l125 -64l128 64l27 -34l-98 -74l-27.5 -20t-28.5 -9t-28.5 9l-27.5 20z" />
    <glyph glyph-name="dcaron" unicode="&#x10f;" horiz-adv-x="717" 
d="M113 247q0 -42 13.5 -79.5t39 -65t61 -43.5t80.5 -16q43 0 79 15t61 42t39 64t14 81q0 43 -14.5 81t-40 66t-61 44t-77.5 16q-45 0 -80.5 -15.5t-61 -43.5t-39 -65.5t-13.5 -80.5zM501 703q0 15 8.5 24.5t27.5 9.5q9 0 17.5 -2.5t12.5 -4.5v-459q0 -24 -1.5 -42.5
t-3.5 -32.5q-9 -49 -31 -88t-55 -66t-76 -41.5t-93 -14.5q-59 0 -107.5 20.5t-83.5 56t-54.5 83t-19.5 101.5q0 55 19.5 102.5t54.5 83t83.5 55.5t107.5 20q66 0 115 -26t79 -71v292zM638 544v157q0 14 9.5 25t27.5 11q10 0 19.5 -3.5t14.5 -7.5l-16 -182h-55z" />
    <glyph glyph-name="Dcroat" unicode="&#x110;" horiz-adv-x="765" 
d="M102 384v262q0 36 40 40q24 3 68.5 6.5t101.5 3.5q98 0 173.5 -26t127.5 -72.5t78.5 -111t26.5 -142.5q0 -80 -26.5 -145t-78.5 -111.5t-127.5 -72t-172.5 -25.5q-100 0 -152.5 4.5t-58.5 5.5v323h-43q-18 0 -26 9t-8 23q0 9 2 16.5t4 12.5h71zM351 384q19 0 26.5 -9
t7.5 -22q0 -10 -2 -17.5t-4 -12.5h-208v-264q7 -2 38.5 -6t95.5 -4q85 0 148.5 21.5t106 60.5t63.5 93.5t21 120.5q0 64 -19.5 117.5t-61.5 92t-108 60t-158 21.5q-57 0 -89 -3.5t-37 -4.5v-244h180z" />
    <glyph glyph-name="dcroat" unicode="&#x111;" horiz-adv-x="617" 
d="M638 643q19 0 26 -9t7 -21q0 -9 -2 -16.5t-4 -12.5h-98v-313q0 -24 -1.5 -42.5t-3.5 -32.5q-9 -49 -31 -88t-55 -66t-76 -41.5t-93 -14.5q-59 0 -107.5 20.5t-83.5 56t-54.5 83t-19.5 101.5q0 55 19.5 102.5t54.5 83t83.5 55.5t107.5 20q60 0 111 -27.5t83 -72.5v176
h-173q-18 0 -25.5 9t-7.5 23q0 8 2 15t4 12h200v60q0 15 8.5 24.5t27.5 9.5q9 0 17.5 -2.5t12.5 -4.5v-87h71zM113 247q0 -42 13.5 -79.5t39 -65t61 -43.5t80.5 -16q43 0 79 15.5t61.5 42.5t39.5 64.5t14 81.5q0 43 -14 80.5t-39.5 65.5t-61 43.5t-79.5 15.5
q-45 0 -80.5 -15.5t-61 -43.5t-39 -65.5t-13.5 -80.5z" />
    <glyph glyph-name="Emacron" unicode="&#x112;" horiz-adv-x="635" 
d="M150 325v-264h426v-61h-499v646q0 18 11 29t34 11h428q14 0 23.5 -7.5t9.5 -23.5q0 -11 -3.5 -19t-5.5 -11h-424v-239h384q14 0 23.5 -7.5t9.5 -23.5q0 -11 -3.5 -19t-5.5 -11h-408zM460 843q20 0 28 -8.5t8 -22.5q0 -18 -5 -30h-275q-20 0 -28 9t-8 25q0 8 2 15t4 12
h274z" />
    <glyph glyph-name="emacron" unicode="&#x113;" horiz-adv-x="541" 
d="M113 204q11 -77 64 -119t140 -42q51 0 86.5 14.5t54.5 25.5l29 -48q-8 -5 -24 -13.5t-39 -16.5t-52 -13.5t-64 -5.5q-55 0 -103.5 16.5t-85 48.5t-57.5 79t-21 109q0 60 20 109.5t56 85t85.5 55t108.5 19.5q50 0 87.5 -11.5t62.5 -32.5t37.5 -49.5t12.5 -61.5
t-13.5 -60.5t-46 -48t-87 -32t-137.5 -11.5q-32 0 -58.5 0.5t-55.5 2.5zM111 256q27 -2 52.5 -2.5t53.5 -0.5q68 0 112 8.5t69.5 22.5t35.5 33t10 40q0 28 -11.5 47t-31 30.5t-44 16.5t-50.5 5q-47 0 -83 -16.5t-60.5 -44.5t-38 -64t-14.5 -75zM419 660q20 0 28 -9t8 -23
q0 -10 -2 -17.5t-4 -12.5h-260q-20 0 -28 9t-8 24q0 9 2 16.5t4 12.5h260z" />
    <glyph glyph-name="Ebreve" unicode="&#x114;" horiz-adv-x="635" 
d="M150 325v-264h426v-61h-499v646q0 18 11 29t34 11h428q14 0 23.5 -7.5t9.5 -23.5q0 -11 -3.5 -19t-5.5 -11h-424v-239h384q14 0 23.5 -7.5t9.5 -23.5q0 -11 -3.5 -19t-5.5 -11h-408zM348 810q42 0 66.5 20t32.5 54l49 -5q-1 -17 -8 -39.5t-24 -42.5t-45.5 -34t-70.5 -14
q-43 0 -71 14t-45.5 34t-24.5 42.5t-8 39.5l49 5q8 -34 32.5 -54t67.5 -20z" />
    <glyph glyph-name="ebreve" unicode="&#x115;" horiz-adv-x="541" 
d="M113 204q11 -77 64 -119t140 -42q51 0 86.5 14.5t54.5 25.5l29 -48q-8 -5 -24 -13.5t-39 -16.5t-52 -13.5t-64 -5.5q-55 0 -103.5 16.5t-85 48.5t-57.5 79t-21 109q0 60 20 109.5t56 85t85.5 55t108.5 19.5q50 0 87.5 -11.5t62.5 -32.5t37.5 -49.5t12.5 -61.5
t-13.5 -60.5t-46 -48t-87 -32t-137.5 -11.5q-32 0 -58.5 0.5t-55.5 2.5zM111 256q27 -2 52.5 -2.5t53.5 -0.5q68 0 112 8.5t69.5 22.5t35.5 33t10 40q0 28 -11.5 47t-31 30.5t-44 16.5t-50.5 5q-47 0 -83 -16.5t-60.5 -44.5t-38 -64t-14.5 -75zM301 626q39 0 60.5 20.5
t29.5 54.5l43 -5q-1 -17 -7.5 -39t-21.5 -42t-40.5 -33.5t-63.5 -13.5t-63.5 13.5t-41 33.5t-22 42t-7.5 39l45 5q8 -34 29 -54.5t60 -20.5z" />
    <glyph glyph-name="Edotaccent" unicode="&#x116;" horiz-adv-x="635" 
d="M150 325v-264h426v-61h-499v646q0 18 11 29t34 11h428q14 0 23.5 -7.5t9.5 -23.5q0 -11 -3.5 -19t-5.5 -11h-424v-239h384q14 0 23.5 -7.5t9.5 -23.5q0 -11 -3.5 -19t-5.5 -11h-408zM343 757q-22 0 -39.5 17t-17.5 37q0 10 5 20t13 17.5t18 12.5t21 5q22 0 39 -17.5
t17 -37.5t-17 -37t-39 -17z" />
    <glyph glyph-name="edotaccent" unicode="&#x117;" horiz-adv-x="541" 
d="M113 204q11 -77 64 -119t140 -42q51 0 86.5 14.5t54.5 25.5l29 -48q-8 -5 -24 -13.5t-39 -16.5t-52 -13.5t-64 -5.5q-55 0 -103.5 16.5t-85 48.5t-57.5 79t-21 109q0 60 20 109.5t56 85t85.5 55t108.5 19.5q50 0 87.5 -11.5t62.5 -32.5t37.5 -49.5t12.5 -61.5
t-13.5 -60.5t-46 -48t-87 -32t-137.5 -11.5q-32 0 -58.5 0.5t-55.5 2.5zM111 256q27 -2 52.5 -2.5t53.5 -0.5q68 0 112 8.5t69.5 22.5t35.5 33t10 40q0 28 -11.5 47t-31 30.5t-44 16.5t-50.5 5q-47 0 -83 -16.5t-60.5 -44.5t-38 -64t-14.5 -75zM300 573q-21 0 -38 16.5
t-17 36.5t17 36.5t38 16.5q22 0 38.5 -16.5t16.5 -36.5t-16.5 -36.5t-38.5 -16.5z" />
    <glyph glyph-name="Eogonek" unicode="&#x118;" horiz-adv-x="635" 
d="M77 0v646q0 18 11 29t34 11h428q14 0 23.5 -7.5t9.5 -23.5q0 -11 -3.5 -19t-5.5 -11h-424v-239h384q14 0 23.5 -7.5t9.5 -23.5q0 -11 -3.5 -19t-5.5 -11h-408v-264h426v-61h-41q-43 -17 -66.5 -37t-23.5 -44q0 -21 15 -31.5t38 -10.5t40.5 6.5t19.5 8.5l18 -40
q-8 -5 -31.5 -13t-61.5 -8q-42 0 -69.5 18t-27.5 59q0 21 8.5 36.5t20.5 26.5t26 18t25 11h-389z" />
    <glyph glyph-name="eogonek" unicode="&#x119;" horiz-adv-x="541" 
d="M113 204q11 -77 64 -119t140 -42q51 0 86.5 14.5t54.5 25.5l29 -48q-11 -7 -35 -19t-59 -20q-29 -11 -53 -31t-24 -47q0 -23 15 -32t38 -9t40.5 6.5t19.5 8.5l18 -40q-8 -5 -31 -13t-58 -8q-45 0 -73 17.5t-28 59.5q0 31 15 49.5t33 28.5q-54 0 -102 16.5t-84 48.5
t-57 79t-21 109q0 60 20 109.5t56 85t85.5 55t108.5 19.5q50 0 87.5 -11.5t62.5 -32.5t37.5 -49.5t12.5 -61.5t-13.5 -60.5t-46 -48t-87 -32t-137.5 -11.5q-32 0 -58.5 0.5t-55.5 2.5zM111 256q27 -2 52.5 -2.5t53.5 -0.5q68 0 112 8.5t69.5 22.5t35.5 33t10 40
q0 28 -11.5 47t-31 30.5t-44 16.5t-50.5 5q-47 0 -83 -16.5t-60.5 -44.5t-38 -64t-14.5 -75z" />
    <glyph glyph-name="Ecaron" unicode="&#x11a;" horiz-adv-x="635" 
d="M150 325v-264h426v-61h-499v646q0 18 11 29t34 11h428q14 0 23.5 -7.5t9.5 -23.5q0 -11 -3.5 -19t-5.5 -11h-424v-239h384q14 0 23.5 -7.5t9.5 -23.5q0 -11 -3.5 -19t-5.5 -11h-408zM190 852l27 34l125 -64l128 64l27 -34l-98 -74l-27.5 -20t-28.5 -9t-28.5 9l-27.5 20z
" />
    <glyph glyph-name="ecaron" unicode="&#x11b;" horiz-adv-x="541" 
d="M113 204q11 -77 64 -119t140 -42q51 0 86.5 14.5t54.5 25.5l29 -48q-8 -5 -24 -13.5t-39 -16.5t-52 -13.5t-64 -5.5q-55 0 -103.5 16.5t-85 48.5t-57.5 79t-21 109q0 60 20 109.5t56 85t85.5 55t108.5 19.5q50 0 87.5 -11.5t62.5 -32.5t37.5 -49.5t12.5 -61.5
t-13.5 -60.5t-46 -48t-87 -32t-137.5 -11.5q-32 0 -58.5 0.5t-55.5 2.5zM111 256q27 -2 52.5 -2.5t53.5 -0.5q68 0 112 8.5t69.5 22.5t35.5 33t10 40q0 28 -11.5 47t-31 30.5t-44 16.5t-50.5 5q-47 0 -83 -16.5t-60.5 -44.5t-38 -64t-14.5 -75zM302 562q-14 0 -24.5 8.5
l-23.5 19.5l-90 82l32 32l106 -74l106 74l32 -32l-89 -82q-13 -12 -24 -20t-25 -8z" />
    <glyph glyph-name="Gcircumflex" unicode="&#x11c;" horiz-adv-x="717" 
d="M412 300q-14 0 -23.5 7.5t-9.5 23.5q0 11 3.5 19t5.5 11h224q21 0 32 -11t11 -29v-323q-12 -2 -34 -4.5t-51.5 -5t-64 -4.5t-70.5 -2q-84 0 -155 23t-123 68.5t-81 113t-29 156.5q0 83 29 150t79.5 114t119.5 72t150 25q40 0 73.5 -5.5t59.5 -13t44 -15.5t27 -14
q16 -11 21 -21t5 -18q0 -14 -10.5 -26.5t-20.5 -17.5q-11 12 -31 24.5t-47 22t-59.5 16t-68.5 6.5q-62 0 -116.5 -20.5t-94.5 -59t-63 -94t-23 -125.5q0 -80 25 -136.5t69 -93.5t104 -54t131 -17q57 0 91 4t45 6v248h-174zM577 782l-27 -34l-125 64l-128 -64l-27 34l98 74
l27.5 20t28.5 9t28.5 -9l27.5 -20z" />
    <glyph glyph-name="gcircumflex" unicode="&#x11d;" horiz-adv-x="617" 
d="M113 247q0 -45 13.5 -83t39 -65t61 -42t80.5 -15q44 0 79.5 16t61 43.5t39 65t13.5 81.5t-14 81t-39 64t-61 42.5t-79 15.5q-45 0 -80.5 -16t-61 -43.5t-39 -65t-13.5 -79.5zM567 85q0 -80 -21 -136.5t-58.5 -91.5t-89 -51t-111.5 -16q-76 0 -121 12.5t-65 20.5l18 54
q6 -2 19.5 -7.5t34.5 -10.5t48 -9t59 -4q36 0 75 7.5t71.5 31t54 67t21.5 116.5v24q-32 -52 -81.5 -79t-115.5 -27q-62 0 -111 20t-82.5 55.5t-51.5 83t-18 102.5q0 54 19.5 101.5t54.5 83t83.5 56t107.5 20.5q50 0 93 -14.5t76 -41.5t55 -66t31 -88q2 -14 3.5 -32.5
t1.5 -42.5v-138zM312 704q14 0 24.5 -8.5l23.5 -19.5l90 -82l-32 -32l-106 74l-106 -74l-32 32l89 82q13 12 24 20t25 8z" />
    <glyph glyph-name="Gbreve" unicode="&#x11e;" horiz-adv-x="717" 
d="M412 300q-14 0 -23.5 7.5t-9.5 23.5q0 11 3.5 19t5.5 11h224q21 0 32 -11t11 -29v-323q-12 -2 -34 -4.5t-51.5 -5t-64 -4.5t-70.5 -2q-84 0 -155 23t-123 68.5t-81 113t-29 156.5q0 83 29 150t79.5 114t119.5 72t150 25q40 0 73.5 -5.5t59.5 -13t44 -15.5t27 -14
q16 -11 21 -21t5 -18q0 -14 -10.5 -26.5t-20.5 -17.5q-11 12 -31 24.5t-47 22t-59.5 16t-68.5 6.5q-62 0 -116.5 -20.5t-94.5 -59t-63 -94t-23 -125.5q0 -80 25 -136.5t69 -93.5t104 -54t131 -17q57 0 91 4t45 6v248h-174zM421 810q42 0 66.5 20t32.5 54l49 -5
q-1 -17 -8 -39.5t-24 -42.5t-45.5 -34t-70.5 -14q-43 0 -71 14t-45.5 34t-24.5 42.5t-8 39.5l49 5q8 -34 32.5 -54t67.5 -20z" />
    <glyph glyph-name="gbreve" unicode="&#x11f;" horiz-adv-x="617" 
d="M113 247q0 -45 13.5 -83t39 -65t61 -42t80.5 -15q44 0 79.5 16t61 43.5t39 65t13.5 81.5t-14 81t-39 64t-61 42.5t-79 15.5q-45 0 -80.5 -16t-61 -43.5t-39 -65t-13.5 -79.5zM567 85q0 -80 -21 -136.5t-58.5 -91.5t-89 -51t-111.5 -16q-76 0 -121 12.5t-65 20.5l18 54
q6 -2 19.5 -7.5t34.5 -10.5t48 -9t59 -4q36 0 75 7.5t71.5 31t54 67t21.5 116.5v24q-32 -52 -81.5 -79t-115.5 -27q-62 0 -111 20t-82.5 55.5t-51.5 83t-18 102.5q0 54 19.5 101.5t54.5 83t83.5 56t107.5 20.5q50 0 93 -14.5t76 -41.5t55 -66t31 -88q2 -14 3.5 -32.5
t1.5 -42.5v-138zM310 626q39 0 60.5 20.5t29.5 54.5l43 -5q-1 -17 -7.5 -39t-21.5 -42t-40.5 -33.5t-63.5 -13.5t-63.5 13.5t-41 33.5t-22 42t-7.5 39l45 5q8 -34 29 -54.5t60 -20.5z" />
    <glyph glyph-name="Gdotaccent" unicode="&#x120;" horiz-adv-x="717" 
d="M412 300q-14 0 -23.5 7.5t-9.5 23.5q0 11 3.5 19t5.5 11h224q21 0 32 -11t11 -29v-323q-12 -2 -34 -4.5t-51.5 -5t-64 -4.5t-70.5 -2q-84 0 -155 23t-123 68.5t-81 113t-29 156.5q0 83 29 150t79.5 114t119.5 72t150 25q40 0 73.5 -5.5t59.5 -13t44 -15.5t27 -14
q16 -11 21 -21t5 -18q0 -14 -10.5 -26.5t-20.5 -17.5q-11 12 -31 24.5t-47 22t-59.5 16t-68.5 6.5q-62 0 -116.5 -20.5t-94.5 -59t-63 -94t-23 -125.5q0 -80 25 -136.5t69 -93.5t104 -54t131 -17q57 0 91 4t45 6v248h-174zM424 757q-22 0 -39.5 17t-17.5 37q0 10 5 20
t13 17.5t18 12.5t21 5q22 0 39 -17.5t17 -37.5t-17 -37t-39 -17z" />
    <glyph glyph-name="gdotaccent" unicode="&#x121;" horiz-adv-x="617" 
d="M113 247q0 -45 13.5 -83t39 -65t61 -42t80.5 -15q44 0 79.5 16t61 43.5t39 65t13.5 81.5t-14 81t-39 64t-61 42.5t-79 15.5q-45 0 -80.5 -16t-61 -43.5t-39 -65t-13.5 -79.5zM567 85q0 -80 -21 -136.5t-58.5 -91.5t-89 -51t-111.5 -16q-76 0 -121 12.5t-65 20.5l18 54
q6 -2 19.5 -7.5t34.5 -10.5t48 -9t59 -4q36 0 75 7.5t71.5 31t54 67t21.5 116.5v24q-32 -52 -81.5 -79t-115.5 -27q-62 0 -111 20t-82.5 55.5t-51.5 83t-18 102.5q0 54 19.5 101.5t54.5 83t83.5 56t107.5 20.5q50 0 93 -14.5t76 -41.5t55 -66t31 -88q2 -14 3.5 -32.5
t1.5 -42.5v-138zM316 573q-21 0 -38 16.5t-17 36.5t17 36.5t38 16.5q22 0 38.5 -16.5t16.5 -36.5t-16.5 -36.5t-38.5 -16.5z" />
    <glyph glyph-name="Gcommaaccent" unicode="&#x122;" horiz-adv-x="717" 
d="M412 300q-14 0 -23.5 7.5t-9.5 23.5q0 11 3.5 19t5.5 11h224q21 0 32 -11t11 -29v-323q-12 -2 -34 -4.5t-51.5 -5t-64 -4.5t-70.5 -2q-84 0 -155 23t-123 68.5t-81 113t-29 156.5q0 83 29 150t79.5 114t119.5 72t150 25q40 0 73.5 -5.5t59.5 -13t44 -15.5t27 -14
q16 -11 21 -21t5 -18q0 -14 -10.5 -26.5t-20.5 -17.5q-11 12 -31 24.5t-47 22t-59.5 16t-68.5 6.5q-62 0 -116.5 -20.5t-94.5 -59t-63 -94t-23 -125.5q0 -80 25 -136.5t69 -93.5t104 -54t131 -17q57 0 91 4t45 6v248h-174zM416 -225l-52 10l18 122q3 21 12.5 36t30.5 15
q14 0 25 -5t16 -10z" />
    <glyph glyph-name="gcommaaccent" unicode="&#x123;" horiz-adv-x="617" 
d="M317 746l52 -10l-18 -122q-3 -21 -12.5 -36t-30.5 -15q-14 0 -25 5t-16 10zM113 247q0 -45 13.5 -83t39 -65t61 -42t80.5 -15q44 0 79.5 16t61 43.5t39 65t13.5 81.5t-14 81t-39 64t-61 42.5t-79 15.5q-45 0 -80.5 -16t-61 -43.5t-39 -65t-13.5 -79.5zM567 85
q0 -80 -21 -136.5t-58.5 -91.5t-89 -51t-111.5 -16q-76 0 -121 12.5t-65 20.5l18 54q6 -2 19.5 -7.5t34.5 -10.5t48 -9t59 -4q36 0 75 7.5t71.5 31t54 67t21.5 116.5v24q-32 -52 -81.5 -79t-115.5 -27q-62 0 -111 20t-82.5 55.5t-51.5 83t-18 102.5q0 54 19.5 101.5t54.5 83
t83.5 56t107.5 20.5q50 0 93 -14.5t76 -41.5t55 -66t31 -88q2 -14 3.5 -32.5t1.5 -42.5v-138z" />
    <glyph glyph-name="Hcircumflex" unicode="&#x124;" horiz-adv-x="732" 
d="M586 0v327h-440v-327h-69v650q0 16 8.5 26t28.5 10q10 0 18.5 -2.5t13.5 -5.5v-291h440v263q0 16 8.5 26t27.5 10q11 0 19.5 -3t13.5 -6v-677h-69zM530 782l-27 -34l-125 64l-128 -64l-27 34l98 74l27.5 20t28.5 9t28.5 -9l27.5 -20z" />
    <glyph glyph-name="hcircumflex" unicode="&#x125;" horiz-adv-x="589" 
d="M62 703q0 15 8.5 24.5t27.5 9.5q9 0 17.5 -2.5t12.5 -4.5v-308q11 16 28 31.5t40.5 27.5t54.5 19.5t69 7.5q97 0 152 -51t55 -142v-315h-66v281q0 40 -7.5 71.5t-25.5 53.5t-47.5 33.5t-74.5 11.5t-78.5 -14t-55.5 -38t-33 -56t-11 -68v-275h-66v703zM207 931
q14 0 24.5 -8.5l23.5 -19.5l90 -82l-32 -32l-106 74l-106 -74l-32 32l89 82q13 12 24 20t25 8z" />
    <glyph glyph-name="Hbar" unicode="&#x126;" horiz-adv-x="732" 
d="M77 557v93q0 16 8.5 26t28.5 10q10 0 18.5 -2.5t13.5 -5.5v-121h440v93q0 16 8.5 26t27.5 10q11 0 19.5 -3t13.5 -6v-120h44q18 0 25.5 -9t7.5 -21q0 -10 -2 -17.5t-4 -12.5h-71v-497h-69v327h-440v-327h-69v497h-44q-17 0 -25 8.5t-8 22.5q0 9 2 16.5t4 12.5h71z
M586 387v110h-440v-110h440z" />
    <glyph glyph-name="hbar" unicode="&#x127;" horiz-adv-x="589" 
d="M128 582v-170q11 16 28 31.5t40.5 27.5t54.5 19.5t69 7.5q97 0 152 -51t55 -142v-305h-66v271q0 40 -7.5 71.5t-25.5 53.5t-47.5 33.5t-74.5 11.5t-78.5 -14t-55.5 -38t-33 -56t-11 -68v-265h-66v582h-71q-18 0 -25.5 9t-7.5 23q0 8 2 15t4 12h98v62q0 15 8.5 24.5
t27.5 9.5q9 0 17.5 -2.5t12.5 -4.5v-89h173q19 0 26 -9t7 -21q0 -9 -2 -16.5t-4 -12.5h-200z" />
    <glyph glyph-name="Itilde" unicode="&#x128;" horiz-adv-x="223" 
d="M77 0v650q0 16 8.5 26t28.5 10q10 0 18.5 -2.5t13.5 -5.5v-678h-69zM186 767q-25 0 -47.5 7t-42.5 14q-14 5 -26.5 8.5t-23.5 3.5q-17 0 -24.5 -10t-12.5 -29l-54 8q3 16 9.5 33t17 30.5t26.5 22t39 8.5t41 -4.5t34 -10.5l32.5 -11.5t32.5 -5.5t24.5 9.5t12.5 28.5l55 -8
q-3 -17 -9.5 -34t-17.5 -30.5t-27.5 -21.5t-38.5 -8z" />
    <glyph glyph-name="itilde" unicode="&#x129;" horiz-adv-x="200" 
d="M67 460q0 15 8.5 24.5t27.5 9.5q9 0 17.5 -2.5t12.5 -4.5v-487h-66v460zM81 605l-23.5 7.5t-23.5 3.5q-19 0 -26.5 -10t-12.5 -29l-51 8q3 16 9.5 32.5t17 29.5t26.5 21t38 8q20 0 37.5 -4t31.5 -9l21 -7q10 -3 23.5 -7.5t27.5 -4.5q18 0 26 9.5t13 28.5l51 -8
q-3 -17 -9.5 -33t-17.5 -29t-26.5 -21t-37.5 -8q-20 0 -38 4.5t-32 9.5z" />
    <glyph glyph-name="Imacron" unicode="&#x12a;" horiz-adv-x="223" 
d="M77 0v650q0 16 8.5 26t28.5 10q10 0 18.5 -2.5t13.5 -5.5v-678h-69zM243 843q20 0 28 -8.5t8 -22.5q0 -18 -5 -30h-275q-20 0 -28 9t-8 25q0 8 2 15t4 12h274z" />
    <glyph glyph-name="imacron" unicode="&#x12b;" horiz-adv-x="200" 
d="M67 460q0 15 8.5 24.5t27.5 9.5q9 0 17.5 -2.5t12.5 -4.5v-487h-66v460zM222 660q20 0 28 -9t8 -23q0 -10 -2 -17.5t-4 -12.5h-260q-20 0 -28 9t-8 24q0 9 2 16.5t4 12.5h260z" />
    <glyph glyph-name="Ibreve" unicode="&#x12c;" horiz-adv-x="223" 
d="M77 0v650q0 16 8.5 26t28.5 10q10 0 18.5 -2.5t13.5 -5.5v-678h-69zM120 810q42 0 66.5 20t32.5 54l49 -5q-1 -17 -8 -39.5t-24 -42.5t-45.5 -34t-70.5 -14q-43 0 -71 14t-45.5 34t-24.5 42.5t-8 39.5l49 5q8 -34 32.5 -54t67.5 -20z" />
    <glyph glyph-name="ibreve" unicode="&#x12d;" horiz-adv-x="200" 
d="M67 460q0 15 8.5 24.5t27.5 9.5q9 0 17.5 -2.5t12.5 -4.5v-487h-66v460zM108 626q39 0 60.5 20.5t29.5 54.5l43 -5q-1 -17 -7.5 -39t-21.5 -42t-40.5 -33.5t-63.5 -13.5t-63.5 13.5t-41 33.5t-22 42t-7.5 39l45 5q8 -34 29 -54.5t60 -20.5z" />
    <glyph glyph-name="Iogonek" unicode="&#x12e;" horiz-adv-x="223" 
d="M77 650q0 16 8.5 26t28.5 10q10 0 18.5 -2.5t13.5 -5.5v-678q-43 -17 -66.5 -37t-23.5 -44q0 -21 15 -31.5t38 -10.5t40.5 6.5t19.5 8.5l18 -40q-8 -5 -31.5 -13t-61.5 -8q-42 0 -69.5 18t-27.5 59q0 21 8.5 36.5t20.5 26.5t26 18t25 11v650z" />
    <glyph glyph-name="iogonek" unicode="&#x12f;" horiz-adv-x="200" 
d="M67 460q0 15 8.5 24.5t27.5 9.5q9 0 17.5 -2.5t12.5 -4.5v-487q-16 -5 -32 -12.5t-28.5 -18t-20.5 -23.5t-8 -28q0 -23 15 -32t38 -9t40.5 6.5t19.5 8.5l18 -40q-8 -5 -31 -13t-58 -8q-45 0 -73 17.5t-28 59.5q0 24 9.5 40.5t23 27t27.5 16l22 8.5v460zM148 669
q0 -20 -14.5 -34.5t-34.5 -14.5t-34 14.5t-14 34.5t14 34t34 14t34.5 -14t14.5 -34z" />
    <glyph glyph-name="Idotaccent" unicode="&#x130;" horiz-adv-x="223" 
d="M77 0v650q0 16 8.5 26t28.5 10q10 0 18.5 -2.5t13.5 -5.5v-678h-69zM120 757q-22 0 -39.5 17t-17.5 37q0 10 5 20t13 17.5t18 12.5t21 5q22 0 39 -17.5t17 -37.5t-17 -37t-39 -17z" />
    <glyph glyph-name="dotlessi" unicode="&#x131;" horiz-adv-x="200" 
d="M67 460q0 15 8.5 24.5t27.5 9.5q9 0 17.5 -2.5t12.5 -4.5v-487h-66v460z" />
    <glyph glyph-name="i.locl" horiz-adv-x="200" 
d="M67 460q0 15 8.5 24.5t27.5 9.5q9 0 17.5 -2.5t12.5 -4.5v-487h-66v460zM148 669q0 -20 -14.5 -34.5t-34.5 -14.5t-34 14.5t-14 34.5t14 34t34 14t34.5 -14t14.5 -34z" />
    <glyph glyph-name="IJ" unicode="&#x132;" horiz-adv-x="804" 
d="M77 0v650q0 16 8.5 26t28.5 10q10 0 18.5 -2.5t13.5 -5.5v-678h-69zM734 227q0 -114 -63 -179.5t-189 -65.5q-55 0 -97.5 15.5t-72 35t-47 38t-21.5 25.5l44 40q9 -12 25 -28.5t40 -31.5t56 -26t73 -11q37 0 70.5 9t58.5 31t39.5 59t14.5 94v418q0 16 8.5 26t27.5 10
q11 0 19.5 -3t13.5 -6v-450z" />
    <glyph glyph-name="ij" unicode="&#x133;" horiz-adv-x="408" 
d="M67 460q0 15 8.5 24.5t27.5 9.5q9 0 17.5 -2.5t12.5 -4.5v-487h-66v460zM148 669q0 -20 -14.5 -34.5t-34.5 -14.5t-34 14.5t-14 34.5t14 34t34 14t34.5 -14t14.5 -34zM275 460q0 15 8.5 24.5t27.5 9.5q9 0 17.5 -2.5t12.5 -4.5v-531q0 -48 -14 -80t-37 -51t-52.5 -27
t-60.5 -8q-34 0 -60.5 6.5t-39.5 11.5l19 46q11 -5 29.5 -9.5t40.5 -4.5q20 0 39.5 4t35 15.5t25 33.5t9.5 58v509zM356 669q0 -20 -14.5 -34.5t-34.5 -14.5t-34 14.5t-14 34.5t14 34t34 14t34.5 -14t14.5 -34z" />
    <glyph glyph-name="Jcircumflex" unicode="&#x134;" horiz-adv-x="575" 
d="M505 227q0 -114 -63 -179.5t-189 -65.5q-55 0 -97.5 15.5t-72 35t-47 38t-21.5 25.5l44 40q9 -12 25 -28.5t40 -31.5t56 -26t73 -11q37 0 70.5 9t58.5 31t39.5 59t14.5 94v418q0 16 8.5 26t27.5 10q11 0 19.5 -3t13.5 -6v-450zM625 782l-27 -34l-125 64l-128 -64l-27 34
l98 74l27.5 20t28.5 9t28.5 -9l27.5 -20z" />
    <glyph glyph-name="jcircumflex" unicode="&#x135;" horiz-adv-x="200" 
d="M67 460q0 15 8.5 24.5t27.5 9.5q9 0 17.5 -2.5t12.5 -4.5v-531q0 -48 -14 -80t-37 -51t-52.5 -27t-60.5 -8q-34 0 -60.5 6.5t-39.5 11.5l19 46q11 -5 29.5 -9.5t40.5 -4.5q20 0 39.5 4t35 15.5t25 33.5t9.5 58v509zM109 704q14 0 24.5 -8.5l23.5 -19.5l90 -82l-32 -32
l-106 74l-106 -74l-32 32l89 82q13 12 24 20t25 8z" />
    <glyph glyph-name="Kcommaaccent" unicode="&#x136;" horiz-adv-x="627" 
d="M534 0q-26 28 -67.5 68.5t-93.5 85.5l-110 91t-117 86v-331h-69v650q0 16 8.5 26t28.5 10q10 0 18.5 -2.5t13.5 -5.5v-304l46 38.5l60.5 50.5l66.5 54.5l64 52l52.5 42.5l32.5 26l27.5 22t21.5 15t19.5 8.5t20.5 2.5q17 0 28.5 -9t15.5 -14l-29.5 -23.5l-57 -45.5
l-74.5 -59.5l-80.5 -64.5l-75 -61l-59.5 -48l113 -87.5t107 -91.5t96 -92.5t82 -89.5h-89zM330 -225l-52 10l18 122q3 21 12.5 36t30.5 15q14 0 25 -5t16 -10z" />
    <glyph glyph-name="kcommaaccent" unicode="&#x137;" horiz-adv-x="512" 
d="M62 703q0 15 8.5 24.5t27.5 9.5q9 0 17.5 -2.5t12.5 -4.5v-435q7 4 33 20l63.5 40l83 54l91.5 62q14 9 28 16t33 7q14 0 26.5 -9t14.5 -14q-15 -12 -41 -30l-56 -38.5l-61.5 -41l-59 -38.5l-48 -31t-28.5 -17q106 -71 184 -144t122 -131h-84q-25 30 -59 62.5t-73.5 65
t-82.5 63.5t-86 58v-249h-66v703zM267 -225l-52 10l18 122q3 21 12.5 36t30.5 15q14 0 25 -5t16 -10z" />
    <glyph glyph-name="kgreenlandic.case" horiz-adv-x="712" 
d="M534 0q-26 28 -67.5 68.5t-93.5 85.5l-110 91t-117 86v-331h-69v650q0 16 8.5 26t28.5 10q10 0 18.5 -2.5t13.5 -5.5v-304l46 38.5l60.5 50.5l66.5 54.5l64 52l52.5 42.5l32.5 26l27.5 22t21.5 15t19.5 8.5t20.5 2.5q17 0 28.5 -9t15.5 -14l-29.5 -23.5l-57 -45.5
l-74.5 -59.5l-80.5 -64.5l-75 -61l-59.5 -48l113 -87.5t107 -91.5t96 -92.5t82 -89.5h-89zM621 485l-48 19l51 167q9 32 40 32q21 0 31.5 -8.5t12.5 -10.5z" />
    <glyph glyph-name="kgreenlandic" unicode="&#x138;" horiz-adv-x="512" 
d="M62 460q0 15 8.5 24.5t27.5 9.5q9 0 17.5 -2.5t12.5 -4.5v-210q7 4 31.5 22.5l60.5 45.5l80 59.5l90 64.5q14 9 28.5 17t33.5 8q14 0 25.5 -9t13.5 -14l-41 -31.5l-54 -41l-60 -44.5l-58 -42.5l-47 -33.5t-28 -18q52 -33 95 -65.5t79 -65t66.5 -64.5l59.5 -65h-84
q-40 40 -74.5 71t-68 58t-69.5 52t-79 52v-233h-66v460z" />
    <glyph glyph-name="Lacute" unicode="&#x139;" horiz-adv-x="540" 
d="M77 0v650q0 16 8.5 26t28.5 10q10 0 18.5 -2.5t13.5 -5.5v-617h389v-61h-458zM73 748l-26 43l118 80q13 9 21.5 11.5t19.5 2.5q14 0 24 -5t16 -12t9 -15.5t3 -15.5z" />
    <glyph glyph-name="lacute" unicode="&#x13a;" horiz-adv-x="200" 
d="M67 703q0 15 8.5 24.5t27.5 9.5q9 0 17.5 -2.5t12.5 -4.5v-730h-66v703zM57 771l-26 43l118 80q13 9 21.5 11.5t19.5 2.5q14 0 24 -5t16 -12t9 -15.5t3 -15.5z" />
    <glyph glyph-name="Lcommaaccent" unicode="&#x13b;" horiz-adv-x="540" 
d="M77 0v650q0 16 8.5 26t28.5 10q10 0 18.5 -2.5t13.5 -5.5v-617h389v-61h-458zM292 -225l-52 10l18 122q3 21 12.5 36t30.5 15q14 0 25 -5t16 -10z" />
    <glyph glyph-name="lcommaaccent" unicode="&#x13c;" horiz-adv-x="200" 
d="M67 703q0 15 8.5 24.5t27.5 9.5q9 0 17.5 -2.5t12.5 -4.5v-730h-66v703zM93 -225l-52 10l18 122q3 21 12.5 36t30.5 15q14 0 25 -5t16 -10z" />
    <glyph glyph-name="Lcaron" unicode="&#x13d;" horiz-adv-x="540" 
d="M77 0v650q0 16 8.5 26t28.5 10q10 0 18.5 -2.5t13.5 -5.5v-617h389v-61h-458zM248 498v157q0 14 9.5 25t27.5 11q10 0 19.5 -3.5t14.5 -7.5l-16 -182h-55z" />
    <glyph glyph-name="lcaron" unicode="&#x13e;" horiz-adv-x="271" 
d="M67 703q0 15 8.5 24.5t27.5 9.5q9 0 17.5 -2.5t12.5 -4.5v-730h-66v703zM205 544v157q0 14 9.5 25t27.5 11q10 0 19.5 -3.5t14.5 -7.5l-16 -182h-55z" />
    <glyph glyph-name="Ldot" unicode="&#x13f;" horiz-adv-x="540" 
d="M77 0v650q0 16 8.5 26t28.5 10q10 0 18.5 -2.5t13.5 -5.5v-617h389v-61h-458zM375 336q-22 0 -39.5 17t-17.5 37q0 10 5 20t13 17.5t18 12.5t21 5q22 0 39 -17.5t17 -37.5t-17 -37t-39 -17z" />
    <glyph glyph-name="ldot" unicode="&#x140;" horiz-adv-x="386" 
d="M67 703q0 15 8.5 24.5t27.5 9.5q9 0 17.5 -2.5t12.5 -4.5v-730h-66v703zM303 333q-21 0 -38 16.5t-17 36.5t17 36.5t38 16.5q22 0 38.5 -16.5t16.5 -36.5t-16.5 -36.5t-38.5 -16.5z" />
    <glyph glyph-name="Lslash" unicode="&#x141;" horiz-adv-x="540" 
d="M77 337v313q0 16 8.5 26t28.5 10q10 0 18.5 -2.5t13.5 -5.5v-305l186 120v-26q0 -17 -3 -33.5t-19 -26.5l-164 -105v-241h389v-61h-458v265l-77 -49v23q0 17 3 34.5t20 28.5z" />
    <glyph glyph-name="lslash" unicode="&#x142;" horiz-adv-x="200" 
d="M133 367v-367h-66v328l-67 -50v37q0 13 2.5 25t13.5 20l51 38v305q0 15 8.5 24.5t27.5 9.5q9 0 17.5 -2.5t12.5 -4.5v-293l68 51v-37q0 -13 -2.5 -24.5t-13.5 -20.5z" />
    <glyph glyph-name="Nacute" unicode="&#x143;" horiz-adv-x="730" 
d="M570 0l-90.5 137l-108.5 159l-115 163.5l-110 151.5v-611h-69v646q0 17 14 28.5t37 11.5q20 0 35 -7.5t23 -13.5l43.5 -58l61.5 -84.5l73 -102l78 -111l75.5 -111.5l66.5 -102v554q0 16 8.5 26t27.5 10q11 0 19.5 -3t13.5 -6v-677h-83zM322 748l-26 43l118 80
q13 9 21.5 11.5t19.5 2.5q14 0 24 -5t16 -12t9 -15.5t3 -15.5z" />
    <glyph glyph-name="nacute" unicode="&#x144;" horiz-adv-x="589" 
d="M461 0v276q0 83 -41.5 129t-125.5 46t-125 -46t-41 -129v-276h-66v296q0 47 16 86t46 67t73 43.5t97 15.5t97.5 -15.5t73.5 -43.5t46 -67t16 -86v-296h-66zM262 562l-29 38l103 84q12 10 20.5 13.5t19.5 3.5q22 0 32.5 -15t11.5 -28z" />
    <glyph glyph-name="Ncommaaccent" unicode="&#x145;" horiz-adv-x="730" 
d="M570 0l-90.5 137l-108.5 159l-115 163.5l-110 151.5v-611h-69v646q0 17 14 28.5t37 11.5q20 0 35 -7.5t23 -13.5l43.5 -58l61.5 -84.5l73 -102l78 -111l75.5 -111.5l66.5 -102v554q0 16 8.5 26t27.5 10q11 0 19.5 -3t13.5 -6v-677h-83zM369 -225l-52 10l18 122
q3 21 12.5 36t30.5 15q14 0 25 -5t16 -10z" />
    <glyph glyph-name="ncommaaccent" unicode="&#x146;" horiz-adv-x="589" 
d="M461 0v276q0 83 -41.5 129t-125.5 46t-125 -46t-41 -129v-276h-66v296q0 47 16 86t46 67t73 43.5t97 15.5t97.5 -15.5t73.5 -43.5t46 -67t16 -86v-296h-66zM294 -225l-52 10l18 122q3 21 12.5 36t30.5 15q14 0 25 -5t16 -10z" />
    <glyph glyph-name="Ncaron" unicode="&#x147;" horiz-adv-x="730" 
d="M570 0l-90.5 137l-108.5 159l-115 163.5l-110 151.5v-611h-69v646q0 17 14 28.5t37 11.5q20 0 35 -7.5t23 -13.5l43.5 -58l61.5 -84.5l73 -102l78 -111l75.5 -111.5l66.5 -102v554q0 16 8.5 26t27.5 10q11 0 19.5 -3t13.5 -6v-677h-83zM231 852l27 34l125 -64l128 64
l27 -34l-98 -74l-27.5 -20t-28.5 -9t-28.5 9l-27.5 20z" />
    <glyph glyph-name="ncaron" unicode="&#x148;" horiz-adv-x="589" 
d="M461 0v276q0 83 -41.5 129t-125.5 46t-125 -46t-41 -129v-276h-66v296q0 47 16 86t46 67t73 43.5t97 15.5t97.5 -15.5t73.5 -43.5t46 -67t16 -86v-296h-66zM298 562q-14 0 -24.5 8.5l-23.5 19.5l-90 82l32 32l106 -74l106 74l32 -32l-89 -82q-13 -12 -24 -20t-25 -8z" />
    <glyph glyph-name="napostrophe.case" horiz-adv-x="911" 
d="M751 0l-90.5 137l-108.5 159l-115 163.5l-110 151.5v-611h-69v646q0 17 14 28.5t37 11.5q20 0 35 -7.5t23 -13.5l43.5 -58l61.5 -84.5l73 -102l78 -111l75.5 -111.5l66.5 -102v554q0 16 8.5 26t27.5 10q11 0 19.5 -3t13.5 -6v-677h-83zM122 485l-48 19l51 167q9 32 40 32
q21 0 31.5 -8.5t12.5 -10.5z" />
    <glyph glyph-name="napostrophe" unicode="&#x149;" horiz-adv-x="660" 
d="M532 0v276q0 83 -41.5 129t-125.5 46t-125 -46t-41 -129v-276h-66v296q0 47 16 86t46 67t73 43.5t97 15.5t97.5 -15.5t73.5 -43.5t46 -67t16 -86v-296h-66zM122 485l-48 19l51 167q9 32 40 32q21 0 31.5 -8.5t12.5 -10.5z" />
    <glyph glyph-name="Eng" unicode="&#x14a;" horiz-adv-x="730" 
d="M653 -44q0 -48 -14 -80t-37 -51t-52.5 -27t-60.5 -8q-34 0 -60.5 6.5t-39.5 11.5l19 46q11 -5 29.5 -9.5t40.5 -4.5q20 0 39.5 4t35 15.5t25 33.5t9.5 58v49l-93.5 137l-114.5 159l-120.5 163.5l-112.5 151.5v-611h-69v646q0 17 14 28.5t37 11.5q20 0 35 -7.5t23 -13.5
l43.5 -56.5l61.5 -81l73 -98l78 -106.5l75.5 -108l66.5 -101v536q0 16 8.5 26t27.5 10q11 0 19.5 -3t13.5 -6v-721z" />
    <glyph glyph-name="eng" unicode="&#x14b;" horiz-adv-x="589" 
d="M461 276q0 83 -41.5 129t-125.5 46t-125 -46t-41 -129v-276h-66v296q0 47 16 86t46 67t73 43.5t97 15.5t97.5 -15.5t73.5 -43.5t46 -67t16 -86v-340q0 -48 -14 -80t-37 -51t-52.5 -27t-60.5 -8q-34 0 -60.5 6.5t-39.5 11.5l19 46q11 -5 29.5 -9.5t40.5 -4.5q20 0 39.5 4
t35 15.5t25 33.5t9.5 58v325z" />
    <glyph glyph-name="Omacron" unicode="&#x14c;" horiz-adv-x="815" 
d="M768 344q0 -78 -27.5 -144.5t-76 -115t-114.5 -75.5t-143 -27t-143 27t-114 75.5t-75.5 115t-27.5 144.5t27.5 144t75.5 114t114 75t143 27t143 -27t114.5 -75t76 -114t27.5 -144zM694 344q0 66 -22 121t-60.5 94.5t-91 61.5t-113.5 22t-113 -22t-90.5 -61.5t-60.5 -94.5
t-22 -121t22 -121.5t60.5 -95.5t90.5 -62t113 -22t113.5 22t91 62t60.5 95.5t22 121.5zM534 843q20 0 28 -8.5t8 -22.5q0 -18 -5 -30h-275q-20 0 -28 9t-8 25q0 8 2 15t4 12h274z" />
    <glyph glyph-name="omacron" unicode="&#x14d;" horiz-adv-x="618" 
d="M505 247q0 43 -14 80.5t-40 65.5t-62 43.5t-80 15.5t-80 -15.5t-62 -43.5t-40 -65.5t-14 -80.5q0 -42 14.5 -79.5t40 -65t61.5 -43.5t80 -16t80 16t62 43.5t40 65t14 79.5zM576 247q0 -54 -20 -101.5t-55.5 -83t-84.5 -56t-107 -20.5t-107 20.5t-84.5 56t-55.5 83
t-20 101.5q0 55 20 102.5t55.5 83t84.5 55.5t107 20t107 -20t84.5 -55.5t55.5 -83t20 -102.5zM431 660q20 0 28 -9t8 -23q0 -10 -2 -17.5t-4 -12.5h-260q-20 0 -28 9t-8 24q0 9 2 16.5t4 12.5h260z" />
    <glyph glyph-name="Obreve" unicode="&#x14e;" horiz-adv-x="815" 
d="M768 344q0 -78 -27.5 -144.5t-76 -115t-114.5 -75.5t-143 -27t-143 27t-114 75.5t-75.5 115t-27.5 144.5t27.5 144t75.5 114t114 75t143 27t143 -27t114.5 -75t76 -114t27.5 -144zM694 344q0 66 -22 121t-60.5 94.5t-91 61.5t-113.5 22t-113 -22t-90.5 -61.5t-60.5 -94.5
t-22 -121t22 -121.5t60.5 -95.5t90.5 -62t113 -22t113.5 22t91 62t60.5 95.5t22 121.5zM410 810q42 0 66.5 20t32.5 54l49 -5q-1 -17 -8 -39.5t-24 -42.5t-45.5 -34t-70.5 -14q-43 0 -71 14t-45.5 34t-24.5 42.5t-8 39.5l49 5q8 -34 32.5 -54t67.5 -20z" />
    <glyph glyph-name="obreve" unicode="&#x14f;" horiz-adv-x="618" 
d="M505 247q0 43 -14 80.5t-40 65.5t-62 43.5t-80 15.5t-80 -15.5t-62 -43.5t-40 -65.5t-14 -80.5q0 -42 14.5 -79.5t40 -65t61.5 -43.5t80 -16t80 16t62 43.5t40 65t14 79.5zM576 247q0 -54 -20 -101.5t-55.5 -83t-84.5 -56t-107 -20.5t-107 20.5t-84.5 56t-55.5 83
t-20 101.5q0 55 20 102.5t55.5 83t84.5 55.5t107 20t107 -20t84.5 -55.5t55.5 -83t20 -102.5zM318 626q39 0 60.5 20.5t29.5 54.5l43 -5q-1 -17 -7.5 -39t-21.5 -42t-40.5 -33.5t-63.5 -13.5t-63.5 13.5t-41 33.5t-22 42t-7.5 39l45 5q8 -34 29 -54.5t60 -20.5z" />
    <glyph glyph-name="Ohungarumlaut" unicode="&#x150;" horiz-adv-x="815" 
d="M768 344q0 -78 -27.5 -144.5t-76 -115t-114.5 -75.5t-143 -27t-143 27t-114 75.5t-75.5 115t-27.5 144.5t27.5 144t75.5 114t114 75t143 27t143 -27t114.5 -75t76 -114t27.5 -144zM694 344q0 66 -22 121t-60.5 94.5t-91 61.5t-113.5 22t-113 -22t-90.5 -61.5t-60.5 -94.5
t-22 -121t22 -121.5t60.5 -95.5t90.5 -62t113 -22t113.5 22t91 62t60.5 95.5t22 121.5zM297 749l-29 38l82 68q14 11 28 20t32 9q13 0 22.5 -5t15.5 -11.5t9 -14t3 -12.5zM493 749l-29 38l82 68q14 11 28 20t32 9q13 0 22.5 -5t15.5 -11.5t9 -14t3 -12.5z" />
    <glyph glyph-name="ohungarumlaut" unicode="&#x151;" horiz-adv-x="618" 
d="M505 247q0 43 -14 80.5t-40 65.5t-62 43.5t-80 15.5t-80 -15.5t-62 -43.5t-40 -65.5t-14 -80.5q0 -42 14.5 -79.5t40 -65t61.5 -43.5t80 -16t80 16t62 43.5t40 65t14 79.5zM576 247q0 -54 -20 -101.5t-55.5 -83t-84.5 -56t-107 -20.5t-107 20.5t-84.5 56t-55.5 83
t-20 101.5q0 55 20 102.5t55.5 83t84.5 55.5t107 20t107 -20t84.5 -55.5t55.5 -83t20 -102.5zM213 562l-29 33l71 72q12 13 24.5 22t29.5 9q22 0 32 -14.5t11 -23.5zM379 562l-29 33l71 72q12 13 24.5 22t29.5 9q22 0 32 -14.5t11 -23.5z" />
    <glyph glyph-name="Racute" unicode="&#x154;" horiz-adv-x="654" 
d="M528 486q0 34 -13 61.5t-41.5 47.5t-75 31t-113.5 11q-64 0 -97.5 -3t-42.5 -5v-288q18 -3 53 -6.5t86 -3.5q130 0 187 40t57 115zM449 292q26 -35 51 -73.5l48 -77l43 -75l36 -66.5h-84q-11 23 -33 62l-46.5 80.5l-48.5 78.5t-39 56q-20 -3 -38.5 -4t-35.5 -1
q-57 0 -97 2.5t-60 5.5v-280h-68v646q0 35 40 40q11 2 54 6t116 4q67 0 124.5 -11t99.5 -36t65.5 -65t23.5 -98q0 -42 -12 -74t-32.5 -55.5t-48 -39t-58.5 -25.5zM288 748l-26 43l118 80q13 9 21.5 11.5t19.5 2.5q14 0 24 -5t16 -12t9 -15.5t3 -15.5z" />
    <glyph glyph-name="racute" unicode="&#x155;" horiz-adv-x="394" 
d="M392 458q0 -10 -5.5 -18t-10.5 -13q-17 8 -43 15t-61 7q-41 0 -68.5 -10t-44.5 -29.5t-24 -48.5t-7 -66v-295h-66v326q0 87 52 134.5t152 47.5q54 0 90 -12t36 -38zM187 562l-29 38l103 84q12 10 20.5 13.5t19.5 3.5q22 0 32.5 -15t11.5 -28z" />
    <glyph glyph-name="Rcommaaccent" unicode="&#x156;" horiz-adv-x="654" 
d="M528 486q0 34 -13 61.5t-41.5 47.5t-75 31t-113.5 11q-64 0 -97.5 -3t-42.5 -5v-288q18 -3 53 -6.5t86 -3.5q130 0 187 40t57 115zM449 292q26 -35 51 -73.5l48 -77l43 -75l36 -66.5h-84q-11 23 -33 62l-46.5 80.5l-48.5 78.5t-39 56q-20 -3 -38.5 -4t-35.5 -1
q-57 0 -97 2.5t-60 5.5v-280h-68v646q0 35 40 40q11 2 54 6t116 4q67 0 124.5 -11t99.5 -36t65.5 -65t23.5 -98q0 -42 -12 -74t-32.5 -55.5t-48 -39t-58.5 -25.5zM330 -225l-52 10l18 122q3 21 12.5 36t30.5 15q14 0 25 -5t16 -10z" />
    <glyph glyph-name="rcommaaccent" unicode="&#x157;" horiz-adv-x="394" 
d="M392 458q0 -10 -5.5 -18t-10.5 -13q-17 8 -43 15t-61 7q-41 0 -68.5 -10t-44.5 -29.5t-24 -48.5t-7 -66v-295h-66v326q0 87 52 134.5t152 47.5q54 0 90 -12t36 -38zM92 -225l-52 10l18 122q3 21 12.5 36t30.5 15q14 0 25 -5t16 -10z" />
    <glyph glyph-name="Rcaron" unicode="&#x158;" horiz-adv-x="654" 
d="M528 486q0 34 -13 61.5t-41.5 47.5t-75 31t-113.5 11q-64 0 -97.5 -3t-42.5 -5v-288q18 -3 53 -6.5t86 -3.5q130 0 187 40t57 115zM449 292q26 -35 51 -73.5l48 -77l43 -75l36 -66.5h-84q-11 23 -33 62l-46.5 80.5l-48.5 78.5t-39 56q-20 -3 -38.5 -4t-35.5 -1
q-57 0 -97 2.5t-60 5.5v-280h-68v646q0 35 40 40q11 2 54 6t116 4q67 0 124.5 -11t99.5 -36t65.5 -65t23.5 -98q0 -42 -12 -74t-32.5 -55.5t-48 -39t-58.5 -25.5zM182 852l27 34l125 -64l128 64l27 -34l-98 -74l-27.5 -20t-28.5 -9t-28.5 9l-27.5 20z" />
    <glyph glyph-name="rcaron" unicode="&#x159;" horiz-adv-x="394" 
d="M392 458q0 -10 -5.5 -18t-10.5 -13q-17 8 -43 15t-61 7q-41 0 -68.5 -10t-44.5 -29.5t-24 -48.5t-7 -66v-295h-66v326q0 87 52 134.5t152 47.5q54 0 90 -12t36 -38zM247 562q-14 0 -24.5 8.5l-23.5 19.5l-90 82l32 32l106 -74l106 74l32 -32l-89 -82q-13 -12 -24 -20
t-25 -8z" />
    <glyph glyph-name="Sacute" unicode="&#x15a;" horiz-adv-x="662" 
d="M576 609q0 -12 -8 -24t-16 -17q-9 9 -28 22t-48 25t-68.5 21t-89.5 9q-200 0 -200 -128q0 -30 11.5 -51t33 -35.5t52.5 -24.5t69 -17l119 -22q106 -20 157.5 -64t51.5 -122q0 -43 -17 -79.5t-52 -62.5t-88 -41t-124 -15q-55 0 -100.5 8t-82 20.5t-63.5 26.5t-45 26l34 54
q15 -10 38.5 -23t56 -25t73 -20t90.5 -8q96 0 150.5 32.5t54.5 101.5q0 35 -13 58t-35.5 37t-52.5 22t-63 14l-118 20q-44 7 -82 21.5t-66 37t-44.5 54t-16.5 72.5q0 39 14 73.5t46.5 61t84 42t126.5 15.5q55 0 96 -6.5t69 -15.5t45 -18.5t25 -15.5q15 -12 19.5 -20t4.5 -19
zM285 748l-26 43l118 80q13 9 21.5 11.5t19.5 2.5q14 0 24 -5t16 -12t9 -15.5t3 -15.5z" />
    <glyph glyph-name="sacute" unicode="&#x15b;" horiz-adv-x="533" 
d="M433 472q28 -16 28 -37q0 -14 -7.5 -23t-15.5 -14q-4 4 -17.5 13t-37 18.5t-56.5 16.5t-76 7q-70 0 -111 -19.5t-41 -64.5q0 -36 27.5 -55t77.5 -25l114 -13q49 -6 82.5 -18.5t54 -30.5t29.5 -40.5t9 -49.5q0 -33 -14 -60.5t-42 -47.5t-69.5 -31.5t-96.5 -11.5
q-50 0 -92 8t-73.5 17.5t-50.5 19t-23 12.5l28 51l23.5 -11.5t44.5 -17.5t63 -16t79 -7q32 0 60 4.5t49 15t33 26.5t12 40q0 37 -25 58.5t-95 29.5l-105 12q-81 9 -123.5 44t-42.5 94q0 27 11 52.5t36.5 45.5t67.5 32t104 12q66 0 112.5 -12t68.5 -24zM228 562l-29 38
l103 84q12 10 20.5 13.5t19.5 3.5q22 0 32.5 -15t11.5 -28z" />
    <glyph glyph-name="Scircumflex" unicode="&#x15c;" horiz-adv-x="662" 
d="M576 609q0 -12 -8 -24t-16 -17q-9 9 -28 22t-48 25t-68.5 21t-89.5 9q-200 0 -200 -128q0 -30 11.5 -51t33 -35.5t52.5 -24.5t69 -17l119 -22q106 -20 157.5 -64t51.5 -122q0 -43 -17 -79.5t-52 -62.5t-88 -41t-124 -15q-55 0 -100.5 8t-82 20.5t-63.5 26.5t-45 26l34 54
q15 -10 38.5 -23t56 -25t73 -20t90.5 -8q96 0 150.5 32.5t54.5 101.5q0 35 -13 58t-35.5 37t-52.5 22t-63 14l-118 20q-44 7 -82 21.5t-66 37t-44.5 54t-16.5 72.5q0 39 14 73.5t46.5 61t84 42t126.5 15.5q55 0 96 -6.5t69 -15.5t45 -18.5t25 -15.5q15 -12 19.5 -20t4.5 -19
zM490 782l-27 -34l-125 64l-128 -64l-27 34l98 74l27.5 20t28.5 9t28.5 -9l27.5 -20z" />
    <glyph glyph-name="scircumflex" unicode="&#x15d;" horiz-adv-x="533" 
d="M433 472q28 -16 28 -37q0 -14 -7.5 -23t-15.5 -14q-4 4 -17.5 13t-37 18.5t-56.5 16.5t-76 7q-70 0 -111 -19.5t-41 -64.5q0 -36 27.5 -55t77.5 -25l114 -13q49 -6 82.5 -18.5t54 -30.5t29.5 -40.5t9 -49.5q0 -33 -14 -60.5t-42 -47.5t-69.5 -31.5t-96.5 -11.5
q-50 0 -92 8t-73.5 17.5t-50.5 19t-23 12.5l28 51l23.5 -11.5t44.5 -17.5t63 -16t79 -7q32 0 60 4.5t49 15t33 26.5t12 40q0 37 -25 58.5t-95 29.5l-105 12q-81 9 -123.5 44t-42.5 94q0 27 11 52.5t36.5 45.5t67.5 32t104 12q66 0 112.5 -12t68.5 -24zM270 704
q14 0 24.5 -8.5l23.5 -19.5l90 -82l-32 -32l-106 74l-106 -74l-32 32l89 82q13 12 24 20t25 8z" />
    <glyph glyph-name="Scedilla" unicode="&#x15e;" horiz-adv-x="662" 
d="M576 609q0 -12 -8 -24t-16 -17q-9 9 -28 22t-48 25t-68.5 21t-89.5 9q-200 0 -200 -128q0 -30 11.5 -51t33 -35.5t52.5 -24.5t69 -17l119 -22q106 -20 157.5 -64t51.5 -122q0 -43 -17 -79.5t-52 -62.5t-88 -41t-124 -15q-55 0 -100.5 8t-82 20.5t-63.5 26.5t-45 26l34 54
q15 -10 38.5 -23t56 -25t73 -20t90.5 -8q96 0 150.5 32.5t54.5 101.5q0 35 -13 58t-35.5 37t-52.5 22t-63 14l-118 20q-44 7 -82 21.5t-66 37t-44.5 54t-16.5 72.5q0 39 14 73.5t46.5 61t84 42t126.5 15.5q55 0 96 -6.5t69 -15.5t45 -18.5t25 -15.5q15 -12 19.5 -20t4.5 -19
zM312 -42q15 -1 31.5 -6.5t31 -15.5t23.5 -25t9 -36q0 -42 -27 -65.5t-73 -23.5q-19 0 -35 3t-27.5 7t-18.5 8t-8 5l20 43q2 -2 20.5 -10.5t43.5 -8.5q20 0 33 8t13 30q0 11 -5.5 18.5t-13.5 12t-17 6.5t-15 2z" />
    <glyph glyph-name="scedilla" unicode="&#x15f;" horiz-adv-x="533" 
d="M433 472q28 -16 28 -37q0 -14 -7.5 -23t-15.5 -14q-4 4 -17.5 13t-37 18.5t-56.5 16.5t-76 7q-70 0 -111 -19.5t-41 -64.5q0 -36 27.5 -55t77.5 -25l114 -13q49 -6 82.5 -18.5t54 -30.5t29.5 -40.5t9 -49.5q0 -33 -14 -60.5t-42 -47.5t-69.5 -31.5t-96.5 -11.5
q-50 0 -92 8t-73.5 17.5t-50.5 19t-23 12.5l28 51l23.5 -11.5t44.5 -17.5t63 -16t79 -7q32 0 60 4.5t49 15t33 26.5t12 40q0 37 -25 58.5t-95 29.5l-105 12q-81 9 -123.5 44t-42.5 94q0 27 11 52.5t36.5 45.5t67.5 32t104 12q66 0 112.5 -12t68.5 -24zM257 -42
q15 -1 31 -6.5t29.5 -15t22.5 -24.5t9 -36q0 -42 -26.5 -64.5t-72.5 -22.5q-38 0 -61.5 9.5t-25.5 11.5l19 40q2 -2 20 -10t43 -8q21 0 35 8.5t14 31.5q0 12 -5.5 20t-13.5 12.5t-17 7t-15 2.5z" />
    <glyph glyph-name="Tcommaaccent" unicode="&#x162;" horiz-adv-x="643" 
d="M605 686q14 0 23.5 -7.5t9.5 -23.5q0 -11 -3.5 -19t-5.5 -11h-281v-625h-70v625h-240q-14 0 -23.5 7.5t-9.5 23.5q0 11 3.5 19t5.5 11h591zM300 -225l-52 10l18 122q3 21 12.5 36t30.5 15q14 0 25 -5t16 -10z" />
    <glyph glyph-name="tcommaaccent" unicode="&#x163;" horiz-adv-x="360" 
d="M133 434v-290q0 -56 29 -79t76 -23q30 0 56 10t40 19l29 -43q-6 -5 -18.5 -12t-30 -14t-41 -11.5t-51.5 -4.5q-40 0 -69 11t-48 30.5t-28.5 46.5t-9.5 59v461q0 15 8.5 24.5t27.5 9.5q9 0 17.5 -2.5t12.5 -4.5v-127h176q21 0 29 -9.5t8 -23.5q0 -8 -2 -15t-4 -12h-207z
M195 -225l-52 10l18 122q3 21 12.5 36t30.5 15q14 0 25 -5t16 -10z" />
    <glyph glyph-name="Tcaron" unicode="&#x164;" horiz-adv-x="643" 
d="M605 686q14 0 23.5 -7.5t9.5 -23.5q0 -11 -3.5 -19t-5.5 -11h-281v-625h-70v625h-240q-14 0 -23.5 7.5t-9.5 23.5q0 11 3.5 19t5.5 11h591zM170 852l27 34l125 -64l128 64l27 -34l-98 -74l-27.5 -20t-28.5 -9t-28.5 9l-27.5 20z" />
    <glyph glyph-name="tcaron" unicode="&#x165;" horiz-adv-x="360" 
d="M133 434v-290q0 -56 29 -79t76 -23q30 0 56 10t40 19l29 -43q-6 -5 -18.5 -12t-30 -14t-41 -11.5t-51.5 -4.5q-40 0 -69 11t-48 30.5t-28.5 46.5t-9.5 59v461q0 15 8.5 24.5t27.5 9.5q9 0 17.5 -2.5t12.5 -4.5v-127h176q21 0 29 -9.5t8 -23.5q0 -8 -2 -15t-4 -12h-207z
M245 544v157q0 14 9.5 25t27.5 11q10 0 19.5 -3.5t14.5 -7.5l-16 -182h-55z" />
    <glyph glyph-name="Tbar" unicode="&#x166;" horiz-adv-x="643" 
d="M278 393v232h-240q-14 0 -23.5 7.5t-9.5 23.5q0 11 3.5 19t5.5 11h591q14 0 23.5 -7.5t9.5 -23.5q0 -11 -3.5 -19t-5.5 -11h-281v-232h171q18 0 25.5 -9t7.5 -21q0 -10 -2 -17.5t-4 -12.5h-198v-333h-70v333h-171q-17 0 -25 8.5t-8 22.5q0 9 2 16.5t4 12.5h198z" />
    <glyph glyph-name="tbar" unicode="&#x167;" horiz-adv-x="360" 
d="M133 144q0 -56 29 -79t76 -23q30 0 56 10t40 19l29 -43q-6 -5 -18.5 -12t-30 -14t-41 -11.5t-51.5 -4.5q-40 0 -69 11t-48 30.5t-28.5 46.5t-9.5 59v461q0 15 8.5 24.5t27.5 9.5q9 0 17.5 -2.5t12.5 -4.5v-127h176q21 0 29 -9.5t8 -23.5q0 -8 -2 -15t-4 -12h-207v-148
h176q21 0 29 -9.5t8 -23.5q0 -8 -2 -15t-4 -12h-207v-82z" />
    <glyph glyph-name="Utilde" unicode="&#x168;" horiz-adv-x="752" 
d="M70 650q0 16 8.5 26t27.5 10q11 0 19.5 -3t13.5 -6v-363q0 -68 12.5 -119t40.5 -85t73.5 -50.5t110.5 -16.5t110.5 16.5t73.5 50.5t40.5 85t12.5 119v336q0 16 8.5 26t27.5 10q11 0 19.5 -3t13.5 -6v-364q0 -163 -73.5 -247t-232.5 -84t-232.5 84t-73.5 247v337zM460 767
q-25 0 -47.5 7t-42.5 14q-14 5 -26.5 8.5t-23.5 3.5q-17 0 -24.5 -10t-12.5 -29l-54 8q3 16 9.5 33t17 30.5t26.5 22t39 8.5t41 -4.5t34 -10.5l32.5 -11.5t32.5 -5.5t24.5 9.5t12.5 28.5l55 -8q-3 -17 -9.5 -34t-17.5 -30.5t-27.5 -21.5t-38.5 -8z" />
    <glyph glyph-name="utilde" unicode="&#x169;" horiz-adv-x="589" 
d="M461 460q0 15 8.5 24.5t27.5 9.5q9 0 17.5 -2.5t12.5 -4.5v-289q0 -47 -16 -86t-46 -67t-73.5 -43.5t-97.5 -15.5t-97 15.5t-73 43.5t-46 67t-16 86v262q0 15 8.5 24.5t27.5 9.5q9 0 17.5 -2.5t12.5 -4.5v-269q0 -83 41 -129t125 -46t125.5 46t41.5 129v242zM290 605
l-23.5 7.5t-23.5 3.5q-19 0 -26.5 -10t-12.5 -29l-51 8q3 16 9.5 32.5t17 29.5t26.5 21t38 8q20 0 37.5 -4t31.5 -9l21 -7q10 -3 23.5 -7.5t27.5 -4.5q18 0 26 9.5t13 28.5l51 -8q-3 -17 -9.5 -33t-17.5 -29t-26.5 -21t-37.5 -8q-20 0 -38 4.5t-32 9.5z" />
    <glyph glyph-name="Umacron" unicode="&#x16a;" horiz-adv-x="752" 
d="M70 650q0 16 8.5 26t27.5 10q11 0 19.5 -3t13.5 -6v-363q0 -68 12.5 -119t40.5 -85t73.5 -50.5t110.5 -16.5t110.5 16.5t73.5 50.5t40.5 85t12.5 119v336q0 16 8.5 26t27.5 10q11 0 19.5 -3t13.5 -6v-364q0 -163 -73.5 -247t-232.5 -84t-232.5 84t-73.5 247v337zM507 843
q20 0 28 -8.5t8 -22.5q0 -18 -5 -30h-275q-20 0 -28 9t-8 25q0 8 2 15t4 12h274z" />
    <glyph glyph-name="umacron" unicode="&#x16b;" horiz-adv-x="589" 
d="M461 460q0 15 8.5 24.5t27.5 9.5q9 0 17.5 -2.5t12.5 -4.5v-289q0 -47 -16 -86t-46 -67t-73.5 -43.5t-97.5 -15.5t-97 15.5t-73 43.5t-46 67t-16 86v262q0 15 8.5 24.5t27.5 9.5q9 0 17.5 -2.5t12.5 -4.5v-269q0 -83 41 -129t125 -46t125.5 46t41.5 129v242zM419 660
q20 0 28 -9t8 -23q0 -10 -2 -17.5t-4 -12.5h-260q-20 0 -28 9t-8 24q0 9 2 16.5t4 12.5h260z" />
    <glyph glyph-name="Ubreve" unicode="&#x16c;" horiz-adv-x="752" 
d="M70 650q0 16 8.5 26t27.5 10q11 0 19.5 -3t13.5 -6v-363q0 -68 12.5 -119t40.5 -85t73.5 -50.5t110.5 -16.5t110.5 16.5t73.5 50.5t40.5 85t12.5 119v336q0 16 8.5 26t27.5 10q11 0 19.5 -3t13.5 -6v-364q0 -163 -73.5 -247t-232.5 -84t-232.5 84t-73.5 247v337zM384 810
q42 0 66.5 20t32.5 54l49 -5q-1 -17 -8 -39.5t-24 -42.5t-45.5 -34t-70.5 -14q-43 0 -71 14t-45.5 34t-24.5 42.5t-8 39.5l49 5q8 -34 32.5 -54t67.5 -20z" />
    <glyph glyph-name="ubreve" unicode="&#x16d;" horiz-adv-x="589" 
d="M461 460q0 15 8.5 24.5t27.5 9.5q9 0 17.5 -2.5t12.5 -4.5v-289q0 -47 -16 -86t-46 -67t-73.5 -43.5t-97.5 -15.5t-97 15.5t-73 43.5t-46 67t-16 86v262q0 15 8.5 24.5t27.5 9.5q9 0 17.5 -2.5t12.5 -4.5v-269q0 -83 41 -129t125 -46t125.5 46t41.5 129v242zM309 626
q39 0 60.5 20.5t29.5 54.5l43 -5q-1 -17 -7.5 -39t-21.5 -42t-40.5 -33.5t-63.5 -13.5t-63.5 13.5t-41 33.5t-22 42t-7.5 39l45 5q8 -34 29 -54.5t60 -20.5z" />
    <glyph glyph-name="Uring" unicode="&#x16e;" horiz-adv-x="752" 
d="M70 650q0 16 8.5 26t27.5 10q11 0 19.5 -3t13.5 -6v-363q0 -68 12.5 -119t40.5 -85t73.5 -50.5t110.5 -16.5t110.5 16.5t73.5 50.5t40.5 85t12.5 119v336q0 16 8.5 26t27.5 10q11 0 19.5 -3t13.5 -6v-364q0 -163 -73.5 -247t-232.5 -84t-232.5 84t-73.5 247v337zM278 838
q0 21 8 39.5t22.5 33t33.5 22.5t41 8q21 0 40 -8t33.5 -22.5t22.5 -33t8 -39.5t-8 -39.5t-22.5 -32.5t-33.5 -22t-40 -8q-22 0 -41 8t-33.5 22t-22.5 32.5t-8 39.5zM328 838q0 -24 15.5 -40t39.5 -16q23 0 38.5 16t15.5 40t-15.5 40.5t-38.5 16.5q-24 0 -39.5 -16.5
t-15.5 -40.5z" />
    <glyph glyph-name="uring" unicode="&#x16f;" horiz-adv-x="589" 
d="M461 460q0 15 8.5 24.5t27.5 9.5q9 0 17.5 -2.5t12.5 -4.5v-289q0 -47 -16 -86t-46 -67t-73.5 -43.5t-97.5 -15.5t-97 15.5t-73 43.5t-46 67t-16 86v262q0 15 8.5 24.5t27.5 9.5q9 0 17.5 -2.5t12.5 -4.5v-269q0 -83 41 -129t125 -46t125.5 46t41.5 129v242zM207 653
q0 21 8 39t22 32t33 22t40 8t40 -8t33 -22t22 -32t8 -39t-8 -39t-22 -32t-33 -22t-40 -8t-40 8t-33 22t-22 32t-8 39zM253 653q0 -25 16 -42t41 -17t41 17t16 42t-16 42t-41 17t-41 -17t-16 -42z" />
    <glyph glyph-name="Uhungarumlaut" unicode="&#x170;" horiz-adv-x="752" 
d="M70 650q0 16 8.5 26t27.5 10q11 0 19.5 -3t13.5 -6v-363q0 -68 12.5 -119t40.5 -85t73.5 -50.5t110.5 -16.5t110.5 16.5t73.5 50.5t40.5 85t12.5 119v336q0 16 8.5 26t27.5 10q11 0 19.5 -3t13.5 -6v-364q0 -163 -73.5 -247t-232.5 -84t-232.5 84t-73.5 247v337zM260 749
l-29 38l82 68q14 11 28 20t32 9q13 0 22.5 -5t15.5 -11.5t9 -14t3 -12.5zM456 749l-29 38l82 68q14 11 28 20t32 9q13 0 22.5 -5t15.5 -11.5t9 -14t3 -12.5z" />
    <glyph glyph-name="uhungarumlaut" unicode="&#x171;" horiz-adv-x="589" 
d="M461 460q0 15 8.5 24.5t27.5 9.5q9 0 17.5 -2.5t12.5 -4.5v-289q0 -47 -16 -86t-46 -67t-73.5 -43.5t-97.5 -15.5t-97 15.5t-73 43.5t-46 67t-16 86v262q0 15 8.5 24.5t27.5 9.5q9 0 17.5 -2.5t12.5 -4.5v-269q0 -83 41 -129t125 -46t125.5 46t41.5 129v242zM202 562
l-29 33l71 72q12 13 24.5 22t29.5 9q22 0 32 -14.5t11 -23.5zM368 562l-29 33l71 72q12 13 24.5 22t29.5 9q22 0 32 -14.5t11 -23.5z" />
    <glyph glyph-name="Uogonek" unicode="&#x172;" horiz-adv-x="752" 
d="M682 313q0 -138 -51.5 -219t-163.5 -103q-67 -31 -67 -72q0 -21 15 -31.5t38 -10.5t40.5 6.5t19.5 8.5l18 -40q-8 -5 -31.5 -13t-61.5 -8q-42 0 -69.5 18t-27.5 59q0 28 13 45.5t30 28.5h-8q-159 0 -232.5 84t-73.5 247v337q0 16 8.5 26t27.5 10q11 0 19.5 -3t13.5 -6
v-363q0 -68 12.5 -119t40.5 -85t73.5 -50.5t110.5 -16.5t110.5 16.5t73.5 50.5t40.5 85t12.5 119v336q0 16 8.5 26t27.5 10q11 0 19.5 -3t13.5 -6v-364z" />
    <glyph glyph-name="uogonek" unicode="&#x173;" horiz-adv-x="589" 
d="M461 460q0 15 8.5 24.5t27.5 9.5q9 0 17.5 -2.5t12.5 -4.5v-289q0 -80 -44 -134.5t-124 -70.5q-26 -11 -46.5 -30.5t-20.5 -44.5q0 -23 15 -32t38 -9t40.5 6.5t19.5 8.5l18 -40q-8 -5 -31 -13t-58 -8q-45 0 -73 17.5t-28 59.5q0 31 15.5 49.5t32.5 28.5q-51 2 -91.5 18
t-69 43.5t-43.5 66t-15 84.5v262q0 15 8.5 24.5t27.5 9.5q9 0 17.5 -2.5t12.5 -4.5v-269q0 -83 41 -129t125 -46t125.5 46t41.5 129v242z" />
    <glyph glyph-name="Wcircumflex" unicode="&#x174;" horiz-adv-x="996" 
d="M282 70l32.5 104.5l35 116.5l33.5 116l29.5 104l22.5 80l12 44q6 23 19 37t36 14q16 0 27 -3t16 -6q32 -136 74 -289.5t92 -318.5l57 160.5l52.5 155l45 139t34.5 112.5q8 25 19.5 37.5t31.5 12.5q16 0 23.5 -3.5t11.5 -6.5q-11 -40 -27.5 -92.5l-36.5 -111l-42 -121.5
l-44.5 -124.5l-44 -119.5l-40.5 -107h-88q-7 19 -18.5 58l-26 89l-31.5 108l-33 117l-30.5 115t-24.5 102q-11 -45 -26 -100l-31.5 -112.5l-33.5 -114.5l-32.5 -107.5t-29 -90.5l-21.5 -64h-87q-15 35 -34.5 86l-40.5 107.5l-42 114l-38.5 107.5l-30.5 87l-18 52
q-11 32 -17.5 56t-6.5 35q0 18 9.5 29.5t29.5 11.5q11 0 20 -3.5t11 -5.5q11 -43 34.5 -116.5l52.5 -159l59.5 -173zM653 782l-27 -34l-125 64l-128 -64l-27 34l98 74l27.5 20t28.5 9t28.5 -9l27.5 -20z" />
    <glyph glyph-name="wcircumflex" unicode="&#x175;" horiz-adv-x="794" 
d="M215 59l31.5 90l31.5 92.5l33 100l35 113.5q7 23 19 31t32 8q14 0 23.5 -3.5t12.5 -5.5q13 -45 30.5 -99l37 -110.5l39 -112.5l37.5 -104l75.5 204t64.5 200q5 16 13 23.5t25 7.5q14 0 23 -5t11 -7q-9 -37 -28.5 -94.5l-44 -124l-51.5 -135l-51 -128.5h-80
q-11 26 -28 73.5l-37 104.5l-40.5 118.5l-37.5 116.5l-36.5 -117l-38.5 -117.5l-36 -103.5l-27 -75h-80l-50 131l-48 128l-37 101l-18 50q-4 11 -8.5 25t-4.5 24q0 14 9 24.5t27 10.5q11 0 18 -2t9 -3q11 -44 28.5 -98.5t38 -112l41 -114.5zM397 704q14 0 24.5 -8.5
l23.5 -19.5l90 -82l-32 -32l-106 74l-106 -74l-32 32l89 82q13 12 24 20t25 8z" />
    <glyph glyph-name="Ycircumflex" unicode="&#x176;" horiz-adv-x="640" 
d="M38 592q-16 22 -24.5 37t-8.5 26t6.5 21t25.5 10q11 0 17 -2.5t10 -4.5l45 -65l66 -94l74.5 -103t71.5 -92l63 84.5l62 89l56.5 85l47.5 71.5q11 16 21 23.5t26 7.5q17 0 26.5 -6t11.5 -8q-17 -29 -50 -80l-72.5 -109l-82 -116.5l-76.5 -102.5v-264h-70v264
q-24 28 -58 73l-69 92.5l-67.5 91.5zM482 782l-27 -34l-125 64l-128 -64l-27 34l98 74l27.5 20t28.5 9t28.5 -9l27.5 -20z" />
    <glyph glyph-name="ycircumflex" unicode="&#x177;" horiz-adv-x="589" 
d="M527 36q0 -65 -18 -111.5t-51 -76.5t-79.5 -44t-104.5 -14q-75 0 -124.5 12.5t-69.5 20.5l19 52q20 -8 64 -18.5t110 -10.5q37 0 71.5 8t60.5 28t41.5 55t15.5 88v46q-19 -38 -65.5 -61.5t-109.5 -23.5q-109 0 -167 57t-58 155v262q0 15 8.5 24.5t27.5 9.5q9 0 17.5 -2.5
t12.5 -4.5v-275q0 -80 39 -124.5t123 -44.5q87 0 129 48t42 131v238q0 15 8.5 24.5t27.5 9.5q9 0 17.5 -2.5t12.5 -4.5v-451zM305 704q14 0 24.5 -8.5l23.5 -19.5l90 -82l-32 -32l-106 74l-106 -74l-32 32l89 82q13 12 24 20t25 8z" />
    <glyph glyph-name="Zacute" unicode="&#x179;" horiz-adv-x="635" 
d="M70 625q-14 0 -23.5 7.5t-9.5 23.5q0 11 3.5 19t5.5 11h500q33 0 47.5 -11.5t14.5 -33.5q0 -21 -16.5 -44t-50.5 -61l-74 -81.5l-82.5 -88.5l-85.5 -90l-82 -85l-71.5 -73.5l-54.5 -56.5h514v-61h-588v78l265 274l251 273h-463zM279 748l-26 43l118 80q13 9 21.5 11.5
t19.5 2.5q14 0 24 -5t16 -12t9 -15.5t3 -15.5z" />
    <glyph glyph-name="zacute" unicode="&#x17a;" horiz-adv-x="521" 
d="M64 434q-21 0 -29 9.5t-8 23.5q0 8 2 15t4 12h419q44 0 44 -33q0 -13 -7.5 -25.5t-31.5 -37.5l-87 -87.5l-95 -91.5l-93 -86.5l-81 -72.5h395v-60h-469v71l83 76.5l100 93.5l103.5 99l94.5 94h-344zM236 562l-29 38l103 84q12 10 20.5 13.5t19.5 3.5q22 0 32.5 -15
t11.5 -28z" />
    <glyph glyph-name="Zdotaccent" unicode="&#x17b;" horiz-adv-x="635" 
d="M70 625q-14 0 -23.5 7.5t-9.5 23.5q0 11 3.5 19t5.5 11h500q33 0 47.5 -11.5t14.5 -33.5q0 -21 -16.5 -44t-50.5 -61l-74 -81.5l-82.5 -88.5l-85.5 -90l-82 -85l-71.5 -73.5l-54.5 -56.5h514v-61h-588v78l265 274l251 273h-463zM336 757q-22 0 -39.5 17t-17.5 37
q0 10 5 20t13 17.5t18 12.5t21 5q22 0 39 -17.5t17 -37.5t-17 -37t-39 -17z" />
    <glyph glyph-name="zdotaccent" unicode="&#x17c;" horiz-adv-x="521" 
d="M64 434q-21 0 -29 9.5t-8 23.5q0 8 2 15t4 12h419q44 0 44 -33q0 -13 -7.5 -25.5t-31.5 -37.5l-87 -87.5l-95 -91.5l-93 -86.5l-81 -72.5h395v-60h-469v71l83 76.5l100 93.5l103.5 99l94.5 94h-344zM281 573q-21 0 -38 16.5t-17 36.5t17 36.5t38 16.5q22 0 38.5 -16.5
t16.5 -36.5t-16.5 -36.5t-38.5 -16.5z" />
    <glyph glyph-name="Zcaron" unicode="&#x17d;" horiz-adv-x="635" 
d="M70 625q-14 0 -23.5 7.5t-9.5 23.5q0 11 3.5 19t5.5 11h500q33 0 47.5 -11.5t14.5 -33.5q0 -21 -16.5 -44t-50.5 -61l-74 -81.5l-82.5 -88.5l-85.5 -90l-82 -85l-71.5 -73.5l-54.5 -56.5h514v-61h-588v78l265 274l251 273h-463zM186 852l27 34l125 -64l128 64l27 -34
l-98 -74l-27.5 -20t-28.5 -9t-28.5 9l-27.5 20z" />
    <glyph glyph-name="zcaron" unicode="&#x17e;" horiz-adv-x="521" 
d="M64 434q-21 0 -29 9.5t-8 23.5q0 8 2 15t4 12h419q44 0 44 -33q0 -13 -7.5 -25.5t-31.5 -37.5l-87 -87.5l-95 -91.5l-93 -86.5l-81 -72.5h395v-60h-469v71l83 76.5l100 93.5l103.5 99l94.5 94h-344zM288 562q-14 0 -24.5 8.5l-23.5 19.5l-90 82l32 32l106 -74l106 74
l32 -32l-89 -82q-13 -12 -24 -20t-25 -8z" />
    <glyph glyph-name="longs" unicode="&#x17f;" horiz-adv-x="324" 
d="M128 0h-66v541q0 53 14.5 90.5t41 61t62.5 34t78 10.5q54 0 81.5 -8.5t35.5 -13.5q9 -5 15 -12.5t6 -20.5q0 -9 -5 -17t-12 -13q-20 14 -50 22.5t-65 8.5q-40 0 -66 -10.5t-41.5 -30t-22 -47.5t-6.5 -63v-532z" />
    <glyph glyph-name="Scommaaccent" unicode="&#x218;" horiz-adv-x="662" 
d="M576 609q0 -12 -8 -24t-16 -17q-9 9 -28 22t-48 25t-68.5 21t-89.5 9q-200 0 -200 -128q0 -30 11.5 -51t33 -35.5t52.5 -24.5t69 -17l119 -22q106 -20 157.5 -64t51.5 -122q0 -43 -17 -79.5t-52 -62.5t-88 -41t-124 -15q-55 0 -100.5 8t-82 20.5t-63.5 26.5t-45 26l34 54
q15 -10 38.5 -23t56 -25t73 -20t90.5 -8q96 0 150.5 32.5t54.5 101.5q0 35 -13 58t-35.5 37t-52.5 22t-63 14l-118 20q-44 7 -82 21.5t-66 37t-44.5 54t-16.5 72.5q0 39 14 73.5t46.5 61t84 42t126.5 15.5q55 0 96 -6.5t69 -15.5t45 -18.5t25 -15.5q15 -12 19.5 -20t4.5 -19
zM336 -225l-52 10l18 122q3 21 12.5 36t30.5 15q14 0 25 -5t16 -10z" />
    <glyph glyph-name="scommaaccent" unicode="&#x219;" horiz-adv-x="533" 
d="M433 472q28 -16 28 -37q0 -14 -7.5 -23t-15.5 -14q-4 4 -17.5 13t-37 18.5t-56.5 16.5t-76 7q-70 0 -111 -19.5t-41 -64.5q0 -36 27.5 -55t77.5 -25l114 -13q49 -6 82.5 -18.5t54 -30.5t29.5 -40.5t9 -49.5q0 -33 -14 -60.5t-42 -47.5t-69.5 -31.5t-96.5 -11.5
q-50 0 -92 8t-73.5 17.5t-50.5 19t-23 12.5l28 51l23.5 -11.5t44.5 -17.5t63 -16t79 -7q32 0 60 4.5t49 15t33 26.5t12 40q0 37 -25 58.5t-95 29.5l-105 12q-81 9 -123.5 44t-42.5 94q0 27 11 52.5t36.5 45.5t67.5 32t104 12q66 0 112.5 -12t68.5 -24zM255 -225l-52 10
l18 122q3 21 12.5 36t30.5 15q14 0 25 -5t16 -10z" />
    <glyph glyph-name="uni021A" unicode="&#x21a;" horiz-adv-x="643" 
d="M605 686q14 0 23.5 -7.5t9.5 -23.5q0 -11 -3.5 -19t-5.5 -11h-281v-625h-70v625h-240q-14 0 -23.5 7.5t-9.5 23.5q0 11 3.5 19t5.5 11h591zM300 -225l-52 10l18 122q3 21 12.5 36t30.5 15q14 0 25 -5t16 -10z" />
    <glyph glyph-name="uni021B" unicode="&#x21b;" horiz-adv-x="360" 
d="M133 434v-290q0 -56 29 -79t76 -23q30 0 56 10t40 19l29 -43q-6 -5 -18.5 -12t-30 -14t-41 -11.5t-51.5 -4.5q-40 0 -69 11t-48 30.5t-28.5 46.5t-9.5 59v461q0 15 8.5 24.5t27.5 9.5q9 0 17.5 -2.5t12.5 -4.5v-127h176q21 0 29 -9.5t8 -23.5q0 -8 -2 -15t-4 -12h-207z
M195 -225l-52 10l18 122q3 21 12.5 36t30.5 15q14 0 25 -5t16 -10z" />
    <glyph glyph-name="dotlessj" unicode="&#x237;" horiz-adv-x="200" 
d="M67 460q0 15 8.5 24.5t27.5 9.5q9 0 17.5 -2.5t12.5 -4.5v-531q0 -48 -14 -80t-37 -51t-52.5 -27t-60.5 -8q-34 0 -60.5 6.5t-39.5 11.5l19 46q11 -5 29.5 -9.5t40.5 -4.5q20 0 39.5 4t35 15.5t25 33.5t9.5 58v509z" />
    <glyph glyph-name="apostrophe" unicode="&#x2bc;" horiz-adv-x="500" 
d="M51 485l-48 19l51 167q9 32 40 32q21 0 31.5 -8.5t12.5 -10.5z" />
    <glyph glyph-name="caron" unicode="&#x2c7;" horiz-adv-x="500" 
d="M250 562q-14 0 -24.5 8.5l-23.5 19.5l-90 82l32 32l106 -74l106 74l32 -32l-89 -82q-13 -12 -24 -20t-25 -8z" />
    <glyph glyph-name="uni02C9" unicode="&#x2c9;" horiz-adv-x="500" 
d="M365 660q20 0 28 -9t8 -23q0 -10 -2 -17.5t-4 -12.5h-260q-20 0 -28 9t-8 24q0 9 2 16.5t4 12.5h260z" />
    <glyph glyph-name="breve" unicode="&#x2d8;" horiz-adv-x="500" 
d="M250 626q39 0 60.5 20.5t29.5 54.5l43 -5q-1 -17 -7.5 -39t-21.5 -42t-40.5 -33.5t-63.5 -13.5t-63.5 13.5t-41 33.5t-22 42t-7.5 39l45 5q8 -34 29 -54.5t60 -20.5z" />
    <glyph glyph-name="dotaccent" unicode="&#x2d9;" horiz-adv-x="500" 
d="M250 573q-21 0 -38 16.5t-17 36.5t17 36.5t38 16.5q22 0 38.5 -16.5t16.5 -36.5t-16.5 -36.5t-38.5 -16.5z" />
    <glyph glyph-name="ring" unicode="&#x2da;" horiz-adv-x="500" 
d="M147 653q0 21 8 39t22 32t33 22t40 8t40 -8t33 -22t22 -32t8 -39t-8 -39t-22 -32t-33 -22t-40 -8t-40 8t-33 22t-22 32t-8 39zM193 653q0 -25 16 -42t41 -17t41 17t16 42t-16 42t-41 17t-41 -17t-16 -42z" />
    <glyph glyph-name="ogonek" unicode="&#x2db;" horiz-adv-x="500" 
d="M306 0q-16 -5 -32 -12.5t-28.5 -18t-20.5 -23.5t-8 -28q0 -23 15 -32t38 -9t40.5 6.5t19.5 8.5l18 -40q-8 -5 -31 -13t-58 -8q-45 0 -73 17.5t-28 59.5q0 24 9.5 40.5t23 27t27.5 16l22 8.5h66z" />
    <glyph glyph-name="hungarumlaut" unicode="&#x2dd;" horiz-adv-x="500" 
d="M112 562l-29 33l71 72q12 13 24.5 22t29.5 9q22 0 32 -14.5t11 -23.5zM278 562l-29 33l71 72q12 13 24.5 22t29.5 9q22 0 32 -14.5t11 -23.5z" />
    <glyph glyph-name="Wgrave" unicode="&#x1e80;" horiz-adv-x="996" 
d="M282 70l32.5 104.5l35 116.5l33.5 116l29.5 104l22.5 80l12 44q6 23 19 37t36 14q16 0 27 -3t16 -6q32 -136 74 -289.5t92 -318.5l57 160.5l52.5 155l45 139t34.5 112.5q8 25 19.5 37.5t31.5 12.5q16 0 23.5 -3.5t11.5 -6.5q-11 -40 -27.5 -92.5l-36.5 -111l-42 -121.5
l-44.5 -124.5l-44 -119.5l-40.5 -107h-88q-7 19 -18.5 58l-26 89l-31.5 108l-33 117l-30.5 115t-24.5 102q-11 -45 -26 -100l-31.5 -112.5l-33.5 -114.5l-32.5 -107.5t-29 -90.5l-21.5 -64h-87q-15 35 -34.5 86l-40.5 107.5l-42 114l-38.5 107.5l-30.5 87l-18 52
q-11 32 -17.5 56t-6.5 35q0 18 9.5 29.5t29.5 11.5q11 0 20 -3.5t11 -5.5q11 -43 34.5 -116.5l52.5 -159l59.5 -173zM392 837q0 7 3 15.5t9 15.5t16 12t24 5q11 0 19.5 -2.5t21.5 -11.5l118 -80l-26 -43z" />
    <glyph glyph-name="wgrave" unicode="&#x1e81;" horiz-adv-x="794" 
d="M215 59l31.5 90l31.5 92.5l33 100l35 113.5q7 23 19 31t32 8q14 0 23.5 -3.5t12.5 -5.5q13 -45 30.5 -99l37 -110.5l39 -112.5l37.5 -104l75.5 204t64.5 200q5 16 13 23.5t25 7.5q14 0 23 -5t11 -7q-9 -37 -28.5 -94.5l-44 -124l-51.5 -135l-51 -128.5h-80
q-11 26 -28 73.5l-37 104.5l-40.5 118.5l-37.5 116.5l-36.5 -117l-38.5 -117.5l-36 -103.5l-27 -75h-80l-50 131l-48 128l-37 101l-18 50q-4 11 -8.5 25t-4.5 24q0 14 9 24.5t27 10.5q11 0 18 -2t9 -3q11 -44 28.5 -98.5t38 -112l41 -114.5zM303 658q1 13 11.5 28t32.5 15
q11 0 19.5 -3.5t20.5 -13.5l103 -84l-29 -38z" />
    <glyph glyph-name="Wacute" unicode="&#x1e82;" horiz-adv-x="996" 
d="M282 70l32.5 104.5l35 116.5l33.5 116l29.5 104l22.5 80l12 44q6 23 19 37t36 14q16 0 27 -3t16 -6q32 -136 74 -289.5t92 -318.5l57 160.5l52.5 155l45 139t34.5 112.5q8 25 19.5 37.5t31.5 12.5q16 0 23.5 -3.5t11.5 -6.5q-11 -40 -27.5 -92.5l-36.5 -111l-42 -121.5
l-44.5 -124.5l-44 -119.5l-40.5 -107h-88q-7 19 -18.5 58l-26 89l-31.5 108l-33 117l-30.5 115t-24.5 102q-11 -45 -26 -100l-31.5 -112.5l-33.5 -114.5l-32.5 -107.5t-29 -90.5l-21.5 -64h-87q-15 35 -34.5 86l-40.5 107.5l-42 114l-38.5 107.5l-30.5 87l-18 52
q-11 32 -17.5 56t-6.5 35q0 18 9.5 29.5t29.5 11.5q11 0 20 -3.5t11 -5.5q11 -43 34.5 -116.5l52.5 -159l59.5 -173zM426 748l-26 43l118 80q13 9 21.5 11.5t19.5 2.5q14 0 24 -5t16 -12t9 -15.5t3 -15.5z" />
    <glyph glyph-name="wacute" unicode="&#x1e83;" horiz-adv-x="794" 
d="M215 59l31.5 90l31.5 92.5l33 100l35 113.5q7 23 19 31t32 8q14 0 23.5 -3.5t12.5 -5.5q13 -45 30.5 -99l37 -110.5l39 -112.5l37.5 -104l75.5 204t64.5 200q5 16 13 23.5t25 7.5q14 0 23 -5t11 -7q-9 -37 -28.5 -94.5l-44 -124l-51.5 -135l-51 -128.5h-80
q-11 26 -28 73.5l-37 104.5l-40.5 118.5l-37.5 116.5l-36.5 -117l-38.5 -117.5l-36 -103.5l-27 -75h-80l-50 131l-48 128l-37 101l-18 50q-4 11 -8.5 25t-4.5 24q0 14 9 24.5t27 10.5q11 0 18 -2t9 -3q11 -44 28.5 -98.5t38 -112l41 -114.5zM325 562l-29 38l103 84
q12 10 20.5 13.5t19.5 3.5q22 0 32.5 -15t11.5 -28z" />
    <glyph glyph-name="Wdieresis" unicode="&#x1e84;" horiz-adv-x="996" 
d="M282 70l32.5 104.5l35 116.5l33.5 116l29.5 104l22.5 80l12 44q6 23 19 37t36 14q16 0 27 -3t16 -6q32 -136 74 -289.5t92 -318.5l57 160.5l52.5 155l45 139t34.5 112.5q8 25 19.5 37.5t31.5 12.5q16 0 23.5 -3.5t11.5 -6.5q-11 -40 -27.5 -92.5l-36.5 -111l-42 -121.5
l-44.5 -124.5l-44 -119.5l-40.5 -107h-88q-7 19 -18.5 58l-26 89l-31.5 108l-33 117l-30.5 115t-24.5 102q-11 -45 -26 -100l-31.5 -112.5l-33.5 -114.5l-32.5 -107.5t-29 -90.5l-21.5 -64h-87q-15 35 -34.5 86l-40.5 107.5l-42 114l-38.5 107.5l-30.5 87l-18 52
q-11 32 -17.5 56t-6.5 35q0 18 9.5 29.5t29.5 11.5q11 0 20 -3.5t11 -5.5q11 -43 34.5 -116.5l52.5 -159l59.5 -173zM402 760q-21 0 -37.5 16t-16.5 35q0 20 16.5 36t37.5 16q22 0 38 -16t16 -36q0 -19 -16 -35t-38 -16zM594 760q-22 0 -38 16t-16 35q0 20 16 36t38 16
t38 -16t16 -36q0 -19 -16 -35t-38 -16z" />
    <glyph glyph-name="wdieresis" unicode="&#x1e85;" horiz-adv-x="794" 
d="M215 59l31.5 90l31.5 92.5l33 100l35 113.5q7 23 19 31t32 8q14 0 23.5 -3.5t12.5 -5.5q13 -45 30.5 -99l37 -110.5l39 -112.5l37.5 -104l75.5 204t64.5 200q5 16 13 23.5t25 7.5q14 0 23 -5t11 -7q-9 -37 -28.5 -94.5l-44 -124l-51.5 -135l-51 -128.5h-80
q-11 26 -28 73.5l-37 104.5l-40.5 118.5l-37.5 116.5l-36.5 -117l-38.5 -117.5l-36 -103.5l-27 -75h-80l-50 131l-48 128l-37 101l-18 50q-4 11 -8.5 25t-4.5 24q0 14 9 24.5t27 10.5q11 0 18 -2t9 -3q11 -44 28.5 -98.5t38 -112l41 -114.5zM308 576q-20 0 -36 15.5
t-16 34.5t16 34.5t36 15.5q21 0 36.5 -15.5t15.5 -34.5t-15.5 -34.5t-36.5 -15.5zM485 576q-21 0 -36.5 15.5t-15.5 34.5t15.5 34.5t36.5 15.5t36.5 -15.5t15.5 -34.5t-15.5 -34.5t-36.5 -15.5z" />
    <glyph glyph-name="Ygrave" unicode="&#x1ef2;" horiz-adv-x="640" 
d="M38 592q-16 22 -24.5 37t-8.5 26t6.5 21t25.5 10q11 0 17 -2.5t10 -4.5l45 -65l66 -94l74.5 -103t71.5 -92l63 84.5l62 89l56.5 85l47.5 71.5q11 16 21 23.5t26 7.5q17 0 26.5 -6t11.5 -8q-17 -29 -50 -80l-72.5 -109l-82 -116.5l-76.5 -102.5v-264h-70v264
q-24 28 -58 73l-69 92.5l-67.5 91.5zM212 837q0 7 3 15.5t9 15.5t16 12t24 5q11 0 19.5 -2.5t21.5 -11.5l118 -80l-26 -43z" />
    <glyph glyph-name="ygrave" unicode="&#x1ef3;" horiz-adv-x="589" 
d="M527 36q0 -65 -18 -111.5t-51 -76.5t-79.5 -44t-104.5 -14q-75 0 -124.5 12.5t-69.5 20.5l19 52q20 -8 64 -18.5t110 -10.5q37 0 71.5 8t60.5 28t41.5 55t15.5 88v46q-19 -38 -65.5 -61.5t-109.5 -23.5q-109 0 -167 57t-58 155v262q0 15 8.5 24.5t27.5 9.5q9 0 17.5 -2.5
t12.5 -4.5v-275q0 -80 39 -124.5t123 -44.5q87 0 129 48t42 131v238q0 15 8.5 24.5t27.5 9.5q9 0 17.5 -2.5t12.5 -4.5v-451zM188 658q1 13 11.5 28t32.5 15q11 0 19.5 -3.5t20.5 -13.5l103 -84l-29 -38z" />
    <glyph glyph-name="fraction" unicode="&#x2044;" horiz-adv-x="6" 
d="M-167 0h-63l402 710q5 10 13.5 18.5t26.5 8.5q13 0 19.5 -4.5t11.5 -9.5z" />
    <glyph glyph-name="zerosuperior" unicode="&#x2070;" 
d="M413 517q0 -105 -49.5 -162t-137.5 -57t-138 57t-50 162t50 162.5t138 57.5t137.5 -57.5t49.5 -162.5zM352 517q0 35 -7 66.5t-22 55t-39 37t-58 13.5q-35 0 -59 -13.5t-39 -37t-22 -55t-7 -66.5t7 -66t22 -54.5t39 -37t59 -13.5q34 0 58 13.5t39 37t22 54.5t7 66z" />
    <glyph glyph-name="foursuperior" unicode="&#x2074;" 
d="M378 467q13 0 21.5 -5.5t8.5 -19.5q0 -7 -4.5 -14t-6.5 -9h-49v-110h-59v110h-144q-56 0 -78.5 15t-22.5 47q0 36 22.5 72t49.5 65q22 25 48 47t51.5 38t49 25t41.5 9q20 0 30 -5.5t12 -7.5v-257h30zM289 467v219q-27 -12 -59 -34t-59 -51q-11 -11 -23 -25t-22 -28.5
t-16 -29.5t-6 -28q0 -15 13.5 -19t33.5 -4h138z" />
    <glyph glyph-name="fivesuperior" unicode="&#x2075;" 
d="M140 677l-4 -119q14 2 32 4t40 2q52 0 85.5 -11.5t53 -30t27.5 -42.5t8 -48q0 -58 -44.5 -96t-140.5 -38q-54 0 -93.5 13t-56.5 23l25 42q28 -12 57 -21t71 -9q65 0 93 22.5t28 61.5q0 41 -29 63.5t-101 22.5q-34 0 -59.5 -4t-49.5 -9l7 193q1 14 9.5 22t26.5 8h207
q13 0 21 -6t8 -19q0 -8 -4 -15t-6 -9h-211z" />
    <glyph glyph-name="sixsuperior" unicode="&#x2076;" 
d="M233 722q6 7 12.5 11t20.5 4q12 0 20 -5.5t11 -10.5l-119 -145q5 5 24.5 9t39.5 4q38 0 67.5 -11.5t49.5 -30.5t30.5 -45t10.5 -54q0 -32 -12.5 -59.5t-35.5 -47.5t-54.5 -31.5t-70.5 -11.5t-71 11t-54.5 30t-34.5 45t-12 56q0 40 20 77t50 74zM341 444q0 49 -31 75.5
t-83 26.5t-83 -29.5t-31 -74.5q0 -47 30 -74t84 -27q56 0 85 29t29 74z" />
    <glyph glyph-name="sevensuperior" unicode="&#x2077;" 
d="M131 305l184 372h-250q-13 0 -21 5.5t-8 19.5q0 8 4 15t6 9h288q41 0 41 -29q0 -10 -2.5 -19.5t-9.5 -23.5l-173 -349h-59z" />
    <glyph glyph-name="eightsuperior" unicode="&#x2078;" 
d="M225 737q87 0 130.5 -34t43.5 -83q0 -24 -14.5 -51.5t-53.5 -46.5q48 -18 64 -46t16 -55q0 -55 -46 -89t-140 -34t-140 34t-46 89q0 27 16 55t64 46q-39 19 -53.5 46.5t-14.5 51.5q0 49 43.5 83t130.5 34zM225 344q61 0 93 20.5t32 56.5q0 37 -32 57t-93 20t-93 -20
t-32 -57q0 -36 32 -56.5t93 -20.5zM225 544q59 0 88 20t29 55q0 34 -29 54.5t-88 20.5t-88 -20.5t-29 -54.5q0 -35 29 -55t88 -20z" />
    <glyph glyph-name="ninesuperior" unicode="&#x2079;" 
d="M209 304h-64l127 155q-5 -5 -24.5 -9t-39.5 -4q-38 0 -67.5 11.5t-49.5 30.5t-30.5 44.5t-10.5 54.5q0 32 12.5 59.5t35.5 47.5t54.5 31.5t70.5 11.5t70.5 -11t54 -30t34.5 -45t12 -56q0 -40 -19.5 -77t-49.5 -74zM109 591q0 -49 31 -75.5t83 -26.5t83 29.5t31 74.5
q0 47 -30 74t-84 27q-56 0 -85 -29t-29 -74z" />
    <glyph glyph-name="zeroinferior" unicode="&#x2080;" 
d="M413 213q0 -105 -49.5 -162t-137.5 -57t-138 57t-50 162t50 162.5t138 57.5t137.5 -57.5t49.5 -162.5zM352 213q0 35 -7 66.5t-22 55t-39 37t-58 13.5q-35 0 -59 -13.5t-39 -37t-22 -55t-7 -66.5t7 -66t22 -54.5t39 -37t59 -13.5q34 0 58 13.5t39 37t22 54.5t7 66z" />
    <glyph glyph-name="oneinferior" unicode="&#x2081;" 
d="M193 414q13 8 24.5 13.5t26.5 5.5q13 0 21 -4.5t13 -9.5v-414h-59v364l-119 -76q-9 3 -18.5 10.5t-9.5 18.5q0 17 18 28z" />
    <glyph glyph-name="twoinferior" unicode="&#x2082;" 
d="M304 170l-30.5 -24.5l-42 -32l-45 -32.5t-39.5 -27h232v-49h-324v49l36.5 23.5l48 31.5l49.5 34.5t41 31.5q16 13 31 27.5t27 30.5t19.5 34t7.5 38q0 31 -25 55.5t-83 24.5q-28 0 -48.5 -8.5t-33.5 -19t-20 -20.5t-8 -13q-16 2 -27.5 9t-11.5 21q0 15 13 31v-1q3 4 13 12
t27 16.5t41 14.5t55 6q84 0 126 -36.5t42 -91.5q0 -47 -22.5 -78.5t-48.5 -56.5z" />
    <glyph glyph-name="threeinferior" unicode="&#x2083;" 
d="M204 245q51 0 82 19t31 54q0 34 -29 50.5t-77 16.5q-29 0 -50.5 -6.5t-35.5 -15.5t-21.5 -18t-9.5 -13q-16 2 -26.5 9t-10.5 19q0 8 2.5 15t10.5 15q4 4 14.5 11.5t28.5 14.5t42.5 12t55.5 5q46 0 77.5 -10t51 -26t28.5 -35.5t9 -38.5q0 -37 -21 -62.5t-49 -39.5
q43 -15 60.5 -42.5t17.5 -59.5q0 -54 -45.5 -89.5t-126.5 -35.5q-29 0 -55.5 4.5t-48.5 11t-39 13.5t-27 12l23 43q20 -11 59 -23t84 -12q51 0 83 19.5t32 58.5q0 38 -34.5 55t-88.5 17h-37q-4 2 -8 9.5t-4 16.5q0 14 9 20t23 6h20z" />
    <glyph glyph-name="fourinferior" unicode="&#x2084;" 
d="M378 163q13 0 21.5 -5.5t8.5 -19.5q0 -7 -4.5 -14t-6.5 -9h-49v-110h-59v110h-144q-56 0 -78.5 15t-22.5 47q0 36 22.5 72t49.5 65q22 25 48 47t51.5 38t49 25t41.5 9q20 0 30 -5.5t12 -7.5v-257h30zM289 163v219q-27 -12 -59 -34t-59 -51q-11 -11 -23 -25t-22 -28.5
t-16 -29.5t-6 -28q0 -15 13.5 -19t33.5 -4h138z" />
    <glyph glyph-name="fiveinferior" unicode="&#x2085;" 
d="M140 373l-4 -119q14 2 32 4t40 2q52 0 85.5 -11.5t53 -30t27.5 -42.5t8 -48q0 -58 -44.5 -96t-140.5 -38q-54 0 -93.5 13t-56.5 23l25 42q28 -12 57 -21t71 -9q65 0 93 22.5t28 61.5q0 41 -29 63.5t-101 22.5q-34 0 -59.5 -4t-49.5 -9l7 193q1 14 9.5 22t26.5 8h207
q13 0 21 -6t8 -19q0 -8 -4 -15t-6 -9h-211z" />
    <glyph glyph-name="sixinferior" unicode="&#x2086;" 
d="M233 418q6 7 12.5 11t20.5 4q12 0 20 -5.5t11 -10.5l-119 -145q5 5 24.5 9t39.5 4q38 0 67.5 -11.5t49.5 -30.5t30.5 -45t10.5 -54q0 -32 -12.5 -59.5t-35.5 -47.5t-54.5 -31.5t-70.5 -11.5t-71 11t-54.5 30t-34.5 45t-12 56q0 40 20 77t50 74zM341 140q0 49 -31 75.5
t-83 26.5t-83 -29.5t-31 -74.5q0 -47 30 -74t84 -27q56 0 85 29t29 74z" />
    <glyph glyph-name="seveninferior" unicode="&#x2087;" 
d="M131 1l184 372h-250q-13 0 -21 5.5t-8 19.5q0 8 4 15t6 9h288q41 0 41 -29q0 -10 -2.5 -19.5t-9.5 -23.5l-173 -349h-59z" />
    <glyph glyph-name="eightinferior" unicode="&#x2088;" 
d="M225 433q87 0 130.5 -34t43.5 -83q0 -24 -14.5 -51.5t-53.5 -46.5q48 -18 64 -46t16 -55q0 -55 -46 -89t-140 -34t-140 34t-46 89q0 27 16 55t64 46q-39 19 -53.5 46.5t-14.5 51.5q0 49 43.5 83t130.5 34zM225 40q61 0 93 20.5t32 56.5q0 37 -32 57t-93 20t-93 -20
t-32 -57q0 -36 32 -56.5t93 -20.5zM225 240q59 0 88 20t29 55q0 34 -29 54.5t-88 20.5t-88 -20.5t-29 -54.5q0 -35 29 -55t88 -20z" />
    <glyph glyph-name="nineinferior" unicode="&#x2089;" 
d="M209 0h-64l127 155q-5 -5 -24.5 -9t-39.5 -4q-38 0 -67.5 11.5t-49.5 30.5t-30.5 44.5t-10.5 54.5q0 32 12.5 59.5t35.5 47.5t54.5 31.5t70.5 11.5t70.5 -11t54 -30t34.5 -45t12 -56q0 -40 -19.5 -77t-49.5 -74zM109 287q0 -49 31 -75.5t83 -26.5t83 29.5t31 74.5
q0 47 -30 74t-84 27q-56 0 -85 -29t-29 -74z" />
    <glyph glyph-name="afii61289" unicode="&#x2113;" horiz-adv-x="500" 
d="M286 -14q-25 0 -47 7t-38 22t-25 38.5t-9 56.5v130l-59 -64l-23 27l82 84v264q0 84 34.5 127t83.5 43q45 0 72 -31.5t27 -91.5q0 -73 -42.5 -153t-123.5 -168v-159q0 -27 7.5 -45t18.5 -28.5t25 -14.5t27 -4q21 0 43.5 9.5t44.5 29.5l22 -27q-52 -52 -120 -52zM341 593
q0 42 -17 66.5t-40 24.5q-26 0 -46 -30t-20 -96v-233q60 69 91.5 138.5t31.5 129.5z" />
    <glyph glyph-name="estimated" unicode="&#x212e;" horiz-adv-x="600" 
d="M157 259v-181q59 -59 145 -59q63 0 109 28.5t84 91.5l35 -21q-23 -36 -46.5 -61.5t-51 -42t-59.5 -24t-71 -7.5q-59 0 -106.5 21.5t-81.5 59t-52 87.5t-18 108t18 108.5t52 87.5t81.5 58.5t106.5 21.5q58 0 105.5 -20.5t81.5 -57t53 -87t19 -111.5h-404zM448 295v145
q-63 60 -147 60t-144 -60v-145h291z" />
    <glyph glyph-name="onethird" unicode="&#x2153;" horiz-adv-x="889" 
d="M166 718q13 8 24.5 13.5t26.5 5.5q13 0 21 -4.5t13 -9.5v-414h-59v364l-119 -76q-9 3 -18.5 10.5t-9.5 18.5q0 17 18 28zM223 0h-63l402 710q5 10 13.5 18.5t26.5 8.5q13 0 19.5 -4.5t11.5 -9.5zM663 245q51 0 82 19t31 54q0 34 -29 50.5t-77 16.5q-29 0 -50.5 -6.5
t-35.5 -15.5t-21.5 -18t-9.5 -13q-16 2 -26.5 9t-10.5 19q0 8 2.5 15t10.5 15q4 4 14.5 11.5t28.5 14.5t42.5 12t55.5 5q46 0 77.5 -10t51 -26t28.5 -35.5t9 -38.5q0 -37 -21 -62.5t-49 -39.5q43 -15 60.5 -42.5t17.5 -59.5q0 -54 -45.5 -89.5t-126.5 -35.5q-29 0 -55.5 4.5
t-48.5 11t-39 13.5t-27 12l23 43q20 -11 59 -23t84 -12q51 0 83 19.5t32 58.5q0 38 -34.5 55t-88.5 17h-37q-4 2 -8 9.5t-4 16.5q0 14 9 20t23 6h20z" />
    <glyph glyph-name="twothirds" unicode="&#x2154;" horiz-adv-x="949" 
d="M291 474l-30.5 -24.5l-42 -32l-45 -32.5t-39.5 -27h232v-49h-324v49l36.5 23.5l48 31.5l49.5 34.5t41 31.5q16 13 31 27.5t27 30.5t19.5 34t7.5 38q0 31 -25 55.5t-83 24.5q-28 0 -48.5 -8.5t-33.5 -19t-20 -20.5t-8 -13q-16 2 -27.5 9t-11.5 21q0 15 13 31v-1q3 4 13 12
t27 16.5t41 14.5t55 6q84 0 126 -36.5t42 -91.5q0 -47 -22.5 -78.5t-48.5 -56.5zM300 0h-63l402 710q5 10 13.5 18.5t26.5 8.5q13 0 19.5 -4.5t11.5 -9.5zM723 245q51 0 82 19t31 54q0 34 -29 50.5t-77 16.5q-29 0 -50.5 -6.5t-35.5 -15.5t-21.5 -18t-9.5 -13q-16 2 -26.5 9
t-10.5 19q0 8 2.5 15t10.5 15q4 4 14.5 11.5t28.5 14.5t42.5 12t55.5 5q46 0 77.5 -10t51 -26t28.5 -35.5t9 -38.5q0 -37 -21 -62.5t-49 -39.5q43 -15 60.5 -42.5t17.5 -59.5q0 -54 -45.5 -89.5t-126.5 -35.5q-29 0 -55.5 4.5t-48.5 11t-39 13.5t-27 12l23 43q20 -11 59 -23
t84 -12q51 0 83 19.5t32 58.5q0 38 -34.5 55t-88.5 17h-37q-4 2 -8 9.5t-4 16.5q0 14 9 20t23 6h20z" />
    <glyph glyph-name="oneeighth" unicode="&#x215b;" horiz-adv-x="895" 
d="M166 718q13 8 24.5 13.5t26.5 5.5q13 0 21 -4.5t13 -9.5v-414h-59v364l-119 -76q-9 3 -18.5 10.5t-9.5 18.5q0 17 18 28zM223 0h-63l402 710q5 10 13.5 18.5t26.5 8.5q13 0 19.5 -4.5t11.5 -9.5zM670 433q87 0 130.5 -34t43.5 -83q0 -24 -14.5 -51.5t-53.5 -46.5
q48 -18 64 -46t16 -55q0 -55 -46 -89t-140 -34t-140 34t-46 89q0 27 16 55t64 46q-39 19 -53.5 46.5t-14.5 51.5q0 49 43.5 83t130.5 34zM670 40q61 0 93 20.5t32 56.5q0 37 -32 57t-93 20t-93 -20t-32 -57q0 -36 32 -56.5t93 -20.5zM670 240q59 0 88 20t29 55
q0 34 -29 54.5t-88 20.5t-88 -20.5t-29 -54.5q0 -35 29 -55t88 -20z" />
    <glyph glyph-name="threeeighths" unicode="&#x215c;" horiz-adv-x="961" 
d="M204 549q51 0 82 19t31 54q0 34 -29 50.5t-77 16.5q-29 0 -50.5 -6.5t-35.5 -15.5t-21.5 -18t-9.5 -13q-16 2 -26.5 9t-10.5 19q0 8 2.5 15t10.5 15q4 4 14.5 11.5t28.5 14.5t42.5 12t55.5 5q46 0 77.5 -10t51 -26t28.5 -35.5t9 -38.5q0 -37 -21 -62.5t-49 -39.5
q43 -15 60.5 -42.5t17.5 -59.5q0 -54 -45.5 -89.5t-126.5 -35.5q-29 0 -55.5 4.5t-48.5 11t-39 13.5t-27 12l23 43q20 -11 59 -23t84 -12q51 0 83 19.5t32 58.5q0 38 -34.5 55t-88.5 17h-37q-4 2 -8 9.5t-4 16.5q0 14 9 20t23 6h20zM295 0h-63l402 710q5 10 13.5 18.5
t26.5 8.5q13 0 19.5 -4.5t11.5 -9.5zM736 433q87 0 130.5 -34t43.5 -83q0 -24 -14.5 -51.5t-53.5 -46.5q48 -18 64 -46t16 -55q0 -55 -46 -89t-140 -34t-140 34t-46 89q0 27 16 55t64 46q-39 19 -53.5 46.5t-14.5 51.5q0 49 43.5 83t130.5 34zM736 40q61 0 93 20.5t32 56.5
q0 37 -32 57t-93 20t-93 -20t-32 -57q0 -36 32 -56.5t93 -20.5zM736 240q59 0 88 20t29 55q0 34 -29 54.5t-88 20.5t-88 -20.5t-29 -54.5q0 -35 29 -55t88 -20z" />
    <glyph glyph-name="fiveeighths" unicode="&#x215d;" horiz-adv-x="967" 
d="M137 677l-4 -119q14 2 32 4t40 2q52 0 85.5 -11.5t53 -30t27.5 -42.5t8 -48q0 -58 -44.5 -96t-140.5 -38q-54 0 -93.5 13t-56.5 23l25 42q28 -12 57 -21t71 -9q65 0 93 22.5t28 61.5q0 41 -29 63.5t-101 22.5q-34 0 -59.5 -4t-49.5 -9l7 193q1 14 9.5 22t26.5 8h207
q13 0 21 -6t8 -19q0 -8 -4 -15t-6 -9h-211zM301 0h-63l402 710q5 10 13.5 18.5t26.5 8.5q13 0 19.5 -4.5t11.5 -9.5zM742 433q87 0 130.5 -34t43.5 -83q0 -24 -14.5 -51.5t-53.5 -46.5q48 -18 64 -46t16 -55q0 -55 -46 -89t-140 -34t-140 34t-46 89q0 27 16 55t64 46
q-39 19 -53.5 46.5t-14.5 51.5q0 49 43.5 83t130.5 34zM742 40q61 0 93 20.5t32 56.5q0 37 -32 57t-93 20t-93 -20t-32 -57q0 -36 32 -56.5t93 -20.5zM742 240q59 0 88 20t29 55q0 34 -29 54.5t-88 20.5t-88 -20.5t-29 -54.5q0 -35 29 -55t88 -20z" />
    <glyph glyph-name="seveneighths" unicode="&#x215e;" horiz-adv-x="888" 
d="M135 305l184 372h-250q-13 0 -21 5.5t-8 19.5q0 8 4 15t6 9h288q41 0 41 -29q0 -10 -2.5 -19.5t-9.5 -23.5l-173 -349h-59zM217 0h-63l402 710q5 10 13.5 18.5t26.5 8.5q13 0 19.5 -4.5t11.5 -9.5zM663 433q87 0 130.5 -34t43.5 -83q0 -24 -14.5 -51.5t-53.5 -46.5
q48 -18 64 -46t16 -55q0 -55 -46 -89t-140 -34t-140 34t-46 89q0 27 16 55t64 46q-39 19 -53.5 46.5t-14.5 51.5q0 49 43.5 83t130.5 34zM663 40q61 0 93 20.5t32 56.5q0 37 -32 57t-93 20t-93 -20t-32 -57q0 -36 32 -56.5t93 -20.5zM663 240q59 0 88 20t29 55
q0 34 -29 54.5t-88 20.5t-88 -20.5t-29 -54.5q0 -35 29 -55t88 -20z" />
    <glyph glyph-name="onefifth" unicode="&#x2155;" horiz-adv-x="866" 
d="M166 718q13 8 24.5 13.5t26.5 5.5q13 0 21 -4.5t13 -9.5v-414h-59v364l-119 -76q-9 3 -18.5 10.5t-9.5 18.5q0 17 18 28zM223 0h-63l402 710q5 10 13.5 18.5t26.5 8.5q13 0 19.5 -4.5t11.5 -9.5zM575 373l-4 -119q14 2 32 4t40 2q52 0 85.5 -11.5t53 -30t27.5 -42.5
t8 -48q0 -58 -44.5 -96t-140.5 -38q-54 0 -93.5 13t-56.5 23l25 42q28 -12 57 -21t71 -9q65 0 93 22.5t28 61.5q0 41 -29 63.5t-101 22.5q-34 0 -59.5 -4t-49.5 -9l7 193q1 14 9.5 22t26.5 8h207q13 0 21 -6t8 -19q0 -8 -4 -15t-6 -9h-211z" />
    <glyph glyph-name="twofifths" unicode="&#x2156;" horiz-adv-x="936" 
d="M291 474l-30.5 -24.5l-42 -32l-45 -32.5t-39.5 -27h232v-49h-324v49l36.5 23.5l48 31.5l49.5 34.5t41 31.5q16 13 31 27.5t27 30.5t19.5 34t7.5 38q0 31 -25 55.5t-83 24.5q-28 0 -48.5 -8.5t-33.5 -19t-20 -20.5t-8 -13q-16 2 -27.5 9t-11.5 21q0 15 13 31v-1q3 4 13 12
t27 16.5t41 14.5t55 6q84 0 126 -36.5t42 -91.5q0 -47 -22.5 -78.5t-48.5 -56.5zM300 0h-63l402 710q5 10 13.5 18.5t26.5 8.5q13 0 19.5 -4.5t11.5 -9.5zM645 373l-4 -119q14 2 32 4t40 2q52 0 85.5 -11.5t53 -30t27.5 -42.5t8 -48q0 -58 -44.5 -96t-140.5 -38
q-54 0 -93.5 13t-56.5 23l25 42q28 -12 57 -21t71 -9q65 0 93 22.5t28 61.5q0 41 -29 63.5t-101 22.5q-34 0 -59.5 -4t-49.5 -9l7 193q1 14 9.5 22t26.5 8h207q13 0 21 -6t8 -19q0 -8 -4 -15t-6 -9h-211z" />
    <glyph glyph-name="threefifths" unicode="&#x2157;" horiz-adv-x="931" 
d="M204 549q51 0 82 19t31 54q0 34 -29 50.5t-77 16.5q-29 0 -50.5 -6.5t-35.5 -15.5t-21.5 -18t-9.5 -13q-16 2 -26.5 9t-10.5 19q0 8 2.5 15t10.5 15q4 4 14.5 11.5t28.5 14.5t42.5 12t55.5 5q46 0 77.5 -10t51 -26t28.5 -35.5t9 -38.5q0 -37 -21 -62.5t-49 -39.5
q43 -15 60.5 -42.5t17.5 -59.5q0 -54 -45.5 -89.5t-126.5 -35.5q-29 0 -55.5 4.5t-48.5 11t-39 13.5t-27 12l23 43q20 -11 59 -23t84 -12q51 0 83 19.5t32 58.5q0 38 -34.5 55t-88.5 17h-37q-4 2 -8 9.5t-4 16.5q0 14 9 20t23 6h20zM295 0h-63l402 710q5 10 13.5 18.5
t26.5 8.5q13 0 19.5 -4.5t11.5 -9.5zM640 373l-4 -119q14 2 32 4t40 2q52 0 85.5 -11.5t53 -30t27.5 -42.5t8 -48q0 -58 -44.5 -96t-140.5 -38q-54 0 -93.5 13t-56.5 23l25 42q28 -12 57 -21t71 -9q65 0 93 22.5t28 61.5q0 41 -29 63.5t-101 22.5q-34 0 -59.5 -4t-49.5 -9
l7 193q1 14 9.5 22t26.5 8h207q13 0 21 -6t8 -19q0 -8 -4 -15t-6 -9h-211z" />
    <glyph glyph-name="fourfifths" unicode="&#x2158;" horiz-adv-x="941" 
d="M364 467q13 0 21.5 -5.5t8.5 -19.5q0 -7 -4.5 -14t-6.5 -9h-49v-110h-59v110h-144q-56 0 -78.5 15t-22.5 47q0 36 22.5 72t49.5 65q22 25 48 47t51.5 38t49 25t41.5 9q20 0 30 -5.5t12 -7.5v-257h30zM275 467v219q-27 -12 -59 -34t-59 -51q-11 -11 -23 -25t-22 -28.5
t-16 -29.5t-6 -28q0 -15 13.5 -19t33.5 -4h138zM305 0h-63l402 710q5 10 13.5 18.5t26.5 8.5q13 0 19.5 -4.5t11.5 -9.5zM650 373l-4 -119q14 2 32 4t40 2q52 0 85.5 -11.5t53 -30t27.5 -42.5t8 -48q0 -58 -44.5 -96t-140.5 -38q-54 0 -93.5 13t-56.5 23l25 42
q28 -12 57 -21t71 -9q65 0 93 22.5t28 61.5q0 41 -29 63.5t-101 22.5q-34 0 -59.5 -4t-49.5 -9l7 193q1 14 9.5 22t26.5 8h207q13 0 21 -6t8 -19q0 -8 -4 -15t-6 -9h-211z" />
    <glyph glyph-name="onesixth" unicode="&#x2159;" horiz-adv-x="826" 
d="M166 718q13 8 24.5 13.5t26.5 5.5q13 0 21 -4.5t13 -9.5v-414h-59v364l-119 -76q-9 3 -18.5 10.5t-9.5 18.5q0 17 18 28zM223 0h-63l402 710q5 10 13.5 18.5t26.5 8.5q13 0 19.5 -4.5t11.5 -9.5zM610 418q6 7 12.5 11t20.5 4q12 0 20 -5.5t11 -10.5l-119 -145q5 5 24.5 9
t39.5 4q38 0 67.5 -11.5t49.5 -30.5t30.5 -45t10.5 -54q0 -32 -12.5 -59.5t-35.5 -47.5t-54.5 -31.5t-70.5 -11.5t-71 11t-54.5 30t-34.5 45t-12 56q0 40 20 77t50 74zM718 140q0 49 -31 75.5t-83 26.5t-83 -29.5t-31 -74.5q0 -47 30 -74t84 -27q56 0 85 29t29 74z" />
    <glyph glyph-name="fivesixths" unicode="&#x215a;" horiz-adv-x="904" 
d="M137 677l-4 -119q14 2 32 4t40 2q52 0 85.5 -11.5t53 -30t27.5 -42.5t8 -48q0 -58 -44.5 -96t-140.5 -38q-54 0 -93.5 13t-56.5 23l25 42q28 -12 57 -21t71 -9q65 0 93 22.5t28 61.5q0 41 -29 63.5t-101 22.5q-34 0 -59.5 -4t-49.5 -9l7 193q1 14 9.5 22t26.5 8h207
q13 0 21 -6t8 -19q0 -8 -4 -15t-6 -9h-211zM301 0h-63l402 710q5 10 13.5 18.5t26.5 8.5q13 0 19.5 -4.5t11.5 -9.5zM688 418q6 7 12.5 11t20.5 4q12 0 20 -5.5t11 -10.5l-119 -145q5 5 24.5 9t39.5 4q38 0 67.5 -11.5t49.5 -30.5t30.5 -45t10.5 -54q0 -32 -12.5 -59.5
t-35.5 -47.5t-54.5 -31.5t-70.5 -11.5t-71 11t-54.5 30t-34.5 45t-12 56q0 40 20 77t50 74zM796 140q0 49 -31 75.5t-83 26.5t-83 -29.5t-31 -74.5q0 -47 30 -74t84 -27q56 0 85 29t29 74z" />
    <glyph glyph-name="oneseventh" unicode="&#xf506;" horiz-adv-x="912" 
d="M166 718q13 8 24.5 13.5t26.5 5.5q13 0 21 -4.5t13 -9.5v-414h-59v364l-119 -76q-9 3 -18.5 10.5t-9.5 18.5q0 17 18 28zM223 0h-63l402 710q5 10 13.5 18.5t26.5 8.5q13 0 19.5 -4.5t11.5 -9.5zM623 1l184 372h-250q-13 0 -21 5.5t-8 19.5q0 8 4 15t6 9h288q41 0 41 -29
q0 -10 -2.5 -19.5t-9.5 -23.5l-173 -349h-59z" />
    <glyph glyph-name="twosevenths" unicode="&#xf507;" horiz-adv-x="969" 
d="M284 474l-30.5 -24.5l-42 -32l-45 -32.5t-39.5 -27h232v-49h-324v49l36.5 23.5l48 31.5l49.5 34.5t41 31.5q16 13 31 27.5t27 30.5t19.5 34t7.5 38q0 31 -25 55.5t-83 24.5q-28 0 -48.5 -8.5t-33.5 -19t-20 -20.5t-8 -13q-16 2 -27.5 9t-11.5 21q0 15 13 31v-1q3 4 13 12
t27 16.5t41 14.5t55 6q84 0 126 -36.5t42 -91.5q0 -47 -22.5 -78.5t-48.5 -56.5zM293 0h-63l402 710q5 10 13.5 18.5t26.5 8.5q13 0 19.5 -4.5t11.5 -9.5zM680 1l184 372h-250q-13 0 -21 5.5t-8 19.5q0 8 4 15t6 9h288q41 0 41 -29q0 -10 -2.5 -19.5t-9.5 -23.5l-173 -349
h-59z" />
    <glyph glyph-name="threesevenths" unicode="&#xf508;" horiz-adv-x="961" 
d="M204 549q51 0 82 19t31 54q0 34 -29 50.5t-77 16.5q-29 0 -50.5 -6.5t-35.5 -15.5t-21.5 -18t-9.5 -13q-16 2 -26.5 9t-10.5 19q0 8 2.5 15t10.5 15q4 4 14.5 11.5t28.5 14.5t42.5 12t55.5 5q46 0 77.5 -10t51 -26t28.5 -35.5t9 -38.5q0 -37 -21 -62.5t-49 -39.5
q43 -15 60.5 -42.5t17.5 -59.5q0 -54 -45.5 -89.5t-126.5 -35.5q-29 0 -55.5 4.5t-48.5 11t-39 13.5t-27 12l23 43q20 -11 59 -23t84 -12q51 0 83 19.5t32 58.5q0 38 -34.5 55t-88.5 17h-37q-4 2 -8 9.5t-4 16.5q0 14 9 20t23 6h20zM295 0h-63l402 710q5 10 13.5 18.5
t26.5 8.5q13 0 19.5 -4.5t11.5 -9.5zM672 1l184 372h-250q-13 0 -21 5.5t-8 19.5q0 8 4 15t6 9h288q41 0 41 -29q0 -10 -2.5 -19.5t-9.5 -23.5l-173 -349h-59z" />
    <glyph glyph-name="foursevenths" unicode="&#xf509;" horiz-adv-x="971" 
d="M364 467q13 0 21.5 -5.5t8.5 -19.5q0 -7 -4.5 -14t-6.5 -9h-49v-110h-59v110h-144q-56 0 -78.5 15t-22.5 47q0 36 22.5 72t49.5 65q22 25 48 47t51.5 38t49 25t41.5 9q20 0 30 -5.5t12 -7.5v-257h30zM275 467v219q-27 -12 -59 -34t-59 -51q-11 -11 -23 -25t-22 -28.5
t-16 -29.5t-6 -28q0 -15 13.5 -19t33.5 -4h138zM305 0h-63l402 710q5 10 13.5 18.5t26.5 8.5q13 0 19.5 -4.5t11.5 -9.5zM682 1l184 372h-250q-13 0 -21 5.5t-8 19.5q0 8 4 15t6 9h288q41 0 41 -29q0 -10 -2.5 -19.5t-9.5 -23.5l-173 -349h-59z" />
    <glyph glyph-name="fivesevenths" unicode="&#xf50a;" horiz-adv-x="967" 
d="M137 677l-4 -119q14 2 32 4t40 2q52 0 85.5 -11.5t53 -30t27.5 -42.5t8 -48q0 -58 -44.5 -96t-140.5 -38q-54 0 -93.5 13t-56.5 23l25 42q28 -12 57 -21t71 -9q65 0 93 22.5t28 61.5q0 41 -29 63.5t-101 22.5q-34 0 -59.5 -4t-49.5 -9l7 193q1 14 9.5 22t26.5 8h207
q13 0 21 -6t8 -19q0 -8 -4 -15t-6 -9h-211zM301 0h-63l402 710q5 10 13.5 18.5t26.5 8.5q13 0 19.5 -4.5t11.5 -9.5zM678 1l184 372h-250q-13 0 -21 5.5t-8 19.5q0 8 4 15t6 9h288q41 0 41 -29q0 -10 -2.5 -19.5t-9.5 -23.5l-173 -349h-59z" />
    <glyph glyph-name="sixsevenths" unicode="&#xf50b;" horiz-adv-x="959" 
d="M211 722q6 7 12.5 11t20.5 4q12 0 20 -5.5t11 -10.5l-119 -145q5 5 24.5 9t39.5 4q38 0 67.5 -11.5t49.5 -30.5t30.5 -45t10.5 -54q0 -32 -12.5 -59.5t-35.5 -47.5t-54.5 -31.5t-70.5 -11.5t-71 11t-54.5 30t-34.5 45t-12 56q0 40 20 77t50 74zM319 444q0 49 -31 75.5
t-83 26.5t-83 -29.5t-31 -74.5q0 -47 30 -74t84 -27q56 0 85 29t29 74zM293 0h-63l402 710q5 10 13.5 18.5t26.5 8.5q13 0 19.5 -4.5t11.5 -9.5zM670 1l184 372h-250q-13 0 -21 5.5t-8 19.5q0 8 4 15t6 9h288q41 0 41 -29q0 -10 -2.5 -19.5t-9.5 -23.5l-173 -349h-59z" />
    <glyph glyph-name="oneninth" unicode="&#xf50c;" horiz-adv-x="866" 
d="M166 718q13 8 24.5 13.5t26.5 5.5q13 0 21 -4.5t13 -9.5v-414h-59v364l-119 -76q-9 3 -18.5 10.5t-9.5 18.5q0 17 18 28zM223 0h-63l402 710q5 10 13.5 18.5t26.5 8.5q13 0 19.5 -4.5t11.5 -9.5zM648 0h-64l127 155q-5 -5 -24.5 -9t-39.5 -4q-38 0 -67.5 11.5t-49.5 30.5
t-30.5 44.5t-10.5 54.5q0 32 12.5 59.5t35.5 47.5t54.5 31.5t70.5 11.5t70.5 -11t54 -30t34.5 -45t12 -56q0 -40 -19.5 -77t-49.5 -74zM548 287q0 -49 31 -75.5t83 -26.5t83 29.5t31 74.5q0 47 -30 74t-84 27q-56 0 -85 -29t-29 -74z" />
    <glyph glyph-name="twoninths" unicode="&#xf50d;" horiz-adv-x="929" 
d="M284 474l-30.5 -24.5l-42 -32l-45 -32.5t-39.5 -27h232v-49h-324v49l36.5 23.5l48 31.5l49.5 34.5t41 31.5q16 13 31 27.5t27 30.5t19.5 34t7.5 38q0 31 -25 55.5t-83 24.5q-28 0 -48.5 -8.5t-33.5 -19t-20 -20.5t-8 -13q-16 2 -27.5 9t-11.5 21q0 15 13 31v-1q3 4 13 12
t27 16.5t41 14.5t55 6q84 0 126 -36.5t42 -91.5q0 -47 -22.5 -78.5t-48.5 -56.5zM293 0h-63l402 710q5 10 13.5 18.5t26.5 8.5q13 0 19.5 -4.5t11.5 -9.5zM711 0h-64l127 155q-5 -5 -24.5 -9t-39.5 -4q-38 0 -67.5 11.5t-49.5 30.5t-30.5 44.5t-10.5 54.5q0 32 12.5 59.5
t35.5 47.5t54.5 31.5t70.5 11.5t70.5 -11t54 -30t34.5 -45t12 -56q0 -40 -19.5 -77t-49.5 -74zM611 287q0 -49 31 -75.5t83 -26.5t83 29.5t31 74.5q0 47 -30 74t-84 27q-56 0 -85 -29t-29 -74z" />
    <glyph glyph-name="fourninths" unicode="&#xf50e;" horiz-adv-x="941" 
d="M364 467q13 0 21.5 -5.5t8.5 -19.5q0 -7 -4.5 -14t-6.5 -9h-49v-110h-59v110h-144q-56 0 -78.5 15t-22.5 47q0 36 22.5 72t49.5 65q22 25 48 47t51.5 38t49 25t41.5 9q20 0 30 -5.5t12 -7.5v-257h30zM275 467v219q-27 -12 -59 -34t-59 -51q-11 -11 -23 -25t-22 -28.5
t-16 -29.5t-6 -28q0 -15 13.5 -19t33.5 -4h138zM305 0h-63l402 710q5 10 13.5 18.5t26.5 8.5q13 0 19.5 -4.5t11.5 -9.5zM723 0h-64l127 155q-5 -5 -24.5 -9t-39.5 -4q-38 0 -67.5 11.5t-49.5 30.5t-30.5 44.5t-10.5 54.5q0 32 12.5 59.5t35.5 47.5t54.5 31.5t70.5 11.5
t70.5 -11t54 -30t34.5 -45t12 -56q0 -40 -19.5 -77t-49.5 -74zM623 287q0 -49 31 -75.5t83 -26.5t83 29.5t31 74.5q0 47 -30 74t-84 27q-56 0 -85 -29t-29 -74z" />
    <glyph glyph-name="fiveninths" unicode="&#xf50f;" horiz-adv-x="937" 
d="M137 677l-4 -119q14 2 32 4t40 2q52 0 85.5 -11.5t53 -30t27.5 -42.5t8 -48q0 -58 -44.5 -96t-140.5 -38q-54 0 -93.5 13t-56.5 23l25 42q28 -12 57 -21t71 -9q65 0 93 22.5t28 61.5q0 41 -29 63.5t-101 22.5q-34 0 -59.5 -4t-49.5 -9l7 193q1 14 9.5 22t26.5 8h207
q13 0 21 -6t8 -19q0 -8 -4 -15t-6 -9h-211zM301 0h-63l402 710q5 10 13.5 18.5t26.5 8.5q13 0 19.5 -4.5t11.5 -9.5zM719 0h-64l127 155q-5 -5 -24.5 -9t-39.5 -4q-38 0 -67.5 11.5t-49.5 30.5t-30.5 44.5t-10.5 54.5q0 32 12.5 59.5t35.5 47.5t54.5 31.5t70.5 11.5
t70.5 -11t54 -30t34.5 -45t12 -56q0 -40 -19.5 -77t-49.5 -74zM619 287q0 -49 31 -75.5t83 -26.5t83 29.5t31 74.5q0 47 -30 74t-84 27q-56 0 -85 -29t-29 -74z" />
    <glyph glyph-name="sevenninths" unicode="&#xf510;" horiz-adv-x="868" 
d="M135 305l184 372h-250q-13 0 -21 5.5t-8 19.5q0 8 4 15t6 9h288q41 0 41 -29q0 -10 -2.5 -19.5t-9.5 -23.5l-173 -349h-59zM217 0h-63l402 710q5 10 13.5 18.5t26.5 8.5q13 0 19.5 -4.5t11.5 -9.5zM650 0h-64l127 155q-5 -5 -24.5 -9t-39.5 -4q-38 0 -67.5 11.5
t-49.5 30.5t-30.5 44.5t-10.5 54.5q0 32 12.5 59.5t35.5 47.5t54.5 31.5t70.5 11.5t70.5 -11t54 -30t34.5 -45t12 -56q0 -40 -19.5 -77t-49.5 -74zM550 287q0 -49 31 -75.5t83 -26.5t83 29.5t31 74.5q0 47 -30 74t-84 27q-56 0 -85 -29t-29 -74z" />
    <glyph glyph-name="eightninths" unicode="&#xf511;" horiz-adv-x="960" 
d="M225 737q87 0 130.5 -34t43.5 -83q0 -24 -14.5 -51.5t-53.5 -46.5q48 -18 64 -46t16 -55q0 -55 -46 -89t-140 -34t-140 34t-46 89q0 27 16 55t64 46q-39 19 -53.5 46.5t-14.5 51.5q0 49 43.5 83t130.5 34zM225 344q61 0 93 20.5t32 56.5q0 37 -32 57t-93 20t-93 -20
t-32 -57q0 -36 32 -56.5t93 -20.5zM225 544q59 0 88 20t29 55q0 34 -29 54.5t-88 20.5t-88 -20.5t-29 -54.5q0 -35 29 -55t88 -20zM324 0h-63l402 710q5 10 13.5 18.5t26.5 8.5q13 0 19.5 -4.5t11.5 -9.5zM742 0h-64l127 155q-5 -5 -24.5 -9t-39.5 -4q-38 0 -67.5 11.5
t-49.5 30.5t-30.5 44.5t-10.5 54.5q0 32 12.5 59.5t35.5 47.5t54.5 31.5t70.5 11.5t70.5 -11t54 -30t34.5 -45t12 -56q0 -40 -19.5 -77t-49.5 -74zM642 287q0 -49 31 -75.5t83 -26.5t83 29.5t31 74.5q0 47 -30 74t-84 27q-56 0 -85 -29t-29 -74z" />
    <glyph glyph-name="partialdiff" unicode="&#x2202;" horiz-adv-x="613" 
d="M307 430q-44 0 -79.5 -14.5t-61 -40.5t-39.5 -62t-14 -79q0 -42 14 -77t39.5 -60.5t61 -39.5t79.5 -14t79.5 15t60.5 41.5t38.5 62t13.5 77.5q0 43 -13.5 78t-38.5 60t-60.5 39t-79.5 14zM275 681q-27 0 -49.5 -7t-39.5 -16.5t-27.5 -18.5t-13.5 -13l-44 40q6 9 20 21
t36.5 23t53 19t68.5 8q65 0 111.5 -21.5t79 -57t52.5 -81t31 -93t14.5 -94t3.5 -83.5q0 -80 -19 -140t-53.5 -100.5t-83 -60.5t-108.5 -20t-108.5 19t-83.5 52t-54 78.5t-19 98.5q0 54 19 100.5t53 80t81 52.5t104 19q64 0 114 -24t78 -62q-3 40 -13.5 89t-34.5 92
t-64.5 71.5t-103.5 28.5z" />
    <glyph glyph-name="Delta" unicode="&#x2206;" horiz-adv-x="699" 
d="M5 0l303 704h84l302 -704h-689zM348 632l-245 -571h490z" />
    <glyph glyph-name="product" unicode="&#x220f;" horiz-adv-x="732" 
d="M618 686q20 0 28.5 -10t8.5 -26v-777h-69v753h-440v-753h-69v777q0 16 8.5 26t28.5 10h504z" />
    <glyph glyph-name="summation" unicode="&#x2211;" horiz-adv-x="608" 
d="M103 625l352 -338l-367 -353h510v-61h-588v76l351 335l-273 258q-37 35 -55 56.5t-18 42.5q0 22 14.5 33.5t47.5 11.5h475q14 0 23.5 -7.5t9.5 -23.5q0 -11 -3.5 -19t-5.5 -11h-473z" />
    <glyph glyph-name="uni2126" unicode="&#x2126;" horiz-adv-x="804" 
d="M402 643q-62 0 -113 -20t-88 -56t-57 -86.5t-20 -111.5q0 -107 50 -180t152 -130v-59h-262v59h166q-32 18 -64 47.5t-57.5 68.5t-42 88t-16.5 106q0 60 22 119.5t65.5 107.5t109.5 78t155 30q88 0 154.5 -30t110 -78t65.5 -107.5t22 -119.5q0 -57 -16.5 -106t-42 -88
t-58 -68.5t-63.5 -47.5h166v-59h-262v59q102 57 152 130t50 180q0 61 -20 111.5t-57 86.5t-88 56t-113 20z" />
    <glyph glyph-name="minus" unicode="&#x2212;" horiz-adv-x="637" 
d="M93 309q-19 0 -26.5 9t-7.5 23q0 8 2 15.5t4 12.5h479q19 0 26.5 -9t7.5 -22q0 -9 -2 -16.5t-4 -12.5h-479z" />
    <glyph glyph-name="uni2215" unicode="&#x2215;" horiz-adv-x="6" 
d="M-167 0h-63l402 710q5 10 13.5 18.5t26.5 8.5q13 0 19.5 -4.5t11.5 -9.5z" />
    <glyph glyph-name="uni2219" unicode="&#x2219;" horiz-adv-x="262" 
d="M190 343q0 -25 -17 -42.5t-41 -17.5q-25 0 -42.5 17.5t-17.5 42.5q0 24 17.5 41t42.5 17q24 0 41 -17t17 -41z" />
    <glyph glyph-name="radical" unicode="&#x221a;" horiz-adv-x="570" 
d="M352 -14h-71l-141 435l-91 -51l-24 53l160 91l135 -428l254 807h66z" />
    <glyph glyph-name="infinity" unicode="&#x221e;" horiz-adv-x="782" 
d="M668 344q0 57 -26.5 90.5t-75.5 33.5q-24 0 -43.5 -11t-37 -29t-33 -41.5t-30.5 -49.5q34 -55 67.5 -86t77.5 -31q26 0 45 10t31.5 27.5t18.5 40t6 46.5zM364 336q-21 36 -37 61t-32.5 40.5t-34.5 23t-42 7.5q-26 0 -45 -11.5t-31.5 -29.5t-19 -41t-6.5 -45
q0 -62 29.5 -91.5t77.5 -29.5q70 0 141 114v2zM723 351q0 -48 -11.5 -82.5t-32.5 -57t-49 -33t-61 -10.5q-59 0 -100 33.5t-77 87.5q-43 -65 -83.5 -93t-91.5 -28q-33 0 -62 11t-50.5 33t-33.5 54t-12 74q0 36 10.5 68t31 57t50 39.5t68.5 14.5q32 0 56 -9t44 -25.5
t38 -41.5t38 -56q22 37 42.5 62t40.5 40.5t42 22.5t48 7q37 0 66 -13.5t49 -36.5t30 -53.5t10 -64.5z" />
    <glyph glyph-name="integral" unicode="&#x222b;" horiz-adv-x="342" 
d="M130 559q-1 14 -1 31.5v29.5q0 34 10.5 56.5t26.5 36t35.5 19t37.5 5.5q32 0 56 -8.5t37 -18.5l-26 -49q-8 6 -23 12.5t-34 6.5q-25 0 -39.5 -15.5t-14.5 -51.5q0 -17 0.5 -32t0.5 -23l15 -556q1 -32 1.5 -53t0.5 -41q0 -34 -10.5 -57t-26.5 -36.5t-35.5 -19t-37.5 -5.5
q-32 0 -56 8.5t-37 18.5l26 49q8 -6 23 -12.5t34 -6.5q25 0 39.5 15.5t14.5 51.5q0 17 -0.5 32t-0.5 23z" />
    <glyph glyph-name="approxequal" unicode="&#x2248;" horiz-adv-x="637" 
d="M281 201q-20 8 -47.5 15.5t-51.5 7.5q-20 0 -33.5 -7t-22.5 -17.5t-14.5 -24t-8.5 -26.5h-57q8 71 45 103.5t97 32.5q26 0 51.5 -5.5t48.5 -14.5q18 -8 38.5 -16l38.5 -15q22 -9 43.5 -14.5t46.5 -5.5q44 0 59.5 22t20.5 52h56q-8 -67 -42 -102t-94 -35q-26 0 -54 7.5
t-50 15.5zM281 441q-20 8 -47.5 15.5t-51.5 7.5q-20 0 -33.5 -7t-22.5 -17.5t-14.5 -24t-8.5 -26.5h-57q8 71 45 103.5t97 32.5q26 0 51.5 -5.5t48.5 -14.5q18 -8 38.5 -16l38.5 -15q22 -9 43.5 -14.5t46.5 -5.5q44 0 59.5 22t20.5 52h56q-8 -67 -42 -102t-94 -35
q-26 0 -54 7.5t-50 15.5z" />
    <glyph glyph-name="notequal" unicode="&#x2260;" horiz-adv-x="637" 
d="M578 462q0 -9 -2 -16t-4 -12h-159l-110 -189h241q19 0 26.5 -9t7.5 -23q0 -8 -2 -15.5t-4 -12.5h-304l-86 -148h-69l86 148h-106q-19 0 -26.5 9t-7.5 23q0 9 2 16t4 12h169l110 189h-251q-19 0 -26.5 8.5t-7.5 22.5q0 8 2 15.5t4 12.5h314l72 124q8 13 14.5 18t20.5 5
q16 0 26 -6t12 -10l-77 -131h97q19 0 26.5 -8.5t7.5 -22.5z" />
    <glyph glyph-name="lessequal" unicode="&#x2264;" horiz-adv-x="637" 
d="M93 0q-19 0 -26.5 9t-7.5 23q0 8 2 15.5t4 12.5h479q19 0 26.5 -9t7.5 -22q0 -9 -2 -16.5t-4 -12.5h-479zM114 306q-23 10 -30 21.5t-7 27.5q0 13 3.5 23.5t8.5 16.5l472 187v-69l-420 -158l420 -159v-67z" />
    <glyph glyph-name="greaterequal" unicode="&#x2265;" horiz-adv-x="637" 
d="M93 0q-19 0 -26.5 9t-7.5 23q0 8 2 15.5t4 12.5h479q19 0 26.5 -9t7.5 -22q0 -9 -2 -16.5t-4 -12.5h-479zM524 405q23 -10 30 -21.5t7 -27.5q0 -13 -3.5 -23.5t-8.5 -16.5l-472 -187v69l420 158l-420 159v67z" />
    <glyph glyph-name="lozenge" unicode="&#x25ca;" horiz-adv-x="656" 
d="M55 345l237 359h72l237 -359l-237 -363h-72zM131 345l197 -311l197 311l-197 301z" />
    <glyph glyph-name="fi" unicode="&#xf001;" horiz-adv-x="554" 
d="M421 0v434h-293v-434h-66v541q0 57 18 94.5t48 60t69 32t81 9.5q54 0 89 -8t47 -15q9 -5 15.5 -12t6.5 -20q0 -9 -5 -17.5t-12 -13.5q-10 7 -25.5 13t-34.5 10t-38.5 6.5t-36.5 2.5q-80 0 -118 -37.5t-38 -119.5v-32h315q20 0 32 -8t12 -31v-455h-66z" />
    <glyph glyph-name="fl" unicode="&#xf002;" horiz-adv-x="534" 
d="M467 0h-66v665q-10 3 -43 10.5t-81 7.5q-77 0 -113 -37.5t-36 -119.5v-32h189q21 0 29 -9.5t8 -23.5q0 -8 -2 -15t-4 -12h-220v-434h-66v541q0 57 18 94.5t48 60t69 32t81 9.5q40 0 74 -5t59 -11.5t39.5 -12t16.5 -6.5v-702z" />
    <glyph glyph-name="zero.alt" unicode="&#xf800;" horiz-adv-x="663" 
d="M613 343q0 -85 -20 -152t-56.5 -113.5t-88.5 -71t-116 -24.5q-65 0 -117 24.5t-88.5 71t-56.5 113.5t-20 152t20 152t56.5 113.5t88.5 71t117 24.5q64 0 116 -24.5t88.5 -71t56.5 -113.5t20 -152zM540 343q0 60 -12 115t-37.5 97t-65 66.5t-93.5 24.5q-55 0 -94.5 -24.5
t-65 -66.5t-37.5 -97t-12 -115t12 -115t37.5 -97t65 -66.5t94.5 -24.5q54 0 93.5 24.5t65 66.5t37.5 97t12 115z" />
    <glyph glyph-name="one.alt" unicode="&#xf801;" horiz-adv-x="663" 
d="M381 0v611l-198 -136q-11 3 -21.5 12t-10.5 23q0 8 3.5 16t16.5 18l181 123q8 6 21.5 12.5t33.5 6.5q18 0 28.5 -5.5t14.5 -10.5v-670h-69z" />
    <glyph glyph-name="two.alt" unicode="&#xf802;" horiz-adv-x="663" 
d="M458 277q-18 -19 -55.5 -50.5l-79 -64.5l-79.5 -61.5t-57 -40.5h384v-60h-479v65l55.5 38.5l72.5 53l75.5 58t64.5 54.5q25 23 49 48.5t42.5 53.5t30 59.5t11.5 67.5q0 28 -9.5 55t-31 48t-55 33.5t-81.5 12.5q-46 0 -79 -14t-54.5 -31.5t-32 -34.5t-12.5 -23
q-17 3 -29.5 12t-12.5 25q0 22 18 45q5 6 20 19t40.5 26t61 23t80.5 10q62 0 109 -15.5t78.5 -43t47 -65t15.5 -82.5q0 -38 -9.5 -69.5t-24.5 -58t-34.5 -49.5t-39.5 -44z" />
    <glyph glyph-name="three.alt" unicode="&#xf803;" horiz-adv-x="663" 
d="M313 384q41 0 75.5 9t59 26.5t38 42.5t13.5 57q0 64 -47 96t-128 32q-46 0 -80 -11.5t-56.5 -26.5t-35 -30t-15.5 -23q-17 2 -28.5 11.5t-11.5 23.5q0 24 18 43q6 7 22 19t42 23t62 19.5t83 8.5q68 0 115 -16t76 -41.5t42 -56.5t13 -62q0 -33 -11.5 -61t-29.5 -50
t-41 -38t-47 -26q76 -20 109.5 -68t33.5 -104q0 -43 -17.5 -79.5t-50.5 -63t-81 -41.5t-108 -15q-43 0 -82 6.5t-71 16t-56.5 20t-39.5 19.5l26 54q15 -9 37.5 -18.5t50.5 -18t61 -14t68 -5.5q85 0 137.5 35t52.5 108q0 35 -15 60.5t-42 42t-64 24t-81 7.5h-55q-2 2 -6 11.5
t-4 20.5q0 33 39 33h30z" />
    <glyph glyph-name="four.alt" unicode="&#xf804;" horiz-adv-x="663" 
d="M567 228q15 0 25 -7t10 -23q0 -11 -4 -18.5t-6 -10.5h-82v-169h-70v169h-234q-80 0 -112.5 23.5t-32.5 70.5q0 28 9.5 58t25.5 60t37.5 59.5t44.5 57.5q32 38 69 72.5t74 60t71.5 40.5t62.5 15t40 -6t15 -8v-444h57zM440 228v401q-44 -19 -99.5 -59.5t-102.5 -94.5
l-36 -44t-34.5 -50t-25.5 -52t-10 -50q0 -34 23 -42.5t60 -8.5h225z" />
    <glyph glyph-name="five.alt" unicode="&#xf805;" horiz-adv-x="663" 
d="M136 646q1 18 12 29t34 11h332q15 0 24.5 -7t9.5 -23q0 -11 -3.5 -18.5l-5.5 -11.5h-342l-7 -227q20 4 56.5 7.5t71.5 3.5q73 0 123 -18.5t81 -48.5t44.5 -68t13.5 -77q0 -47 -17.5 -86.5t-53 -68.5t-87.5 -45t-121 -16q-38 0 -72.5 5.5t-63.5 14t-50.5 17.5t-32.5 16
l27 54q38 -20 86 -34t112 -14q97 0 148.5 41.5t51.5 111.5q0 74 -52.5 115.5t-161.5 41.5q-50 0 -92.5 -6t-74.5 -15z" />
    <glyph glyph-name="six.alt" unicode="&#xf806;" horiz-adv-x="663" 
d="M342 681q8 11 17 17t26 6q15 0 24.5 -6t12.5 -11l-212 -274q17 12 50 25.5t87 13.5q55 0 100.5 -18.5t77.5 -49.5t49.5 -72t17.5 -87q0 -53 -20.5 -97.5t-56 -77t-83 -50.5t-102.5 -18t-102.5 17.5t-82 49t-54.5 74t-20 93.5q0 64 26.5 124t81.5 130zM521 217
q0 44 -15 77.5t-40.5 56.5t-60.5 35t-75 12q-41 0 -75.5 -13t-60 -37t-40 -57.5t-14.5 -73.5q0 -39 14 -72.5t39.5 -58t60.5 -38t76 -13.5q42 0 77.5 13.5t60.5 38t39 58t14 72.5z" />
    <glyph glyph-name="seven.alt" unicode="&#xf807;" horiz-adv-x="663" 
d="M111 625q-15 0 -24.5 7t-9.5 23q0 11 3.5 20t5.5 11h446q53 0 53 -39q0 -14 -6 -32.5t-17 -45.5l-32.5 -72.5l-45.5 -100.5l-52 -114.5l-51.5 -113.5l-44.5 -98.5t-30 -69.5h-70q10 24 33.5 76l53 116.5l61.5 135l59.5 132l47.5 106.5t25 59h-405z" />
    <glyph glyph-name="eight.alt" unicode="&#xf808;" horiz-adv-x="663" 
d="M331 704q61 0 108.5 -14.5t80.5 -39.5t50 -59t17 -73q0 -23 -6 -46.5t-19.5 -46t-36 -42t-56.5 -34.5q40 -13 66.5 -33t41.5 -43t21 -48t6 -47q0 -43 -17.5 -79t-52 -62t-85.5 -40.5t-118 -14.5t-118 14.5t-85.5 40.5t-52 62t-17.5 79q0 22 6 47t21 48t41 43t67 33
q-34 15 -56.5 34.5t-36 42t-19.5 46t-6 46.5q0 39 17 73t50 59t80.5 39.5t108.5 14.5zM331 38q94 0 147.5 37.5t53.5 103.5t-53.5 103.5t-147.5 37.5t-147.5 -37.5t-53.5 -103.5t53.5 -103.5t147.5 -37.5zM144 513q0 -61 48.5 -100t138.5 -39t138.5 39t48.5 100t-48.5 100
t-138.5 39t-138.5 -39t-48.5 -100z" />
    <glyph glyph-name="nine.alt" unicode="&#xf809;" horiz-adv-x="663" 
d="M238 -8l211 272q-15 -11 -49.5 -23t-78.5 -12q-60 0 -107.5 18.5t-79.5 50t-49 73t-17 87.5q0 53 20 98t55.5 78t83.5 51.5t105 18.5t105 -18t83 -49.5t54.5 -75t19.5 -94.5q0 -68 -28.5 -125.5t-66.5 -107.5l-185 -242h-76zM137 466q0 -44 15 -78.5t41 -58t61.5 -35.5
t77.5 -12t77.5 13.5t61.5 38t41 58t15 74.5q0 40 -15 73.5t-41 58.5t-61.5 39t-77.5 14q-44 0 -79.5 -14t-61.5 -39t-40 -58.5t-14 -73.5z" />
    <glyph glyph-name="zero.sups" unicode="&#xf80a;" 
d="M413 617q0 -105 -49.5 -162t-137.5 -57t-138 57t-50 162t50 162.5t138 57.5t137.5 -57.5t49.5 -162.5zM352 617q0 35 -7 66.5t-22 55t-39 37t-58 13.5q-35 0 -59 -13.5t-39 -37t-22 -55t-7 -66.5t7 -66t22 -54.5t39 -37t59 -13.5q34 0 58 13.5t39 37t22 54.5t7 66z" />
    <glyph glyph-name="one.sups" unicode="&#xf80b;" 
d="M193 818q13 8 24.5 13.5t26.5 5.5q13 0 21 -4.5t13 -9.5v-414h-59v364l-119 -76q-9 3 -18.5 10.5t-9.5 18.5q0 17 18 28z" />
    <glyph glyph-name="two.sups" unicode="&#xf80c;" 
d="M304 574l-30.5 -24.5l-42 -32l-45 -32.5t-39.5 -27h232v-49h-324v49l36.5 23.5l48 31.5l49.5 34.5t41 31.5q16 13 31 27.5t27 30.5t19.5 34t7.5 38q0 31 -25 55.5t-83 24.5q-28 0 -48.5 -8.5t-33.5 -19t-20 -20.5t-8 -13q-16 2 -27.5 9t-11.5 21q0 15 13 31v-1q3 4 13 12
t27 16.5t41 14.5t55 6q84 0 126 -36.5t42 -91.5q0 -47 -22.5 -78.5t-48.5 -56.5z" />
    <glyph glyph-name="three.sups" unicode="&#xf80d;" 
d="M204 649q51 0 82 19t31 54q0 34 -29 50.5t-77 16.5q-29 0 -50.5 -6.5t-35.5 -15.5t-21.5 -18t-9.5 -13q-16 2 -26.5 9t-10.5 19q0 8 2.5 15t10.5 15q4 4 14.5 11.5t28.5 14.5t42.5 12t55.5 5q46 0 77.5 -10t51 -26t28.5 -35.5t9 -38.5q0 -37 -21 -62.5t-49 -39.5
q43 -15 60.5 -42.5t17.5 -59.5q0 -54 -45.5 -89.5t-126.5 -35.5q-29 0 -55.5 4.5t-48.5 11t-39 13.5t-27 12l23 43q20 -11 59 -23t84 -12q51 0 83 19.5t32 58.5q0 38 -34.5 55t-88.5 17h-37q-4 2 -8 9.5t-4 16.5q0 14 9 20t23 6h20z" />
    <glyph glyph-name="four.sups" unicode="&#xf80e;" 
d="M378 567q13 0 21.5 -5.5t8.5 -19.5q0 -7 -4.5 -14t-6.5 -9h-49v-110h-59v110h-144q-56 0 -78.5 15t-22.5 47q0 36 22.5 72t49.5 65q22 25 48 47t51.5 38t49 25t41.5 9q20 0 30 -5.5t12 -7.5v-257h30zM289 567v219q-27 -12 -59 -34t-59 -51q-11 -11 -23 -25t-22 -28.5
t-16 -29.5t-6 -28q0 -15 13.5 -19t33.5 -4h138z" />
    <glyph glyph-name="five.sups" unicode="&#xf80f;" 
d="M140 777l-4 -119q14 2 32 4t40 2q52 0 85.5 -11.5t53 -30t27.5 -42.5t8 -48q0 -58 -44.5 -96t-140.5 -38q-54 0 -93.5 13t-56.5 23l25 42q28 -12 57 -21t71 -9q65 0 93 22.5t28 61.5q0 41 -29 63.5t-101 22.5q-34 0 -59.5 -4t-49.5 -9l7 193q1 14 9.5 22t26.5 8h207
q13 0 21 -6t8 -19q0 -8 -4 -15t-6 -9h-211z" />
    <glyph glyph-name="six.sups" unicode="&#xf810;" 
d="M233 822q6 7 12.5 11t20.5 4q12 0 20 -5.5t11 -10.5l-119 -145q5 5 24.5 9t39.5 4q38 0 67.5 -11.5t49.5 -30.5t30.5 -45t10.5 -54q0 -32 -12.5 -59.5t-35.5 -47.5t-54.5 -31.5t-70.5 -11.5t-71 11t-54.5 30t-34.5 45t-12 56q0 40 20 77t50 74zM341 544q0 49 -31 75.5
t-83 26.5t-83 -29.5t-31 -74.5q0 -47 30 -74t84 -27q56 0 85 29t29 74z" />
    <glyph glyph-name="seven.sups" unicode="&#xf811;" 
d="M131 405l184 372h-250q-13 0 -21 5.5t-8 19.5q0 8 4 15t6 9h288q41 0 41 -29q0 -10 -2.5 -19.5t-9.5 -23.5l-173 -349h-59z" />
    <glyph glyph-name="eight.sups" unicode="&#xf812;" 
d="M225 837q87 0 130.5 -34t43.5 -83q0 -24 -14.5 -51.5t-53.5 -46.5q48 -18 64 -46t16 -55q0 -55 -46 -89t-140 -34t-140 34t-46 89q0 27 16 55t64 46q-39 19 -53.5 46.5t-14.5 51.5q0 49 43.5 83t130.5 34zM225 444q61 0 93 20.5t32 56.5q0 37 -32 57t-93 20t-93 -20
t-32 -57q0 -36 32 -56.5t93 -20.5zM225 644q59 0 88 20t29 55q0 34 -29 54.5t-88 20.5t-88 -20.5t-29 -54.5q0 -35 29 -55t88 -20z" />
    <glyph glyph-name="nine.sups" unicode="&#xf813;" 
d="M209 404h-64l127 155q-5 -5 -24.5 -9t-39.5 -4q-38 0 -67.5 11.5t-49.5 30.5t-30.5 44.5t-10.5 54.5q0 32 12.5 59.5t35.5 47.5t54.5 31.5t70.5 11.5t70.5 -11t54 -30t34.5 -45t12 -56q0 -40 -19.5 -77t-49.5 -74zM109 691q0 -49 31 -75.5t83 -26.5t83 29.5t31 74.5
q0 47 -30 74t-84 27q-56 0 -85 -29t-29 -74z" />
    <glyph glyph-name="zero.sinf" unicode="&#xf814;" 
d="M413 113q0 -105 -49.5 -162t-137.5 -57t-138 57t-50 162t50 162.5t138 57.5t137.5 -57.5t49.5 -162.5zM352 113q0 35 -7 66.5t-22 55t-39 37t-58 13.5q-35 0 -59 -13.5t-39 -37t-22 -55t-7 -66.5t7 -66t22 -54.5t39 -37t59 -13.5q34 0 58 13.5t39 37t22 54.5t7 66z" />
    <glyph glyph-name="one.sinf" unicode="&#xf815;" 
d="M193 314q13 8 24.5 13.5t26.5 5.5q13 0 21 -4.5t13 -9.5v-414h-59v364l-119 -76q-9 3 -18.5 10.5t-9.5 18.5q0 17 18 28z" />
    <glyph glyph-name="two.sinf" unicode="&#xf816;" 
d="M304 70l-30.5 -24.5l-42 -32l-45 -32.5t-39.5 -27h232v-49h-324v49l36.5 23.5l48 31.5l49.5 34.5t41 31.5q16 13 31 27.5t27 30.5t19.5 34t7.5 38q0 31 -25 55.5t-83 24.5q-28 0 -48.5 -8.5t-33.5 -19t-20 -20.5t-8 -13q-16 2 -27.5 9t-11.5 21q0 15 13 31v-1q3 4 13 12
t27 16.5t41 14.5t55 6q84 0 126 -36.5t42 -91.5q0 -47 -22.5 -78.5t-48.5 -56.5z" />
    <glyph glyph-name="three.sinf" unicode="&#xf817;" 
d="M204 145q51 0 82 19t31 54q0 34 -29 50.5t-77 16.5q-29 0 -50.5 -6.5t-35.5 -15.5t-21.5 -18t-9.5 -13q-16 2 -26.5 9t-10.5 19q0 8 2.5 15t10.5 15q4 4 14.5 11.5t28.5 14.5t42.5 12t55.5 5q46 0 77.5 -10t51 -26t28.5 -35.5t9 -38.5q0 -37 -21 -62.5t-49 -39.5
q43 -15 60.5 -42.5t17.5 -59.5q0 -54 -45.5 -89.5t-126.5 -35.5q-29 0 -55.5 4.5t-48.5 11t-39 13.5t-27 12l23 43q20 -11 59 -23t84 -12q51 0 83 19.5t32 58.5q0 38 -34.5 55t-88.5 17h-37q-4 2 -8 9.5t-4 16.5q0 14 9 20t23 6h20z" />
    <glyph glyph-name="four.sinf" unicode="&#xf818;" 
d="M378 63q13 0 21.5 -5.5t8.5 -19.5q0 -7 -4.5 -14t-6.5 -9h-49v-110h-59v110h-144q-56 0 -78.5 15t-22.5 47q0 36 22.5 72t49.5 65q22 25 48 47t51.5 38t49 25t41.5 9q20 0 30 -5.5t12 -7.5v-257h30zM289 63v219q-27 -12 -59 -34t-59 -51q-11 -11 -23 -25t-22 -28.5
t-16 -29.5t-6 -28q0 -15 13.5 -19t33.5 -4h138z" />
    <glyph glyph-name="five.sinf" unicode="&#xf819;" 
d="M140 273l-4 -119q14 2 32 4t40 2q52 0 85.5 -11.5t53 -30t27.5 -42.5t8 -48q0 -58 -44.5 -96t-140.5 -38q-54 0 -93.5 13t-56.5 23l25 42q28 -12 57 -21t71 -9q65 0 93 22.5t28 61.5q0 41 -29 63.5t-101 22.5q-34 0 -59.5 -4t-49.5 -9l7 193q1 14 9.5 22t26.5 8h207
q13 0 21 -6t8 -19q0 -8 -4 -15t-6 -9h-211z" />
    <glyph glyph-name="six.sinf" unicode="&#xf81a;" 
d="M233 318q6 7 12.5 11t20.5 4q12 0 20 -5.5t11 -10.5l-119 -145q5 5 24.5 9t39.5 4q38 0 67.5 -11.5t49.5 -30.5t30.5 -45t10.5 -54q0 -32 -12.5 -59.5t-35.5 -47.5t-54.5 -31.5t-70.5 -11.5t-71 11t-54.5 30t-34.5 45t-12 56q0 40 20 77t50 74zM341 40q0 49 -31 75.5
t-83 26.5t-83 -29.5t-31 -74.5q0 -47 30 -74t84 -27q56 0 85 29t29 74z" />
    <glyph glyph-name="seven.sinf" unicode="&#xf81b;" 
d="M131 -99l184 372h-250q-13 0 -21 5.5t-8 19.5q0 8 4 15t6 9h288q41 0 41 -29q0 -10 -2.5 -19.5t-9.5 -23.5l-173 -349h-59z" />
    <glyph glyph-name="eight.sinf" unicode="&#xf81c;" 
d="M225 333q87 0 130.5 -34t43.5 -83q0 -24 -14.5 -51.5t-53.5 -46.5q48 -18 64 -46t16 -55q0 -55 -46 -89t-140 -34t-140 34t-46 89q0 27 16 55t64 46q-39 19 -53.5 46.5t-14.5 51.5q0 49 43.5 83t130.5 34zM225 -60q61 0 93 20.5t32 56.5q0 37 -32 57t-93 20t-93 -20
t-32 -57q0 -36 32 -56.5t93 -20.5zM225 140q59 0 88 20t29 55q0 34 -29 54.5t-88 20.5t-88 -20.5t-29 -54.5q0 -35 29 -55t88 -20z" />
    <glyph glyph-name="nine.sinf" unicode="&#xf81d;" 
d="M209 -100h-64l127 155q-5 -5 -24.5 -9t-39.5 -4q-38 0 -67.5 11.5t-49.5 30.5t-30.5 44.5t-10.5 54.5q0 32 12.5 59.5t35.5 47.5t54.5 31.5t70.5 11.5t70.5 -11t54 -30t34.5 -45t12 -56q0 -40 -19.5 -77t-49.5 -74zM109 187q0 -49 31 -75.5t83 -26.5t83 29.5t31 74.5
q0 47 -30 74t-84 27q-56 0 -85 -29t-29 -74z" />
    <glyph glyph-name="hungarumlaut.cap" horiz-adv-x="500" 
d="M85 547l-29 38l82 68q14 11 28 20t32 9q13 0 22.5 -5t15.5 -11.5t9 -14t3 -12.5zM281 547l-29 38l82 68q14 11 28 20t32 9q13 0 22.5 -5t15.5 -11.5t9 -14t3 -12.5z" />
    <glyph glyph-name="cedilla.cap" horiz-adv-x="500" 
d="M248 -42q15 -1 31.5 -6.5t31 -15.5t23.5 -25t9 -36q0 -42 -27 -65.5t-73 -23.5q-19 0 -35 3t-27.5 7t-18.5 8t-8 5l20 43q2 -2 20.5 -10.5t43.5 -8.5q20 0 33 8t13 30q0 11 -5.5 18.5t-13.5 12t-17 6.5t-15 2z" />
    <glyph glyph-name="tilde.cap" horiz-adv-x="500" 
d="M318 565q-25 0 -47.5 7t-42.5 14q-14 5 -26.5 8.5t-23.5 3.5q-17 0 -24.5 -10t-12.5 -29l-54 8q3 16 9.5 33t17 30.5t26.5 22t39 8.5t41 -4.5t34 -10.5l32.5 -11.5t32.5 -5.5t24.5 9.5t12.5 28.5l55 -8q-3 -17 -9.5 -34t-17.5 -30.5t-27.5 -21.5t-38.5 -8z" />
    <glyph glyph-name="ogonek.cap" horiz-adv-x="500" 
d="M304 0q-43 -17 -66.5 -37t-23.5 -44q0 -21 15 -31.5t38 -10.5t40.5 6.5t19.5 8.5l18 -40q-8 -5 -31.5 -13t-61.5 -8q-42 0 -69.5 18t-27.5 59q0 21 8.5 36.5t20.5 26.5t26 18t25 11h69z" />
    <glyph glyph-name="ring.cap" horiz-adv-x="500" 
d="M144 636q0 21 8 39.5t22.5 33t33.5 22.5t41 8q21 0 40 -8t33.5 -22.5t22.5 -33t8 -39.5t-8 -39.5t-22.5 -32.5t-33.5 -22t-40 -8q-22 0 -41 8t-33.5 22t-22.5 32.5t-8 39.5zM194 636q0 -24 15.5 -40t39.5 -16q23 0 38.5 16t15.5 40t-15.5 40.5t-38.5 16.5
q-24 0 -39.5 -16.5t-15.5 -40.5z" />
    <glyph glyph-name="caron.cap" horiz-adv-x="500" 
d="M96 650l27 34l125 -64l128 64l27 -34l-98 -74l-27.5 -20t-28.5 -9t-28.5 9l-27.5 20z" />
    <glyph glyph-name="macron.cap" horiz-adv-x="500" 
d="M371 641q20 0 28 -8.5t8 -22.5q0 -18 -5 -30h-275q-20 0 -28 9t-8 25q0 8 2 15t4 12h274z" />
    <glyph glyph-name="dieresis.cap" horiz-adv-x="500" 
d="M152 558q-21 0 -37.5 16t-16.5 35q0 20 16.5 36t37.5 16q22 0 38 -16t16 -36q0 -19 -16 -35t-38 -16zM344 558q-22 0 -38 16t-16 35q0 20 16 36t38 16t38 -16t16 -36q0 -19 -16 -35t-38 -16z" />
    <glyph glyph-name="dotaccent.cap" horiz-adv-x="500" 
d="M249 555q-22 0 -39.5 17t-17.5 37q0 10 5 20t13 17.5t18 12.5t21 5q22 0 39 -17.5t17 -37.5t-17 -37t-39 -17z" />
    <glyph glyph-name="circumflex.cap" horiz-adv-x="500" 
d="M402 580l-27 -34l-125 64l-128 -64l-27 34l98 74l27.5 20t28.5 9t28.5 -9l27.5 -20z" />
    <glyph glyph-name="acute.cap" horiz-adv-x="500" 
d="M170 546l-26 43l118 80q13 9 21.5 11.5t19.5 2.5q14 0 24 -5t16 -12t9 -15.5t3 -15.5z" />
    <glyph glyph-name="grave.cap" horiz-adv-x="500" 
d="M143 635q0 7 3 15.5t9 15.5t16 12t24 5q11 0 19.5 -2.5t21.5 -11.5l118 -80l-26 -43z" />
    <glyph glyph-name="breve.cap" horiz-adv-x="500" 
d="M249 608q42 0 66.5 20t32.5 54l49 -5q-1 -17 -8 -39.5t-24 -42.5t-45.5 -34t-70.5 -14q-43 0 -71 14t-45.5 34t-24.5 42.5t-8 39.5l49 5q8 -34 32.5 -54t67.5 -20z" />
    <glyph glyph-name="commaaccent.cap" horiz-adv-x="500" 
d="M254 -225l-52 10l18 122q3 21 12.5 36t30.5 15q14 0 25 -5t16 -10z" />
    <glyph glyph-name="caron.alt" horiz-adv-x="500" 
d="M221 544v157q0 14 9.5 25t27.5 11q10 0 19.5 -3.5t14.5 -7.5l-16 -182h-55z" />
    <glyph glyph-name="commaaccent" horiz-adv-x="500" 
d="M254 -225l-52 10l18 122q3 21 12.5 36t30.5 15q14 0 25 -5t16 -10z" />
    <glyph glyph-name="revcommaaccent" horiz-adv-x="500" 
d="M257 746l52 -10l-18 -122q-3 -21 -12.5 -36t-30.5 -15q-14 0 -25 5t-16 10z" />
    <glyph glyph-name="uni0394" unicode="&#x394;" horiz-adv-x="699" 
d="M5 0q59 158 126 318t142 321q17 37 34 51t43 14q19 0 32.5 -6t15.5 -8q18 -30 44.5 -86.5t56 -126l60.5 -144.5l57.5 -142l46.5 -118t28 -73h-686zM346 644q-71 -143 -132.5 -288l-119.5 -295h496l-117 295t-127 288z" />
    <glyph glyph-name="Omega" unicode="&#x3a9;" horiz-adv-x="804" 
d="M402 643q-62 0 -113 -20t-88 -56t-57 -86.5t-20 -111.5q0 -107 50 -180t152 -130v-59h-262v59h166q-32 18 -64 47.5t-57.5 68.5t-42 88t-16.5 106q0 60 22 119.5t65.5 107.5t109.5 78t155 30q88 0 154.5 -30t110 -78t65.5 -107.5t22 -119.5q0 -57 -16.5 -106t-42 -88
t-58 -68.5t-63.5 -47.5h166v-59h-262v59q102 57 152 130t50 180q0 61 -20 111.5t-57 86.5t-88 56t-113 20z" />
    </font>
</defs>
</svg>
