<?xml version="1.0" standalone="no"?>
<!DOCTYPE svg PUBLIC "-//W3C//DTD SVG 1.1//EN" "http://www.w3.org/Graphics/SVG/1.1/DTD/svg11.dtd" >
<svg xmlns="http://www.w3.org/2000/svg">
<metadata></metadata>
<defs>
<font id="GillSansStdLightRegular" horiz-adv-x="1177" >
<font-face units-per-em="2048" ascent="1397" descent="-651" />
<missing-glyph horiz-adv-x="654" />
<glyph horiz-adv-x="0" />
<glyph horiz-adv-x="2048" />
<glyph unicode=" "  horiz-adv-x="654" />
<glyph unicode="&#x09;" horiz-adv-x="654" />
<glyph unicode="&#xa0;" horiz-adv-x="654" />
<glyph unicode="!" horiz-adv-x="416" d="M132 0v229h153v-229h-153zM132 1607h153l-40 -1155h-73z" />
<glyph unicode="&#x22;" horiz-adv-x="654" d="M87 1355v256h156v-256l-29 -295h-99zM412 1355v256h156v-256l-29 -295h-99z" />
<glyph unicode="#" horiz-adv-x="1553" d="M182 494v109h218l92 449h-310v110h334l99 482h108l-99 -482h448l101 482h108l-101 -482h193v-110h-214l-94 -449h308v-109h-332l-99 -478h-108l99 478h-448l-99 -478h-108l99 478h-195zM508 603h448l94 449h-450z" />
<glyph unicode="$" horiz-adv-x="1227" d="M83 167v130q140 -102 241 -146t231 -61v652q-157 47 -258.5 108.5t-152 139.5t-50.5 176q0 48 14 97t48.5 100.5t85.5 91.5t132 68.5t181 33.5v70h114v-70q131 -10 215.5 -40.5t187.5 -103.5v-132q-111 80 -198.5 116.5t-204.5 48.5v-615q236 -63 353.5 -169.5 t117.5 -270.5q0 -46 -14 -95t-48.5 -103.5t-85.5 -98t-135 -75.5t-188 -40v-255h-114v255q-141 11 -256.5 56.5t-215.5 131.5zM214 1173q0 -212 341 -306v579q-62 -2 -117.5 -18.5t-96 -43.5t-69.5 -61.5t-43.5 -72.5t-14.5 -77zM669 90q150 7 250.5 91.5t100.5 202.5 q0 115 -80 188t-271 132v-614z" />
<glyph unicode="%" horiz-adv-x="1643" d="M45 1248q0 103 51 190.5t138 138t190 50.5q102 0 189.5 -50.5t138.5 -138t51 -190.5t-51 -190.5t-138.5 -138t-189.5 -50.5q-103 0 -190 50.5t-138 138t-51 190.5zM108 -26l1296 1646h115l-1292 -1646h-119zM146 1248q0 -116 81.5 -196.5t196.5 -80.5t196.5 81t81.5 196 t-81.5 196.5t-196.5 81.5q-114 0 -196 -82.5t-82 -195.5zM841 351q0 103 50.5 190.5t138 138t190.5 50.5q102 0 189.5 -50.5t139 -138t51.5 -190.5t-51.5 -190.5t-139 -138.5t-189.5 -51q-103 0 -190.5 51t-138 138.5t-50.5 190.5zM942 351q0 -116 81.5 -197.5t196.5 -81.5 t196.5 82t81.5 197q0 75 -37 139t-101.5 101.5t-139.5 37.5q-114 0 -196 -82.5t-82 -195.5z" />
<glyph unicode="&#x26;" horiz-adv-x="1447" d="M61 360q0 154 103 280.5t295 209.5q-69 73 -111.5 131.5t-65.5 119.5t-23 124q0 97 50.5 177.5t138 127t193.5 46.5q151 0 250.5 -95t99.5 -238q0 -131 -81.5 -234t-255.5 -191l366 -380q57 85 98 169t78 193h132q-75 -236 -221 -454l327 -346h-158l-242 252 q-81 -91 -158 -148.5t-176.5 -91t-218.5 -33.5q-189 0 -304.5 104.5t-115.5 276.5zM196 377q0 -134 81.5 -208.5t228.5 -74.5q122 0 230 60t213 185l-407 425q-184 -80 -265 -170t-81 -217zM380 1232q0 -151 195 -328q147 60 224 144t77 184q0 48 -18.5 91t-50.5 73t-77 47 t-96 17q-71 0 -129.5 -29.5t-91.5 -82t-33 -116.5z" />
<glyph unicode="'" horiz-adv-x="522" d="M184 1355v256h155v-256l-29 -295h-98z" />
<glyph unicode="(" horiz-adv-x="783" d="M189 544q0 307 116.5 582t341.5 501h119q-150 -136 -255 -320.5t-154 -377t-49 -385.5t49.5 -386t155.5 -378.5t255 -321.5h-118q-226 227 -343.5 503t-117.5 583z" />
<glyph unicode=")" horiz-adv-x="783" d="M16 -542q150 136 255.5 321.5t155 378.5t49.5 385.5t-49.5 385.5t-155 377.5t-255.5 320.5h119q226 -226 343.5 -501.5t117.5 -581.5q0 -307 -117.5 -583t-343.5 -503h-119z" />
<glyph unicode="*" horiz-adv-x="1104" d="M76 1097v109l428 -42l2 14l-329 265l82 83l269 -328l11 6l-42 423h108l-39 -421l11 -8l273 328l80 -83l-330 -265l5 -12l424 38v-112l-424 48l-7 -14l332 -269l-80 -80l-273 333l-11 -3l39 -435h-108l42 435l-9 3l-271 -333l-82 80l334 269l-5 11z" />
<glyph unicode="+" horiz-adv-x="1553" d="M160 775v104h566v564h103v-564h565v-104h-565v-566h-103v566h-566z" />
<glyph unicode="," horiz-adv-x="416" d="M132 0v229h153v-180q0 -94 -39 -182t-114 -143v83q30 45 40 86.5t10 106.5h-50z" />
<glyph unicode="-" horiz-adv-x="737" d="M90 476v110h557v-110h-557z" />
<glyph unicode="." horiz-adv-x="416" d="M132 0v229h153v-229h-153z" />
<glyph unicode="/" horiz-adv-x="661" d="M7 -21l519 1648h108l-517 -1648h-110z" />
<glyph unicode="0" d="M76 775q0 261 52.5 435.5t165.5 287.5q57 57 135 93t160 36t156.5 -32.5t133.5 -91.5q223 -223 223 -707q0 -127 -18.5 -240.5t-52 -202.5t-80.5 -160t-103.5 -117.5t-121 -71.5t-133.5 -25q-112 0 -208 57.5t-164 160.5t-106.5 252t-38.5 326zM196 803q0 -209 48.5 -371 t137 -251t202.5 -89q95 0 172 58.5t125.5 158t74.5 227.5t26 271q0 106 -14.5 206.5t-46 192t-76.5 160t-111 109t-145 40.5q-114 0 -204 -91t-139.5 -253t-49.5 -368z" />
<glyph unicode="1" d="M528 0v1607h119v-1607h-119z" />
<glyph unicode="2" d="M87 0q168 161 298 310.5t213 270.5t136.5 230.5t75 194t21.5 158.5q0 150 -103 250.5t-256 100.5q-95 0 -174 -38t-192 -137v141q177 146 375 146q97 0 184 -36t150 -97t99.5 -146.5t36.5 -181.5q0 -190 -140 -446t-451 -610h747v-110h-1020z" />
<glyph unicode="3" d="M160 59v110q164 -77 356 -77q168 0 271 94t103 248q0 164 -110.5 261t-303.5 94v113q92 0 168.5 26t125 70t75.5 99.5t27 115.5q0 85 -48 154t-132.5 108.5t-187.5 39.5q-171 0 -329 -106v115q142 103 338 103q139 0 248 -51t169.5 -143.5t60.5 -210.5q0 -80 -30 -150.5 t-97 -129t-165 -88.5v-4q81 -27 142 -69t97.5 -96t54.5 -115t18 -130q0 -93 -29 -171t-77 -130.5t-111 -89.5t-129.5 -53.5t-134.5 -16.5q-95 0 -195 21.5t-175 58.5z" />
<glyph unicode="4" d="M33 620v39l808 968h45v-911h224v-96h-224v-620h-120v620h-733zM200 716h566v678h-5z" />
<glyph unicode="5" d="M97 85v137q119 -69 211.5 -99.5t179.5 -30.5q173 0 284 112t111 286q0 85 -25 154.5t-70 117.5t-106.5 79t-134 42t-154 4.5t-164.5 -30.5v750h681v-112h-568v-508q140 21 262 -3t210 -86.5t138.5 -165t50.5 -233.5q0 -88 -25 -168.5t-72 -144t-110.5 -110t-144 -72 t-168.5 -25.5q-183 0 -386 106z" />
<glyph unicode="6" d="M144 544q0 131 31.5 255t88.5 233t142 214t184 197t223 184l70 -85q-244 -169 -403.5 -380.5t-194.5 -417.5q170 125 356 125q126 0 229 -57t161.5 -157.5t58.5 -223.5q0 -130 -58.5 -233t-162.5 -161t-235 -58q-224 0 -357 153.5t-133 411.5zM263 605q-13 -118 10 -216 t73.5 -162.5t123 -99.5t157.5 -35q147 0 245.5 92t98.5 230q0 145 -100 243.5t-247 98.5q-97 0 -183.5 -36t-177.5 -115z" />
<glyph unicode="7" d="M68 1495v112h1051l-735 -1628l-103 44l663 1472h-876z" />
<glyph unicode="8" d="M132 429q0 129 61 232.5t180 174.5q-211 143 -211 362q0 86 34.5 165.5t92 137t135.5 92t162 34.5q87 0 166.5 -34t137 -91.5t91.5 -136t34 -164.5q0 -227 -204 -365q120 -72 178.5 -170.5t58.5 -227.5q0 -76 -23 -146.5t-64.5 -127t-97 -98t-125 -64.5t-145.5 -23 q-95 0 -180.5 35.5t-147 95.5t-97.5 143.5t-36 175.5zM252 434q0 -93 44 -171t123 -124.5t174 -46.5q148 0 241.5 100t93.5 253q0 91 -45 166.5t-124 119.5t-173 44q-92 0 -169 -46.5t-121 -124.5t-44 -170zM283 1201q0 -133 88.5 -223t219.5 -90q87 0 156.5 41.5t108.5 114 t39 162.5q0 130 -89.5 219.5t-219.5 89.5q-83 0 -152.5 -42t-110 -114t-40.5 -158z" />
<glyph unicode="9" d="M76 1180q0 129 57.5 231t161 159t233.5 57q229 0 361.5 -150.5t132.5 -411.5q0 -143 -37.5 -278t-118 -271t-212.5 -271t-315 -266l-65 87q148 107 257.5 211.5t178.5 203.5t108.5 190t57.5 189q-101 -64 -183 -92.5t-170 -28.5q-125 0 -227.5 58t-161 159t-58.5 224z M196 1187q0 -94 42.5 -171t119 -120.5t170.5 -43.5q201 0 369 151q12 152 -24 266t-122.5 180t-215.5 66q-93 0 -170.5 -42t-123 -117.5t-45.5 -168.5z" />
<glyph unicode=":" horiz-adv-x="416" d="M132 0v229h153v-229h-153zM132 829v229h153v-229h-153z" />
<glyph unicode=";" horiz-adv-x="416" d="M132 0v229h153v-180q0 -94 -39 -182t-114 -143v83q30 45 40 86.5t10 106.5h-50zM132 829v229h153v-229h-153z" />
<glyph unicode="&#x3c;" horiz-adv-x="1553" d="M160 775v99l1234 518v-116l-1093 -451l1093 -452v-117z" />
<glyph unicode="=" horiz-adv-x="1553" d="M160 490v103h1234v-103h-1234zM160 1058v104h1234v-104h-1234z" />
<glyph unicode="&#x3e;" horiz-adv-x="1553" d="M160 256v117l1094 452l-1094 451v116l1234 -518v-99z" />
<glyph unicode="?" horiz-adv-x="661" d="M59 1402l54 183q83 42 161 42q132 0 213 -92t81 -242q0 -69 -17 -134t-43.5 -117t-59 -101.5t-65 -94.5t-59.5 -88.5t-44 -92t-17 -95.5q0 -72 45 -148l-42 -33q-91 104 -91 216q0 55 20 114.5t50.5 109.5t65.5 109t65.5 112.5t50.5 121t20 133.5q0 92 -51 156.5 t-125 64.5q-58 0 -103.5 -30t-84.5 -94h-24zM200 0v229h153v-229h-153z" />
<glyph unicode="@" horiz-adv-x="1883" d="M-5 615q0 106 18.5 209.5t58 204.5t97.5 189.5t141 164t183.5 129.5t230 84.5t276.5 30.5q128 0 240 -26t197 -71.5t155 -109t117.5 -137t80 -156.5t47.5 -167t15 -169q0 -114 -27 -220.5t-73 -189.5t-105.5 -151.5t-125.5 -113t-133.5 -69t-129.5 -24.5q-39 0 -67 9.5 t-48.5 33.5t-23 64t8.5 101l-4 5q-177 -213 -389 -213q-113 0 -204 62.5t-142.5 173.5t-51.5 249q0 107 28.5 212t82 194t125.5 157.5t164 107.5t191 39q68 0 131 -22t120.5 -73.5t92.5 -126.5h4l38 193h144l-195 -923q-19 -73 -11.5 -105.5t53.5 -32.5q38 0 84.5 19.5 t97 56t98.5 94.5t86 129t61 166t23 198q0 67 -10 133.5t-35 141t-63.5 140.5t-99.5 127t-138.5 104.5t-186 69.5t-235.5 26q-194 0 -360.5 -68.5t-284 -189.5t-184 -292.5t-66.5 -370.5q0 -198 66 -364t184 -282.5t286.5 -181.5t369.5 -65q504 0 773 359h117 q-66 -113 -165 -200.5t-216.5 -142t-246.5 -82.5t-264 -28q-222 0 -408.5 72t-316.5 201t-203 313.5t-73 403.5zM483 501q0 -158 83.5 -262t210.5 -104q57 0 110.5 23t96.5 63.5t81.5 93.5t66 114t48 124t30.5 124t10 114q0 142 -82.5 234t-211.5 92q-63 0 -120 -22.5 t-101 -60.5t-81 -88.5t-62.5 -107t-43.5 -116t-26.5 -115.5t-8.5 -106z" />
<glyph unicode="A" horiz-adv-x="1570" d="M9 0l742 1618h69l742 -1618h-130l-254 555h-785l-254 -555h-130zM440 659h690l-346 757z" />
<glyph unicode="B" horiz-adv-x="1250" d="M189 0v1607h334q71 0 132.5 -8.5t110 -23t89 -35.5t70 -45.5t53 -53.5t38.5 -59t24.5 -63t13.5 -64t4 -64q0 -119 -56 -205t-175 -152q183 -39 277 -142.5t94 -264.5q0 -197 -146 -312t-393 -115h-470zM313 104h332q96 0 171 20t121 52t75.5 75.5t41 87t11.5 90.5 q0 36 -5.5 68t-20.5 66t-38 62t-60.5 53t-85.5 42.5t-115.5 27.5t-148.5 10h-278v-654zM313 862h172q96 0 170.5 15.5t124.5 42.5t82.5 67.5t46.5 88t14 106.5q0 321 -442 321h-168v-641z" />
<glyph unicode="C" horiz-adv-x="1593" d="M115 800q0 104 23.5 201t67 178.5t103 152.5t133.5 125t157 92.5t174.5 58t185.5 19.5q272 0 565 -134v-136q-294 155 -573 155q-148 0 -278 -54t-223 -148.5t-146.5 -226.5t-53.5 -283q0 -153 53.5 -284.5t148 -224t228 -145t288.5 -52.5q92 0 181.5 17.5t185 53.5 t205.5 94v-129q-284 -151 -569 -151q-181 0 -340 62.5t-272.5 171t-178.5 261t-65 326.5z" />
<glyph unicode="D" horiz-adv-x="1742" d="M186 0v1607h563q142 0 263 -26.5t209.5 -71.5t158.5 -108t115.5 -133.5t75 -151.5t42 -157.5t12.5 -155.5q0 -83 -13.5 -162.5t-45 -160t-77.5 -150.5t-115.5 -131t-155.5 -105t-200.5 -69t-247.5 -25h-584zM310 104h454q83 0 161.5 14.5t151 44.5t135.5 73t114 102 t87.5 128.5t56.5 155.5t20 181q0 152 -53.5 282.5t-149.5 222t-233 143.5t-298 52h-446v-1399z" />
<glyph unicode="E" horiz-adv-x="1153" d="M189 0v1607h876v-104h-752v-643h732v-104h-732v-652h770v-104h-894z" />
<glyph unicode="F" horiz-adv-x="1031" d="M184 0v1607h827v-104h-703v-611h634v-103h-634v-789h-124z" />
<glyph unicode="G" horiz-adv-x="1692" d="M117 807q0 175 65.5 327t179.5 260.5t274 170.5t344 62q136 0 258.5 -30.5t292.5 -106.5v-140q-287 162 -570 162q-150 0 -282 -54t-225.5 -147.5t-147.5 -225.5t-54 -282q0 -110 28 -212t88.5 -193t146.5 -158t210 -106.5t271 -39.5q134 0 236.5 24.5t203.5 74.5v434 h-339v103h465v-615q-282 -136 -571 -136q-184 0 -346.5 63t-278 172.5t-182.5 263.5t-67 329z" />
<glyph unicode="H" horiz-adv-x="1692" d="M186 0v1607h124v-742h1072v742h126v-1607h-126v761h-1072v-761h-124z" />
<glyph unicode="I" horiz-adv-x="488" d="M184 0v1607h124v-1607h-124z" />
<glyph unicode="J" horiz-adv-x="488" d="M-106 -346q40 -9 75 -9q88 0 145 58q79 81 79 264v1640h124v-1607q0 -131 -21.5 -219.5t-73.5 -140.5q-72 -72 -137 -93q-43 -14 -106 -14q-34 0 -73 4z" />
<glyph unicode="K" horiz-adv-x="1250" d="M179 0v1607h125v-802l770 802h155l-766 -802l840 -805h-159l-840 803v-803h-125z" />
<glyph unicode="L" horiz-adv-x="1104" d="M186 0v1607h124v-1503h795v-104h-919z" />
<glyph unicode="M" horiz-adv-x="1838" d="M182 0v1607h124l613 -747l612 747h125v-1607h-125v1425h-5l-607 -751l-609 751h-4v-1425h-124z" />
<glyph unicode="N" horiz-adv-x="1815" d="M184 0v1607h106l1218 -1405v1405h124v-1607h-104l-1220 1404v-1404h-124z" />
<glyph unicode="O" horiz-adv-x="1937" d="M120 803q0 170 66 322.5t179 262.5t270.5 174.5t332.5 64.5q177 0 335 -64.5t271.5 -174.5t179.5 -262.5t66 -322.5t-66 -323t-179.5 -262.5t-271.5 -174t-335 -64.5q-175 0 -332.5 64.5t-270.5 174t-179 262.5t-66 323zM254 802.5q0 -147.5 56 -279t152 -225.5t229 -149 t281.5 -55t281 55t227 149t150 225.5t55.5 279t-55.5 279.5t-150 226t-227 149t-281 55t-281.5 -55t-229 -149t-152 -226t-56 -279.5z" />
<glyph unicode="P" horiz-adv-x="1200" d="M184 0v1607h443q110 0 199 -22.5t149 -61t100 -92.5t58 -116t18 -133q0 -46 -7.5 -89t-26 -86.5t-46 -81t-70.5 -70t-97.5 -55.5t-128 -36t-160.5 -13h-307v-751h-124zM308 854h299q109 0 190 25t128 70.5t70 102.5t23 128q0 68 -22.5 124.5t-68.5 102t-124 71t-181 25.5 h-314v-649z" />
<glyph unicode="Q" horiz-adv-x="1937" d="M120 800q0 174 65 327.5t177.5 263t270 173t335.5 63.5q180 0 338 -63t271 -171.5t178 -261.5t65 -326q0 -60 -10 -125t-35 -140t-63 -145.5t-98.5 -139t-136.5 -123t-183 -95.5t-231 -58q116 -81 254.5 -134.5t248.5 -53.5q42 0 78 13t80 45l26 -24l-139 -162 q-418 53 -730 316q-112 9 -215 45.5t-186 93.5t-151 133.5t-114 164t-70.5 186t-24.5 198.5zM254 803q0 -145 55.5 -276.5t150.5 -226t226.5 -150.5t277.5 -56q147 0 280.5 55.5t230 150t154 226t57.5 277.5q0 147 -56 279t-151.5 226t-228 149t-279.5 55q-148 0 -281 -56 t-228.5 -151t-151.5 -226t-56 -276z" />
<glyph unicode="R" horiz-adv-x="1348" d="M186 0v1607h412q114 0 206 -23t152 -61.5t100 -92.5t57 -113t17 -126q0 -277 -305 -391q27 -14 53 -37t55.5 -60.5t49 -65t55.5 -82.5l364 -555h-146l-281 440q-37 59 -66.5 102t-58 78t-51 58.5t-48.5 41t-47.5 27t-51.5 15t-57 7t-67 1.5h-218v-770h-124zM310 874h267 q208 0 313.5 83t105.5 232q0 143 -105.5 228.5t-317.5 85.5h-263v-629z" />
<glyph unicode="S" horiz-adv-x="1104" d="M108 1201q0 116 62 214.5t168.5 155t231.5 56.5q185 0 372 -101v-137q-123 71 -200 97t-160 26q-145 0 -242 -87.5t-97 -218.5q0 -41 10.5 -77.5t25 -63t44.5 -52t53 -41.5t66 -35.5t68.5 -29.5t76.5 -29q58 -22 88.5 -34t83 -37.5t81 -47t66 -57t56.5 -74t33 -92.5 t14 -116q0 -122 -62 -223t-169.5 -159.5t-235.5 -58.5q-202 0 -412 141v146q134 -97 222 -134.5t183 -37.5q70 0 133 24.5t108 67t71.5 102t26.5 126.5q0 46 -11.5 85.5t-27 68.5t-47 57t-55.5 45t-69.5 38.5t-72 32.5t-79.5 31q-56 21 -85.5 33t-80 36.5t-77.5 44.5 t-63 53.5t-54 69.5t-31 85t-13 107z" />
<glyph unicode="T" horiz-adv-x="1348" d="M9 1503v104h1331v-104h-603v-1503h-125v1503h-603z" />
<glyph unicode="U" horiz-adv-x="1643" d="M151 702v905h125v-901q0 -103 20.5 -191.5t57.5 -155t87.5 -117.5t111.5 -83t128.5 -48.5t140.5 -16.5q70 0 136 15.5t128 46.5t113.5 82t90 119t60 161.5t21.5 204.5v884h124v-877q0 -115 -20 -214.5t-56 -175t-86 -136.5t-108.5 -102.5t-126 -69.5t-136 -40.5 t-140.5 -12.5q-91 0 -175.5 20.5t-159.5 59.5t-136.5 100.5t-106 140t-69 181t-24.5 221.5z" />
<glyph unicode="V" horiz-adv-x="1398" d="M7 1607h125l570 -1360l565 1360h125l-673 -1623h-36z" />
<glyph unicode="W" horiz-adv-x="2427" d="M-2 1607h127l532 -1333l539 1333h38l537 -1333l532 1333h128l-646 -1623h-30l-539 1356l-540 -1356h-33z" />
<glyph unicode="X" horiz-adv-x="1620" d="M0 0l728 822l-690 785h160l613 -693l609 693h160l-690 -785l730 -822h-160l-649 735l-651 -735h-160z" />
<glyph unicode="Y" horiz-adv-x="1371" d="M0 1607h151l537 -636l534 636h151l-624 -745v-862h-125v862z" />
<glyph unicode="Z" horiz-adv-x="1494" d="M21 36l1204 1467h-1149v104h1342l11 -45l-1202 -1458h1212v-104h-1406z" />
<glyph unicode="[" horiz-adv-x="710" d="M162 -519v2126h533v-112h-419v-1902h419v-112h-533z" />
<glyph unicode="\" horiz-adv-x="661" d="M29 1627h110l515 -1648h-108z" />
<glyph unicode="]" horiz-adv-x="710" d="M16 -407h420v1902h-420v112h533v-2126h-533v112z" />
<glyph unicode="^" horiz-adv-x="1553" d="M261 1011l516 616l516 -616l-75 -62l-441 530l-442 -530z" />
<glyph unicode="_" d="M-14 -177h1205v-117h-1205v117z" />
<glyph unicode="`" horiz-adv-x="783" d="M182 1594h191l245 -367h-79z" />
<glyph unicode="a" horiz-adv-x="1005" d="M85 247q0 80 35 144.5t93 107t139 72.5t166.5 44t183.5 19v134q0 216 -235 216q-82 0 -154 -30.5t-169 -103.5v116q97 61 176 87t165 26q44 0 86 -7t87.5 -26.5t79 -49.5t55.5 -80t22 -113v-659q0 -22 2.5 -33.5t8 -16t15.5 -4.5q32 0 150 94v-94l-18 -14 q-75 -57 -117 -77t-79 -20q-38 0 -53.5 26t-21.5 105q-88 -68 -167.5 -99.5t-164.5 -31.5q-119 0 -202 78.5t-83 189.5zM198 247q0 -74 60 -124.5t149 -50.5q76 0 144 31.5t151 105.5v330q-20 1 -40 1q-115 0 -213 -30q-115 -34 -183 -103.5t-68 -159.5z" />
<glyph unicode="b" horiz-adv-x="1200" d="M146 59v1548h113v-701q59 59 111 94t120.5 57t150.5 22q137 0 244.5 -65.5t167 -183.5t59.5 -268q0 -176 -73 -308t-207 -203.5t-311 -71.5q-95 0 -180.5 18.5t-194.5 61.5zM259 139q131 -49 260 -49q102 0 190 34.5t150 96t97 148t35 186.5q0 124 -46.5 222t-130 152.5 t-187.5 54.5q-99 0 -185.5 -48t-182.5 -156v-641z" />
<glyph unicode="c" horiz-adv-x="982" d="M99 513q0 164 65 293t182 201t266 72q35 0 66 -3t64.5 -9t69 -15.5t80.5 -24.5v-125q-62 26 -106 40t-83.5 20t-84.5 6q-178 0 -289 -122.5t-111 -319.5q0 -200 111 -318t298 -118q74 0 136 13t149 48v-118q-36 -12 -67 -21t-59.5 -15t-56 -10t-54.5 -6t-57 -2 q-154 0 -272 66.5t-182.5 187.5t-64.5 280z" />
<glyph unicode="d" horiz-adv-x="1200" d="M97 530q0 117 40.5 218.5t111 174t169.5 114.5t213 42q80 0 147 -18.5t166 -66.5v613h114v-1607h-114v83q-43 -30 -79.5 -49.5t-74 -31.5t-75.5 -17.5t-84 -5.5q-111 0 -210 43t-170 116t-112.5 175.5t-41.5 216.5zM216 537q0 -76 21.5 -145t61.5 -123.5t94 -95 t122.5 -62t143.5 -21.5q54 0 98 9t88 29.5t99 57.5v683q-86 55 -155.5 77t-152.5 22q-91 0 -169 -32t-133 -88.5t-86.5 -137t-31.5 -173.5z" />
<glyph unicode="e" horiz-adv-x="1127" d="M94 542q0 153 62.5 276t173.5 192t250 69q69 0 135.5 -19t127 -60t106 -99.5t72.5 -144t27 -188.5h-834q-3 -28 -3 -55q0 -39 6 -75q11 -64 38 -115.5t67.5 -95.5t90 -74t106.5 -46.5t117 -16.5q106 0 198 37t195 120v-127q-93 -73 -192.5 -107t-214.5 -34 q-113 0 -211 42t-167.5 116t-109.5 179t-40 226zM229 659h685q-60 309 -334 309q-87 0 -159.5 -36.5t-122 -107t-69.5 -165.5z" />
<glyph unicode="f" horiz-adv-x="564" d="M26 966v92h196v174q0 66 15 123.5t41 100.5t61 76t76 53.5t85 31t89 10.5q24 0 45 -2t44 -7.5t47.5 -14t56.5 -21.5v-105q-46 16 -77 24t-57.5 12t-56.5 4q-132 0 -194 -79.5t-62 -248.5v-131h204v-92h-204v-966h-113v966h-196z" />
<glyph unicode="g" horiz-adv-x="1005" d="M43 -259q0 101 79.5 167t228.5 90v4q-172 41 -172 151q0 34 15 61t45.5 47t65 34.5t86.5 29.5v5q-76 22 -133 62t-88.5 89t-46.5 99t-15 101q0 56 14 107.5t47 101.5t83.5 86.5t129 59t176.5 22.5h424v-92h-240q77 -72 111.5 -137t34.5 -144q0 -75 -20.5 -135 t-55.5 -98.5t-80 -67t-94.5 -45.5t-99.5 -30.5t-95 -25.5t-79.5 -26.5t-55 -38t-20.5 -56.5q0 -37 23.5 -59.5t63.5 -32t92 -14t109.5 -7.5t114.5 -9t109 -23.5t92 -46t64 -80.5t24 -123q0 -145 -125.5 -227t-348.5 -82q-118 0 -209 23t-145.5 62.5t-81.5 89.5t-27 108z M151 -252q0 -94 93.5 -144.5t268.5 -50.5q163 0 261 55.5t98 148.5q0 54 -25 91.5t-73 58t-105.5 29t-133.5 8.5q-33 0 -63.5 -1.5t-70.5 -6.5t-73.5 -13.5t-67 -23.5t-57 -34.5t-38 -49.5t-14.5 -67zM216 688q0 -120 81 -204t200 -84q116 0 199.5 83.5t83.5 199.5 t-83.5 198.5t-202.5 82.5q-117 0 -197.5 -80.5t-80.5 -195.5z" />
<glyph unicode="h" horiz-adv-x="1153" d="M146 0v1607h113v-733h4q38 56 75 94.5t79.5 63.5t89.5 36t105 11q85 0 157 -28t124.5 -81.5t82 -136t29.5 -186.5v-647h-113v603q0 365 -287 365q-112 0 -191.5 -54t-154.5 -172v-742h-113z" />
<glyph unicode="i" horiz-adv-x="442" d="M164 0v1058h114v-1058h-114zM164 1413v194h114v-194h-114z" />
<glyph unicode="j" horiz-adv-x="442" d="M-66 -445q38 1 68 8.5t56 23t44.5 40.5t31.5 61t19.5 85.5t6.5 111.5v1173h114v-1175q0 -109 -25.5 -192.5t-69.5 -133.5t-99 -75q-54 -24 -115 -24h-5zM160 1413v194h114v-194h-114z" />
<glyph unicode="k" horiz-adv-x="1005" d="M139 0v1607h113v-1607h-113zM268 555l584 503h148l-578 -503l668 -555h-155z" />
<glyph unicode="l" horiz-adv-x="442" d="M164 0v1607h114v-1607h-114z" />
<glyph unicode="m" horiz-adv-x="1815" d="M141 0v1058h113v-186h5q70 110 149 158.5t188 48.5q123 0 206.5 -62.5t134.5 -191.5q54 89 109 144.5t119 82.5t140 27q167 0 267 -117.5t100 -311.5v-650h-113v600q0 108 -29.5 189.5t-92.5 130t-154 48.5q-96 0 -167.5 -56t-151.5 -191v-721h-114v603q0 94 -22 166 t-61 114.5t-88 63.5t-106 21q-98 0 -171.5 -52t-147.5 -174v-742h-113z" />
<glyph unicode="n" horiz-adv-x="1153" d="M146 0v1058h113v-184h4q38 56 75 94.5t79.5 63.5t89.5 36t105 11q85 0 156.5 -28t124.5 -81.5t82.5 -136.5t29.5 -188v-645h-113v603q0 178 -73.5 271.5t-213.5 93.5q-112 0 -193 -54.5t-153 -171.5v-742h-113z" />
<glyph unicode="o" horiz-adv-x="1276" d="M99 528q0 93 26 178t75 152t115 117t149 77t174 27q114 0 214 -42t171 -115t111.5 -175.5t40.5 -218.5t-40.5 -217.5t-111.5 -174.5t-171 -115t-214 -42t-214 42t-171.5 115t-112.5 174.5t-41 217.5zM218 528q0 -124 54.5 -224.5t151 -157t214.5 -56.5t213.5 56.5 t150 157t54.5 224.5t-54.5 225t-150 158t-213.5 57t-214.5 -56.5t-151 -157.5t-54.5 -226z" />
<glyph unicode="p" horiz-adv-x="1200" d="M148 -542v1600h113v-60q60 30 111.5 47.5t101.5 25.5t106 8q111 0 208 -41.5t166 -113.5t108.5 -173.5t39.5 -218.5q0 -114 -41 -216.5t-111 -176.5t-168 -117t-207 -43q-81 0 -153.5 18t-160.5 62v-601h-113zM261 169q81 -44 146.5 -61.5t145.5 -17.5q191 0 308 119.5 t117 313.5q0 128 -56.5 229.5t-156.5 158.5t-226 57q-71 0 -133.5 -17t-144.5 -61v-721z" />
<glyph unicode="q" horiz-adv-x="1200" d="M87 508q0 97 25.5 185t72.5 158t111 121t144.5 79t169.5 28q57 0 109 -9.5t104.5 -30t116.5 -55.5v74h112v-1600h-112v603q-41 -18 -77.5 -32t-70 -23.5t-66.5 -15t-65 -8.5t-68 -3q-146 0 -261.5 67t-180 188t-64.5 274zM207 499q0 -189 112.5 -302.5t298.5 -113.5 q87 0 158.5 20.5t163.5 71.5v699q-88 53 -156 73.5t-150 20.5q-120 0 -218 -61t-153.5 -168.5t-55.5 -239.5z" />
<glyph unicode="r" horiz-adv-x="783" d="M148 0v1058h113v-278h5q93 147 187.5 223t182.5 76q55 0 110.5 -28.5t132.5 -97.5l-66 -105q-75 68 -121.5 94t-91.5 26q-77 0 -165 -78.5t-174 -224.5v-665h-113z" />
<glyph unicode="s" horiz-adv-x="832" d="M97 76v110q70 -35 126 -56t105.5 -30.5t100.5 -9.5q98 0 160.5 51.5t62.5 132.5q0 40 -18.5 72.5t-50.5 55t-73 42t-86.5 37t-91 36.5t-86.5 44t-73 55t-50.5 74.5t-18.5 98.5q0 60 26.5 113.5t72 92t109 61.5t133.5 23q68 0 135 -22t148 -68v-122q-89 59 -154.5 83.5 t-135.5 24.5q-47 0 -89 -14t-72 -37.5t-47.5 -57t-17.5 -70.5q0 -41 18.5 -73t50.5 -54t73 -40.5t86.5 -35.5t91.5 -35.5t87 -44t73 -57t50.5 -79t18.5 -106.5q0 -81 -45.5 -148t-125.5 -105.5t-176 -38.5q-158 0 -317 97z" />
<glyph unicode="t" horiz-adv-x="710" d="M-45 966v92h285v252l77 99h36v-351h297v-92h-297v-629q0 -48 0.5 -72t3.5 -56t9.5 -46.5t17 -32t28 -24.5t41.5 -11.5t58 -4.5q47 0 84.5 10t108.5 41v-108q-30 -16 -97 -35q-80 -19 -122 -19q-46 0 -88 13.5t-78 39.5t-57.5 70.5t-21.5 102.5v761h-285z" />
<glyph unicode="u" horiz-adv-x="1153" d="M146 402v656h113v-653q0 -63 15 -115t42 -88.5t63.5 -62t79 -37.5t90.5 -12q61 0 110 14t90 45t73.5 69.5t69.5 96.5v743h113v-1058h-113v175h-4q-75 -106 -152 -151t-197 -45q-57 0 -110.5 13.5t-105.5 45.5t-91 79t-62.5 120.5t-23.5 164.5z" />
<glyph unicode="v" horiz-adv-x="1005" d="M0 1058h115l398 -891l382 891h110l-454 -1079h-70z" />
<glyph unicode="w" horiz-adv-x="1666" d="M0 1058h110l362 -862l331 862h62l322 -862l368 862h113l-457 -1079h-54l-326 859l-327 -859h-52z" />
<glyph unicode="x" horiz-adv-x="1127" d="M14 0l483 542l-483 516h146l415 -438l414 438h146l-485 -516l485 -542h-146l-414 463l-415 -463h-146z" />
<glyph unicode="y" horiz-adv-x="982" d="M14 1058h118l384 -741l365 741h115l-791 -1600h-115l369 747z" />
<glyph unicode="z" horiz-adv-x="932" d="M23 36l700 917h-655v105h829l9 -36l-694 -918h694v-104h-870z" />
<glyph unicode="{" horiz-adv-x="783" d="M115 457v150q62 2 103.5 23t68 68t38.5 118.5t12 177.5v228q0 105 21 180t63.5 122t105 67t147.5 16v-128q-62 0 -98.5 -9.5t-62.5 -38t-36 -78t-10 -131.5v-228q0 -192 -54.5 -304t-174.5 -158q120 -45 174.5 -157.5t54.5 -304.5v-228q0 -81 10 -130.5t36 -78t62.5 -38 t98.5 -9.5v-128q-170 -8 -253.5 84.5t-83.5 299.5v228q0 209 -50 296t-172 91z" />
<glyph unicode="|" horiz-adv-x="522" d="M202 -589v2355h113v-2355h-113z" />
<glyph unicode="}" horiz-adv-x="783" d="M110 -414q62 0 98.5 9.5t63 38t36 78t9.5 130.5v228q0 192 54.5 304.5t174.5 157.5q-60 23 -103.5 62.5t-71.5 97t-41 132t-13 170.5v228q0 82 -9.5 131.5t-36 78t-63 38t-98.5 9.5v128q114 5 188 -32.5t111.5 -125t37.5 -227.5v-228q0 -71 5.5 -125.5t16.5 -97.5 t28.5 -73t42.5 -50t56.5 -30t72.5 -11v-150q-82 -3 -130 -41.5t-70 -121.5t-22 -224v-228q0 -207 -83 -299.5t-254 -84.5v128z" />
<glyph unicode="~" horiz-adv-x="1553" d="M158 685v128q190 138 330 138q58 0 143 -29t157 -63.5t151.5 -63.5t127.5 -29q65 0 133 32.5t194 122.5v-127q-104 -75 -178 -107.5t-144 -32.5q-43 0 -95.5 14t-100.5 34.5t-102.5 45t-101 45t-95.5 34.5t-87 14q-73 0 -139 -30.5t-193 -125.5z" />
<glyph unicode="&#xa1;" horiz-adv-x="416" d="M132 -521l40 1155h73l40 -1155h-153zM132 857v229h153v-229h-153z" />
<glyph unicode="&#xa2;" horiz-adv-x="982" d="M99 506q0 100 21.5 186t60.5 151t94.5 114t123.5 77.5t147 39t165 0.5l154 429h101l-159 -447q48 -13 81 -29v-125q-73 35 -118 47l-294 -836q67 -23 153 -23q29 0 55 1.5t54 6t55 12t57 18t62 25.5v-110q-214 -101 -474 -43l-160 -445h-103l173 488q-127 72 -188 193 t-61 270zM218 523q0 -119 40 -206t128 -159l292 810h-56q-85 0 -158.5 -29t-128 -84t-86 -140.5t-31.5 -191.5z" />
<glyph unicode="&#xa3;" horiz-adv-x="1299" d="M222 -12l198 735h-198v111h228q52 190 115 334t140.5 248t172 157.5t203.5 53.5q55 0 113 -20l56 -112q-80 20 -126 20q-85 0 -158 -34t-130 -91.5t-107 -145.5t-88.5 -186.5t-74.5 -223.5h249v-111h-283l-157 -598q175 16 245 16q85 0 223 -24q18 -2 49 -8t45 -8 q67 -9 97 -9q60 0 117 14q61 20 116 49v-124q-54 -26 -108 -40q-63 -12 -118 -12q-23 0 -52 3t-45.5 5.5t-56.5 9t-51 8.5q-147 24 -245 24q-87 0 -167 -8.5t-202 -32.5z" />
<glyph unicode="&#xa4;" horiz-adv-x="1308" d="M110 337l149 148q-56 75 -84.5 151.5t-28.5 168.5q0 174 113 319l-149 148l76 75l149 -149q149 114 317 114q172 0 321 -114l148 149l75 -75l-148 -148q114 -145 114 -319t-114 -320l148 -148l-75 -76l-148 148q-143 -112 -321 -112t-317 112l-149 -148zM259 805 q0 -108 52 -199t143 -144t198.5 -53t198.5 53t144 144.5t53 198.5t-53 198t-144 143t-198.5 52t-198.5 -52t-143 -142.5t-52 -198.5z" />
<glyph unicode="&#xa5;" horiz-adv-x="1308" d="M5 1686h170l486 -834l481 834h163l-494 -834h421v-110h-499v-180h499v-110h-499v-452h-151v452h-504v110h504v180h-504v110h426z" />
<glyph unicode="&#xa6;" horiz-adv-x="522" d="M202 412h113v-824h-113v824zM202 766v823h113v-823h-113z" />
<glyph unicode="&#xa7;" horiz-adv-x="932" d="M61 657q0 94 46 181.5t152 193.5q-67 85 -92.5 147.5t-25.5 137.5q0 91 42.5 161.5t118.5 109.5t174 39q134 0 218.5 -72.5t99.5 -186.5h-120q-10 50 -37.5 84.5t-69.5 53t-95 18.5q-59 0 -109 -27t-79.5 -73t-29.5 -100q0 -47 17.5 -93.5t47 -86.5t69 -82.5t84 -80.5 t91.5 -80t91.5 -82t84 -86t69 -91.5t47 -100t17.5 -110.5q0 -96 -44 -181t-154 -201q42 -49 67.5 -93.5t36.5 -89t11 -97.5q0 -140 -92.5 -225.5t-242.5 -85.5q-125 0 -212 68t-101 186h118q15 -74 66 -112t134 -38q96 0 159 58.5t63 148.5q0 30 -9 61t-21 56.5t-36.5 57 t-43 53t-54 54.5t-56.5 51.5t-62 53.5q-47 41 -71 62.5t-66.5 61.5t-65.5 67.5t-52.5 68.5t-45 76t-26.5 78t-11 87zM182 659q0 -44 12 -84.5t36 -77.5t52.5 -70.5t69 -71.5t77.5 -70.5t86.5 -77t87.5 -82.5q161 151 161 297q0 47 -14 88.5t-43.5 84.5t-79.5 93 q-40 40 -85 82t-74 68t-73.5 65.5t-62.5 55.5q-82 -80 -116 -149t-34 -151z" />
<glyph unicode="&#xa8;" horiz-adv-x="783" d="M80 1394q0 42 31 73t73 31q28 0 51.5 -14t38 -38t14.5 -52q0 -42 -31 -73t-73 -31t-73 31t-31 73zM497 1394q0 42 30.5 73t72.5 31q28 0 52 -14t38 -38t14 -52q0 -42 -30.5 -73t-73 -31t-73 31t-30.5 73z" />
<glyph unicode="&#xa9;" horiz-adv-x="1883" d="M63 836.5q0 119.5 31.5 233t88.5 210t138 177.5t177.5 138t210 88.5t233 31.5t233.5 -31.5t210.5 -88.5t177.5 -138t137.5 -177.5t88 -210t31.5 -233t-31.5 -233.5t-88 -210.5t-137.5 -177.5t-177.5 -137.5t-210.5 -88.5t-233.5 -32t-233 32t-210 88.5t-177.5 137.5 t-138 177.5t-88.5 210.5t-31.5 233.5zM175 836q0 -156 60.5 -298.5t163 -245.5t245 -163.5t298.5 -60.5t298.5 60.5t245 163.5t163.5 245.5t61 298.5t-61 298.5t-163.5 245.5t-245 163.5t-298.5 60.5q-105 0 -204.5 -27.5t-183.5 -77t-154.5 -120.5t-120 -155t-77 -183.5 t-27.5 -204.5zM506 838q0 98 31 184.5t87 152t141.5 104t187.5 38.5q124 0 214 -62.5t157 -196.5l-111 -29q-83 191 -262 191q-54 0 -103 -16t-89.5 -47t-70 -74.5t-45.5 -101.5t-16 -124q0 -188 85 -303.5t228 -115.5q113 0 182 62t107 174l104 -38q-35 -132 -139 -216.5 t-248 -84.5q-126 0 -227 65.5t-157 180.5t-56 257z" />
<glyph unicode="&#xaa;" horiz-adv-x="661" d="M49 1130q0 102 104 163.5t292 70.5v72q0 119 -137 119q-36 0 -66.5 -8.5t-64.5 -26.5t-90 -55v92q45 26 83.5 41.5t74.5 22t76 6.5q73 0 124 -24t75 -64.5t24 -92.5v-349q0 -23 7 -35t15 -12q4 0 17.5 9.5t37 28t38.5 29.5v-85q-109 -68 -151 -68q-19 0 -31.5 6.5 t-20 21.5t-11.5 40q-101 -68 -198 -68q-83 0 -140.5 48t-57.5 118zM151 1128q0 -42 33.5 -68t86.5 -26q82 0 174 76v185q-92 0 -158.5 -20.5t-101 -58t-34.5 -88.5z" />
<glyph unicode="&#xab;" d="M45 544l445 528h141l-442 -528l442 -528h-141zM546 544l445 528h142l-443 -528l443 -528h-142z" />
<glyph unicode="&#xac;" horiz-adv-x="1553" d="M160 1034v103h1234v-668h-104v565h-1130z" />
<glyph unicode="&#xad;" horiz-adv-x="737" d="M90 476v110h557v-110h-557z" />
<glyph unicode="&#xae;" horiz-adv-x="1883" d="M63 836.5q0 119.5 31.5 233t88.5 210t138 177.5t177.5 138t210 88.5t233 31.5t233.5 -31.5t210.5 -88.5t177.5 -138t137.5 -177.5t88 -210t31.5 -233t-31.5 -233.5t-88 -210.5t-137.5 -177.5t-177.5 -137.5t-210.5 -88.5t-233.5 -32t-233 32t-210 88.5t-177.5 137.5 t-138 177.5t-88.5 210.5t-31.5 233.5zM175 836q0 -156 60.5 -298.5t163 -245.5t245 -163.5t298.5 -60.5t298.5 60.5t245 163.5t163.5 245.5t61 298.5t-61 298.5t-163.5 245.5t-245 163.5t-298.5 60.5q-105 0 -204.5 -27.5t-183.5 -77t-154.5 -120.5t-120 -155t-77 -183.5 t-27.5 -204.5zM589 365v923h382q146 0 229 -65t83 -180q0 -42 -12 -80t-39.5 -74t-78.5 -63t-121 -39q28 -18 42.5 -27t35 -25t31.5 -28.5t29 -36t30.5 -47.5t32.5 -64t39.5 -85t46.5 -109h-139q-44 96 -74 156t-63 109t-58.5 74t-62.5 41.5t-73.5 20.5t-92.5 4h-54v-405 h-113zM702 862h152q161 0 228 39t67 133q0 91 -61 126.5t-216 35.5h-170v-334z" />
<glyph unicode="&#xaf;" horiz-adv-x="783" d="M78 1347v120h628v-120h-628z" />
<glyph unicode="&#xb0;" horiz-adv-x="941" d="M144 1300q0 89 43.5 164.5t119 119t165.5 43.5q66 0 127 -25.5t105 -69.5t70 -105t26 -127.5t-26 -127.5t-70 -105t-105 -70t-127 -26q-54 0 -104 16.5t-90.5 47t-70.5 71t-46.5 90.5t-16.5 104zM238 1297q0 -97 68 -164.5t165.5 -67.5t166 67.5t68.5 164.5 q0 64 -31.5 118.5t-85.5 86t-117 31.5q-98 0 -166 -69t-68 -167z" />
<glyph unicode="&#xb1;" horiz-adv-x="1553" d="M160 0v104h1234v-104h-1234zM160 775v104h566v564h103v-564h565v-104h-565v-566h-103v566h-566z" />
<glyph unicode="&#xb2;" horiz-adv-x="737" d="M70 782q210 176 329.5 336.5t119.5 268.5q0 72 -58.5 121t-143.5 49q-57 0 -101 -20.5t-126 -85.5v97q115 79 235 79q124 0 208.5 -70t84.5 -172q0 -43 -15.5 -90.5t-52 -111t-105.5 -146.5t-169 -183h432v-72h-638z" />
<glyph unicode="&#xb3;" horiz-adv-x="737" d="M104 815v75q108 -49 224 -49q95 0 152 46t57 124q0 41 -15.5 73t-40 50.5t-58.5 30t-66 15.5t-67 4v74q109 0 172.5 41t63.5 110q0 64 -57.5 106t-145.5 42q-54 0 -101.5 -16t-108.5 -53v81q87 58 212 58q131 0 214 -60t83 -154q0 -65 -38.5 -113t-114.5 -73v-5 q165 -48 165 -209q0 -104 -85 -173.5t-212 -69.5q-128 0 -233 45z" />
<glyph unicode="&#xb4;" horiz-adv-x="783" d="M360 1227l245 367h191l-358 -367h-78z" />
<glyph unicode="&#xb5;" horiz-adv-x="1308" d="M238 -416v1474h113v-550q0 -101 16.5 -177.5t52.5 -133t96.5 -85.5t144.5 -29q312 0 312 393v582h113v-1058h-113v117q-68 -74 -140 -106t-174 -32q-99 0 -168 31t-140 107v-533h-113z" />
<glyph unicode="&#xb6;" horiz-adv-x="1530" d="M115 1204q0 220 150.5 351t401.5 131h796v-160h-227v-1995h-146v1995h-306v-1995h-150v1188q-115 -5 -212 29.5t-164.5 99.5t-105 157t-37.5 199z" />
<glyph unicode="&#xb7;" horiz-adv-x="661" d="M205 815q0 35 17 64t46.5 46t63.5 17q53 0 90 -37t37 -89.5t-37 -90t-89.5 -37.5t-90 37.5t-37.5 89.5z" />
<glyph unicode="&#xb8;" horiz-adv-x="783" d="M250 -400l11 75q51 -6 93.5 -4t73 10.5t47.5 28.5t17 52q0 89 -146 92l50 164h71l-29 -101q49 -8 82.5 -30t48.5 -52t15 -66q0 -55 -28 -96t-74.5 -60.5t-107 -24.5t-124.5 12z" />
<glyph unicode="&#xb9;" horiz-adv-x="737" d="M317 782v836h99v-836h-99z" />
<glyph unicode="&#xba;" horiz-adv-x="832" d="M59 1295q0 145 100.5 238.5t256.5 93.5q100 0 182.5 -44.5t129.5 -120.5t47 -167q0 -150 -99 -240.5t-260 -90.5q-154 0 -255.5 93.5t-101.5 237.5zM164 1295q0 -114 70 -184t182 -70q74 0 131.5 32.5t89.5 90.5t32 131q0 108 -72 181.5t-181 73.5t-180.5 -72t-71.5 -183 z" />
<glyph unicode="&#xbb;" d="M45 16l443 528l-443 528h141l445 -528l-445 -528h-141zM546 16l443 528l-443 528h142l445 -528l-445 -528h-142z" />
<glyph unicode="&#xbc;" horiz-adv-x="1960" d="M146 -63l1239 1690h92l-1239 -1690h-92zM332 782v836h99v-836h-99zM971 315v31l483 502h47v-466h131v-67h-131v-315h-99v315h-431zM1105 382h297v308z" />
<glyph unicode="&#xbd;" horiz-adv-x="1960" d="M146 -63l1239 1690h92l-1239 -1690h-92zM332 782v836h99v-836h-99zM1117 0q209 175 328 336t119 269q0 72 -57.5 121t-142.5 49q-58 0 -102.5 -20.5t-126.5 -85.5v97q115 79 236 79q123 0 207.5 -70t84.5 -172q0 -43 -15 -90.5t-51.5 -111t-106 -146.5t-169.5 -183h434 v-72h-638z" />
<glyph unicode="&#xbe;" horiz-adv-x="1960" d="M158 815v75q108 -49 224 -49q95 0 152 46t57 124q0 41 -15.5 73t-40 50.5t-58.5 30t-66 15.5t-67 4v74q109 0 172.5 41t63.5 110q0 64 -57.5 106t-145.5 42q-54 0 -101.5 -16t-108.5 -53v81q87 58 213 58q130 0 213 -60t83 -154q0 -65 -38.5 -113t-114.5 -73v-5 q165 -48 165 -209q0 -104 -85 -173.5t-212 -69.5q-128 0 -233 45zM268 -63l1240 1690h92l-1240 -1690h-92zM1092 315v31l484 502h47v-466h132v-67h-132v-315h-99v315h-432zM1227 382h297v308z" />
<glyph unicode="&#xbf;" horiz-adv-x="661" d="M52 -207q0 68 16.5 133t43.5 117.5t59.5 102t64.5 95t59 89t43.5 91.5t16.5 95q0 73 -45 149l43 32q92 -105 92 -216q0 -56 -20 -115.5t-50.5 -109t-66 -108.5t-65.5 -112.5t-50.5 -120.5t-20.5 -133q0 -92 51.5 -157t124.5 -65q59 0 104.5 30.5t84.5 94.5h23l-54 -184 q-46 -23 -82 -33t-78 -10q-132 0 -213 92.5t-81 242.5zM266 857v229h154v-229h-154z" />
<glyph unicode="&#xc0;" horiz-adv-x="1570" d="M9 0l742 1618h69l742 -1618h-130l-254 555h-785l-254 -555h-130zM440 659h690l-346 757zM575 2108h191l245 -368h-78z" />
<glyph unicode="&#xc1;" horiz-adv-x="1570" d="M9 0l742 1618h69l742 -1618h-130l-254 555h-785l-254 -555h-130zM440 659h690l-346 757zM753 1740l245 368h191l-358 -368h-78z" />
<glyph unicode="&#xc2;" horiz-adv-x="1570" d="M9 0l742 1618h69l742 -1618h-130l-254 555h-785l-254 -555h-130zM440 659h690l-346 757zM461 1719l255 387h144l250 -387h-90l-233 257l-236 -257h-90z" />
<glyph unicode="&#xc3;" horiz-adv-x="1570" d="M9 0l742 1618h69l742 -1618h-130l-254 555h-785l-254 -555h-130zM400 1804q0 45 11.5 84t34 71t60.5 50t87 18q79 0 207 -56q51 -22 71 -30t57.5 -18.5t65.5 -10.5q47 0 72 27t33 88h72q6 -99 -54 -164q-54 -61 -139 -61q-30 0 -70 10t-64.5 19.5t-75.5 29.5 q-137 56 -193 56q-85 0 -99 -113h-76zM440 659h690l-346 757z" />
<glyph unicode="&#xc4;" horiz-adv-x="1570" d="M9 0l742 1618h69l742 -1618h-130l-254 555h-785l-254 -555h-130zM440 659h690l-346 757zM474 1908q0 42 30.5 72.5t73 30.5t73 -30.5t30.5 -72.5t-30.5 -73t-73 -31t-73 31t-30.5 73zM890 1908q0 42 30.5 72.5t73 30.5t73 -30.5t30.5 -72.5q0 -28 -14 -52t-38 -38 t-51 -14q-43 0 -73.5 31t-30.5 73z" />
<glyph unicode="&#xc5;" horiz-adv-x="1570" d="M9 0l742 1618h69l742 -1618h-130l-254 555h-785l-254 -555h-130zM440 659h690l-346 757zM582 1910q0 84 60 143.5t145 59.5q84 0 143 -59t59 -144t-59 -145t-143 -60q-56 0 -103 27.5t-74.5 75t-27.5 102.5zM645 1910q0 -58 41.5 -99.5t100.5 -41.5q38 0 70 19t50.5 51.5 t18.5 70.5q0 59 -40.5 99t-98.5 40q-29 0 -55.5 -10.5t-45 -29t-30 -44.5t-11.5 -55z" />
<glyph unicode="&#xc6;" horiz-adv-x="2036" d="M-33 0l1004 1607h955v-104h-755v-641h739v-104h-739v-654h777v-104h-903v758h-470l-471 -758h-137zM643 862h402v657h-4z" />
<glyph unicode="&#xc7;" horiz-adv-x="1593" d="M115 800q0 104 23.5 201t67 178.5t103 152.5t133.5 125t157 92.5t174.5 58t185.5 19.5q272 0 565 -134v-136q-294 155 -573 155q-148 0 -278 -54t-223 -148.5t-146.5 -226.5t-53.5 -283q0 -153 53.5 -284.5t148 -224t228 -145t288.5 -52.5q92 0 181.5 17.5t185 53.5 t205.5 94v-129q-284 -151 -569 -151q-38 0 -54 5l-20 -67q73 -11 109.5 -51.5t36.5 -96.5q0 -55 -28 -96t-74.5 -60.5t-107 -24.5t-125.5 12l13 75q51 -6 93.5 -4t73 10.5t47 28.5t16.5 52q0 89 -146 92l40 134q-158 21 -293.5 90.5t-231.5 175t-150.5 247t-54.5 299.5z" />
<glyph unicode="&#xc8;" horiz-adv-x="1153" d="M189 0v1607h876v-104h-752v-643h732v-104h-732v-652h770v-104h-894zM367 2108h191l245 -368h-77z" />
<glyph unicode="&#xc9;" horiz-adv-x="1153" d="M189 0v1607h876v-104h-752v-643h732v-104h-732v-652h770v-104h-894zM546 1740l245 368h191l-358 -368h-78z" />
<glyph unicode="&#xca;" horiz-adv-x="1153" d="M189 0v1607h876v-104h-752v-643h732v-104h-732v-652h770v-104h-894zM254 1719l254 387h144l250 -387h-89l-233 257l-236 -257h-90z" />
<glyph unicode="&#xcb;" horiz-adv-x="1153" d="M189 0v1607h876v-104h-752v-643h732v-104h-732v-652h770v-104h-894zM266 1908q0 27 14 51t38.5 38t51.5 14q43 0 73.5 -30.5t30.5 -72.5t-30.5 -73t-73 -31t-73.5 31t-31 73zM683 1908q0 42 30.5 72.5t73 30.5t73 -30.5t30.5 -72.5t-30.5 -73t-73 -31t-73 31t-30.5 73z " />
<glyph unicode="&#xcc;" horiz-adv-x="488" d="M-61 2108h191l245 -368h-78zM184 0v1607h124v-1607h-124z" />
<glyph unicode="&#xcd;" horiz-adv-x="488" d="M184 0v1607h124v-1607h-124zM214 1740l245 368h191l-358 -368h-78z" />
<glyph unicode="&#xce;" horiz-adv-x="488" d="M-78 1719l255 387h144l249 -387h-89l-234 257l-235 -257h-90zM184 0v1607h124v-1607h-124z" />
<glyph unicode="&#xcf;" horiz-adv-x="488" d="M-66 1908q0 42 31 72.5t73 30.5q28 0 51.5 -14t37.5 -37.5t14 -51.5q0 -42 -30.5 -73t-72.5 -31t-73 31t-31 73zM184 0v1607h124v-1607h-124zM351 1908q0 42 30.5 72.5t72.5 30.5q28 0 52 -14t38 -37.5t14 -51.5q0 -42 -30.5 -73t-73 -31t-73 31t-30.5 73z" />
<glyph unicode="&#xd0;" horiz-adv-x="1742" d="M-54 753v104h240v750h563q142 0 263 -26.5t209.5 -71.5t158.5 -108t115.5 -133.5t75 -151.5t42 -157.5t12.5 -155.5q0 -83 -13.5 -162.5t-45 -160t-77.5 -150.5t-115.5 -131t-155.5 -105t-200.5 -69t-247.5 -25h-584v753h-240zM310 104h454q83 0 161.5 14.5t151 44.5 t135.5 73t114 102t87.5 128.5t56.5 155.5t20 181q0 152 -53.5 282.5t-149.5 222t-233 143.5t-298 52h-446v-646h521v-104h-521v-649z" />
<glyph unicode="&#xd1;" horiz-adv-x="1815" d="M184 0v1607h106l1218 -1405v1405h124v-1607h-104l-1220 1404v-1404h-124zM523 1804q0 45 11.5 84t34 71t60.5 50t87 18q79 0 207 -56q4 -2 12 -5q32 -13 49 -20t43.5 -16.5t48 -13.5t41.5 -4q47 0 72 27t33 88h71q6 -99 -54 -164q-54 -61 -140 -61q-29 0 -69 10 t-64.5 19.5t-75.5 29.5q-137 56 -193 56q-85 0 -99 -113h-75z" />
<glyph unicode="&#xd2;" horiz-adv-x="1937" d="M120 803q0 170 66 322.5t179 262.5t270.5 174.5t332.5 64.5q177 0 335 -64.5t271.5 -174.5t179.5 -262.5t66 -322.5t-66 -323t-179.5 -262.5t-271.5 -174t-335 -64.5q-175 0 -332.5 64.5t-270.5 174t-179 262.5t-66 323zM254 802.5q0 -147.5 56 -279t152 -225.5t229 -149 t281.5 -55t281 55t227 149t150 225.5t55.5 279t-55.5 279.5t-150 226t-227 149t-281 55t-281.5 -55t-229 -149t-152 -226t-56 -279.5zM758 2108h191l245 -368h-77z" />
<glyph unicode="&#xd3;" horiz-adv-x="1937" d="M120 803q0 170 66 322.5t179 262.5t270.5 174.5t332.5 64.5q177 0 335 -64.5t271.5 -174.5t179.5 -262.5t66 -322.5t-66 -323t-179.5 -262.5t-271.5 -174t-335 -64.5q-175 0 -332.5 64.5t-270.5 174t-179 262.5t-66 323zM254 802.5q0 -147.5 56 -279t152 -225.5t229 -149 t281.5 -55t281 55t227 149t150 225.5t55.5 279t-55.5 279.5t-150 226t-227 149t-281 55t-281.5 -55t-229 -149t-152 -226t-56 -279.5zM937 1740l245 368h191l-358 -368h-78z" />
<glyph unicode="&#xd4;" horiz-adv-x="1937" d="M120 803q0 170 66 322.5t179 262.5t270.5 174.5t332.5 64.5q177 0 335 -64.5t271.5 -174.5t179.5 -262.5t66 -322.5t-66 -323t-179.5 -262.5t-271.5 -174t-335 -64.5q-175 0 -332.5 64.5t-270.5 174t-179 262.5t-66 323zM254 802.5q0 -147.5 56 -279t152 -225.5t229 -149 t281.5 -55t281 55t227 149t150 225.5t55.5 279t-55.5 279.5t-150 226t-227 149t-281 55t-281.5 -55t-229 -149t-152 -226t-56 -279.5zM645 1719l254 387h144l250 -387h-89l-233 257l-236 -257h-90z" />
<glyph unicode="&#xd5;" horiz-adv-x="1937" d="M120 803q0 170 66 322.5t179 262.5t270.5 174.5t332.5 64.5q177 0 335 -64.5t271.5 -174.5t179.5 -262.5t66 -322.5t-66 -323t-179.5 -262.5t-271.5 -174t-335 -64.5q-175 0 -332.5 64.5t-270.5 174t-179 262.5t-66 323zM254 802.5q0 -147.5 56 -279t152 -225.5t229 -149 t281.5 -55t281 55t227 149t150 225.5t55.5 279t-55.5 279.5t-150 226t-227 149t-281 55t-281.5 -55t-229 -149t-152 -226t-56 -279.5zM584 1804q0 45 11.5 84t34 71t60.5 50t87 18q79 0 207 -56q51 -22 71 -30t57.5 -18.5t65.5 -10.5q47 0 72 27t33 88h72q6 -98 -55 -164 q-54 -61 -138 -61q-30 0 -69.5 10t-66 19.5t-75.5 29.5q-137 56 -193 56q-85 0 -99 -113h-75z" />
<glyph unicode="&#xd6;" horiz-adv-x="1937" d="M120 803q0 170 66 322.5t179 262.5t270.5 174.5t332.5 64.5q177 0 335 -64.5t271.5 -174.5t179.5 -262.5t66 -322.5t-66 -323t-179.5 -262.5t-271.5 -174t-335 -64.5q-175 0 -332.5 64.5t-270.5 174t-179 262.5t-66 323zM254 802.5q0 -147.5 56 -279t152 -225.5t229 -149 t281.5 -55t281 55t227 149t150 225.5t55.5 279t-55.5 279.5t-150 226t-227 149t-281 55t-281.5 -55t-229 -149t-152 -226t-56 -279.5zM657 1908q0 27 14 51t38.5 38t51.5 14q43 0 73.5 -30.5t30.5 -72.5t-30.5 -73t-73 -31t-73.5 31t-31 73zM1074 1908q0 42 30.5 72.5 t73 30.5t73 -30.5t30.5 -72.5q0 -28 -14 -52t-38 -38t-51 -14q-43 0 -73.5 31t-30.5 73z" />
<glyph unicode="&#xd7;" horiz-adv-x="1553" d="M304 431l398 398l-398 398l76 76l397 -399l398 399l75 -76l-398 -398l398 -398l-75 -76l-398 398l-397 -398z" />
<glyph unicode="&#xd8;" horiz-adv-x="1937" d="M120 803q0 170 66 322.5t179 262.5t270.5 174.5t332.5 64.5q295 0 530 -173l149 164l86 -59l-157 -174q116 -114 180 -263t64 -319t-66 -323t-179.5 -262.5t-271.5 -174t-335 -64.5q-271 0 -509 160l-149 -165l-88 69l151 166q-122 120 -187.5 271.5t-65.5 322.5z M254 803q0 -145 53 -273t152 -226l957 1060q-84 70 -202 109t-241 39q-149 0 -282 -55t-229 -149t-152 -226t-56 -279zM542 231q84 -62 195.5 -99.5t235.5 -37.5q148 0 280.5 55t227 149t150 225.5t55.5 279.5q0 144 -48.5 262t-142.5 228z" />
<glyph unicode="&#xd9;" horiz-adv-x="1643" d="M151 702v905h125v-901q0 -103 20.5 -191.5t57.5 -155t87.5 -117.5t111.5 -83t128.5 -48.5t140.5 -16.5q70 0 136 15.5t128 46.5t113.5 82t90 119t60 161.5t21.5 204.5v884h124v-877q0 -115 -20 -214.5t-56 -175t-86 -136.5t-108.5 -102.5t-126 -69.5t-136 -40.5 t-140.5 -12.5q-91 0 -175.5 20.5t-159.5 59.5t-136.5 100.5t-106 140t-69 181t-24.5 221.5zM612 2108h191l245 -368h-77z" />
<glyph unicode="&#xda;" horiz-adv-x="1643" d="M151 702v905h125v-901q0 -103 20.5 -191.5t57.5 -155t87.5 -117.5t111.5 -83t128.5 -48.5t140.5 -16.5q70 0 136 15.5t128 46.5t113.5 82t90 119t60 161.5t21.5 204.5v884h124v-877q0 -115 -20 -214.5t-56 -175t-86 -136.5t-108.5 -102.5t-126 -69.5t-136 -40.5 t-140.5 -12.5q-91 0 -175.5 20.5t-159.5 59.5t-136.5 100.5t-106 140t-69 181t-24.5 221.5zM791 1740l245 368h191l-358 -368h-78z" />
<glyph unicode="&#xdb;" horiz-adv-x="1643" d="M151 702v905h125v-901q0 -103 20.5 -191.5t57.5 -155t87.5 -117.5t111.5 -83t128.5 -48.5t140.5 -16.5q70 0 136 15.5t128 46.5t113.5 82t90 119t60 161.5t21.5 204.5v884h124v-877q0 -115 -20 -214.5t-56 -175t-86 -136.5t-108.5 -102.5t-126 -69.5t-136 -40.5 t-140.5 -12.5q-91 0 -175.5 20.5t-159.5 59.5t-136.5 100.5t-106 140t-69 181t-24.5 221.5zM499 1719l254 387h144l250 -387h-89l-233 257l-236 -257h-90z" />
<glyph unicode="&#xdc;" horiz-adv-x="1643" d="M151 702v905h125v-901q0 -103 20.5 -191.5t57.5 -155t87.5 -117.5t111.5 -83t128.5 -48.5t140.5 -16.5q70 0 136 15.5t128 46.5t113.5 82t90 119t60 161.5t21.5 204.5v884h124v-877q0 -115 -20 -214.5t-56 -175t-86 -136.5t-108.5 -102.5t-126 -69.5t-136 -40.5 t-140.5 -12.5q-91 0 -175.5 20.5t-159.5 59.5t-136.5 100.5t-106 140t-69 181t-24.5 221.5zM511 1908q0 42 31 72.5t73 30.5q28 0 52 -14t38 -37.5t14 -51.5q0 -42 -30.5 -73t-73 -31t-73.5 31t-31 73zM928 1908q0 42 30.5 72.5t73 30.5t73 -30.5t30.5 -72.5q0 -28 -14 -52 t-38 -38t-51 -14q-43 0 -73.5 31t-30.5 73z" />
<glyph unicode="&#xdd;" horiz-adv-x="1371" d="M0 1607h151l537 -636l534 636h151l-624 -745v-862h-125v862zM654 1740l245 368h191l-357 -368h-79z" />
<glyph unicode="&#xde;" horiz-adv-x="1200" d="M184 0v1607h124v-375h319q110 0 199 -22.5t149 -61t100 -92.5t58 -116t18 -133q0 -46 -7.5 -89t-26 -86.5t-46 -80.5t-70.5 -69.5t-97.5 -55.5t-128 -36t-160.5 -13h-307v-377h-124zM308 481h299q109 0 190 24.5t128 69.5t70 102.5t23 127.5q0 68 -22.5 125t-68.5 102 t-124 70.5t-181 25.5h-314v-647z" />
<glyph unicode="&#xdf;" d="M146 0v1147q0 228 114 354t322 126q123 0 221 -49.5t153 -138.5t55 -200q0 -42 -11 -89t-34 -98t-66.5 -94t-101.5 -66q144 -57 213.5 -161t69.5 -264q0 -85 -20 -160.5t-58 -135t-89.5 -102.5t-116.5 -66.5t-138 -23.5q-68 0 -146 21v117q79 -27 141 -27 q140 0 223.5 101.5t83.5 271.5q0 168 -84 266.5t-234 108.5v106q59 -4 107.5 19.5t78 65.5t45.5 94.5t16 108.5q0 138 -83.5 219.5t-224.5 81.5q-75 0 -132 -21t-93 -56.5t-58.5 -88t-31 -111t-8.5 -130.5v-1126h-113z" />
<glyph unicode="&#xe0;" horiz-adv-x="1005" d="M85 247q0 80 35 144.5t93 107t139 72.5t166.5 44t183.5 19v134q0 216 -235 216q-82 0 -154 -30.5t-169 -103.5v116q97 61 176 87t165 26q44 0 86 -7t87.5 -26.5t79 -49.5t55.5 -80t22 -113v-659q0 -22 2.5 -33.5t8 -16t15.5 -4.5q32 0 150 94v-94l-18 -14 q-75 -57 -117 -77t-79 -20q-38 0 -53.5 26t-21.5 105q-88 -68 -167.5 -99.5t-164.5 -31.5q-119 0 -202 78.5t-83 189.5zM198 247q0 -74 60 -124.5t149 -50.5q76 0 144 31.5t151 105.5v330q-138 6 -253 -28.5t-183 -104t-68 -159.5zM292 1594h191l245 -367h-78z" />
<glyph unicode="&#xe1;" horiz-adv-x="1005" d="M85 247q0 80 35 144.5t93 107t139 72.5t166.5 44t183.5 19v134q0 216 -235 216q-82 0 -154 -30.5t-169 -103.5v116q97 61 176 87t165 26q44 0 86 -7t87.5 -26.5t79 -49.5t55.5 -80t22 -113v-659q0 -22 2.5 -33.5t8 -16t15.5 -4.5q32 0 150 94v-94l-18 -14 q-75 -57 -117 -77t-79 -20q-38 0 -53.5 26t-21.5 105q-88 -68 -167.5 -99.5t-164.5 -31.5q-119 0 -202 78.5t-83 189.5zM198 247q0 -74 60 -124.5t149 -50.5q76 0 144 31.5t151 105.5v330q-138 6 -253 -28.5t-183 -104t-68 -159.5zM472 1227l244 367h190l-357 -367h-77z" />
<glyph unicode="&#xe2;" horiz-adv-x="1005" d="M85 247q0 80 35 144.5t93 107t139 72.5t166.5 44t183.5 19v134q0 216 -235 216q-82 0 -154 -30.5t-169 -103.5v116q97 61 176 87t165 26q44 0 86 -7t87.5 -26.5t79 -49.5t55.5 -80t22 -113v-659q0 -22 2.5 -33.5t8 -16t15.5 -4.5q32 0 150 94v-94l-18 -14 q-75 -57 -117 -77t-79 -20q-38 0 -53.5 26t-21.5 105q-88 -68 -167.5 -99.5t-164.5 -31.5q-119 0 -202 78.5t-83 189.5zM179 1206l255 386h143l250 -386h-90l-233 257l-236 -257h-89zM198 247q0 -74 60 -124.5t149 -50.5q76 0 144 31.5t151 105.5v330q-138 6 -253 -28.5 t-183 -104t-68 -159.5z" />
<glyph unicode="&#xe3;" horiz-adv-x="1005" d="M85 247q0 80 35 144.5t93 107t139 72.5t166.5 44t183.5 19v134q0 216 -235 216q-82 0 -154 -30.5t-169 -103.5v116q97 61 176 87t165 26q44 0 86 -7t87.5 -26.5t79 -49.5t55.5 -80t22 -113v-659q0 -22 2.5 -33.5t8 -16t15.5 -4.5q32 0 150 94v-94l-18 -14 q-75 -57 -117 -77t-79 -20q-38 0 -53.5 26t-21.5 105q-88 -68 -167.5 -99.5t-164.5 -31.5q-119 0 -202 78.5t-83 189.5zM117 1290q0 45 11.5 84t34 71t60.5 51t87 19q80 0 209 -57q3 -1 20 -8t20.5 -9t19 -8t20.5 -8t18.5 -7t20 -6.5t18 -4.5t19.5 -4t17.5 -2t18.5 -1 q48 0 73 26.5t34 88.5h70q7 -100 -54 -165q-55 -62 -139 -62q-30 0 -70 10t-64.5 19.5t-75.5 29.5q-45 18 -71.5 28t-62 19.5t-59.5 9.5q-41 0 -66.5 -28.5t-32.5 -85.5h-76zM198 247q0 -74 60 -124.5t149 -50.5q76 0 144 31.5t151 105.5v330q-138 6 -253 -28.5t-183 -104 t-68 -159.5z" />
<glyph unicode="&#xe4;" horiz-adv-x="1005" d="M85 247q0 80 35 144.5t93 107t139 72.5t166.5 44t183.5 19v134q0 216 -235 216q-82 0 -154 -30.5t-169 -103.5v116q97 61 176 87t165 26q44 0 86 -7t87.5 -26.5t79 -49.5t55.5 -80t22 -113v-659q0 -22 2.5 -33.5t8 -16t15.5 -4.5q32 0 150 94v-94l-18 -14 q-75 -57 -117 -77t-79 -20q-38 0 -53.5 26t-21.5 105q-88 -68 -167.5 -99.5t-164.5 -31.5q-119 0 -202 78.5t-83 189.5zM191 1394q0 42 30.5 73t72.5 31q28 0 52 -14t38 -38t14 -52q0 -42 -30.5 -73t-73 -31t-73 31t-30.5 73zM198 247q0 -74 60 -124.5t149 -50.5 q76 0 144 31.5t151 105.5v330q-138 6 -253 -28.5t-183 -104t-68 -159.5zM607 1394q0 28 14 52t38 38t51.5 14t52 -14t38.5 -38.5t14 -51.5q0 -42 -31 -73t-73.5 -31t-73 31t-30.5 73z" />
<glyph unicode="&#xe5;" horiz-adv-x="1005" d="M85 247q0 80 35 144.5t93 107t139 72.5t166.5 44t183.5 19v134q0 216 -235 216q-82 0 -154 -30.5t-169 -103.5v116q97 61 176 87t165 26q44 0 86 -7t87.5 -26.5t79 -49.5t55.5 -80t22 -113v-659q0 -22 2.5 -33.5t8 -16t15.5 -4.5q32 0 150 94v-94l-18 -14 q-75 -57 -117 -77t-79 -20q-38 0 -53.5 26t-21.5 105q-88 -68 -167.5 -99.5t-164.5 -31.5q-119 0 -202 78.5t-83 189.5zM198 247q0 -74 60 -124.5t149 -50.5q76 0 144 31.5t151 105.5v330q-138 6 -253 -28.5t-183 -104t-68 -159.5zM299 1396.5q0 84.5 60 144t145 59.5 q84 0 143 -59.5t59 -144.5t-59 -145t-143 -60q-85 0 -145 60.5t-60 145zM362 1396q0 -58 41.5 -99t100.5 -41q38 0 70 18.5t50.5 51t18.5 70.5q0 59 -40.5 99t-98.5 40q-39 0 -71.5 -18t-51.5 -50t-19 -71z" />
<glyph unicode="&#xe6;" horiz-adv-x="1570" d="M78 252q0 43 10 80.5t32.5 69t50.5 58t70.5 50.5t86.5 43t106 39t120 36.5t136 36.5v77q0 55 -13 98t-39 73t-66 46t-94 16q-164 0 -350 -132v118q169 118 366 118q103 0 169 -37.5t119 -124.5q69 88 136 125t158 37q94 0 171 -38.5t128.5 -106t80 -160.5t28.5 -201h-681 v-139q0 -53 9 -98t25 -79.5t39 -63t49.5 -47.5t57 -32t61.5 -18.5t63 -5.5q185 0 377 139v-130q-192 -120 -389 -120q-102 0 -182.5 39.5t-154.5 125.5q-125 -90 -215.5 -127.5t-182.5 -37.5q-122 0 -202 77.5t-80 195.5zM186 247q0 -74 57 -124.5t141 -50.5q34 0 68 8.5 t71.5 25.5t78 42t88.5 61v364q-92 -22 -164.5 -45.5t-137.5 -53t-108.5 -62.5t-68.5 -75t-25 -90zM803 665h556q-2 69 -26.5 127t-63.5 96t-89.5 59t-105.5 21q-115 0 -191.5 -84.5t-79.5 -218.5z" />
<glyph unicode="&#xe7;" horiz-adv-x="982" d="M99 513q0 164 65 293t182 201t266 72q35 0 66 -3t64.5 -9t69 -15.5t80.5 -24.5v-125q-62 26 -106 40t-83.5 20t-84.5 6q-178 0 -289 -122.5t-111 -319.5q0 -200 111 -318t298 -118q74 0 136 13t149 48v-118q-36 -12 -67 -21t-59.5 -15t-56 -10t-54.5 -6t-57 -2 q-29 0 -43 5l-20 -67q73 -11 110 -51.5t37 -96.5q0 -55 -28.5 -96t-75 -60.5t-106.5 -24.5t-125 12l13 75q51 -6 93.5 -4t72.5 10.5t47 28.5t17 52q0 89 -147 92l41 134q-123 23 -214.5 93.5t-141 181.5t-49.5 250z" />
<glyph unicode="&#xe8;" horiz-adv-x="1127" d="M94 542q0 153 62.5 276t173.5 192t250 69q69 0 135.5 -19t127 -60t106 -99.5t72.5 -144t27 -188.5h-834q-8 -66 3 -129.5t38 -115.5t67.5 -96t90 -74t106.5 -46.5t117 -16.5q106 0 198 37t195 120v-127q-93 -73 -192.5 -107t-214.5 -34q-113 0 -211 42t-167.5 116 t-109.5 179t-40 226zM229 659h685q-60 309 -334 309q-87 0 -159.5 -36.5t-122 -107t-69.5 -165.5zM353 1594h191l245 -367h-78z" />
<glyph unicode="&#xe9;" horiz-adv-x="1127" d="M94 542q0 153 62.5 276t173.5 192t250 69q69 0 135.5 -19t127 -60t106 -99.5t72.5 -144t27 -188.5h-834q-8 -66 3 -129.5t38 -115.5t67.5 -96t90 -74t106.5 -46.5t117 -16.5q106 0 198 37t195 120v-127q-93 -73 -192.5 -107t-214.5 -34q-113 0 -211 42t-167.5 116 t-109.5 179t-40 226zM229 659h685q-60 309 -334 309q-87 0 -159.5 -36.5t-122 -107t-69.5 -165.5zM532 1227l245 367h191l-358 -367h-78z" />
<glyph unicode="&#xea;" horiz-adv-x="1127" d="M94 542q0 153 62.5 276t173.5 192t250 69q69 0 135.5 -19t127 -60t106 -99.5t72.5 -144t27 -188.5h-834q-8 -66 3 -129.5t38 -115.5t67.5 -96t90 -74t106.5 -46.5t117 -16.5q106 0 198 37t195 120v-127q-93 -73 -192.5 -107t-214.5 -34q-113 0 -211 42t-167.5 116 t-109.5 179t-40 226zM229 659h685q-60 309 -334 309q-87 0 -159.5 -36.5t-122 -107t-69.5 -165.5zM240 1206l254 386h144l250 -386h-90l-232 257l-236 -257h-90z" />
<glyph unicode="&#xeb;" horiz-adv-x="1127" d="M94 542q0 153 62.5 276t173.5 192t250 69q69 0 135.5 -19t127 -60t106 -99.5t72.5 -144t27 -188.5h-834q-8 -66 3 -129.5t38 -115.5t67.5 -96t90 -74t106.5 -46.5t117 -16.5q106 0 198 37t195 120v-127q-93 -73 -192.5 -107t-214.5 -34q-113 0 -211 42t-167.5 116 t-109.5 179t-40 226zM229 659h685q-60 309 -334 309q-87 0 -159.5 -36.5t-122 -107t-69.5 -165.5zM252 1394q0 42 30.5 73t72.5 31q28 0 52 -14t38 -38t14 -52q0 -42 -30.5 -73t-73 -31t-73 31t-30.5 73zM669 1394q0 42 31 73t73 31q27 0 51 -14t38 -38t14 -52 q0 -42 -30.5 -73t-72.5 -31t-73 31t-31 73z" />
<glyph unicode="&#xec;" horiz-adv-x="442" d="M-85 1594h191l245 -367h-77zM164 0v1058h114v-1058h-114z" />
<glyph unicode="&#xed;" horiz-adv-x="442" d="M164 0v1058h114v-1058h-114zM191 1227l245 367h191l-359 -367h-77z" />
<glyph unicode="&#xee;" horiz-adv-x="442" d="M-101 1206l254 386h144l249 -386h-89l-233 257l-236 -257h-89zM164 0v1058h114v-1058h-114z" />
<glyph unicode="&#xef;" horiz-adv-x="442" d="M-90 1394q0 42 31 73t73 31q21 0 40 -8.5t33 -22.5t22 -33t8 -40q0 -42 -30.5 -73t-72.5 -31t-73 31t-31 73zM164 0v1058h114v-1058h-114zM328 1394q0 42 30.5 73t72.5 31t73 -31t31 -73t-30.5 -73t-73 -31t-73 31t-30.5 73z" />
<glyph unicode="&#xf0;" horiz-adv-x="1315" d="M90 521q0 94 28 179.5t79.5 154t121.5 119t158 78t184 27.5q134 0 234 -44.5t188 -148.5l5 4q-38 121 -123 244t-209 221l-336 -159l-36 78l294 137q-84 60 -211 110l44 86q153 -58 278 -144l313 144l35 -79l-272 -124q177 -148 273 -357t96 -458q0 -185 -71.5 -323 t-204 -212.5t-308.5 -74.5q-117 0 -221 42t-178.5 114t-117.5 172.5t-43 213.5zM198 521q0 -127 59.5 -229.5t166.5 -161t241 -58.5q135 0 237 58t157 163t55 242q0 199 -126 324t-329 125q-96 0 -182 -36t-147 -97.5t-96.5 -147.5t-35.5 -182z" />
<glyph unicode="&#xf1;" horiz-adv-x="1153" d="M146 0v1058h113v-184h4q38 56 75 94.5t79.5 63.5t89.5 36t105 11q85 0 156.5 -28t124.5 -81.5t82.5 -136.5t29.5 -188v-645h-113v603q0 178 -73.5 271.5t-213.5 93.5q-112 0 -193 -54.5t-153 -171.5v-742h-113zM193 1290q0 45 11.5 84t34 71t60.5 51t87 19q79 0 207 -57 q51 -21 71 -29t57.5 -18.5t65.5 -10.5q47 0 72 26.5t33 88.5h72q6 -100 -54 -165q-55 -62 -140 -62q-29 0 -68.5 10t-66 19.5t-75.5 29.5q-34 13 -54 21t-48 17.5t-50.5 14t-40.5 4.5q-41 0 -66.5 -28.5t-32.5 -85.5h-75z" />
<glyph unicode="&#xf2;" horiz-adv-x="1276" d="M99 528q0 93 26 178t75 152t115 117t149 77t174 27q114 0 214 -42t171 -115t111.5 -175.5t40.5 -218.5t-40.5 -217.5t-111.5 -174.5t-171 -115t-214 -42t-214 42t-171.5 115t-112.5 174.5t-41 217.5zM218 528q0 -124 54.5 -224.5t151 -157t214.5 -56.5t213.5 56.5 t150 157t54.5 224.5t-54.5 225t-150 158t-213.5 57t-214.5 -56.5t-151 -157.5t-54.5 -226zM429 1594h191l245 -367h-78z" />
<glyph unicode="&#xf3;" horiz-adv-x="1276" d="M99 528q0 93 26 178t75 152t115 117t149 77t174 27q114 0 214 -42t171 -115t111.5 -175.5t40.5 -218.5t-40.5 -217.5t-111.5 -174.5t-171 -115t-214 -42t-214 42t-171.5 115t-112.5 174.5t-41 217.5zM218 528q0 -124 54.5 -224.5t151 -157t214.5 -56.5t213.5 56.5 t150 157t54.5 224.5t-54.5 225t-150 158t-213.5 57t-214.5 -56.5t-151 -157.5t-54.5 -226zM607 1227l245 367h191l-358 -367h-78z" />
<glyph unicode="&#xf4;" horiz-adv-x="1276" d="M99 528q0 93 26 178t75 152t115 117t149 77t174 27q114 0 214 -42t171 -115t111.5 -175.5t40.5 -218.5t-40.5 -217.5t-111.5 -174.5t-171 -115t-214 -42t-214 42t-171.5 115t-112.5 174.5t-41 217.5zM218 528q0 -124 54.5 -224.5t151 -157t214.5 -56.5t213.5 56.5 t150 157t54.5 224.5t-54.5 225t-150 158t-213.5 57t-214.5 -56.5t-151 -157.5t-54.5 -226zM315 1206l255 386h144l250 -386h-90l-233 257l-236 -257h-90z" />
<glyph unicode="&#xf5;" horiz-adv-x="1276" d="M99 528q0 93 26 178t75 152t115 117t149 77t174 27q114 0 214 -42t171 -115t111.5 -175.5t40.5 -218.5t-40.5 -217.5t-111.5 -174.5t-171 -115t-214 -42t-214 42t-171.5 115t-112.5 174.5t-41 217.5zM218 528q0 -124 54.5 -224.5t151 -157t214.5 -56.5t213.5 56.5 t150 157t54.5 224.5t-54.5 225t-150 158t-213.5 57t-214.5 -56.5t-151 -157.5t-54.5 -226zM254 1290q0 45 11.5 84t34 71t60.5 51t87 19q79 0 207 -57q51 -21 71 -29t57.5 -18.5t65.5 -10.5q47 0 72 26.5t33 88.5h72q6 -100 -54 -165q-55 -62 -140 -62q-29 0 -69 10 t-64.5 19.5t-75.5 29.5q-45 18 -71.5 28t-62 19.5t-59.5 9.5q-41 0 -66.5 -28.5t-32.5 -85.5h-76z" />
<glyph unicode="&#xf6;" horiz-adv-x="1276" d="M99 528q0 93 26 178t75 152t115 117t149 77t174 27q114 0 214 -42t171 -115t111.5 -175.5t40.5 -218.5t-40.5 -217.5t-111.5 -174.5t-171 -115t-214 -42t-214 42t-171.5 115t-112.5 174.5t-41 217.5zM218 528q0 -124 54.5 -224.5t151 -157t214.5 -56.5t213.5 56.5 t150 157t54.5 224.5t-54.5 225t-150 158t-213.5 57t-214.5 -56.5t-151 -157.5t-54.5 -226zM328 1394q0 42 30.5 73t72.5 31t73 -31t31 -73t-30.5 -73t-73 -31t-73 31t-30.5 73zM744 1394q0 42 30.5 73t73.5 31q27 0 51 -14t38 -38t14 -52q0 -42 -30.5 -73t-73 -31t-73 31 t-30.5 73z" />
<glyph unicode="&#xf7;" horiz-adv-x="1553" d="M160 775v104h1234v-104h-1234zM685 436q0 39 27 65.5t65.5 26.5t65 -26.5t26.5 -65.5t-26.5 -65.5t-65 -26.5t-65.5 26.5t-27 65.5zM685 1218q0 39 27 65.5t65.5 26.5t65 -26.5t26.5 -65.5t-26.5 -65.5t-65 -26.5t-65.5 26.5t-27 65.5z" />
<glyph unicode="&#xf8;" horiz-adv-x="1276" d="M99 0l137 155q-137 148 -137 373q0 93 26 178t75 152t115 117t149 77t174 27q90 0 174 -27t149 -77l125 142l73 -59l-127 -146q143 -162 143 -384q0 -116 -40.5 -217.5t-111.5 -174.5t-171 -115t-214 -42q-182 0 -328 106l-133 -155zM218 528q0 -89 24.5 -156t70.5 -129 l570 645q-104 80 -245 80q-118 0 -214.5 -56.5t-151 -157.5t-54.5 -226zM389 172q63 -42 115.5 -62t133.5 -20q118 0 213.5 56.5t150 157t54.5 224.5q0 57 -12.5 111.5t-36 100.5t-56.5 80z" />
<glyph unicode="&#xf9;" horiz-adv-x="1153" d="M146 402v656h113v-653q0 -63 15 -115t42 -88.5t63.5 -62t79 -37.5t90.5 -12q61 0 110 14t90 45t73.5 69.5t69.5 96.5v743h113v-1058h-113v175h-4q-75 -106 -152 -151t-197 -45q-57 0 -110.5 13.5t-105.5 45.5t-91 79t-62.5 120.5t-23.5 164.5zM367 1594h191l245 -367h-77 z" />
<glyph unicode="&#xfa;" horiz-adv-x="1153" d="M146 402v656h113v-653q0 -63 15 -115t42 -88.5t63.5 -62t79 -37.5t90.5 -12q61 0 110 14t90 45t73.5 69.5t69.5 96.5v743h113v-1058h-113v175h-4q-75 -106 -152 -151t-197 -45q-57 0 -110.5 13.5t-105.5 45.5t-91 79t-62.5 120.5t-23.5 164.5zM546 1227l245 367h191 l-358 -367h-78z" />
<glyph unicode="&#xfb;" horiz-adv-x="1153" d="M146 402v656h113v-653q0 -63 15 -115t42 -88.5t63.5 -62t79 -37.5t90.5 -12q61 0 110 14t90 45t73.5 69.5t69.5 96.5v743h113v-1058h-113v175h-4q-75 -106 -152 -151t-197 -45q-57 0 -110.5 13.5t-105.5 45.5t-91 79t-62.5 120.5t-23.5 164.5zM254 1206l254 386h144 l250 -386h-89l-233 257l-236 -257h-90z" />
<glyph unicode="&#xfc;" horiz-adv-x="1153" d="M146 402v656h113v-653q0 -63 15 -115t42 -88.5t63.5 -62t79 -37.5t90.5 -12q61 0 110 14t90 45t73.5 69.5t69.5 96.5v743h113v-1058h-113v175h-4q-75 -106 -152 -151t-197 -45q-57 0 -110.5 13.5t-105.5 45.5t-91 79t-62.5 120.5t-23.5 164.5zM266 1394q0 42 31 73t73 31 q28 0 52 -14t38 -38t14 -52q0 -42 -30.5 -73t-73 -31t-73.5 31t-31 73zM683 1394q0 42 30.5 73t73.5 31q27 0 51 -14t38 -38t14 -52q0 -42 -30.5 -73t-73 -31t-73 31t-30.5 73z" />
<glyph unicode="&#xfd;" horiz-adv-x="982" d="M14 1058h118l384 -741l365 741h115l-791 -1600h-115l369 747zM459 1227l245 367h191l-358 -367h-78z" />
<glyph unicode="&#xfe;" horiz-adv-x="1200" d="M148 -542v2149h113v-609q60 30 111.5 47.5t101.5 25.5t106 8q111 0 208 -41.5t166 -113.5t108.5 -173.5t39.5 -218.5q0 -114 -41 -216.5t-111 -176.5t-168 -117t-207 -43q-81 0 -153.5 18t-160.5 62v-601h-113zM261 169q81 -44 146.5 -61.5t145.5 -17.5q191 0 308 119.5 t117 313.5q0 128 -56.5 229.5t-156.5 158.5t-226 57q-71 0 -133.5 -17t-144.5 -61v-721z" />
<glyph unicode="&#xff;" horiz-adv-x="982" d="M14 1058h118l384 -741l365 741h115l-791 -1600h-115l369 747zM179 1394q0 42 31 73t73 31q28 0 51.5 -14t37.5 -38t14 -52q0 -42 -30.5 -73t-72.5 -31t-73 31t-31 73zM596 1394q0 28 14 52t38 38t51 14q42 0 73 -31t31 -73t-31 -73t-73 -31t-72.5 31t-30.5 73z" />
<glyph unicode="&#x152;" horiz-adv-x="2110" d="M97 800q0 99 23.5 196t69 187.5t118.5 167t166 134t216.5 90t265.5 32.5h1048v-104h-759v-646h743v-104h-743v-649h776v-104h-1060q-126 0 -238 25t-198 69.5t-157.5 105t-121 131.5t-84 150.5t-50 159t-15.5 159.5zM231 800q0 -103 28 -201.5t88.5 -189t147.5 -158 t213.5 -107.5t278.5 -40h134v1399h-139q-99 0 -187 -17t-158 -48t-129.5 -73.5t-103.5 -94t-77.5 -108.5t-54 -118t-31 -122t-10.5 -122z" />
<glyph unicode="&#x153;" horiz-adv-x="1960" d="M97 528q0 161 67.5 286.5t188.5 195t276 69.5q140 0 247 -55t194 -170q51 104 152 164.5t210 60.5q91 0 173 -36.5t142 -101.5t93 -161.5t28 -209.5h-735q-4 -123 18.5 -216.5t68.5 -150.5t108 -85t139 -28q103 0 194.5 38t183.5 119v-130q-172 -138 -391 -138 q-140 0 -233 60t-151 188q-67 -87 -136 -141.5t-146.5 -80.5t-169.5 -26q-108 0 -203 37.5t-166 106.5t-111.5 173.5t-40.5 231.5zM216 532q0 -126 52.5 -227.5t146 -158t209.5 -56.5q177 0 283 126t106 333q0 195 -101 307t-281 112q-185 0 -300 -120t-115 -316zM1137 659 h598q-5 74 -30 132.5t-65 97t-92.5 59t-113.5 20.5q-57 0 -109.5 -21.5t-94 -60t-67 -98t-26.5 -129.5z" />
<glyph unicode="&#x178;" horiz-adv-x="1371" d="M0 1607h151l537 -636l534 636h151l-624 -745v-862h-125v862zM375 1908q0 42 30.5 72.5t72.5 30.5q28 0 52 -14t38 -37.5t14 -51.5q0 -42 -30.5 -73t-73 -31t-73 31t-30.5 73zM791 1908q0 42 30.5 72.5t73.5 30.5q27 0 51 -14t38 -37.5t14 -51.5q0 -42 -30.5 -73t-73 -31 t-73 31t-30.5 73z" />
<glyph unicode="&#x2c6;" horiz-adv-x="783" d="M68 1206l255 386h144l249 -386h-89l-234 257l-235 -257h-90z" />
<glyph unicode="&#x2dc;" horiz-adv-x="783" d="M7 1290q0 45 11 84t33.5 71t61 51t87.5 19q79 0 207 -57q4 -1 12 -5q42 -18 65 -27t57 -17.5t59 -8.5q48 0 73 26.5t33 88.5h71q7 -100 -54 -165q-55 -62 -139 -62q-29 0 -69 10t-64.5 19.5t-75.5 29.5q-46 18 -72 28t-61.5 19.5t-59.5 9.5q-41 0 -66.5 -28.5 t-32.5 -85.5h-76z" />
<glyph unicode="&#x2000;" horiz-adv-x="1056" />
<glyph unicode="&#x2001;" horiz-adv-x="2113" />
<glyph unicode="&#x2002;" horiz-adv-x="1056" />
<glyph unicode="&#x2003;" horiz-adv-x="2113" />
<glyph unicode="&#x2004;" horiz-adv-x="704" />
<glyph unicode="&#x2005;" horiz-adv-x="528" />
<glyph unicode="&#x2006;" horiz-adv-x="352" />
<glyph unicode="&#x2007;" horiz-adv-x="352" />
<glyph unicode="&#x2008;" horiz-adv-x="264" />
<glyph unicode="&#x2009;" horiz-adv-x="422" />
<glyph unicode="&#x200a;" horiz-adv-x="117" />
<glyph unicode="&#x2010;" horiz-adv-x="737" d="M90 476v110h557v-110h-557z" />
<glyph unicode="&#x2011;" horiz-adv-x="737" d="M90 476v110h557v-110h-557z" />
<glyph unicode="&#x2012;" horiz-adv-x="737" d="M90 476v110h557v-110h-557z" />
<glyph unicode="&#x2013;" d="M-14 551v76h1205v-76h-1205z" />
<glyph unicode="&#x2014;" horiz-adv-x="2355" d="M-14 551v76h2383v-76h-2383z" />
<glyph unicode="&#x2018;" horiz-adv-x="416" d="M132 1107v179q0 61 16.5 120t51.5 113.5t85 91.5v-83q-30 -44 -39.5 -86t-9.5 -107h49v-228h-153z" />
<glyph unicode="&#x2019;" horiz-adv-x="416" d="M132 1107v82q30 45 40 86.5t10 106.5h-50v229h153v-179q0 -94 -39 -182t-114 -143z" />
<glyph unicode="&#x201a;" horiz-adv-x="416" d="M132 0v229h153v-180q0 -94 -39 -182t-114 -143v83q30 45 40 86.5t10 106.5h-50z" />
<glyph unicode="&#x201c;" horiz-adv-x="932" d="M132 1107v179q0 61 16.5 120t51.5 113.5t85 91.5v-83q-30 -44 -39.5 -86t-9.5 -107h49v-228h-153zM647 1107v179q0 61 16.5 120t51.5 113.5t85 91.5v-83q-30 -44 -39.5 -86t-9.5 -107h49v-228h-153z" />
<glyph unicode="&#x201d;" horiz-adv-x="932" d="M132 1107v82q30 45 40 86.5t10 106.5h-50v229h153v-179q0 -94 -39 -182t-114 -143zM647 1107v82q31 45 40.5 86.5t9.5 106.5h-50v229h153v-179q0 -94 -39 -182t-114 -143z" />
<glyph unicode="&#x201e;" horiz-adv-x="932" d="M137 0v229h153v-180q0 -94 -39.5 -182t-113.5 -143v83q30 45 39.5 86.5t9.5 106.5h-49zM643 0v229h153v-180q0 -61 -16.5 -120t-51.5 -113.5t-85 -91.5v83q30 45 39.5 86.5t9.5 106.5h-49z" />
<glyph unicode="&#x2022;" d="M301 803q0 118 85 202.5t203 84.5t202.5 -84.5t84.5 -202.5t-84.5 -202.5t-202.5 -84.5t-203 84.5t-85 202.5z" />
<glyph unicode="&#x2026;" horiz-adv-x="2355" d="M315 0v229h154v-229h-154zM1099 0v229h155v-229h-155zM1884 0v229h154v-229h-154z" />
<glyph unicode="&#x202f;" horiz-adv-x="422" />
<glyph unicode="&#x2039;" horiz-adv-x="661" d="M38 544l445 528h141l-442 -528l442 -528h-141z" />
<glyph unicode="&#x203a;" horiz-adv-x="661" d="M38 16l443 528l-443 528h141l445 -528l-445 -528h-141z" />
<glyph unicode="&#x205f;" horiz-adv-x="528" />
<glyph unicode="&#x20ac;" horiz-adv-x="1315" d="M38 612l21 114h143q-2 23 -2 85q0 47 2 65h-164l21 113h153q42 295 210.5 466.5t415.5 171.5q106 0 202.5 -26.5t219.5 -90.5l-24 -121q-123 68 -211 94.5t-187 26.5q-187 0 -320 -140.5t-172 -380.5h811l-22 -113h-800q-3 -20 -3 -65q0 -54 3 -85h775l-22 -114h-742 q14 -84 29 -136.5t41 -105.5q57 -122 169.5 -196.5t241.5 -74.5q52 0 98.5 8t96.5 27.5t103 48.5t120 73v-128q-115 -78 -213.5 -113.5t-202.5 -35.5q-246 0 -410.5 169t-206.5 464h-174z" />
<glyph unicode="&#x2122;" horiz-adv-x="2213" d="M236 1585v96h730v-96h-305v-839h-119v839h-306zM1074 746v935h176l234 -746h4l243 746h179v-935h-106v839h-4l-276 -839h-81l-259 839h-4v-839h-106z" />
<glyph unicode="&#xe000;" horiz-adv-x="1059" d="M0 0v1060h1060v-1060h-1060z" />
<glyph unicode="&#xfb01;" horiz-adv-x="1127" d="M29 966v92h193v131q0 214 97 326t281 112q167 0 262 -77.5t102 -218.5h-114q-6 67 -39 113.5t-85 67.5t-121 21q-142 0 -206 -82t-64 -262v-131h218v-92h-218v-966h-113v966h-193zM850 0v1058h114v-1058h-114z" />
<glyph unicode="&#xfb02;" horiz-adv-x="1127" d="M31 966v92h196v183q0 79 20 144t54 109.5t79.5 75t96 44t105.5 13.5q78 0 157 -35v-111q-64 22 -96 29t-70 7q-115 0 -174.5 -74.5t-59.5 -197.5v-187h219v-92h-219v-966h-112v966h-196zM850 0v1607h114v-1607h-114z" />
</font>
</defs>
</svg>
