<?xml version="1.0" standalone="no"?>
<!DOCTYPE svg PUBLIC "-//W3C//DTD SVG 1.1//EN" "http://www.w3.org/Graphics/SVG/1.1/DTD/svg11.dtd" >
<svg xmlns="http://www.w3.org/2000/svg" width="100%" height="100%">
<metadata>
Created by FontXChange 20100429 at Tue Jul 16 16:41:28 2013
 By Diego Martins da Rocha
Copyright 2006-2009 Dalton Maag Ltd. All rights reserved. This font may not be altered in any way without prior permission of Dalton Maag Ltd.
</metadata>
<defs>
<font id="ConsulCoHeadline-Regular" horiz-adv-x="474" >
  <font-face 
    font-family="Consul Co Headline"
    font-weight="400"
    font-stretch="normal"
    units-per-em="1000"
    panose-1="2 11 5 3 6 2 2 2 2 4"
    ascent="800"
    descent="-200"
    x-height="502"
    cap-height="686"
    bbox="-234 -253 1346 950"
    underline-thickness="50"
    underline-position="-50"
    unicode-range="U+0008-FB04"
  />
<missing-glyph horiz-adv-x="500" 
d="M50 0v750h400v-750h-400zM400 50v650h-300v-650h300z" />
    <glyph glyph-name="f_f" unicode="ff" horiz-adv-x="723" 
d="M61 533q0 54 15 93t42.5 63.5t65 36t82.5 11.5q58 0 94 -17t36 -52q0 -17 -9.5 -30t-20.5 -20q-16 13 -37.5 21t-51.5 8q-54 0 -78 -30t-24 -85v-30h234v31q0 54 15 93t42.5 63.5t65 36t82.5 11.5q82 0 116 -19.5t34 -49.5q0 -17 -9.5 -30t-20.5 -20q-16 13 -43.5 21
t-58.5 8q-59 0 -84 -30t-25 -85v-30h150q33 0 46.5 -13.5t13.5 -39.5q0 -17 -5 -31.5t-8 -20.5h-197v-397h-114v397h-234v-397h-114v533z" />
    <glyph glyph-name="f_i" unicode="fi" horiz-adv-x="585" 
d="M61 533q0 56 17.5 95t47.5 63t70.5 35t87.5 11q88 0 130 -18.5t42 -50.5q0 -17 -9.5 -30.5t-20.5 -20.5q-8 6 -22.5 11.5t-31.5 9.5t-35.5 6.5t-34.5 2.5q-60 0 -94 -29t-34 -91v-25h289q36 0 47 -15.5t11 -47.5v-439h-113v397h-234v-397h-113v533z" />
    <glyph glyph-name="f_l" unicode="fl" horiz-adv-x="572" 
d="M61 533q0 56 17.5 95t48.5 63t74 35t94 11q49 0 87.5 -6t66 -13t42.5 -13t17 -7v-698h-114v633q-6 2 -32.5 8t-65.5 6q-64 0 -92.5 -30.5t-28.5 -91.5v-23h114q33 0 46.5 -13.5t13.5 -39.5q0 -17 -5 -31.5t-8 -20.5h-161v-397h-114v533z" />
    <glyph glyph-name="f_f_i" unicode="ffi" horiz-adv-x="939" 
d="M61 533q0 54 15 93t42.5 63.5t65 36t82.5 11.5q58 0 94 -17t36 -52q0 -17 -9.5 -30t-20.5 -20q-16 13 -37.5 21t-51.5 8q-54 0 -78 -30t-24 -85v-30h240v31q0 56 17.5 95t47.5 63t70.5 35t87.5 11q88 0 130 -18.5t42 -50.5q0 -17 -9.5 -30.5t-20.5 -20.5q-8 6 -22.5 11.5
t-31.5 9.5t-35.5 6.5t-34.5 2.5q-60 0 -94 -29t-34 -91v-25h289q36 0 47 -15.5t11 -47.5v-439h-114v397h-232v-397h-114v397h-240v-397h-114v533z" />
    <glyph glyph-name="f_f_l" unicode="ffl" horiz-adv-x="918" 
d="M61 533q0 54 15 93t42.5 63.5t65 36t82.5 11.5q58 0 94 -17t36 -52q0 -17 -9.5 -30t-20.5 -20q-16 13 -37.5 21t-51.5 8q-54 0 -78 -30t-24 -85v-30h232v31q0 56 17.5 95t48.5 63t74 35t94 11q49 0 87.5 -6t66 -13t42.5 -13t17 -7v-698h-114v633q-6 2 -32.5 8t-65.5 6
q-64 0 -92.5 -30.5t-28.5 -91.5v-23h114q33 0 46.5 -13.5t13.5 -39.5q0 -17 -5 -31.5t-8 -20.5h-161v-397h-114v397h-232v-397h-114v533z" />
    <glyph glyph-name=".notdef" horiz-adv-x="500" 
d="M50 0v750h400v-750h-400zM400 50v650h-300v-650h300z" />
    <glyph glyph-name=".null" horiz-adv-x="0" 
 />
    <glyph glyph-name=".null" horiz-adv-x="0" 
 />
    <glyph glyph-name=".null" horiz-adv-x="0" 
 />
    <glyph glyph-name="nonmarkingreturn" unicode="&#x9;" horiz-adv-x="251" 
 />
    <glyph glyph-name="nonmarkingreturn" unicode="&#xd;" horiz-adv-x="251" 
 />
    <glyph glyph-name="space" unicode=" " horiz-adv-x="251" 
 />
    <glyph glyph-name="exclam" unicode="!" horiz-adv-x="239" 
d="M62 633q0 27 16.5 40t43.5 13q18 0 33.5 -5t20.5 -7v-454h-114v413zM120 134q31 0 53.5 -22t22.5 -53q0 -30 -22.5 -52.5t-53.5 -22.5t-54 22.5t-23 52.5q0 31 23 53t54 22z" />
    <glyph glyph-name="quotedbl" unicode="&#x22;" horiz-adv-x="515" 
d="M88 684q0 26 16.5 39.5t43.5 13.5q18 0 33.5 -5t21.5 -8v-266h-115v226zM313 684q0 26 16 39.5t43 13.5q18 0 33.5 -5t21.5 -8v-266h-114v226z" />
    <glyph glyph-name="numbersign" unicode="#" horiz-adv-x="761" 
d="M162 161h-68q-30 0 -43 13t-13 36q0 16 5 29.5t9 18.5h127l31 183h-68q-30 0 -43 12.5t-13 35.5q0 17 5 30.5t9 18.5h127l20 117q5 26 20 37.5t40 11.5q15 0 27 -4t17 -6l-27 -156h178l20 117q5 26 20 37.5t39 11.5q16 0 28 -4t17 -6l-27 -156h69q29 0 41.5 -12.5
t12.5 -36.5q0 -16 -4.5 -29.5t-7.5 -18.5h-127l-32 -183h69q29 0 41.5 -12.5t12.5 -35.5q0 -17 -4.5 -30.5t-7.5 -18.5h-127l-28 -161h-97l27 161h-178l-27 -161h-97zM454 258l31 183h-178l-31 -183h178z" />
    <glyph glyph-name="dollar" unicode="$" horiz-adv-x="645" 
d="M79 162q8 -6 25 -15.5t42.5 -19.5t59 -18.5t74.5 -11.5v199l-32 7q-39 8 -75.5 22t-65.5 36t-46.5 54.5t-17.5 77.5q0 39 13.5 73t42 60.5t73.5 44t108 22.5v74q0 31 36 31q12 0 21.5 -3t11.5 -4v-99q39 -3 69 -9t52 -13t36 -13.5t20 -10.5q16 -10 25 -23.5t9 -29.5
q0 -22 -12.5 -41.5t-26.5 -27.5q-7 8 -22 19t-37 21t-50.5 18t-62.5 11v-198l36 -7q103 -20 155 -64t53 -125q0 -86 -61 -139.5t-183 -63.5v-106h-69v106q-50 3 -91.5 12.5t-73.5 21.5t-54 24t-32 19zM280 594q-65 -5 -93.5 -30t-28.5 -63q0 -37 29.5 -58.5t92.5 -34.5v186z
M349 96q63 7 92.5 30t29.5 64q0 43 -31.5 63t-90.5 31v-188z" />
    <glyph glyph-name="percent" unicode="%" horiz-adv-x="973" 
d="M743 374q42 0 78.5 -15t64 -41t43 -61.5t15.5 -76.5t-15.5 -76.5t-43 -61.5t-64 -41t-78.5 -15t-78.5 15t-64 41t-43 61.5t-15.5 76.5t15.5 76.5t43 61.5t64 41t78.5 15zM624 698q9 16 20.5 27.5t38.5 11.5q23 0 38 -8t19 -12l-408 -717h-107zM847 180q0 22 -8 41.5
t-22 33.5t-33 22.5t-41 8.5t-41 -8.5t-33 -22.5t-22 -33.5t-8 -41.5t8 -41.5t22 -33.5t33 -22.5t41 -8.5t41 8.5t33 22.5t22 33.5t8 41.5zM29 543q0 41 15.5 76.5t43 61.5t64 41t78.5 15t78.5 -15t64 -41t43 -61.5t15.5 -76.5t-15.5 -76.5t-43 -61.5t-64 -41t-78.5 -15
t-78.5 15t-64 41t-43 61.5t-15.5 76.5zM230 437q22 0 41 8.5t33 22.5t22 33.5t8 41.5t-8 41.5t-22 33.5t-33 22.5t-41 8.5t-41 -8.5t-33 -22.5t-22 -33.5t-8 -41.5t8 -41.5t22 -33.5t33 -22.5t41 -8.5z" />
    <glyph glyph-name="ampersand" unicode="&#x26;" horiz-adv-x="722" 
d="M516 300h-198q-68 0 -102 -29t-34 -80q0 -54 45.5 -81.5t148.5 -27.5q68 0 100 3t40 5v210zM647 404q32 0 45.5 -13.5t13.5 -38.5q0 -17 -5 -31.5t-8 -20.5h-62v-302q-18 -4 -80 -9.5t-167 -5.5q-89 0 -150 14.5t-99 41.5t-55 64t-17 82q0 59 30 101.5t90 65.5
q-52 23 -78 64t-26 92q0 91 67 143.5t184 52.5q76 0 117 -12.5t55 -20.5q32 -19 32 -48q0 -20 -11.5 -35.5t-21.5 -22.5q-15 14 -58 29t-104 15q-145 0 -145 -106q0 -54 39.5 -76.5t114.5 -22.5h299z" />
    <glyph glyph-name="quotesingle" unicode="'" horiz-adv-x="300" 
d="M93 684q0 26 16 39.5t44 13.5q18 0 33.5 -5t20.5 -8v-266h-114v226z" />
    <glyph glyph-name="parenleft" unicode="(" horiz-adv-x="342" 
d="M324 -132q-62 12 -113 46.5t-87 90t-56 130.5t-20 168q0 92 19.5 167t55.5 130.5t87 90t114 46.5v-106q-78 -30 -119 -111t-41 -217t41 -217.5t119 -111.5v-106z" />
    <glyph glyph-name="parenright" unicode=")" horiz-adv-x="342" 
d="M18 -26q78 29 119 110.5t41 218.5q0 136 -41 217t-119 111v106q62 -12 113 -47t87 -90t55.5 -130t19.5 -167q0 -93 -19.5 -167.5t-55.5 -130t-87 -90.5t-113 -47v106z" />
    <glyph glyph-name="asterisk" unicode="*" horiz-adv-x="537" 
d="M192 480l-159 47q0 7 1 21.5t5.5 29t14.5 25.5t28 11q14 0 32 -8l109 -46l-7 131q0 26 16 36t40 10q15 0 29.5 -4.5t19.5 -6.5l-7 -165l110 45q18 8 32 8q25 0 37.5 -21.5t12.5 -51.5q0 -5 -0.5 -8.5t-0.5 -5.5l-160 -47l111 -140l-84 -57l-103 151l-103 -151l-83 57z
" />
    <glyph glyph-name="plus" unicode="+" horiz-adv-x="633" 
d="M261 286h-153q-29 0 -41 15.5t-12 41.5q0 17 4.5 31t6.5 19h195v158q0 27 15.5 40t43.5 13q18 0 33 -4.5t20 -7.5v-199h152q29 0 41 -15t12 -41q0 -18 -4.5 -32t-6.5 -19h-194v-204h-112v204z" />
    <glyph glyph-name="comma" unicode="," horiz-adv-x="300" 
d="M89 88q8 26 22 39t40 13q15 0 27 -4t21 -9t15 -10t8 -8l-115 -268l-83 32z" />
    <glyph glyph-name="hyphen" unicode="-" horiz-adv-x="329" 
d="M244 328q29 0 41 -16.5t12 -41.5q0 -16 -4 -30.5t-7 -21.5h-201q-29 0 -40.5 16t-11.5 42q0 17 4 31t7 21h200z" />
    <glyph glyph-name="period" unicode="." horiz-adv-x="300" 
d="M73 63q0 16 6 30t16.5 24.5t25 16.5t30.5 6q32 0 54.5 -22.5t22.5 -54.5q0 -16 -6 -30.5t-16.5 -25t-24.5 -17t-30 -6.5q-32 0 -55 23.5t-23 55.5z" />
    <glyph glyph-name="slash" unicode="/" horiz-adv-x="346" 
d="M230 690q8 23 19.5 35t37.5 12q23 0 38.5 -9.5t20.5 -15.5l-237 -721h-109z" />
    <glyph glyph-name="zero" unicode="0" horiz-adv-x="668" 
d="M46 343q0 84 19.5 151t56.5 113.5t90.5 71.5t121.5 25q67 0 120.5 -25t90.5 -71.5t56.5 -113.5t19.5 -151t-19.5 -151t-56.5 -113.5t-90.5 -71t-120.5 -24.5q-68 0 -121.5 24.5t-90.5 71t-56.5 113.5t-19.5 151zM334 88q42 0 73 18.5t51.5 52.5t31 81t10.5 103t-10.5 103
t-31 80.5t-51.5 52.5t-73 19t-73.5 -19t-52 -52.5t-31 -80.5t-10.5 -103t10.5 -103t31 -81t52 -52.5t73.5 -18.5z" />
    <glyph glyph-name="one" unicode="1" horiz-adv-x="469" 
d="M227 551l-159 -115q-6 3 -15 8t-17.5 13t-14 18t-5.5 22q0 22 11 37t36 32l120 83q24 17 44.5 27t51.5 10q24 0 42 -7.5t22 -10.5v-668h-116v551z" />
    <glyph glyph-name="two" unicode="2" horiz-adv-x="559" 
d="M16 101q14 9 45 30.5l67.5 48l72.5 54t60 49.5q58 52 89 97.5t31 101.5q0 24 -8.5 45.5t-26 38.5t-45 27t-65.5 10t-65.5 -11t-46 -26t-29 -31t-14.5 -25q-9 2 -19.5 7t-20 13t-16 18.5t-6.5 23.5q0 15 5.5 28.5t13.5 24.5q5 7 19.5 20.5t40 26.5t62 22.5t86.5 9.5
q63 0 111 -16.5t80.5 -45t49 -67.5t16.5 -84q0 -35 -8 -65t-21 -55t-29.5 -46.5t-33.5 -40.5t-47 -45.5l-62 -52.5l-61 -48l-43 -32h310v-106h-492v101z" />
    <glyph glyph-name="three" unicode="3" horiz-adv-x="589" 
d="M61 139q12 -8 31 -17t44 -17t55.5 -13.5t65.5 -5.5q74 0 113 28.5t39 80.5t-41.5 77t-114.5 25h-63q-3 5 -9 20.5t-6 34.5q0 52 63 52h20q69 0 105 27.5t36 73.5q0 45 -35 72.5t-106 27.5q-40 0 -69 -10t-49 -24t-31.5 -28.5t-14.5 -22.5q-25 4 -43.5 21t-18.5 40
q0 14 4.5 27t17.5 27q7 7 22.5 19t41 23t62 19t84.5 8q67 0 115 -16t79 -42t45.5 -59.5t14.5 -68.5q0 -30 -9.5 -56t-25.5 -46.5t-36.5 -36t-41.5 -25.5q66 -22 95.5 -67t29.5 -98q0 -45 -18.5 -83t-52 -65.5t-81.5 -42.5t-107 -15q-51 0 -94 8t-76 18.5t-56 22t-34 19.5z
" />
    <glyph glyph-name="four" unicode="4" horiz-adv-x="623" 
d="M389 256v316q-35 -18 -76 -51.5t-76 -73t-58.5 -80.5t-23.5 -73q0 -25 18 -31.5t47 -6.5h169zM389 151h-192q-78 0 -119.5 26t-41.5 85q0 44 19 92t50.5 95t72.5 90t85 75.5t87 52t80 19.5q35 0 52.5 -7.5t21.5 -9.5v-413h33q59 0 59 -51q0 -19 -6 -34t-9 -20h-77v-151
h-115v151z" />
    <glyph glyph-name="five" unicode="5" horiz-adv-x="570" 
d="M59 129q26 -14 73.5 -29t108.5 -15q86 0 125 34t39 85q0 26 -9.5 48.5t-30.5 39t-56 26t-86 9.5q-22 0 -45 -2t-45 -5t-41.5 -7t-33.5 -8l10 313q2 68 73 68h295q59 0 59 -51q0 -19 -6 -34t-9 -20h-307l-5 -163q16 2 43.5 4.5t59.5 2.5q71 0 119.5 -18.5t78.5 -48.5
t43 -69t13 -80q0 -50 -18 -91.5t-53 -71.5t-86 -46.5t-118 -16.5q-49 0 -89.5 7t-70.5 16.5t-49.5 19t-26.5 14.5z" />
    <glyph glyph-name="six" unicode="6" horiz-adv-x="615" 
d="M294 670q12 16 27 25t39 9q30 0 48.5 -12t22.5 -17l-176 -233q11 6 32.5 13t56.5 7q54 0 97 -18.5t73 -49.5t46 -72t16 -87q0 -56 -20.5 -102t-56.5 -79.5t-85 -52t-106 -18.5q-58 0 -106.5 18t-84 50.5t-55.5 77t-20 98.5q0 68 30 130.5t81 128.5zM307 82q69 0 110.5 41
t41.5 106q0 34 -11.5 61.5t-31.5 46.5t-48 29.5t-61 10.5t-61 -11t-48 -30.5t-31.5 -47t-11.5 -59.5t11 -59t31.5 -46.5t48.5 -30.5t61 -11z" />
    <glyph glyph-name="seven" unicode="7" horiz-adv-x="524" 
d="M130 0q7 17 27 60.5l45.5 100.5l54 121l54.5 122.5l46 104.5l29 68h-322q-60 0 -60 53q0 19 5.5 35t9.5 21h423q35 0 53 -16t18 -43q0 -20 -6 -39.5t-15 -42.5q-10 -25 -28.5 -67.5l-41.5 -94l-48 -108l-48.5 -109l-43.5 -96.5l-31 -70h-121z" />
    <glyph glyph-name="eight" unicode="8" horiz-adv-x="675" 
d="M176 349q-56 29 -79 71.5t-23 86.5t18.5 80t52.5 62t83 40.5t110 14.5t109.5 -14.5t82.5 -40.5t52.5 -62t18.5 -80t-23 -86.5t-79 -71.5q33 -14 55.5 -32.5t36.5 -40t20 -45t6 -45.5q0 -46 -19 -83.5t-54.5 -64t-87.5 -41t-118 -14.5t-118 14.5t-88 41t-55 64t-19 83.5
q0 22 6 45.5t20 45t36.5 40t55.5 32.5zM338 395q74 0 110.5 30.5t36.5 76.5q0 47 -36.5 78t-110.5 31q-75 0 -111.5 -31t-36.5 -78q0 -46 36.5 -76.5t111.5 -30.5zM338 81q78 0 119 29.5t41 80.5q0 50 -41 80t-119 30t-119.5 -30t-41.5 -80q0 -51 41.5 -80.5t119.5 -29.5z
" />
    <glyph glyph-name="nine" unicode="9" horiz-adv-x="617" 
d="M357 241q-10 -6 -31 -12.5t-45 -6.5q-59 0 -105 18.5t-77 50t-47 73t-16 87.5q0 55 20 101.5t56 80.5t85.5 52.5t108.5 18.5q58 0 107 -18t84.5 -50.5t55 -77.5t19.5 -99q0 -71 -30.5 -131.5t-73.5 -117.5l-165 -218h-134zM152 456q0 -35 11.5 -62.5t32 -46.5t48.5 -29.5
t62 -10.5t62.5 11t49 31t32 47t11.5 60q0 32 -11.5 59.5t-32 47.5t-49 31t-62.5 11q-35 0 -63.5 -11t-48.5 -31t-31 -47t-11 -60z" />
    <glyph glyph-name="colon" unicode=":" horiz-adv-x="300" 
d="M73 425q0 16 6 30t16.5 24.5t25 16.5t30.5 6q32 0 54.5 -22.5t22.5 -54.5q0 -16 -6 -30.5t-16.5 -25t-24.5 -17t-30 -6.5q-32 0 -55 23.5t-23 55.5zM73 63q0 16 6 30t16.5 24.5t25 16.5t30.5 6q32 0 54.5 -22.5t22.5 -54.5q0 -16 -6 -30.5t-16.5 -25t-24.5 -17t-30 -6.5
q-32 0 -55 23.5t-23 55.5z" />
    <glyph glyph-name="semicolon" unicode=";" horiz-adv-x="300" 
d="M89 88q8 26 22 39t41 13q29 0 47 -12.5t23 -18.5l-115 -268l-83 32zM73 425q0 16 6 30t16.5 24.5t25 16.5t30.5 6q32 0 54.5 -22.5t22.5 -54.5q0 -16 -6 -30.5t-16.5 -25t-24.5 -17t-30 -6.5q-32 0 -55 23.5t-23 55.5z" />
    <glyph glyph-name="less" unicode="&#x3c;" horiz-adv-x="635" 
d="M561 593v-118l-348 -132l348 -132v-117l-440 180q-28 11 -38.5 29t-10.5 40q0 20 8 35.5t17 23.5z" />
    <glyph glyph-name="equal" unicode="=" horiz-adv-x="633" 
d="M525 519q29 0 41 -15t12 -41q0 -18 -4.5 -32t-6.5 -19h-459q-29 0 -41 15t-12 41q0 18 4.5 32t6.5 19h459zM525 270q29 0 41 -15t12 -41q0 -18 -4.5 -32t-6.5 -19h-459q-29 0 -41 15.5t-12 41.5q0 18 4.5 31.5t6.5 18.5h459z" />
    <glyph glyph-name="greater" unicode="&#x3e;" horiz-adv-x="635" 
d="M73 212l349 131l-349 132v118l440 -181q27 -11 38 -29t11 -40q0 -21 -7.5 -35.5t-17.5 -23.5l-464 -190v118z" />
    <glyph glyph-name="question" unicode="?" horiz-adv-x="540" 
d="M178 207q0 31 3.5 54t13.5 41.5t26 33.5t42 30q58 33 86.5 62t28.5 74q0 43 -32 74t-104 31q-33 0 -60 -8.5t-47 -21.5t-33 -28.5t-20 -28.5q-28 7 -42.5 24t-14.5 39q0 20 13.5 41.5t41.5 39t70 29t99 11.5q66 0 113 -16.5t77 -43.5t43.5 -62t13.5 -72q0 -39 -10.5 -69
t-27.5 -53t-40 -41t-47 -33q-22 -14 -37 -25.5t-24.5 -23.5t-13.5 -25.5t-4 -32.5h-114zM158 59q0 30 22.5 52.5t54.5 22.5q31 0 53.5 -22.5t22.5 -52.5q0 -31 -22.5 -52.5t-53.5 -21.5q-32 0 -54.5 21.5t-22.5 52.5z" />
    <glyph glyph-name="at" unicode="@" horiz-adv-x="997" 
d="M743 -166q-9 -4 -28 -10t-48.5 -12t-68.5 -10.5t-87 -4.5q-104 0 -190.5 33.5t-148 93.5t-95.5 142.5t-34 180.5q0 99 33.5 182.5t94 144.5t145.5 95.5t187 34.5q110 0 194 -34.5t140.5 -95t85.5 -142.5t29 -177q0 -36 -4.5 -72t-11 -67.5t-14.5 -56t-14 -37.5
q-44 -3 -130 -7t-227 -4q-60 0 -108.5 6t-83 22.5t-53 46t-18.5 75.5q0 72 49.5 110.5t158.5 38.5q32 0 59 -3.5t41 -5.5q0 55 -32.5 79.5t-97.5 24.5q-45 0 -73 -9t-46 -19q-5 5 -13.5 18t-8.5 30q0 31 35 48t116 17q107 0 163 -45.5t56 -134.5v-216q7 0 24.5 1t38.5 2
t40 2t29 2q5 17 12 58.5t7 95.5q0 74 -24 138.5t-69 112t-109 75t-143 27.5q-75 0 -139 -27t-111 -75t-73.5 -114.5t-26.5 -144.5t26.5 -143t75.5 -111.5t117 -72.5t152 -26q70 0 118.5 11t66.5 18zM594 229q-11 2 -34 5t-55 3q-66 0 -91 -18t-25 -56t30.5 -54.5t99.5 -16.5
q21 0 41 0.5t34 1.5v135z" />
    <glyph glyph-name="A" unicode="A" horiz-adv-x="733" 
d="M5 0l56 144.5l65 159l70.5 165.5l72.5 164q18 40 41 55.5t58 15.5q13 0 25.5 -3t22 -7t16 -7.5t7.5 -4.5q16 -28 41.5 -83l55 -123.5l60.5 -143l57.5 -141l46.5 -118l28 -73.5h-132q-5 12 -13 34l-17.5 47.5l-19.5 51.5l-18 46h-335l-39.5 -101.5l-28.5 -77.5h-120z
M488 284l-32 81.5l-35.5 87l-33 77.5t-24.5 53l-29 -63.5l-33 -75l-34 -80.5l-32 -80h253z" />
    <glyph glyph-name="B" unicode="B" horiz-adv-x="691" 
d="M73 621q0 32 16 46.5t37 18.5q20 4 64.5 7t128.5 3q91 0 150 -16t92.5 -42.5t46.5 -61t13 -72.5q0 -32 -8.5 -56.5t-21 -42.5t-28.5 -30.5t-31 -19.5q51 -17 82.5 -58.5t31.5 -104.5q0 -42 -13 -79t-48.5 -64.5t-99 -43t-163.5 -15.5q-48 0 -91 1.5t-76 3t-54.5 3.5
t-27.5 2v621zM375 401q35 0 59 7.5t39 20t21.5 30t6.5 37.5q0 21 -8.5 39.5t-28.5 31.5t-53 20.5t-81 7.5q-58 0 -95 -3t-46 -5v-186h186zM189 100q9 -2 44.5 -5t101.5 -3q53 0 89 6.5t58.5 20t32 33t9.5 46.5q0 21 -6.5 39t-22 31.5t-41 21.5t-63.5 8h-202v-198z" />
    <glyph glyph-name="C" unicode="C" horiz-adv-x="664" 
d="M649 46q-11 -8 -30.5 -19t-49 -21t-69.5 -17t-91 -7q-74 0 -140 23.5t-116.5 68.5t-80 112t-29.5 154q0 86 28.5 154t78 114.5t115.5 71t141 24.5q72 0 118 -12t72.5 -29.5t37 -36t10.5 -30.5q0 -13 -5.5 -25t-13 -21.5t-15.5 -16.5t-14 -10q-10 11 -27.5 24t-41.5 24
t-54 18.5t-65 7.5q-51 0 -95 -17.5t-76 -51t-50.5 -81t-18.5 -107.5q0 -61 19.5 -107.5t53.5 -78t80 -47.5t99 -16q63 0 108.5 16t66.5 30l53 -91h1z" />
    <glyph glyph-name="D" unicode="D" horiz-adv-x="746" 
d="M192 104q6 -2 32 -4.5t73 -2.5q136 0 208 64.5t72 182.5q0 54 -16.5 99.5t-50.5 78t-87 51t-126 18.5q-48 0 -74.5 -2.5t-30.5 -3.5v-481zM73 621q0 26 10 41t35.5 22.5t68 9.5t108.5 2q95 0 170.5 -24.5t128 -70t80.5 -111t28 -146.5q0 -82 -27 -147.5t-79.5 -111.5
t-130 -70.5t-178.5 -24.5q-107 0 -158 4.5t-56 5.5v621z" />
    <glyph glyph-name="E" unicode="E" horiz-adv-x="638" 
d="M73 618q0 68 73 68h384q60 0 60 -54q0 -19 -6 -34.5t-9 -20.5h-381v-172h322q59 0 59 -54q0 -19 -5.5 -34.5t-9.5 -20.5h-366v-187h390v-109h-511v618z" />
    <glyph glyph-name="F" unicode="F" horiz-adv-x="584" 
d="M73 618q0 68 73 68h355q60 0 60 -54q0 -19 -6 -34.5t-9 -20.5h-352v-182h278q60 0 60 -54q0 -19 -6 -34.5t-9 -20.5h-323v-286h-121v618z" />
    <glyph glyph-name="G" unicode="G" horiz-adv-x="719" 
d="M543 276h-117q-59 0 -59 52q0 20 5.5 35t9.5 20h207q71 0 71 -68v-316q-8 -2 -29 -4.5t-50.5 -5.5t-65.5 -5t-75 -2q-87 0 -160 23t-125.5 68t-82 112.5t-29.5 156.5q0 84 29 151t80 114t120.5 72t150.5 25q41 0 74 -5t58 -12.5t42.5 -15.5t27.5 -15q18 -12 26.5 -25.5
t8.5 -27.5q0 -13 -5.5 -24.5t-13 -21t-15.5 -16.5t-14 -11q-11 11 -28.5 23t-42 21.5t-54.5 16t-66 6.5q-56 0 -102 -17.5t-80 -50.5t-52.5 -80.5t-18.5 -106.5q0 -66 20 -114t57 -78.5t87.5 -45.5t112.5 -15q37 0 64 2t34 4v181z" />
    <glyph glyph-name="H" unicode="H" horiz-adv-x="736" 
d="M73 631q0 28 17 41.5t46 13.5q19 0 35 -5t21 -7v-263h352v220q0 28 16.5 41.5t45.5 13.5q20 0 36 -5t21 -8v-673h-119v302h-352v-302h-119v631z" />
    <glyph glyph-name="I" unicode="I" horiz-adv-x="265" 
d="M73 631q0 28 17 41.5t46 13.5q19 0 35 -5t21 -7v-674h-119v631z" />
    <glyph glyph-name="J" unicode="J" horiz-adv-x="587" 
d="M91 174q6 -9 19 -24t33.5 -29.5t48.5 -25t64 -10.5q32 0 59 8t46.5 26t30 48t10.5 74v390q0 28 16.5 41.5t45.5 13.5q20 0 36 -5t21 -8v-440q0 -57 -16 -103.5t-48.5 -79t-81 -50.5t-114.5 -18q-59 0 -104 16.5t-76 37.5t-48.5 41t-21.5 28z" />
    <glyph glyph-name="K" unicode="K" horiz-adv-x="664" 
d="M73 631q0 28 17 41.5t46 13.5q19 0 35 -5t21 -7v-279l63 59.5l77.5 71.5l74.5 67l54 47q25 20 45.5 33t49.5 13q32 0 52 -13.5t26 -21.5q-5 -5 -26 -23.5l-50 -44.5l-64 -57l-69 -61l-63.5 -57l-48.5 -44q100 -88 187 -178t159 -186h-147q-26 31 -63 71.5l-79.5 83.5
t-88.5 84.5t-89 75.5v-315h-119v631z" />
    <glyph glyph-name="L" unicode="L" horiz-adv-x="550" 
d="M73 631q0 28 17 41.5t46 13.5q19 0 35 -5t21 -7v-565h353v-109h-472v631z" />
    <glyph glyph-name="M" unicode="M" horiz-adv-x="896" 
d="M68 0q1 26 3.5 75t6 109.5l7 126l7 126l6.5 109t5 74.5q2 36 24 51t50 15q31 0 51 -9t28 -17l36.5 -73.5l53 -107l57 -113.5l47.5 -93l42.5 84.5l51 102l48 97l34.5 70.5q14 29 35 44t54 15q29 0 49 -7.5t25 -12.5q2 -28 5 -81l6.5 -117.5l7.5 -135l8 -135t6.5 -117
t4.5 -80.5h-117q-1 16 -3 55.5t-5 91.5t-6 109.5t-6 109l-5.5 91l-3.5 54.5l-24 -48l-32.5 -65.5l-36.5 -74.5l-36.5 -74.5l-32 -66l-23.5 -48.5h-98q-12 27 -35 74.5l-49.5 101.5l-53 107l-47.5 92q-1 -24 -3.5 -64t-5 -89t-5.5 -101.5t-5.5 -101.5l-4.5 -89t-3 -64h-118z
" />
    <glyph glyph-name="N" unicode="N" horiz-adv-x="735" 
d="M73 622q0 35 21.5 49.5t50.5 14.5q28 0 46 -9t25 -14q10 -12 32.5 -42.5l52 -72l63 -90l66.5 -96.5l62.5 -93l51.5 -79v441q0 28 16 41.5t45 13.5q20 0 35.5 -5t20.5 -8v-673h-120l-43 66.5l-55.5 84l-63.5 94.5l-66 97.5l-64.5 93l-57.5 80.5v-516h-118v622z" />
    <glyph glyph-name="O" unicode="O" horiz-adv-x="819" 
d="M409 704q78 0 144.5 -27.5t116 -76t77.5 -114.5t28 -143t-28 -143t-77.5 -114.5t-116 -76t-144.5 -27.5t-144.5 27.5t-116 76t-77.5 114.5t-28 143t28 143t77.5 114.5t116 76t144.5 27.5zM409 91q52 0 96 19t76 52.5t50.5 79.5t18.5 101t-18.5 101.5t-50.5 80t-76 52
t-96 18.5t-96 -18.5t-76.5 -52t-50.5 -80t-18 -101.5t18 -101t50.5 -79.5t76.5 -52.5t96 -19z" />
    <glyph glyph-name="P" unicode="P" horiz-adv-x="662" 
d="M189 345l39 -5.5t82 -4.5q55 0 92 10t58.5 28t30.5 41.5t9 50.5q0 25 -8 48.5t-30 41.5t-60.5 29t-98.5 11q-48 0 -77 -2t-37 -4v-244zM73 621q0 32 16 46t39 19q16 3 58 6.5t120 3.5q160 0 238 -63t78 -168q0 -49 -16.5 -91.5t-52.5 -73.5t-94 -48.5t-141 -17.5
q-21 0 -42.5 1.5t-39.5 3t-31 3.5t-16 2v-244h-116v621z" />
    <glyph glyph-name="Q" unicode="Q" horiz-adv-x="819" 
d="M567 18q-33 -17 -74 -25.5t-84 -8.5q-78 0 -144.5 27.5t-116 75.5t-77.5 113.5t-28 142.5t28 143t77.5 114.5t116 76t144.5 27.5t144.5 -27.5t116 -76t77.5 -114.5t28 -143q0 -81 -31.5 -149.5t-85.5 -115.5l92 -115l-88 -67zM442 176q-11 14 -19 27.5t-8 26.5
q0 15 7.5 25.5t19 17t25.5 10t28 4.5l91 -119q29 29 46.5 74.5t17.5 100.5t-18.5 101.5t-50.5 80t-76 52t-96 18.5t-96 -18.5t-76.5 -52t-50.5 -80t-18 -101.5t18 -101.5t50.5 -80t76.5 -52.5t96 -19q49 0 88 18z" />
    <glyph glyph-name="R" unicode="R" horiz-adv-x="672" 
d="M73 621q0 32 16 46t39 19q15 3 56 6.5t119 3.5q157 0 235 -60t78 -163q0 -72 -34.5 -119t-94.5 -73q21 -29 42.5 -64l42.5 -72.5l40.5 -74.5l36.5 -70h-138q-8 17 -26 51.5l-39 73l-42 74t-35 54.5q-17 -2 -35.5 -3t-34.5 -1q-35 0 -66 2.5t-44 4.5v-256h-116v621z
M189 358q13 -2 39 -5t75 -3q54 0 90.5 9t59 25t32 38.5t9.5 49.5q0 25 -9 47t-31 39t-59.5 27t-94.5 10q-50 0 -76.5 -2t-34.5 -4v-231z" />
    <glyph glyph-name="S" unicode="S" horiz-adv-x="689" 
d="M95 157q11 -8 33 -19.5t54.5 -23t74 -19.5t90.5 -8q87 0 124.5 25.5t37.5 72.5q0 23 -8.5 39t-25 27.5t-40 18.5t-53.5 12l-110 20q-42 7 -81 21t-69 37t-48 56.5t-18 80.5q0 42 15.5 80t49.5 66t86 44.5t126 16.5q54 0 94 -6t68 -14.5t45 -17.5t25 -14q16 -11 26 -24
t10 -30q0 -23 -14 -42.5t-26 -27.5q-9 10 -28.5 22.5t-48 23.5t-66.5 19t-83 8t-75.5 -7t-48.5 -19.5t-26 -30t-8 -39.5q0 -38 29.5 -59.5t98.5 -34.5l112 -21q109 -20 164 -65.5t55 -131.5q0 -48 -19 -86.5t-55.5 -66.5t-91 -43t-125.5 -15q-60 0 -110 9.5t-89 23t-65 27.5
t-38 22z" />
    <glyph glyph-name="T" unicode="T" horiz-adv-x="655" 
d="M264 577h-200q-59 0 -59 54q0 19 6 34.5t9 20.5h571q59 0 59 -54q0 -19 -5.5 -34.5t-9.5 -20.5h-252v-577h-119v577z" />
    <glyph glyph-name="U" unicode="U" horiz-adv-x="756" 
d="M66 631q0 28 16.5 41.5t45.5 13.5q20 0 36 -5t21 -8v-355q0 -57 10 -99.5t32.5 -71t59.5 -43t91 -14.5t91 14.5t59.5 43t32.5 71t10 99.5v313q0 28 16.5 41.5t45.5 13.5q20 0 36 -5t21 -8v-365q0 -158 -78 -242t-234 -84t-234 84t-78 242v323z" />
    <glyph glyph-name="V" unicode="V" horiz-adv-x="692" 
d="M272 0l-51 105.5l-51 111l-47.5 108l-41 96.5l-31.5 75.5l-19 46.5q-11 26 -18.5 48.5t-7.5 42.5q0 24 14.5 38t43.5 14q23 0 38 -6t19 -8q18 -53 44.5 -121.5l56 -142.5l60.5 -147.5l59 -136.5q22 48 48.5 112l53.5 132l53 134.5l47 119.5q14 35 30 49.5t49 14.5
q26 0 43.5 -9.5t22.5 -12.5l-25.5 -65l-41.5 -101.5l-52 -124l-57 -133.5l-56.5 -129l-50.5 -111h-132z" />
    <glyph glyph-name="W" unicode="W" horiz-adv-x="1003" 
d="M225 0l-32 81l-37.5 98.5l-38.5 104.5l-35 99l-28.5 81.5t-17.5 52.5l-20 64t-9 48q0 26 15.5 41.5t45.5 15.5q23 0 37.5 -6t18.5 -8q7 -28 18.5 -67l26 -85l30.5 -96l32.5 -99.5l32 -96t29.5 -84.5l38.5 132l39.5 140l34 124l22 84q8 28 23.5 45t49.5 17q23 0 41 -6
t23 -9l28 -116.5l34 -134l37.5 -140.5l38.5 -135l44 130.5l41.5 129.5l36 118.5l28.5 97.5q10 34 27 49.5t49 15.5q28 0 46 -8.5t22 -11.5q-18 -66 -45 -147.5l-57.5 -170l-64 -178l-65.5 -170.5h-134q-6 17 -16 48.5t-21.5 71.5l-25 86.5t-26 94l-24 92.5l-20.5 83
q-9 -37 -21 -82l-25 -91.5l-26.5 -92.5l-26 -86.5l-23 -72.5t-17.5 -51h-133z" />
    <glyph glyph-name="X" unicode="X" horiz-adv-x="694" 
d="M12 0q15 22 42 58l61 81l73 96l78 102l-99.5 118l-71 86t-42.5 58.5t-14 36.5q0 21 14.5 35.5t40.5 14.5q18 0 30 -4t18 -7l33 -41.5l45.5 -57.5l55.5 -69.5l62 -76.5l73.5 97l51.5 69.5t36 46t27 27t24.5 13t28.5 3.5q15 0 27 -4t21.5 -9t15.5 -10t9 -8l-36.5 -46
l-57 -72l-71.5 -90l-79 -101l86.5 -107l79.5 -99l65 -82.5l43 -57.5h-145l-35 45.5l-47 61l-56.5 71l-62.5 76.5l-58 -75.5l-52.5 -70.5l-45 -61l-33.5 -47h-135z" />
    <glyph glyph-name="Y" unicode="Y" horiz-adv-x="666" 
d="M268 258q-24 28 -53.5 67l-59.5 78.5l-56 75l-42 58.5q-18 25 -35 51.5t-17 47.5q0 23 15 36.5t40 13.5q20 0 32.5 -5l17.5 -7l42 -62l58.5 -83.5l63.5 -88.5l57 -76l49.5 68.5l50 73l47 71.5l40.5 63q11 17 28 31.5t48 14.5q27 0 45 -10.5t22 -14.5q-9 -18 -27 -47.5
l-41.5 -65l-50.5 -75l-54.5 -78l-53.5 -74l-47 -63.5v-258h-119v258z" />
    <glyph glyph-name="Z" unicode="Z" horiz-adv-x="640" 
d="M13 111l121.5 120.5l122 124l113 118.5l95.5 103h-373q-60 0 -60 54q0 19 6 34.5t10 20.5h487q81 0 81 -65q0 -29 -19.5 -57t-51.5 -64l-87 -94.5l-98.5 -104l-100 -102.5l-89.5 -90h443v-109h-600v111z" />
    <glyph glyph-name="bracketleft" unicode="[" horiz-adv-x="351" 
d="M73 672q0 64 67 64h187q5 -11 8.5 -26.5t3.5 -30.5q0 -20 -9.5 -34t-44.5 -14h-103v-655h150v-105h-259v801z" />
    <glyph glyph-name="backslash" unicode="\" horiz-adv-x="343" 
d="M0 712q5 7 20 16t39 9q25 0 37 -12.5t20 -34.5l228 -699h-109z" />
    <glyph glyph-name="bracketright" unicode="]" horiz-adv-x="351" 
d="M18 -129v105h150v655h-103q-35 0 -44.5 14t-9.5 34q0 15 3.5 30.5t8.5 26.5h187q67 0 67 -64v-801h-259z" />
    <glyph glyph-name="asciicircum" unicode="^" horiz-adv-x="496" 
d="M169 627q18 36 37.5 48t42.5 12t36.5 -7.5t20.5 -12.5l166 -330h-111l-115 236l-117 -236h-106z" />
    <glyph glyph-name="underscore" unicode="_" horiz-adv-x="500" 
d="M0 -70h500v-59h-500v59z" />
    <glyph glyph-name="grave" unicode="`" horiz-adv-x="500" 
d="M139 659q0 4 3.5 14t10 20.5t17.5 18t28 7.5q23 0 54 -22l109 -79l-37 -52z" />
    <glyph glyph-name="a" unicode="a" horiz-adv-x="569" 
d="M510 2q-10 -2 -31.5 -4.5t-50.5 -5t-65 -4.5t-75 -2q-78 0 -127.5 13.5t-78 36t-39 52t-10.5 60.5q0 41 12.5 72t41 52t74.5 31.5t112 10.5q38 0 72 -2.5t51 -4.5q0 35 -11.5 58t-31.5 36t-48 18t-62 5q-57 0 -91.5 -13t-45.5 -22q-6 5 -16.5 19t-10.5 34q0 14 7.5 27.5
t26.5 24t51 16.5t81 6q59 0 107.5 -11.5t83.5 -36.5t54.5 -66t19.5 -99v-301zM397 224q-10 2 -37.5 6t-82.5 4q-68 0 -99 -20.5t-31 -64.5q0 -18 6.5 -33t22.5 -25.5t43.5 -16t68.5 -5.5q46 0 73 3.5t36 5.5v146z" />
    <glyph glyph-name="b" unicode="b" horiz-adv-x="625" 
d="M46 684q0 27 16 40t45 13q18 0 33 -4.5t20 -6.5v-287q25 32 69 54.5t101 22.5q55 0 101.5 -19.5t81 -55t54 -84t19.5 -106.5q0 -57 -20 -106t-56 -84t-85.5 -55t-108.5 -20t-108.5 18t-85.5 54t-56 90t-20 127v409zM314 89q34 0 62.5 12.5t49 34t31.5 51t11 64.5t-11 65
t-31.5 51.5t-49 34t-62.5 12.5q-35 0 -63.5 -12.5t-48.5 -34.5t-31.5 -52t-11.5 -64q0 -36 11.5 -66t32 -51t49 -33t62.5 -12z" />
    <glyph glyph-name="c" unicode="c" horiz-adv-x="501" 
d="M494 36q-12 -8 -29.5 -16.5t-40 -16t-51 -12.5t-64.5 -5q-56 0 -105 17t-86 50.5t-58.5 82.5t-21.5 113t21 114t58 84t87.5 51.5t108.5 17.5q49 0 83.5 -8t56 -20t31 -27t9.5 -30q0 -20 -13.5 -37t-25.5 -26q-18 17 -52 32.5t-84 15.5q-34 0 -63.5 -10t-51 -30.5t-34 -51
t-12.5 -72.5q0 -44 13 -75t36 -51t53 -29.5t65 -9.5q50 0 80.5 13.5t41.5 20.5z" />
    <glyph glyph-name="d" unicode="d" horiz-adv-x="625" 
d="M465 684q0 27 15.5 40t44.5 13q18 0 33 -4.5t20 -6.5v-451q0 -73 -20.5 -127t-56.5 -90t-85 -54t-107 -18q-59 0 -108.5 20t-85.5 55t-56.5 84t-20.5 106q0 58 19.5 106.5t54 84t81 55t101.5 19.5q58 0 102 -22.5t69 -54.5v245zM465 251q0 34 -11.5 64t-31.5 52
t-48.5 34.5t-62.5 12.5q-35 0 -63 -12.5t-48.5 -34t-31.5 -51.5t-11 -65t11 -64.5t31.5 -51t48.5 -34t63 -12.5q34 0 62.5 12t48.5 33t31.5 51t11.5 66z" />
    <glyph glyph-name="e" unicode="e" horiz-adv-x="551" 
d="M505 37q-8 -5 -25 -14t-42.5 -17t-59 -14t-73.5 -6q-56 0 -104.5 17t-85 50.5t-57.5 82t-21 111.5q0 60 20.5 109.5t57 85t86 55t108.5 19.5q52 0 92 -13.5t67.5 -36t41.5 -52.5t14 -64q0 -35 -13 -63.5t-46 -49t-89 -32t-142 -11.5q-20 0 -37.5 0.5t-37.5 1.5
q8 -51 49.5 -82.5t118.5 -31.5q26 0 48 4t39.5 10t30 12l18.5 9zM154 274q23 -1 44 -1h42q55 0 89 7t53 18t25 25t6 29q0 38 -30.5 57t-75.5 19q-37 0 -65 -13t-47 -34.5t-29.5 -49.5t-11.5 -57z" />
    <glyph glyph-name="f" unicode="f" horiz-adv-x="375" 
d="M61 533q0 54 15 93t42.5 63.5t65 36t82.5 11.5q82 0 116 -19.5t34 -49.5q0 -17 -9.5 -30t-20.5 -20q-16 13 -43.5 21t-58.5 8q-59 0 -84 -30t-25 -85v-30h150q33 0 46.5 -13.5t13.5 -39.5q0 -17 -5 -31.5t-8 -20.5h-197v-397h-114v533z" />
    <glyph glyph-name="g" unicode="g" horiz-adv-x="625" 
d="M121 -86q4 -2 17.5 -7.5t34 -11t48 -9.5t59.5 -4q34 0 67 7.5t59 27t42.5 54.5t16.5 90v12q-23 -27 -66.5 -51t-104.5 -24q-56 0 -103 18.5t-81 52t-53 80.5t-19 104t20.5 105t56.5 83t86.5 55t110.5 20q57 0 105.5 -17t84.5 -52t56 -89t20 -127v-144q0 -79 -21.5 -135.5
t-59.5 -92.5t-90.5 -52.5t-114.5 -16.5q-41 0 -74.5 4.5t-59.5 11t-43 13t-25 10.5zM311 94q34 0 62 12t48 33t31.5 50t11.5 64q0 34 -11.5 63.5t-31.5 51t-48 33.5t-62 12q-35 0 -63.5 -12.5t-48.5 -34.5t-31 -51t-11 -62q0 -72 42 -115.5t112 -43.5z" />
    <glyph glyph-name="h" unicode="h" horiz-adv-x="603" 
d="M58 684q0 27 16 40t45 13q18 0 33 -4.5t20 -6.5v-275q20 24 60 45t104 21q46 0 84.5 -13t66.5 -38.5t43 -63.5t15 -89v-313h-114v279q0 66 -27.5 100t-94.5 34q-68 0 -102.5 -39.5t-34.5 -104.5v-269h-114v684z" />
    <glyph glyph-name="i" unicode="i" horiz-adv-x="241" 
d="M63 449q0 28 16 40.5t45 12.5q18 0 33 -4.5t20 -6.5v-491h-114v449zM120 727q29 0 49 -20t20 -49t-20 -49t-49 -20t-49 20t-20 49t20 49t49 20z" />
    <glyph glyph-name="j" unicode="j" horiz-adv-x="241" 
d="M-100 -103q12 -6 31.5 -10.5t41.5 -4.5q17 0 33.5 3.5t29 13.5t20 27.5t7.5 46.5v476q0 28 16 40.5t45 12.5q18 0 33 -4.5t20 -6.5v-509q0 -56 -15.5 -93t-41.5 -59t-59.5 -31t-69.5 -9q-20 0 -39 3t-35.5 6.5t-28.5 8t-18 7.5zM120 727q29 0 49 -20t20 -49t-20 -49
t-49 -20t-49 20t-20 49t20 49t49 20z" />
    <glyph glyph-name="k" unicode="k" horiz-adv-x="557" 
d="M58 684q0 27 16 40t45 13q18 0 33 -4.5t20 -6.5v-409l36.5 26.5l52.5 38.5l60 44l59 43q22 16 40 24.5t47 8.5q27 0 46 -14.5t24 -24.5q-21 -19 -57.5 -46.5l-74.5 -55l-72 -51l-49 -34.5q85 -63 155 -136.5t118 -139.5h-142q-23 28 -51.5 58.5t-61 60t-66 57t-64.5 50.5
v-226h-114v684z" />
    <glyph glyph-name="l" unicode="l" horiz-adv-x="241" 
d="M63 684q0 27 16 40t45 13q18 0 33 -4.5t20 -6.5v-726h-114v684z" />
    <glyph glyph-name="m" unicode="m" horiz-adv-x="929" 
d="M58 323q0 48 17 84t46.5 60t69.5 36.5t87 12.5q62 0 111 -23t78 -68q29 45 77 68t109 23q46 0 86 -12t69 -36t46 -60t17 -84v-324h-114v285q0 69 -31 98.5t-84 29.5q-51 0 -85.5 -33t-34.5 -107v-273h-114v273q0 74 -34.5 107t-85.5 33q-52 0 -84 -30t-32 -99v-284h-114
v323z" />
    <glyph glyph-name="n" unicode="n" horiz-adv-x="604" 
d="M58 303q0 50 18.5 89.5t51 67t77 42t97.5 14.5t98 -14.5t77.5 -42t50.5 -67t18 -89.5v-303h-114v274q0 68 -33 103.5t-97 35.5q-65 0 -97.5 -35.5t-32.5 -103.5v-274h-114v303z" />
    <glyph glyph-name="o" unicode="o" horiz-adv-x="626" 
d="M313 516q58 0 108.5 -20t87.5 -55.5t58 -84t21 -105.5q0 -56 -21 -104.5t-58 -84t-87.5 -56t-108.5 -20.5t-108.5 20.5t-87.5 56t-58 84t-21 104.5q0 57 21 105.5t58 84t87.5 55.5t108.5 20zM313 87q34 0 63 12.5t49.5 35t32 52t11.5 64.5t-11.5 65.5t-32 52.5
t-49.5 34.5t-63 12.5q-35 0 -63.5 -12.5t-49 -34.5t-32 -52.5t-11.5 -65.5t11.5 -64.5t32 -52t49 -35t63.5 -12.5z" />
    <glyph glyph-name="p" unicode="p" horiz-adv-x="625" 
d="M46 228q0 70 20 123.5t56 90t87 55.5t113 19q57 0 105 -20t83.5 -55t55.5 -84t20 -106q0 -58 -19.5 -106.5t-54 -83.5t-81 -54.5t-101.5 -19.5q-57 0 -101 22t-69 54v-263h-114v428zM314 88q34 0 62.5 12.5t49 34.5t31.5 52t11 65q0 34 -11 63.5t-31.5 51t-49 34
t-62.5 12.5t-62.5 -12t-49 -33t-32 -50.5t-11.5 -65.5q0 -35 11.5 -65t31.5 -52t48.5 -34.5t63.5 -12.5z" />
    <glyph glyph-name="q" unicode="q" horiz-adv-x="625" 
d="M465 63q-25 -32 -69 -54t-102 -22q-55 0 -101.5 19.5t-81 54.5t-54 83.5t-19.5 106.5q0 57 20.5 106t56.5 84t85.5 55t108.5 20q61 0 111 -17.5t85 -53t54 -90t19 -127.5v-428h-113v263zM465 252q0 36 -11.5 65.5t-31.5 50.5t-48.5 33t-62.5 12q-35 0 -63 -12.5
t-48.5 -34t-31.5 -51t-11 -63.5q0 -35 11 -65t31.5 -52t48.5 -34.5t63 -12.5q34 0 62.5 12.5t48.5 34.5t31.5 52t11.5 65z" />
    <glyph glyph-name="r" unicode="r" horiz-adv-x="416" 
d="M58 323q0 92 56.5 142.5t156.5 50.5q63 0 102.5 -17.5t39.5 -53.5q0 -17 -9.5 -33t-15.5 -20q-17 8 -42 15t-57 7q-117 0 -117 -124v-290h-114v323z" />
    <glyph glyph-name="s" unicode="s" horiz-adv-x="549" 
d="M71 125q7 -5 25 -13t44.5 -16.5t60.5 -14.5t74 -6q52 0 85 13.5t33 46.5q0 28 -21 42.5t-75 20.5l-78 9q-40 4 -73.5 14.5t-57.5 28.5t-37.5 44.5t-13.5 63.5q0 32 12.5 60.5t39.5 50.5t70.5 34.5t105.5 12.5q104 0 161.5 -23t57.5 -60q0 -12 -4.5 -21t-10 -16
t-11.5 -11.5t-9 -5.5q-4 4 -17.5 12.5t-36.5 17t-55 15t-74 6.5q-116 0 -116 -61q0 -26 22 -39.5t63 -18.5l102 -13q83 -11 129 -45.5t46 -101.5q0 -75 -59.5 -120t-171.5 -45q-54 0 -98 8t-76.5 18.5t-52.5 20.5t-26 15z" />
    <glyph glyph-name="t" unicode="t" horiz-adv-x="402" 
d="M61 591q0 28 16 40.5t44 12.5q18 0 33.5 -4.5t20.5 -6.5v-131h145q33 0 46.5 -13.5t13.5 -39.5q0 -17 -5 -31.5t-8 -20.5h-192v-223q0 -26 7 -42.5t19.5 -26.5t29 -14t34.5 -4q29 0 54 9t36 17l46 -76q-8 -6 -22.5 -15t-35.5 -17t-47 -13.5t-57 -5.5q-88 0 -133 45.5
t-45 119.5v440z" />
    <glyph glyph-name="u" unicode="u" horiz-adv-x="605" 
d="M58 449q0 28 16 40.5t45 12.5q18 0 33 -4.5t20 -6.5v-263q0 -68 32 -103.5t98 -35.5t98 35.5t32 103.5v221q0 28 16 40.5t44 12.5q19 0 34 -4.5t20 -6.5v-288q0 -51 -17.5 -91.5t-50 -68.5t-77.5 -42.5t-99 -14.5t-99 14.5t-77 42.5t-50 68.5t-18 91.5v246z" />
    <glyph glyph-name="v" unicode="v" horiz-adv-x="563" 
d="M219 0l-86 163.5t-67 136.5t-43 100t-15 52q0 21 14 35.5t43 14.5q21 0 34.5 -4t15.5 -6q20 -54 43 -109.5l45.5 -105l42 -90l32.5 -66.5q19 36 41 85l42.5 97l37 87.5t23.5 57.5q10 25 24 39.5t44 14.5q28 0 45.5 -9.5t19.5 -11.5q-6 -21 -20.5 -57.5t-35 -81.5l-44 -94
l-46.5 -95.5l-43.5 -86.5l-34.5 -66h-112z" />
    <glyph glyph-name="w" unicode="w" horiz-adv-x="816" 
d="M173 0l-80.5 195t-50 132.5t-26 81t-7.5 40.5q0 21 14 37t43 16q22 0 34.5 -4t16.5 -6q12 -44 27 -93.5l31 -98.5l31.5 -93.5l27.5 -79.5q11 31 23.5 71l26 82.5l26.5 86l24 82.5q8 26 22.5 39.5t46.5 13.5q20 0 36 -5.5t20 -7.5l28 -94.5l30 -97.5l29.5 -92l26.5 -78
q26 69 53.5 151t50.5 164q9 31 23.5 45.5t44.5 14.5q27 0 44 -9t19 -11q-8 -33 -28 -91l-45 -125.5l-53 -138t-53 -127.5h-118q-8 21 -21.5 61.5l-29.5 88.5l-31.5 98.5l-28.5 92.5l-28.5 -92.5l-31 -98.5l-28.5 -88.5t-21 -61.5h-118z" />
    <glyph glyph-name="x" unicode="x" horiz-adv-x="572" 
d="M5 0q5 7 24 30.5l46.5 57l61 74l68.5 81.5l-80.5 84.5t-54.5 56.5t-31 40t-10 34t13 30.5t43 13.5q18 0 32 -4.5t18 -6.5q4 -5 18.5 -21.5l35 -39.5l43.5 -50l46 -52l38.5 47l35.5 42.5l27.5 33t14.5 17.5q16 17 32 25.5t38 8.5q28 0 48 -11.5t25 -18.5l-26.5 -30.5
l-43.5 -51l-55.5 -65.5l-62.5 -74l71 -82l64.5 -74l51 -59t29.5 -36h-141l-59.5 69.5l-87.5 99.5l-82.5 -99.5t-55.5 -69.5h-134z" />
    <glyph glyph-name="y" unicode="y" horiz-adv-x="605" 
d="M58 449q0 27 16 40t44 13q18 0 33.5 -4.5t20.5 -6.5v-267q0 -59 31.5 -94t97.5 -35q61 0 96 35.5t35 104.5v214q0 27 16 40t44 13q18 0 33.5 -4.5t20.5 -6.5v-438q0 -71 -19 -120.5t-54 -81.5t-84 -46.5t-109 -14.5q-41 0 -75 4.5t-60.5 10.5t-43.5 11.5t-24 8.5
q8 21 15 42.5l14 42.5q7 -3 22 -8t36 -9.5t47.5 -7.5t56.5 -3q39 0 70 8.5t52.5 29.5t33 55.5t11.5 86.5q-20 -29 -62.5 -46.5t-93.5 -17.5q-48 0 -89 13.5t-70 39t-45.5 63.5t-16.5 87v248z" />
    <glyph glyph-name="z" unicode="z" horiz-adv-x="542" 
d="M25 99l77.5 68.5l90.5 82.5l88 81.5l69 66.5h-265q-33 0 -46.5 13t-13.5 38q0 17 5 32t8 21h407q29 0 46 -13.5t17 -41.5q0 -19 -9 -35.5t-34 -41.5l-39.5 -38.5l-50.5 -47.5l-56 -51.5l-56 -51l-51 -45.5l-41 -36h338v-100h-484v99z" />
    <glyph glyph-name="braceleft" unicode="{" horiz-adv-x="363" 
d="M127 152q0 54 -25 75.5t-69 21.5h-15v108h15q44 0 69 21.5t25 75.5v108q0 41 7.5 73t24 54.5t43.5 34.5t67 12h70q5 -11 8.5 -26.5t3.5 -30.5q0 -20 -8.5 -34t-38.5 -14h-7q-34 0 -46 -17t-12 -47v-126q0 -32 -5.5 -54t-15 -38t-23.5 -26.5t-31 -18.5q19 -10 33.5 -21.5
t23.5 -29t13.5 -43t4.5 -63.5v-107q0 -28 11.5 -46t51.5 -18h42v-105h-75q-80 0 -111 44t-31 129v108z" />
    <glyph glyph-name="bar" unicode="|" horiz-adv-x="252" 
d="M73 689q0 24 15 36t41 12q18 0 31 -4t18 -6v-859h-105v821z" />
    <glyph glyph-name="braceright" unicode="}" horiz-adv-x="363" 
d="M18 -129v105h42q40 0 51.5 18t11.5 46v107q0 38 4.5 63.5t13.5 43t23 29t34 21.5q-17 8 -31 18.5t-24 26.5t-15 38t-5 54v126q0 30 -12 47t-46 17h-7q-30 0 -38.5 14t-8.5 34q0 15 3.5 30.5t8.5 26.5h70q79 0 110.5 -46t31.5 -128v-108q0 -54 25 -75.5t69 -21.5h15v-108
h-15q-44 0 -69 -21.5t-25 -75.5v-108q0 -85 -31.5 -129t-110.5 -44h-75z" />
    <glyph glyph-name="asciitilde" unicode="~" horiz-adv-x="627" 
d="M36 258q1 42 13 73t31.5 52t45.5 31t56 10q29 0 51.5 -4.5t42.5 -11.5l75 -26q26 -9 43.5 -13.5t37.5 -4.5q28 0 41.5 16.5t18.5 46.5h90q-2 -36 -11 -67t-25.5 -53.5t-41 -35t-56.5 -12.5q-16 0 -35.5 2.5t-33.5 7.5l-107 34q-25 8 -46 13t-40 5q-26 0 -41 -17t-18 -46
h-91z" />
    <glyph glyph-name="Euro" unicode="&#x20ac;" horiz-adv-x="650" 
d="M37 293h72q-1 11 -1 22v22v23.5t2 22.5h-73v72h83q15 62 44 109t69.5 78t90.5 46.5t105 15.5q62 0 101 -10.5t61 -25t30 -30.5t8 -26q0 -13 -5 -23.5t-12.5 -19.5t-16 -15t-15.5 -10q-7 8 -20 17.5t-31.5 17.5t-42.5 13.5t-54 5.5q-63 0 -115 -32.5t-75 -110.5h235
q23 0 31 -10t8 -24q0 -20 -10 -38h-276q-2 -11 -2 -22.5v-23.5v-22.5t1 -21.5h209q38 0 38 -32q0 -15 -11 -39h-219q23 -69 75.5 -101t114.5 -32q24 0 47.5 4t44.5 10t37 12.5t24 11.5l45 -86l-25 -15t-43 -20t-60.5 -17t-77.5 -7q-48 0 -96 13t-90 41.5t-74 74t-48 111.5
h-83v71z" />
    <glyph glyph-name="quotesinglbase" unicode="&#x201a;" horiz-adv-x="307" 
d="M96 88q8 26 22 39t40 13q15 0 27 -4t21 -9t15 -10t8 -8l-115 -268l-82 32z" />
    <glyph glyph-name="florin" unicode="&#x192;" horiz-adv-x="470" 
d="M-125 -104q10 -5 28.5 -9.5t39.5 -4.5q17 0 33 4t29.5 15.5t23.5 32.5t15 56l75 536q8 58 28 98t50 65t69 36.5t85 11.5q40 0 66.5 -5.5t42.5 -14.5t22.5 -20.5t6.5 -23.5q0 -20 -12.5 -34t-24.5 -21q-14 13 -40 21t-58 8q-56 0 -85.5 -30.5t-36.5 -88.5l-3 -26h140
q58 0 58 -49q0 -17 -6 -33.5t-10 -22.5h-197l-57 -403q-9 -60 -28.5 -99.5t-47 -63t-60.5 -32.5t-67 -9q-44 0 -74.5 9.5t-41.5 14.5z" />
    <glyph glyph-name="quotedblbase" unicode="&#x201e;" horiz-adv-x="515" 
d="M128 88q8 26 21.5 39t40.5 13q15 0 27 -4t21 -9t15 -10t8 -8l-116 -268l-82 32zM343 88q8 26 21.5 39t40.5 13q15 0 27 -4t21 -9t15 -10t8 -8l-116 -268l-82 32z" />
    <glyph glyph-name="ellipsis" unicode="&#x2026;" horiz-adv-x="899" 
d="M73 63q0 16 6 30t16.5 24.5t25 16.5t30.5 6q32 0 54.5 -22.5t22.5 -54.5q0 -16 -6 -30.5t-16.5 -25t-24.5 -17t-30 -6.5q-32 0 -55 23.5t-23 55.5zM372 63q0 32 23 54.5t55 22.5t54.5 -22.5t22.5 -54.5q0 -16 -6 -30.5t-16.5 -25t-24.5 -17t-30 -6.5t-30 6.5t-24.5 17
t-17 25t-6.5 30.5zM672 63q0 16 6 30t16.5 24.5t25 16.5t30.5 6q32 0 54.5 -22.5t22.5 -54.5q0 -16 -6 -30.5t-16.5 -25t-24.5 -17t-30 -6.5q-32 0 -55 23.5t-23 55.5z" />
    <glyph glyph-name="dagger" unicode="&#x2020;" horiz-adv-x="515" 
d="M200 397h-132q-33 0 -47 13.5t-14 38.5q0 17 5.5 32t8.5 21h179v182q0 27 16 40t45 13q18 0 33 -4.5t20 -6.5v-224h133q33 0 46.5 -13.5t13.5 -39.5q0 -17 -5 -31.5t-8 -20.5h-180v-597h-114v597z" />
    <glyph glyph-name="daggerdbl" unicode="&#x2021;" horiz-adv-x="563" 
d="M224 11h-132q-33 0 -47 13.5t-14 38.5q0 17 5.5 32t8.5 21h179v281h-132q-33 0 -47 13.5t-14 38.5q0 17 5.5 32t8.5 21h179v182q0 27 16 40t45 13q18 0 33 -4.5t20 -6.5v-224h133q33 0 46.5 -13.5t13.5 -39.5q0 -17 -5 -31.5t-8 -20.5h-180v-281h133q33 0 46.5 -13.5
t13.5 -39.5q0 -17 -5 -31.5t-8 -20.5h-180v-211h-114v211z" />
    <glyph glyph-name="circumflex" unicode="&#x2c6;" horiz-adv-x="500" 
d="M92 614l94 75q14 11 30 21.5t34 10.5t34.5 -10t30.5 -21l93 -76l-41 -48l-117 72l-117 -72z" />
    <glyph glyph-name="perthousand" unicode="&#x2030;" horiz-adv-x="1375" 
d="M602 698q9 16 20.5 27.5t38.5 11.5q23 0 38 -8t19 -12l-408 -717h-107zM219 349q-42 0 -77 15t-60 41t-39 61.5t-14 76.5t14 76.5t39 61.5t60 41t77 15t77 -15t60 -41t39 -61.5t14 -76.5t-14 -76.5t-39 -61.5t-60 -41t-77 -15zM219 436q44 0 68.5 31t24.5 76t-24.5 76
t-68.5 31t-68.5 -31t-24.5 -76t24.5 -76t68.5 -31zM710 -14q-42 0 -77 15t-60 41t-39 61.5t-14 76.5t14 76.5t39 61.5t60 41t77 15t77 -15t60 -41t39 -61.5t14 -76.5t-14 -76.5t-39 -61.5t-60 -41t-77 -15zM710 73q44 0 68.5 31t24.5 76t-24.5 76t-68.5 31t-68.5 -31
t-24.5 -76t24.5 -76t68.5 -31zM1156 -14q-42 0 -77 15t-60 41t-39 61.5t-14 76.5t14 76.5t39 61.5t60 41t77 15t77 -15t60 -41t39 -61.5t14 -76.5t-14 -76.5t-39 -61.5t-60 -41t-77 -15zM1156 73q44 0 68.5 31t24.5 76t-24.5 76t-68.5 31t-68.5 -31t-24.5 -76t24.5 -76
t68.5 -31z" />
    <glyph glyph-name="Scaron" unicode="&#x160;" horiz-adv-x="689" 
d="M95 157q11 -8 33 -19.5t54.5 -23t74 -19.5t90.5 -8q87 0 124.5 25.5t37.5 72.5q0 23 -8.5 39t-25 27.5t-40 18.5t-53.5 12l-110 20q-42 7 -81 21t-69 37t-48 56.5t-18 80.5q0 42 15.5 80t49.5 66t86 44.5t126 16.5q54 0 94 -6t68 -14.5t45 -17.5t25 -14q16 -11 26 -24
t10 -30q0 -23 -14 -42.5t-26 -27.5q-9 10 -28.5 22.5t-48 23.5t-66.5 19t-83 8t-75.5 -7t-48.5 -19.5t-26 -30t-8 -39.5q0 -38 29.5 -59.5t98.5 -34.5l112 -21q109 -20 164 -65.5t55 -131.5q0 -48 -19 -86.5t-55.5 -66.5t-91 -43t-125.5 -15q-60 0 -110 9.5t-89 23t-65 27.5
t-38 22zM228 895l128 -69l64.5 34.5l63.5 34.5l45 -48l-103 -75q-15 -11 -32.5 -20t-37.5 -9t-38 9t-32 20l-103 75z" />
    <glyph glyph-name="guilsinglleft" unicode="&#x2039;" horiz-adv-x="319" 
d="M55 202q-9 9 -16 21.5t-7 25.5q0 12 5 21.5t12 17.5l170 186l67 -60l-139 -164l139 -160l-67 -60z" />
    <glyph glyph-name="OE" unicode="&#x152;" horiz-adv-x="1196" 
d="M644 103q-16 -27 -42 -48.5t-58 -37.5t-69.5 -24.5t-76.5 -8.5q-74 0 -139 26.5t-113 74t-75.5 113.5t-27.5 145t26.5 145t73.5 113.5t111.5 74t141.5 26.5q49 0 89.5 -11.5t72 -28.5t53.5 -37t34 -37v41q0 20 16 38.5t50 18.5h377q59 0 59 -54q0 -19 -5.5 -34.5
t-9.5 -20.5h-371v-173h313q59 0 59 -53q0 -19 -6 -34.5t-9 -20.5h-357v-188h380v-108h-497v103zM405 92q51 0 95 18.5t75.5 52t49.5 79.5t18 101t-18 101t-49.5 79t-75.5 51.5t-95 18.5t-94.5 -18t-75 -51t-49.5 -79t-18 -102t18 -102t49.5 -79t75 -51.5t94.5 -18.5z" />
    <glyph glyph-name="quoteleft" unicode="&#x2018;" horiz-adv-x="300" 
d="M39 705q5 6 23.5 19t48.5 13q26 0 40 -13t22 -39l64 -216l-82 -31z" />
    <glyph glyph-name="quoteright" unicode="&#x2019;" horiz-adv-x="300" 
d="M127 685q8 26 22 39t40 13q30 0 48 -13t23 -19l-115 -267l-83 31z" />
    <glyph glyph-name="quotedblleft" unicode="&#x201c;" horiz-adv-x="515" 
d="M255 705q5 6 23 19t48 13q26 0 40 -13t22 -39l64 -216l-82 -31zM39 705q5 6 23.5 19t48.5 13q26 0 40 -13t22 -39l64 -216l-82 -31z" />
    <glyph glyph-name="quotedblright" unicode="&#x201d;" horiz-adv-x="515" 
d="M128 685q8 26 21.5 39t40.5 13q29 0 47.5 -13t23.5 -19l-116 -267l-82 31zM343 685q8 26 21.5 39t40.5 13q29 0 47.5 -13t23.5 -19l-116 -267l-82 31z" />
    <glyph glyph-name="bullet" unicode="&#x2022;" horiz-adv-x="491" 
d="M102 342q0 30 11 56t30.5 45.5t45.5 31t57 11.5t57 -11.5t45 -31t30 -45.5t11 -56q0 -29 -11 -55t-30 -45.5t-45 -31t-57 -11.5t-57 11.5t-45.5 31t-30.5 45.5t-11 55z" />
    <glyph glyph-name="endash" unicode="&#x2013;" horiz-adv-x="500" 
d="M447 328q29 0 41 -16.5t12 -41.5q0 -16 -4 -30.5t-7 -21.5h-437q-29 0 -40.5 16t-11.5 42q0 17 4 31t7 21h436z" />
    <glyph glyph-name="emdash" unicode="&#x2014;" horiz-adv-x="1000" 
d="M947 328q29 0 41 -16.5t12 -41.5q0 -16 -4 -30.5t-7 -21.5h-937q-29 0 -40.5 16t-11.5 42q0 17 4 31t7 21h936z" />
    <glyph glyph-name="emdash" unicode="&#x2015;" horiz-adv-x="1000" 
d="M947 328q29 0 41 -16.5t12 -41.5q0 -16 -4 -30.5t-7 -21.5h-937q-29 0 -40.5 16t-11.5 42q0 17 4 31t7 21h936z" />
    <glyph glyph-name="tilde" unicode="&#x2dc;" horiz-adv-x="500" 
d="M75 587q4 19 11.5 37t20 32.5t30.5 23.5t43 9q24 0 40.5 -4.5l30.5 -8.5l24 -7l20.5 -6t22.5 -3q15 0 23.5 8.5t13.5 27.5l70 -13q-4 -19 -11.5 -37t-20 -32.5t-30.5 -23.5t-43 -9q-21 0 -38.5 4.5t-34.5 9.5l-24 8q-22 8 -41 8q-15 0 -23 -9t-13 -29z" />
    <glyph glyph-name="trademark" unicode="&#x2122;" horiz-adv-x="980" 
d="M437 267l9.5 186.5t10.5 186.5q3 44 47 44q11 0 22.5 -3t17.5 -6q35 -59 66 -123t60 -118l52 106.5l52 109.5q16 36 54 36q19 0 33 -6t19 -9q0 -4 2 -33.5t4 -71.5t5 -91l5.5 -93t4 -75.5t2.5 -39.5h-91q-1 26 -2.5 60t-3.5 70l-4 71.5t-4 63.5l-24 -48l-26 -53
l-24.5 -49t-17.5 -37h-71l-45 87.5l-50 94.5q-5 -66 -8 -130t-5 -130h-90zM159 604h-112q-21 0 -31.5 11t-10.5 30q0 14 4.5 25t7.5 16h346q41 0 41 -39q0 -14 -4.5 -26l-6.5 -17h-143v-337h-91v337z" />
    <glyph glyph-name="scaron" unicode="&#x161;" horiz-adv-x="549" 
d="M71 125q7 -5 25 -13t44.5 -16.5t60.5 -14.5t74 -6q52 0 85 13.5t33 46.5q0 28 -21 42.5t-75 20.5l-78 9q-40 4 -73.5 14.5t-57.5 28.5t-37.5 44.5t-13.5 63.5q0 32 12.5 60.5t39.5 50.5t70.5 34.5t105.5 12.5q104 0 161.5 -23t57.5 -60q0 -12 -4.5 -21t-10 -16
t-11.5 -11.5t-9 -5.5q-4 4 -17.5 12.5t-36.5 17t-55 15t-74 6.5q-116 0 -116 -61q0 -26 22 -39.5t63 -18.5l102 -13q83 -11 129 -45.5t46 -101.5q0 -75 -59.5 -120t-171.5 -45q-54 0 -98 8t-76.5 18.5t-52.5 20.5t-26 15zM162 721l118 -72l118 72l39 -48l-93 -76
q-14 -11 -30 -21t-34 -10t-34 10t-30 21l-93 76z" />
    <glyph glyph-name="guilsinglright" unicode="&#x203a;" horiz-adv-x="319" 
d="M173 255l-140 159l68 60l164 -173q8 -8 15 -20.5t7 -25.5q0 -12 -5.5 -22.5t-11.5 -17.5l-169 -185l-68 60z" />
    <glyph glyph-name="oe" unicode="&#x153;" horiz-adv-x="981" 
d="M935 37q-8 -5 -25.5 -14t-43 -17t-58.5 -14t-73 -6q-66 0 -123.5 26t-89.5 77q-34 -48 -89.5 -75.5t-124.5 -27.5q-56 0 -105.5 20t-86 55.5t-57.5 84t-21 105.5t21 106t58 84t86.5 55t106.5 20q69 0 126 -29t89 -79q42 55 97 80t119 25q46 0 85 -12t67.5 -33.5
t44.5 -51.5t16 -66q0 -35 -13.5 -63.5t-46.5 -49t-89 -32t-142 -11.5h-37.5t-36.5 2q8 -51 49 -82.5t119 -31.5q26 0 48 4t39.5 10t29.5 12l18 9zM313 86q33 0 61.5 12t49.5 34t33 52.5t12 66.5t-12 66.5t-33 52.5t-49.5 34t-61.5 12q-35 0 -64 -12.5t-49.5 -34.5t-32 -52.5
t-11.5 -65.5t11.5 -65t32.5 -52.5t49.5 -35t63.5 -12.5zM584 274q23 -1 44 -1h42q55 0 89 7t52.5 18t25 25t6.5 29q0 38 -31 57t-76 19q-35 0 -63 -12.5t-47.5 -33.5t-30 -49t-11.5 -59z" />
    <glyph glyph-name="Ydieresis" unicode="&#x178;" horiz-adv-x="666" 
d="M268 258q-24 28 -53.5 67l-59.5 78.5l-56 75l-42 58.5q-18 25 -35 51.5t-17 47.5q0 23 15 36.5t40 13.5q20 0 32.5 -5l17.5 -7l42 -62l58.5 -83.5l63.5 -88.5l57 -76l49.5 68.5l50 73l47 71.5l40.5 63q11 17 28 31.5t48 14.5q27 0 45 -10.5t22 -14.5q-9 -18 -27 -47.5
l-41.5 -65l-50.5 -75l-54.5 -78l-53.5 -74l-47 -63.5v-258h-119v258zM166 811q0 24 19.5 43.5t45.5 19.5t45.5 -19.5t19.5 -43.5q0 -23 -19.5 -42.5t-45.5 -19.5q-13 0 -24.5 5.5t-20.5 14t-14.5 19.5t-5.5 23zM386 811q0 24 19.5 43.5t45.5 19.5t45 -19.5t19 -43.5
q0 -23 -19 -42.5t-45 -19.5t-45.5 19.5t-19.5 42.5z" />
    <glyph glyph-name="uni00A0" unicode="&#xa0;" horiz-adv-x="251" 
 />
    <glyph glyph-name="exclamdown" unicode="&#xa1;" horiz-adv-x="239" 
d="M63 458h114v-413q0 -27 -16 -40t-44 -13q-18 0 -33.5 5t-20.5 7v454zM119 696q32 0 54.5 -22t22.5 -53q0 -30 -22.5 -52.5t-54.5 -22.5q-31 0 -53.5 22.5t-22.5 52.5q0 31 22.5 53t53.5 22z" />
    <glyph glyph-name="cent" unicode="&#xa2;" horiz-adv-x="515" 
d="M272 80q-48 6 -89.5 25.5t-72.5 52.5t-48.5 79t-17.5 104q0 57 17 103t47.5 79.5t72 54t91.5 26.5v95q0 15 9.5 23t26.5 8q13 0 22.5 -2.5t11.5 -4.5v-116q46 -3 76.5 -11.5t48 -20.5t24.5 -26t7 -26q0 -20 -13.5 -37t-25.5 -26q-15 14 -43.5 29t-73.5 18v-328
q33 2 61 12.5t48 21.5l48 -86q-20 -15 -60 -29.5t-97 -18.5v-115h-70v116zM272 501q-49 -13 -79.5 -51.5t-30.5 -106.5t31 -106t79 -51v315z" />
    <glyph glyph-name="sterling" unicode="&#xa3;" horiz-adv-x="622" 
d="M90 446q0 61 19 109t54 81t85 50.5t113 17.5q70 0 112.5 -12t65.5 -28t30.5 -33t7.5 -26q0 -24 -16.5 -41.5t-29.5 -25.5q-22 21 -62 42t-102 21q-42 0 -72.5 -12.5t-50 -34t-29 -51.5t-9.5 -65v-39h239q32 0 45.5 -13.5t13.5 -39.5q0 -17 -5.5 -32.5t-8.5 -21.5h-284
v-186h377v-106h-493v446z" />
    <glyph glyph-name="currency" unicode="&#xa4;" horiz-adv-x="617" 
d="M51 150l64 65q-19 28 -29.5 60t-10.5 68t10.5 68t29.5 60l-64 65l70 72l66 -67q27 16 57.5 25t64.5 9q33 0 63.5 -9.5t57.5 -25.5l66 68l70 -72l-64 -65q19 -28 29.5 -60t10.5 -68q0 -35 -10.5 -67.5t-29.5 -60.5l64 -65l-70 -72l-65 68q-27 -17 -57 -26t-65 -9
q-34 0 -64.5 9t-57.5 26l-66 -68zM309 199q29 0 54.5 11t44 30.5t29.5 46t11 56.5t-11 56t-29.5 45.5t-44 31t-54.5 11.5t-54.5 -11.5t-44.5 -31t-30 -45.5t-11 -56t11 -56.5t30 -46t44.5 -30.5t54.5 -11z" />
    <glyph glyph-name="yen" unicode="&#xa5;" horiz-adv-x="659" 
d="M264 152h-148q-29 0 -39 11t-10 28q0 15 5 37h192v32l-31 46h-117q-29 0 -39 11t-10 28q0 15 5 37h115l-61 76.5t-53 72.5t-37.5 61.5t-14.5 42.5q0 23 13 36.5t41 13.5q19 0 31 -3.5t16 -5.5l44 -67.5l50.5 -77l54 -79.5t54.5 -75l37.5 55l41 63.5l40.5 64.5l37 59
q16 26 38 45.5t57 19.5q25 0 41 -9.5t20 -13.5q-15 -26 -35.5 -58.5l-44.5 -69l-50.5 -75l-53.5 -76.5h80q29 0 39 -11t10 -28q0 -15 -5 -37h-163l-31 -46v-32h150q29 0 39 -11t10 -28q0 -15 -5 -37h-194v-152h-119v152z" />
    <glyph glyph-name="brokenbar" unicode="&#xa6;" horiz-adv-x="252" 
d="M73 157h105v-289h-105v289zM73 689q0 24 15 36t41 12q18 0 31 -4t18 -6v-281h-105v243z" />
    <glyph glyph-name="section" unicode="&#xa7;" horiz-adv-x="628" 
d="M165 275q0 -44 43.5 -73t147.5 -29q22 0 42 7t35 19.5t24 30.5t9 39t-9 39.5t-31.5 32.5t-60 22t-93.5 8q-46 0 -76.5 -27t-30.5 -69zM244 87q-88 12 -141.5 56.5t-53.5 116.5q0 48 23.5 85t66.5 58q-45 21 -67.5 62t-22.5 85q0 35 13 68.5t42.5 60t78 42.5t120.5 16
q119 0 180.5 -28t61.5 -66q0 -13 -4.5 -23t-11 -17.5t-13 -12t-9.5 -5.5q-4 4 -19 13.5t-40.5 19t-60.5 17t-79 7.5q-65 0 -101 -22.5t-36 -65.5q0 -68 96 -80l117 -16q55 -8 92.5 -22.5t61 -36t33.5 -49t10 -59.5q0 -30 -9.5 -55t-23.5 -44t-30.5 -32.5t-31.5 -19.5
q42 -20 68.5 -55.5t26.5 -89.5q0 -42 -16 -77.5t-48.5 -62t-81 -41t-113.5 -14.5q-63 0 -113 10t-85.5 22t-55.5 23t-22 13l24 43.5t23 43.5q3 -2 20 -11.5t46.5 -20t69.5 -18.5t90 -8q60 0 100.5 21t40.5 67q0 34 -24.5 57t-87.5 31z" />
    <glyph glyph-name="dieresis" unicode="&#xa8;" horiz-adv-x="500" 
d="M89 634q0 12 5 23t14 19.5t20.5 13.5t24.5 5q26 0 44.5 -19t18.5 -42t-18.5 -42t-44.5 -19q-13 0 -24.5 5t-20.5 13.5t-14 19.5t-5 23zM348 695q26 0 44 -19t18 -42t-18 -42t-44 -19t-45 19t-19 42t19 42t45 19z" />
    <glyph glyph-name="copyright" unicode="&#xa9;" horiz-adv-x="809" 
d="M404 711q76 0 143 -29t117 -79t79 -117t29 -143t-29 -143t-79 -117t-117 -79t-143 -29t-143 29t-117 79t-79 117t-29 143t29 143t79 117t117 79t143 29zM683 343q0 60 -22 112.5t-59.5 91.5t-88.5 61.5t-109 22.5t-108.5 -22.5t-88 -61.5t-59.5 -91.5t-22 -112.5
t22 -112.5t59.5 -91.5t88 -61.5t108.5 -22.5t109 22.5t88.5 61.5t59.5 91.5t22 112.5zM562 176q-7 -5 -19 -12t-30 -13.5t-41.5 -11t-53.5 -4.5q-43 0 -81.5 13.5t-67.5 39.5t-46 64.5t-17 88.5t17 89t45.5 65.5t67 40.5t82.5 14q63 0 101 -21t38 -46q0 -18 -12 -33t-21 -20
q-12 13 -41 26.5t-64 13.5q-51 0 -84.5 -33.5t-33.5 -95.5q0 -31 9.5 -54.5t26.5 -39t40 -23.5t50 -8q34 0 59 9.5t39 18.5z" />
    <glyph glyph-name="ordfeminine" unicode="&#xaa;" horiz-adv-x="420" 
d="M373 330q-24 -4 -68.5 -8.5t-93.5 -4.5q-60 0 -97.5 11t-57.5 28.5t-27 39.5t-7 44q0 27 8.5 49.5t29.5 38t55.5 24t85.5 8.5q22 0 46 -2t40 -4q0 23 -8.5 38.5t-22.5 24.5t-33.5 13t-40.5 4q-42 0 -68 -11t-32 -16q-5 3 -15 15t-10 24q0 9 4 19t17 18.5t38 14.5t66 6
q91 0 141 -37.5t50 -118.5v-218zM287 492q-8 2 -30 4t-56 2q-43 0 -67.5 -12.5t-24.5 -45.5q0 -28 24 -41.5t81 -13.5q30 0 47.5 1.5t25.5 3.5v102z" />
    <glyph glyph-name="guillemotleft" unicode="&#xab;" horiz-adv-x="572" 
d="M55 202q-9 9 -16 21.5t-7 25.5q0 12 5 21.5t12 17.5l170 186l67 -60l-139 -164l139 -160l-67 -60zM307 202q-8 9 -14.5 21t-6.5 25q0 12 4.5 22.5t10.5 17.5l170 186l68 -60l-140 -164l140 -160l-68 -60z" />
    <glyph glyph-name="logicalnot" unicode="&#xac;" horiz-adv-x="633" 
d="M519 475q29 0 41 -14.5t12 -40.5v-239h-112v188h-358q-29 0 -41 15t-12 41q0 17 4.5 31t6.5 19h459z" />
    <glyph glyph-name="uni00AD" unicode="&#xad;" horiz-adv-x="329" 
d="M244 328q29 0 41 -16.5t12 -41.5q0 -16 -4 -30.5t-7 -21.5h-201q-29 0 -40.5 16t-11.5 42q0 17 4 31t7 21h200z" />
    <glyph glyph-name="registered" unicode="&#xae;" horiz-adv-x="809" 
d="M243 505q0 15 5 24.5t19 15t40 7t68 1.5q95 0 141.5 -34t46.5 -96q0 -41 -19 -67.5t-51 -41.5q12 -17 23.5 -37l23 -42t21.5 -43.5l19 -40.5h-95l-13 28t-20 40l-22 41t-19 32q-5 -1 -17 -1.5t-23 -0.5q-10 0 -24 0.5t-22 2.5v-142h-82v354zM325 364q7 -1 19 -1.5
t38 -0.5q49 0 70.5 16t21.5 44q0 25 -21 43t-77 18q-23 0 -34.5 -1t-16.5 -2v-116zM404 711q76 0 143 -29t117 -79t79 -117t29 -143t-29 -143t-79 -117t-117 -79t-143 -29t-143 29t-117 79t-79 117t-29 143t29 143t79 117t117 79t143 29zM683 343q0 60 -22 112.5t-59.5 91.5
t-88.5 61.5t-109 22.5t-108.5 -22.5t-88 -61.5t-59.5 -91.5t-22 -112.5t22 -112.5t59.5 -91.5t88 -61.5t108.5 -22.5t109 22.5t88.5 61.5t59.5 91.5t22 112.5z" />
    <glyph glyph-name="macron" unicode="&#xaf;" horiz-adv-x="500" 
d="M371 676q23 0 31.5 -11.5t8.5 -29.5q0 -14 -3 -24.5t-5 -13.5h-276q-22 0 -31 11t-9 30q0 14 3 23.5t5 14.5h276z" />
    <glyph glyph-name="degree" unicode="&#xb0;" horiz-adv-x="409" 
d="M204 737q38 0 71.5 -14t58 -38t39 -57t14.5 -71t-14.5 -70.5t-39 -56.5t-58 -38t-71.5 -14t-71.5 14t-58 38t-39 56.5t-14.5 70.5t14.5 71t39 57t58 38t71.5 14zM204 458q21 0 39 8t31.5 21.5t21.5 31.5t8 38q0 21 -8 39.5t-21.5 32t-31.5 21.5t-39 8q-20 0 -37.5 -8
t-31 -21.5t-21.5 -32t-8 -39.5q0 -20 8 -38t21.5 -31.5t31 -21.5t37.5 -8z" />
    <glyph glyph-name="plusminus" unicode="&#xb1;" horiz-adv-x="633" 
d="M261 107v179h-153q-29 0 -41 15.5t-12 41.5q0 17 4.5 31t6.5 19h195v158q0 27 15.5 40t43.5 13q18 0 33 -4.5t20 -7.5v-199h152q29 0 41 -15t12 -41q0 -18 -4.5 -32t-6.5 -19h-194v-179h152q29 0 41 -15t12 -41q0 -18 -4.5 -32t-6.5 -19h-459q-29 0 -41 15.5t-12 41.5
q0 17 4.5 31t6.5 19h195z" />
    <glyph glyph-name="twosuperior" unicode="&#xb2;" 
d="M49 372l40 23.5l51 32t53.5 38t47.5 41.5t34.5 42.5t13.5 42.5q0 29 -19 46t-58 17q-24 0 -43 -8t-32.5 -18.5t-21 -20.5t-8.5 -14q-9 1 -18.5 5t-17.5 11t-13.5 16.5t-5.5 20.5q0 10 8 25t27.5 29.5t51.5 25t79 10.5q83 0 130 -36t47 -101q0 -41 -19 -74t-47 -60
t-61 -47.5l-60 -36.5h192v-84h-351v74z" />
    <glyph glyph-name="threesuperior" unicode="&#xb3;" 
d="M68 402q6 -3 19 -9t32 -11.5t43 -9.5t50 -4q43 0 66.5 14.5t23.5 41.5q0 26 -23 40t-71 14h-42q-3 3 -9.5 14.5t-6.5 26.5q0 19 10.5 26.5t30.5 7.5h18q43 0 64.5 14t21.5 40q0 23 -20.5 37t-64.5 14q-27 0 -47.5 -6t-34.5 -14.5t-21.5 -16.5t-8.5 -11q-7 1 -15 4.5
t-15.5 8.5t-12.5 13t-5 18q0 11 4.5 20t12.5 18q5 5 16 13t29.5 15t44.5 12t61 5q51 0 85.5 -11t56.5 -28.5t31.5 -39t9.5 -41.5q0 -35 -19 -60t-49 -39q40 -14 58 -40.5t18 -61.5q0 -54 -47.5 -91.5t-137.5 -37.5q-37 0 -68.5 5t-56 12t-41 14t-22.5 10z" />
    <glyph glyph-name="acute" unicode="&#xb4;" horiz-adv-x="500" 
d="M140 618l109 79q15 11 27.5 16.5t26.5 5.5q16 0 27.5 -7.5t18 -18t10 -20.5t3.5 -14l-185 -93z" />
    <glyph glyph-name="mu" unicode="&#xb5;" horiz-adv-x="602" 
d="M58 449q0 28 16 40.5t45 12.5q18 0 33 -4.5t20 -6.5v-270q0 -71 43.5 -105t124.5 -34q31 0 55.5 3.5t33.5 5.5v358q0 28 16 40.5t44 12.5q19 0 34 -4.5t20 -6.5v-491q-4 -1 -20 -3t-41.5 -4.5t-57.5 -4.5t-68 -2q-79 0 -123.5 20.5t-61.5 42.5v-249h-113v649z" />
    <glyph glyph-name="paragraph" unicode="&#xb6;" horiz-adv-x="622" 
d="M265 235q-54 4 -94.5 23.5t-67.5 49.5t-40.5 70t-13.5 87q0 52 19 95t54.5 73t86.5 46.5t115 16.5q72 0 113.5 -4t56.5 -6q23 -4 38.5 -18.5t15.5 -46.5v-821h-88v808q-13 2 -44.5 3.5t-62.5 1.5v-813h-88v435z" />
    <glyph glyph-name="periodcentered" unicode="&#xb7;" horiz-adv-x="300" 
d="M73 343q0 16 6 30t16.5 24.5t25 16.5t30.5 6q32 0 54.5 -22.5t22.5 -54.5q0 -16 -6 -30.5t-16.5 -25t-24.5 -17t-30 -6.5q-32 0 -55 23.5t-23 55.5z" />
    <glyph glyph-name="cedilla" unicode="&#xb8;" horiz-adv-x="500" 
d="M160 -132q1 -1 8 -4t17.5 -6.5t23.5 -6t28 -2.5q21 0 32.5 7t11.5 24q0 10 -5.5 16.5t-14 10.5t-18 6t-17.5 2l15 52q21 -1 42.5 -6t39.5 -15t29.5 -26t11.5 -38q0 -43 -32 -68t-86 -25q-26 0 -46 3.5t-34 8t-21.5 8.5t-8.5 5z" />
    <glyph glyph-name="onesuperior" unicode="&#xb9;" 
d="M209 624l-95 -60q-3 1 -11 4.5t-15.5 9.5t-13.5 14.5t-6 19.5q0 15 8 25.5t25 21.5l107 64q11 7 22.5 10.5t25.5 3.5q20 0 33 -7t19 -12v-420h-99v326z" />
    <glyph glyph-name="ordmasculine" unicode="&#xba;" horiz-adv-x="456" 
d="M228 704q43 0 79.5 -15t63.5 -41t42.5 -61.5t15.5 -76.5q0 -40 -15.5 -75t-42.5 -61.5t-63.5 -41.5t-79.5 -15t-80 15t-64 41.5t-42.5 61.5t-15.5 75q0 41 15.5 76.5t42.5 61.5t64 41t80 15zM228 399q47 0 75.5 32.5t28.5 78.5q0 48 -28.5 80.5t-75.5 32.5
q-48 0 -76 -32.5t-28 -80.5q0 -46 28.5 -78.5t75.5 -32.5z" />
    <glyph glyph-name="guillemotright" unicode="&#xbb;" horiz-adv-x="572" 
d="M426 255l-140 159l68 60l164 -173q8 -8 14.5 -20.5t6.5 -25.5q0 -12 -4.5 -22.5t-10.5 -17.5l-170 -185l-68 60zM173 255l-140 159l68 60l164 -173q8 -8 14.5 -20t6.5 -25q0 -12 -4.5 -22.5t-10.5 -17.5l-170 -186l-68 60z" />
    <glyph glyph-name="onequarter" unicode="&#xbc;" horiz-adv-x="945" 
d="M185 624l-95 -60q-3 1 -11 4.5t-15.5 9.5t-13.5 14.5t-6 19.5q0 15 8 25.5t25 21.5l107 64q11 7 22.5 10.5t25.5 3.5q20 0 33 -7t19 -12v-420h-99v326zM588 698q9 16 20.5 27.5t38.5 11.5q23 0 38 -8t19 -12l-408 -717h-107zM754 100h-139q-52 0 -76.5 16.5t-24.5 54.5
q0 31 15 63.5t39 63t54.5 57t61 46.5t58.5 31.5t48 11.5q25 0 39.5 -5t20.5 -9v-255h20q36 0 36 -34q0 -13 -4 -24t-7 -17h-45v-95h-96v95zM754 176v174q-23 -11 -48 -30t-45.5 -40.5t-34 -44t-13.5 -40.5q0 -12 9.5 -15.5t24.5 -3.5h107z" />
    <glyph glyph-name="onehalf" unicode="&#xbd;" horiz-adv-x="960" 
d="M160 624l-95 -60q-3 1 -11 4.5t-15.5 9.5t-13.5 14.5t-6 19.5q0 15 8 25.5t25 21.5l107 64q11 7 22.5 10.5t25.5 3.5q20 0 33 -7t19 -12v-420h-99v326zM553 698q9 16 20.5 27.5t38.5 11.5q23 0 38 -8t19 -12l-408 -717h-107zM537 79l40 23.5l51 32t53.5 38t47.5 41.5
t34.5 42.5t13.5 42.5q0 29 -19 46t-58 17q-24 0 -43 -8t-32.5 -18.5t-21 -20.5t-8.5 -14q-9 1 -18.5 5t-17.5 11t-13.5 16.5t-5.5 20.5q0 10 8 25t27.5 29.5t51.5 25t79 10.5q83 0 130 -36t47 -101q0 -41 -19 -74t-47 -60t-61 -47.5l-60 -36.5h192v-84h-351v74z" />
    <glyph glyph-name="threequarters" unicode="&#xbe;" horiz-adv-x="1021" 
d="M71 402q6 -3 19 -9t32 -11.5t43 -9.5t50 -4q43 0 66.5 14.5t23.5 41.5q0 26 -23 40t-71 14h-42q-3 3 -9.5 14.5t-6.5 26.5q0 19 10.5 26.5t30.5 7.5h18q43 0 64.5 14t21.5 40q0 23 -20.5 37t-64.5 14q-27 0 -47.5 -6t-34.5 -14.5t-21.5 -16.5t-8.5 -11q-7 1 -15 4.5
t-15.5 8.5t-12.5 13t-5 18q0 11 4.5 20t12.5 18q5 5 16 13t29.5 15t44.5 12t61 5q51 0 85.5 -11t56.5 -28.5t31.5 -39t9.5 -41.5q0 -35 -19 -60t-49 -39q40 -14 58 -40.5t18 -61.5q0 -54 -47.5 -91.5t-137.5 -37.5q-37 0 -68.5 5t-56 12t-41 14t-22.5 10zM664 698
q9 16 20.5 27.5t38.5 11.5q23 0 38 -8t19 -12l-408 -717h-107zM816 100h-139q-52 0 -76.5 16.5t-24.5 54.5q0 31 15 63.5t39 63t54.5 57t61 46.5t58.5 31.5t48 11.5q25 0 39.5 -5t20.5 -9v-255h20q36 0 36 -34q0 -13 -4 -24t-7 -17h-45v-95h-96v95zM816 176v174
q-23 -11 -48 -30t-45.5 -40.5t-34 -44t-13.5 -40.5q0 -12 9.5 -15.5t24.5 -3.5h107z" />
    <glyph glyph-name="questiondown" unicode="&#xbf;" horiz-adv-x="540" 
d="M363 474q0 -31 -3.5 -54t-13.5 -41.5t-26.5 -33.5t-41.5 -30q-58 -33 -86.5 -62t-28.5 -74q0 -43 32 -74t104 -31q33 0 60 8.5t47 21.5t33 28t20 29q28 -7 42.5 -24t14.5 -39q0 -20 -13.5 -41.5t-41.5 -39t-70 -29t-99 -11.5q-66 0 -113 16.5t-77 43.5t-43.5 62t-13.5 72
q0 39 10.5 69t27.5 53t40 41t47 33q22 14 37 25.5t24.5 23.5t13.5 25.5t4 32.5h114zM230 622q0 31 22.5 52.5t53.5 21.5q32 0 54.5 -21.5t22.5 -52.5q0 -30 -22.5 -52.5t-54.5 -22.5q-31 0 -53.5 22.5t-22.5 52.5z" />
    <glyph glyph-name="Agrave" unicode="&#xc0;" horiz-adv-x="733" 
d="M5 0l56 144.5l65 159l70.5 165.5l72.5 164q18 40 41 55.5t58 15.5q13 0 25.5 -3t22 -7t16 -7.5t7.5 -4.5q16 -28 41.5 -83l55 -123.5l60.5 -143l57.5 -141l46.5 -118l28 -73.5h-132q-5 12 -13 34l-17.5 47.5l-19.5 51.5l-18 46h-335l-39.5 -101.5l-28.5 -77.5h-120z
M488 284l-32 81.5l-35.5 87l-33 77.5t-24.5 53l-29 -63.5l-33 -75l-34 -80.5l-32 -80h253zM240 829q0 5 3 16t10.5 22t19.5 19.5t30 8.5q28 0 62 -19l127 -74l-35 -59z" />
    <glyph glyph-name="Aacute" unicode="&#xc1;" horiz-adv-x="733" 
d="M5 0l56 144.5l65 159l70.5 165.5l72.5 164q18 40 41 55.5t58 15.5q13 0 25.5 -3t22 -7t16 -7.5t7.5 -4.5q16 -28 41.5 -83l55 -123.5l60.5 -143l57.5 -141l46.5 -118l28 -73.5h-132q-5 12 -13 34l-17.5 47.5l-19.5 51.5l-18 46h-335l-39.5 -101.5l-28.5 -77.5h-120z
M488 284l-32 81.5l-35.5 87l-33 77.5t-24.5 53l-29 -63.5l-33 -75l-34 -80.5l-32 -80h253zM246 802l127 74q17 10 31.5 14.5t30.5 4.5q18 0 30 -8.5t19.5 -19.5t10.5 -22t3 -16l-217 -86z" />
    <glyph glyph-name="Acircumflex" unicode="&#xc2;" horiz-adv-x="733" 
d="M5 0l56 144.5l65 159l70.5 165.5l72.5 164q18 40 41 55.5t58 15.5q13 0 25.5 -3t22 -7t16 -7.5t7.5 -4.5q16 -28 41.5 -83l55 -123.5l60.5 -143l57.5 -141l46.5 -118l28 -73.5h-132q-5 12 -13 34l-17.5 47.5l-19.5 51.5l-18 46h-335l-39.5 -101.5l-28.5 -77.5h-120z
M488 284l-32 81.5l-35.5 87l-33 77.5t-24.5 53l-29 -63.5l-33 -75l-34 -80.5l-32 -80h253zM192 790l104 75q14 10 32 20t38 10t43 -11t45.5 -27.5t44.5 -34.5t41 -32l-47 -49l-127 69l-127 -69z" />
    <glyph glyph-name="Atilde" unicode="&#xc3;" horiz-adv-x="733" 
d="M5 0l56 144.5l65 159l70.5 165.5l72.5 164q18 40 41 55.5t58 15.5q13 0 25.5 -3t22 -7t16 -7.5t7.5 -4.5q16 -28 41.5 -83l55 -123.5l60.5 -143l57.5 -141l46.5 -118l28 -73.5h-132q-5 12 -13 34l-17.5 47.5l-19.5 51.5l-18 46h-335l-39.5 -101.5l-28.5 -77.5h-120z
M488 284l-32 81.5l-35.5 87l-33 77.5t-24.5 53l-29 -63.5l-33 -75l-34 -80.5l-32 -80h253zM186 765q4 19 11.5 38t20.5 34t31 24t43 9q22 0 40 -4.5t34.5 -10t31.5 -10t32 -4.5q14 0 21.5 8.5t12.5 27.5l74 -13q-4 -20 -11.5 -38.5t-20.5 -33.5t-31 -24t-43 -9
q-23 0 -41 4.5t-34.5 10.5t-31.5 10.5t-31 4.5q-14 0 -21 -9t-12 -29z" />
    <glyph glyph-name="Adieresis" unicode="&#xc4;" horiz-adv-x="733" 
d="M5 0l56 144.5l65 159l70.5 165.5l72.5 164q18 40 41 55.5t58 15.5q13 0 25.5 -3t22 -7t16 -7.5t7.5 -4.5q16 -28 41.5 -83l55 -123.5l60.5 -143l57.5 -141l46.5 -118l28 -73.5h-132q-5 12 -13 34l-17.5 47.5l-19.5 51.5l-18 46h-335l-39.5 -101.5l-28.5 -77.5h-120z
M488 284l-32 81.5l-35.5 87l-33 77.5t-24.5 53l-29 -63.5l-33 -75l-34 -80.5l-32 -80h253zM192 811q0 24 19.5 43.5t45.5 19.5t45.5 -19.5t19.5 -43.5q0 -23 -19.5 -42.5t-45.5 -19.5q-13 0 -24.5 5.5t-20.5 14t-14.5 19.5t-5.5 23zM412 811q0 24 19.5 43.5t45.5 19.5
t45 -19.5t19 -43.5q0 -23 -19 -42.5t-45 -19.5t-45.5 19.5t-19.5 42.5z" />
    <glyph glyph-name="Aring" unicode="&#xc5;" horiz-adv-x="733" 
d="M5 0l56 144.5l65 159l70.5 165.5l72.5 164q7 16 15 27.5t17 19.5q-17 14 -27.5 34t-10.5 43q0 21 8 39t22 32t33 22t40 8t40 -8t33 -22t22 -32t8 -39q0 -23 -9.5 -42.5t-26.5 -33.5q6 -6 11 -13.5t9 -15.5q18 -35 43.5 -91l53.5 -121.5l56.5 -134.5l53 -130l42.5 -108
t25 -67h-131q-5 12 -13 34l-17.5 47.5l-19.5 51.5l-18 46h-335l-39.5 -101.5l-29.5 -77.5h-119zM488 284l-32 81.5l-35.5 87l-33 77.5t-24.5 53l-29 -63.5l-33 -75l-34 -80.5l-32 -80h253zM366 707q23 0 36 14t13 36t-13 35.5t-36 13.5q-21 0 -34 -13.5t-13 -35.5t13 -36
t34 -14z" />
    <glyph glyph-name="AE" unicode="&#xc6;" horiz-adv-x="1087" 
d="M-1 0l101.5 172l102.5 165.5l94.5 148.5l78.5 121q15 24 29 39.5t28 24t29.5 12t34.5 3.5h482q59 0 59 -54q0 -19 -6 -34.5t-9 -20.5h-363v-172h304q60 0 60 -54q0 -19 -6 -34.5t-10 -20.5h-348v-187h372v-109h-493v200h-293l-67.5 -112l-52.5 -88h-127zM539 307v269h-56
l-31 -47l-48.5 -75l-52 -81.5l-42.5 -65.5h230z" />
    <glyph glyph-name="Ccedilla" unicode="&#xc7;" horiz-adv-x="664" 
d="M649 46q-11 -8 -30.5 -19t-49 -21t-69.5 -17t-91 -7q-74 0 -140 23.5t-116.5 68.5t-80 112t-29.5 154q0 86 28.5 154t78 114.5t115.5 71t141 24.5q72 0 118 -12t72.5 -29.5t37 -36t10.5 -30.5q0 -13 -5.5 -25t-13 -21.5t-15.5 -16.5t-14 -10q-10 11 -27.5 24t-41.5 24
t-54 18.5t-65 7.5q-51 0 -95 -17.5t-76 -51t-50.5 -81t-18.5 -107.5q0 -61 19.5 -107.5t53.5 -78t80 -47.5t99 -16q63 0 108.5 16t66.5 30l53 -91h1zM259 -130q3 -2 26 -11t52 -9q20 0 30.5 6t10.5 23q0 9 -5.5 15.5t-14 10t-18 5t-17.5 1.5l16 56q21 -1 43.5 -6t40.5 -15.5
t30 -26.5t12 -38q0 -44 -32.5 -69.5t-86.5 -25.5q-26 0 -46 4t-34.5 9t-22.5 9t-9 5z" />
    <glyph glyph-name="Egrave" unicode="&#xc8;" horiz-adv-x="638" 
d="M73 618q0 68 73 68h384q60 0 60 -54q0 -19 -6 -34.5t-9 -20.5h-381v-172h322q59 0 59 -54q0 -19 -5.5 -34.5t-9.5 -20.5h-366v-187h390v-109h-511v618zM198 829q0 5 3 16t10.5 22t19.5 19.5t30 8.5q28 0 62 -19l127 -74l-35 -59z" />
    <glyph glyph-name="Eacute" unicode="&#xc9;" horiz-adv-x="638" 
d="M73 618q0 68 73 68h384q60 0 60 -54q0 -19 -6 -34.5t-9 -20.5h-381v-172h322q59 0 59 -54q0 -19 -5.5 -34.5t-9.5 -20.5h-366v-187h390v-109h-511v618zM219 802l127 74q17 10 31.5 14.5t30.5 4.5q18 0 30 -8.5t19.5 -19.5t10.5 -22t3 -16l-217 -86z" />
    <glyph glyph-name="Ecircumflex" unicode="&#xca;" horiz-adv-x="638" 
d="M73 618q0 68 73 68h384q60 0 60 -54q0 -19 -6 -34.5t-9 -20.5h-381v-172h322q59 0 59 -54q0 -19 -5.5 -34.5t-9.5 -20.5h-366v-187h390v-109h-511v618zM169 790l104 75q14 10 32 20t38 10t43 -11t45.5 -27.5t44.5 -34.5t41 -32l-47 -49l-127 69l-127 -69z" />
    <glyph glyph-name="Edieresis" unicode="&#xcb;" horiz-adv-x="638" 
d="M73 618q0 68 73 68h384q60 0 60 -54q0 -19 -6 -34.5t-9 -20.5h-381v-172h322q59 0 59 -54q0 -19 -5.5 -34.5t-9.5 -20.5h-366v-187h390v-109h-511v618zM162 811q0 24 19.5 43.5t45.5 19.5t45.5 -19.5t19.5 -43.5q0 -23 -19.5 -42.5t-45.5 -19.5q-13 0 -24.5 5.5t-20.5 14
t-14.5 19.5t-5.5 23zM382 811q0 24 19.5 43.5t45.5 19.5t45 -19.5t19 -43.5q0 -23 -19 -42.5t-45 -19.5t-45.5 19.5t-19.5 42.5z" />
    <glyph glyph-name="Igrave" unicode="&#xcc;" horiz-adv-x="265" 
d="M73 631q0 28 17 41.5t46 13.5q19 0 35 -5t21 -7v-674h-119v631zM-4 829q0 5 3 16t10.5 22t19.5 19.5t30 8.5q28 0 62 -19l127 -74l-35 -59z" />
    <glyph glyph-name="Iacute" unicode="&#xcd;" horiz-adv-x="265" 
d="M73 631q0 28 17 41.5t46 13.5q19 0 35 -5t21 -7v-674h-119v631zM33 802l127 74q17 10 31.5 14.5t30.5 4.5q18 0 30 -8.5t19.5 -19.5t10.5 -22t3 -16l-217 -86z" />
    <glyph glyph-name="Icircumflex" unicode="&#xce;" horiz-adv-x="265" 
d="M73 631q0 28 17 41.5t46 13.5q19 0 35 -5t21 -7v-674h-119v631zM-36 790l104 75q14 10 32 20t38 10t43 -11t45.5 -27.5t44.5 -34.5t41 -32l-47 -49l-127 69l-127 -69z" />
    <glyph glyph-name="Idieresis" unicode="&#xcf;" horiz-adv-x="265" 
d="M73 631q0 28 17 41.5t46 13.5q19 0 35 -5t21 -7v-674h-119v631zM-37 811q0 24 19.5 43.5t45.5 19.5t45.5 -19.5t19.5 -43.5q0 -23 -19.5 -42.5t-45.5 -19.5q-13 0 -24.5 5.5t-20.5 14t-14.5 19.5t-5.5 23zM183 811q0 24 19.5 43.5t45.5 19.5t45 -19.5t19 -43.5
q0 -23 -19 -42.5t-45 -19.5t-45.5 19.5t-19.5 42.5z" />
    <glyph glyph-name="Eth" unicode="&#xd0;" horiz-adv-x="778" 
d="M105 304h-44q-25 0 -35.5 13.5t-10.5 36.5q0 15 4 26.5t6 16.5h80v224q0 26 10 41t35.5 22.5t68 9.5t108.5 2q95 0 170.5 -24.5t128 -70t80.5 -111t28 -146.5q0 -82 -27 -147.5t-79.5 -111.5t-130 -70.5t-178.5 -24.5q-107 0 -158 4.5t-56 5.5v304zM224 104q6 -2 32 -4.5
t73 -2.5q136 0 208 64.5t72 182.5q0 54 -16.5 99.5t-50.5 78t-87 51t-126 18.5q-48 0 -74.5 -2.5t-30.5 -3.5v-188h128q26 0 36 -13t10 -36q0 -16 -4 -27.5t-6 -16.5h-164v-200z" />
    <glyph glyph-name="Ntilde" unicode="&#xd1;" horiz-adv-x="735" 
d="M73 622q0 35 21.5 49.5t50.5 14.5q28 0 46 -9t25 -14q10 -12 32.5 -42.5l52 -72l63 -90l66.5 -96.5l62.5 -93l51.5 -79v441q0 28 16 41.5t45 13.5q20 0 35.5 -5t20.5 -8v-673h-120l-43 66.5l-55.5 84l-63.5 94.5l-66 97.5l-64.5 93l-57.5 80.5v-516h-118v622zM207 765
q4 19 11.5 38t20.5 34t31 24t43 9q22 0 40 -4.5t34.5 -10t31.5 -10t32 -4.5q14 0 21.5 8.5t12.5 27.5l74 -13q-4 -20 -11.5 -38.5t-20.5 -33.5t-31 -24t-43 -9q-23 0 -41 4.5t-34.5 10.5t-31.5 10.5t-31 4.5q-14 0 -21 -9t-12 -29z" />
    <glyph glyph-name="Ograve" unicode="&#xd2;" horiz-adv-x="819" 
d="M409 704q78 0 144.5 -27.5t116 -76t77.5 -114.5t28 -143t-28 -143t-77.5 -114.5t-116 -76t-144.5 -27.5t-144.5 27.5t-116 76t-77.5 114.5t-28 143t28 143t77.5 114.5t116 76t144.5 27.5zM409 91q52 0 96 19t76 52.5t50.5 79.5t18.5 101t-18.5 101.5t-50.5 80t-76 52
t-96 18.5t-96 -18.5t-76.5 -52t-50.5 -80t-18 -101.5t18 -101t50.5 -79.5t76.5 -52.5t96 -19zM283 829q0 5 3 16t10.5 22t19.5 19.5t30 8.5q28 0 62 -19l127 -74l-35 -59z" />
    <glyph glyph-name="Oacute" unicode="&#xd3;" horiz-adv-x="819" 
d="M409 704q78 0 144.5 -27.5t116 -76t77.5 -114.5t28 -143t-28 -143t-77.5 -114.5t-116 -76t-144.5 -27.5t-144.5 27.5t-116 76t-77.5 114.5t-28 143t28 143t77.5 114.5t116 76t144.5 27.5zM409 91q52 0 96 19t76 52.5t50.5 79.5t18.5 101t-18.5 101.5t-50.5 80t-76 52
t-96 18.5t-96 -18.5t-76.5 -52t-50.5 -80t-18 -101.5t18 -101t50.5 -79.5t76.5 -52.5t96 -19zM283 802l127 74q17 10 31.5 14.5t30.5 4.5q18 0 30 -8.5t19.5 -19.5t10.5 -22t3 -16l-217 -86z" />
    <glyph glyph-name="Ocircumflex" unicode="&#xd4;" horiz-adv-x="819" 
d="M409 704q78 0 144.5 -27.5t116 -76t77.5 -114.5t28 -143t-28 -143t-77.5 -114.5t-116 -76t-144.5 -27.5t-144.5 27.5t-116 76t-77.5 114.5t-28 143t28 143t77.5 114.5t116 76t144.5 27.5zM409 91q52 0 96 19t76 52.5t50.5 79.5t18.5 101t-18.5 101.5t-50.5 80t-76 52
t-96 18.5t-96 -18.5t-76.5 -52t-50.5 -80t-18 -101.5t18 -101t50.5 -79.5t76.5 -52.5t96 -19zM235 790l104 75q14 10 32 20t38 10t43 -11t45.5 -27.5t44.5 -34.5t41 -32l-47 -49l-127 69l-127 -69z" />
    <glyph glyph-name="Otilde" unicode="&#xd5;" horiz-adv-x="819" 
d="M409 704q78 0 144.5 -27.5t116 -76t77.5 -114.5t28 -143t-28 -143t-77.5 -114.5t-116 -76t-144.5 -27.5t-144.5 27.5t-116 76t-77.5 114.5t-28 143t28 143t77.5 114.5t116 76t144.5 27.5zM409 91q52 0 96 19t76 52.5t50.5 79.5t18.5 101t-18.5 101.5t-50.5 80t-76 52
t-96 18.5t-96 -18.5t-76.5 -52t-50.5 -80t-18 -101.5t18 -101t50.5 -79.5t76.5 -52.5t96 -19zM231 765q4 19 11.5 38t20.5 34t31 24t43 9q22 0 40 -4.5t34.5 -10t31.5 -10t32 -4.5q14 0 21.5 8.5t12.5 27.5l74 -13q-4 -20 -11.5 -38.5t-20.5 -33.5t-31 -24t-43 -9
q-23 0 -41 4.5t-34.5 10.5t-31.5 10.5t-31 4.5q-14 0 -21 -9t-12 -29z" />
    <glyph glyph-name="Odieresis" unicode="&#xd6;" horiz-adv-x="819" 
d="M409 704q78 0 144.5 -27.5t116 -76t77.5 -114.5t28 -143t-28 -143t-77.5 -114.5t-116 -76t-144.5 -27.5t-144.5 27.5t-116 76t-77.5 114.5t-28 143t28 143t77.5 114.5t116 76t144.5 27.5zM409 91q52 0 96 19t76 52.5t50.5 79.5t18.5 101t-18.5 101.5t-50.5 80t-76 52
t-96 18.5t-96 -18.5t-76.5 -52t-50.5 -80t-18 -101.5t18 -101t50.5 -79.5t76.5 -52.5t96 -19zM235 811q0 24 19.5 43.5t45.5 19.5t45.5 -19.5t19.5 -43.5q0 -23 -19.5 -42.5t-45.5 -19.5q-13 0 -24.5 5.5t-20.5 14t-14.5 19.5t-5.5 23zM455 811q0 24 19.5 43.5t45.5 19.5
t45 -19.5t19 -43.5q0 -23 -19 -42.5t-45 -19.5t-45.5 19.5t-19.5 42.5z" />
    <glyph glyph-name="multiply" unicode="&#xd7;" horiz-adv-x="637" 
d="M242 341l-116 114q-19 19 -19 36q0 13 8.5 25t20 21t22 15t14.5 8l143 -146l116 118q18 18 37 18q13 0 25 -8.5t21.5 -19.5t15.5 -22t8 -16l-148 -145l117 -114q18 -17 18 -36q0 -14 -8.5 -26t-19.5 -21t-21.5 -14.5l-14.5 -7.5l-144 146l-115 -118q-17 -17 -36 -17
q-14 0 -26.5 8.5t-22 19.5t-15.5 21.5t-7 15.5z" />
    <glyph glyph-name="Oslash" unicode="&#xd8;" horiz-adv-x="819" 
d="M198 44q-73 48 -114 125.5t-41 173.5q0 77 28 143t77.5 114.5t116 76t144.5 27.5q32 0 63 -5.5t60 -16.5l27 52q11 20 23 31t38 11q23 0 41 -9.5t22 -12.5l-60 -115q70 -49 111 -125.5t41 -170.5q0 -77 -28 -143t-77.5 -114.5t-116 -76t-144.5 -27.5q-63 0 -120 20
l-47 -90h-112zM482 581q-15 7 -34 10.5t-39 3.5q-52 0 -96 -18.5t-76.5 -52t-50.5 -80t-18 -101.5q0 -60 22.5 -110t60.5 -84zM340 103q14 -6 33 -9t36 -3q52 0 96 19t76 52.5t50.5 79.5t18.5 101q0 60 -21.5 109t-58.5 82z" />
    <glyph glyph-name="Ugrave" unicode="&#xd9;" horiz-adv-x="756" 
d="M66 631q0 28 16.5 41.5t45.5 13.5q20 0 36 -5t21 -8v-355q0 -57 10 -99.5t32.5 -71t59.5 -43t91 -14.5t91 14.5t59.5 43t32.5 71t10 99.5v313q0 28 16.5 41.5t45.5 13.5q20 0 36 -5t21 -8v-365q0 -158 -78 -242t-234 -84t-234 84t-78 242v323zM259 829q0 5 3 16t10.5 22
t19.5 19.5t30 8.5q28 0 62 -19l127 -74l-35 -59z" />
    <glyph glyph-name="Uacute" unicode="&#xda;" horiz-adv-x="756" 
d="M66 631q0 28 16.5 41.5t45.5 13.5q20 0 36 -5t21 -8v-355q0 -57 10 -99.5t32.5 -71t59.5 -43t91 -14.5t91 14.5t59.5 43t32.5 71t10 99.5v313q0 28 16.5 41.5t45.5 13.5q20 0 36 -5t21 -8v-365q0 -158 -78 -242t-234 -84t-234 84t-78 242v323zM282 802l127 74
q17 10 31.5 14.5t30.5 4.5q18 0 30 -8.5t19.5 -19.5t10.5 -22t3 -16l-217 -86z" />
    <glyph glyph-name="Ucircumflex" unicode="&#xdb;" horiz-adv-x="756" 
d="M66 631q0 28 16.5 41.5t45.5 13.5q20 0 36 -5t21 -8v-355q0 -57 10 -99.5t32.5 -71t59.5 -43t91 -14.5t91 14.5t59.5 43t32.5 71t10 99.5v313q0 28 16.5 41.5t45.5 13.5q20 0 36 -5t21 -8v-365q0 -158 -78 -242t-234 -84t-234 84t-78 242v323zM216 790l104 75
q14 10 32 20t38 10t43 -11t45.5 -27.5t44.5 -34.5t41 -32l-47 -49l-127 69l-127 -69z" />
    <glyph glyph-name="Udieresis" unicode="&#xdc;" horiz-adv-x="756" 
d="M66 631q0 28 16.5 41.5t45.5 13.5q20 0 36 -5t21 -8v-355q0 -57 10 -99.5t32.5 -71t59.5 -43t91 -14.5t91 14.5t59.5 43t32.5 71t10 99.5v313q0 28 16.5 41.5t45.5 13.5q20 0 36 -5t21 -8v-365q0 -158 -78 -242t-234 -84t-234 84t-78 242v323zM213 811q0 24 19.5 43.5
t45.5 19.5t45.5 -19.5t19.5 -43.5q0 -23 -19.5 -42.5t-45.5 -19.5q-13 0 -24.5 5.5t-20.5 14t-14.5 19.5t-5.5 23zM433 811q0 24 19.5 43.5t45.5 19.5t45 -19.5t19 -43.5q0 -23 -19 -42.5t-45 -19.5t-45.5 19.5t-19.5 42.5z" />
    <glyph glyph-name="Yacute" unicode="&#xdd;" horiz-adv-x="666" 
d="M268 258q-24 28 -53.5 67l-59.5 78.5l-56 75l-42 58.5q-18 25 -35 51.5t-17 47.5q0 23 15 36.5t40 13.5q20 0 32.5 -5l17.5 -7l42 -62l58.5 -83.5l63.5 -88.5l57 -76l49.5 68.5l50 73l47 71.5l40.5 63q11 17 28 31.5t48 14.5q27 0 45 -10.5t22 -14.5q-9 -18 -27 -47.5
l-41.5 -65l-50.5 -75l-54.5 -78l-53.5 -74l-47 -63.5v-258h-119v258zM241 802l127 74q17 10 31.5 14.5t30.5 4.5q18 0 30 -8.5t19.5 -19.5t10.5 -22t3 -16l-217 -86z" />
    <glyph glyph-name="Thorn" unicode="&#xde;" horiz-adv-x="662" 
d="M73 631q0 28 16.5 41.5t45.5 13.5q19 0 34 -4.5t20 -6.5v-104q11 1 42.5 2.5t74.5 1.5q160 0 238 -63t78 -168q0 -49 -16.5 -91.5t-52.5 -73.5t-94 -48.5t-141 -17.5q-21 0 -42.5 1.5t-39.5 3t-31 3.5t-16 2v-123h-116v631zM189 224l39 -5.5t82 -4.5q55 0 92 10t58.5 28
t30.5 41.5t9 50.5q0 25 -8 48.5t-30 41.5t-60.5 29t-98.5 11q-48 0 -77 -2t-37 -4v-244z" />
    <glyph glyph-name="germandbls" unicode="&#xdf;" horiz-adv-x="630" 
d="M53 522q0 46 13.5 85.5t43 68t74.5 45t108 16.5t107 -16.5t71 -42.5t39 -57t12 -61q0 -26 -7 -48.5t-18.5 -41.5t-26.5 -32.5t-31 -20.5q32 -8 60 -23.5t49 -41t33 -60.5t12 -81q0 -52 -18.5 -93.5t-50.5 -71t-75.5 -45t-93.5 -15.5t-83 9t-40 13l19 91q3 -2 12 -4.5
t21.5 -5t27 -4.5t29.5 -2q34 0 59 10t41.5 28t24.5 42t8 52q0 35 -11.5 61t-31.5 43.5t-47.5 26t-59.5 8.5h-58v92h34q27 0 47.5 8.5t34 22.5t20 32.5t6.5 39.5q0 42 -30.5 71t-86.5 29q-35 0 -58.5 -10t-38 -27.5t-21 -41t-6.5 -51.5v-519h-113v522z" />
    <glyph glyph-name="agrave" unicode="&#xe0;" horiz-adv-x="569" 
d="M510 2q-10 -2 -31.5 -4.5t-50.5 -5t-65 -4.5t-75 -2q-78 0 -127.5 13.5t-78 36t-39 52t-10.5 60.5q0 41 12.5 72t41 52t74.5 31.5t112 10.5q38 0 72 -2.5t51 -4.5q0 35 -11.5 58t-31.5 36t-48 18t-62 5q-57 0 -91.5 -13t-45.5 -22q-6 5 -16.5 19t-10.5 34q0 14 7.5 27.5
t26.5 24t51 16.5t81 6q59 0 107.5 -11.5t83.5 -36.5t54.5 -66t19.5 -99v-301zM397 224q-10 2 -37.5 6t-82.5 4q-68 0 -99 -20.5t-31 -64.5q0 -18 6.5 -33t22.5 -25.5t43.5 -16t68.5 -5.5q46 0 73 3.5t36 5.5v146zM177 659q0 4 3.5 14t10 20.5t17.5 18t28 7.5q23 0 54 -22
l109 -79l-37 -52z" />
    <glyph glyph-name="aacute" unicode="&#xe1;" horiz-adv-x="569" 
d="M510 2q-10 -2 -31.5 -4.5t-50.5 -5t-65 -4.5t-75 -2q-78 0 -127.5 13.5t-78 36t-39 52t-10.5 60.5q0 41 12.5 72t41 52t74.5 31.5t112 10.5q38 0 72 -2.5t51 -4.5q0 35 -11.5 58t-31.5 36t-48 18t-62 5q-57 0 -91.5 -13t-45.5 -22q-6 5 -16.5 19t-10.5 34q0 14 7.5 27.5
t26.5 24t51 16.5t81 6q59 0 107.5 -11.5t83.5 -36.5t54.5 -66t19.5 -99v-301zM397 224q-10 2 -37.5 6t-82.5 4q-68 0 -99 -20.5t-31 -64.5q0 -18 6.5 -33t22.5 -25.5t43.5 -16t68.5 -5.5q46 0 73 3.5t36 5.5v146zM200 618l109 79q15 11 27.5 16.5t26.5 5.5q16 0 27.5 -7.5
t18 -18t10 -20.5t3.5 -14l-185 -93z" />
    <glyph glyph-name="acircumflex" unicode="&#xe2;" horiz-adv-x="569" 
d="M510 2q-10 -2 -31.5 -4.5t-50.5 -5t-65 -4.5t-75 -2q-78 0 -127.5 13.5t-78 36t-39 52t-10.5 60.5q0 41 12.5 72t41 52t74.5 31.5t112 10.5q38 0 72 -2.5t51 -4.5q0 35 -11.5 58t-31.5 36t-48 18t-62 5q-57 0 -91.5 -13t-45.5 -22q-6 5 -16.5 19t-10.5 34q0 14 7.5 27.5
t26.5 24t51 16.5t81 6q59 0 107.5 -11.5t83.5 -36.5t54.5 -66t19.5 -99v-301zM397 224q-10 2 -37.5 6t-82.5 4q-68 0 -99 -20.5t-31 -64.5q0 -18 6.5 -33t22.5 -25.5t43.5 -16t68.5 -5.5q46 0 73 3.5t36 5.5v146zM128 614l94 75q14 11 30 21.5t34 10.5t34.5 -10t30.5 -21
l93 -76l-41 -48l-117 72l-117 -72z" />
    <glyph glyph-name="atilde" unicode="&#xe3;" horiz-adv-x="569" 
d="M510 2q-10 -2 -31.5 -4.5t-50.5 -5t-65 -4.5t-75 -2q-78 0 -127.5 13.5t-78 36t-39 52t-10.5 60.5q0 41 12.5 72t41 52t74.5 31.5t112 10.5q38 0 72 -2.5t51 -4.5q0 35 -11.5 58t-31.5 36t-48 18t-62 5q-57 0 -91.5 -13t-45.5 -22q-6 5 -16.5 19t-10.5 34q0 14 7.5 27.5
t26.5 24t51 16.5t81 6q59 0 107.5 -11.5t83.5 -36.5t54.5 -66t19.5 -99v-301zM397 224q-10 2 -37.5 6t-82.5 4q-68 0 -99 -20.5t-31 -64.5q0 -18 6.5 -33t22.5 -25.5t43.5 -16t68.5 -5.5q46 0 73 3.5t36 5.5v146zM123 587q4 19 11.5 37t20 32.5t30.5 23.5t43 9
q24 0 40.5 -4.5l30.5 -8.5l24 -7l20.5 -6t22.5 -3q15 0 23.5 8.5t13.5 27.5l70 -13q-4 -19 -11.5 -37t-20 -32.5t-30.5 -23.5t-43 -9q-21 0 -38.5 4.5t-34.5 9.5l-24 8q-22 8 -41 8q-15 0 -23 -9t-13 -29z" />
    <glyph glyph-name="adieresis" unicode="&#xe4;" horiz-adv-x="569" 
d="M510 2q-10 -2 -31.5 -4.5t-50.5 -5t-65 -4.5t-75 -2q-78 0 -127.5 13.5t-78 36t-39 52t-10.5 60.5q0 41 12.5 72t41 52t74.5 31.5t112 10.5q38 0 72 -2.5t51 -4.5q0 35 -11.5 58t-31.5 36t-48 18t-62 5q-57 0 -91.5 -13t-45.5 -22q-6 5 -16.5 19t-10.5 34q0 14 7.5 27.5
t26.5 24t51 16.5t81 6q59 0 107.5 -11.5t83.5 -36.5t54.5 -66t19.5 -99v-301zM397 224q-10 2 -37.5 6t-82.5 4q-68 0 -99 -20.5t-31 -64.5q0 -18 6.5 -33t22.5 -25.5t43.5 -16t68.5 -5.5q46 0 73 3.5t36 5.5v146zM135 634q0 12 5 23t14 19.5t20.5 13.5t24.5 5q26 0 44.5 -19
t18.5 -42t-18.5 -42t-44.5 -19q-13 0 -24.5 5t-20.5 13.5t-14 19.5t-5 23zM394 695q26 0 44 -19t18 -42t-18 -42t-44 -19t-45 19t-19 42t19 42t45 19z" />
    <glyph glyph-name="aring" unicode="&#xe5;" horiz-adv-x="569" 
d="M510 2q-10 -2 -31.5 -4.5t-50.5 -5t-65 -4.5t-75 -2q-78 0 -127.5 13.5t-78 36t-39 52t-10.5 60.5q0 41 12.5 72t41 52t74.5 31.5t112 10.5q38 0 72 -2.5t51 -4.5q0 35 -11.5 58t-31.5 36t-48 18t-62 5q-57 0 -91.5 -13t-45.5 -22q-6 5 -16.5 19t-10.5 34q0 14 7.5 27.5
t26.5 24t51 16.5t81 6q59 0 107.5 -11.5t83.5 -36.5t54.5 -66t19.5 -99v-301zM397 224q-10 2 -37.5 6t-82.5 4q-68 0 -99 -20.5t-31 -64.5q0 -18 6.5 -33t22.5 -25.5t43.5 -16t68.5 -5.5q46 0 73 3.5t36 5.5v146zM287 761q21 0 40 -8t33 -22t22 -32t8 -39t-8 -39t-22 -32
t-33 -22t-40 -8t-40 8t-33 22t-22 32t-8 39t8 39t22 32t33 22t40 8zM336 660q0 22 -13.5 36.5t-35.5 14.5t-35.5 -14.5t-13.5 -36.5q0 -23 13.5 -37.5t35.5 -14.5t35.5 14.5t13.5 37.5z" />
    <glyph glyph-name="ae" unicode="&#xe6;" horiz-adv-x="907" 
d="M426 110q-8 14 -19.5 46t-12.5 69q-10 2 -41 5.5t-76 3.5q-68 0 -99 -20.5t-31 -64.5q0 -36 28 -58t102 -22q32 0 58.5 6t46 13t31 13.5t13.5 8.5zM861 37q-8 -5 -25 -13.5t-41 -16.5t-55 -14t-68 -6q-64 0 -114.5 18.5t-75.5 38.5q-2 -2 -17.5 -11.5t-43 -20t-66 -18.5
t-87.5 -8q-70 0 -115.5 13.5t-72 36t-37 52t-10.5 60.5q0 41 12.5 72t40.5 52t72.5 32t108.5 11q20 0 41.5 -1.5t39.5 -3t31.5 -3t17.5 -2.5q0 34 -11.5 57t-31.5 37t-48.5 20t-62.5 6q-60 0 -93 -13.5t-44 -22.5q-6 5 -16.5 19t-10.5 34q0 15 8 28.5t27 23.5t51 16t80 6
q95 0 149.5 -27.5t72.5 -64.5q12 16 32 32.5t46.5 30t59 21.5t68.5 8q50 0 88.5 -13t65 -35.5t40 -52.5t13.5 -65t-13 -63t-43.5 -48t-81 -31t-124.5 -11q-33 0 -64 2t-40 4q6 -55 48.5 -88t120.5 -33q26 0 48 4t39.5 10t29.5 12l18 9zM510 280q8 -1 30.5 -2.5t41.5 -1.5
q60 0 97 6t57 16.5t26.5 24.5t6.5 29q0 38 -31 57t-76 19q-36 0 -64.5 -12.5t-48 -33.5t-29.5 -47.5t-10 -54.5z" />
    <glyph glyph-name="ccedilla" unicode="&#xe7;" horiz-adv-x="501" 
d="M494 36q-12 -8 -29.5 -16.5t-40 -16t-51 -12.5t-64.5 -5q-56 0 -105 17t-86 50.5t-58.5 82.5t-21.5 113t21 114t58 84t87.5 51.5t108.5 17.5q49 0 83.5 -8t56 -20t31 -27t9.5 -30q0 -20 -13.5 -37t-25.5 -26q-18 17 -52 32.5t-84 15.5q-34 0 -63.5 -10t-51 -30.5t-34 -51
t-12.5 -72.5q0 -44 13 -75t36 -51t53 -29.5t65 -9.5q50 0 80.5 13.5t41.5 20.5zM173 -132q1 -1 8 -4t17.5 -6.5t23.5 -6t28 -2.5q21 0 32.5 7t11.5 24q0 10 -5.5 16.5t-14 10.5t-18 6t-17.5 2l15 52q21 -1 42.5 -6t39.5 -15t29.5 -26t11.5 -38q0 -43 -32 -68t-86 -25
q-26 0 -46 3.5t-34 8t-21.5 8.5t-8.5 5z" />
    <glyph glyph-name="egrave" unicode="&#xe8;" horiz-adv-x="551" 
d="M505 37q-8 -5 -25 -14t-42.5 -17t-59 -14t-73.5 -6q-56 0 -104.5 17t-85 50.5t-57.5 82t-21 111.5q0 60 20.5 109.5t57 85t86 55t108.5 19.5q52 0 92 -13.5t67.5 -36t41.5 -52.5t14 -64q0 -35 -13 -63.5t-46 -49t-89 -32t-142 -11.5q-20 0 -37.5 0.5t-37.5 1.5
q8 -51 49.5 -82.5t118.5 -31.5q26 0 48 4t39.5 10t30 12l18.5 9zM154 274q23 -1 44 -1h42q55 0 89 7t53 18t25 25t6 29q0 38 -30.5 57t-75.5 19q-37 0 -65 -13t-47 -34.5t-29.5 -49.5t-11.5 -57zM191 659q0 4 3.5 14t10 20.5t17.5 18t28 7.5q23 0 54 -22l109 -79l-37 -52z
" />
    <glyph glyph-name="eacute" unicode="&#xe9;" horiz-adv-x="551" 
d="M505 37q-8 -5 -25 -14t-42.5 -17t-59 -14t-73.5 -6q-56 0 -104.5 17t-85 50.5t-57.5 82t-21 111.5q0 60 20.5 109.5t57 85t86 55t108.5 19.5q52 0 92 -13.5t67.5 -36t41.5 -52.5t14 -64q0 -35 -13 -63.5t-46 -49t-89 -32t-142 -11.5q-20 0 -37.5 0.5t-37.5 1.5
q8 -51 49.5 -82.5t118.5 -31.5q26 0 48 4t39.5 10t30 12l18.5 9zM154 274q23 -1 44 -1h42q55 0 89 7t53 18t25 25t6 29q0 38 -30.5 57t-75.5 19q-37 0 -65 -13t-47 -34.5t-29.5 -49.5t-11.5 -57zM219 618l109 79q15 11 27.5 16.5t26.5 5.5q16 0 27.5 -7.5t18 -18t10 -20.5
t3.5 -14l-185 -93z" />
    <glyph glyph-name="ecircumflex" unicode="&#xea;" horiz-adv-x="551" 
d="M505 37q-8 -5 -25 -14t-42.5 -17t-59 -14t-73.5 -6q-56 0 -104.5 17t-85 50.5t-57.5 82t-21 111.5q0 60 20.5 109.5t57 85t86 55t108.5 19.5q52 0 92 -13.5t67.5 -36t41.5 -52.5t14 -64q0 -35 -13 -63.5t-46 -49t-89 -32t-142 -11.5q-20 0 -37.5 0.5t-37.5 1.5
q8 -51 49.5 -82.5t118.5 -31.5q26 0 48 4t39.5 10t30 12l18.5 9zM154 274q23 -1 44 -1h42q55 0 89 7t53 18t25 25t6 29q0 38 -30.5 57t-75.5 19q-37 0 -65 -13t-47 -34.5t-29.5 -49.5t-11.5 -57zM148 614l94 75q14 11 30 21.5t34 10.5t34.5 -10t30.5 -21l93 -76l-41 -48
l-117 72l-117 -72z" />
    <glyph glyph-name="edieresis" unicode="&#xeb;" horiz-adv-x="551" 
d="M505 37q-8 -5 -25 -14t-42.5 -17t-59 -14t-73.5 -6q-56 0 -104.5 17t-85 50.5t-57.5 82t-21 111.5q0 60 20.5 109.5t57 85t86 55t108.5 19.5q52 0 92 -13.5t67.5 -36t41.5 -52.5t14 -64q0 -35 -13 -63.5t-46 -49t-89 -32t-142 -11.5q-20 0 -37.5 0.5t-37.5 1.5
q8 -51 49.5 -82.5t118.5 -31.5q26 0 48 4t39.5 10t30 12l18.5 9zM154 274q23 -1 44 -1h42q55 0 89 7t53 18t25 25t6 29q0 38 -30.5 57t-75.5 19q-37 0 -65 -13t-47 -34.5t-29.5 -49.5t-11.5 -57zM143 634q0 12 5 23t14 19.5t20.5 13.5t24.5 5q26 0 44.5 -19t18.5 -42
t-18.5 -42t-44.5 -19q-13 0 -24.5 5t-20.5 13.5t-14 19.5t-5 23zM402 695q26 0 44 -19t18 -42t-18 -42t-44 -19t-45 19t-19 42t19 42t45 19z" />
    <glyph glyph-name="igrave" unicode="&#xec;" horiz-adv-x="241" 
d="M63 449q0 28 16 40.5t45 12.5q18 0 33 -4.5t20 -6.5v-491h-114v449zM4 659q0 4 3.5 14t10 20.5t17.5 18t28 7.5q23 0 54 -22l109 -79l-37 -52z" />
    <glyph glyph-name="iacute" unicode="&#xed;" horiz-adv-x="241" 
d="M63 449q0 28 16 40.5t45 12.5q18 0 33 -4.5t20 -6.5v-491h-114v449zM25 618l109 79q15 11 27.5 16.5t26.5 5.5q16 0 27.5 -7.5t18 -18t10 -20.5t3.5 -14l-185 -93z" />
    <glyph glyph-name="icircumflex" unicode="&#xee;" horiz-adv-x="241" 
d="M63 449q0 28 16 40.5t45 12.5q18 0 33 -4.5t20 -6.5v-491h-114v449zM-32 614l94 75q14 11 30 21.5t34 10.5t34.5 -10t30.5 -21l93 -76l-41 -48l-117 72l-117 -72z" />
    <glyph glyph-name="idieresis" unicode="&#xef;" horiz-adv-x="241" 
d="M63 449q0 28 16 40.5t45 12.5q18 0 33 -4.5t20 -6.5v-491h-114v449zM-35 634q0 12 5 23t14 19.5t20.5 13.5t24.5 5q26 0 44.5 -19t18.5 -42t-18.5 -42t-44.5 -19q-13 0 -24.5 5t-20.5 13.5t-14 19.5t-5 23zM224 695q26 0 44 -19t18 -42t-18 -42t-44 -19t-45 19t-19 42
t19 42t45 19z" />
    <glyph glyph-name="eth" unicode="&#xf0;" horiz-adv-x="626" 
d="M154 569l108 59q-20 11 -40.5 20t-42.5 17l33 72q76 -24 140 -60l110 60l32 -59l-81 -44q82 -66 128.5 -157t46.5 -203q0 -72 -20 -126t-56 -90t-87 -54t-112 -18t-111.5 17.5t-87 50t-56.5 77.5t-20 100t20 100t53.5 76.5t78.5 49t96 17.5q31 0 57.5 -5.5t47 -14.5
t35 -19.5t22.5 -20.5q-9 36 -39.5 83t-83.5 89l-138 -76zM313 79q35 0 64 11.5t49.5 31.5t31.5 48t11 61t-11 61t-31.5 48.5t-49.5 31.5t-64 11t-64 -11t-49.5 -31.5t-31.5 -48.5t-11 -61t11.5 -61t32 -48t49 -31.5t63.5 -11.5z" />
    <glyph glyph-name="ntilde" unicode="&#xf1;" horiz-adv-x="604" 
d="M58 303q0 50 18.5 89.5t51 67t77 42t97.5 14.5t98 -14.5t77.5 -42t50.5 -67t18 -89.5v-303h-114v274q0 68 -33 103.5t-97 35.5q-65 0 -97.5 -35.5t-32.5 -103.5v-274h-114v303zM127 587q4 19 11.5 37t20 32.5t30.5 23.5t43 9q24 0 40.5 -4.5l30.5 -8.5l24 -7l20.5 -6
t22.5 -3q15 0 23.5 8.5t13.5 27.5l70 -13q-4 -19 -11.5 -37t-20 -32.5t-30.5 -23.5t-43 -9q-21 0 -38.5 4.5t-34.5 9.5l-24 8q-22 8 -41 8q-15 0 -23 -9t-13 -29z" />
    <glyph glyph-name="ograve" unicode="&#xf2;" horiz-adv-x="626" 
d="M313 516q58 0 108.5 -20t87.5 -55.5t58 -84t21 -105.5q0 -56 -21 -104.5t-58 -84t-87.5 -56t-108.5 -20.5t-108.5 20.5t-87.5 56t-58 84t-21 104.5q0 57 21 105.5t58 84t87.5 55.5t108.5 20zM313 87q34 0 63 12.5t49.5 35t32 52t11.5 64.5t-11.5 65.5t-32 52.5
t-49.5 34.5t-63 12.5q-35 0 -63.5 -12.5t-49 -34.5t-32 -52.5t-11.5 -65.5t11.5 -64.5t32 -52t49 -35t63.5 -12.5zM190 659q0 4 3.5 14t10 20.5t17.5 18t28 7.5q23 0 54 -22l109 -79l-37 -52z" />
    <glyph glyph-name="oacute" unicode="&#xf3;" horiz-adv-x="626" 
d="M313 516q58 0 108.5 -20t87.5 -55.5t58 -84t21 -105.5q0 -56 -21 -104.5t-58 -84t-87.5 -56t-108.5 -20.5t-108.5 20.5t-87.5 56t-58 84t-21 104.5q0 57 21 105.5t58 84t87.5 55.5t108.5 20zM313 87q34 0 63 12.5t49.5 35t32 52t11.5 64.5t-11.5 65.5t-32 52.5
t-49.5 34.5t-63 12.5q-35 0 -63.5 -12.5t-49 -34.5t-32 -52.5t-11.5 -65.5t11.5 -64.5t32 -52t49 -35t63.5 -12.5zM223 618l109 79q15 11 27.5 16.5t26.5 5.5q16 0 27.5 -7.5t18 -18t10 -20.5t3.5 -14l-185 -93z" />
    <glyph glyph-name="ocircumflex" unicode="&#xf4;" horiz-adv-x="626" 
d="M313 516q58 0 108.5 -20t87.5 -55.5t58 -84t21 -105.5q0 -56 -21 -104.5t-58 -84t-87.5 -56t-108.5 -20.5t-108.5 20.5t-87.5 56t-58 84t-21 104.5q0 57 21 105.5t58 84t87.5 55.5t108.5 20zM313 87q34 0 63 12.5t49.5 35t32 52t11.5 64.5t-11.5 65.5t-32 52.5
t-49.5 34.5t-63 12.5q-35 0 -63.5 -12.5t-49 -34.5t-32 -52.5t-11.5 -65.5t11.5 -64.5t32 -52t49 -35t63.5 -12.5zM155 614l94 75q14 11 30 21.5t34 10.5t34.5 -10t30.5 -21l93 -76l-41 -48l-117 72l-117 -72z" />
    <glyph glyph-name="otilde" unicode="&#xf5;" horiz-adv-x="626" 
d="M313 516q58 0 108.5 -20t87.5 -55.5t58 -84t21 -105.5q0 -56 -21 -104.5t-58 -84t-87.5 -56t-108.5 -20.5t-108.5 20.5t-87.5 56t-58 84t-21 104.5q0 57 21 105.5t58 84t87.5 55.5t108.5 20zM313 87q34 0 63 12.5t49.5 35t32 52t11.5 64.5t-11.5 65.5t-32 52.5
t-49.5 34.5t-63 12.5q-35 0 -63.5 -12.5t-49 -34.5t-32 -52.5t-11.5 -65.5t11.5 -64.5t32 -52t49 -35t63.5 -12.5zM138 587q4 19 11.5 37t20 32.5t30.5 23.5t43 9q24 0 40.5 -4.5l30.5 -8.5l24 -7l20.5 -6t22.5 -3q15 0 23.5 8.5t13.5 27.5l70 -13q-4 -19 -11.5 -37
t-20 -32.5t-30.5 -23.5t-43 -9q-21 0 -38.5 4.5t-34.5 9.5l-24 8q-22 8 -41 8q-15 0 -23 -9t-13 -29z" />
    <glyph glyph-name="odieresis" unicode="&#xf6;" horiz-adv-x="626" 
d="M313 516q58 0 108.5 -20t87.5 -55.5t58 -84t21 -105.5q0 -56 -21 -104.5t-58 -84t-87.5 -56t-108.5 -20.5t-108.5 20.5t-87.5 56t-58 84t-21 104.5q0 57 21 105.5t58 84t87.5 55.5t108.5 20zM313 87q34 0 63 12.5t49.5 35t32 52t11.5 64.5t-11.5 65.5t-32 52.5
t-49.5 34.5t-63 12.5q-35 0 -63.5 -12.5t-49 -34.5t-32 -52.5t-11.5 -65.5t11.5 -64.5t32 -52t49 -35t63.5 -12.5zM152 634q0 12 5 23t14 19.5t20.5 13.5t24.5 5q26 0 44.5 -19t18.5 -42t-18.5 -42t-44.5 -19q-13 0 -24.5 5t-20.5 13.5t-14 19.5t-5 23zM411 695q26 0 44 -19
t18 -42t-18 -42t-44 -19t-45 19t-19 42t19 42t45 19z" />
    <glyph glyph-name="divide" unicode="&#xf7;" horiz-adv-x="633" 
d="M525 393q29 0 41 -15t12 -41q0 -18 -4.5 -32t-6.5 -19h-459q-29 0 -41 15.5t-12 41.5q0 17 4.5 31t6.5 19h459zM318 607q31 0 52.5 -21.5t21.5 -52.5t-21.5 -53t-52.5 -22q-32 0 -53.5 22t-21.5 53t21.5 52.5t53.5 21.5zM318 221q31 0 52.5 -22t21.5 -53t-21.5 -52.5
t-52.5 -21.5q-32 0 -53.5 21.5t-21.5 52.5t21.5 53t53.5 22z" />
    <glyph glyph-name="oslash" unicode="&#xf8;" horiz-adv-x="626" 
d="M156 31q-54 36 -86 93t-32 127q0 57 21 105.5t58 84t87.5 55.5t108.5 20q47 0 93 -16l20 40q8 15 18 23.5t27 8.5q18 0 31.5 -7t16.5 -10l-47 -86q54 -36 85 -92.5t31 -125.5q0 -56 -21 -104.5t-58 -84t-87.5 -56t-108.5 -20.5q-46 0 -90 14l-37 -69h-82zM358 409
q-21 8 -45 8q-35 0 -64 -12.5t-50 -35t-32.5 -53t-11.5 -65.5q0 -38 13 -69.5t38 -54.5zM270 92q9 -3 20.5 -5t22.5 -2q35 0 64 13t50 35.5t32.5 52.5t11.5 65q0 37 -12.5 68t-35.5 53z" />
    <glyph glyph-name="ugrave" unicode="&#xf9;" horiz-adv-x="605" 
d="M58 449q0 28 16 40.5t45 12.5q18 0 33 -4.5t20 -6.5v-263q0 -68 32 -103.5t98 -35.5t98 35.5t32 103.5v221q0 28 16 40.5t44 12.5q19 0 34 -4.5t20 -6.5v-288q0 -51 -17.5 -91.5t-50 -68.5t-77.5 -42.5t-99 -14.5t-99 14.5t-77 42.5t-50 68.5t-18 91.5v246zM167 659
q0 4 3.5 14t10 20.5t17.5 18t28 7.5q23 0 54 -22l109 -79l-37 -52z" />
    <glyph glyph-name="uacute" unicode="&#xfa;" horiz-adv-x="605" 
d="M58 449q0 28 16 40.5t45 12.5q18 0 33 -4.5t20 -6.5v-263q0 -68 32 -103.5t98 -35.5t98 35.5t32 103.5v221q0 28 16 40.5t44 12.5q19 0 34 -4.5t20 -6.5v-288q0 -51 -17.5 -91.5t-50 -68.5t-77.5 -42.5t-99 -14.5t-99 14.5t-77 42.5t-50 68.5t-18 91.5v246zM231 618
l109 79q15 11 27.5 16.5t26.5 5.5q16 0 27.5 -7.5t18 -18t10 -20.5t3.5 -14l-185 -93z" />
    <glyph glyph-name="ucircumflex" unicode="&#xfb;" horiz-adv-x="605" 
d="M58 449q0 28 16 40.5t45 12.5q18 0 33 -4.5t20 -6.5v-263q0 -68 32 -103.5t98 -35.5t98 35.5t32 103.5v221q0 28 16 40.5t44 12.5q19 0 34 -4.5t20 -6.5v-288q0 -51 -17.5 -91.5t-50 -68.5t-77.5 -42.5t-99 -14.5t-99 14.5t-77 42.5t-50 68.5t-18 91.5v246zM151 614
l94 75q14 11 30 21.5t34 10.5t34.5 -10t30.5 -21l93 -76l-41 -48l-117 72l-117 -72z" />
    <glyph glyph-name="udieresis" unicode="&#xfc;" horiz-adv-x="605" 
d="M58 449q0 28 16 40.5t45 12.5q18 0 33 -4.5t20 -6.5v-263q0 -68 32 -103.5t98 -35.5t98 35.5t32 103.5v221q0 28 16 40.5t44 12.5q19 0 34 -4.5t20 -6.5v-288q0 -51 -17.5 -91.5t-50 -68.5t-77.5 -42.5t-99 -14.5t-99 14.5t-77 42.5t-50 68.5t-18 91.5v246zM148 634
q0 12 5 23t14 19.5t20.5 13.5t24.5 5q26 0 44.5 -19t18.5 -42t-18.5 -42t-44.5 -19q-13 0 -24.5 5t-20.5 13.5t-14 19.5t-5 23zM407 695q26 0 44 -19t18 -42t-18 -42t-44 -19t-45 19t-19 42t19 42t45 19z" />
    <glyph glyph-name="yacute" unicode="&#xfd;" horiz-adv-x="605" 
d="M58 449q0 27 16 40t44 13q18 0 33.5 -4.5t20.5 -6.5v-267q0 -59 31.5 -94t97.5 -35q61 0 96 35.5t35 104.5v214q0 27 16 40t44 13q18 0 33.5 -4.5t20.5 -6.5v-438q0 -71 -19 -120.5t-54 -81.5t-84 -46.5t-109 -14.5q-41 0 -75 4.5t-60.5 10.5t-43.5 11.5t-24 8.5
q8 21 15 42.5l14 42.5q7 -3 22 -8t36 -9.5t47.5 -7.5t56.5 -3q39 0 70 8.5t52.5 29.5t33 55.5t11.5 86.5q-20 -29 -62.5 -46.5t-93.5 -17.5q-48 0 -89 13.5t-70 39t-45.5 63.5t-16.5 87v248zM230 618l109 79q15 11 27.5 16.5t26.5 5.5q16 0 27.5 -7.5t18 -18t10 -20.5
t3.5 -14l-185 -93z" />
    <glyph glyph-name="thorn" unicode="&#xfe;" horiz-adv-x="625" 
d="M46 684q0 27 16.5 40t44.5 13q18 0 33 -4.5t20 -6.5v-287q6 7 20 20t35.5 26t50 22t64.5 9q55 0 101.5 -19.5t81 -55t54 -84t19.5 -105.5q0 -59 -19.5 -107.5t-54 -83.5t-81 -54.5t-101.5 -19.5q-57 0 -101 22t-69 54v-263h-114v884zM314 88q34 0 62.5 12.5t49 34.5
t31.5 52t11 65q0 34 -11 63.5t-31.5 51t-49 34t-62.5 12.5t-62.5 -12t-49 -33t-32 -50.5t-11.5 -65.5q0 -35 11.5 -65t31.5 -52t48.5 -34.5t63.5 -12.5z" />
    <glyph glyph-name="ydieresis" unicode="&#xff;" horiz-adv-x="605" 
d="M58 449q0 27 16 40t44 13q18 0 33.5 -4.5t20.5 -6.5v-267q0 -59 31.5 -94t97.5 -35q61 0 96 35.5t35 104.5v214q0 27 16 40t44 13q18 0 33.5 -4.5t20.5 -6.5v-438q0 -71 -19 -120.5t-54 -81.5t-84 -46.5t-109 -14.5q-41 0 -75 4.5t-60.5 10.5t-43.5 11.5t-24 8.5
q8 21 15 42.5l14 42.5q7 -3 22 -8t36 -9.5t47.5 -7.5t56.5 -3q39 0 70 8.5t52.5 29.5t33 55.5t11.5 86.5q-20 -29 -62.5 -46.5t-93.5 -17.5q-48 0 -89 13.5t-70 39t-45.5 63.5t-16.5 87v248zM145 634q0 12 5 23t14 19.5t20.5 13.5t24.5 5q26 0 44.5 -19t18.5 -42t-18.5 -42
t-44.5 -19q-13 0 -24.5 5t-20.5 13.5t-14 19.5t-5 23zM404 695q26 0 44 -19t18 -42t-18 -42t-44 -19t-45 19t-19 42t19 42t45 19z" />
    <glyph glyph-name="Amacron" unicode="&#x100;" horiz-adv-x="733" 
d="M5 0l56 144.5l65 159l70.5 165.5l72.5 164q18 40 41 55.5t58 15.5q13 0 25.5 -3t22 -7t16 -7.5t7.5 -4.5q16 -28 41.5 -83l55 -123.5l60.5 -143l57.5 -141l46.5 -118l28 -73.5h-132q-5 12 -13 34l-17.5 47.5l-19.5 51.5l-18 46h-335l-39.5 -101.5l-28.5 -77.5h-120z
M488 284l-32 81.5l-35.5 87l-33 77.5t-24.5 53l-29 -63.5l-33 -75l-34 -80.5l-32 -80h253zM492 855q26 0 35 -12.5t9 -32.5q0 -15 -3.5 -25t-5.5 -15h-295q-23 0 -33.5 12t-10.5 31q0 16 3 25t5 17h296z" />
    <glyph glyph-name="amacron" unicode="&#x101;" horiz-adv-x="569" 
d="M510 2q-10 -2 -31.5 -4.5t-50.5 -5t-65 -4.5t-75 -2q-78 0 -127.5 13.5t-78 36t-39 52t-10.5 60.5q0 41 12.5 72t41 52t74.5 31.5t112 10.5q38 0 72 -2.5t51 -4.5q0 35 -11.5 58t-31.5 36t-48 18t-62 5q-57 0 -91.5 -13t-45.5 -22q-6 5 -16.5 19t-10.5 34q0 14 7.5 27.5
t26.5 24t51 16.5t81 6q59 0 107.5 -11.5t83.5 -36.5t54.5 -66t19.5 -99v-301zM397 224q-10 2 -37.5 6t-82.5 4q-68 0 -99 -20.5t-31 -64.5q0 -18 6.5 -33t22.5 -25.5t43.5 -16t68.5 -5.5q46 0 73 3.5t36 5.5v146zM416 676q23 0 31.5 -11.5t8.5 -29.5q0 -14 -3 -24.5
t-5 -13.5h-276q-22 0 -31 11t-9 30q0 14 3 23.5t5 14.5h276z" />
    <glyph glyph-name="Abreve" unicode="&#x102;" horiz-adv-x="733" 
d="M5 0l56 144.5l65 159l70.5 165.5l72.5 164q18 40 41 55.5t58 15.5q13 0 25.5 -3t22 -7t16 -7.5t7.5 -4.5q16 -28 41.5 -83l55 -123.5l60.5 -143l57.5 -141l46.5 -118l28 -73.5h-132q-5 12 -13 34l-17.5 47.5l-19.5 51.5l-18 46h-335l-39.5 -101.5l-28.5 -77.5h-120z
M488 284l-32 81.5l-35.5 87l-33 77.5t-24.5 53l-29 -63.5l-33 -75l-34 -80.5l-32 -80h253zM265 896q11 -35 36 -53.5t63 -18.5t63.5 18.5t36.5 53.5l66 -7q-1 -20 -9.5 -44.5t-27.5 -46t-50.5 -36.5t-78.5 -15t-78.5 15t-50.5 36.5t-27.5 46t-9.5 44.5z" />
    <glyph glyph-name="abreve" unicode="&#x103;" horiz-adv-x="569" 
d="M510 2q-10 -2 -31.5 -4.5t-50.5 -5t-65 -4.5t-75 -2q-78 0 -127.5 13.5t-78 36t-39 52t-10.5 60.5q0 41 12.5 72t41 52t74.5 31.5t112 10.5q38 0 72 -2.5t51 -4.5q0 35 -11.5 58t-31.5 36t-48 18t-62 5q-57 0 -91.5 -13t-45.5 -22q-6 5 -16.5 19t-10.5 34q0 14 7.5 27.5
t26.5 24t51 16.5t81 6q59 0 107.5 -11.5t83.5 -36.5t54.5 -66t19.5 -99v-301zM397 224q-10 2 -37.5 6t-82.5 4q-68 0 -99 -20.5t-31 -64.5q0 -18 6.5 -33t22.5 -25.5t43.5 -16t68.5 -5.5q46 0 73 3.5t36 5.5v146zM206 715q8 -34 30 -52.5t57 -18.5t57.5 18.5t30.5 52.5
l54 -7q-1 -19 -8 -42.5t-23 -44.5t-43 -35.5t-68 -14.5t-68 14.5t-43 35.5t-23 44.5t-8 42.5z" />
    <glyph glyph-name="Aogonek" unicode="&#x104;" horiz-adv-x="733" 
d="M5 0l56 144.5l65 159l70.5 165.5l72.5 164q18 40 41 55.5t58 15.5q13 0 25.5 -3t22 -7t16 -7.5t7.5 -4.5q16 -28 41.5 -83l55 -123.5l60.5 -143l57.5 -141l46.5 -118l28 -73.5h-47q-15 -4 -29.5 -10.5t-26 -15.5t-18.5 -20.5t-7 -25.5q0 -19 13.5 -26.5t31.5 -7.5
q25 0 43 8t21 10l25 -57q-11 -6 -38.5 -15.5t-68.5 -9.5q-49 0 -80 19t-31 63q0 25 10 42t23 28t25.5 16.5t18.5 7.5l-13 36l-17 46l-18.5 48l-16.5 43h-335l-39.5 -101.5l-28.5 -77.5h-120zM488 284l-32 81.5l-35.5 87l-33 77.5t-24.5 53l-29 -63.5l-33 -75l-34 -80.5
l-32 -80h253z" />
    <glyph glyph-name="aogonek" unicode="&#x105;" horiz-adv-x="569" 
d="M510 2q-8 -2 -22.5 -3.5l-34.5 -3.5q-29 -8 -53 -26t-24 -46q0 -21 14 -29t34 -8q25 0 42.5 7.5t20.5 9.5l23 -53q-11 -6 -37.5 -15t-67.5 -9q-48 0 -78.5 18.5t-30.5 61.5q0 32 16 51.5t33 29.5q-14 0 -28 -0.5t-29 -0.5q-78 0 -127.5 13.5t-78 36t-39 52t-10.5 60.5
q0 41 12.5 72t41 52t74.5 31.5t112 10.5q38 0 72 -2.5t51 -4.5q0 35 -11.5 58t-31.5 36t-48 18t-62 5q-57 0 -91.5 -13t-45.5 -22q-6 5 -16.5 19t-10.5 34q0 14 7.5 27.5t26.5 24t51 16.5t81 6q59 0 107.5 -11.5t83.5 -36.5t54.5 -66t19.5 -99v-301zM397 224q-10 2 -37.5 6
t-82.5 4q-68 0 -99 -20.5t-31 -64.5q0 -18 6.5 -33t22.5 -25.5t43.5 -16t68.5 -5.5q46 0 73 3.5t36 5.5v146z" />
    <glyph glyph-name="Cacute" unicode="&#x106;" horiz-adv-x="664" 
d="M649 46q-11 -8 -30.5 -19t-49 -21t-69.5 -17t-91 -7q-74 0 -140 23.5t-116.5 68.5t-80 112t-29.5 154q0 86 28.5 154t78 114.5t115.5 71t141 24.5q72 0 118 -12t72.5 -29.5t37 -36t10.5 -30.5q0 -13 -5.5 -25t-13 -21.5t-15.5 -16.5t-14 -10q-10 11 -27.5 24t-41.5 24
t-54 18.5t-65 7.5q-51 0 -95 -17.5t-76 -51t-50.5 -81t-18.5 -107.5q0 -61 19.5 -107.5t53.5 -78t80 -47.5t99 -16q63 0 108.5 16t66.5 30l53 -91h1zM295 802l127 74q17 10 31.5 14.5t30.5 4.5q18 0 30 -8.5t19.5 -19.5t10.5 -22t3 -16l-217 -86z" />
    <glyph glyph-name="cacute" unicode="&#x107;" horiz-adv-x="501" 
d="M494 36q-12 -8 -29.5 -16.5t-40 -16t-51 -12.5t-64.5 -5q-56 0 -105 17t-86 50.5t-58.5 82.5t-21.5 113t21 114t58 84t87.5 51.5t108.5 17.5q49 0 83.5 -8t56 -20t31 -27t9.5 -30q0 -20 -13.5 -37t-25.5 -26q-18 17 -52 32.5t-84 15.5q-34 0 -63.5 -10t-51 -30.5t-34 -51
t-12.5 -72.5q0 -44 13 -75t36 -51t53 -29.5t65 -9.5q50 0 80.5 13.5t41.5 20.5zM214 618l109 79q15 11 27.5 16.5t26.5 5.5q16 0 27.5 -7.5t18 -18t10 -20.5t3.5 -14l-185 -93z" />
    <glyph glyph-name="Ccircumflex" unicode="&#x108;" horiz-adv-x="664" 
d="M649 46q-11 -8 -30.5 -19t-49 -21t-69.5 -17t-91 -7q-74 0 -140 23.5t-116.5 68.5t-80 112t-29.5 154q0 86 28.5 154t78 114.5t115.5 71t141 24.5q72 0 118 -12t72.5 -29.5t37 -36t10.5 -30.5q0 -13 -5.5 -25t-13 -21.5t-15.5 -16.5t-14 -10q-10 11 -27.5 24t-41.5 24
t-54 18.5t-65 7.5q-51 0 -95 -17.5t-76 -51t-50.5 -81t-18.5 -107.5q0 -61 19.5 -107.5t53.5 -78t80 -47.5t99 -16q63 0 108.5 16t66.5 30l53 -91h1zM232 790l104 75q14 10 32 20t38 10t43 -11t45.5 -27.5t44.5 -34.5t41 -32l-47 -49l-127 69l-127 -69z" />
    <glyph glyph-name="ccircumflex" unicode="&#x109;" horiz-adv-x="501" 
d="M494 36q-12 -8 -29.5 -16.5t-40 -16t-51 -12.5t-64.5 -5q-56 0 -105 17t-86 50.5t-58.5 82.5t-21.5 113t21 114t58 84t87.5 51.5t108.5 17.5q49 0 83.5 -8t56 -20t31 -27t9.5 -30q0 -20 -13.5 -37t-25.5 -26q-18 17 -52 32.5t-84 15.5q-34 0 -63.5 -10t-51 -30.5t-34 -51
t-12.5 -72.5q0 -44 13 -75t36 -51t53 -29.5t65 -9.5q50 0 80.5 13.5t41.5 20.5zM141 614l94 75q14 11 30 21.5t34 10.5t34.5 -10t30.5 -21l93 -76l-41 -48l-117 72l-117 -72z" />
    <glyph glyph-name="Cdotaccent" unicode="&#x10a;" horiz-adv-x="664" 
d="M649 46q-11 -8 -30.5 -19t-49 -21t-69.5 -17t-91 -7q-74 0 -140 23.5t-116.5 68.5t-80 112t-29.5 154q0 86 28.5 154t78 114.5t115.5 71t141 24.5q72 0 118 -12t72.5 -29.5t37 -36t10.5 -30.5q0 -13 -5.5 -25t-13 -21.5t-15.5 -16.5t-14 -10q-10 11 -27.5 24t-41.5 24
t-54 18.5t-65 7.5q-51 0 -95 -17.5t-76 -51t-50.5 -81t-18.5 -107.5q0 -61 19.5 -107.5t53.5 -78t80 -47.5t99 -16q63 0 108.5 16t66.5 30l53 -91h1zM340 811q0 24 20 43.5t46 19.5q25 0 44 -19.5t19 -43.5q0 -12 -5 -23t-14 -19.5t-20.5 -14t-23.5 -5.5q-26 0 -46 19.5
t-20 42.5z" />
    <glyph glyph-name="cdotaccent" unicode="&#x10b;" horiz-adv-x="501" 
d="M494 36q-12 -8 -29.5 -16.5t-40 -16t-51 -12.5t-64.5 -5q-56 0 -105 17t-86 50.5t-58.5 82.5t-21.5 113t21 114t58 84t87.5 51.5t108.5 17.5q49 0 83.5 -8t56 -20t31 -27t9.5 -30q0 -20 -13.5 -37t-25.5 -26q-18 17 -52 32.5t-84 15.5q-34 0 -63.5 -10t-51 -30.5t-34 -51
t-12.5 -72.5q0 -44 13 -75t36 -51t53 -29.5t65 -9.5q50 0 80.5 13.5t41.5 20.5zM311 695q25 0 43.5 -19t18.5 -42t-18.5 -42t-43.5 -19q-13 0 -24.5 5t-20.5 13.5t-14 19.5t-5 23t5 23t14 19.5t20.5 13.5t24.5 5z" />
    <glyph glyph-name="Ccaron" unicode="&#x10c;" horiz-adv-x="664" 
d="M649 46q-11 -8 -30.5 -19t-49 -21t-69.5 -17t-91 -7q-74 0 -140 23.5t-116.5 68.5t-80 112t-29.5 154q0 86 28.5 154t78 114.5t115.5 71t141 24.5q72 0 118 -12t72.5 -29.5t37 -36t10.5 -30.5q0 -13 -5.5 -25t-13 -21.5t-15.5 -16.5t-14 -10q-10 11 -27.5 24t-41.5 24
t-54 18.5t-65 7.5q-51 0 -95 -17.5t-76 -51t-50.5 -81t-18.5 -107.5q0 -61 19.5 -107.5t53.5 -78t80 -47.5t99 -16q63 0 108.5 16t66.5 30l53 -91h1zM268 895l128 -69l64.5 34.5l63.5 34.5l45 -48l-103 -75q-15 -11 -32.5 -20t-37.5 -9t-38 9t-32 20l-103 75z" />
    <glyph glyph-name="ccaron" unicode="&#x10d;" horiz-adv-x="501" 
d="M494 36q-12 -8 -29.5 -16.5t-40 -16t-51 -12.5t-64.5 -5q-56 0 -105 17t-86 50.5t-58.5 82.5t-21.5 113t21 114t58 84t87.5 51.5t108.5 17.5q49 0 83.5 -8t56 -20t31 -27t9.5 -30q0 -20 -13.5 -37t-25.5 -26q-18 17 -52 32.5t-84 15.5q-34 0 -63.5 -10t-51 -30.5t-34 -51
t-12.5 -72.5q0 -44 13 -75t36 -51t53 -29.5t65 -9.5q50 0 80.5 13.5t41.5 20.5zM190 721l118 -72l118 72l39 -48l-93 -76q-14 -11 -30 -21t-34 -10t-34 10t-30 21l-93 76z" />
    <glyph glyph-name="Dcaron" unicode="&#x10e;" horiz-adv-x="746" 
d="M192 104q6 -2 32 -4.5t73 -2.5q136 0 208 64.5t72 182.5q0 54 -16.5 99.5t-50.5 78t-87 51t-126 18.5q-48 0 -74.5 -2.5t-30.5 -3.5v-481zM73 621q0 26 10 41t35.5 22.5t68 9.5t108.5 2q95 0 170.5 -24.5t128 -70t80.5 -111t28 -146.5q0 -82 -27 -147.5t-79.5 -111.5
t-130 -70.5t-178.5 -24.5q-107 0 -158 4.5t-56 5.5v621zM213 895l128 -69l64.5 34.5l63.5 34.5l45 -48l-103 -75q-15 -11 -32.5 -20t-37.5 -9t-38 9t-32 20l-103 75z" />
    <glyph glyph-name="dcaron" unicode="&#x10f;" horiz-adv-x="625" 
d="M465 684q0 27 15.5 40t44.5 13q18 0 33 -4.5t20 -6.5v-451q0 -73 -20.5 -127t-56.5 -90t-85 -54t-107 -18q-59 0 -108.5 20t-85.5 55t-56.5 84t-20.5 106q0 58 19.5 106.5t54 84t81 55t101.5 19.5q58 0 102 -22.5t69 -54.5v245zM465 251q0 34 -11.5 64t-31.5 52
t-48.5 34.5t-62.5 12.5q-35 0 -63 -12.5t-48.5 -34t-31.5 -51.5t-11 -65t11 -64.5t31.5 -51t48.5 -34t63 -12.5q34 0 62.5 12t48.5 33t31.5 51t11.5 66zM666 516v159q0 29 14.5 45.5t49.5 16.5q20 0 27 -4l-23 -217h-68z" />
    <glyph glyph-name="Dcroat" unicode="&#x110;" horiz-adv-x="746" 
d="M78 304h-44q-25 0 -35.5 13.5t-10.5 36.5q0 15 4 26.5t6 16.5h80v224q0 26 10 41t35.5 22.5t68 9.5t108.5 2q95 0 170.5 -24.5t128 -70t80.5 -111t28 -146.5q0 -82 -27 -147.5t-79.5 -111.5t-130 -70.5t-178.5 -24.5q-107 0 -158 4.5t-56 5.5v304zM197 104q6 -2 32 -4.5
t73 -2.5q136 0 208 64.5t72 182.5q0 54 -16.5 99.5t-50.5 78t-87 51t-126 18.5q-48 0 -74.5 -2.5t-30.5 -3.5v-188h128q26 0 36 -13t10 -36q0 -16 -4 -27.5t-6 -16.5h-164v-200z" />
    <glyph glyph-name="dcroat" unicode="&#x111;" horiz-adv-x="625" 
d="M465 560h-123q-25 0 -35.5 13t-10.5 34q0 15 4 25l6 15h159v37q0 27 15.5 40t44.5 13q18 0 33 -4.5t20 -6.5v-79h45q26 0 36 -13t10 -33q0 -16 -4 -26l-6 -15h-81v-285q0 -73 -20.5 -127t-56.5 -90t-85 -54t-107 -18q-59 0 -108.5 19.5t-85.5 54t-56.5 83t-20.5 105.5
q0 58 19.5 105.5t54 81.5t81 52.5t101.5 18.5q58 0 102 -22.5t69 -54.5v131zM311 89q34 0 62.5 12t48.5 33t31.5 51t11.5 66q0 34 -11.5 62.5t-32.5 48.5t-49.5 31t-62.5 11q-69 0 -110.5 -43t-41.5 -113q0 -35 11 -64t31.5 -50t48.5 -33t63 -12z" />
    <glyph glyph-name="Emacron" unicode="&#x112;" horiz-adv-x="638" 
d="M73 618q0 68 73 68h384q60 0 60 -54q0 -19 -6 -34.5t-9 -20.5h-381v-172h322q59 0 59 -54q0 -19 -5.5 -34.5t-9.5 -20.5h-366v-187h390v-109h-511v618zM491 855q26 0 35 -12.5t9 -32.5q0 -15 -3.5 -25t-5.5 -15h-295q-23 0 -33.5 12t-10.5 31q0 16 3 25t5 17h296z" />
    <glyph glyph-name="emacron" unicode="&#x113;" horiz-adv-x="551" 
d="M505 37q-8 -5 -25 -14t-42.5 -17t-59 -14t-73.5 -6q-56 0 -104.5 17t-85 50.5t-57.5 82t-21 111.5q0 60 20.5 109.5t57 85t86 55t108.5 19.5q52 0 92 -13.5t67.5 -36t41.5 -52.5t14 -64q0 -35 -13 -63.5t-46 -49t-89 -32t-142 -11.5q-20 0 -37.5 0.5t-37.5 1.5
q8 -51 49.5 -82.5t118.5 -31.5q26 0 48 4t39.5 10t30 12l18.5 9zM154 274q23 -1 44 -1h42q55 0 89 7t53 18t25 25t6 29q0 38 -30.5 57t-75.5 19q-37 0 -65 -13t-47 -34.5t-29.5 -49.5t-11.5 -57zM425 676q23 0 31.5 -11.5t8.5 -29.5q0 -14 -3 -24.5t-5 -13.5h-276
q-22 0 -31 11t-9 30q0 14 3 23.5t5 14.5h276z" />
    <glyph glyph-name="Ebreve" unicode="&#x114;" horiz-adv-x="638" 
d="M73 618q0 68 73 68h384q60 0 60 -54q0 -19 -6 -34.5t-9 -20.5h-381v-172h322q59 0 59 -54q0 -19 -5.5 -34.5t-9.5 -20.5h-366v-187h390v-109h-511v618zM242 896q11 -35 36 -53.5t63 -18.5t63.5 18.5t36.5 53.5l66 -7q-1 -20 -9.5 -44.5t-27.5 -46t-50.5 -36.5t-78.5 -15
t-78.5 15t-50.5 36.5t-27.5 46t-9.5 44.5z" />
    <glyph glyph-name="ebreve" unicode="&#x115;" horiz-adv-x="551" 
d="M505 37q-8 -5 -25 -14t-42.5 -17t-59 -14t-73.5 -6q-56 0 -104.5 17t-85 50.5t-57.5 82t-21 111.5q0 60 20.5 109.5t57 85t86 55t108.5 19.5q52 0 92 -13.5t67.5 -36t41.5 -52.5t14 -64q0 -35 -13 -63.5t-46 -49t-89 -32t-142 -11.5q-20 0 -37.5 0.5t-37.5 1.5
q8 -51 49.5 -82.5t118.5 -31.5q26 0 48 4t39.5 10t30 12l18.5 9zM154 274q23 -1 44 -1h42q55 0 89 7t53 18t25 25t6 29q0 38 -30.5 57t-75.5 19q-37 0 -65 -13t-47 -34.5t-29.5 -49.5t-11.5 -57zM223 715q8 -34 30 -52.5t57 -18.5t57.5 18.5t30.5 52.5l54 -7
q-1 -19 -8 -42.5t-23 -44.5t-43 -35.5t-68 -14.5t-68 14.5t-43 35.5t-23 44.5t-8 42.5z" />
    <glyph glyph-name="Edotaccent" unicode="&#x116;" horiz-adv-x="638" 
d="M73 618q0 68 73 68h384q60 0 60 -54q0 -19 -6 -34.5t-9 -20.5h-381v-172h322q59 0 59 -54q0 -19 -5.5 -34.5t-9.5 -20.5h-366v-187h390v-109h-511v618zM279 811q0 24 20 43.5t46 19.5q25 0 44 -19.5t19 -43.5q0 -12 -5 -23t-14 -19.5t-20.5 -14t-23.5 -5.5
q-26 0 -46 19.5t-20 42.5z" />
    <glyph glyph-name="edotaccent" unicode="&#x117;" horiz-adv-x="551" 
d="M505 37q-8 -5 -25 -14t-42.5 -17t-59 -14t-73.5 -6q-56 0 -104.5 17t-85 50.5t-57.5 82t-21 111.5q0 60 20.5 109.5t57 85t86 55t108.5 19.5q52 0 92 -13.5t67.5 -36t41.5 -52.5t14 -64q0 -35 -13 -63.5t-46 -49t-89 -32t-142 -11.5q-20 0 -37.5 0.5t-37.5 1.5
q8 -51 49.5 -82.5t118.5 -31.5q26 0 48 4t39.5 10t30 12l18.5 9zM154 274q23 -1 44 -1h42q55 0 89 7t53 18t25 25t6 29q0 38 -30.5 57t-75.5 19q-37 0 -65 -13t-47 -34.5t-29.5 -49.5t-11.5 -57zM307 695q25 0 43.5 -19t18.5 -42t-18.5 -42t-43.5 -19q-13 0 -24.5 5
t-20.5 13.5t-14 19.5t-5 23t5 23t14 19.5t20.5 13.5t24.5 5z" />
    <glyph glyph-name="Eogonek" unicode="&#x118;" horiz-adv-x="638" 
d="M73 618q0 68 73 68h384q60 0 60 -54q0 -19 -6 -34.5t-9 -20.5h-381v-172h322q59 0 59 -54q0 -19 -5.5 -34.5t-9.5 -20.5h-366v-187h390v-109h-53q-15 -4 -29.5 -10.5t-26 -15.5t-18.5 -20.5t-7 -25.5q0 -19 13.5 -26.5t31.5 -7.5q25 0 43 8t21 10l25 -57
q-11 -6 -38.5 -15.5t-68.5 -9.5q-49 0 -80 19t-31 63q0 19 6 33.5t15.5 25.5t20 18t19.5 11h-354v618z" />
    <glyph glyph-name="eogonek" unicode="&#x119;" horiz-adv-x="551" 
d="M505 37q-11 -8 -38 -20.5t-69 -20.5q-27 -10 -48.5 -27t-21.5 -43q0 -21 14 -29t34 -8q25 0 42.5 7.5t20.5 9.5l23 -53q-11 -6 -37.5 -15t-67.5 -9q-48 0 -78.5 18.5t-30.5 61.5q0 29 13.5 47.5t29.5 29.5q-53 2 -99.5 20.5t-81 51.5t-54 80.5t-19.5 108.5
q0 60 20.5 109.5t57 85t86 55t108.5 19.5q52 0 92 -13.5t67.5 -36t41.5 -52.5t14 -64q0 -35 -13 -63.5t-46 -49t-89 -32t-142 -11.5q-20 0 -37.5 0.5t-37.5 1.5q8 -51 49.5 -82.5t118.5 -31.5q26 0 48 4t39.5 10t30 12l18.5 9zM154 274q23 -1 44 -1h42q55 0 89 7t53 18
t25 25t6 29q0 38 -30.5 57t-75.5 19q-37 0 -65 -13t-47 -34.5t-29.5 -49.5t-11.5 -57z" />
    <glyph glyph-name="Ecaron" unicode="&#x11a;" horiz-adv-x="638" 
d="M73 618q0 68 73 68h384q60 0 60 -54q0 -19 -6 -34.5t-9 -20.5h-381v-172h322q59 0 59 -54q0 -19 -5.5 -34.5t-9.5 -20.5h-366v-187h390v-109h-511v618zM216 895l128 -69l64.5 34.5l63.5 34.5l45 -48l-103 -75q-15 -11 -32.5 -20t-37.5 -9t-38 9t-32 20l-103 75z" />
    <glyph glyph-name="ecaron" unicode="&#x11b;" horiz-adv-x="551" 
d="M505 37q-8 -5 -25 -14t-42.5 -17t-59 -14t-73.5 -6q-56 0 -104.5 17t-85 50.5t-57.5 82t-21 111.5q0 60 20.5 109.5t57 85t86 55t108.5 19.5q52 0 92 -13.5t67.5 -36t41.5 -52.5t14 -64q0 -35 -13 -63.5t-46 -49t-89 -32t-142 -11.5q-20 0 -37.5 0.5t-37.5 1.5
q8 -51 49.5 -82.5t118.5 -31.5q26 0 48 4t39.5 10t30 12l18.5 9zM154 274q23 -1 44 -1h42q55 0 89 7t53 18t25 25t6 29q0 38 -30.5 57t-75.5 19q-37 0 -65 -13t-47 -34.5t-29.5 -49.5t-11.5 -57zM189 721l118 -72l118 72l39 -48l-93 -76q-14 -11 -30 -21t-34 -10t-34 10
t-30 21l-93 76z" />
    <glyph glyph-name="Gcircumflex" unicode="&#x11c;" horiz-adv-x="719" 
d="M543 276h-117q-59 0 -59 52q0 20 5.5 35t9.5 20h207q71 0 71 -68v-316q-8 -2 -29 -4.5t-50.5 -5.5t-65.5 -5t-75 -2q-87 0 -160 23t-125.5 68t-82 112.5t-29.5 156.5q0 84 29 151t80 114t120.5 72t150.5 25q41 0 74 -5t58 -12.5t42.5 -15.5t27.5 -15q18 -12 26.5 -25.5
t8.5 -27.5q0 -13 -5.5 -24.5t-13 -21t-15.5 -16.5t-14 -11q-11 11 -28.5 23t-42 21.5t-54.5 16t-66 6.5q-56 0 -102 -17.5t-80 -50.5t-52.5 -80.5t-18.5 -106.5q0 -66 20 -114t57 -78.5t87.5 -45.5t112.5 -15q37 0 64 2t34 4v181zM243 790l104 75q14 10 32 20t38 10t43 -11
t45.5 -27.5t44.5 -34.5t41 -32l-47 -49l-127 69l-127 -69z" />
    <glyph glyph-name="gcircumflex" unicode="&#x11d;" horiz-adv-x="625" 
d="M121 -86q4 -2 17.5 -7.5t34 -11t48 -9.5t59.5 -4q34 0 67 7.5t59 27t42.5 54.5t16.5 90v12q-23 -27 -66.5 -51t-104.5 -24q-56 0 -103 18.5t-81 52t-53 80.5t-19 104t20.5 105t56.5 83t86.5 55t110.5 20q57 0 105.5 -17t84.5 -52t56 -89t20 -127v-144q0 -79 -21.5 -135.5
t-59.5 -92.5t-90.5 -52.5t-114.5 -16.5q-41 0 -74.5 4.5t-59.5 11t-43 13t-25 10.5zM311 94q34 0 62 12t48 33t31.5 50t11.5 64q0 34 -11.5 63.5t-31.5 51t-48 33.5t-62 12q-35 0 -63.5 -12.5t-48.5 -34.5t-31 -51t-11 -62q0 -72 42 -115.5t112 -43.5zM160 614l94 75
q14 11 30 21.5t34 10.5t34.5 -10t30.5 -21l93 -76l-41 -48l-117 72l-117 -72z" />
    <glyph glyph-name="Gbreve" unicode="&#x11e;" horiz-adv-x="719" 
d="M543 276h-117q-59 0 -59 52q0 20 5.5 35t9.5 20h207q71 0 71 -68v-316q-8 -2 -29 -4.5t-50.5 -5.5t-65.5 -5t-75 -2q-87 0 -160 23t-125.5 68t-82 112.5t-29.5 156.5q0 84 29 151t80 114t120.5 72t150.5 25q41 0 74 -5t58 -12.5t42.5 -15.5t27.5 -15q18 -12 26.5 -25.5
t8.5 -27.5q0 -13 -5.5 -24.5t-13 -21t-15.5 -16.5t-14 -11q-11 11 -28.5 23t-42 21.5t-54.5 16t-66 6.5q-56 0 -102 -17.5t-80 -50.5t-52.5 -80.5t-18.5 -106.5q0 -66 20 -114t57 -78.5t87.5 -45.5t112.5 -15q37 0 64 2t34 4v181zM322 896q11 -35 36 -53.5t63 -18.5
t63.5 18.5t36.5 53.5l66 -7q-1 -20 -9.5 -44.5t-27.5 -46t-50.5 -36.5t-78.5 -15t-78.5 15t-50.5 36.5t-27.5 46t-9.5 44.5z" />
    <glyph glyph-name="gbreve" unicode="&#x11f;" horiz-adv-x="625" 
d="M121 -86q4 -2 17.5 -7.5t34 -11t48 -9.5t59.5 -4q34 0 67 7.5t59 27t42.5 54.5t16.5 90v12q-23 -27 -66.5 -51t-104.5 -24q-56 0 -103 18.5t-81 52t-53 80.5t-19 104t20.5 105t56.5 83t86.5 55t110.5 20q57 0 105.5 -17t84.5 -52t56 -89t20 -127v-144q0 -79 -21.5 -135.5
t-59.5 -92.5t-90.5 -52.5t-114.5 -16.5q-41 0 -74.5 4.5t-59.5 11t-43 13t-25 10.5zM311 94q34 0 62 12t48 33t31.5 50t11.5 64q0 34 -11.5 63.5t-31.5 51t-48 33.5t-62 12q-35 0 -63.5 -12.5t-48.5 -34.5t-31 -51t-11 -62q0 -72 42 -115.5t112 -43.5zM232 715
q8 -34 30 -52.5t57 -18.5t57.5 18.5t30.5 52.5l54 -7q-1 -19 -8 -42.5t-23 -44.5t-43 -35.5t-68 -14.5t-68 14.5t-43 35.5t-23 44.5t-8 42.5z" />
    <glyph glyph-name="Gdotaccent" unicode="&#x120;" horiz-adv-x="719" 
d="M543 276h-117q-59 0 -59 52q0 20 5.5 35t9.5 20h207q71 0 71 -68v-316q-8 -2 -29 -4.5t-50.5 -5.5t-65.5 -5t-75 -2q-87 0 -160 23t-125.5 68t-82 112.5t-29.5 156.5q0 84 29 151t80 114t120.5 72t150.5 25q41 0 74 -5t58 -12.5t42.5 -15.5t27.5 -15q18 -12 26.5 -25.5
t8.5 -27.5q0 -13 -5.5 -24.5t-13 -21t-15.5 -16.5t-14 -11q-11 11 -28.5 23t-42 21.5t-54.5 16t-66 6.5q-56 0 -102 -17.5t-80 -50.5t-52.5 -80.5t-18.5 -106.5q0 -66 20 -114t57 -78.5t87.5 -45.5t112.5 -15q37 0 64 2t34 4v181zM351 811q0 24 20 43.5t46 19.5
q25 0 44 -19.5t19 -43.5q0 -12 -5 -23t-14 -19.5t-20.5 -14t-23.5 -5.5q-26 0 -46 19.5t-20 42.5z" />
    <glyph glyph-name="gdotaccent" unicode="&#x121;" horiz-adv-x="625" 
d="M121 -86q4 -2 17.5 -7.5t34 -11t48 -9.5t59.5 -4q34 0 67 7.5t59 27t42.5 54.5t16.5 90v12q-23 -27 -66.5 -51t-104.5 -24q-56 0 -103 18.5t-81 52t-53 80.5t-19 104t20.5 105t56.5 83t86.5 55t110.5 20q57 0 105.5 -17t84.5 -52t56 -89t20 -127v-144q0 -79 -21.5 -135.5
t-59.5 -92.5t-90.5 -52.5t-114.5 -16.5q-41 0 -74.5 4.5t-59.5 11t-43 13t-25 10.5zM311 94q34 0 62 12t48 33t31.5 50t11.5 64q0 34 -11.5 63.5t-31.5 51t-48 33.5t-62 12q-35 0 -63.5 -12.5t-48.5 -34.5t-31 -51t-11 -62q0 -72 42 -115.5t112 -43.5zM324 695
q25 0 43.5 -19t18.5 -42t-18.5 -42t-43.5 -19q-13 0 -24.5 5t-20.5 13.5t-14 19.5t-5 23t5 23t14 19.5t20.5 13.5t24.5 5z" />
    <glyph glyph-name="Gcommaaccent" unicode="&#x122;" horiz-adv-x="719" 
d="M543 276h-117q-59 0 -59 52q0 20 5.5 35t9.5 20h207q71 0 71 -68v-316q-8 -2 -29 -4.5t-50.5 -5.5t-65.5 -5t-75 -2q-87 0 -160 23t-125.5 68t-82 112.5t-29.5 156.5q0 84 29 151t80 114t120.5 72t150.5 25q41 0 74 -5t58 -12.5t42.5 -15.5t27.5 -15q18 -12 26.5 -25.5
t8.5 -27.5q0 -13 -5.5 -24.5t-13 -21t-15.5 -16.5t-14 -11q-11 11 -28.5 23t-42 21.5t-54.5 16t-66 6.5q-56 0 -102 -17.5t-80 -50.5t-52.5 -80.5t-18.5 -106.5q0 -66 20 -114t57 -78.5t87.5 -45.5t112.5 -15q37 0 64 2t34 4v181zM351 -123q3 31 16.5 49t42.5 18
q20 0 34.5 -7.5t19.5 -11.5l-60 -178l-66 12z" />
    <glyph glyph-name="gcommaaccent" unicode="&#x123;" horiz-adv-x="625" 
d="M121 -86q4 -2 17.5 -7.5t34 -11t48 -9.5t59.5 -4q34 0 67 7.5t59 27t42.5 54.5t16.5 90v12q-23 -27 -66.5 -51t-104.5 -24q-56 0 -103 18.5t-81 52t-53 80.5t-19 104t20.5 105t56.5 83t86.5 55t110.5 20q57 0 105.5 -17t84.5 -52t56 -89t20 -127v-144q0 -79 -21.5 -135.5
t-59.5 -92.5t-90.5 -52.5t-114.5 -16.5q-41 0 -74.5 4.5t-59.5 11t-43 13t-25 10.5zM311 94q34 0 62 12t48 33t31.5 50t11.5 64q0 34 -11.5 63.5t-31.5 51t-48 33.5t-62 12q-35 0 -63.5 -12.5t-48.5 -34.5t-31 -51t-11 -62q0 -72 42 -115.5t112 -43.5zM365 633
q-4 -31 -17.5 -49t-41.5 -18q-20 0 -34.5 7.5t-19.5 11.5l60 178l66 -12z" />
    <glyph glyph-name="Hcircumflex" unicode="&#x124;" horiz-adv-x="736" 
d="M73 631q0 28 17 41.5t46 13.5q19 0 35 -5t21 -7v-263h352v220q0 28 16.5 41.5t45.5 13.5q20 0 36 -5t21 -8v-673h-119v302h-352v-302h-119v631zM204 790l104 75q14 10 32 20t38 10t43 -11t45.5 -27.5t44.5 -34.5t41 -32l-47 -49l-127 69l-127 -69z" />
    <glyph glyph-name="hcircumflex" unicode="&#x125;" horiz-adv-x="603" 
d="M58 684q0 27 16 40t45 13q18 0 33 -4.5t20 -6.5v-275q20 24 60 45t104 21q46 0 84.5 -13t66.5 -38.5t43 -63.5t15 -89v-313h-114v279q0 66 -27.5 100t-94.5 34q-68 0 -102.5 -39.5t-34.5 -104.5v-269h-114v684zM79 824l94 75q14 11 30 21.5t34 10.5t34.5 -10t30.5 -21
l93 -76l-41 -48l-117 72l-117 -72z" />
    <glyph glyph-name="Hbar" unicode="&#x126;" horiz-adv-x="780" 
d="M95 488h-44q-25 0 -35.5 13.5t-10.5 36.5q0 15 4 26.5t6 16.5h80v50q0 28 17 41.5t46 13.5q19 0 35 -5t21 -7v-93h352v50q0 28 16.5 41.5t45.5 13.5q20 0 36 -5t21 -8v-92h44q26 0 36 -13t10 -36q0 -16 -4 -27.5t-6 -16.5h-80v-488h-119v302h-352v-302h-119v488zM566 411
v77h-352v-77h352z" />
    <glyph glyph-name="hbar" unicode="&#x127;" horiz-adv-x="603" 
d="M58 564h-34q-25 0 -35.5 13t-10.5 34q0 15 4 25l6 15h70v33q0 27 16 40t45 13q18 0 33 -4.5t20 -6.5v-75h128q26 0 36 -13t10 -33q0 -16 -4 -26l-6 -15h-164v-133q20 24 60 45t104 21q46 0 84.5 -13t66.5 -38.5t43 -63.5t15 -89v-293h-114v259q0 66 -27.5 100t-94.5 34
q-68 0 -102.5 -39.5t-34.5 -104.5v-249h-114v564z" />
    <glyph glyph-name="Itilde" unicode="&#x128;" horiz-adv-x="265" 
d="M73 631q0 28 17 41.5t46 13.5q19 0 35 -5t21 -7v-674h-119v631zM-38 765q4 19 11.5 38t20.5 34t31 24t43 9q22 0 40 -4.5t34.5 -10t31.5 -10t32 -4.5q14 0 21.5 8.5t12.5 27.5l74 -13q-4 -20 -11.5 -38.5t-20.5 -33.5t-31 -24t-43 -9q-23 0 -41 4.5t-34.5 10.5
t-31.5 10.5t-31 4.5q-14 0 -21 -9t-12 -29z" />
    <glyph glyph-name="itilde" unicode="&#x129;" horiz-adv-x="241" 
d="M63 449q0 28 16 40.5t45 12.5q18 0 33 -4.5t20 -6.5v-491h-114v449zM-49 587q4 19 11.5 37t20 32.5t30.5 23.5t43 9q24 0 40.5 -4.5l30.5 -8.5l24 -7l20.5 -6t22.5 -3q15 0 23.5 8.5t13.5 27.5l70 -13q-4 -19 -11.5 -37t-20 -32.5t-30.5 -23.5t-43 -9q-21 0 -38.5 4.5
t-34.5 9.5l-24 8q-22 8 -41 8q-15 0 -23 -9t-13 -29z" />
    <glyph glyph-name="Imacron" unicode="&#x12a;" horiz-adv-x="265" 
d="M73 631q0 28 17 41.5t46 13.5q19 0 35 -5t21 -7v-674h-119v631zM271 855q26 0 35 -12.5t9 -32.5q0 -15 -3.5 -25t-5.5 -15h-295q-23 0 -33.5 12t-10.5 31q0 16 3 25t5 17h296z" />
    <glyph glyph-name="imacron" unicode="&#x12b;" horiz-adv-x="241" 
d="M63 449q0 28 16 40.5t45 12.5q18 0 33 -4.5t20 -6.5v-491h-114v449zM255 676q23 0 31.5 -11.5t8.5 -29.5q0 -14 -3 -24.5t-5 -13.5h-276q-22 0 -31 11t-9 30q0 14 3 23.5t5 14.5h276z" />
    <glyph glyph-name="Ibreve" unicode="&#x12c;" horiz-adv-x="265" 
d="M73 631q0 28 17 41.5t46 13.5q19 0 35 -5t21 -7v-674h-119v631zM41 896q11 -35 36 -53.5t63 -18.5t63.5 18.5t36.5 53.5l66 -7q-1 -20 -9.5 -44.5t-27.5 -46t-50.5 -36.5t-78.5 -15t-78.5 15t-50.5 36.5t-27.5 46t-9.5 44.5z" />
    <glyph glyph-name="ibreve" unicode="&#x12d;" horiz-adv-x="241" 
d="M63 449q0 28 16 40.5t45 12.5q18 0 33 -4.5t20 -6.5v-491h-114v449zM47 715q8 -34 30 -52.5t57 -18.5t57.5 18.5t30.5 52.5l54 -7q-1 -19 -8 -42.5t-23 -44.5t-43 -35.5t-68 -14.5t-68 14.5t-43 35.5t-23 44.5t-8 42.5z" />
    <glyph glyph-name="Iogonek" unicode="&#x12e;" horiz-adv-x="265" 
d="M176 0q-15 -4 -29.5 -10.5t-26 -15.5t-18.5 -20.5t-7 -25.5q0 -19 13.5 -26.5t31.5 -7.5q25 0 43 8t21 10l25 -57q-11 -6 -38.5 -15.5t-68.5 -9.5q-49 0 -80 19t-31 63q0 19 6.5 34t15.5 25.5t20 17.5t20 11v631q0 28 17 41.5t46 13.5q19 0 35 -5t21 -7v-674h-16z" />
    <glyph glyph-name="iogonek" unicode="&#x12f;" horiz-adv-x="241" 
d="M63 449q0 28 16 40.5t45 12.5q18 0 33 -4.5t20 -6.5v-491h-19q-15 -4 -30 -10.5t-27 -15.5t-19.5 -21t-7.5 -27q0 -21 14 -29t34 -8q25 0 42.5 7.5t20.5 9.5l23 -53q-11 -6 -37.5 -15t-67.5 -9q-48 0 -78.5 18.5t-30.5 61.5q0 21 7.5 37t18.5 27t23 17.5t20 9.5v449z
M120 727q29 0 49 -20t20 -49t-20 -49t-49 -20t-49 20t-20 49t20 49t49 20z" />
    <glyph glyph-name="Idotaccent" unicode="&#x130;" horiz-adv-x="265" 
d="M73 631q0 28 17 41.5t46 13.5q19 0 35 -5t21 -7v-674h-119v631zM80 811q0 24 20 43.5t46 19.5q25 0 44 -19.5t19 -43.5q0 -12 -5 -23t-14 -19.5t-20.5 -14t-23.5 -5.5q-26 0 -46 19.5t-20 42.5z" />
    <glyph glyph-name="dotlessi" unicode="&#x131;" horiz-adv-x="241" 
d="M63 449q0 28 16 40.5t45 12.5q18 0 33 -4.5t20 -6.5v-491h-114v449z" />
    <glyph glyph-name="i.locl" horiz-adv-x="241" 
d="M63 449q0 28 16 40.5t45 12.5q18 0 33 -4.5t20 -6.5v-491h-114v449zM120 727q29 0 49 -20t20 -49t-20 -49t-49 -20t-49 20t-20 49t20 49t49 20z" />
    <glyph glyph-name="IJ" unicode="&#x132;" horiz-adv-x="858" 
d="M73 631q0 28 17 41.5t46 13.5q19 0 35 -5t21 -7v-674h-119v631zM362 174q6 -9 19 -24t33.5 -29.5t48.5 -25t64 -10.5q32 0 59 8t46.5 26t30 48t10.5 74v390q0 28 16.5 41.5t45.5 13.5q20 0 36 -5t21 -8v-440q0 -57 -16 -103.5t-48.5 -79t-81 -50.5t-114.5 -18
q-59 0 -104 16.5t-76 37.5t-48.5 41t-21.5 28z" />
    <glyph glyph-name="ij" unicode="&#x133;" horiz-adv-x="486" 
d="M63 449q0 28 16 40.5t45 12.5q18 0 33 -4.5t20 -6.5v-491h-114v449zM120 727q29 0 49 -20t20 -49t-20 -49t-49 -20t-49 20t-20 49t20 49t49 20zM145 -103q12 -6 31.5 -10.5t41.5 -4.5q17 0 33.5 3.5t29 13.5t20 27.5t7.5 46.5v476q0 28 16 40.5t45 12.5q18 0 33 -4.5
t20 -6.5v-509q0 -56 -15.5 -93t-41.5 -59t-59.5 -31t-69.5 -9q-20 0 -39 3t-35.5 6.5t-28.5 8t-18 7.5zM365 727q29 0 49 -20t20 -49t-20 -49t-49 -20t-49 20t-20 49t20 49t49 20z" />
    <glyph glyph-name="Jcircumflex" unicode="&#x134;" horiz-adv-x="587" 
d="M91 174q6 -9 19 -24t33.5 -29.5t48.5 -25t64 -10.5q32 0 59 8t46.5 26t30 48t10.5 74v390q0 28 16.5 41.5t45.5 13.5q20 0 36 -5t21 -8v-440q0 -57 -16 -103.5t-48.5 -79t-81 -50.5t-114.5 -18q-59 0 -104 16.5t-76 37.5t-48.5 41t-21.5 28zM289 790l104 75q14 10 32 20
t38 10t43 -11t45.5 -27.5t44.5 -34.5t41 -32l-47 -49l-127 69l-127 -69z" />
    <glyph glyph-name="jcircumflex" unicode="&#x135;" horiz-adv-x="241" 
d="M-100 -103q12 -6 31.5 -10.5t41.5 -4.5q17 0 33.5 3.5t29 13.5t20 27.5t7.5 46.5v476q0 28 16 40.5t45 12.5q18 0 33 -4.5t20 -6.5v-509q0 -56 -15.5 -93t-41.5 -59t-59.5 -31t-69.5 -9q-20 0 -39 3t-35.5 6.5t-28.5 8t-18 7.5zM-32 614l94 75q14 11 30 21.5t34 10.5
t34.5 -10t30.5 -21l93 -76l-41 -48l-117 72l-117 -72z" />
    <glyph glyph-name="Kcommaaccent" unicode="&#x136;" horiz-adv-x="664" 
d="M73 631q0 28 17 41.5t46 13.5q19 0 35 -5t21 -7v-279l63 59.5l77.5 71.5l74.5 67l54 47q25 20 45.5 33t49.5 13q32 0 52 -13.5t26 -21.5q-5 -5 -26 -23.5l-50 -44.5l-64 -57l-69 -61l-63.5 -57l-48.5 -44q100 -88 187 -178t159 -186h-147q-26 31 -63 71.5l-79.5 83.5
t-88.5 84.5t-89 75.5v-315h-119v631zM292 -123q3 31 16.5 49t42.5 18q20 0 34.5 -7.5t19.5 -11.5l-60 -178l-66 12z" />
    <glyph glyph-name="kcommaaccent" unicode="&#x137;" horiz-adv-x="557" 
d="M58 684q0 27 16 40t45 13q18 0 33 -4.5t20 -6.5v-409l36.5 26.5l52.5 38.5l60 44l59 43q22 16 40 24.5t47 8.5q27 0 46 -14.5t24 -24.5q-21 -19 -57.5 -46.5l-74.5 -55l-72 -51l-49 -34.5q85 -63 155 -136.5t118 -139.5h-142q-23 28 -51.5 58.5t-61 60t-66 57t-64.5 50.5
v-226h-114v684zM240 -123q3 31 16.5 49t42.5 18q20 0 34.5 -7.5t19.5 -11.5l-60 -178l-66 12z" />
    <glyph glyph-name="kgreenlandic.case" horiz-adv-x="789" 
d="M73 631q0 28 17 41.5t46 13.5q19 0 35 -5t21 -7v-279l63 59.5l77.5 71.5l74.5 67l54 47q25 20 45.5 33t49.5 13q32 0 52 -13.5t26 -21.5q-5 -5 -26 -23.5l-50 -44.5l-64 -57l-69 -61l-63.5 -57l-48.5 -44q100 -88 187 -178t159 -186h-147q-26 31 -63 71.5l-79.5 83.5
t-88.5 84.5t-89 75.5v-315h-119v631zM674 679q6 21 17.5 32t33.5 11q26 0 40.5 -10.5t18.5 -15.5l-90 -209l-69 26z" />
    <glyph glyph-name="kgreenlandic" unicode="&#x138;" horiz-adv-x="557" 
d="M58 449q0 27 16 40t45 13q18 0 33 -4.5t20 -6.5v-196q13 9 36.5 30l52.5 46l60 51.5t59 46.5q22 16 40 24.5t47 8.5q27 0 45 -12.5t23 -22.5l-35.5 -31.5l-46 -39l-50.5 -42l-49.5 -40.5l-42.5 -34t-29 -22q40 -28 81.5 -62t78.5 -69t67 -68t48 -59h-142
q-59 57 -119.5 109t-123.5 95v-204h-114v449z" />
    <glyph glyph-name="Lacute" unicode="&#x139;" horiz-adv-x="550" 
d="M73 631q0 28 17 41.5t46 13.5q19 0 35 -5t21 -7v-565h353v-109h-472v631zM55 802l127 74q17 10 31.5 14.5t30.5 4.5q18 0 30 -8.5t19.5 -19.5t10.5 -22t3 -16l-217 -86z" />
    <glyph glyph-name="lacute" unicode="&#x13a;" horiz-adv-x="241" 
d="M63 684q0 27 16 40t45 13q18 0 33 -4.5t20 -6.5v-726h-114v684zM37 849l109 79q15 11 27.5 16.5t26.5 5.5q16 0 27.5 -7.5t18 -18t10 -20.5t3.5 -14l-185 -93z" />
    <glyph glyph-name="Lcommaaccent" unicode="&#x13b;" horiz-adv-x="550" 
d="M73 631q0 28 17 41.5t46 13.5q19 0 35 -5t21 -7v-565h353v-109h-472v631zM254 -123q3 31 16.5 49t42.5 18q20 0 34.5 -7.5t19.5 -11.5l-60 -178l-66 12z" />
    <glyph glyph-name="lcommaaccent" unicode="&#x13c;" horiz-adv-x="241" 
d="M63 684q0 27 16 40t45 13q18 0 33 -4.5t20 -6.5v-726h-114v684zM64 -123q3 31 16.5 49t42.5 18q20 0 34.5 -7.5t19.5 -11.5l-60 -178l-66 12z" />
    <glyph glyph-name="Lcaron" unicode="&#x13d;" horiz-adv-x="550" 
d="M73 631q0 28 17 41.5t46 13.5q19 0 35 -5t21 -7v-565h353v-109h-472v631zM292 470v159q0 29 14.5 45.5t49.5 16.5q20 0 27 -4l-23 -217h-68z" />
    <glyph glyph-name="lcaron" unicode="&#x13e;" horiz-adv-x="383" 
d="M63 684q0 27 16 40t45 13q18 0 33 -4.5t20 -6.5v-726h-114v684zM265 516v159q0 29 14.5 45.5t49.5 16.5q20 0 27 -4l-23 -217h-68z" />
    <glyph glyph-name="Ldot" unicode="&#x13f;" horiz-adv-x="550" 
d="M73 631q0 28 17 41.5t46 13.5q19 0 35 -5t21 -7v-565h353v-109h-472v631zM342 399q0 24 20 43.5t46 19.5q25 0 44 -19.5t19 -43.5q0 -12 -5 -23t-14 -19.5t-20.5 -14t-23.5 -5.5q-26 0 -46 19.5t-20 42.5z" />
    <glyph glyph-name="ldot" unicode="&#x140;" horiz-adv-x="392" 
d="M63 684q0 27 16 40t45 13q18 0 33 -4.5t20 -6.5v-726h-114v684zM316 457q25 0 43.5 -19t18.5 -42t-18.5 -42t-43.5 -19q-13 0 -24.5 5t-20.5 13.5t-14 19.5t-5 23t5 23t14 19.5t20.5 13.5t24.5 5z" />
    <glyph glyph-name="Lslash" unicode="&#x141;" horiz-adv-x="550" 
d="M73 0v258l-75 -48v31q0 23 4 48t26 39l45 29v274q0 28 17 41.5t46 13.5q19 0 35 -5t21 -7v-248l159 103v-35q0 -23 -4 -46t-26 -37l-129 -83v-219h353v-109h-472z" />
    <glyph glyph-name="lslash" unicode="&#x142;" horiz-adv-x="241" 
d="M63 0v297l-64 -45v61q0 23 4 36.5t26 28.5l34 23v283q0 27 16 40t45 13q18 0 33 -4.5t20 -6.5v-259l64 45v-61q0 -23 -4 -36.5t-26 -28.5l-34 -23v-363h-114z" />
    <glyph glyph-name="Nacute" unicode="&#x143;" horiz-adv-x="735" 
d="M73 622q0 35 21.5 49.5t50.5 14.5q28 0 46 -9t25 -14q10 -12 32.5 -42.5l52 -72l63 -90l66.5 -96.5l62.5 -93l51.5 -79v441q0 28 16 41.5t45 13.5q20 0 35.5 -5t20.5 -8v-673h-120l-43 66.5l-55.5 84l-63.5 94.5l-66 97.5l-64.5 93l-57.5 80.5v-516h-118v622zM292 802
l127 74q17 10 31.5 14.5t30.5 4.5q18 0 30 -8.5t19.5 -19.5t10.5 -22t3 -16l-217 -86z" />
    <glyph glyph-name="nacute" unicode="&#x144;" horiz-adv-x="604" 
d="M58 303q0 50 18.5 89.5t51 67t77 42t97.5 14.5t98 -14.5t77.5 -42t50.5 -67t18 -89.5v-303h-114v274q0 68 -33 103.5t-97 35.5q-65 0 -97.5 -35.5t-32.5 -103.5v-274h-114v303zM221 618l109 79q15 11 27.5 16.5t26.5 5.5q16 0 27.5 -7.5t18 -18t10 -20.5t3.5 -14
l-185 -93z" />
    <glyph glyph-name="Ncommaaccent" unicode="&#x145;" horiz-adv-x="735" 
d="M73 622q0 35 21.5 49.5t50.5 14.5q28 0 46 -9t25 -14q10 -12 32.5 -42.5l52 -72l63 -90l66.5 -96.5l62.5 -93l51.5 -79v441q0 28 16 41.5t45 13.5q20 0 35.5 -5t20.5 -8v-673h-120l-43 66.5l-55.5 84l-63.5 94.5l-66 97.5l-64.5 93l-57.5 80.5v-516h-118v622zM333 -123
q3 31 16.5 49t42.5 18q20 0 34.5 -7.5t19.5 -11.5l-60 -178l-66 12z" />
    <glyph glyph-name="ncommaaccent" unicode="&#x146;" horiz-adv-x="604" 
d="M58 303q0 50 18.5 89.5t51 67t77 42t97.5 14.5t98 -14.5t77.5 -42t50.5 -67t18 -89.5v-303h-114v274q0 68 -33 103.5t-97 35.5q-65 0 -97.5 -35.5t-32.5 -103.5v-274h-114v303zM252 -123q3 31 16.5 49t42.5 18q20 0 34.5 -7.5t19.5 -11.5l-60 -178l-66 12z" />
    <glyph glyph-name="Ncaron" unicode="&#x147;" horiz-adv-x="735" 
d="M73 622q0 35 21.5 49.5t50.5 14.5q28 0 46 -9t25 -14q10 -12 32.5 -42.5l52 -72l63 -90l66.5 -96.5l62.5 -93l51.5 -79v441q0 28 16 41.5t45 13.5q20 0 35.5 -5t20.5 -8v-673h-120l-43 66.5l-55.5 84l-63.5 94.5l-66 97.5l-64.5 93l-57.5 80.5v-516h-118v622zM249 895
l128 -69l64.5 34.5l63.5 34.5l45 -48l-103 -75q-15 -11 -32.5 -20t-37.5 -9t-38 9t-32 20l-103 75z" />
    <glyph glyph-name="ncaron" unicode="&#x148;" horiz-adv-x="604" 
d="M58 303q0 50 18.5 89.5t51 67t77 42t97.5 14.5t98 -14.5t77.5 -42t50.5 -67t18 -89.5v-303h-114v274q0 68 -33 103.5t-97 35.5q-65 0 -97.5 -35.5t-32.5 -103.5v-274h-114v303zM187 721l118 -72l118 72l39 -48l-93 -76q-14 -11 -30 -21t-34 -10t-34 10t-30 21l-93 76z
" />
    <glyph glyph-name="napostrophe.case" horiz-adv-x="845" 
d="M183 622q0 35 21.5 49.5t50.5 14.5q28 0 46 -9t25 -14q10 -12 32.5 -42.5l52 -72l63 -90l66.5 -96.5l62.5 -93l51.5 -79v441q0 28 16 41.5t45 13.5q20 0 35.5 -5t20.5 -8v-673h-120l-43 66.5l-55.5 84l-63.5 94.5l-66 97.5l-64.5 93l-57.5 80.5v-516h-118v622zM44 679
q6 21 17.5 32t33.5 11q26 0 40.5 -10.5t18.5 -15.5l-90 -209l-69 26z" />
    <glyph glyph-name="napostrophe" unicode="&#x149;" horiz-adv-x="604" 
d="M58 303q0 50 18.5 89.5t51 67t77 42t97.5 14.5t98 -14.5t77.5 -42t50.5 -67t18 -89.5v-303h-114v274q0 68 -33 103.5t-97 35.5q-65 0 -97.5 -35.5t-32.5 -103.5v-274h-114v303zM44 679q6 21 17.5 32t33.5 11q26 0 40.5 -10.5t18.5 -15.5l-90 -209l-69 26z" />
    <glyph glyph-name="Eng" unicode="&#x14a;" horiz-adv-x="735" 
d="M73 622q0 35 21.5 49.5t50.5 14.5q28 0 46 -9t25 -14q10 -12 32.5 -42.5l52 -72l63 -90l66.5 -96.5l62.5 -93l51.5 -79v441q0 28 16 41.5t45 13.5q20 0 35.5 -5t20.5 -8v-691q0 -56 -15.5 -93t-41.5 -59t-59.5 -31t-69.5 -9q-20 0 -39.5 3t-36.5 6.5t-29.5 8t-18.5 7.5
l30 82q12 -6 31.5 -10.5t41.5 -4.5q17 0 33.5 3.5t29 13.5t20 27.5t7.5 46.5v34q-17 28 -43 66l-56.5 82.5l-64 93l-67 96l-65 91.5l-57.5 80v-516h-118v622z" />
    <glyph glyph-name="eng" unicode="&#x14b;" horiz-adv-x="604" 
d="M269 -103q12 -6 31.5 -10.5t41.5 -4.5q17 0 33.5 3.5t29 13.5t20 27.5t7.5 46.5v301q0 68 -33 103.5t-97 35.5q-65 0 -97.5 -35.5t-32.5 -103.5v-274h-114v303q0 50 18.5 89.5t51 67t77 42t97.5 14.5t98 -14.5t77.5 -42t50.5 -67t18 -89.5v-321q0 -56 -15.5 -93
t-41.5 -59t-59.5 -31t-69.5 -9q-20 0 -39 3t-35.5 6.5t-28.5 8t-18 7.5z" />
    <glyph glyph-name="Omacron" unicode="&#x14c;" horiz-adv-x="819" 
d="M409 704q78 0 144.5 -27.5t116 -76t77.5 -114.5t28 -143t-28 -143t-77.5 -114.5t-116 -76t-144.5 -27.5t-144.5 27.5t-116 76t-77.5 114.5t-28 143t28 143t77.5 114.5t116 76t144.5 27.5zM409 91q52 0 96 19t76 52.5t50.5 79.5t18.5 101t-18.5 101.5t-50.5 80t-76 52
t-96 18.5t-96 -18.5t-76.5 -52t-50.5 -80t-18 -101.5t18 -101t50.5 -79.5t76.5 -52.5t96 -19zM563 855q26 0 35 -12.5t9 -32.5q0 -15 -3.5 -25t-5.5 -15h-295q-23 0 -33.5 12t-10.5 31q0 16 3 25t5 17h296z" />
    <glyph glyph-name="omacron" unicode="&#x14d;" horiz-adv-x="626" 
d="M313 516q58 0 108.5 -20t87.5 -55.5t58 -84t21 -105.5q0 -56 -21 -104.5t-58 -84t-87.5 -56t-108.5 -20.5t-108.5 20.5t-87.5 56t-58 84t-21 104.5q0 57 21 105.5t58 84t87.5 55.5t108.5 20zM313 87q34 0 63 12.5t49.5 35t32 52t11.5 64.5t-11.5 65.5t-32 52.5
t-49.5 34.5t-63 12.5q-35 0 -63.5 -12.5t-49 -34.5t-32 -52.5t-11.5 -65.5t11.5 -64.5t32 -52t49 -35t63.5 -12.5zM442 676q23 0 31.5 -11.5t8.5 -29.5q0 -14 -3 -24.5t-5 -13.5h-276q-22 0 -31 11t-9 30q0 14 3 23.5t5 14.5h276z" />
    <glyph glyph-name="Obreve" unicode="&#x14e;" horiz-adv-x="819" 
d="M409 704q78 0 144.5 -27.5t116 -76t77.5 -114.5t28 -143t-28 -143t-77.5 -114.5t-116 -76t-144.5 -27.5t-144.5 27.5t-116 76t-77.5 114.5t-28 143t28 143t77.5 114.5t116 76t144.5 27.5zM409 91q52 0 96 19t76 52.5t50.5 79.5t18.5 101t-18.5 101.5t-50.5 80t-76 52
t-96 18.5t-96 -18.5t-76.5 -52t-50.5 -80t-18 -101.5t18 -101t50.5 -79.5t76.5 -52.5t96 -19zM316 896q11 -35 36 -53.5t63 -18.5t63.5 18.5t36.5 53.5l66 -7q-1 -20 -9.5 -44.5t-27.5 -46t-50.5 -36.5t-78.5 -15t-78.5 15t-50.5 36.5t-27.5 46t-9.5 44.5z" />
    <glyph glyph-name="obreve" unicode="&#x14f;" horiz-adv-x="626" 
d="M313 516q58 0 108.5 -20t87.5 -55.5t58 -84t21 -105.5q0 -56 -21 -104.5t-58 -84t-87.5 -56t-108.5 -20.5t-108.5 20.5t-87.5 56t-58 84t-21 104.5q0 57 21 105.5t58 84t87.5 55.5t108.5 20zM313 87q34 0 63 12.5t49.5 35t32 52t11.5 64.5t-11.5 65.5t-32 52.5
t-49.5 34.5t-63 12.5q-35 0 -63.5 -12.5t-49 -34.5t-32 -52.5t-11.5 -65.5t11.5 -64.5t32 -52t49 -35t63.5 -12.5zM236 715q8 -34 30 -52.5t57 -18.5t57.5 18.5t30.5 52.5l54 -7q-1 -19 -8 -42.5t-23 -44.5t-43 -35.5t-68 -14.5t-68 14.5t-43 35.5t-23 44.5t-8 42.5z" />
    <glyph glyph-name="Ohungarumlaut" unicode="&#x150;" horiz-adv-x="819" 
d="M409 704q78 0 144.5 -27.5t116 -76t77.5 -114.5t28 -143t-28 -143t-77.5 -114.5t-116 -76t-144.5 -27.5t-144.5 27.5t-116 76t-77.5 114.5t-28 143t28 143t77.5 114.5t116 76t144.5 27.5zM409 91q52 0 96 19t76 52.5t50.5 79.5t18.5 101t-18.5 101.5t-50.5 80t-76 52
t-96 18.5t-96 -18.5t-76.5 -52t-50.5 -80t-18 -101.5t18 -101t50.5 -79.5t76.5 -52.5t96 -19zM251 810l94 71q18 14 34 21.5t33 7.5q21 0 32.5 -9.5t17.5 -20.5t7.5 -21t1.5 -11l-179 -93zM475 810l94 71q18 14 34 21.5t33 7.5q21 0 32.5 -9.5t17.5 -20.5t7.5 -21t1.5 -11
l-179 -93z" />
    <glyph glyph-name="ohungarumlaut" unicode="&#x151;" horiz-adv-x="626" 
d="M313 516q58 0 108.5 -20t87.5 -55.5t58 -84t21 -105.5q0 -56 -21 -104.5t-58 -84t-87.5 -56t-108.5 -20.5t-108.5 20.5t-87.5 56t-58 84t-21 104.5q0 57 21 105.5t58 84t87.5 55.5t108.5 20zM313 87q34 0 63 12.5t49.5 35t32 52t11.5 64.5t-11.5 65.5t-32 52.5
t-49.5 34.5t-63 12.5q-35 0 -63.5 -12.5t-49 -34.5t-32 -52.5t-11.5 -65.5t11.5 -64.5t32 -52t49 -35t63.5 -12.5zM369 613l82 75q14 14 27.5 22t30.5 8t27 -8t15.5 -17.5t7.5 -18t2 -9.5l-154 -99zM166 613l82 75q14 14 27.5 22t30.5 8t27 -8t15.5 -17.5t7.5 -18t2 -9.5
l-154 -99z" />
    <glyph glyph-name="Racute" unicode="&#x154;" horiz-adv-x="672" 
d="M73 621q0 32 16 46t39 19q15 3 56 6.5t119 3.5q157 0 235 -60t78 -163q0 -72 -34.5 -119t-94.5 -73q21 -29 42.5 -64l42.5 -72.5l40.5 -74.5l36.5 -70h-138q-8 17 -26 51.5l-39 73l-42 74t-35 54.5q-17 -2 -35.5 -3t-34.5 -1q-35 0 -66 2.5t-44 4.5v-256h-116v621z
M189 358q13 -2 39 -5t75 -3q54 0 90.5 9t59 25t32 38.5t9.5 49.5q0 25 -9 47t-31 39t-59.5 27t-94.5 10q-50 0 -76.5 -2t-34.5 -4v-231zM246 802l127 74q17 10 31.5 14.5t30.5 4.5q18 0 30 -8.5t19.5 -19.5t10.5 -22t3 -16l-217 -86z" />
    <glyph glyph-name="racute" unicode="&#x155;" horiz-adv-x="416" 
d="M58 323q0 92 56.5 142.5t156.5 50.5q63 0 102.5 -17.5t39.5 -53.5q0 -17 -9.5 -33t-15.5 -20q-17 8 -42 15t-57 7q-117 0 -117 -124v-290h-114v323zM148 618l109 79q15 11 27.5 16.5t26.5 5.5q16 0 27.5 -7.5t18 -18t10 -20.5t3.5 -14l-185 -93z" />
    <glyph glyph-name="Rcommaaccent" unicode="&#x156;" horiz-adv-x="672" 
d="M73 621q0 32 16 46t39 19q15 3 56 6.5t119 3.5q157 0 235 -60t78 -163q0 -72 -34.5 -119t-94.5 -73q21 -29 42.5 -64l42.5 -72.5l40.5 -74.5l36.5 -70h-138q-8 17 -26 51.5l-39 73l-42 74t-35 54.5q-17 -2 -35.5 -3t-34.5 -1q-35 0 -66 2.5t-44 4.5v-256h-116v621z
M189 358q13 -2 39 -5t75 -3q54 0 90.5 9t59 25t32 38.5t9.5 49.5q0 25 -9 47t-31 39t-59.5 27t-94.5 10q-50 0 -76.5 -2t-34.5 -4v-231zM292 -123q3 31 16.5 49t42.5 18q20 0 34.5 -7.5t19.5 -11.5l-60 -178l-66 12z" />
    <glyph glyph-name="rcommaaccent" unicode="&#x157;" horiz-adv-x="416" 
d="M58 323q0 92 56.5 142.5t156.5 50.5q63 0 102.5 -17.5t39.5 -53.5q0 -17 -9.5 -33t-15.5 -20q-17 8 -42 15t-57 7q-117 0 -117 -124v-290h-114v323zM50 -123q3 31 16.5 49t42.5 18q20 0 34.5 -7.5t19.5 -11.5l-60 -178l-66 12z" />
    <glyph glyph-name="Rcaron" unicode="&#x158;" horiz-adv-x="672" 
d="M73 621q0 32 16 46t39 19q15 3 56 6.5t119 3.5q157 0 235 -60t78 -163q0 -72 -34.5 -119t-94.5 -73q21 -29 42.5 -64l42.5 -72.5l40.5 -74.5l36.5 -70h-138q-8 17 -26 51.5l-39 73l-42 74t-35 54.5q-17 -2 -35.5 -3t-34.5 -1q-35 0 -66 2.5t-44 4.5v-256h-116v621z
M189 358q13 -2 39 -5t75 -3q54 0 90.5 9t59 25t32 38.5t9.5 49.5q0 25 -9 47t-31 39t-59.5 27t-94.5 10q-50 0 -76.5 -2t-34.5 -4v-231zM213 895l128 -69l64.5 34.5l63.5 34.5l45 -48l-103 -75q-15 -11 -32.5 -20t-37.5 -9t-38 9t-32 20l-103 75z" />
    <glyph glyph-name="rcaron" unicode="&#x159;" horiz-adv-x="416" 
d="M58 323q0 92 56.5 142.5t156.5 50.5q63 0 102.5 -17.5t39.5 -53.5q0 -17 -9.5 -33t-15.5 -20q-17 8 -42 15t-57 7q-117 0 -117 -124v-290h-114v323zM132 721l118 -72l118 72l39 -48l-93 -76q-14 -11 -30 -21t-34 -10t-34 10t-30 21l-93 76z" />
    <glyph glyph-name="Sacute" unicode="&#x15a;" horiz-adv-x="689" 
d="M95 157q11 -8 33 -19.5t54.5 -23t74 -19.5t90.5 -8q87 0 124.5 25.5t37.5 72.5q0 23 -8.5 39t-25 27.5t-40 18.5t-53.5 12l-110 20q-42 7 -81 21t-69 37t-48 56.5t-18 80.5q0 42 15.5 80t49.5 66t86 44.5t126 16.5q54 0 94 -6t68 -14.5t45 -17.5t25 -14q16 -11 26 -24
t10 -30q0 -23 -14 -42.5t-26 -27.5q-9 10 -28.5 22.5t-48 23.5t-66.5 19t-83 8t-75.5 -7t-48.5 -19.5t-26 -30t-8 -39.5q0 -38 29.5 -59.5t98.5 -34.5l112 -21q109 -20 164 -65.5t55 -131.5q0 -48 -19 -86.5t-55.5 -66.5t-91 -43t-125.5 -15q-60 0 -110 9.5t-89 23t-65 27.5
t-38 22zM254 802l127 74q17 10 31.5 14.5t30.5 4.5q18 0 30 -8.5t19.5 -19.5t10.5 -22t3 -16l-217 -86z" />
    <glyph glyph-name="sacute" unicode="&#x15b;" horiz-adv-x="549" 
d="M71 125q7 -5 25 -13t44.5 -16.5t60.5 -14.5t74 -6q52 0 85 13.5t33 46.5q0 28 -21 42.5t-75 20.5l-78 9q-40 4 -73.5 14.5t-57.5 28.5t-37.5 44.5t-13.5 63.5q0 32 12.5 60.5t39.5 50.5t70.5 34.5t105.5 12.5q104 0 161.5 -23t57.5 -60q0 -12 -4.5 -21t-10 -16
t-11.5 -11.5t-9 -5.5q-4 4 -17.5 12.5t-36.5 17t-55 15t-74 6.5q-116 0 -116 -61q0 -26 22 -39.5t63 -18.5l102 -13q83 -11 129 -45.5t46 -101.5q0 -75 -59.5 -120t-171.5 -45q-54 0 -98 8t-76.5 18.5t-52.5 20.5t-26 15zM183 618l109 79q15 11 27.5 16.5t26.5 5.5
q16 0 27.5 -7.5t18 -18t10 -20.5t3.5 -14l-185 -93z" />
    <glyph glyph-name="Scircumflex" unicode="&#x15c;" horiz-adv-x="689" 
d="M95 157q11 -8 33 -19.5t54.5 -23t74 -19.5t90.5 -8q87 0 124.5 25.5t37.5 72.5q0 23 -8.5 39t-25 27.5t-40 18.5t-53.5 12l-110 20q-42 7 -81 21t-69 37t-48 56.5t-18 80.5q0 42 15.5 80t49.5 66t86 44.5t126 16.5q54 0 94 -6t68 -14.5t45 -17.5t25 -14q16 -11 26 -24
t10 -30q0 -23 -14 -42.5t-26 -27.5q-9 10 -28.5 22.5t-48 23.5t-66.5 19t-83 8t-75.5 -7t-48.5 -19.5t-26 -30t-8 -39.5q0 -38 29.5 -59.5t98.5 -34.5l112 -21q109 -20 164 -65.5t55 -131.5q0 -48 -19 -86.5t-55.5 -66.5t-91 -43t-125.5 -15q-60 0 -110 9.5t-89 23t-65 27.5
t-38 22zM179 790l104 75q14 10 32 20t38 10t43 -11t45.5 -27.5t44.5 -34.5t41 -32l-47 -49l-127 69l-127 -69z" />
    <glyph glyph-name="scircumflex" unicode="&#x15d;" horiz-adv-x="549" 
d="M71 125q7 -5 25 -13t44.5 -16.5t60.5 -14.5t74 -6q52 0 85 13.5t33 46.5q0 28 -21 42.5t-75 20.5l-78 9q-40 4 -73.5 14.5t-57.5 28.5t-37.5 44.5t-13.5 63.5q0 32 12.5 60.5t39.5 50.5t70.5 34.5t105.5 12.5q104 0 161.5 -23t57.5 -60q0 -12 -4.5 -21t-10 -16
t-11.5 -11.5t-9 -5.5q-4 4 -17.5 12.5t-36.5 17t-55 15t-74 6.5q-116 0 -116 -61q0 -26 22 -39.5t63 -18.5l102 -13q83 -11 129 -45.5t46 -101.5q0 -75 -59.5 -120t-171.5 -45q-54 0 -98 8t-76.5 18.5t-52.5 20.5t-26 15zM118 614l94 75q14 11 30 21.5t34 10.5t34.5 -10
t30.5 -21l93 -76l-41 -48l-117 72l-117 -72z" />
    <glyph glyph-name="Scedilla" unicode="&#x15e;" horiz-adv-x="689" 
d="M95 157q11 -8 33 -19.5t54.5 -23t74 -19.5t90.5 -8q87 0 124.5 25.5t37.5 72.5q0 23 -8.5 39t-25 27.5t-40 18.5t-53.5 12l-110 20q-42 7 -81 21t-69 37t-48 56.5t-18 80.5q0 42 15.5 80t49.5 66t86 44.5t126 16.5q54 0 94 -6t68 -14.5t45 -17.5t25 -14q16 -11 26 -24
t10 -30q0 -23 -14 -42.5t-26 -27.5q-9 10 -28.5 22.5t-48 23.5t-66.5 19t-83 8t-75.5 -7t-48.5 -19.5t-26 -30t-8 -39.5q0 -38 29.5 -59.5t98.5 -34.5l112 -21q109 -20 164 -65.5t55 -131.5q0 -48 -19 -86.5t-55.5 -66.5t-91 -43t-125.5 -15q-60 0 -110 9.5t-89 23t-65 27.5
t-38 22zM236 -133q3 -2 26 -11t52 -9q20 0 30.5 6t10.5 23q0 9 -5.5 15.5t-14 10t-18 5t-17.5 1.5l16 56q21 -1 43.5 -6t40.5 -15.5t30 -26.5t12 -38q0 -44 -32.5 -69.5t-86.5 -25.5q-26 0 -46 4t-34.5 9t-22.5 9t-9 5z" />
    <glyph glyph-name="scedilla" unicode="&#x15f;" horiz-adv-x="549" 
d="M71 125q7 -5 25 -13t44.5 -16.5t60.5 -14.5t74 -6q52 0 85 13.5t33 46.5q0 28 -21 42.5t-75 20.5l-78 9q-40 4 -73.5 14.5t-57.5 28.5t-37.5 44.5t-13.5 63.5q0 32 12.5 60.5t39.5 50.5t70.5 34.5t105.5 12.5q104 0 161.5 -23t57.5 -60q0 -12 -4.5 -21t-10 -16
t-11.5 -11.5t-9 -5.5q-4 4 -17.5 12.5t-36.5 17t-55 15t-74 6.5q-116 0 -116 -61q0 -26 22 -39.5t63 -18.5l102 -13q83 -11 129 -45.5t46 -101.5q0 -75 -59.5 -120t-171.5 -45q-54 0 -98 8t-76.5 18.5t-52.5 20.5t-26 15zM162 -132q1 -1 8 -4t17.5 -6.5t23.5 -6t28 -2.5
q21 0 32.5 7t11.5 24q0 10 -5.5 16.5t-14 10.5t-18 6t-17.5 2l15 52q21 -1 42.5 -6t39.5 -15t29.5 -26t11.5 -38q0 -43 -32 -68t-86 -25q-26 0 -46 3.5t-34 8t-21.5 8.5t-8.5 5z" />
    <glyph glyph-name="Tcommaaccent" unicode="&#x162;" horiz-adv-x="655" 
d="M264 577h-200q-59 0 -59 54q0 19 6 34.5t9 20.5h571q59 0 59 -54q0 -19 -5.5 -34.5t-9.5 -20.5h-252v-577h-119v577zM258 -123q3 31 16.5 49t42.5 18q20 0 34.5 -7.5t19.5 -11.5l-60 -178l-66 12z" />
    <glyph glyph-name="tcommaaccent" unicode="&#x163;" horiz-adv-x="402" 
d="M61 591q0 28 16 40.5t44 12.5q18 0 33.5 -4.5t20.5 -6.5v-131h145q33 0 46.5 -13.5t13.5 -39.5q0 -17 -5 -31.5t-8 -20.5h-192v-223q0 -26 7 -42.5t19.5 -26.5t29 -14t34.5 -4q29 0 54 9t36 17l46 -76q-8 -6 -22.5 -15t-35.5 -17t-47 -13.5t-57 -5.5q-88 0 -133 45.5
t-45 119.5v440zM171 -123q3 31 16.5 49t42.5 18q20 0 34.5 -7.5t19.5 -11.5l-60 -178l-66 12z" />
    <glyph glyph-name="Tcaron" unicode="&#x164;" horiz-adv-x="655" 
d="M264 577h-200q-59 0 -59 54q0 19 6 34.5t9 20.5h571q59 0 59 -54q0 -19 -5.5 -34.5t-9.5 -20.5h-252v-577h-119v577zM205 895l128 -69l64.5 34.5l63.5 34.5l45 -48l-103 -75q-15 -11 -32.5 -20t-37.5 -9t-38 9t-32 20l-103 75z" />
    <glyph glyph-name="tcaron" unicode="&#x165;" horiz-adv-x="402" 
d="M61 591q0 28 16 40.5t44 12.5q18 0 33.5 -4.5t20.5 -6.5v-131h145q33 0 46.5 -13.5t13.5 -39.5q0 -17 -5 -31.5t-8 -20.5h-192v-223q0 -26 7 -42.5t19.5 -26.5t29 -14t34.5 -4q29 0 54 9t36 17l46 -76q-8 -6 -22.5 -15t-35.5 -17t-47 -13.5t-57 -5.5q-88 0 -133 45.5
t-45 119.5v440zM257 549v135q0 25 14 39t48 14q20 0 27 -3l-23 -185h-66z" />
    <glyph glyph-name="Tbar" unicode="&#x166;" horiz-adv-x="655" 
d="M264 292h-137q-25 0 -35.5 13.5t-10.5 36.5q0 15 4 26.5t6 16.5h173v192h-200q-59 0 -59 54q0 19 6 34.5t9 20.5h571q59 0 59 -54q0 -19 -5.5 -34.5t-9.5 -20.5h-252v-192h142q26 0 36 -13t10 -36q0 -16 -4 -27.5t-6 -16.5h-178v-292h-119v292z" />
    <glyph glyph-name="tbar" unicode="&#x167;" horiz-adv-x="402" 
d="M61 591q0 28 16 40.5t44 12.5q18 0 33.5 -4.5t20.5 -6.5v-131h145q33 0 46.5 -13.5t13.5 -39.5q0 -17 -5 -31.5t-8 -20.5h-192v-86h145q33 0 46.5 -11.5t13.5 -37.5q0 -15 -4 -27.5t-7 -18.5h-194v-42q0 -26 7 -42.5t19.5 -26.5t29 -14t34.5 -4q29 0 54 9t36 17l46 -76
q-8 -6 -22.5 -15t-35.5 -17t-47 -13.5t-57 -5.5q-88 0 -133 45.5t-45 119.5v440z" />
    <glyph glyph-name="Utilde" unicode="&#x168;" horiz-adv-x="756" 
d="M66 631q0 28 16.5 41.5t45.5 13.5q20 0 36 -5t21 -8v-355q0 -57 10 -99.5t32.5 -71t59.5 -43t91 -14.5t91 14.5t59.5 43t32.5 71t10 99.5v313q0 28 16.5 41.5t45.5 13.5q20 0 36 -5t21 -8v-365q0 -158 -78 -242t-234 -84t-234 84t-78 242v323zM231 765q4 19 11.5 38
t20.5 34t31 24t43 9q22 0 40 -4.5t34.5 -10t31.5 -10t32 -4.5q14 0 21.5 8.5t12.5 27.5l74 -13q-4 -20 -11.5 -38.5t-20.5 -33.5t-31 -24t-43 -9q-23 0 -41 4.5t-34.5 10.5t-31.5 10.5t-31 4.5q-14 0 -21 -9t-12 -29z" />
    <glyph glyph-name="utilde" unicode="&#x169;" horiz-adv-x="605" 
d="M58 449q0 28 16 40.5t45 12.5q18 0 33 -4.5t20 -6.5v-263q0 -68 32 -103.5t98 -35.5t98 35.5t32 103.5v221q0 28 16 40.5t44 12.5q19 0 34 -4.5t20 -6.5v-288q0 -51 -17.5 -91.5t-50 -68.5t-77.5 -42.5t-99 -14.5t-99 14.5t-77 42.5t-50 68.5t-18 91.5v246zM139 587
q4 19 11.5 37t20 32.5t30.5 23.5t43 9q24 0 40.5 -4.5l30.5 -8.5l24 -7l20.5 -6t22.5 -3q15 0 23.5 8.5t13.5 27.5l70 -13q-4 -19 -11.5 -37t-20 -32.5t-30.5 -23.5t-43 -9q-21 0 -38.5 4.5t-34.5 9.5l-24 8q-22 8 -41 8q-15 0 -23 -9t-13 -29z" />
    <glyph glyph-name="Umacron" unicode="&#x16a;" horiz-adv-x="756" 
d="M66 631q0 28 16.5 41.5t45.5 13.5q20 0 36 -5t21 -8v-355q0 -57 10 -99.5t32.5 -71t59.5 -43t91 -14.5t91 14.5t59.5 43t32.5 71t10 99.5v313q0 28 16.5 41.5t45.5 13.5q20 0 36 -5t21 -8v-365q0 -158 -78 -242t-234 -84t-234 84t-78 242v323zM514 855q26 0 35 -12.5
t9 -32.5q0 -15 -3.5 -25t-5.5 -15h-295q-23 0 -33.5 12t-10.5 31q0 16 3 25t5 17h296z" />
    <glyph glyph-name="umacron" unicode="&#x16b;" horiz-adv-x="605" 
d="M58 449q0 28 16 40.5t45 12.5q18 0 33 -4.5t20 -6.5v-263q0 -68 32 -103.5t98 -35.5t98 35.5t32 103.5v221q0 28 16 40.5t44 12.5q19 0 34 -4.5t20 -6.5v-288q0 -51 -17.5 -91.5t-50 -68.5t-77.5 -42.5t-99 -14.5t-99 14.5t-77 42.5t-50 68.5t-18 91.5v246zM429 676
q23 0 31.5 -11.5t8.5 -29.5q0 -14 -3 -24.5t-5 -13.5h-276q-22 0 -31 11t-9 30q0 14 3 23.5t5 14.5h276z" />
    <glyph glyph-name="Ubreve" unicode="&#x16c;" horiz-adv-x="756" 
d="M66 631q0 28 16.5 41.5t45.5 13.5q20 0 36 -5t21 -8v-355q0 -57 10 -99.5t32.5 -71t59.5 -43t91 -14.5t91 14.5t59.5 43t32.5 71t10 99.5v313q0 28 16.5 41.5t45.5 13.5q20 0 36 -5t21 -8v-365q0 -158 -78 -242t-234 -84t-234 84t-78 242v323zM292 896q11 -35 36 -53.5
t63 -18.5t63.5 18.5t36.5 53.5l66 -7q-1 -20 -9.5 -44.5t-27.5 -46t-50.5 -36.5t-78.5 -15t-78.5 15t-50.5 36.5t-27.5 46t-9.5 44.5z" />
    <glyph glyph-name="ubreve" unicode="&#x16d;" horiz-adv-x="605" 
d="M58 449q0 28 16 40.5t45 12.5q18 0 33 -4.5t20 -6.5v-263q0 -68 32 -103.5t98 -35.5t98 35.5t32 103.5v221q0 28 16 40.5t44 12.5q19 0 34 -4.5t20 -6.5v-288q0 -51 -17.5 -91.5t-50 -68.5t-77.5 -42.5t-99 -14.5t-99 14.5t-77 42.5t-50 68.5t-18 91.5v246zM225 715
q8 -34 30 -52.5t57 -18.5t57.5 18.5t30.5 52.5l54 -7q-1 -19 -8 -42.5t-23 -44.5t-43 -35.5t-68 -14.5t-68 14.5t-43 35.5t-23 44.5t-8 42.5z" />
    <glyph glyph-name="Uring" unicode="&#x16e;" horiz-adv-x="756" 
d="M66 631q0 28 16.5 41.5t45.5 13.5q20 0 36 -5t21 -8v-355q0 -57 10 -99.5t32.5 -71t59.5 -43t91 -14.5t91 14.5t59.5 43t32.5 71t10 99.5v313q0 28 16.5 41.5t45.5 13.5q20 0 36 -5t21 -8v-365q0 -158 -78 -242t-234 -84t-234 84t-78 242v323zM288 837q0 21 8 39.5t22 33
t33 22.5t41 8t41 -8t33 -22.5t22 -33t8 -39.5t-8 -39.5t-22 -32.5t-33 -22t-41 -8t-41 8t-33 22t-22 32.5t-8 39.5zM392 788q21 0 34 13.5t13 35.5q0 21 -13 35t-34 14t-34 -14t-13 -35q0 -22 13 -35.5t34 -13.5z" />
    <glyph glyph-name="uring" unicode="&#x16f;" horiz-adv-x="605" 
d="M58 449q0 28 16 40.5t45 12.5q18 0 33 -4.5t20 -6.5v-263q0 -68 32 -103.5t98 -35.5t98 35.5t32 103.5v221q0 28 16 40.5t44 12.5q19 0 34 -4.5t20 -6.5v-288q0 -51 -17.5 -91.5t-50 -68.5t-77.5 -42.5t-99 -14.5t-99 14.5t-77 42.5t-50 68.5t-18 91.5v246zM312 761
q21 0 40 -8t33 -22t22 -32t8 -39t-8 -39t-22 -32t-33 -22t-40 -8t-40 8t-33 22t-22 32t-8 39t8 39t22 32t33 22t40 8zM361 660q0 22 -13.5 36.5t-35.5 14.5t-35.5 -14.5t-13.5 -36.5q0 -23 13.5 -37.5t35.5 -14.5t35.5 14.5t13.5 37.5z" />
    <glyph glyph-name="Uhungarumlaut" unicode="&#x170;" horiz-adv-x="756" 
d="M66 631q0 28 16.5 41.5t45.5 13.5q20 0 36 -5t21 -8v-355q0 -57 10 -99.5t32.5 -71t59.5 -43t91 -14.5t91 14.5t59.5 43t32.5 71t10 99.5v313q0 28 16.5 41.5t45.5 13.5q20 0 36 -5t21 -8v-365q0 -158 -78 -242t-234 -84t-234 84t-78 242v323zM220 810l94 71
q18 14 34 21.5t33 7.5q21 0 32.5 -9.5t17.5 -20.5t7.5 -21t1.5 -11l-179 -93zM444 810l94 71q18 14 34 21.5t33 7.5q21 0 32.5 -9.5t17.5 -20.5t7.5 -21t1.5 -11l-179 -93z" />
    <glyph glyph-name="uhungarumlaut" unicode="&#x171;" horiz-adv-x="605" 
d="M58 449q0 28 16 40.5t45 12.5q18 0 33 -4.5t20 -6.5v-263q0 -68 32 -103.5t98 -35.5t98 35.5t32 103.5v221q0 28 16 40.5t44 12.5q19 0 34 -4.5t20 -6.5v-288q0 -51 -17.5 -91.5t-50 -68.5t-77.5 -42.5t-99 -14.5t-99 14.5t-77 42.5t-50 68.5t-18 91.5v246zM362 613
l82 75q14 14 27.5 22t30.5 8t27 -8t15.5 -17.5t7.5 -18t2 -9.5l-154 -99zM159 613l82 75q14 14 27.5 22t30.5 8t27 -8t15.5 -17.5t7.5 -18t2 -9.5l-154 -99z" />
    <glyph glyph-name="Uogonek" unicode="&#x172;" horiz-adv-x="756" 
d="M66 631q0 28 16.5 41.5t45.5 13.5q20 0 36 -5t21 -8v-355q0 -57 10 -99.5t32.5 -71t59.5 -43t91 -14.5t91 14.5t59.5 43t32.5 71t10 99.5v313q0 28 16.5 41.5t45.5 13.5q20 0 36 -5t21 -8v-365q0 -134 -54.5 -214t-166.5 -103q-24 -9 -43 -25.5t-19 -40.5
q0 -19 13.5 -26.5t31.5 -7.5q25 0 43 8t21 10l25 -57q-11 -6 -38 -15.5t-69 -9.5q-49 0 -80 18.5t-31 63.5q0 27 11.5 44.5t25.5 28.5q-148 5 -221 88.5t-73 237.5v323z" />
    <glyph glyph-name="uogonek" unicode="&#x173;" horiz-adv-x="605" 
d="M58 449q0 28 16 40.5t45 12.5q18 0 33 -4.5t20 -6.5v-263q0 -68 32 -103.5t98 -35.5t98 35.5t32 103.5v221q0 28 16 40.5t44 12.5q19 0 34 -4.5t20 -6.5v-288q0 -86 -47.5 -140t-128.5 -70q-26 -10 -47.5 -27t-21.5 -43q0 -21 14 -29t34 -8q25 0 42.5 7.5t20.5 9.5
l23 -53q-11 -6 -37.5 -15t-67.5 -9q-48 0 -78.5 18.5t-30.5 61.5q0 33 16.5 52.5t33.5 29.5q-48 4 -87 20t-67 43.5t-43.5 65.5t-15.5 86v246z" />
    <glyph glyph-name="Wcircumflex" unicode="&#x174;" horiz-adv-x="1003" 
d="M225 0l-32 81l-37.5 98.5l-38.5 104.5l-35 99l-28.5 81.5t-17.5 52.5l-20 64t-9 48q0 26 15.5 41.5t45.5 15.5q23 0 37.5 -6t18.5 -8q7 -28 18.5 -67l26 -85l30.5 -96l32.5 -99.5l32 -96t29.5 -84.5l38.5 132l39.5 140l34 124l22 84q8 28 23.5 45t49.5 17q23 0 41 -6
t23 -9l28 -116.5l34 -134l37.5 -140.5l38.5 -135l44 130.5l41.5 129.5l36 118.5l28.5 97.5q10 34 27 49.5t49 15.5q28 0 46 -8.5t22 -11.5q-18 -66 -45 -147.5l-57.5 -170l-64 -178l-65.5 -170.5h-134q-6 17 -16 48.5t-21.5 71.5l-25 86.5t-26 94l-24 92.5l-20.5 83
q-9 -37 -21 -82l-25 -91.5l-26.5 -92.5l-26 -86.5l-23 -72.5t-17.5 -51h-133zM329 790l104 75q14 10 32 20t38 10t43 -11t45.5 -27.5t44.5 -34.5t41 -32l-47 -49l-127 69l-127 -69z" />
    <glyph glyph-name="wcircumflex" unicode="&#x175;" horiz-adv-x="816" 
d="M173 0l-80.5 195t-50 132.5t-26 81t-7.5 40.5q0 21 14 37t43 16q22 0 34.5 -4t16.5 -6q12 -44 27 -93.5l31 -98.5l31.5 -93.5l27.5 -79.5q11 31 23.5 71l26 82.5l26.5 86l24 82.5q8 26 22.5 39.5t46.5 13.5q20 0 36 -5.5t20 -7.5l28 -94.5l30 -97.5l29.5 -92l26.5 -78
q26 69 53.5 151t50.5 164q9 31 23.5 45.5t44.5 14.5q27 0 44 -9t19 -11q-8 -33 -28 -91l-45 -125.5l-53 -138t-53 -127.5h-118q-8 21 -21.5 61.5l-29.5 88.5l-31.5 98.5l-28.5 92.5l-28.5 -92.5l-31 -98.5l-28.5 -88.5t-21 -61.5h-118zM251 614l94 75q14 11 30 21.5t34 10.5
t34.5 -10t30.5 -21l93 -76l-41 -48l-117 72l-117 -72z" />
    <glyph glyph-name="Ycircumflex" unicode="&#x176;" horiz-adv-x="666" 
d="M268 258q-24 28 -53.5 67l-59.5 78.5l-56 75l-42 58.5q-18 25 -35 51.5t-17 47.5q0 23 15 36.5t40 13.5q20 0 32.5 -5l17.5 -7l42 -62l58.5 -83.5l63.5 -88.5l57 -76l49.5 68.5l50 73l47 71.5l40.5 63q11 17 28 31.5t48 14.5q27 0 45 -10.5t22 -14.5q-9 -18 -27 -47.5
l-41.5 -65l-50.5 -75l-54.5 -78l-53.5 -74l-47 -63.5v-258h-119v258zM168 790l104 75q14 10 32 20t38 10t43 -11t45.5 -27.5t44.5 -34.5t41 -32l-47 -49l-127 69l-127 -69z" />
    <glyph glyph-name="ycircumflex" unicode="&#x177;" horiz-adv-x="605" 
d="M58 449q0 27 16 40t44 13q18 0 33.5 -4.5t20.5 -6.5v-267q0 -59 31.5 -94t97.5 -35q61 0 96 35.5t35 104.5v214q0 27 16 40t44 13q18 0 33.5 -4.5t20.5 -6.5v-438q0 -71 -19 -120.5t-54 -81.5t-84 -46.5t-109 -14.5q-41 0 -75 4.5t-60.5 10.5t-43.5 11.5t-24 8.5
q8 21 15 42.5l14 42.5q7 -3 22 -8t36 -9.5t47.5 -7.5t56.5 -3q39 0 70 8.5t52.5 29.5t33 55.5t11.5 86.5q-20 -29 -62.5 -46.5t-93.5 -17.5q-48 0 -89 13.5t-70 39t-45.5 63.5t-16.5 87v248zM148 614l94 75q14 11 30 21.5t34 10.5t34.5 -10t30.5 -21l93 -76l-41 -48l-117 72
l-117 -72z" />
    <glyph glyph-name="Zacute" unicode="&#x179;" horiz-adv-x="640" 
d="M13 111l121.5 120.5l122 124l113 118.5l95.5 103h-373q-60 0 -60 54q0 19 6 34.5t10 20.5h487q81 0 81 -65q0 -29 -19.5 -57t-51.5 -64l-87 -94.5l-98.5 -104l-100 -102.5l-89.5 -90h443v-109h-600v111zM244 802l127 74q17 10 31.5 14.5t30.5 4.5q18 0 30 -8.5
t19.5 -19.5t10.5 -22t3 -16l-217 -86z" />
    <glyph glyph-name="zacute" unicode="&#x17a;" horiz-adv-x="542" 
d="M25 99l77.5 68.5l90.5 82.5l88 81.5l69 66.5h-265q-33 0 -46.5 13t-13.5 38q0 17 5 32t8 21h407q29 0 46 -13.5t17 -41.5q0 -19 -9 -35.5t-34 -41.5l-39.5 -38.5l-50.5 -47.5l-56 -51.5l-56 -51l-51 -45.5l-41 -36h338v-100h-484v99zM196 618l109 79q15 11 27.5 16.5
t26.5 5.5q16 0 27.5 -7.5t18 -18t10 -20.5t3.5 -14l-185 -93z" />
    <glyph glyph-name="Zdotaccent" unicode="&#x17b;" horiz-adv-x="640" 
d="M13 111l121.5 120.5l122 124l113 118.5l95.5 103h-373q-60 0 -60 54q0 19 6 34.5t10 20.5h487q81 0 81 -65q0 -29 -19.5 -57t-51.5 -64l-87 -94.5l-98.5 -104l-100 -102.5l-89.5 -90h443v-109h-600v111zM260 811q0 24 20 43.5t46 19.5q25 0 44 -19.5t19 -43.5
q0 -12 -5 -23t-14 -19.5t-20.5 -14t-23.5 -5.5q-26 0 -46 19.5t-20 42.5z" />
    <glyph glyph-name="zdotaccent" unicode="&#x17c;" horiz-adv-x="542" 
d="M25 99l77.5 68.5l90.5 82.5l88 81.5l69 66.5h-265q-33 0 -46.5 13t-13.5 38q0 17 5 32t8 21h407q29 0 46 -13.5t17 -41.5q0 -19 -9 -35.5t-34 -41.5l-39.5 -38.5l-50.5 -47.5l-56 -51.5l-56 -51l-51 -45.5l-41 -36h338v-100h-484v99zM269 695q25 0 43.5 -19t18.5 -42
t-18.5 -42t-43.5 -19q-13 0 -24.5 5t-20.5 13.5t-14 19.5t-5 23t5 23t14 19.5t20.5 13.5t24.5 5z" />
    <glyph glyph-name="Zcaron" unicode="&#x17d;" horiz-adv-x="640" 
d="M13 111l121.5 120.5l122 124l113 118.5l95.5 103h-373q-60 0 -60 54q0 19 6 34.5t10 20.5h487q81 0 81 -65q0 -29 -19.5 -57t-51.5 -64l-87 -94.5l-98.5 -104l-100 -102.5l-89.5 -90h443v-109h-600v111zM214 895l128 -69l64.5 34.5l63.5 34.5l45 -48l-103 -75
q-15 -11 -32.5 -20t-37.5 -9t-38 9t-32 20l-103 75z" />
    <glyph glyph-name="zcaron" unicode="&#x17e;" horiz-adv-x="542" 
d="M25 99l77.5 68.5l90.5 82.5l88 81.5l69 66.5h-265q-33 0 -46.5 13t-13.5 38q0 17 5 32t8 21h407q29 0 46 -13.5t17 -41.5q0 -19 -9 -35.5t-34 -41.5l-39.5 -38.5l-50.5 -47.5l-56 -51.5l-56 -51l-51 -45.5l-41 -36h338v-100h-484v99zM162 721l118 -72l118 72l39 -48
l-93 -76q-14 -11 -30 -21t-34 -10t-34 10t-30 21l-93 76z" />
    <glyph glyph-name="longs" unicode="&#x17f;" horiz-adv-x="375" 
d="M61 533q0 54 15 93t42.5 63.5t65 36t82.5 11.5q82 0 116 -19.5t34 -49.5q0 -17 -9.5 -30t-20.5 -20q-16 13 -43.5 21t-58.5 8q-59 0 -84 -30t-25 -85v-532h-114v533z" />
    <glyph glyph-name="Scommaaccent" unicode="&#x218;" horiz-adv-x="689" 
d="M95 157q11 -8 33 -19.5t54.5 -23t74 -19.5t90.5 -8q87 0 124.5 25.5t37.5 72.5q0 23 -8.5 39t-25 27.5t-40 18.5t-53.5 12l-110 20q-42 7 -81 21t-69 37t-48 56.5t-18 80.5q0 42 15.5 80t49.5 66t86 44.5t126 16.5q54 0 94 -6t68 -14.5t45 -17.5t25 -14q16 -11 26 -24
t10 -30q0 -23 -14 -42.5t-26 -27.5q-9 10 -28.5 22.5t-48 23.5t-66.5 19t-83 8t-75.5 -7t-48.5 -19.5t-26 -30t-8 -39.5q0 -38 29.5 -59.5t98.5 -34.5l112 -21q109 -20 164 -65.5t55 -131.5q0 -48 -19 -86.5t-55.5 -66.5t-91 -43t-125.5 -15q-60 0 -110 9.5t-89 23t-65 27.5
t-38 22zM287 -123q3 31 16.5 49t42.5 18q20 0 34.5 -7.5t19.5 -11.5l-60 -178l-66 12z" />
    <glyph glyph-name="scommaaccent" unicode="&#x219;" horiz-adv-x="549" 
d="M71 125q7 -5 25 -13t44.5 -16.5t60.5 -14.5t74 -6q52 0 85 13.5t33 46.5q0 28 -21 42.5t-75 20.5l-78 9q-40 4 -73.5 14.5t-57.5 28.5t-37.5 44.5t-13.5 63.5q0 32 12.5 60.5t39.5 50.5t70.5 34.5t105.5 12.5q104 0 161.5 -23t57.5 -60q0 -12 -4.5 -21t-10 -16
t-11.5 -11.5t-9 -5.5q-4 4 -17.5 12.5t-36.5 17t-55 15t-74 6.5q-116 0 -116 -61q0 -26 22 -39.5t63 -18.5l102 -13q83 -11 129 -45.5t46 -101.5q0 -75 -59.5 -120t-171.5 -45q-54 0 -98 8t-76.5 18.5t-52.5 20.5t-26 15zM213 -123q3 31 16.5 49t42.5 18q20 0 34.5 -7.5
t19.5 -11.5l-60 -178l-66 12z" />
    <glyph glyph-name="uni021A" unicode="&#x21a;" horiz-adv-x="655" 
d="M264 577h-200q-59 0 -59 54q0 19 6 34.5t9 20.5h571q59 0 59 -54q0 -19 -5.5 -34.5t-9.5 -20.5h-252v-577h-119v577zM258 -123q3 31 16.5 49t42.5 18q20 0 34.5 -7.5t19.5 -11.5l-60 -178l-66 12z" />
    <glyph glyph-name="uni021B" unicode="&#x21b;" horiz-adv-x="402" 
d="M61 591q0 28 16 40.5t44 12.5q18 0 33.5 -4.5t20.5 -6.5v-131h145q33 0 46.5 -13.5t13.5 -39.5q0 -17 -5 -31.5t-8 -20.5h-192v-223q0 -26 7 -42.5t19.5 -26.5t29 -14t34.5 -4q29 0 54 9t36 17l46 -76q-8 -6 -22.5 -15t-35.5 -17t-47 -13.5t-57 -5.5q-88 0 -133 45.5
t-45 119.5v440zM171 -123q3 31 16.5 49t42.5 18q20 0 34.5 -7.5t19.5 -11.5l-60 -178l-66 12z" />
    <glyph glyph-name="dotlessj" unicode="&#x237;" horiz-adv-x="241" 
d="M-100 -103q12 -6 31.5 -10.5t41.5 -4.5q17 0 33.5 3.5t29 13.5t20 27.5t7.5 46.5v476q0 28 16 40.5t45 12.5q18 0 33 -4.5t20 -6.5v-509q0 -56 -15.5 -93t-41.5 -59t-59.5 -31t-69.5 -9q-20 0 -39 3t-35.5 6.5t-28.5 8t-18 7.5z" />
    <glyph glyph-name="apostrophe" unicode="&#x2bc;" horiz-adv-x="500" 
d="M44 679q6 21 17.5 32t33.5 11q26 0 40.5 -10.5t18.5 -15.5l-90 -209l-69 26z" />
    <glyph glyph-name="caron" unicode="&#x2c7;" horiz-adv-x="500" 
d="M132 721l118 -72l118 72l39 -48l-93 -76q-14 -11 -30 -21t-34 -10t-34 10t-30 21l-93 76z" />
    <glyph glyph-name="uni02C9" unicode="&#x2c9;" horiz-adv-x="500" 
d="M371 676q23 0 31.5 -11.5t8.5 -29.5q0 -14 -3 -24.5t-5 -13.5h-276q-22 0 -31 11t-9 30q0 14 3 23.5t5 14.5h276z" />
    <glyph glyph-name="breve" unicode="&#x2d8;" horiz-adv-x="500" 
d="M163 715q8 -34 30 -52.5t57 -18.5t57.5 18.5t30.5 52.5l54 -7q-1 -19 -8 -42.5t-23 -44.5t-43 -35.5t-68 -14.5t-68 14.5t-43 35.5t-23 44.5t-8 42.5z" />
    <glyph glyph-name="dotaccent" unicode="&#x2d9;" horiz-adv-x="500" 
d="M251 695q25 0 43.5 -19t18.5 -42t-18.5 -42t-43.5 -19q-13 0 -24.5 5t-20.5 13.5t-14 19.5t-5 23t5 23t14 19.5t20.5 13.5t24.5 5z" />
    <glyph glyph-name="ring" unicode="&#x2da;" horiz-adv-x="500" 
d="M250 761q21 0 40 -8t33 -22t22 -32t8 -39t-8 -39t-22 -32t-33 -22t-40 -8t-40 8t-33 22t-22 32t-8 39t8 39t22 32t33 22t40 8zM299 660q0 22 -13.5 36.5t-35.5 14.5t-35.5 -14.5t-13.5 -36.5q0 -23 13.5 -37.5t35.5 -14.5t35.5 14.5t13.5 37.5z" />
    <glyph glyph-name="ogonek" unicode="&#x2db;" horiz-adv-x="500" 
d="M321 0q-16 -3 -33.5 -9.5t-31.5 -16t-23.5 -22.5t-9.5 -29q0 -21 14 -29t34 -8q25 0 42.5 7.5t20.5 9.5l23 -53q-11 -6 -37.5 -15t-67.5 -9q-48 0 -78.5 18.5t-30.5 61.5q0 25 10.5 42.5t24 28.5t26 16l17.5 7h100z" />
    <glyph glyph-name="hungarumlaut" unicode="&#x2dd;" horiz-adv-x="500" 
d="M255 613l82 75q14 14 27.5 22t30.5 8t27 -8t15.5 -17.5t7.5 -18t2 -9.5l-154 -99zM52 613l82 75q14 14 27.5 22t30.5 8t27 -8t15.5 -17.5t7.5 -18t2 -9.5l-154 -99z" />
    <glyph glyph-name="Wgrave" unicode="&#x1e80;" horiz-adv-x="1003" 
d="M225 0l-32 81l-37.5 98.5l-38.5 104.5l-35 99l-28.5 81.5t-17.5 52.5l-20 64t-9 48q0 26 15.5 41.5t45.5 15.5q23 0 37.5 -6t18.5 -8q7 -28 18.5 -67l26 -85l30.5 -96l32.5 -99.5l32 -96t29.5 -84.5l38.5 132l39.5 140l34 124l22 84q8 28 23.5 45t49.5 17q23 0 41 -6
t23 -9l28 -116.5l34 -134l37.5 -140.5l38.5 -135l44 130.5l41.5 129.5l36 118.5l28.5 97.5q10 34 27 49.5t49 15.5q28 0 46 -8.5t22 -11.5q-18 -66 -45 -147.5l-57.5 -170l-64 -178l-65.5 -170.5h-134q-6 17 -16 48.5t-21.5 71.5l-25 86.5t-26 94l-24 92.5l-20.5 83
q-9 -37 -21 -82l-25 -91.5l-26.5 -92.5l-26 -86.5l-23 -72.5t-17.5 -51h-133zM372 829q0 5 3 16t10.5 22t19.5 19.5t30 8.5q28 0 62 -19l127 -74l-35 -59z" />
    <glyph glyph-name="wgrave" unicode="&#x1e81;" horiz-adv-x="816" 
d="M173 0l-80.5 195t-50 132.5t-26 81t-7.5 40.5q0 21 14 37t43 16q22 0 34.5 -4t16.5 -6q12 -44 27 -93.5l31 -98.5l31.5 -93.5l27.5 -79.5q11 31 23.5 71l26 82.5l26.5 86l24 82.5q8 26 22.5 39.5t46.5 13.5q20 0 36 -5.5t20 -7.5l28 -94.5l30 -97.5l29.5 -92l26.5 -78
q26 69 53.5 151t50.5 164q9 31 23.5 45.5t44.5 14.5q27 0 44 -9t19 -11q-8 -33 -28 -91l-45 -125.5l-53 -138t-53 -127.5h-118q-8 21 -21.5 61.5l-29.5 88.5l-31.5 98.5l-28.5 92.5l-28.5 -92.5l-31 -98.5l-28.5 -88.5t-21 -61.5h-118zM282 659q0 4 3.5 14t10 20.5t17.5 18
t28 7.5q23 0 54 -22l109 -79l-37 -52z" />
    <glyph glyph-name="Wacute" unicode="&#x1e82;" horiz-adv-x="1003" 
d="M225 0l-32 81l-37.5 98.5l-38.5 104.5l-35 99l-28.5 81.5t-17.5 52.5l-20 64t-9 48q0 26 15.5 41.5t45.5 15.5q23 0 37.5 -6t18.5 -8q7 -28 18.5 -67l26 -85l30.5 -96l32.5 -99.5l32 -96t29.5 -84.5l38.5 132l39.5 140l34 124l22 84q8 28 23.5 45t49.5 17q23 0 41 -6
t23 -9l28 -116.5l34 -134l37.5 -140.5l38.5 -135l44 130.5l41.5 129.5l36 118.5l28.5 97.5q10 34 27 49.5t49 15.5q28 0 46 -8.5t22 -11.5q-18 -66 -45 -147.5l-57.5 -170l-64 -178l-65.5 -170.5h-134q-6 17 -16 48.5t-21.5 71.5l-25 86.5t-26 94l-24 92.5l-20.5 83
q-9 -37 -21 -82l-25 -91.5l-26.5 -92.5l-26 -86.5l-23 -72.5t-17.5 -51h-133zM377 802l127 74q17 10 31.5 14.5t30.5 4.5q18 0 30 -8.5t19.5 -19.5t10.5 -22t3 -16l-217 -86z" />
    <glyph glyph-name="wacute" unicode="&#x1e83;" horiz-adv-x="816" 
d="M173 0l-80.5 195t-50 132.5t-26 81t-7.5 40.5q0 21 14 37t43 16q22 0 34.5 -4t16.5 -6q12 -44 27 -93.5l31 -98.5l31.5 -93.5l27.5 -79.5q11 31 23.5 71l26 82.5l26.5 86l24 82.5q8 26 22.5 39.5t46.5 13.5q20 0 36 -5.5t20 -7.5l28 -94.5l30 -97.5l29.5 -92l26.5 -78
q26 69 53.5 151t50.5 164q9 31 23.5 45.5t44.5 14.5q27 0 44 -9t19 -11q-8 -33 -28 -91l-45 -125.5l-53 -138t-53 -127.5h-118q-8 21 -21.5 61.5l-29.5 88.5l-31.5 98.5l-28.5 92.5l-28.5 -92.5l-31 -98.5l-28.5 -88.5t-21 -61.5h-118zM294 618l109 79q15 11 27.5 16.5
t26.5 5.5q16 0 27.5 -7.5t18 -18t10 -20.5t3.5 -14l-185 -93z" />
    <glyph glyph-name="Wdieresis" unicode="&#x1e84;" horiz-adv-x="1003" 
d="M225 0l-32 81l-37.5 98.5l-38.5 104.5l-35 99l-28.5 81.5t-17.5 52.5l-20 64t-9 48q0 26 15.5 41.5t45.5 15.5q23 0 37.5 -6t18.5 -8q7 -28 18.5 -67l26 -85l30.5 -96l32.5 -99.5l32 -96t29.5 -84.5l38.5 132l39.5 140l34 124l22 84q8 28 23.5 45t49.5 17q23 0 41 -6
t23 -9l28 -116.5l34 -134l37.5 -140.5l38.5 -135l44 130.5l41.5 129.5l36 118.5l28.5 97.5q10 34 27 49.5t49 15.5q28 0 46 -8.5t22 -11.5q-18 -66 -45 -147.5l-57.5 -170l-64 -178l-65.5 -170.5h-134q-6 17 -16 48.5t-21.5 71.5l-25 86.5t-26 94l-24 92.5l-20.5 83
q-9 -37 -21 -82l-25 -91.5l-26.5 -92.5l-26 -86.5l-23 -72.5t-17.5 -51h-133zM328 811q0 24 19.5 43.5t45.5 19.5t45.5 -19.5t19.5 -43.5q0 -23 -19.5 -42.5t-45.5 -19.5q-13 0 -24.5 5.5t-20.5 14t-14.5 19.5t-5.5 23zM548 811q0 24 19.5 43.5t45.5 19.5t45 -19.5t19 -43.5
q0 -23 -19 -42.5t-45 -19.5t-45.5 19.5t-19.5 42.5z" />
    <glyph glyph-name="wdieresis" unicode="&#x1e85;" horiz-adv-x="816" 
d="M173 0l-80.5 195t-50 132.5t-26 81t-7.5 40.5q0 21 14 37t43 16q22 0 34.5 -4t16.5 -6q12 -44 27 -93.5l31 -98.5l31.5 -93.5l27.5 -79.5q11 31 23.5 71l26 82.5l26.5 86l24 82.5q8 26 22.5 39.5t46.5 13.5q20 0 36 -5.5t20 -7.5l28 -94.5l30 -97.5l29.5 -92l26.5 -78
q26 69 53.5 151t50.5 164q9 31 23.5 45.5t44.5 14.5q27 0 44 -9t19 -11q-8 -33 -28 -91l-45 -125.5l-53 -138t-53 -127.5h-118q-8 21 -21.5 61.5l-29.5 88.5l-31.5 98.5l-28.5 92.5l-28.5 -92.5l-31 -98.5l-28.5 -88.5t-21 -61.5h-118zM246 634q0 12 5 23t14 19.5t20.5 13.5
t24.5 5q26 0 44.5 -19t18.5 -42t-18.5 -42t-44.5 -19q-13 0 -24.5 5t-20.5 13.5t-14 19.5t-5 23zM505 695q26 0 44 -19t18 -42t-18 -42t-44 -19t-45 19t-19 42t19 42t45 19z" />
    <glyph glyph-name="Ygrave" unicode="&#x1ef2;" horiz-adv-x="666" 
d="M268 258q-24 28 -53.5 67l-59.5 78.5l-56 75l-42 58.5q-18 25 -35 51.5t-17 47.5q0 23 15 36.5t40 13.5q20 0 32.5 -5l17.5 -7l42 -62l58.5 -83.5l63.5 -88.5l57 -76l49.5 68.5l50 73l47 71.5l40.5 63q11 17 28 31.5t48 14.5q27 0 45 -10.5t22 -14.5q-9 -18 -27 -47.5
l-41.5 -65l-50.5 -75l-54.5 -78l-53.5 -74l-47 -63.5v-258h-119v258zM205 829q0 5 3 16t10.5 22t19.5 19.5t30 8.5q28 0 62 -19l127 -74l-35 -59z" />
    <glyph glyph-name="ygrave" unicode="&#x1ef3;" horiz-adv-x="605" 
d="M58 449q0 27 16 40t44 13q18 0 33.5 -4.5t20.5 -6.5v-267q0 -59 31.5 -94t97.5 -35q61 0 96 35.5t35 104.5v214q0 27 16 40t44 13q18 0 33.5 -4.5t20.5 -6.5v-438q0 -71 -19 -120.5t-54 -81.5t-84 -46.5t-109 -14.5q-41 0 -75 4.5t-60.5 10.5t-43.5 11.5t-24 8.5
q8 21 15 42.5l14 42.5q7 -3 22 -8t36 -9.5t47.5 -7.5t56.5 -3q39 0 70 8.5t52.5 29.5t33 55.5t11.5 86.5q-20 -29 -62.5 -46.5t-93.5 -17.5q-48 0 -89 13.5t-70 39t-45.5 63.5t-16.5 87v248zM188 659q0 4 3.5 14t10 20.5t17.5 18t28 7.5q23 0 54 -22l109 -79l-37 -52z" />
    <glyph glyph-name="fraction" unicode="&#x2044;" horiz-adv-x="49" 
d="M165 698q9 16 20.5 27.5t38.5 11.5q23 0 38 -8t19 -12l-408 -717h-107z" />
    <glyph glyph-name="zerosuperior" unicode="&#x2070;" 
d="M237 287q-98 0 -150 61t-52 164q0 104 52 164.5t150 60.5t150 -60.5t52 -164.5q0 -103 -52 -164t-150 -61zM237 367q25 0 43 11t29.5 30.5t17 46t5.5 57.5t-5.5 57.5t-17 45.5t-29.5 30t-43 11q-26 0 -44 -11t-29 -30t-16.5 -45.5t-5.5 -57.5t5.5 -57.5t16.5 -46
t29 -30.5t44 -11z" />
    <glyph glyph-name="foursuperior" unicode="&#x2074;" 
d="M277 393h-139q-52 0 -76.5 16.5t-24.5 54.5q0 31 15 63.5t39 63t54.5 57t61 46.5t58.5 31.5t48 11.5q25 0 39.5 -5t20.5 -9v-255h20q36 0 36 -34q0 -13 -4 -24t-7 -17h-45v-95h-96v95zM277 469v174q-23 -11 -48 -30t-45.5 -40.5t-34 -44t-13.5 -40.5q0 -12 9.5 -15.5
t24.5 -3.5h107z" />
    <glyph glyph-name="fivesuperior" unicode="&#x2075;" 
d="M74 395q17 -8 50 -17.5t85 -9.5q29 0 47 5.5t28.5 14t14.5 19.5t4 22q0 14 -5 26t-17 20.5t-32 13t-51 4.5q-32 0 -68 -5t-56 -10l8 185q1 27 12 45t46 18h198q32 0 41.5 -11t9.5 -28q0 -15 -6.5 -25.5t-10.5 -15.5h-203l-4 -87q10 2 27.5 4t35.5 2q51 0 86 -10.5t56 -29
t30 -43t9 -51.5q0 -65 -49 -104.5t-150 -39.5q-35 0 -64 4.5t-50.5 11t-35.5 13t-20 9.5z" />
    <glyph glyph-name="sixsuperior" unicode="&#x2076;" 
d="M216 704q11 12 24 22.5t37 10.5q23 0 38 -11t21 -19l-117 -133q4 3 18.5 7t36.5 4q33 0 61 -9.5t48.5 -27.5t32 -43.5t11.5 -56.5q0 -36 -13.5 -65.5t-38.5 -51t-60 -33t-77 -11.5t-76.5 11.5t-59.5 31.5t-38.5 48.5t-13.5 63.5q0 43 21 82t53 75zM148 443
q0 -36 24 -58.5t66 -22.5q43 0 66.5 23.5t23.5 58.5q0 37 -24 58.5t-66 21.5q-41 0 -65.5 -23t-24.5 -58z" />
    <glyph glyph-name="sevensuperior" unicode="&#x2077;" 
d="M293 642h-200q-50 0 -50 43q0 12 6 24t10 17h279q64 0 64 -48q0 -11 -5 -25t-16 -37l-161 -318h-103z" />
    <glyph glyph-name="eightsuperior" unicode="&#x2078;" 
d="M109 516q-36 19 -49 44t-13 50q0 57 49 92t141 35t141 -35t49 -92q0 -25 -13 -50t-49 -44q42 -18 57 -44.5t15 -53.5q0 -60 -50 -95.5t-150 -35.5t-150 35.5t-50 95.5q0 27 15 53.5t57 44.5zM142 423q0 -26 23 -42.5t72 -16.5t72 16.5t23 42.5t-23 41.5t-72 15.5
t-72 -15.5t-23 -41.5zM149 607q0 -25 21.5 -41t66.5 -16t66.5 16t21.5 41q0 24 -21.5 40.5t-66.5 16.5t-66.5 -16.5t-21.5 -40.5z" />
    <glyph glyph-name="ninesuperior" unicode="&#x2079;" 
d="M252 447q-5 -3 -19 -6t-33 -3q-33 0 -61 10t-49 28t-32.5 43.5t-11.5 56.5q0 36 13.5 65.5t38.5 51t60 33t77 11.5t76.5 -11.5t59 -32t38 -49t13.5 -62.5q0 -43 -22.5 -84t-64.5 -89l-102 -116h-117zM145 580q0 -37 24 -58.5t66 -21.5q41 0 65.5 23t24.5 58q0 36 -24 58
t-66 22q-43 0 -66.5 -23t-23.5 -58z" />
    <glyph glyph-name="zeroinferior" unicode="&#x2080;" 
d="M237 -6q-98 0 -150 61t-52 164q0 104 52 164.5t150 60.5t150 -60.5t52 -164.5q0 -103 -52 -164t-150 -61zM237 74q25 0 43 11t29.5 30.5t17 46t5.5 57.5t-5.5 57.5t-17 45.5t-29.5 30t-43 11q-26 0 -44 -11t-29 -30t-16.5 -45.5t-5.5 -57.5t5.5 -57.5t16.5 -46t29 -30.5
t44 -11z" />
    <glyph glyph-name="oneinferior" unicode="&#x2081;" 
d="M209 331l-95 -60q-3 1 -11 4.5t-15.5 9.5t-13.5 14.5t-6 19.5q0 15 8 25.5t25 21.5l107 64q11 7 22.5 10.5t25.5 3.5q20 0 33 -7t19 -12v-420h-99v326z" />
    <glyph glyph-name="twoinferior" unicode="&#x2082;" 
d="M49 79l40 23.5l51 32t53.5 38t47.5 41.5t34.5 42.5t13.5 42.5q0 29 -19 46t-58 17q-24 0 -43 -8t-32.5 -18.5t-21 -20.5t-8.5 -14q-9 1 -18.5 5t-17.5 11t-13.5 16.5t-5.5 20.5q0 10 8 25t27.5 29.5t51.5 25t79 10.5q83 0 130 -36t47 -101q0 -41 -19 -74t-47 -60
t-61 -47.5l-60 -36.5h192v-84h-351v74z" />
    <glyph glyph-name="threeinferior" unicode="&#x2083;" 
d="M68 109q6 -3 19 -9t32 -11.5t43 -9.5t50 -4q43 0 66.5 14.5t23.5 41.5q0 26 -23 40t-71 14h-42q-3 3 -9.5 14.5t-6.5 26.5q0 19 10.5 26.5t30.5 7.5h18q43 0 64.5 14t21.5 40q0 23 -20.5 37t-64.5 14q-27 0 -47.5 -6t-34.5 -14.5t-21.5 -16.5t-8.5 -11q-7 1 -15 4.5
t-15.5 8.5t-12.5 13t-5 18q0 11 4.5 20t12.5 18q5 5 16 13t29.5 15t44.5 12t61 5q51 0 85.5 -11t56.5 -28.5t31.5 -39t9.5 -41.5q0 -35 -19 -60t-49 -39q40 -14 58 -40.5t18 -61.5q0 -54 -47.5 -91.5t-137.5 -37.5q-37 0 -68.5 5t-56 12t-41 14t-22.5 10z" />
    <glyph glyph-name="fourinferior" unicode="&#x2084;" 
d="M277 100h-139q-52 0 -76.5 16.5t-24.5 54.5q0 31 15 63.5t39 63t54.5 57t61 46.5t58.5 31.5t48 11.5q25 0 39.5 -5t20.5 -9v-255h20q36 0 36 -34q0 -13 -4 -24t-7 -17h-45v-95h-96v95zM277 176v174q-23 -11 -48 -30t-45.5 -40.5t-34 -44t-13.5 -40.5q0 -12 9.5 -15.5
t24.5 -3.5h107z" />
    <glyph glyph-name="fiveinferior" unicode="&#x2085;" 
d="M74 102q17 -8 50 -17.5t85 -9.5q29 0 47 5.5t28.5 14t14.5 19.5t4 22q0 14 -5 26t-17 20.5t-32 13t-51 4.5q-32 0 -68 -5t-56 -10l8 185q1 27 12 45t46 18h198q32 0 41.5 -11t9.5 -28q0 -15 -6.5 -25.5t-10.5 -15.5h-203l-4 -87q10 2 27.5 4t35.5 2q51 0 86 -10.5t56 -29
t30 -43t9 -51.5q0 -65 -49 -104.5t-150 -39.5q-35 0 -64 4.5t-50.5 11t-35.5 13t-20 9.5z" />
    <glyph glyph-name="sixinferior" unicode="&#x2086;" 
d="M216 411q11 12 24 22.5t37 10.5q23 0 38 -11t21 -19l-117 -133q4 3 18.5 7t36.5 4q33 0 61 -9.5t48.5 -27.5t32 -43.5t11.5 -56.5q0 -36 -13.5 -65.5t-38.5 -51t-60 -33t-77 -11.5t-76.5 11.5t-59.5 31.5t-38.5 48.5t-13.5 63.5q0 43 21 82t53 75zM148 150
q0 -36 24 -58.5t66 -22.5q43 0 66.5 23.5t23.5 58.5q0 37 -24 58.5t-66 21.5q-41 0 -65.5 -23t-24.5 -58z" />
    <glyph glyph-name="seveninferior" unicode="&#x2087;" 
d="M293 349h-200q-50 0 -50 43q0 12 6 24t10 17h279q64 0 64 -48q0 -11 -5 -25t-16 -37l-161 -318h-103z" />
    <glyph glyph-name="eightinferior" unicode="&#x2088;" 
d="M109 223q-36 19 -49 44t-13 50q0 57 49 92t141 35t141 -35t49 -92q0 -25 -13 -50t-49 -44q42 -18 57 -44.5t15 -53.5q0 -60 -50 -95.5t-150 -35.5t-150 35.5t-50 95.5q0 27 15 53.5t57 44.5zM142 130q0 -26 23 -42.5t72 -16.5t72 16.5t23 42.5t-23 41.5t-72 15.5
t-72 -15.5t-23 -41.5zM149 314q0 -25 21.5 -41t66.5 -16t66.5 16t21.5 41q0 24 -21.5 40.5t-66.5 16.5t-66.5 -16.5t-21.5 -40.5z" />
    <glyph glyph-name="nineinferior" unicode="&#x2089;" 
d="M252 154q-5 -3 -19 -6t-33 -3q-33 0 -61 10t-49 28t-32.5 43.5t-11.5 56.5q0 36 13.5 65.5t38.5 51t60 33t77 11.5t76.5 -11.5t59 -32t38 -49t13.5 -62.5q0 -43 -22.5 -84t-64.5 -89l-102 -116h-117zM145 287q0 -37 24 -58.5t66 -21.5q41 0 65.5 23t24.5 58q0 36 -24 58
t-66 22q-43 0 -66.5 -23t-23.5 -58z" />
    <glyph glyph-name="afii61289" unicode="&#x2113;" horiz-adv-x="570" 
d="M25 195l45.5 34.5t43.5 33.5v235q0 69 15 119.5t41.5 83.5t63 48.5t79.5 15.5q41 0 71.5 -14.5t50 -39.5t29 -58.5t9.5 -70.5q0 -89 -57 -172t-157 -171v-36q0 -45 27 -69t63 -24q21 0 41 7.5t37.5 20.5t33 29.5t27.5 33.5l61 -63q-46 -82 -108 -114.5t-128 -32.5
q-46 0 -80 12t-58 33t-38 49.5t-20 61.5q-1 3 -1 9l-26 -18.5l-27 -19.5zM259 369q51 55 83 112t32 105q0 36 -12 56.5t-41 20.5q-11 0 -22 -7t-20 -24t-14.5 -46t-5.5 -72v-145z" />
    <glyph glyph-name="estimated" unicode="&#x212e;" horiz-adv-x="870" 
d="M181 138q0 -13 9 -22q48 -51 110 -79t135 -28q79 0 145 32.5t114 86.5h57q-26 -32 -60.5 -57.5t-75.5 -43.5t-87 -28t-94 -10q-83 0 -156 28.5t-127 77t-85.5 114t-31.5 140.5t31.5 140.5t85.5 114.5t127 77.5t156 28.5t156.5 -28.5t128 -77.5t86 -114.5t31.5 -140.5v-10
h-650q-5 0 -5 -4v-197zM684 358q4 0 4 7v197q0 13 -9 24q-48 48 -110 75t-134 27q-71 0 -134 -29t-110 -77q-5 -4 -7.5 -10.5t-2.5 -13.5v-193q0 -7 5 -7h498z" />
    <glyph glyph-name="onethird" unicode="&#x2153;" horiz-adv-x="974" 
d="M179 624l-95 -60q-3 1 -11 4.5t-15.5 9.5t-13.5 14.5t-6 19.5q0 15 8 25.5t25 21.5l107 64q11 7 22.5 10.5t25.5 3.5q20 0 33 -7t19 -12v-420h-99v326zM574 698q9 16 20.5 27.5t38.5 11.5q23 0 38 -8t19 -12l-408 -717h-107zM583 109q6 -3 19 -9t32 -11.5t43 -9.5t50 -4
q43 0 66.5 14.5t23.5 41.5q0 26 -23 40t-71 14h-42q-3 3 -9.5 14.5t-6.5 26.5q0 19 10.5 26.5t30.5 7.5h18q43 0 64.5 14t21.5 40q0 23 -20.5 37t-64.5 14q-27 0 -47.5 -6t-34.5 -14.5t-21.5 -16.5t-8.5 -11q-7 1 -15 4.5t-15.5 8.5t-12.5 13t-5 18q0 11 4.5 20t12.5 18
q5 5 16 13t29.5 15t44.5 12t61 5q51 0 85.5 -11t56.5 -28.5t31.5 -39t9.5 -41.5q0 -35 -19 -60t-49 -39q40 -14 58 -40.5t18 -61.5q0 -54 -47.5 -91.5t-137.5 -37.5q-37 0 -68.5 5t-56 12t-41 14t-22.5 10z" />
    <glyph glyph-name="twothirds" unicode="&#x2154;" horiz-adv-x="1045" 
d="M36 372l40 23.5l51 32t53.5 38t47.5 41.5t34.5 42.5t13.5 42.5q0 29 -19 46t-58 17q-24 0 -43 -8t-32.5 -18.5t-21 -20.5t-8.5 -14q-9 1 -18.5 5t-17.5 11t-13.5 16.5t-5.5 20.5q0 10 8 25t27.5 29.5t51.5 25t79 10.5q83 0 130 -36t47 -101q0 -41 -19 -74t-47 -60
t-61 -47.5l-60 -36.5h192v-84h-351v74zM656 698q9 16 20.5 27.5t38.5 11.5q23 0 38 -8t19 -12l-408 -717h-107zM653 109q6 -3 19 -9t32 -11.5t43 -9.5t50 -4q43 0 66.5 14.5t23.5 41.5q0 26 -23 40t-71 14h-42q-3 3 -9.5 14.5t-6.5 26.5q0 19 10.5 26.5t30.5 7.5h18
q43 0 64.5 14t21.5 40q0 23 -20.5 37t-64.5 14q-27 0 -47.5 -6t-34.5 -14.5t-21.5 -16.5t-8.5 -11q-7 1 -15 4.5t-15.5 8.5t-12.5 13t-5 18q0 11 4.5 20t12.5 18q5 5 16 13t29.5 15t44.5 12t61 5q51 0 85.5 -11t56.5 -28.5t31.5 -39t9.5 -41.5q0 -35 -19 -60t-49 -39
q40 -14 58 -40.5t18 -61.5q0 -54 -47.5 -91.5t-137.5 -37.5q-37 0 -68.5 5t-56 12t-41 14t-22.5 10z" />
    <glyph glyph-name="oneeighth" unicode="&#x215b;" horiz-adv-x="989" 
d="M179 624l-95 -60q-3 1 -11 4.5t-15.5 9.5t-13.5 14.5t-6 19.5q0 15 8 25.5t25 21.5l107 64q11 7 22.5 10.5t25.5 3.5q20 0 33 -7t19 -12v-420h-99v326zM574 698q9 16 20.5 27.5t38.5 11.5q23 0 38 -8t19 -12l-408 -717h-107zM616 223q-36 19 -49 44t-13 50q0 57 49 92
t141 35t141 -35t49 -92q0 -25 -13 -50t-49 -44q42 -18 57 -44.5t15 -53.5q0 -60 -50 -95.5t-150 -35.5t-150 35.5t-50 95.5q0 27 15 53.5t57 44.5zM649 130q0 -26 23 -42.5t72 -16.5t72 16.5t23 42.5t-23 41.5t-72 15.5t-72 -15.5t-23 -41.5zM656 314q0 -25 21.5 -41
t66.5 -16t66.5 16t21.5 41q0 24 -21.5 40.5t-66.5 16.5t-66.5 -16.5t-21.5 -40.5z" />
    <glyph glyph-name="threeeighths" unicode="&#x215c;" horiz-adv-x="1054" 
d="M68 402q6 -3 19 -9t32 -11.5t43 -9.5t50 -4q43 0 66.5 14.5t23.5 41.5q0 26 -23 40t-71 14h-42q-3 3 -9.5 14.5t-6.5 26.5q0 19 10.5 26.5t30.5 7.5h18q43 0 64.5 14t21.5 40q0 23 -20.5 37t-64.5 14q-27 0 -47.5 -6t-34.5 -14.5t-21.5 -16.5t-8.5 -11q-7 1 -15 4.5
t-15.5 8.5t-12.5 13t-5 18q0 11 4.5 20t12.5 18q5 5 16 13t29.5 15t44.5 12t61 5q51 0 85.5 -11t56.5 -28.5t31.5 -39t9.5 -41.5q0 -35 -19 -60t-49 -39q40 -14 58 -40.5t18 -61.5q0 -54 -47.5 -91.5t-137.5 -37.5q-37 0 -68.5 5t-56 12t-41 14t-22.5 10zM649 698
q9 16 20.5 27.5t38.5 11.5q23 0 38 -8t19 -12l-408 -717h-107zM681 223q-36 19 -49 44t-13 50q0 57 49 92t141 35t141 -35t49 -92q0 -25 -13 -50t-49 -44q42 -18 57 -44.5t15 -53.5q0 -60 -50 -95.5t-150 -35.5t-150 35.5t-50 95.5q0 27 15 53.5t57 44.5zM714 130
q0 -26 23 -42.5t72 -16.5t72 16.5t23 42.5t-23 41.5t-72 15.5t-72 -15.5t-23 -41.5zM721 314q0 -25 21.5 -41t66.5 -16t66.5 16t21.5 41q0 24 -21.5 40.5t-66.5 16.5t-66.5 -16.5t-21.5 -40.5z" />
    <glyph glyph-name="fiveeighths" unicode="&#x215d;" horiz-adv-x="1060" 
d="M71 395q17 -8 50 -17.5t85 -9.5q29 0 47 5.5t28.5 14t14.5 19.5t4 22q0 14 -5 26t-17 20.5t-32 13t-51 4.5q-32 0 -68 -5t-56 -10l8 185q1 27 12 45t46 18h198q32 0 41.5 -11t9.5 -28q0 -15 -6.5 -25.5t-10.5 -15.5h-203l-4 -87q10 2 27.5 4t35.5 2q51 0 86 -10.5t56 -29
t30 -43t9 -51.5q0 -65 -49 -104.5t-150 -39.5q-35 0 -64 4.5t-50.5 11t-35.5 13t-20 9.5zM651 698q9 16 20.5 27.5t38.5 11.5q23 0 38 -8t19 -12l-408 -717h-107zM687 223q-36 19 -49 44t-13 50q0 57 49 92t141 35t141 -35t49 -92q0 -25 -13 -50t-49 -44q42 -18 57 -44.5
t15 -53.5q0 -60 -50 -95.5t-150 -35.5t-150 35.5t-50 95.5q0 27 15 53.5t57 44.5zM720 130q0 -26 23 -42.5t72 -16.5t72 16.5t23 42.5t-23 41.5t-72 15.5t-72 -15.5t-23 -41.5zM727 314q0 -25 21.5 -41t66.5 -16t66.5 16t21.5 41q0 24 -21.5 40.5t-66.5 16.5t-66.5 -16.5
t-21.5 -40.5z" />
    <glyph glyph-name="seveneighths" unicode="&#x215e;" horiz-adv-x="974" 
d="M288 642h-200q-50 0 -50 43q0 12 6 24t10 17h279q64 0 64 -48q0 -11 -5 -25t-16 -37l-161 -318h-103zM562 698q9 16 20.5 27.5t38.5 11.5q23 0 38 -8t19 -12l-408 -717h-107zM601 223q-36 19 -49 44t-13 50q0 57 49 92t141 35t141 -35t49 -92q0 -25 -13 -50t-49 -44
q42 -18 57 -44.5t15 -53.5q0 -60 -50 -95.5t-150 -35.5t-150 35.5t-50 95.5q0 27 15 53.5t57 44.5zM634 130q0 -26 23 -42.5t72 -16.5t72 16.5t23 42.5t-23 41.5t-72 15.5t-72 -15.5t-23 -41.5zM641 314q0 -25 21.5 -41t66.5 -16t66.5 16t21.5 41q0 24 -21.5 40.5
t-66.5 16.5t-66.5 -16.5t-21.5 -40.5z" />
    <glyph glyph-name="onefifth" unicode="&#x2155;" horiz-adv-x="949" 
d="M179 624l-95 -60q-3 1 -11 4.5t-15.5 9.5t-13.5 14.5t-6 19.5q0 15 8 25.5t25 21.5l107 64q11 7 22.5 10.5t25.5 3.5q20 0 33 -7t19 -12v-420h-99v326zM574 698q9 16 20.5 27.5t38.5 11.5q23 0 38 -8t19 -12l-408 -717h-107zM564 102q17 -8 50 -17.5t85 -9.5q29 0 47 5.5
t28.5 14t14.5 19.5t4 22q0 14 -5 26t-17 20.5t-32 13t-51 4.5q-32 0 -68 -5t-56 -10l8 185q1 27 12 45t46 18h198q32 0 41.5 -11t9.5 -28q0 -15 -6.5 -25.5t-10.5 -15.5h-203l-4 -87q10 2 27.5 4t35.5 2q51 0 86 -10.5t56 -29t30 -43t9 -51.5q0 -65 -49 -104.5t-150 -39.5
q-35 0 -64 4.5t-50.5 11t-35.5 13t-20 9.5z" />
    <glyph glyph-name="twofifths" unicode="&#x2156;" horiz-adv-x="1026" 
d="M36 372l40 23.5l51 32t53.5 38t47.5 41.5t34.5 42.5t13.5 42.5q0 29 -19 46t-58 17q-24 0 -43 -8t-32.5 -18.5t-21 -20.5t-8.5 -14q-9 1 -18.5 5t-17.5 11t-13.5 16.5t-5.5 20.5q0 10 8 25t27.5 29.5t51.5 25t79 10.5q83 0 130 -36t47 -101q0 -41 -19 -74t-47 -60
t-61 -47.5l-60 -36.5h192v-84h-351v74zM657 698q9 16 20.5 27.5t38.5 11.5q23 0 38 -8t19 -12l-408 -717h-107zM641 102q17 -8 50 -17.5t85 -9.5q29 0 47 5.5t28.5 14t14.5 19.5t4 22q0 14 -5 26t-17 20.5t-32 13t-51 4.5q-32 0 -68 -5t-56 -10l8 185q1 27 12 45t46 18h198
q32 0 41.5 -11t9.5 -28q0 -15 -6.5 -25.5t-10.5 -15.5h-203l-4 -87q10 2 27.5 4t35.5 2q51 0 86 -10.5t56 -29t30 -43t9 -51.5q0 -65 -49 -104.5t-150 -39.5q-35 0 -64 4.5t-50.5 11t-35.5 13t-20 9.5z" />
    <glyph glyph-name="threefifths" unicode="&#x2157;" horiz-adv-x="1021" 
d="M68 402q6 -3 19 -9t32 -11.5t43 -9.5t50 -4q43 0 66.5 14.5t23.5 41.5q0 26 -23 40t-71 14h-42q-3 3 -9.5 14.5t-6.5 26.5q0 19 10.5 26.5t30.5 7.5h18q43 0 64.5 14t21.5 40q0 23 -20.5 37t-64.5 14q-27 0 -47.5 -6t-34.5 -14.5t-21.5 -16.5t-8.5 -11q-7 1 -15 4.5
t-15.5 8.5t-12.5 13t-5 18q0 11 4.5 20t12.5 18q5 5 16 13t29.5 15t44.5 12t61 5q51 0 85.5 -11t56.5 -28.5t31.5 -39t9.5 -41.5q0 -35 -19 -60t-49 -39q40 -14 58 -40.5t18 -61.5q0 -54 -47.5 -91.5t-137.5 -37.5q-37 0 -68.5 5t-56 12t-41 14t-22.5 10zM649 698
q9 16 20.5 27.5t38.5 11.5q23 0 38 -8t19 -12l-408 -717h-107zM636 102q17 -8 50 -17.5t85 -9.5q29 0 47 5.5t28.5 14t14.5 19.5t4 22q0 14 -5 26t-17 20.5t-32 13t-51 4.5q-32 0 -68 -5t-56 -10l8 185q1 27 12 45t46 18h198q32 0 41.5 -11t9.5 -28q0 -15 -6.5 -25.5
t-10.5 -15.5h-203l-4 -87q10 2 27.5 4t35.5 2q51 0 86 -10.5t56 -29t30 -43t9 -51.5q0 -65 -49 -104.5t-150 -39.5q-35 0 -64 4.5t-50.5 11t-35.5 13t-20 9.5z" />
    <glyph glyph-name="fourfifths" unicode="&#x2158;" horiz-adv-x="1023" 
d="M265 393h-139q-52 0 -76.5 16.5t-24.5 54.5q0 31 15 63.5t39 63t54.5 57t61 46.5t58.5 31.5t48 11.5q25 0 39.5 -5t20.5 -9v-255h20q36 0 36 -34q0 -13 -4 -24t-7 -17h-45v-95h-96v95zM265 469v174q-23 -11 -48 -30t-45.5 -40.5t-34 -44t-13.5 -40.5q0 -12 9.5 -15.5
t24.5 -3.5h107zM653 698q9 16 20.5 27.5t38.5 11.5q23 0 38 -8t19 -12l-408 -717h-107zM638 102q17 -8 50 -17.5t85 -9.5q29 0 47 5.5t28.5 14t14.5 19.5t4 22q0 14 -5 26t-17 20.5t-32 13t-51 4.5q-32 0 -68 -5t-56 -10l8 185q1 27 12 45t46 18h198q32 0 41.5 -11t9.5 -28
q0 -15 -6.5 -25.5t-10.5 -15.5h-203l-4 -87q10 2 27.5 4t35.5 2q51 0 86 -10.5t56 -29t30 -43t9 -51.5q0 -65 -49 -104.5t-150 -39.5q-35 0 -64 4.5t-50.5 11t-35.5 13t-20 9.5z" />
    <glyph glyph-name="onesixth" unicode="&#x2159;" horiz-adv-x="906" 
d="M179 624l-95 -60q-3 1 -11 4.5t-15.5 9.5t-13.5 14.5t-6 19.5q0 15 8 25.5t25 21.5l107 64q11 7 22.5 10.5t25.5 3.5q20 0 33 -7t19 -12v-420h-99v326zM574 698q9 16 20.5 27.5t38.5 11.5q23 0 38 -8t19 -12l-408 -717h-107zM652 411q11 12 24 22.5t37 10.5q23 0 38 -11
t21 -19l-117 -133q4 3 18.5 7t36.5 4q33 0 61 -9.5t48.5 -27.5t32 -43.5t11.5 -56.5q0 -36 -13.5 -65.5t-38.5 -51t-60 -33t-77 -11.5t-76.5 11.5t-59.5 31.5t-38.5 48.5t-13.5 63.5q0 43 21 82t53 75zM584 150q0 -36 24 -58.5t66 -22.5q43 0 66.5 23.5t23.5 58.5
q0 37 -24 58.5t-66 21.5q-41 0 -65.5 -23t-24.5 -58z" />
    <glyph glyph-name="fivesixths" unicode="&#x215a;" horiz-adv-x="979" 
d="M71 395q17 -8 50 -17.5t85 -9.5q29 0 47 5.5t28.5 14t14.5 19.5t4 22q0 14 -5 26t-17 20.5t-32 13t-51 4.5q-32 0 -68 -5t-56 -10l8 185q1 27 12 45t46 18h198q32 0 41.5 -11t9.5 -28q0 -15 -6.5 -25.5t-10.5 -15.5h-203l-4 -87q10 2 27.5 4t35.5 2q51 0 86 -10.5t56 -29
t30 -43t9 -51.5q0 -65 -49 -104.5t-150 -39.5q-35 0 -64 4.5t-50.5 11t-35.5 13t-20 9.5zM650 698q9 16 20.5 27.5t38.5 11.5q23 0 38 -8t19 -12l-408 -717h-107zM726 411q11 12 24 22.5t37 10.5q23 0 38 -11t21 -19l-117 -133q4 3 18.5 7t36.5 4q33 0 61 -9.5t48.5 -27.5
t32 -43.5t11.5 -56.5q0 -36 -13.5 -65.5t-38.5 -51t-60 -33t-77 -11.5t-76.5 11.5t-59.5 31.5t-38.5 48.5t-13.5 63.5q0 43 21 82t53 75zM658 150q0 -36 24 -58.5t66 -22.5q43 0 66.5 23.5t23.5 58.5q0 37 -24 58.5t-66 21.5q-41 0 -65.5 -23t-24.5 -58z" />
    <glyph glyph-name="oneseventh" unicode="&#xf506;" horiz-adv-x="974" 
d="M179 624l-95 -60q-3 1 -11 4.5t-15.5 9.5t-13.5 14.5t-6 19.5q0 15 8 25.5t25 21.5l107 64q11 7 22.5 10.5t25.5 3.5q20 0 33 -7t19 -12v-420h-99v326zM574 698q9 16 20.5 27.5t38.5 11.5q23 0 38 -8t19 -12l-408 -717h-107zM828 349h-200q-50 0 -50 43q0 12 6 24t10 17
h279q64 0 64 -48q0 -11 -5 -25t-16 -37l-161 -318h-103z" />
    <glyph glyph-name="twosevenths" unicode="&#xf507;" horiz-adv-x="1047" 
d="M33 372l40 23.5l51 32t53.5 38t47.5 41.5t34.5 42.5t13.5 42.5q0 29 -19 46t-58 17q-24 0 -43 -8t-32.5 -18.5t-21 -20.5t-8.5 -14q-9 1 -18.5 5t-17.5 11t-13.5 16.5t-5.5 20.5q0 10 8 25t27.5 29.5t51.5 25t79 10.5q83 0 130 -36t47 -101q0 -41 -19 -74t-47 -60
t-61 -47.5l-60 -36.5h192v-84h-351v74zM655 698q9 16 20.5 27.5t38.5 11.5q23 0 38 -8t19 -12l-408 -717h-107zM900 349h-200q-50 0 -50 43q0 12 6 24t10 17h279q64 0 64 -48q0 -11 -5 -25t-16 -37l-161 -318h-103z" />
    <glyph glyph-name="threesevenths" unicode="&#xf508;" horiz-adv-x="1041" 
d="M68 402q6 -3 19 -9t32 -11.5t43 -9.5t50 -4q43 0 66.5 14.5t23.5 41.5q0 26 -23 40t-71 14h-42q-3 3 -9.5 14.5t-6.5 26.5q0 19 10.5 26.5t30.5 7.5h18q43 0 64.5 14t21.5 40q0 23 -20.5 37t-64.5 14q-27 0 -47.5 -6t-34.5 -14.5t-21.5 -16.5t-8.5 -11q-7 1 -15 4.5
t-15.5 8.5t-12.5 13t-5 18q0 11 4.5 20t12.5 18q5 5 16 13t29.5 15t44.5 12t61 5q51 0 85.5 -11t56.5 -28.5t31.5 -39t9.5 -41.5q0 -35 -19 -60t-49 -39q40 -14 58 -40.5t18 -61.5q0 -54 -47.5 -91.5t-137.5 -37.5q-37 0 -68.5 5t-56 12t-41 14t-22.5 10zM650 698
q9 16 20.5 27.5t38.5 11.5q23 0 38 -8t19 -12l-408 -717h-107zM895 349h-200q-50 0 -50 43q0 12 6 24t10 17h279q64 0 64 -48q0 -11 -5 -25t-16 -37l-161 -318h-103z" />
    <glyph glyph-name="foursevenths" unicode="&#xf509;" horiz-adv-x="1051" 
d="M265 393h-139q-52 0 -76.5 16.5t-24.5 54.5q0 31 15 63.5t39 63t54.5 57t61 46.5t58.5 31.5t48 11.5q25 0 39.5 -5t20.5 -9v-255h20q36 0 36 -34q0 -13 -4 -24t-7 -17h-45v-95h-96v95zM265 469v174q-23 -11 -48 -30t-45.5 -40.5t-34 -44t-13.5 -40.5q0 -12 9.5 -15.5
t24.5 -3.5h107zM659 698q9 16 20.5 27.5t38.5 11.5q23 0 38 -8t19 -12l-408 -717h-107zM904 349h-200q-50 0 -50 43q0 12 6 24t10 17h279q64 0 64 -48q0 -11 -5 -25t-16 -37l-161 -318h-103z" />
    <glyph glyph-name="fivesevenths" unicode="&#xf50a;" horiz-adv-x="1046" 
d="M71 395q17 -8 50 -17.5t85 -9.5q29 0 47 5.5t28.5 14t14.5 19.5t4 22q0 14 -5 26t-17 20.5t-32 13t-51 4.5q-32 0 -68 -5t-56 -10l8 185q1 27 12 45t46 18h198q32 0 41.5 -11t9.5 -28q0 -15 -6.5 -25.5t-10.5 -15.5h-203l-4 -87q10 2 27.5 4t35.5 2q51 0 86 -10.5t56 -29
t30 -43t9 -51.5q0 -65 -49 -104.5t-150 -39.5q-35 0 -64 4.5t-50.5 11t-35.5 13t-20 9.5zM651 698q9 16 20.5 27.5t38.5 11.5q23 0 38 -8t19 -12l-408 -717h-107zM900 349h-200q-50 0 -50 43q0 12 6 24t10 17h279q64 0 64 -48q0 -11 -5 -25t-16 -37l-161 -318h-103z" />
    <glyph glyph-name="sixsevenths" unicode="&#xf50b;" horiz-adv-x="1047" 
d="M197 704q11 12 24 22.5t37 10.5q23 0 38 -11t21 -19l-117 -133q4 3 18.5 7t36.5 4q33 0 61 -9.5t48.5 -27.5t32 -43.5t11.5 -56.5q0 -36 -13.5 -65.5t-38.5 -51t-60 -33t-77 -11.5t-76.5 11.5t-59.5 31.5t-38.5 48.5t-13.5 63.5q0 43 21 82t53 75zM129 443
q0 -36 24 -58.5t66 -22.5q43 0 66.5 23.5t23.5 58.5q0 37 -24 58.5t-66 21.5q-41 0 -65.5 -23t-24.5 -58zM649 698q9 16 20.5 27.5t38.5 11.5q23 0 38 -8t19 -12l-408 -717h-107zM896 349h-200q-50 0 -50 43q0 12 6 24t10 17h279q64 0 64 -48q0 -11 -5 -25t-16 -37
l-161 -318h-103z" />
    <glyph glyph-name="oneninth" unicode="&#xf50c;" horiz-adv-x="955" 
d="M179 624l-95 -60q-3 1 -11 4.5t-15.5 9.5t-13.5 14.5t-6 19.5q0 15 8 25.5t25 21.5l107 64q11 7 22.5 10.5t25.5 3.5q20 0 33 -7t19 -12v-420h-99v326zM574 698q9 16 20.5 27.5t38.5 11.5q23 0 38 -8t19 -12l-408 -717h-107zM751 154q-5 -3 -19 -6t-33 -3q-33 0 -61 10
t-49 28t-32.5 43.5t-11.5 56.5q0 36 13.5 65.5t38.5 51t60 33t77 11.5t76.5 -11.5t59 -32t38 -49t13.5 -62.5q0 -43 -22.5 -84t-64.5 -89l-102 -116h-117zM644 287q0 -37 24 -58.5t66 -21.5q41 0 65.5 23t24.5 58q0 36 -24 58t-66 22q-43 0 -66.5 -23t-23.5 -58z" />
    <glyph glyph-name="twoninths" unicode="&#xf50d;" horiz-adv-x="1024" 
d="M33 372l40 23.5l51 32t53.5 38t47.5 41.5t34.5 42.5t13.5 42.5q0 29 -19 46t-58 17q-24 0 -43 -8t-32.5 -18.5t-21 -20.5t-8.5 -14q-9 1 -18.5 5t-17.5 11t-13.5 16.5t-5.5 20.5q0 10 8 25t27.5 29.5t51.5 25t79 10.5q83 0 130 -36t47 -101q0 -41 -19 -74t-47 -60
t-61 -47.5l-60 -36.5h192v-84h-351v74zM652 698q9 16 20.5 27.5t38.5 11.5q23 0 38 -8t19 -12l-408 -717h-107zM822 154q-5 -3 -19 -6t-33 -3q-33 0 -61 10t-49 28t-32.5 43.5t-11.5 56.5q0 36 13.5 65.5t38.5 51t60 33t77 11.5t76.5 -11.5t59 -32t38 -49t13.5 -62.5
q0 -43 -22.5 -84t-64.5 -89l-102 -116h-117zM715 287q0 -37 24 -58.5t66 -21.5q41 0 65.5 23t24.5 58q0 36 -24 58t-66 22q-43 0 -66.5 -23t-23.5 -58z" />
    <glyph glyph-name="fourninths" unicode="&#xf50e;" horiz-adv-x="1033" 
d="M265 393h-139q-52 0 -76.5 16.5t-24.5 54.5q0 31 15 63.5t39 63t54.5 57t61 46.5t58.5 31.5t48 11.5q25 0 39.5 -5t20.5 -9v-255h20q36 0 36 -34q0 -13 -4 -24t-7 -17h-45v-95h-96v95zM265 469v174q-23 -11 -48 -30t-45.5 -40.5t-34 -44t-13.5 -40.5q0 -12 9.5 -15.5
t24.5 -3.5h107zM658 698q9 16 20.5 27.5t38.5 11.5q23 0 38 -8t19 -12l-408 -717h-107zM831 154q-5 -3 -19 -6t-33 -3q-33 0 -61 10t-49 28t-32.5 43.5t-11.5 56.5q0 36 13.5 65.5t38.5 51t60 33t77 11.5t76.5 -11.5t59 -32t38 -49t13.5 -62.5q0 -43 -22.5 -84t-64.5 -89
l-102 -116h-117zM724 287q0 -37 24 -58.5t66 -21.5q41 0 65.5 23t24.5 58q0 36 -24 58t-66 22q-43 0 -66.5 -23t-23.5 -58z" />
    <glyph glyph-name="fiveninths" unicode="&#xf50f;" horiz-adv-x="1026" 
d="M71 395q17 -8 50 -17.5t85 -9.5q29 0 47 5.5t28.5 14t14.5 19.5t4 22q0 14 -5 26t-17 20.5t-32 13t-51 4.5q-32 0 -68 -5t-56 -10l8 185q1 27 12 45t46 18h198q32 0 41.5 -11t9.5 -28q0 -15 -6.5 -25.5t-10.5 -15.5h-203l-4 -87q10 2 27.5 4t35.5 2q51 0 86 -10.5t56 -29
t30 -43t9 -51.5q0 -65 -49 -104.5t-150 -39.5q-35 0 -64 4.5t-50.5 11t-35.5 13t-20 9.5zM650 698q9 16 20.5 27.5t38.5 11.5q23 0 38 -8t19 -12l-408 -717h-107zM822 154q-5 -3 -19 -6t-33 -3q-33 0 -61 10t-49 28t-32.5 43.5t-11.5 56.5q0 36 13.5 65.5t38.5 51t60 33
t77 11.5t76.5 -11.5t59 -32t38 -49t13.5 -62.5q0 -43 -22.5 -84t-64.5 -89l-102 -116h-117zM715 287q0 -37 24 -58.5t66 -21.5q41 0 65.5 23t24.5 58q0 36 -24 58t-66 22q-43 0 -66.5 -23t-23.5 -58z" />
    <glyph glyph-name="sevenninths" unicode="&#xf510;" horiz-adv-x="947" 
d="M288 642h-200q-50 0 -50 43q0 12 6 24t10 17h279q64 0 64 -48q0 -11 -5 -25t-16 -37l-161 -318h-103zM560 698q9 16 20.5 27.5t38.5 11.5q23 0 38 -8t19 -12l-408 -717h-107zM743 154q-5 -3 -19 -6t-33 -3q-33 0 -61 10t-49 28t-32.5 43.5t-11.5 56.5q0 36 13.5 65.5
t38.5 51t60 33t77 11.5t76.5 -11.5t59 -32t38 -49t13.5 -62.5q0 -43 -22.5 -84t-64.5 -89l-102 -116h-117zM636 287q0 -37 24 -58.5t66 -21.5q41 0 65.5 23t24.5 58q0 36 -24 58t-66 22q-43 0 -66.5 -23t-23.5 -58z" />
    <glyph glyph-name="eightninths" unicode="&#xf511;" horiz-adv-x="1059" 
d="M110 516q-36 19 -49 44t-13 50q0 57 49 92t141 35t141 -35t49 -92q0 -25 -13 -50t-49 -44q42 -18 57 -44.5t15 -53.5q0 -60 -50 -95.5t-150 -35.5t-150 35.5t-50 95.5q0 27 15 53.5t57 44.5zM143 423q0 -26 23 -42.5t72 -16.5t72 16.5t23 42.5t-23 41.5t-72 15.5
t-72 -15.5t-23 -41.5zM150 607q0 -25 21.5 -41t66.5 -16t66.5 16t21.5 41q0 24 -21.5 40.5t-66.5 16.5t-66.5 -16.5t-21.5 -40.5zM686 698q9 16 20.5 27.5t38.5 11.5q23 0 38 -8t19 -12l-408 -717h-107zM857 154q-5 -3 -19 -6t-33 -3q-33 0 -61 10t-49 28t-32.5 43.5
t-11.5 56.5q0 36 13.5 65.5t38.5 51t60 33t77 11.5t76.5 -11.5t59 -32t38 -49t13.5 -62.5q0 -43 -22.5 -84t-64.5 -89l-102 -116h-117zM750 287q0 -37 24 -58.5t66 -21.5q41 0 65.5 23t24.5 58q0 36 -24 58t-66 22q-43 0 -66.5 -23t-23.5 -58z" />
    <glyph glyph-name="partialdiff" unicode="&#x2202;" horiz-adv-x="624" 
d="M88 656q6 9 21.5 23t40 26.5t59.5 22t80 9.5q60 0 105.5 -18.5t78 -50.5t54.5 -74t34.5 -89t18 -96t5.5 -94q0 -84 -19.5 -146t-55.5 -102.5t-87 -60.5t-114 -20q-60 0 -109.5 18t-85.5 50.5t-56 78t-20 100.5q0 56 19.5 101.5t53.5 78t78.5 50t95.5 17.5q33 0 61 -6.5
t49.5 -16.5t37 -22t23.5 -22q-3 40 -13.5 81t-31.5 75t-55 55.5t-83 21.5q-25 0 -45.5 -7t-35.5 -15.5t-24 -17l-12 -11.5zM312 79q35 0 63.5 12t48.5 33t31 49.5t11 61.5q0 68 -41.5 111t-112.5 43q-35 0 -64 -12t-49 -33t-31 -49.5t-11 -61.5t11 -61t31.5 -49t49 -32.5
t63.5 -11.5z" />
    <glyph glyph-name="Delta" unicode="&#x2206;" horiz-adv-x="734" 
d="M558 104l-194 465l-196 -465h390zM304 704h127l298 -704h-724z" />
    <glyph glyph-name="product" unicode="&#x220f;" horiz-adv-x="736" 
d="M73 631q0 28 17 41.5t46 13.5h464q29 0 46 -13.5t17 -41.5v-755h-119v701h-352v-701h-119v755z" />
    <glyph glyph-name="summation" unicode="&#x2211;" horiz-adv-x="630" 
d="M15 -15l318 301l-235 222q-37 35 -58 59.5t-21 53.5q0 65 81 65h444q60 0 60 -53q0 -19 -6 -34.5t-9 -20.5h-402l308 -291l-323 -303h443v-108h-600v109z" />
    <glyph glyph-name="uni2126" unicode="&#x2126;" horiz-adv-x="822" 
d="M57 99h141q-26 18 -50.5 44.5t-44 61t-31.5 76t-12 90.5q0 64 21 124t64 106.5t109 74.5t157 28t157 -28t109 -74.5t64 -106.5t21 -124q0 -49 -12 -90.5t-31.5 -76t-44 -61t-50.5 -44.5h141v-99h-291v98q81 45 122 107.5t41 156.5q0 51 -15 94.5t-43.5 75t-71 49.5
t-96.5 18t-96.5 -18t-71 -49.5t-43.5 -75t-15 -94.5q0 -94 41 -156.5t122 -107.5v-98h-291v99z" />
    <glyph glyph-name="minus" unicode="&#x2212;" horiz-adv-x="633" 
d="M525 393q29 0 41 -15t12 -41q0 -18 -4.5 -32t-6.5 -19h-459q-29 0 -41 15.5t-12 41.5q0 17 4.5 31t6.5 19h459z" />
    <glyph glyph-name="uni2215" unicode="&#x2215;" horiz-adv-x="49" 
d="M165 698q9 16 20.5 27.5t38.5 11.5q23 0 38 -8t19 -12l-408 -717h-107z" />
    <glyph glyph-name="uni2219" unicode="&#x2219;" horiz-adv-x="300" 
d="M73 343q0 16 6 30t16.5 24.5t25 16.5t30.5 6q32 0 54.5 -22.5t22.5 -54.5q0 -16 -6 -30.5t-16.5 -25t-24.5 -17t-30 -6.5q-32 0 -55 23.5t-23 55.5z" />
    <glyph glyph-name="radical" unicode="&#x221a;" horiz-adv-x="615" 
d="M133 410l-80 -42l-30 67l193 97l121 -374l238 735h112l-301 -906h-110z" />
    <glyph glyph-name="infinity" unicode="&#x221e;" horiz-adv-x="793" 
d="M450 338q32 -45 61 -67t62 -22q38 0 60 26.5t22 68.5q0 47 -23.5 71.5t-61.5 24.5q-20 0 -36 -8.5t-30.5 -22.5t-27.5 -32.5zM342 331q-29 51 -57 79t-64 28q-38 0 -61 -29t-23 -68q0 -49 25.5 -71.5t63.5 -22.5q27 0 55.5 19.5t60.5 64.5zM397 253q-42 -48 -83.5 -73
t-94.5 -25q-36 0 -68 12t-55.5 35t-37.5 58t-14 80q0 37 11.5 72t34.5 62t57 43t79 16q31 0 54.5 -7.5t43.5 -21.5t38 -34.5t36 -46.5q40 56 80.5 82t94.5 26q38 0 70 -14t55.5 -38t36.5 -57t13 -71q0 -50 -13.5 -87t-36.5 -61t-55.5 -35.5t-69.5 -11.5q-56 0 -99 27.5
t-77 69.5z" />
    <glyph glyph-name="integral" unicode="&#x222b;" horiz-adv-x="412" 
d="M49 -95q6 -5 22 -12t36 -7q23 0 37.5 13t14.5 45q0 15 -0.5 30.5t-0.5 25.5l-17 503q-1 26 -1 51.5v40.5q0 72 40.5 107t101.5 35q46 0 77.5 -12.5t42.5 -20.5l-39 -82q-6 5 -22 12t-36 7q-23 0 -37.5 -13t-14.5 -45v-30.5t1 -25.5l16 -486q1 -35 1 -62t1 -47
q0 -72 -40.5 -107t-101.5 -35q-46 0 -77.5 12.5t-42.5 20.5z" />
    <glyph glyph-name="approxequal" unicode="&#x2248;" horiz-adv-x="633" 
d="M45 379q1 42 13 73t31.5 52t45.5 31t56 10q29 0 51.5 -4.5t42.5 -11.5l75 -26q26 -9 43.5 -13.5t37.5 -4.5q28 0 41.5 16.5t18.5 46.5h90q-2 -36 -11 -67t-25.5 -53.5t-41 -35t-56.5 -12.5q-16 0 -35.5 2.5t-33.5 7.5l-107 34q-25 8 -46 13t-40 5q-26 0 -41 -17t-18 -46
h-91zM45 135q1 42 13 73t31.5 52t45.5 31t56 10q29 0 51.5 -4.5t42.5 -11.5l75 -26q26 -9 43.5 -13.5t37.5 -4.5q28 0 41.5 16.5t18.5 46.5h90q-2 -36 -11 -67t-25.5 -53.5t-41 -35t-56.5 -12.5q-16 0 -35.5 2.5t-33.5 7.5l-107 34q-25 8 -46 13t-40 5q-26 0 -41 -17
t-18 -46h-91z" />
    <glyph glyph-name="notequal" unicode="&#x2260;" horiz-adv-x="633" 
d="M179 163h-71q-29 0 -41.5 15.5t-12.5 41.5q0 18 5 31.5t7 18.5h162l75 142h-195q-29 0 -41.5 15t-12.5 41q0 18 4.5 32t7.5 19h287l48 92q11 21 24 33t36 12q26 0 41.5 -11t19.5 -18l-56 -108h59q29 0 42 -14t13 -40q0 -18 -5 -33t-8 -20h-151l-76 -142h185q29 0 41 -15
t12 -41q0 -18 -4.5 -32t-6.5 -19h-277l-68 -131h-110z" />
    <glyph glyph-name="lessequal" unicode="&#x2264;" horiz-adv-x="633" 
d="M525 106q29 0 41 -15t12 -40q0 -18 -4.5 -32t-6.5 -19h-459q-29 0 -41 15t-12 41q0 17 4.5 31t6.5 19h459zM561 616v-113l-341 -112l341 -112v-112l-441 154q-28 10 -38.5 29.5t-10.5 40.5q0 20 8 35.5t17 23.5z" />
    <glyph glyph-name="greaterequal" unicode="&#x2265;" horiz-adv-x="633" 
d="M67 0q-2 5 -6.5 19t-4.5 32q0 25 12 40t41 15h459q2 -5 6.5 -19t4.5 -31q0 -26 -12 -41t-41 -15h-459zM73 167v112l341 112l-341 112v113l465 -166q9 -8 17 -23.5t8 -35.5q0 -21 -10.5 -40.5t-38.5 -29.5z" />
    <glyph glyph-name="lozenge" unicode="&#x25ca;" horiz-adv-x="656" 
d="M482 344l-154 245l-154 -245l154 -249zM44 344l226 360h116l226 -360l-226 -361h-116z" />
    <glyph glyph-name="fi" unicode="&#xf001;" horiz-adv-x="585" 
d="M61 533q0 56 17.5 95t47.5 63t70.5 35t87.5 11q88 0 130 -18.5t42 -50.5q0 -17 -9.5 -30.5t-20.5 -20.5q-8 6 -22.5 11.5t-31.5 9.5t-35.5 6.5t-34.5 2.5q-60 0 -94 -29t-34 -91v-25h289q36 0 47 -15.5t11 -47.5v-439h-113v397h-234v-397h-113v533z" />
    <glyph glyph-name="fl" unicode="&#xf002;" horiz-adv-x="572" 
d="M61 533q0 56 17.5 95t48.5 63t74 35t94 11q49 0 87.5 -6t66 -13t42.5 -13t17 -7v-698h-114v633q-6 2 -32.5 8t-65.5 6q-64 0 -92.5 -30.5t-28.5 -91.5v-23h114q33 0 46.5 -13.5t13.5 -39.5q0 -17 -5 -31.5t-8 -20.5h-161v-397h-114v533z" />
    <glyph glyph-name="zero.alt" unicode="&#xf800;" horiz-adv-x="668" 
d="M46 343q0 84 19.5 151t56.5 113.5t90.5 71.5t121.5 25q67 0 120.5 -25t90.5 -71.5t56.5 -113.5t19.5 -151t-19.5 -151t-56.5 -113.5t-90.5 -71t-120.5 -24.5q-68 0 -121.5 24.5t-90.5 71t-56.5 113.5t-19.5 151zM334 88q42 0 73 18.5t51.5 52.5t31 81t10.5 103t-10.5 103
t-31 80.5t-51.5 52.5t-73 19t-73.5 -19t-52 -52.5t-31 -80.5t-10.5 -103t10.5 -103t31 -81t52 -52.5t73.5 -18.5z" />
    <glyph glyph-name="one.alt" unicode="&#xf801;" horiz-adv-x="668" 
d="M330 551l-159 -115q-6 3 -15 8t-17.5 13t-14 18t-5.5 22q0 22 11 37t36 32l120 83q24 17 44.5 27t51.5 10q24 0 42 -7.5t22 -10.5v-668h-116v551z" />
    <glyph glyph-name="two.alt" unicode="&#xf802;" horiz-adv-x="668" 
d="M88 101q14 9 45 30.5l67.5 48l72.5 54t60 49.5q58 52 89 97.5t31 101.5q0 24 -8.5 45.5t-26 38.5t-45 27t-65.5 10t-65.5 -11t-46 -26t-29 -31t-14.5 -25q-9 2 -19.5 7t-20 13t-16 18.5t-6.5 23.5q0 15 5.5 28.5t13.5 24.5q5 7 19.5 20.5t40 26.5t62 22.5t86.5 9.5
q63 0 111 -16.5t80.5 -45t49 -67.5t16.5 -84q0 -35 -8 -65t-21 -55t-29.5 -46.5t-33.5 -40.5t-47 -45.5l-62 -52.5l-61 -48l-43 -32h310v-106h-492v101z" />
    <glyph glyph-name="three.alt" unicode="&#xf803;" horiz-adv-x="668" 
d="M124 139q12 -8 31 -17t44 -17t55.5 -13.5t65.5 -5.5q74 0 113 28.5t39 80.5t-41.5 77t-114.5 25h-63q-3 5 -9 20.5t-6 34.5q0 52 63 52h20q69 0 105 27.5t36 73.5q0 45 -35 72.5t-106 27.5q-40 0 -69 -10t-49 -24t-31.5 -28.5t-14.5 -22.5q-25 4 -43.5 21t-18.5 40
q0 14 4.5 27t17.5 27q7 7 22.5 19t41 23t62 19t84.5 8q67 0 115 -16t79 -42t45.5 -59.5t14.5 -68.5q0 -30 -9.5 -56t-25.5 -46.5t-36.5 -36t-41.5 -25.5q66 -22 95.5 -67t29.5 -98q0 -45 -18.5 -83t-52 -65.5t-81.5 -42.5t-107 -15q-51 0 -94 8t-76 18.5t-56 22t-34 19.5z
" />
    <glyph glyph-name="four.alt" unicode="&#xf804;" horiz-adv-x="668" 
d="M407 256v316q-35 -18 -76 -51.5t-76 -73t-58.5 -80.5t-23.5 -73q0 -25 18 -31.5t47 -6.5h169zM407 151h-192q-78 0 -119.5 26t-41.5 85q0 44 19 92t50.5 95t72.5 90t85 75.5t87 52t80 19.5q35 0 52.5 -7.5t21.5 -9.5v-413h33q59 0 59 -51q0 -19 -6 -34t-9 -20h-77v-151
h-115v151z" />
    <glyph glyph-name="five.alt" unicode="&#xf805;" horiz-adv-x="668" 
d="M123 129q26 -14 73.5 -29t108.5 -15q86 0 125 34t39 85q0 26 -9.5 48.5t-30.5 39t-56 26t-86 9.5q-22 0 -45 -2t-45 -5t-41.5 -7t-33.5 -8l10 313q2 68 73 68h295q59 0 59 -51q0 -19 -6 -34t-9 -20h-307l-5 -163q16 2 43.5 4.5t59.5 2.5q71 0 119.5 -18.5t78.5 -48.5
t43 -69t13 -80q0 -50 -18 -91.5t-53 -71.5t-86 -46.5t-118 -16.5q-49 0 -89.5 7t-70.5 16.5t-49.5 19t-26.5 14.5z" />
    <glyph glyph-name="six.alt" unicode="&#xf806;" horiz-adv-x="668" 
d="M319 670q12 16 27 25t39 9q30 0 48.5 -12t22.5 -17l-176 -233q11 6 32.5 13t56.5 7q54 0 97 -18.5t73 -49.5t46 -72t16 -87q0 -56 -20.5 -102t-56.5 -79.5t-85 -52t-106 -18.5q-58 0 -106.5 18t-84 50.5t-55.5 77t-20 98.5q0 68 30 130.5t81 128.5zM332 82q69 0 110.5 41
t41.5 106q0 34 -11.5 61.5t-31.5 46.5t-48 29.5t-61 10.5t-61 -11t-48 -30.5t-31.5 -47t-11.5 -59.5t11 -59t31.5 -46.5t48.5 -30.5t61 -11z" />
    <glyph glyph-name="seven.alt" unicode="&#xf807;" horiz-adv-x="668" 
d="M205 0q7 17 27 60.5l45.5 100.5l54 121l54.5 122.5l46 104.5l29 68h-322q-60 0 -60 53q0 19 5.5 35t9.5 21h423q35 0 53 -16t18 -43q0 -20 -6 -39.5t-15 -42.5q-10 -25 -28.5 -67.5l-41.5 -94l-48 -108l-48.5 -109l-43.5 -96.5l-31 -70h-121z" />
    <glyph glyph-name="eight.alt" unicode="&#xf808;" horiz-adv-x="668" 
d="M172 349q-56 29 -79 71.5t-23 86.5t18.5 80t52.5 62t83 40.5t110 14.5t109.5 -14.5t82.5 -40.5t52.5 -62t18.5 -80t-23 -86.5t-79 -71.5q33 -14 55.5 -32.5t36.5 -40t20 -45t6 -45.5q0 -46 -19 -83.5t-54.5 -64t-87.5 -41t-118 -14.5t-118 14.5t-88 41t-55 64t-19 83.5
q0 22 6 45.5t20 45t36.5 40t55.5 32.5zM334 395q74 0 110.5 30.5t36.5 76.5q0 47 -36.5 78t-110.5 31q-75 0 -111.5 -31t-36.5 -78q0 -46 36.5 -76.5t111.5 -30.5zM334 81q78 0 119 29.5t41 80.5q0 50 -41 80t-119 30t-119.5 -30t-41.5 -80q0 -51 41.5 -80.5t119.5 -29.5z
" />
    <glyph glyph-name="nine.alt" unicode="&#xf809;" horiz-adv-x="668" 
d="M387 241q-10 -6 -31 -12.5t-45 -6.5q-59 0 -105 18.5t-77 50t-47 73t-16 87.5q0 55 20 101.5t56 80.5t85.5 52.5t108.5 18.5q58 0 107 -18t84.5 -50.5t55 -77.5t19.5 -99q0 -71 -30.5 -131.5t-73.5 -117.5l-165 -218h-134zM182 456q0 -35 11.5 -62.5t32 -46.5t48.5 -29.5
t62 -10.5t62.5 11t49 31t32 47t11.5 60q0 32 -11.5 59.5t-32 47.5t-49 31t-62.5 11q-35 0 -63.5 -11t-48.5 -31t-31 -47t-11 -60z" />
    <glyph glyph-name="zero.sups" unicode="&#xf80a;" 
d="M237 387q-98 0 -150 61t-52 164q0 104 52 164.5t150 60.5t150 -60.5t52 -164.5q0 -103 -52 -164t-150 -61zM237 467q25 0 43 11t29.5 30.5t17 46t5.5 57.5t-5.5 57.5t-17 45.5t-29.5 30t-43 11q-26 0 -44 -11t-29 -30t-16.5 -45.5t-5.5 -57.5t5.5 -57.5t16.5 -46
t29 -30.5t44 -11z" />
    <glyph glyph-name="one.sups" unicode="&#xf80b;" 
d="M209 724l-95 -60q-3 1 -11 4.5t-15.5 9.5t-13.5 14.5t-6 19.5q0 15 8 25.5t25 21.5l107 64q11 7 22.5 10.5t25.5 3.5q20 0 33 -7t19 -12v-420h-99v326z" />
    <glyph glyph-name="two.sups" unicode="&#xf80c;" 
d="M49 472l40 23.5l51 32t53.5 38t47.5 41.5t34.5 42.5t13.5 42.5q0 29 -19 46t-58 17q-24 0 -43 -8t-32.5 -18.5t-21 -20.5t-8.5 -14q-9 1 -18.5 5t-17.5 11t-13.5 16.5t-5.5 20.5q0 10 8 25t27.5 29.5t51.5 25t79 10.5q83 0 130 -36t47 -101q0 -41 -19 -74t-47 -60
t-61 -47.5l-60 -36.5h192v-84h-351v74z" />
    <glyph glyph-name="three.sups" unicode="&#xf80d;" 
d="M68 502q6 -3 19 -9t32 -11.5t43 -9.5t50 -4q43 0 66.5 14.5t23.5 41.5q0 26 -23 40t-71 14h-42q-3 3 -9.5 14.5t-6.5 26.5q0 19 10.5 26.5t30.5 7.5h18q43 0 64.5 14t21.5 40q0 23 -20.5 37t-64.5 14q-27 0 -47.5 -6t-34.5 -14.5t-21.5 -16.5t-8.5 -11q-7 1 -15 4.5
t-15.5 8.5t-12.5 13t-5 18q0 11 4.5 20t12.5 18q5 5 16 13t29.5 15t44.5 12t61 5q51 0 85.5 -11t56.5 -28.5t31.5 -39t9.5 -41.5q0 -35 -19 -60t-49 -39q40 -14 58 -40.5t18 -61.5q0 -54 -47.5 -91.5t-137.5 -37.5q-37 0 -68.5 5t-56 12t-41 14t-22.5 10z" />
    <glyph glyph-name="four.sups" unicode="&#xf80e;" 
d="M277 493h-139q-52 0 -76.5 16.5t-24.5 54.5q0 31 15 63.5t39 63t54.5 57t61 46.5t58.5 31.5t48 11.5q25 0 39.5 -5t20.5 -9v-255h20q36 0 36 -34q0 -13 -4 -24t-7 -17h-45v-95h-96v95zM277 569v174q-23 -11 -48 -30t-45.5 -40.5t-34 -44t-13.5 -40.5q0 -12 9.5 -15.5
t24.5 -3.5h107z" />
    <glyph glyph-name="five.sups" unicode="&#xf80f;" 
d="M74 495q17 -8 50 -17.5t85 -9.5q29 0 47 5.5t28.5 14t14.5 19.5t4 22q0 14 -5 26t-17 20.5t-32 13t-51 4.5q-32 0 -68 -5t-56 -10l8 185q1 27 12 45t46 18h198q32 0 41.5 -11t9.5 -28q0 -15 -6.5 -25.5t-10.5 -15.5h-203l-4 -87q10 2 27.5 4t35.5 2q51 0 86 -10.5t56 -29
t30 -43t9 -51.5q0 -65 -49 -104.5t-150 -39.5q-35 0 -64 4.5t-50.5 11t-35.5 13t-20 9.5z" />
    <glyph glyph-name="six.sups" unicode="&#xf810;" 
d="M216 804q11 12 24 22.5t37 10.5q23 0 38 -11t21 -19l-117 -133q4 3 18.5 7t36.5 4q33 0 61 -9.5t48.5 -27.5t32 -43.5t11.5 -56.5q0 -36 -13.5 -65.5t-38.5 -51t-60 -33t-77 -11.5t-76.5 11.5t-59.5 31.5t-38.5 48.5t-13.5 63.5q0 43 21 82t53 75zM148 543
q0 -36 24 -58.5t66 -22.5q43 0 66.5 23.5t23.5 58.5q0 37 -24 58.5t-66 21.5q-41 0 -65.5 -23t-24.5 -58z" />
    <glyph glyph-name="seven.sups" unicode="&#xf811;" 
d="M293 742h-200q-50 0 -50 43q0 12 6 24t10 17h279q64 0 64 -48q0 -11 -5 -25t-16 -37l-161 -318h-103z" />
    <glyph glyph-name="eight.sups" unicode="&#xf812;" 
d="M109 616q-36 19 -49 44t-13 50q0 57 49 92t141 35t141 -35t49 -92q0 -25 -13 -50t-49 -44q42 -18 57 -44.5t15 -53.5q0 -60 -50 -95.5t-150 -35.5t-150 35.5t-50 95.5q0 27 15 53.5t57 44.5zM142 523q0 -26 23 -42.5t72 -16.5t72 16.5t23 42.5t-23 41.5t-72 15.5
t-72 -15.5t-23 -41.5zM149 707q0 -25 21.5 -41t66.5 -16t66.5 16t21.5 41q0 24 -21.5 40.5t-66.5 16.5t-66.5 -16.5t-21.5 -40.5z" />
    <glyph glyph-name="nine.sups" unicode="&#xf813;" 
d="M252 547q-5 -3 -19 -6t-33 -3q-33 0 -61 10t-49 28t-32.5 43.5t-11.5 56.5q0 36 13.5 65.5t38.5 51t60 33t77 11.5t76.5 -11.5t59 -32t38 -49t13.5 -62.5q0 -43 -22.5 -84t-64.5 -89l-102 -116h-117zM145 680q0 -37 24 -58.5t66 -21.5q41 0 65.5 23t24.5 58q0 36 -24 58
t-66 22q-43 0 -66.5 -23t-23.5 -58z" />
    <glyph glyph-name="zero.sinf" unicode="&#xf814;" 
d="M237 -106q-98 0 -150 61t-52 164q0 104 52 164.5t150 60.5t150 -60.5t52 -164.5q0 -103 -52 -164t-150 -61zM237 -26q25 0 43 11t29.5 30.5t17 46t5.5 57.5t-5.5 57.5t-17 45.5t-29.5 30t-43 11q-26 0 -44 -11t-29 -30t-16.5 -45.5t-5.5 -57.5t5.5 -57.5t16.5 -46
t29 -30.5t44 -11z" />
    <glyph glyph-name="one.sinf" unicode="&#xf815;" 
d="M209 231l-95 -60q-3 1 -11 4.5t-15.5 9.5t-13.5 14.5t-6 19.5q0 15 8 25.5t25 21.5l107 64q11 7 22.5 10.5t25.5 3.5q20 0 33 -7t19 -12v-420h-99v326z" />
    <glyph glyph-name="two.sinf" unicode="&#xf816;" 
d="M49 -21l40 23.5l51 32t53.5 38t47.5 41.5t34.5 42.5t13.5 42.5q0 29 -19 46t-58 17q-24 0 -43 -8t-32.5 -18.5t-21 -20.5t-8.5 -14q-9 1 -18.5 5t-17.5 11t-13.5 16.5t-5.5 20.5q0 10 8 25t27.5 29.5t51.5 25t79 10.5q83 0 130 -36t47 -101q0 -41 -19 -74t-47 -60
t-61 -47.5l-60 -36.5h192v-84h-351v74z" />
    <glyph glyph-name="three.sinf" unicode="&#xf817;" 
d="M68 9q6 -3 19 -9t32 -11.5t43 -9.5t50 -4q43 0 66.5 14.5t23.5 41.5q0 26 -23 40t-71 14h-42q-3 3 -9.5 14.5t-6.5 26.5q0 19 10.5 26.5t30.5 7.5h18q43 0 64.5 14t21.5 40q0 23 -20.5 37t-64.5 14q-27 0 -47.5 -6t-34.5 -14.5t-21.5 -16.5t-8.5 -11q-7 1 -15 4.5
t-15.5 8.5t-12.5 13t-5 18q0 11 4.5 20t12.5 18q5 5 16 13t29.5 15t44.5 12t61 5q51 0 85.5 -11t56.5 -28.5t31.5 -39t9.5 -41.5q0 -35 -19 -60t-49 -39q40 -14 58 -40.5t18 -61.5q0 -54 -47.5 -91.5t-137.5 -37.5q-37 0 -68.5 5t-56 12t-41 14t-22.5 10z" />
    <glyph glyph-name="four.sinf" unicode="&#xf818;" 
d="M277 0h-139q-52 0 -76.5 16.5t-24.5 54.5q0 31 15 63.5t39 63t54.5 57t61 46.5t58.5 31.5t48 11.5q25 0 39.5 -5t20.5 -9v-255h20q36 0 36 -34q0 -13 -4 -24t-7 -17h-45v-95h-96v95zM277 76v174q-23 -11 -48 -30t-45.5 -40.5t-34 -44t-13.5 -40.5q0 -12 9.5 -15.5
t24.5 -3.5h107z" />
    <glyph glyph-name="five.sinf" unicode="&#xf819;" 
d="M74 2q17 -8 50 -17.5t85 -9.5q29 0 47 5.5t28.5 14t14.5 19.5t4 22q0 14 -5 26t-17 20.5t-32 13t-51 4.5q-32 0 -68 -5t-56 -10l8 185q1 27 12 45t46 18h198q32 0 41.5 -11t9.5 -28q0 -15 -6.5 -25.5t-10.5 -15.5h-203l-4 -87q10 2 27.5 4t35.5 2q51 0 86 -10.5t56 -29
t30 -43t9 -51.5q0 -65 -49 -104.5t-150 -39.5q-35 0 -64 4.5t-50.5 11t-35.5 13t-20 9.5z" />
    <glyph glyph-name="six.sinf" unicode="&#xf81a;" 
d="M216 311q11 12 24 22.5t37 10.5q23 0 38 -11t21 -19l-117 -133q4 3 18.5 7t36.5 4q33 0 61 -9.5t48.5 -27.5t32 -43.5t11.5 -56.5q0 -36 -13.5 -65.5t-38.5 -51t-60 -33t-77 -11.5t-76.5 11.5t-59.5 31.5t-38.5 48.5t-13.5 63.5q0 43 21 82t53 75zM148 50q0 -36 24 -58.5
t66 -22.5q43 0 66.5 23.5t23.5 58.5q0 37 -24 58.5t-66 21.5q-41 0 -65.5 -23t-24.5 -58z" />
    <glyph glyph-name="seven.sinf" unicode="&#xf81b;" 
d="M293 249h-200q-50 0 -50 43q0 12 6 24t10 17h279q64 0 64 -48q0 -11 -5 -25t-16 -37l-161 -318h-103z" />
    <glyph glyph-name="eight.sinf" unicode="&#xf81c;" 
d="M109 123q-36 19 -49 44t-13 50q0 57 49 92t141 35t141 -35t49 -92q0 -25 -13 -50t-49 -44q42 -18 57 -44.5t15 -53.5q0 -60 -50 -95.5t-150 -35.5t-150 35.5t-50 95.5q0 27 15 53.5t57 44.5zM142 30q0 -26 23 -42.5t72 -16.5t72 16.5t23 42.5t-23 41.5t-72 15.5
t-72 -15.5t-23 -41.5zM149 214q0 -25 21.5 -41t66.5 -16t66.5 16t21.5 41q0 24 -21.5 40.5t-66.5 16.5t-66.5 -16.5t-21.5 -40.5z" />
    <glyph glyph-name="nine.sinf" unicode="&#xf81d;" 
d="M252 54q-5 -3 -19 -6t-33 -3q-33 0 -61 10t-49 28t-32.5 43.5t-11.5 56.5q0 36 13.5 65.5t38.5 51t60 33t77 11.5t76.5 -11.5t59 -32t38 -49t13.5 -62.5q0 -43 -22.5 -84t-64.5 -89l-102 -116h-117zM145 187q0 -37 24 -58.5t66 -21.5q41 0 65.5 23t24.5 58q0 36 -24 58
t-66 22q-43 0 -66.5 -23t-23.5 -58z" />
    <glyph glyph-name="hungarumlaut.cap" horiz-adv-x="500" 
d="M29 616l94 71q18 14 34 21.5t33 7.5q21 0 32.5 -9.5t17.5 -20.5t7.5 -21t1.5 -11l-179 -93zM253 616l94 71q18 14 34 21.5t33 7.5q21 0 32.5 -9.5t17.5 -20.5t7.5 -21t1.5 -11l-179 -93z" />
    <glyph glyph-name="cedilla.cap" horiz-adv-x="500" 
d="M158 -130q3 -2 26 -11t52 -9q20 0 30.5 6t10.5 23q0 9 -5.5 15.5t-14 10t-18 5t-17.5 1.5l16 56q21 -1 43.5 -6t40.5 -15.5t30 -26.5t12 -38q0 -44 -32.5 -69.5t-86.5 -25.5q-26 0 -46 4t-34.5 9t-22.5 9t-9 5z" />
    <glyph glyph-name="tilde.cap" horiz-adv-x="500" 
d="M186 571q4 19 11.5 38t20.5 34t31 24t43 9q22 0 40 -4.5t34.5 -10t31.5 -10t32 -4.5q14 0 21.5 8.5t12.5 27.5l74 -13q-4 -20 -11.5 -38.5t-20.5 -33.5t-31 -24t-43 -9q-23 0 -41 4.5t-34.5 10.5t-31.5 10.5t-31 4.5q-14 0 -21 -9t-12 -29z" />
    <glyph glyph-name="ogonek.cap" horiz-adv-x="500" 
d="M319 4v-4q-16 -3 -32.5 -9t-30.5 -15.5t-23 -22t-9 -28.5q0 -19 13.5 -26.5t31.5 -7.5q25 0 43 8t21 10l25 -57q-11 -6 -38.5 -15.5t-68.5 -9.5q-49 0 -80 19t-31 63q0 25 10.5 42.5t24 29t26.5 16.5l18 7h100z" />
    <glyph glyph-name="ring.cap" horiz-adv-x="500" 
d="M259 643q0 21 8 39.5t22 33t33 22.5t41 8t41 -8t33 -22.5t22 -33t8 -39.5t-8 -39.5t-22 -32.5t-33 -22t-41 -8t-41 8t-33 22t-22 32.5t-8 39.5zM363 594q21 0 34 13.5t13 35.5q0 21 -13 35t-34 14t-34 -14t-13 -35q0 -22 13 -35.5t34 -13.5z" />
    <glyph glyph-name="caron.cap" horiz-adv-x="500" 
d="M213 701l128 -69l64.5 34.5l63.5 34.5l45 -48l-103 -75q-15 -11 -32.5 -20t-37.5 -9t-38 9t-32 20l-103 75z" />
    <glyph glyph-name="macron.cap" horiz-adv-x="500" 
d="M491 661q26 0 35 -12.5t9 -32.5q0 -15 -3.5 -25t-5.5 -15h-295q-23 0 -33.5 12t-10.5 31q0 16 3 25t5 17h296z" />
    <glyph glyph-name="dieresis.cap" horiz-adv-x="500" 
d="M188 617q0 24 19.5 43.5t45.5 19.5t45.5 -19.5t19.5 -43.5q0 -23 -19.5 -42.5t-45.5 -19.5q-13 0 -24.5 5.5t-20.5 14t-14.5 19.5t-5.5 23zM408 617q0 24 19.5 43.5t45.5 19.5t45 -19.5t19 -43.5q0 -23 -19 -42.5t-45 -19.5t-45.5 19.5t-19.5 42.5z" />
    <glyph glyph-name="dotaccent.cap" horiz-adv-x="500" 
d="M184 617q0 24 20 43.5t46 19.5q25 0 44 -19.5t19 -43.5q0 -12 -5 -23t-14 -19.5t-20.5 -14t-23.5 -5.5q-26 0 -46 19.5t-20 42.5z" />
    <glyph glyph-name="circumflex.cap" horiz-adv-x="500" 
d="M168 596l104 75q14 10 32 20t38 10t43 -11t45.5 -27.5t44.5 -34.5t41 -32l-47 -49l-127 69l-127 -69z" />
    <glyph glyph-name="acute.cap" horiz-adv-x="500" 
d="M254 608l127 74q17 10 31.5 14.5t30.5 4.5q18 0 30 -8.5t19.5 -19.5t10.5 -22t3 -16l-217 -86z" />
    <glyph glyph-name="grave.cap" horiz-adv-x="500" 
d="M207 635q0 5 3 16t10.5 22t19.5 19.5t30 8.5q28 0 62 -19l127 -74l-35 -59z" />
    <glyph glyph-name="breve.cap" horiz-adv-x="500" 
d="M242 702q11 -35 36 -53.5t63 -18.5t63.5 18.5t36.5 53.5l66 -7q-1 -20 -9.5 -44.5t-27.5 -46t-50.5 -36.5t-78.5 -15t-78.5 15t-50.5 36.5t-27.5 46t-9.5 44.5z" />
    <glyph glyph-name="commaaccent.cap" horiz-adv-x="500" 
d="M201 -123q3 31 16.5 49t42.5 18q20 0 34.5 -7.5t19.5 -11.5l-60 -178l-66 12z" />
    <glyph glyph-name="caron.alt" horiz-adv-x="500" 
d="M206 516v159q0 29 14.5 45.5t49.5 16.5q20 0 27 -4l-23 -217h-68z" />
    <glyph glyph-name="commaaccent" horiz-adv-x="500" 
d="M195 -123q3 31 16.5 49t42.5 18q20 0 34.5 -7.5t19.5 -11.5l-60 -178l-66 12z" />
    <glyph glyph-name="revcommaaccent" horiz-adv-x="500" 
d="M305 633q-4 -31 -17.5 -49t-41.5 -18q-20 0 -34.5 7.5t-19.5 11.5l60 178l66 -12z" />
    <glyph glyph-name="uni0394" unicode="&#x394;" horiz-adv-x="734" 
d="M5 0q59 158 125.5 315.5l138.5 317.5q18 40 40.5 55.5t57.5 15.5q13 0 25.5 -3t22.5 -7t16 -7.5t7 -4.5q16 -28 41.5 -83l55 -123.5l60.5 -143.5l57.5 -141.5l46.5 -117.5t28 -73h-722zM363 583q-55 -118 -103.5 -237l-95.5 -242h394l-94.5 240t-100.5 239z" />
    </font>
</defs>
</svg>
